G04 ================== begin FILE IDENTIFICATION RECORD ==================*
G04 Layout Name:  STANDARD.brd*
G04 Film Name:    1-TOP*
G04 File Format:  Gerber RS274X*
G04 File Origin:  Cadence Allegro 16.6-P004*
G04 Origin Date:  Thu Sep 18 09:56:33 2014*
G04 *
G04 Layer:  BOARD GEOMETRY/OUTLINE*
G04 Layer:  ETCH/TOP*
G04 Layer:  PIN/TOP*
G04 Layer:  VIA CLASS/TOP*
G04 *
G04 Offset:    (0.0000 0.0000)*
G04 Mirror:    No*
G04 Mode:      Positive*
G04 Rotation:  0*
G04 FullContactRelief:  No*
G04 UndefLineWidth:     0.1000*
G04 ================== end FILE IDENTIFICATION RECORD ====================*
%FSLAX25Y25*MOMM*%
%IR0*IPPOS*OFA0.00000B0.00000*MIA0B0*SFA1.00000B1.00000*%
%ADD17R,1.X.95*%
%ADD45R,.7X1.8*%
%ADD33R,.95X1.*%
%ADD13R,1.74X.3*%
%ADD12R,1.8X.7*%
%ADD42C,.5*%
%ADD35R,1.3X.6901*%
%ADD44R,.6X1.94*%
%ADD53C,.9*%
%ADD15R,2.9X.95*%
%ADD60R,.95X2.9*%
%ADD50R,.85X3.55*%
%ADD49R,.85X2.65*%
%ADD22C,.508*%
%ADD14C,.4064*%
%ADD65R,.635X1.905*%
%ADD16C,.762*%
%ADD63R,1.905X.635*%
%ADD54R,.508X2.2606*%
%ADD20R,.65X.65*%
%ADD41R,2.X3.*%
%ADD28R,1.4X1.*%
%ADD10R,3.X2.*%
%ADD70R,1.X1.4*%
%ADD74R,1.3X2.2*%
%ADD59R,1.2X1.4*%
%ADD47R,1.1X1.05*%
%ADD66R,2.2X1.3*%
%ADD26R,1.05X1.1*%
%ADD23R,1.4X1.3*%
%ADD11C,1.*%
%ADD55C,1.4*%
%ADD46R,.46X.4*%
%ADD39R,3.56X1.4*%
%ADD72R,1.45X3.7*%
%ADD68R,3.52X2.62*%
%ADD57R,.42X.9*%
%ADD43R,1.4X1.94*%
%ADD25R,.4X.46*%
%ADD56R,.62X.9*%
%ADD48R,.85X.4*%
%ADD37R,.9X.8*%
%ADD34C,1.016*%
%ADD27R,.4X.85*%
%ADD21C,1.27*%
%ADD18R,.65X.8*%
%ADD38R,.8X.65*%
%ADD75C,1.524*%
%ADD58R,1.4X1.4*%
%ADD61R,3.48X1.92*%
%ADD67R,.28X.85*%
%ADD30R,1.524X1.3462*%
%ADD64R,.85X.28*%
%ADD32R,1.3462X1.524*%
%ADD31R,1.78X3.56*%
%ADD62R,1.92X2.79*%
%ADD73O,1.778X3.81*%
%ADD76R,1.524X1.524*%
%ADD71O,3.81X1.778*%
%ADD52R,2.0574X3.5052*%
%ADD69O,4.572X1.778*%
%ADD19R,2.7X1.5999*%
%ADD40R,1.5999X2.7*%
%ADD24R,1.8001X1.5999*%
%ADD36R,1.5999X1.8001*%
%ADD29R,.5588X.508*%
%ADD51R,2.0574X3.9878*%
%ADD77C,.1*%
%ADD78C,.4*%
%ADD79C,.245*%
%ADD80C,.38*%
%ADD81C,.254*%
%ADD82C,.3801*%
%ADD83C,.381*%
%ADD84C,.76*%
%ADD85C,.1829*%
%ADD86C,.1778*%
%ADD87C,.9084*%
%ADD88C,.8068*%
G75*
%LPD*%
G75*
G36*
G01X-8227060Y-5593080D02*
X-8089900Y-5730240D01*
Y-5925820D01*
X-8691880D01*
Y-5593080D01*
X-8227060D01*
G37*
G36*
G01X-8752840Y-58420D02*
Y698480D01*
X-8079760D01*
Y507980D01*
X-8204200Y383540D01*
Y-58420D01*
X-8752840D01*
G37*
G36*
G01Y1018540D02*
X-7813040D01*
Y736600D01*
X-8752840D01*
Y1018540D01*
G37*
G36*
G01X-8166100Y-7421880D02*
Y-7230380D01*
G02X-8153130Y-7220620I10158J-1D01*
G03Y-7143080I11160J38770D01*
G02X-8166100Y-7133320I-2812J9761D01*
G01Y-7005320D01*
X-8150960D01*
X-8149730Y-7006090D01*
G03X-8106820Y-7005920I21320J34249D01*
G03X-8062730Y-7005320I21585J34080D01*
G01X-7752080D01*
X-7701280Y-7056120D01*
Y-7421880D01*
X-8166100D01*
G37*
G36*
G01X-7584440Y-7061200D02*
X-7703820Y-6941820D01*
X-7937500D01*
X-8018780Y-6860540D01*
X-8219440D01*
Y-6431280D01*
X-7677450D01*
X-7672370Y-6436360D01*
Y-6457410D01*
X-7669390Y-6460390D01*
G02Y-6474750I-7188J-7180D01*
G03X-7672370Y-6481940I7180J-7188D01*
G01Y-6505670D01*
X-7618190Y-6559850D01*
X-7444840D01*
G03X-7437650Y-6556870I2J10160D01*
G02X-7423290I7180J-7188D01*
G01X-7340600Y-6639560D01*
Y-7061200D01*
X-7584440D01*
G37*
G36*
G01X-8216900Y-6393160D02*
Y-6078220D01*
X-7871460D01*
Y-6393160D01*
X-8216900D01*
G37*
G36*
G01X-7970520Y-5811520D02*
Y-5717540D01*
X-8133080Y-5554980D01*
X-8211250D01*
X-8211270Y-5554960D01*
X-8348980D01*
Y-5153660D01*
X-8067040D01*
X-7955280Y-5265420D01*
Y-5549900D01*
X-7912140Y-5593040D01*
Y-5594020D01*
X-7911160D01*
X-7881620Y-5623560D01*
X-7759700D01*
Y-5780470D01*
X-7774960Y-5795730D01*
Y-5796300D01*
X-7790180Y-5811520D01*
X-7970520D01*
G37*
G36*
G01X-8348980Y-5008880D02*
X-8448040D01*
Y-4838700D01*
X-7962900D01*
Y-5046980D01*
X-7884160Y-5125720D01*
X-7713980D01*
Y-5290820D01*
X-7843520D01*
X-7992110Y-5142230D01*
X-8020050D01*
X-8079740Y-5082540D01*
X-8275320D01*
X-8348980Y-5008880D01*
G37*
G36*
G01X-7772400Y-4318000D02*
Y-4533900D01*
X-8305800D01*
Y-4318000D01*
X-7772400D01*
G37*
G36*
G01X-7360920Y-228600D02*
Y-147320D01*
X-7437120Y-71120D01*
X-8148320D01*
Y375920D01*
X-8041640Y482600D01*
Y698480D01*
X-7835900D01*
Y474980D01*
X-7747000Y386080D01*
X-7477760D01*
Y383540D01*
X-7134860Y40640D01*
X-7073900D01*
Y-228600D01*
X-7360920D01*
G37*
G36*
G01X-7833340Y-6268720D02*
Y-6098540D01*
X-7688580D01*
Y-6268720D01*
X-7833340D01*
G37*
G36*
G01X-7736840Y-5948680D02*
Y-5811520D01*
X-7645420Y-5720100D01*
X-7520390D01*
X-7467580Y-5667290D01*
Y-5623540D01*
X-7452380Y-5608340D01*
X-7279090D01*
X-7279070Y-5608320D01*
X-7259320D01*
Y-5788660D01*
X-7424420D01*
X-7482840Y-5847080D01*
Y-5948680D01*
X-7736840D01*
G37*
G36*
G01X-7693660Y-5681980D02*
Y-5496560D01*
X-7559040D01*
X-7493000Y-5430520D01*
Y-5179060D01*
X-7376160D01*
X-7368930Y-5171830D01*
X-7368610D01*
Y-5171510D01*
X-7343140Y-5146040D01*
X-7137400D01*
Y-5412740D01*
X-7294880Y-5570220D01*
X-7475220D01*
X-7505700Y-5600700D01*
Y-5651500D01*
X-7536180Y-5681980D01*
X-7693660D01*
G37*
G36*
G01X-6664960Y-7063740D02*
X-6835140Y-6893560D01*
X-7178040D01*
X-7299960Y-6771640D01*
Y-6598920D01*
X-7462520Y-6436360D01*
Y-6245860D01*
X-7294880D01*
Y-6428740D01*
X-7093940Y-6629680D01*
G02X-7095140Y-6645070I-7185J-7182D01*
G03X-7032320Y-6667510I23777J-32588D01*
G02X-7022480Y-6654800I9835J2550D01*
G01X-6433820D01*
Y-7063740D01*
X-6664960D01*
G37*
G36*
G01X-5897880Y-6692900D02*
Y-7096760D01*
X-6238240D01*
Y-6692900D01*
X-5897880D01*
G37*
G36*
G01X-6278880Y-4071620D02*
X-6289040Y-4061460D01*
Y-3820160D01*
X-6258560Y-3789680D01*
X-6015560D01*
X-5984240Y-3821000D01*
Y-3858260D01*
X-5943600Y-3898900D01*
X-5915660D01*
X-5902960Y-3911600D01*
Y-4061460D01*
X-5913120Y-4071620D01*
X-6278880D01*
G37*
G36*
G01X-5960000Y-2235000D02*
X-5803900D01*
X-5796280Y-2242620D01*
Y-2334260D01*
X-5772060Y-2358480D01*
X-5726520D01*
X-5710000Y-2375000D01*
X-5550000D01*
X-5535000Y-2390000D01*
Y-2570000D01*
X-5545000Y-2580000D01*
X-5940000D01*
X-5975000Y-2545000D01*
Y-2250000D01*
X-5960000Y-2235000D01*
G37*
G36*
G01X-5138420Y-7094220D02*
Y-7414260D01*
X-5473700D01*
Y-7094220D01*
X-5138420D01*
G37*
G36*
G01X-5733980Y-2320360D02*
X-5758160Y-2296180D01*
Y-2226830D01*
X-5781040Y-2203950D01*
Y-2113280D01*
X-5755640Y-2087880D01*
X-5577840D01*
X-5547360Y-2118360D01*
Y-2129580D01*
X-5548360Y-2130930D01*
G03X-5547360Y-2186390I36461J-27082D01*
G01Y-2336800D01*
X-5547440Y-2336880D01*
X-5694210D01*
X-5710730Y-2320360D01*
X-5733980D01*
G37*
G36*
G01X-4912360Y-2519680D02*
X-4922520Y-2529840D01*
X-5077460D01*
X-5078940Y-2528360D01*
G03X-5087620Y-2507610I-56944J-11630D01*
G01Y-2452390D01*
G03X-5086830Y-2388830I-48261J32385D01*
G01X-5087620Y-2387580D01*
Y-2377440D01*
X-5118100Y-2346960D01*
X-5336540D01*
X-5346700Y-2336800D01*
Y-2125000D01*
X-5331700Y-2110000D01*
X-4927360D01*
X-4912360Y-2125000D01*
Y-2519680D01*
G37*
G36*
G01X-4922520Y-896620D02*
Y-890000D01*
X-5190000D01*
Y-480000D01*
X-4922520D01*
Y-213360D01*
X-4876820D01*
Y-213380D01*
X-4297680D01*
Y-896620D01*
X-4922520D01*
G37*
G36*
G01X-4879340Y566420D02*
Y170180D01*
X-5029200Y20320D01*
Y-170180D01*
X-5339080D01*
Y566420D01*
X-4879340D01*
G37*
G36*
G01X-4338320Y-175260D02*
X-4838700D01*
Y551180D01*
X-4338320D01*
Y-175260D01*
G37*
G36*
G01X-4090000Y-1920000D02*
X-4100000Y-1910000D01*
Y-1820000D01*
X-3950000Y-1670000D01*
X-3745820D01*
Y-1680610D01*
X-3553380D01*
Y-1670000D01*
X-3500000D01*
X-3425790Y-1595790D01*
Y-1592790D01*
X-3419280D01*
Y-1393770D01*
X-3425790D01*
Y-1375790D01*
X-3320000Y-1270000D01*
X-2840000D01*
X-2820000Y-1290000D01*
Y-1480000D01*
X-2840000Y-1500000D01*
X-3236080D01*
Y-1487750D01*
X-3341120D01*
Y-1592790D01*
X-3330000D01*
Y-1602740D01*
X-3330290Y-1603560D01*
G03Y-1633800I42830J-15120D01*
G01X-3330000Y-1634620D01*
Y-1670000D01*
X-3460000Y-1800000D01*
X-3540000D01*
X-3580000Y-1840000D01*
Y-1900000D01*
X-3600000Y-1920000D01*
X-4090000D01*
G37*
G36*
G01X-2694940Y190500D02*
X-3652520D01*
Y876300D01*
X-3177540D01*
Y645160D01*
X-3096260Y563880D01*
X-2694940D01*
Y190500D01*
G37*
G36*
G01X-3080380Y-6480880D02*
X-3080240Y-6482770D01*
G03X-3037230Y-6439760I40240J2770D01*
G01X-3039120Y-6439620D01*
X-3083570Y-6395180D01*
X-3103880D01*
Y-6096000D01*
X-3093720Y-6085840D01*
X-2684780D01*
X-2648120Y-6122500D01*
Y-6325790D01*
X-2636520Y-6337390D01*
Y-6339840D01*
X-2504440Y-6471920D01*
X-2501990D01*
X-2489270Y-6484640D01*
X-2204700D01*
X-2176780Y-6512560D01*
Y-6858000D01*
X-2199640Y-6880860D01*
X-2562860D01*
X-2606040Y-6924040D01*
Y-7175500D01*
X-2573020Y-7208520D01*
X-2258060D01*
X-2255520Y-7211060D01*
Y-7320280D01*
X-2263140Y-7327900D01*
X-3012440D01*
X-3056700Y-7283640D01*
X-3055730Y-7281310D01*
Y-7161130D01*
X-3103880D01*
Y-6994670D01*
G03X-3070240Y-6961870I-41746J76465D01*
G02X-3054780Y-6959290I8795J-5089D01*
G03X-3050750Y-6887580I29780J34295D01*
G02X-3065820Y-6883290I-5764J8367D01*
G03X-3103880Y-6841750I-79812J-34920D01*
G01Y-6481900D01*
G02X-3086540Y-6474720I10158J-3D01*
G01X-3080380Y-6480880D01*
G37*
G36*
G01X-3129280Y-5951520D02*
Y-5661660D01*
X-3124200Y-5656580D01*
X-3117440D01*
X-3116630Y-5656860D01*
G03X-3087070I14780J42950D01*
G01X-3086260Y-5656580D01*
X-2999740D01*
X-2956560Y-5613400D01*
Y-5456560D01*
X-2860000Y-5360000D01*
X-2577140D01*
X-2517140Y-5300000D01*
Y-5181600D01*
X-2491740Y-5156200D01*
X-1770380D01*
X-1750060Y-5176520D01*
Y-5570060D01*
X-1840000Y-5660000D01*
X-2124240D01*
X-2174240Y-5710000D01*
Y-5867400D01*
X-2186940Y-5880100D01*
X-2517140D01*
X-2522220Y-5875020D01*
Y-5737860D01*
X-2529840Y-5730240D01*
X-2534790D01*
Y-5721180D01*
X-2669830D01*
Y-5730240D01*
X-2755900D01*
X-2773680Y-5748020D01*
Y-5933440D01*
X-2799080Y-5958840D01*
X-2940590D01*
G03X-3005550I-32480J-31750D01*
G01X-3120870D01*
G03X-3129280Y-5951520I-33798J-30340D01*
G37*
G36*
G01X-2626230Y-4620130D02*
X-2626360Y-4620000D01*
X-2860000D01*
X-2910000Y-4570000D01*
Y-4536020D01*
X-2887600D01*
X-2886880Y-4536230D01*
G03X-2831580Y-4437120I16683J55674D01*
G01X-2848730Y-4419980D01*
X-2910000D01*
Y-4256970D01*
G03Y-4203030I-30000J26970D01*
G01Y-4150000D01*
X-2890000Y-4130000D01*
X-2350000D01*
X-2340000Y-4140000D01*
Y-4595000D01*
X-2365000Y-4620000D01*
X-2418080D01*
Y-4620130D01*
X-2626230D01*
G37*
G36*
G01X-2970000Y-2650000D02*
X-2990000Y-2630000D01*
Y-2350000D01*
X-2830000Y-2190000D01*
X-2720000D01*
X-2570000Y-2040000D01*
X-2489150D01*
G03X-2418130I35510J28320D01*
G01X-2040000D01*
X-2000000Y-2080000D01*
Y-2319430D01*
G03Y-2383870I24270J-32220D01*
G01Y-2480000D01*
X-2070000Y-2550000D01*
X-2078090D01*
G02X-2088230Y-2540330I7J10158D01*
G03X-2178970I-45370J-2210D01*
G02X-2189110Y-2550000I-10147J488D01*
G01X-2500000D01*
X-2600000Y-2650000D01*
X-2970000D01*
G37*
G36*
G01X-2136120Y-5725790D02*
X-2110090Y-5699760D01*
X-1793240D01*
X-1772920Y-5720080D01*
Y-5847080D01*
X-1757680Y-5862320D01*
X-1539240D01*
X-1503680Y-5897880D01*
Y-6385560D01*
X-1564640Y-6446520D01*
X-2473480D01*
X-2610000Y-6310000D01*
Y-6013600D01*
X-2550160Y-5953760D01*
X-2217520D01*
X-2181980Y-5918220D01*
X-2171150D01*
X-2136120Y-5883190D01*
Y-5725790D01*
G37*
G36*
G01X-2639060Y246380D02*
Y546100D01*
X-1960880D01*
Y246380D01*
X-2639060D01*
G37*
G36*
G01X-1564640Y-4424640D02*
X-1569610Y-4429610D01*
X-1571600Y-4429690D01*
G03X-1596970Y-4440000I1601J-40309D01*
G01X-1618030D01*
G03X-1671970I-26970J-30000D01*
G01X-1878080D01*
G03X-1941920I-31920J-24660D01*
G01X-1953730D01*
G03X-2023430I-34850J-20320D01*
G01X-2100000D01*
X-2120000Y-4420000D01*
Y-3936100D01*
X-2021280Y-3837380D01*
X-1862380D01*
X-1717520Y-3692520D01*
X-1704470D01*
Y-3587070D01*
G02X-1710450Y-3572330I2871J9748D01*
G03X-1711910Y-3525260I-39550J22331D01*
G01X-1712730Y-3524000D01*
Y-3512520D01*
X-1710980D01*
Y-3400000D01*
X-1630000D01*
Y-3580000D01*
X-1610000Y-3600000D01*
Y-3699640D01*
X-1564640Y-3745000D01*
Y-4020540D01*
G02X-1576850Y-4030490I-10159J0D01*
G03Y-4109510I-8150J-39510D01*
G02X-1564640Y-4119460I2051J-9950D01*
G01Y-4424640D01*
G37*
G36*
G01X-2148840Y-2816860D02*
X-2138680Y-2827020D01*
Y-3454400D01*
X-2080260Y-3512820D01*
Y-3660140D01*
X-2098040Y-3677920D01*
X-2247900D01*
X-2324100Y-3601720D01*
Y-2827020D01*
X-2313940Y-2816860D01*
X-2148840D01*
G37*
G36*
G01X-2029460Y-1173480D02*
Y-1023930D01*
G03Y-977590I-33020J23170D01*
G01Y-337820D01*
X-1193800D01*
Y-1173480D01*
X-2029460D01*
G37*
G36*
G01X-637540Y-6012180D02*
X-601980Y-6047740D01*
Y-6294120D01*
X-629920Y-6322060D01*
X-995680D01*
X-1060000Y-6386380D01*
Y-6820380D01*
X-1090000Y-6850380D01*
X-1864360D01*
X-1869440Y-6845300D01*
Y-6642100D01*
X-1868670Y-6641330D01*
Y-6608670D01*
X-1820000Y-6560000D01*
X-1490000D01*
X-1420000Y-6490000D01*
Y-6120000D01*
X-1312180Y-6012180D01*
X-637540D01*
G37*
G36*
G01X-1275460Y-3769540D02*
X-1275390Y-3771540D01*
G03X-1231540Y-3815390I45390J1540D01*
G01X-1229540Y-3815460D01*
X-1215000Y-3830000D01*
X-1030000D01*
X-910000Y-3950000D01*
Y-4420000D01*
X-920660Y-4430660D01*
X-1478280D01*
X-1485900Y-4423040D01*
Y-3785000D01*
X-1526520Y-3744380D01*
Y-3729210D01*
X-1571880Y-3683850D01*
Y-3584210D01*
X-1591880Y-3564210D01*
Y-3400000D01*
X-1530000D01*
Y-3520000D01*
X-1527720Y-3522280D01*
Y-3548550D01*
X-1515450Y-3560820D01*
X-1515340Y-3562740D01*
G03X-1433630Y-3587210I45339J2738D01*
G02X-1418310Y-3586110I8136J-6084D01*
G01X-1411700Y-3592720D01*
X-1387280D01*
X-1370530Y-3609470D01*
Y-3694470D01*
X-1350000Y-3715000D01*
X-1330000D01*
X-1275460Y-3769540D01*
G37*
G36*
G01X-1410980Y-2795090D02*
G03X-1426940Y-2723320I-34020J30094D01*
G01X-1430000Y-2722000D01*
Y-2665000D01*
X-1485000Y-2610000D01*
Y-2455000D01*
X-1473120Y-2443120D01*
X-1286880D01*
X-1255000Y-2475000D01*
Y-2888730D01*
X-1277730Y-2911460D01*
Y-2940980D01*
X-1382520D01*
Y-2968610D01*
X-1403120Y-2989210D01*
Y-3060790D01*
X-1382520Y-3081390D01*
Y-3109020D01*
X-1260260D01*
G03X-1202540Y-3093120I21679J34020D01*
G01X-1190790D01*
X-1110790Y-3173120D01*
X-934210D01*
X-896880Y-3135790D01*
Y-3116880D01*
X-890000Y-3110000D01*
Y-2410460D01*
X-856980Y-2377440D01*
X-640080D01*
X-614680Y-2352040D01*
Y-2245320D01*
X-615000Y-2245000D01*
Y-2090000D01*
X-565000Y-2040000D01*
X-200000D01*
X-130000Y-2110000D01*
Y-2955000D01*
X-205000Y-3030000D01*
X-450000D01*
X-535000Y-3115000D01*
Y-3505000D01*
X-542800Y-3512800D01*
X-571710D01*
X-665790Y-3606880D01*
X-816880D01*
Y-3556430D01*
X-840000Y-3533310D01*
Y-3510000D01*
X-860000Y-3490000D01*
Y-3345000D01*
X-905000Y-3300000D01*
X-1170000D01*
X-1204490Y-3265510D01*
G02X-1204930Y-3251620I7188J7180D01*
G03X-1256920Y-3190980I-30309J26621D01*
G01X-1382520D01*
Y-3387480D01*
X-1491880D01*
Y-3361880D01*
X-1758120D01*
Y-3387480D01*
X-1793090D01*
G02X-1802830Y-3374430I2J10161D01*
G03X-1846150Y-3322890I-38673J11471D01*
G02X-1857480Y-3312800I-1170J10092D01*
G01Y-3140980D01*
X-1875000D01*
Y-3109020D01*
X-1857480D01*
Y-2912520D01*
X-1768120D01*
Y-2915790D01*
X-1735790Y-2948120D01*
X-1614210D01*
X-1581880Y-2915790D01*
Y-2912520D01*
X-1410980D01*
Y-2795090D01*
G37*
G36*
G01X-1751780Y-2548220D02*
X-1751020Y-2545390D01*
G03X-1800390Y-2496020I-38980J10390D01*
G01X-1803220Y-2496780D01*
X-1830000Y-2470000D01*
Y-2195640D01*
G03Y-2141460I-29890J27090D01*
G01Y-2070000D01*
X-1800000Y-2040000D01*
X-1240000D01*
X-1210000Y-2070000D01*
Y-2395000D01*
X-1220000Y-2405000D01*
X-1495000D01*
X-1532500Y-2442500D01*
Y-2662500D01*
X-1620000Y-2750000D01*
Y-2787480D01*
X-1629020D01*
Y-2909020D01*
X-1630000Y-2910000D01*
X-1710980D01*
Y-2785090D01*
G03X-1726940Y-2713320I-34020J30094D01*
G01X-1730000Y-2712000D01*
Y-2570000D01*
X-1751780Y-2548220D01*
G37*
G36*
G01X-759660Y-3799870D02*
G03X-823590Y-3767280I-40339J-132D01*
G01X-887720D01*
X-914540Y-3740460D01*
X-914610Y-3738460D01*
G03X-997920Y-3715000I-45392J-1542D01*
G01X-1027180D01*
X-1112520Y-3629660D01*
Y-3355000D01*
X-1102520Y-3345000D01*
X-932020D01*
X-922020Y-3355000D01*
Y-3505200D01*
X-855000Y-3572220D01*
Y-3635000D01*
X-845000Y-3645000D01*
X-650000D01*
X-645020Y-3640020D01*
X-644980D01*
Y-3639980D01*
X-555920Y-3550920D01*
X-508000D01*
X-469900Y-3512820D01*
Y-3324860D01*
X-444500Y-3299460D01*
X-304800D01*
X-276860Y-3327400D01*
Y-3624580D01*
X-462280Y-3810000D01*
X-749500D01*
G02X-759660Y-3799870I0J10160D01*
G37*
G36*
G01X-1095000Y-3135000D02*
X-1175000Y-3055000D01*
X-1203550D01*
G03X-1260260Y-3040980I-35032J-20000D01*
G01X-1365000D01*
Y-3009020D01*
X-1257480D01*
Y-3007720D01*
X-1251450D01*
X-1238730Y-2995000D01*
X-1230000D01*
X-1105000Y-2870000D01*
X-950000D01*
X-935000Y-2885000D01*
Y-3120000D01*
X-950000Y-3135000D01*
X-1095000D01*
G37*
G36*
G01X-789940Y-2291080D02*
X-812800Y-2313940D01*
X-1033780D01*
X-1056640Y-2291080D01*
Y-2153920D01*
X-1046480Y-2143760D01*
X-967740D01*
X-960120Y-2136140D01*
Y-1981200D01*
X-942340Y-1963420D01*
X-817880D01*
X-789940Y-1991360D01*
Y-2291080D01*
G37*
G36*
G01X-929640Y-1905000D02*
X-1165860D01*
X-1181100Y-1889760D01*
Y-1651000D01*
X-1165860Y-1635760D01*
X-924560D01*
X-909320Y-1651000D01*
Y-1884680D01*
X-929640Y-1905000D01*
G37*
G36*
G01X-678180Y1148080D02*
Y1099820D01*
X-679450Y1098550D01*
X-678180Y1097280D01*
Y944880D01*
X-1450340D01*
Y1148080D01*
X-678180D01*
G37*
G36*
G01X-604520Y-5698600D02*
G03X-603170Y-5618190I-41281J40909D01*
G01X-604520Y-5616730D01*
Y-5615940D01*
X-635000Y-5585460D01*
X-957580D01*
X-972820Y-5570220D01*
Y-5379720D01*
X-952500Y-5359400D01*
X-744800D01*
G03X-685220I29790J34290D01*
G01X-605020D01*
Y-5360020D01*
X-474360D01*
X-439420Y-5394960D01*
Y-5849620D01*
X-452120Y-5862320D01*
X-542990D01*
G03X-591230Y-5857170I-27242J-26668D01*
G01X-594680Y-5859460D01*
X-604520Y-5849620D01*
Y-5698600D01*
G37*
G36*
G01X-290000Y-4693460D02*
G03Y-4765500I45610J-36020D01*
G01Y-5030000D01*
X-330000Y-5070000D01*
X-670000D01*
X-750000Y-4990000D01*
Y-4180000D01*
X-690000Y-4120000D01*
X-160000D01*
X-130000Y-4150000D01*
Y-4440000D01*
X-290000Y-4600000D01*
Y-4693460D01*
G37*
G36*
G01X150000Y-5500000D02*
Y-5700000D01*
X120000Y-5730000D01*
X-150000D01*
X-190000Y-5770000D01*
Y-5860000D01*
X-200000Y-5870000D01*
X-350000D01*
X-370000Y-5850000D01*
Y-5490000D01*
X-340000Y-5460000D01*
X110000D01*
X150000Y-5500000D01*
G37*
G36*
G01X48260Y162560D02*
X299000D01*
Y-347980D01*
X48260D01*
Y162560D01*
G37*
%LPC*%
G75*
G36*
G01X-1936580Y-5471950D02*
G03Y-5488050I6206J-8050D01*
G02X-1985820I-24620J-31950D01*
G03Y-5471950I-6206J8050D01*
G02Y-5408050I24620J31950D01*
G03Y-5391950I-6206J8050D01*
G02X-1936580I24620J31950D01*
G03Y-5408050I6206J-8050D01*
G02Y-5471950I-24620J-31950D01*
G37*
G36*
G01X-1898270Y-4052080D02*
G03X-1902290Y-4069470I2715J-9787D01*
G02X-1957340Y-4128420I-26739J-30209D01*
G02X-2010730Y-4068010I-25544J31222D01*
G03X-2011870Y-4052370I-7010J7351D01*
G02X-1958740Y-3992280I23296J32936D01*
G03X-1942740Y-3991030I7515J6837D01*
G02X-1898270Y-4052080I33701J-22173D01*
G37*
G36*
G01X-1427920Y-3905000D02*
G02X-1352080I37920J25000D01*
G02X-1427920I-37920J-25000D01*
G37*
G54D87*
X-2900000Y-1355000D03*
X-2459360Y-2395400D03*
X-2339340Y-6250940D03*
X-2144780D03*
X-510540Y-3741420D03*
G54D88*
X-2210000Y-5520000D03*
Y-5400000D03*
X-1685000Y-3950000D03*
%LPD*%
G75*
G54D10*
X-8888900Y-5909960D03*
Y-5138960D03*
G54D11*
X-8956440Y1173680D03*
X208160Y-7345680D03*
X213560Y1173680D03*
G54D20*
X-8232140Y-4588510D03*
Y-4494530D03*
X-7788110Y-5366300D03*
X-7694130D03*
X-7421130Y-5213290D03*
Y-5119310D03*
X-6362700Y-5533390D03*
Y-5439410D03*
X-6308090Y-3327410D03*
X-6214110D03*
X-5803900Y-5464810D03*
Y-5558790D03*
X-5260340Y-5525770D03*
Y-5619750D03*
X-5283190Y-5210810D03*
Y-5304790D03*
X-4066000Y-1896510D03*
Y-1990490D03*
X-3985260Y-5210810D03*
Y-5304790D03*
X-3247390Y-2768600D03*
X-3507200Y-1990490D03*
Y-1896510D03*
X-3270500D03*
Y-1990490D03*
X-3288600Y-1540270D03*
X-3471800D03*
X-3288600Y-1446290D03*
X-3471800D03*
X-3153410Y-2768600D03*
X-2711700Y-1896510D03*
Y-1990490D03*
X-2714400Y-1565670D03*
Y-1471690D03*
X-1873010Y-3640010D03*
X-1966990D03*
X-1756990Y-3640000D03*
X-1663010D03*
X-1318010Y-3640010D03*
X-1411990D03*
X-1273810Y259080D03*
X-1179830D03*
X-1377950Y429260D03*
X-1283970D03*
G54D30*
X-7937980Y621740D03*
Y821740D03*
X-7373620Y-5693080D03*
Y-5493080D03*
X-6578600Y-4595800D03*
Y-4164000D03*
Y-4395800D03*
Y-3964000D03*
X-4426350Y-2468570D03*
Y-2268570D03*
X-4106800Y-1593280D03*
Y-1393280D03*
X-3888200Y-2013500D03*
X-3649600Y-1593280D03*
X-3888200Y-1813500D03*
X-3649600Y-1393280D03*
X-3190000Y-2470000D03*
Y-2270000D03*
X-2889500Y-2043500D03*
Y-1843500D03*
X-3098100Y-1618680D03*
Y-1418680D03*
G54D21*
X-8140700Y-2484100D03*
Y-845800D03*
X-7124700Y-2484100D03*
Y-845800D03*
G54D12*
X-8578900Y-5524960D03*
Y-5649960D03*
Y-5399960D03*
G54D40*
X-6160000Y-2380000D03*
X-5880000D03*
X-5000000D03*
X-4720000D03*
X-2520000Y-3350000D03*
Y-2960000D03*
X-2240000Y-3350000D03*
Y-2960000D03*
X-1025000Y-3485000D03*
Y-2990000D03*
X-745000Y-3485000D03*
Y-2990000D03*
G54D31*
X-7493100Y-6858000D03*
X-6553100D03*
G54D22*
G01X-8347720Y-5399960D02*
X-8578900D01*
G01X-8143240Y-5250480D02*
X-8198240D01*
X-8347720Y-5399960D01*
G01X-7822120Y-5524000D02*
X-7788110Y-5489990D01*
Y-5366300D01*
G01X-7602120Y-5108460D02*
X-7431980D01*
X-7421130Y-5119310D01*
G01X-7602120Y-5108460D02*
Y-5341300D01*
X-7627120Y-5366300D01*
X-7694130D01*
G01X-7647940Y581660D02*
Y535940D01*
X-7566730Y454730D01*
X-7565340D01*
G01X-7495540Y579120D02*
Y523240D01*
X-7564050Y454730D01*
X-7565340D01*
G01X-6794500Y-5243910D02*
X-6683930D01*
X-6647320Y-5207300D01*
X-6477000D01*
G01X-6794500Y-5093890D02*
X-6777110Y-5076500D01*
X-6527800D01*
G01X-7060010Y-4724400D02*
Y-4748610D01*
X-7127240Y-4815840D01*
G01X-6909990Y-4724400D02*
X-6789420D01*
G01X-6730000Y-4101500D02*
X-6703060Y-4074560D01*
Y-3870960D01*
X-6604000Y-3771900D01*
G01X-6971110Y-3796500D02*
X-6900790Y-3726180D01*
X-6649720D01*
X-6604000Y-3771900D01*
G01X-7072710Y-3911600D02*
Y-3794760D01*
G01X-6176260Y-7250180D02*
X-6055820D01*
G01X-6102100Y-5181600D02*
Y-5264400D01*
G01X-5960600Y-5383700D02*
X-6084400D01*
X-6180600Y-5287500D01*
G01X-6096000Y-4701540D02*
X-6151540D01*
X-6184640Y-4734640D01*
Y-4838700D01*
G01X-5763260Y-5808980D02*
X-5669280D01*
X-5650310Y-5827950D01*
Y-5829300D01*
G01X-5439900Y-5129700D02*
X-5315120D01*
G01X-5265420Y-5699760D02*
X-5221460D01*
X-5192000Y-5670300D01*
X-5113800D01*
G01Y-5327400D02*
X-4992620D01*
X-4973320Y-5346700D01*
G01X-5099760Y-222480D02*
X-5179260D01*
G01X-5097780Y-342900D02*
Y-224460D01*
X-5099760Y-222480D01*
G01X-4426350Y-2468570D02*
X-4446610Y-2488830D01*
Y-2748110D01*
G01X-4066000Y-1990490D02*
X-4152030D01*
G01X-4106800Y-1393280D02*
X-3984080D01*
G01X-4106800D02*
X-4056800Y-1443280D01*
X-3984080D01*
G01X-3671490Y-5257800D02*
Y-5112770D01*
X-3706800Y-5077460D01*
G01X-3507200Y-1990490D02*
X-3631580D01*
X-3659600Y-2018510D01*
G01D02*
Y-2145000D01*
G01X-3878200Y-1568290D02*
X-3778410D01*
G01X-3649600Y-1593280D02*
X-3753420D01*
X-3778410Y-1568290D01*
G01X-3649600Y-1593280D02*
X-3574480D01*
X-3521470Y-1540270D01*
X-3471800D01*
G01X-3878200Y-1418270D02*
X-3959090D01*
X-3984080Y-1393280D01*
G01Y-1443280D02*
X-3903210D01*
X-3878200Y-1418270D01*
G01D02*
X-3903190Y-1393280D01*
X-3984080D01*
G01X-3799840Y-975360D02*
Y-1083880D01*
X-3847680Y-1131720D01*
G01X-3190000Y-2470000D02*
Y-2572780D01*
X-3317240Y-2700020D01*
G01X-3298520Y-1868490D02*
X-3270500Y-1896510D01*
G01D02*
X-3242480Y-1868490D01*
G01X-3323490Y-1896510D02*
X-3380000Y-1840000D01*
G01X-3378200Y-1990490D02*
X-3270500D01*
G01X-3507200Y-1896510D02*
X-3477010D01*
X-3383030Y-1990490D01*
X-3378200D01*
G01X-3196990Y-1896510D02*
X-3168970Y-1868490D01*
G01D02*
X-3242480D01*
G01D02*
X-3298520D01*
G01D02*
X-3327010Y-1840000D01*
X-3380000D01*
G01D02*
Y-1896510D01*
G01X-3323490D02*
X-3270500D01*
G01X-3323490D02*
X-3380000D01*
G01X-3270500D02*
X-3196990D01*
G01X-3098100Y-1618680D02*
X-3287460D01*
G01X-3097860Y-5395900D02*
Y-5287320D01*
X-3079730Y-5269190D01*
Y-5264730D01*
X-3060000Y-5245000D01*
X-3005000D01*
X-2980000Y-5220000D01*
X-2785000D01*
G01X-2840000Y-2820000D02*
X-2910000Y-2750000D01*
X-3134810D01*
X-3153410Y-2768600D01*
G01X-3052100Y-2386460D02*
Y-2307900D01*
X-3090000Y-2270000D01*
X-3190000D01*
G01X-3105400Y-2018510D02*
X-3018540D01*
G01X-2889500Y-2043500D02*
X-2993550D01*
X-3018540Y-2018510D01*
G01X-2889500Y-2043500D02*
X-2802960D01*
X-2749950Y-1990490D01*
X-2711700D01*
G01X-3196990Y-1896510D02*
X-3133420D01*
X-3105400Y-1868490D01*
G01X-2714400Y-1565670D02*
X-2854180D01*
X-2882200Y-1593690D01*
G01D02*
Y-1710600D01*
G01X-3168970Y-1868490D02*
X-3105400D01*
G01X-2602310Y-5791200D02*
X-2704760D01*
X-2720000Y-5806440D01*
G01X-2711700Y-1896510D02*
Y-1819660D01*
X-2722880Y-1808480D01*
G01X-2140580Y-551820D02*
X-2226310Y-637540D01*
X-2359660D01*
G01Y-556260D02*
X-2496260D01*
G01X-2359660Y-396240D02*
X-2115820D01*
G01X-2359660Y-477520D02*
X-2492480D01*
G01X-1490980Y-7620D02*
Y-96050D01*
X-1499870Y-104940D01*
Y-118660D01*
X-1522180Y-140970D01*
X-1663700D01*
G01X-610130Y584730D02*
X-655040Y539820D01*
X-864940D01*
X-868680Y543560D01*
X-1488440D01*
X-1569720Y462280D01*
Y-7620D01*
G01X-1313700Y741780D02*
X-1461800D01*
X-1461900Y741680D01*
X-1574800D01*
X-1695450Y621030D01*
Y473710D01*
G01X-1154360Y-5227630D02*
X-1251720Y-5324990D01*
X-1255010D01*
G01X-1409700Y-1506220D02*
Y-1315720D01*
G01X-861060Y-1117600D02*
X-1026160D01*
G01X-861060Y-1036320D02*
X-994410D01*
X-1045210Y-985520D01*
Y-858580D01*
G01X-1409700Y-119380D02*
X-1389380Y-139700D01*
G01X-1409700Y-119380D02*
X-1410970D01*
X-1431290Y-139700D01*
G01X-1090930Y-257810D02*
X-990600Y-157480D01*
X-861060D01*
G01X-1170940Y-7620D02*
Y-157480D01*
G01X-1409700Y-7620D02*
Y-119380D01*
G01X-1273810Y259080D02*
X-1275080Y257810D01*
Y185420D01*
X-1249680Y160020D01*
Y-7620D01*
G01X-1377950Y429260D02*
X-1379220Y427990D01*
Y173990D01*
X-1330960Y125730D01*
Y-7620D01*
G01X-1179830Y259080D02*
X-967740D01*
G01X-1036320Y170180D02*
X-1126490D01*
X-1170940Y125730D01*
Y-7620D01*
G01X-1283970Y429260D02*
X-1003300D01*
X-868680Y294640D01*
G01X-788920Y-1828020D02*
X-584980D01*
X-556260Y-1856740D01*
G01X-637540Y-1026160D02*
Y-619760D01*
X-424180Y-406400D01*
X-187960D01*
X-98960Y-317400D01*
Y23380D01*
G01X-657860Y-1394460D02*
Y-1168400D01*
X-708660Y-1117600D01*
X-861060D01*
G01Y-236220D02*
X-727710D01*
X-650240Y-313690D01*
Y-391160D01*
G01X235150Y-5912700D02*
Y-6060970D01*
X-8224990Y-1795310D03*
X-7438900Y-6066460D03*
X-7294120D03*
Y-5921680D03*
X-7438900D03*
X-7366140Y-5994980D03*
X-7162800Y-3911600D03*
X-6903720Y-6217920D03*
X-6846800Y-6273740D03*
X-6847840Y-6217920D03*
X-6779600Y-4787900D03*
X-6766560Y-4617720D03*
X-7127240Y-4815840D03*
X-6789420Y-4724400D03*
X-6730000Y-4426500D03*
Y-4101500D03*
X-6824980Y-4102100D03*
X-6730000Y-4356100D03*
X-6731000Y-4491500D03*
X-6779260Y-4264660D03*
X-6822440Y-3911600D03*
X-6971110Y-3796500D03*
X-7072710Y-3794760D03*
X-6820000Y-3330000D03*
X-6819140Y-3540000D03*
X-6839020Y-3034100D03*
X-6936740Y-3030220D03*
X-6926580Y-2784100D03*
X-6839020Y-2834100D03*
X-7010400Y-2786380D03*
X-6839020Y-2934100D03*
X-6890000Y-2584100D03*
X-6926580Y-2684100D03*
X-6850380Y-2387600D03*
X-6839020Y-2634100D03*
Y-2734100D03*
X-6808920Y-2534100D03*
X-6930130Y-2229870D03*
X-6839020Y-1995800D03*
X-6926580Y-1745800D03*
X-6839020Y-1495800D03*
X-6930150Y-1682400D03*
X-6925000Y-1510000D03*
X-6839020Y-1695800D03*
Y-1895800D03*
Y-1395800D03*
X-6926580Y-1445800D03*
Y-1345800D03*
X-6837680Y-1295400D03*
X-6840220Y-1206500D03*
X-6820000Y-920000D03*
X-6984560Y357400D03*
X-6291580Y-5573700D03*
X-6362700Y-5359400D03*
X-6604000Y-3771900D03*
X-6540600Y-3384100D03*
Y-3284100D03*
X-6454140Y-3334100D03*
X-6466840Y-3535680D03*
X-6454140Y-3234100D03*
Y-3434100D03*
Y-3134100D03*
X-6540600Y-3184100D03*
Y-3084100D03*
X-6311900Y-3073400D03*
X-6390640Y-2446020D03*
X-6510000Y-1595800D03*
X-6466840Y-1045800D03*
X-6378060Y-1095800D03*
X-6466840Y-1145800D03*
X-6378060Y-1195800D03*
X-6525000Y-1300000D03*
X-6466840Y-945800D03*
X-6518600Y-745800D03*
X-6378060Y-995800D03*
X-6594560Y-162600D03*
X-6344560Y-217600D03*
X-6594560Y-327600D03*
Y-247600D03*
X-6519560Y-117600D03*
X-6441440Y117960D03*
Y-26820D03*
X-6296660D03*
Y117960D03*
X-6369960Y45200D03*
X-6102100Y-5264400D03*
X-6180600Y-5287500D03*
X-5839200Y-4556500D03*
X-5836920Y-4426500D03*
X-6134100Y-3073400D03*
X-6037580Y-2946400D03*
X-6219560Y-217600D03*
Y-137600D03*
X-5412730Y-5905510D03*
X-5803900Y-5636260D03*
X-5519420Y-5524500D03*
X-5735910Y-5638800D03*
X-5763260Y-5808980D03*
X-5729870Y-5501640D03*
X-5760720Y-5298440D03*
X-5811520Y-5224700D03*
X-5610860Y-5105400D03*
X-5825580Y-4296500D03*
X-5745000Y-2385000D03*
Y-2470000D03*
X-5740000Y-2555000D03*
X-5440000Y-2620000D03*
X-5511900Y-2158010D03*
X-5664560Y407400D03*
X-5220500Y-5996430D03*
X-5114810Y-6103620D03*
X-5367020Y-5422900D03*
X-5260340Y-5445760D03*
X-5265420Y-5699760D03*
X-5176520Y-5811520D03*
X-5367020Y-5646420D03*
X-4973320Y-5346700D03*
X-5315120Y-5129700D03*
X-4632960Y-5478780D03*
X-4176270Y-2628390D03*
X-4152030Y-1990490D03*
X-4023360Y-6870700D03*
X-3667760Y-6586220D03*
X-3900930Y-5514340D03*
X-3949200Y-5134250D03*
X-3886200Y-5126230D03*
X-4055860Y-5304790D03*
X-3740000Y-2658110D03*
X-3659600Y-2145000D03*
X-3778410Y-1568290D03*
X-3984080Y-1443280D03*
Y-1393280D03*
X-3650460Y-1094820D03*
X-3847680Y-1131720D03*
X-3747680D03*
X-3650460Y-989820D03*
Y-884820D03*
X-3977680Y-361720D03*
X-3285620Y-6837680D03*
X-3298660Y-6421590D03*
X-3203740D03*
X-3451860Y-6223000D03*
X-3253080Y-5775820D03*
X-3346210Y-5784030D03*
X-3413300Y-5565600D03*
X-3454400Y-5753100D03*
X-3467100Y-5438140D03*
X-3352800Y-5067300D03*
X-3445510Y-5068570D03*
X-3362960Y-4838700D03*
X-3334020Y-4446000D03*
X-3479800Y-2628900D03*
X-3594100D03*
X-3365500D03*
X-3378200Y-1990490D03*
X-3580000Y-2150000D03*
X-3276420Y-1770200D03*
X-3380000Y-1896510D03*
Y-1840000D03*
X-3287460Y-1618680D03*
X-3312680Y-1126720D03*
X-3222680Y-1036720D03*
X-3324860Y-596900D03*
X-3393080Y-667120D03*
X-3560380Y-872120D03*
X-3225060Y-954660D03*
X-3212360Y-882360D03*
X-3464560Y-594360D03*
Y-739140D03*
X-3319780D03*
X-3322670Y-935070D03*
X-3322680Y-301720D03*
Y-166720D03*
X-3232680D03*
Y-301720D03*
X-3387680Y-406720D03*
Y-351720D03*
X-3360680Y-1720D03*
X-3487680D03*
X-3424180D03*
X-3025000Y-6925000D03*
X-3154680Y-5989170D03*
X-2973070Y-5990590D03*
X-2880000Y-5430000D03*
X-3101850Y-5613910D03*
X-3065000Y-5181600D03*
X-3074770Y-4853100D03*
X-3030000Y-4775000D03*
X-2880000Y-3950000D03*
X-3185000Y-2150000D03*
X-3018540Y-2018510D03*
X-2882200Y-1710600D03*
X-3050000Y-1313270D03*
X-3100000D03*
X-2900000Y-1355000D03*
X-3162680Y-1121720D03*
X-2339340Y-6250940D03*
X-2720000Y-5806440D03*
X-2381180Y-3275400D03*
X-2692400Y-3002280D03*
X-2459360Y-2395400D03*
X-2373600Y-2749580D03*
X-2479040Y-1908550D03*
X-2453640Y-2011680D03*
X-2725000Y-1365000D03*
X-2637680Y-221720D03*
Y-171720D03*
Y-121720D03*
X-2144780Y-6250940D03*
X-2280000Y-4950000D03*
X-2209200Y-3591160D03*
X-2103130Y-3591450D03*
X-2209050Y-3644640D03*
X-2103050Y-3644950D03*
X-2133600Y-2542540D03*
X-1640000Y-4930000D03*
X-1470000Y-3560000D03*
X-1750000Y-3550000D03*
X-1745000Y-2755000D03*
X-1545000Y-2765000D03*
X-1495000D03*
X-1445000D03*
X-1663700Y-2722880D03*
X-1875000Y-1973550D03*
X-1424940Y-5031740D03*
X-1010000Y-4890000D03*
X-1065010D03*
X-1386990Y-4805000D03*
X-1390000Y-3930000D03*
Y-3880000D03*
X-1230000Y-3770000D03*
X-1008380Y-2252980D03*
Y-2189480D03*
X-1021080Y-1678940D03*
X-1082040D03*
X-1145540D03*
X-1020960Y1034180D03*
X-1021080Y1099820D03*
X-570230Y-5888990D03*
X-642620Y-5438140D03*
X-640000Y-5560000D03*
X-571500Y-5435600D03*
X-640000Y-5500000D03*
X-970000Y-5250000D03*
Y-5200000D03*
X-715010Y-5325110D03*
X-950000Y-4490000D03*
X-1000000D03*
X-620000Y-4060000D03*
Y-4010000D03*
X-760000Y-3900000D03*
X-960000Y-3740000D03*
X-873760Y-2252980D03*
X-942340D03*
X-873760Y-2189480D03*
X-942340D03*
X-688340Y-1640840D03*
X-629920Y-1582420D03*
Y-1640840D03*
X-688340Y-1584960D03*
X-610130Y584730D03*
X-822840Y1034180D03*
X-888880D03*
X-954920D03*
X-822960Y1099820D03*
X-889000D03*
X-955040D03*
X-555000Y-6080000D03*
X-497840Y-5433060D03*
X-510540Y-3741420D03*
X-546100Y523240D03*
X-490220Y584200D03*
X-546100D03*
X-88900Y-6414260D03*
X228600Y-6421120D03*
X235150Y-6060970D03*
X27940Y-5866200D03*
X95000D03*
X110000Y-5570000D03*
X-50400Y-5579600D03*
X-400D03*
X49600D03*
X95000Y-5792400D03*
X254000Y-5694680D03*
X251460Y-5509260D03*
Y-5245100D03*
X31460Y-5409260D03*
Y-5299260D03*
X176870Y-5209540D03*
X206400Y-2519020D03*
Y-2265020D03*
Y-2011020D03*
Y-1503020D03*
Y-1757020D03*
Y-1249020D03*
X261450Y-281290D03*
Y-222870D03*
X200490Y-281290D03*
Y-222870D03*
G54D13*
X-8599700Y-3634100D03*
Y-3584100D03*
Y-3534100D03*
Y-3484100D03*
Y-3434100D03*
Y-3384100D03*
Y-3334100D03*
Y-3284100D03*
Y-3234100D03*
Y-3184100D03*
Y-3134100D03*
Y-3084100D03*
Y-3034100D03*
Y-2984100D03*
Y-2934100D03*
Y-2884100D03*
Y-2834100D03*
Y-2784100D03*
Y-2734100D03*
Y-2684100D03*
Y-2634100D03*
Y-2584100D03*
Y-2534100D03*
Y-2484100D03*
Y-2434100D03*
Y-2384100D03*
Y-1995800D03*
Y-1945800D03*
Y-2334100D03*
Y-2284100D03*
Y-1895800D03*
Y-1845800D03*
Y-1795800D03*
Y-1745800D03*
Y-1695800D03*
Y-1645800D03*
Y-1595800D03*
Y-1545800D03*
Y-1495800D03*
Y-1445800D03*
Y-1395800D03*
Y-1345800D03*
Y-1295800D03*
Y-1245800D03*
Y-1195800D03*
Y-1145800D03*
Y-1095800D03*
Y-1045800D03*
Y-995800D03*
Y-945800D03*
Y-895800D03*
Y-845800D03*
Y-795800D03*
Y-745800D03*
Y-695800D03*
Y-645800D03*
X-6665700Y-3234100D03*
Y-3284100D03*
Y-3334100D03*
Y-3384100D03*
Y-3434100D03*
Y-3484100D03*
Y-3534100D03*
Y-3584100D03*
Y-3634100D03*
Y-2834100D03*
Y-2884100D03*
Y-2934100D03*
Y-2984100D03*
Y-3034100D03*
Y-3084100D03*
Y-3134100D03*
Y-3184100D03*
Y-2384100D03*
Y-2434100D03*
Y-2484100D03*
Y-2534100D03*
Y-2584100D03*
Y-2634100D03*
Y-2684100D03*
Y-2734100D03*
Y-2784100D03*
Y-1945800D03*
Y-1995800D03*
Y-2284100D03*
Y-2334100D03*
Y-1495800D03*
Y-1545800D03*
Y-1595800D03*
Y-1645800D03*
Y-1695800D03*
Y-1745800D03*
Y-1795800D03*
Y-1845800D03*
Y-1895800D03*
Y-1045800D03*
Y-1095800D03*
Y-1145800D03*
Y-1195800D03*
Y-1245800D03*
Y-1295800D03*
Y-1345800D03*
Y-1395800D03*
Y-1445800D03*
Y-645800D03*
Y-695800D03*
Y-745800D03*
Y-795800D03*
Y-845800D03*
Y-895800D03*
Y-945800D03*
Y-995800D03*
G54D32*
X-6742100Y-5486400D03*
X-7085000Y-4533900D03*
X-6885000D03*
X-7085000Y-4292600D03*
X-6885000D03*
X-6542100Y-5486400D03*
X-2046300Y-5791200D03*
X-2246300D03*
G54D23*
X-8225380Y587060D03*
Y877060D03*
G54D41*
X-5356320Y-7255680D03*
X-4210320D03*
G54D14*
X-8476240Y-3334100D03*
Y-3534100D03*
Y-3234100D03*
Y-3434100D03*
Y-2984100D03*
X-8740000Y-2550000D03*
X-8476100Y-2621280D03*
X-8724900Y-1938460D03*
X-8719820Y-1699260D03*
X-8724900Y-1877060D03*
X-8727440Y-1755140D03*
X-8730510Y-1646680D03*
X-8719820Y-1590040D03*
X-8727440Y-1813560D03*
X-8725000Y-1346200D03*
X-8724900Y-868680D03*
Y-924560D03*
X-8719820Y-797560D03*
X-8141970Y-7181850D03*
X-8087360Y-7371080D03*
X-8133080D03*
X-8087360Y-7325360D03*
X-8133080D03*
X-8085230Y-6971840D03*
X-8128410D03*
X-8084820Y-6929120D03*
X-8128000D03*
X-8276810Y-5757300D03*
X-8325070D03*
X-8375870D03*
X-8276810Y-5711580D03*
X-8325070D03*
X-8375870D03*
X-8277860Y-5666740D03*
X-8326120D03*
X-8376920D03*
X-8290560Y-4772660D03*
X-8346440Y-4699000D03*
X-8365110Y-4977790D03*
X-8410830D03*
X-8365110Y-4932070D03*
X-8410830D03*
X-8364220Y-4886960D03*
X-8409940D03*
X-8379460Y-3538220D03*
X-8375440Y-3384100D03*
Y-3284100D03*
X-8194680Y-2890000D03*
X-8371840Y-2971800D03*
X-8473440Y-3045000D03*
X-8356600Y-3045460D03*
X-8417560D03*
X-8254100Y-2834100D03*
X-8273580Y-2375000D03*
X-8471860Y-2384100D03*
X-8439560Y-2540000D03*
X-8416080Y-2387600D03*
X-8085000Y-2684100D03*
X-8285000Y-2734310D03*
X-8194680Y-2735000D03*
X-8422480Y-2334100D03*
X-8350000Y-2265000D03*
X-8215000Y-1545800D03*
X-8249870Y-1495720D03*
X-8225000Y-1295000D03*
X-8300000Y-1295800D03*
X-8409320Y-1390000D03*
X-8303260Y-1054100D03*
X-8145000Y-1145800D03*
X-8255000Y-1195800D03*
X-8191500Y-1390000D03*
X-8335000Y-845820D03*
X-8405000Y-900000D03*
X-8384540Y-792480D03*
X-8295000Y-965000D03*
X-8355000Y-965200D03*
X-7781120Y-7379850D03*
Y-7334130D03*
X-7735400D03*
Y-7379850D03*
X-7713980Y-6126480D03*
Y-6217920D03*
Y-6169660D03*
X-7657670Y-5920430D03*
X-7703390D03*
X-7657670Y-5874710D03*
X-7703390D03*
X-7658100Y-5826760D03*
X-7703820D03*
X-8011160Y-4699000D03*
X-7815580Y-4386580D03*
X-7861300D03*
X-7907020D03*
X-7815580Y-4340860D03*
X-7861300D03*
X-7907020D03*
X-7719060Y-3916680D03*
X-7710000Y-2933800D03*
X-7811400Y-2781400D03*
X-7807760Y-2690000D03*
X-7790000Y-2270000D03*
X-7647940Y581660D03*
X-7366000Y-6327140D03*
X-7411720D03*
X-7366000Y-6278880D03*
X-7411720D03*
X-7322820Y-4886300D03*
X-7447280Y-4693920D03*
X-7299180Y-4529600D03*
X-7250000Y-3040000D03*
X-7219100Y-2940000D03*
X-7159100Y-2000000D03*
X-7495540Y579120D03*
X-7048500Y-7167880D03*
X-7071360Y-6677660D03*
X-6758940Y-3802380D03*
X-6814200Y-795800D03*
X-6875000Y-845800D03*
X-6654800Y-5303520D03*
X-6329680Y-4612640D03*
X-6465000Y-4395800D03*
X-6497320Y-4284980D03*
X-6390000Y-4490000D03*
Y-4260000D03*
X-6298800Y-4264000D03*
X-6390000Y-4040000D03*
X-6311900Y-3406140D03*
X-6461760Y-3060700D03*
X-6512580Y-2484100D03*
X-6450000Y-1845800D03*
X-6525280Y-1795800D03*
X-6520000Y-825000D03*
X-6294120Y403860D03*
X-6176260Y-7250180D03*
X-6206180Y-6764550D03*
X-6156960Y-7056120D03*
X-6200140D03*
X-6201700Y-7010950D03*
X-6158520D03*
X-6210300Y-7155180D03*
X-6205020Y-6721390D03*
X-5861720Y-6614160D03*
X-6173880Y-6045850D03*
X-6118000D03*
X-6118860Y-5994400D03*
X-6174740D03*
X-5960600Y-5653260D03*
X-6210000Y-4270000D03*
X-5918200Y-3845560D03*
X-6018010Y-3378200D03*
X-6016840Y-3175000D03*
X-6042660Y-2547620D03*
X-6035040Y-2717800D03*
X-6248400Y403860D03*
X-5460000Y-6330000D03*
X-5803900Y-5384800D03*
X-5446590Y-4948090D03*
X-5646590Y-4848090D03*
X-5546590Y-4948090D03*
X-5446590Y-4748090D03*
X-5546590Y-4848090D03*
X-5646590Y-4948090D03*
X-5446590Y-4848090D03*
X-5546590Y-4248090D03*
X-5446590Y-4148090D03*
X-5646590Y-3748110D03*
X-5546590D03*
X-5446590Y-3948090D03*
X-5646590Y-4048090D03*
X-5546590D03*
X-5791200Y-3505200D03*
X-5546590Y-3248110D03*
Y-3448110D03*
Y-3348110D03*
X-5646590Y-3448110D03*
Y-3348110D03*
X-5446590D03*
Y-3248110D03*
X-5646590D03*
Y-3548110D03*
X-5446590Y-3448110D03*
Y-3648110D03*
X-5546590Y-3548110D03*
X-5446590D03*
X-5546590Y-2948110D03*
X-5446590Y-3148110D03*
Y-3048110D03*
X-5646590Y-2948110D03*
X-5770480Y-3139440D03*
X-5546590Y-3148110D03*
X-5646590Y-2848110D03*
Y-3048110D03*
X-5546590D03*
X-5446590Y-2948110D03*
X-5546590Y-2848110D03*
X-5446590D03*
Y-2748110D03*
X-5646590D03*
X-5546590D03*
X-5455920Y-1559560D03*
X-5461000Y-165100D03*
X-5537200Y563880D03*
Y507400D03*
X-5588600D03*
X-5186680Y-7218680D03*
Y-7272020D03*
Y-7325360D03*
X-5236210Y-6762750D03*
X-5184140Y-7162800D03*
X-5083810Y-6709410D03*
X-4970780Y-6631940D03*
X-5046590Y-4548090D03*
Y-4948090D03*
X-5246590Y-4548090D03*
X-5146590Y-4548060D03*
X-5346590Y-4648090D03*
X-5246590D03*
Y-4748090D03*
X-5346590D03*
X-5246590Y-4348090D03*
Y-4448090D03*
Y-4248090D03*
X-5046590Y-4348110D03*
X-5046610Y-4148090D03*
X-5146590D03*
Y-4448090D03*
Y-4348090D03*
X-5046590Y-4448110D03*
X-5246590Y-4148090D03*
X-5143500Y-4249420D03*
X-5146590Y-3748110D03*
X-5246590D03*
Y-3948090D03*
X-5146590D03*
X-5246590Y-4048090D03*
X-5146590D03*
X-5046610D03*
X-5346590Y-3948090D03*
X-5246590Y-3248110D03*
X-5346590Y-3448110D03*
Y-3348110D03*
Y-3248110D03*
X-5146590Y-3648110D03*
X-5246590D03*
X-5046590Y-3248110D03*
X-5042800Y-3658270D03*
X-5246590Y-3548110D03*
X-5146590D03*
Y-3248110D03*
Y-3348110D03*
X-5246590D03*
Y-3448110D03*
X-5346590Y-3648110D03*
X-5146590Y-3448110D03*
X-5346590Y-3148110D03*
X-5046590Y-2848110D03*
Y-3048110D03*
X-5146590D03*
X-5246590Y-2848110D03*
X-5146590Y-2948110D03*
X-5246590D03*
X-5046590D03*
X-5146590Y-2848110D03*
X-5346590D03*
X-5146590Y-3148110D03*
X-5346590Y-3048110D03*
Y-2948110D03*
X-5246590Y-3048110D03*
X-5046590Y-3148110D03*
X-5246590D03*
X-5046590Y-2748110D03*
X-5146590D03*
X-5346590D03*
X-5246590D03*
X-5350000Y-980000D03*
X-5097780Y-342900D03*
X-4594860Y-6720840D03*
X-4846320Y-6616700D03*
X-4913630Y-6005830D03*
X-4658360Y-5930900D03*
X-4861560Y-6083300D03*
X-4794250Y-5965190D03*
X-4594860Y-6192520D03*
X-4785360Y-5186680D03*
X-4851400Y-5334000D03*
X-4746590Y-4848090D03*
Y-4748090D03*
Y-4648090D03*
X-4646590Y-4548090D03*
X-4946590D03*
X-4846590D03*
X-4946590Y-4948090D03*
X-4746590Y-4548090D03*
Y-4348110D03*
X-4846590Y-4448090D03*
X-4946590D03*
X-4646590Y-4148090D03*
X-4746590D03*
X-4846590D03*
X-4646590Y-4448090D03*
Y-3748110D03*
X-4746590D03*
X-4846590D03*
X-4646590Y-3948090D03*
Y-4048090D03*
X-4746590Y-3948090D03*
Y-4048090D03*
X-4846590D03*
Y-3948090D03*
X-4946590Y-3348090D03*
X-4846590D03*
X-4646590D03*
Y-3548110D03*
Y-3648110D03*
X-4746590Y-3548110D03*
Y-3648110D03*
X-4846590Y-3548110D03*
Y-3648110D03*
X-4746590Y-3248110D03*
X-4646590D03*
X-4546590D03*
X-4946590D03*
X-4846590D03*
X-4646590Y-2848110D03*
X-4846590Y-3048110D03*
X-4946590Y-2848110D03*
X-4846590Y-2948110D03*
Y-2848110D03*
X-4746590Y-3048110D03*
Y-2848110D03*
X-4946590Y-2948110D03*
X-4746590D03*
X-4946590Y-3048110D03*
X-4646590Y-2948110D03*
X-4946590Y-3148110D03*
X-4746590D03*
X-4846590D03*
X-4546610D03*
X-4846590Y-2748110D03*
X-4746590D03*
X-4646590D03*
X-4946590D03*
X-4550000Y-2052320D03*
X-4160700Y-6993710D03*
X-4211500D03*
X-4262300D03*
X-4163060Y-6944360D03*
X-4213860D03*
X-4264660D03*
X-4518660Y-5963920D03*
X-4330700Y-5537200D03*
Y-5461000D03*
X-4178300D03*
X-4483100Y-5537200D03*
X-4178300D03*
X-4483100Y-5461000D03*
X-4218940Y-5096670D03*
X-4193470Y-5049800D03*
X-4146610Y-4948090D03*
X-4246610D03*
Y-4648090D03*
Y-4848090D03*
Y-4748090D03*
X-4146610Y-4648090D03*
X-4446610Y-4548090D03*
X-4146610Y-4748090D03*
X-4346610Y-4848090D03*
X-4146610D03*
X-4346610Y-4648090D03*
Y-4748090D03*
X-4146610Y-4548090D03*
X-4246610D03*
X-4346610D03*
X-4446610Y-4948090D03*
X-4246610Y-4348110D03*
X-4146610D03*
X-4346610D03*
X-4446610Y-4448090D03*
X-4246610Y-4148090D03*
X-4146610Y-4448110D03*
X-4346610Y-4148090D03*
X-4446610D03*
X-4346610Y-4448110D03*
X-4246610Y-3748110D03*
X-4346610D03*
X-4446610D03*
X-4246610Y-3948090D03*
Y-4048090D03*
X-4346610Y-3948090D03*
Y-4048090D03*
X-4446610Y-3948090D03*
Y-4048090D03*
X-4146610Y-3248110D03*
X-4446610Y-3348090D03*
X-4346610D03*
X-4246610Y-3548110D03*
Y-3648110D03*
X-4246590Y-3248110D03*
X-4346610Y-3548110D03*
Y-3648110D03*
X-4446610Y-3548110D03*
Y-3648110D03*
X-4446590Y-3248110D03*
X-4346590D03*
X-4246610Y-2948110D03*
X-4446610Y-2848110D03*
X-4146610Y-2948110D03*
Y-3048110D03*
X-4446610Y-2948110D03*
Y-3048110D03*
X-4346610Y-2848110D03*
Y-2948110D03*
Y-3048110D03*
X-4246610D03*
Y-3148110D03*
X-4146610D03*
X-4446610D03*
X-4346610D03*
X-4340000Y-2636920D03*
X-4346610Y-2748110D03*
X-4446610D03*
X-4185920Y-2171700D03*
Y-2298700D03*
X-4053840Y-7292340D03*
X-3680460Y-6697980D03*
X-3935000Y-5985000D03*
X-4036060Y-5461000D03*
X-4025900Y-5537200D03*
X-3985260Y-5370310D03*
X-3934460Y-5048290D03*
X-4046610Y-4548090D03*
Y-4748090D03*
X-3946610Y-4848090D03*
X-3846610Y-4948090D03*
X-3946610Y-4748090D03*
X-3846610D03*
Y-4848090D03*
X-3746610Y-4548090D03*
X-4046610Y-4848090D03*
X-3646610Y-4548090D03*
X-4046610Y-4648090D03*
X-3946610Y-4948090D03*
X-4046610D03*
X-3946610Y-4548090D03*
X-3846610D03*
X-3646610Y-4648090D03*
Y-4748090D03*
X-3746610Y-4648090D03*
X-3646610Y-4948090D03*
Y-4848090D03*
X-3746610Y-4748090D03*
X-3846610Y-4648090D03*
Y-4348090D03*
X-3646610D03*
X-3746610Y-4248090D03*
Y-4148090D03*
X-3646610Y-4448090D03*
X-3846610Y-4148090D03*
Y-4248090D03*
X-4046590D03*
X-3846610Y-4448090D03*
X-3946610Y-4348090D03*
X-3746610Y-4448090D03*
X-3646610Y-4148090D03*
X-3946610D03*
X-3746610Y-3748110D03*
X-3846610D03*
X-3746610Y-4048090D03*
X-3846610D03*
X-3646610Y-3948090D03*
X-3746610D03*
X-3946610Y-4048090D03*
X-3646610Y-3748110D03*
X-3946610Y-3948090D03*
X-3846610D03*
X-3946610Y-3748110D03*
X-3746610Y-3348110D03*
X-3846610D03*
X-3746610Y-3248110D03*
X-4046590Y-3548090D03*
X-3846610Y-3648110D03*
Y-3448110D03*
X-4046590Y-3648110D03*
X-3646610Y-3448110D03*
Y-3248110D03*
X-3746610Y-3548110D03*
X-3646610D03*
Y-3348110D03*
Y-3648110D03*
X-3846610Y-3548110D03*
X-3946610Y-3348110D03*
Y-3248110D03*
X-4046610Y-3348090D03*
X-3746610Y-3648110D03*
X-3946610D03*
X-4046610Y-3248110D03*
X-3946610Y-3548110D03*
Y-3448110D03*
X-3746610D03*
X-4046610Y-3048110D03*
X-3946610Y-2848110D03*
X-3646610Y-3148110D03*
X-4046610Y-2948110D03*
X-3746610Y-2848110D03*
X-3946610Y-2948110D03*
Y-3048110D03*
X-3846610Y-2848110D03*
Y-2948110D03*
X-4046610Y-3148110D03*
X-3946610D03*
X-3746610D03*
X-3646610Y-3048110D03*
X-3746610D03*
X-3646610Y-2948110D03*
X-3746610D03*
X-3846610Y-3048110D03*
Y-3148110D03*
X-3810000Y-2352040D03*
X-3903980Y-2357120D03*
X-4048760Y-2618740D03*
X-4047550Y-2379680D03*
X-3746610Y-2748110D03*
X-3670300Y-2349500D03*
X-3846610Y-2748110D03*
X-3601720Y-5556980D03*
X-3395520Y-5341160D03*
X-3601720Y-5077460D03*
X-3546610Y-4548090D03*
Y-4648090D03*
X-3362960Y-4947920D03*
X-3446610Y-4748090D03*
Y-4948090D03*
Y-4848090D03*
X-3546610Y-4748090D03*
Y-4848090D03*
Y-4948090D03*
X-3291840Y-4114800D03*
X-3546610Y-4448090D03*
X-3446610Y-4248090D03*
X-3291840Y-4203700D03*
X-3546610Y-4348090D03*
X-3291840Y-4292600D03*
X-3446610Y-4348090D03*
X-3546610Y-4148090D03*
Y-4248090D03*
X-3446610Y-3748110D03*
X-3291840Y-3670300D03*
X-3446610Y-3948090D03*
X-3295000Y-3848100D03*
X-3291840Y-3759200D03*
X-3546610Y-3948090D03*
Y-3748110D03*
X-3291840Y-4025900D03*
Y-3937000D03*
X-3546610Y-3848090D03*
X-3446610Y-4048090D03*
X-3546610D03*
Y-3648110D03*
Y-3348110D03*
X-3350260Y-3314700D03*
X-3546610Y-3448110D03*
X-3383280Y-3403600D03*
X-3446610Y-3648110D03*
X-3291840Y-3492500D03*
X-3446610Y-3548110D03*
X-3546610Y-3248110D03*
Y-3548110D03*
X-3291840Y-3581400D03*
X-3446610Y-3348110D03*
X-3312540Y-3047620D03*
X-3324860Y-2870200D03*
X-3446610Y-3048110D03*
X-3291840Y-3225800D03*
X-3446610Y-2848110D03*
X-3546610Y-2948110D03*
Y-2848110D03*
Y-3048110D03*
X-3479800Y-2379980D03*
X-3546610Y-2748110D03*
X-3040000Y-6480000D03*
X-3063240Y-5067300D03*
X-2895000Y-4725000D03*
X-3063240Y-4953000D03*
X-3004820Y-4335780D03*
X-2940000Y-4230000D03*
X-3042920Y-4292600D03*
X-2997200Y-4254500D03*
X-2981960Y-4163810D03*
X-3070000Y-3937000D03*
Y-4045000D03*
X-2971800Y-3759200D03*
X-3014980Y-3714070D03*
X-3030000Y-3895000D03*
X-3081020Y-3670300D03*
X-2950000Y-4055000D03*
X-2990000Y-3996910D03*
X-3075000Y-3805000D03*
X-3025000Y-3350000D03*
X-3025140Y-3294380D03*
X-3024490Y-3403600D03*
X-3042920Y-3632200D03*
X-3008020Y-3581400D03*
X-3060080Y-3447140D03*
X-3068320Y-3510280D03*
X-3081190Y-3116680D03*
X-3040000Y-3002280D03*
X-3083560Y-2870200D03*
X-3078480Y-3225800D03*
X-2954020Y-2954020D03*
X-2969260Y-3154680D03*
X-3061890Y-2821450D03*
X-3070860Y-3172460D03*
X-2961640Y-3048000D03*
X-3015000Y-2910000D03*
X-2395000Y-3865000D03*
X-2400000Y-3790000D03*
X-2645170Y-1471690D03*
X-2679700Y-1176020D03*
X-2762670D03*
X-2487930Y-797560D03*
X-2641600Y-762000D03*
X-2487930Y-876300D03*
Y-716280D03*
X-2496260Y-556260D03*
X-2492480Y-477520D03*
X-2560000Y170000D03*
X-1947720Y-7252160D03*
X-2189480Y-7076440D03*
X-1961200Y-5440000D03*
Y-5520000D03*
X-2210000D03*
X-2249400Y-5026660D03*
X-1982700Y-5097200D03*
X-1910000Y-5010000D03*
X-1960000Y-5045000D03*
X-1961200Y-5360000D03*
X-2210000Y-5400000D03*
X-1938020Y-4841240D03*
X-2321560Y-4688840D03*
X-2290000Y-4850000D03*
X-1958100Y-4729820D03*
X-1907540Y-4792980D03*
X-2235000Y-4785000D03*
X-2196990Y-4571320D03*
X-2182620Y-4862830D03*
X-1940560Y-4610100D03*
X-1910000Y-4464660D03*
X-2285000Y-4472940D03*
X-1985000Y-4520000D03*
X-1988580Y-4460320D03*
X-1909040Y-4013200D03*
X-2050000Y-3700000D03*
X-1929030Y-4099680D03*
X-1982880Y-4097200D03*
X-2267180Y-3964940D03*
X-2260000Y-3790000D03*
X-2236700Y-3901440D03*
X-2239240Y-4069080D03*
X-1988580Y-4019430D03*
X-2050000Y-3290000D03*
X-1995000Y-3325000D03*
X-2030000Y-3600000D03*
X-2074440Y-2952500D03*
X-2075000Y-3225000D03*
X-2025000Y-3075000D03*
X-2005000Y-3175000D03*
X-1975730Y-2351650D03*
X-2199120Y-2716990D03*
X-1913010Y-2716270D03*
X-2073730Y-2716990D03*
X-2171700Y-1920240D03*
X-1947750Y-2103550D03*
X-2100000Y-1650000D03*
X-2108200Y-1137920D03*
X-2062480Y-1000760D03*
X-2140580Y-551820D03*
X-2115820Y-396240D03*
X-2137020Y363700D03*
X-2139560Y310360D03*
X-2138680Y411480D03*
X-1999860Y310360D03*
X-2093840D03*
X-2045580D03*
X-1997320Y363700D03*
X-2043040D03*
X-2091300D03*
X-1998980Y411480D03*
X-2044700D03*
X-2092960D03*
X-1837520Y-6951370D03*
X-1789260D03*
X-1788160Y-6906260D03*
X-1836420D03*
X-1703260Y-5537200D03*
Y-5417200D03*
X-1665000Y-5340000D03*
X-1605280Y-5139480D03*
X-1570000Y-5050000D03*
X-1681480Y-5097200D03*
X-1630000Y-4590000D03*
X-1685000D03*
X-1705300Y-4777200D03*
X-1705840Y-4490720D03*
X-1645000Y-4470000D03*
X-1570000D03*
X-1455000Y-4485000D03*
X-1517800Y-4537200D03*
X-1585000Y-4070000D03*
X-1685000Y-3950000D03*
X-1841500Y-3362960D03*
X-1820000Y-2720000D03*
X-1790000Y-2535000D03*
X-1859890Y-2168550D03*
X-1760000Y-1660000D03*
X-1651000Y-1659000D03*
X-1570000Y-1660000D03*
X-1457960Y-182880D03*
X-1796960Y225980D03*
Y175180D03*
X-1649640Y225980D03*
Y175180D03*
X-1699260Y226060D03*
X-1747670Y226770D03*
X-1699260Y175260D03*
X-1747520D03*
X-1663700Y-140970D03*
X-1695450Y473710D03*
X-1440000Y-4580000D03*
X-1157840Y-3517500D03*
Y-3644500D03*
Y-3362160D03*
X-1158240Y-3263500D03*
X-1235240Y-3225000D03*
X-1238580Y-3075000D03*
X-1320000Y-1740000D03*
X-1409700Y-1315720D03*
X-1026160Y-1117600D03*
X-1409700Y-182880D03*
X-1090930Y-257810D03*
X-1170940Y-208280D03*
X-1224280Y-157480D03*
X-1170940D03*
X-1437640Y-139700D03*
X-1389380D03*
X-1036320Y170180D03*
X-800000Y-3800000D03*
X-949960Y-3840480D03*
X-657860Y-1394460D03*
X-637540Y-1026160D03*
X-650240Y-391160D03*
X-967740Y259080D03*
X-868680Y294640D03*
X-208280Y-5910580D03*
X-556260Y-1856740D03*
X270000Y-4930000D03*
G54D50*
X-5223860Y793860D03*
X-5073860D03*
X-4923860D03*
X-4773860D03*
X-4623860D03*
X-4473860D03*
X-3024220Y781160D03*
X-2874220D03*
X-2724220D03*
X-2574220D03*
X-2424220D03*
X-2274220D03*
G54D51*
X-3858140Y-7081140D03*
X-2873120D03*
G54D24*
X-7858760Y-7117380D03*
Y-6837380D03*
X-7565340Y-220280D03*
Y59720D03*
X-4462780Y-98760D03*
Y-378760D03*
G54D60*
X-3073400Y-6257500D03*
Y-5807500D03*
G54D15*
X-8430120Y55420D03*
X-7980120D03*
X-2785000Y-5220000D03*
X-2335000D03*
X-1955000D03*
X-1505000D03*
G54D42*
G01X-1180000Y-5565000D02*
X-1464090D01*
X-1690290Y-5791200D01*
X-5596600Y-4898100D03*
Y-4798100D03*
Y-4698100D03*
Y-4598100D03*
X-5496600Y-4898100D03*
Y-4798100D03*
Y-4698100D03*
Y-4598100D03*
X-5396600Y-4898100D03*
Y-4798100D03*
Y-4698100D03*
Y-4598100D03*
X-5596600Y-4498100D03*
Y-4398100D03*
Y-4298100D03*
Y-4198100D03*
Y-4098100D03*
X-5496600Y-4498100D03*
Y-4398100D03*
Y-4298100D03*
Y-4198100D03*
Y-4098100D03*
X-5396600Y-4498100D03*
Y-4398100D03*
Y-4298100D03*
Y-4198100D03*
Y-4098100D03*
X-5596600Y-3998100D03*
Y-3898100D03*
Y-3798100D03*
Y-3698100D03*
X-5496600Y-3998100D03*
Y-3898100D03*
Y-3798100D03*
Y-3698100D03*
X-5396600Y-3998100D03*
Y-3898100D03*
Y-3798100D03*
Y-3698100D03*
X-5596600Y-3598100D03*
Y-3498100D03*
Y-3398100D03*
Y-3298100D03*
X-5496600Y-3598100D03*
Y-3498100D03*
Y-3398100D03*
Y-3298100D03*
X-5396600Y-3598100D03*
Y-3498100D03*
Y-3398100D03*
Y-3298100D03*
X-5596600Y-3198100D03*
Y-3098100D03*
Y-2998100D03*
Y-2898100D03*
Y-2798100D03*
X-5496600Y-3198100D03*
Y-3098100D03*
Y-2998100D03*
Y-2898100D03*
Y-2798100D03*
X-5396600Y-3198100D03*
Y-3098100D03*
Y-2998100D03*
Y-2898100D03*
Y-2798100D03*
X-5296600Y-4898100D03*
Y-4798100D03*
Y-4698100D03*
Y-4598100D03*
X-5196600Y-4898100D03*
Y-4798100D03*
Y-4698100D03*
Y-4598100D03*
X-5096600Y-4898100D03*
Y-4798100D03*
Y-4698100D03*
Y-4598100D03*
X-4996600Y-4898100D03*
Y-4798100D03*
Y-4698100D03*
Y-4598100D03*
X-5296600Y-4498100D03*
Y-4398100D03*
Y-4298100D03*
Y-4198100D03*
Y-4098100D03*
X-5196600Y-4498100D03*
Y-4398100D03*
Y-4298100D03*
Y-4198100D03*
Y-4098100D03*
X-5096600Y-4498100D03*
Y-4398100D03*
Y-4298100D03*
Y-4198100D03*
Y-4098100D03*
X-4996600Y-4498100D03*
Y-4398100D03*
X-5296600Y-3998100D03*
Y-3898100D03*
Y-3798100D03*
Y-3698100D03*
X-5196600Y-3998100D03*
Y-3898100D03*
Y-3798100D03*
Y-3698100D03*
X-5096600Y-3998100D03*
Y-3898100D03*
Y-3798100D03*
Y-3698100D03*
X-5296600Y-3598100D03*
Y-3498100D03*
Y-3398100D03*
Y-3298100D03*
X-5196600Y-3598100D03*
Y-3498100D03*
Y-3398100D03*
Y-3298100D03*
X-5096600Y-3598100D03*
Y-3498100D03*
Y-3398100D03*
Y-3298100D03*
X-4996600D03*
X-5296600Y-3198100D03*
Y-3098100D03*
Y-2998100D03*
Y-2898100D03*
Y-2798100D03*
X-5196600Y-3198100D03*
Y-3098100D03*
Y-2998100D03*
Y-2898100D03*
Y-2798100D03*
X-5096600Y-3198100D03*
Y-3098100D03*
Y-2998100D03*
Y-2898100D03*
Y-2798100D03*
X-4996600Y-3198100D03*
Y-3098100D03*
Y-2998100D03*
Y-2898100D03*
Y-2798100D03*
X-4896600Y-4898100D03*
Y-4798100D03*
Y-4698100D03*
Y-4598100D03*
X-4796600Y-4898100D03*
Y-4798100D03*
Y-4698100D03*
Y-4598100D03*
X-4696600Y-4898100D03*
Y-4798100D03*
Y-4698100D03*
Y-4598100D03*
X-4596600Y-4898100D03*
Y-4798100D03*
Y-4698100D03*
Y-4598100D03*
X-4896600Y-4498100D03*
Y-4398100D03*
X-4796600Y-4498100D03*
Y-4398100D03*
Y-4098100D03*
X-4696600Y-4498100D03*
Y-4398100D03*
Y-4098100D03*
X-4596600Y-4498100D03*
Y-4398100D03*
Y-4098100D03*
X-4796600Y-3998100D03*
Y-3898100D03*
Y-3798100D03*
Y-3698100D03*
X-4696600Y-3998100D03*
Y-3898100D03*
Y-3798100D03*
Y-3698100D03*
X-4596600Y-3998100D03*
Y-3898100D03*
Y-3798100D03*
Y-3698100D03*
X-4896600Y-3298100D03*
X-4796600Y-3598100D03*
Y-3298100D03*
X-4696600Y-3598100D03*
Y-3298100D03*
X-4596600Y-3598100D03*
Y-3298100D03*
X-4896600Y-3198100D03*
Y-3098100D03*
Y-2998100D03*
Y-2898100D03*
Y-2798100D03*
X-4796600Y-3198100D03*
Y-3098100D03*
Y-2998100D03*
Y-2898100D03*
Y-2798100D03*
X-4696600Y-3198100D03*
Y-3098100D03*
Y-2998100D03*
Y-2898100D03*
Y-2798100D03*
X-4596600Y-3198100D03*
Y-3098100D03*
Y-2998100D03*
Y-2898100D03*
Y-2798100D03*
X-4496600Y-4898100D03*
Y-4798100D03*
Y-4698100D03*
Y-4598100D03*
X-4396600Y-4898100D03*
Y-4798100D03*
Y-4698100D03*
Y-4598100D03*
X-4296600Y-4898100D03*
Y-4798100D03*
Y-4698100D03*
Y-4598100D03*
X-4196600Y-4898100D03*
Y-4798100D03*
Y-4698100D03*
Y-4598100D03*
X-4096600Y-4898100D03*
Y-4798100D03*
Y-4698100D03*
Y-4598100D03*
X-4496600Y-4498100D03*
Y-4398100D03*
Y-4098100D03*
X-4396600Y-4498100D03*
Y-4398100D03*
Y-4098100D03*
X-4296600Y-4498100D03*
Y-4398100D03*
Y-4098100D03*
X-4196600Y-4498100D03*
Y-4398100D03*
X-4096600Y-4498100D03*
Y-4398100D03*
X-4496600Y-3998100D03*
Y-3898100D03*
Y-3798100D03*
Y-3698100D03*
X-4396600Y-3998100D03*
Y-3898100D03*
Y-3798100D03*
Y-3698100D03*
X-4296600Y-3998100D03*
Y-3898100D03*
Y-3798100D03*
Y-3698100D03*
X-4496600Y-3598100D03*
Y-3298100D03*
X-4396600Y-3598100D03*
Y-3298100D03*
X-4296600Y-3598100D03*
Y-3298100D03*
X-4196600D03*
X-4096600D03*
X-4496600Y-3198100D03*
Y-3098100D03*
Y-2998100D03*
Y-2898100D03*
Y-2798100D03*
X-4396600Y-3198100D03*
Y-3098100D03*
Y-2998100D03*
Y-2898100D03*
Y-2798100D03*
X-4296600Y-3198100D03*
Y-3098100D03*
Y-2998100D03*
Y-2898100D03*
Y-2798100D03*
X-4196600Y-3198100D03*
Y-3098100D03*
Y-2998100D03*
Y-2898100D03*
Y-2798100D03*
X-4096600Y-3198100D03*
Y-3098100D03*
Y-2998100D03*
Y-2898100D03*
Y-2798100D03*
X-3996600Y-4898100D03*
Y-4798100D03*
Y-4698100D03*
Y-4598100D03*
X-3896600Y-4898100D03*
Y-4798100D03*
Y-4698100D03*
Y-4598100D03*
X-3796600Y-4898100D03*
Y-4798100D03*
Y-4698100D03*
Y-4598100D03*
X-3696600Y-4898100D03*
Y-4798100D03*
Y-4698100D03*
Y-4598100D03*
X-3996600Y-4498100D03*
Y-4398100D03*
Y-4298100D03*
Y-4198100D03*
Y-4098100D03*
X-3896600Y-4498100D03*
Y-4398100D03*
Y-4298100D03*
Y-4198100D03*
Y-4098100D03*
X-3796600Y-4498100D03*
Y-4398100D03*
Y-4298100D03*
Y-4198100D03*
Y-4098100D03*
X-3696600Y-4498100D03*
Y-4398100D03*
Y-4298100D03*
Y-4198100D03*
Y-4098100D03*
X-3996600Y-3998100D03*
Y-3898100D03*
Y-3798100D03*
Y-3698100D03*
X-3896600Y-3998100D03*
Y-3898100D03*
Y-3798100D03*
Y-3698100D03*
X-3796600Y-3998100D03*
Y-3898100D03*
Y-3798100D03*
Y-3698100D03*
X-3696600Y-3998100D03*
Y-3898100D03*
Y-3798100D03*
Y-3698100D03*
X-3996600Y-3598100D03*
Y-3498100D03*
Y-3398100D03*
Y-3298100D03*
X-3896600Y-3598100D03*
Y-3498100D03*
Y-3398100D03*
Y-3298100D03*
X-3796600Y-3598100D03*
Y-3498100D03*
Y-3398100D03*
Y-3298100D03*
X-3696600Y-3598100D03*
Y-3498100D03*
Y-3398100D03*
Y-3298100D03*
X-3996600Y-3198100D03*
Y-3098100D03*
Y-2998100D03*
Y-2898100D03*
Y-2798100D03*
X-3896600Y-3198100D03*
Y-3098100D03*
Y-2998100D03*
Y-2898100D03*
Y-2798100D03*
X-3796600Y-3198100D03*
Y-3098100D03*
Y-2998100D03*
Y-2898100D03*
Y-2798100D03*
X-3696600Y-3198100D03*
Y-3098100D03*
Y-2998100D03*
Y-2898100D03*
Y-2798100D03*
X-3596600Y-4898100D03*
Y-4798100D03*
Y-4698100D03*
Y-4598100D03*
X-3496600Y-4898100D03*
Y-4798100D03*
Y-4698100D03*
Y-4598100D03*
X-3596600Y-4498100D03*
Y-4398100D03*
Y-4298100D03*
Y-4198100D03*
Y-4098100D03*
X-3496600Y-4498100D03*
Y-4398100D03*
Y-4298100D03*
Y-4198100D03*
Y-4098100D03*
X-3596600Y-3998100D03*
Y-3898100D03*
Y-3798100D03*
Y-3698100D03*
X-3496600Y-3998100D03*
Y-3898100D03*
Y-3798100D03*
Y-3698100D03*
X-3596600Y-3598100D03*
Y-3498100D03*
Y-3398100D03*
Y-3298100D03*
X-3496600Y-3598100D03*
Y-3498100D03*
Y-3398100D03*
Y-3298100D03*
X-3596600Y-3198100D03*
Y-3098100D03*
Y-2998100D03*
Y-2898100D03*
Y-2798100D03*
X-3496600Y-3198100D03*
Y-3098100D03*
Y-2998100D03*
Y-2898100D03*
G54D33*
X-6909990Y-4902200D03*
X-7060010D03*
Y-4724400D03*
X-6909990D03*
X-6922690Y-4102100D03*
X-7072710D03*
Y-3911600D03*
X-6922690D03*
X-5500290Y-5829300D03*
X-5650310D03*
X-3821510Y-5257800D03*
X-3671490D03*
X-2452290Y-5791200D03*
X-2602310D03*
X-1840310D03*
X-1690290D03*
G54D52*
X-3858140Y-6656200D03*
X-2873120D03*
G54D61*
X-2374900Y-6741300D03*
Y-6060300D03*
X-1689100Y-6741300D03*
Y-6060300D03*
G54D34*
X-6670040Y-5735320D03*
X-6124580Y-5007930D03*
X-3799840Y-975360D03*
X-2990000Y-2240000D03*
X-1440000Y-5790000D03*
G54D25*
X-7959320Y-6325160D03*
X-7894320D03*
X-7829320D03*
Y-6141160D03*
X-7894320D03*
X-7959320D03*
G54D43*
X-5620000Y-2480000D03*
Y-2240000D03*
X-5260000Y-2480000D03*
Y-2240000D03*
G54D70*
X-978920Y-1828020D03*
X-883920Y-2048020D03*
X-788920Y-1828020D03*
G54D16*
G01X-7565340Y-220280D02*
X-7615340Y-270280D01*
Y-360280D01*
G01X-7565340Y-220280D02*
X-7515340Y-270280D01*
Y-360280D01*
G01X-6782100Y-5712160D02*
Y-5526400D01*
X-6742100Y-5486400D01*
G01X-6502100Y-5689600D02*
X-6542100Y-5649600D01*
Y-5486400D01*
G01X-6477000Y-5207300D02*
X-6326840D01*
X-6276340Y-5257800D01*
G01X-6477000Y-4927300D02*
X-6527800Y-4978100D01*
Y-5076500D01*
G01X-6055820Y-7155180D02*
X-6210300D01*
G01X-5768040Y-6812280D02*
Y-6707840D01*
X-5861720Y-6614160D01*
G01X-6160000Y-2380000D02*
Y-2138180D01*
G01X-5109700Y-5900500D02*
X-5036900D01*
X-4980000Y-5843600D01*
X-4914900D01*
Y-5702300D01*
G01X-4564900Y-5003800D02*
X-4564380D01*
X-4496100Y-5072080D01*
Y-5219700D01*
G01X-4720000Y-2380000D02*
Y-2165940D01*
G01X-4210320Y-7255680D02*
Y-7205680D01*
X-4470320Y-6945680D01*
G01X-4046220Y-6718560D02*
X-4355840D01*
X-4356100Y-6718300D01*
X-4383740D01*
X-4470320Y-6804880D01*
Y-6945680D01*
G01X-4064000Y-5156200D02*
X-4127500Y-5219700D01*
X-4216100D01*
G01X-4426350Y-2268570D02*
Y-2137810D01*
G01X-4106800Y-1593280D02*
Y-1719200D01*
G01X-4010660Y714930D02*
Y563880D01*
X-4170680Y403860D01*
X-4473860D01*
G01X-3858140Y-6656200D02*
X-3920500Y-6718560D01*
X-4046220D01*
G01Y-6593840D02*
X-3920500D01*
X-3858140Y-6656200D01*
G01X-3760400Y-2043500D02*
X-3790400Y-2013500D01*
X-3888200D01*
G01X-3649600Y-1393280D02*
X-3605060Y-1348740D01*
X-3477260D01*
G01X-3393440Y1122680D02*
X-3952240D01*
X-4010660Y1064260D01*
Y864950D01*
G01X-3393440Y1122680D02*
Y1031240D01*
G01Y1122680D02*
X-3390900Y1120140D01*
X-3356610D01*
X-3304540Y1068070D01*
Y1031240D01*
G01X-2840000Y-3630000D02*
X-2684440D01*
X-2628900Y-3685540D01*
G01X-2700020Y-3482340D02*
Y-3395980D01*
X-2746000Y-3350000D01*
X-2840000D01*
G01X-2889500Y-1843500D02*
X-2854480Y-1808480D01*
X-2722880D01*
G01X-2520000Y-2960000D02*
Y-3149600D01*
G01X-820000Y-5770000D02*
X-758110D01*
X-645800Y-5657690D01*
G01X-581660Y-3497580D02*
X-732420D01*
X-745000Y-3485000D01*
G01D02*
Y-3385000D01*
X-623500Y-3263500D01*
X-589280D01*
G01X-745000Y-2990000D02*
X-318000D01*
X-247000Y-2919000D01*
G01X-745000Y-2660000D02*
X-252000D01*
X-247000Y-2665000D01*
G01X-450000Y-5260000D02*
X-350000D01*
G01X-281600D02*
X-248920Y-5227320D01*
G01X-350000Y-5260000D02*
X-281600D01*
X-8693400Y272840D03*
X-8607800Y273300D03*
X-8693400Y359200D03*
X-8607800Y359660D03*
X-8691880Y444500D03*
X-8606280Y444960D03*
X-8605520Y528320D03*
X-8694420D03*
X-8614820Y780800D03*
Y860800D03*
Y940800D03*
X-8694820Y780800D03*
Y940800D03*
Y860800D03*
X-8065100Y-6810400D03*
X-8063740Y-6726840D03*
X-8153400Y-6809740D03*
X-8152040Y-6726180D03*
X-8063740Y-6646840D03*
X-8152040Y-6646180D03*
X-8073480Y-6314230D03*
X-8162200Y-6313880D03*
X-8073480Y-6229230D03*
Y-6149230D03*
X-8162200Y-6148880D03*
Y-6228880D03*
X-8234680Y-4099560D03*
X-8028940Y228600D03*
X-8028640Y407680D03*
X-8027360Y316240D03*
X-7615340Y-360280D03*
X-7948600Y227680D03*
X-7868600D03*
X-7948600Y407680D03*
X-7868600D03*
X-7948600Y317680D03*
X-7868600D03*
X-7597410Y783270D03*
Y869630D03*
X-7597140Y952500D03*
X-7195140Y-5732580D03*
Y-5812580D03*
X-7310120Y-5194300D03*
X-7223760D03*
X-7297430Y-173560D03*
X-7213610D03*
X-7515340Y-360280D03*
X-7299900Y-90120D03*
X-7299960Y-7620D03*
X-7216080Y-90120D03*
X-7216140Y-7620D03*
X-7343410Y783270D03*
X-7427230D03*
X-7513590D03*
X-7343410Y869630D03*
X-7427230D03*
X-7513590D03*
X-7513320Y952500D03*
X-7426960D03*
X-7343140D03*
X-6782100Y-5712160D03*
X-7115140Y-5732580D03*
Y-5812580D03*
Y-5572580D03*
Y-5652580D03*
X-7132320Y-175260D03*
X-7132260Y-90120D03*
X-7132320Y-7620D03*
X-6502100Y-5689600D03*
X-6276340Y-5257800D03*
X-6527800Y-5076500D03*
X-6410020Y-4594900D03*
X-6365240Y-3820160D03*
X-6489700Y-3825770D03*
X-5859700Y-5900500D03*
X-6096000Y-4701540D03*
X-6220460Y-4960620D03*
X-5925820Y-3754120D03*
X-6035040Y-3827780D03*
X-6129020D03*
X-6225540Y-3835400D03*
X-5880100Y-3378200D03*
Y-3505200D03*
Y-2959100D03*
X-6160000Y-2138180D03*
X-5798820Y-4160520D03*
Y-3741420D03*
X-5739380Y-2217420D03*
Y-2131060D03*
X-5135880Y-2420000D03*
Y-2540000D03*
X-5133340Y-2156460D03*
Y-2250440D03*
X-5021580Y-2161540D03*
X-5135470Y-797450D03*
X-5051650D03*
X-4965290D03*
X-5135470Y-713630D03*
X-5051650D03*
X-4965290D03*
X-4965700Y-627380D03*
X-5052060D03*
X-5135880D03*
X-4559300Y-5537200D03*
Y-5422900D03*
X-4699000Y-5537200D03*
Y-5422900D03*
X-4803140Y-5420360D03*
X-4914900Y-5702300D03*
X-4699000Y-5295900D03*
Y-5168900D03*
X-4564900Y-5003800D03*
X-4720000Y-2165940D03*
X-4878930Y-797450D03*
Y-713630D03*
X-4879340Y-627380D03*
X-4584700Y193040D03*
X-4406900Y-5537200D03*
Y-5422900D03*
X-4254500Y-5537200D03*
Y-5422900D03*
X-4102100Y-5537200D03*
Y-5422900D03*
X-4254500Y-2552700D03*
X-4114800D03*
Y-2425700D03*
Y-2171700D03*
Y-2298700D03*
X-4426350Y-2137810D03*
X-4106800Y-1719200D03*
X-4493260Y193040D03*
X-4401720D03*
X-4046220Y-6593840D03*
Y-6718560D03*
X-3706800Y-5077460D03*
X-4064000Y-5156200D03*
X-3810000Y-2552700D03*
Y-2425700D03*
X-3962400D03*
Y-2552700D03*
X-3670300Y-2425700D03*
X-3698240Y-2550160D03*
X-3962400Y-2298700D03*
Y-2171700D03*
X-3760400Y-2043500D03*
X-3867680Y-471720D03*
X-3787680D03*
X-3707680D03*
X-3867680Y-551720D03*
X-3787680D03*
X-3707680D03*
X-3492500Y-6108700D03*
X-3276600Y-5181600D03*
Y-4953000D03*
Y-5067300D03*
Y-4838700D03*
X-3345200Y-4666000D03*
X-3594100Y-2552700D03*
X-3365500D03*
X-3479800D03*
X-3317240Y-2700020D03*
X-3477260Y-1348740D03*
X-3335150Y593180D03*
X-3429130D03*
X-3520570D03*
X-3335150Y684620D03*
X-3429130D03*
X-3520570D03*
X-3393440Y1122680D03*
Y1031240D03*
X-3307080Y1122680D03*
Y1031240D03*
X-3337560Y772160D03*
X-3431540D03*
X-3522980D03*
X-2829440Y-6163200D03*
X-2829180Y-6262260D03*
X-2936120Y-6163200D03*
X-2935860Y-6262260D03*
X-2934760Y-5807500D03*
X-3149600Y-5067300D03*
Y-4953000D03*
Y-5181600D03*
X-3097860Y-5395900D03*
X-3149600Y-4838700D03*
X-2870200Y-4480560D03*
X-2971800Y-3482340D03*
X-3052100Y-2386460D03*
X-2903220Y-2346960D03*
X-2790000Y-2350000D03*
Y-2260000D03*
X-2686240Y-7264010D03*
X-2538930Y-7265420D03*
X-2411930D03*
X-2685040Y-7018780D03*
Y-6593840D03*
X-2684780Y-6692900D03*
X-2370000Y-5480000D03*
X-2560000Y-5490000D03*
X-2475000Y-5655000D03*
X-2730500Y-5692140D03*
X-2480000Y-5090000D03*
X-2519680Y-4569460D03*
X-2606040Y-4572000D03*
X-2527460Y-4477300D03*
X-2607460D03*
X-2628900Y-3685540D03*
X-2700020Y-3482340D03*
X-2520000Y-3149600D03*
X-2700000Y-2380000D03*
Y-2290000D03*
X-2722880Y-1808480D03*
X-2265000Y-5650000D03*
X-2270000Y-4360000D03*
X-2171700Y-195580D03*
X-1701800Y-3274060D03*
X-1536700D03*
X-1620000Y-3150000D03*
X-1704340Y-3022600D03*
X-1531620Y-3030220D03*
X-1446040Y-2472980D03*
X-1808070Y-825850D03*
X-1709010D03*
X-1607410D03*
X-1503270D03*
X-1502000Y-919520D03*
X-1606140D03*
X-1707740D03*
X-1806800D03*
X-1809750Y-731210D03*
X-1710690D03*
X-1609090D03*
X-1504950D03*
X-1503680Y-632460D03*
X-1607820D03*
X-1709420D03*
X-1808480D03*
X-1155700Y-6413500D03*
X-1155810Y-6553280D03*
X-1155700Y-6273800D03*
X-1016000D03*
X-1154360Y-5227630D03*
X-1120000Y-4990000D03*
X-1158240Y-2748280D03*
Y-2621280D03*
X-1160780Y-2506980D03*
X-1313960Y-2472980D03*
X-1051560Y-1315720D03*
X-1046480Y-764910D03*
X-1045210Y-858580D03*
X-876300Y-6273800D03*
X-645800Y-5657690D03*
X-620000Y-4560000D03*
X-700000D03*
Y-4480000D03*
X-620000D03*
X-586150Y-3352350D03*
X-589280Y-3263500D03*
X-581660Y-3497580D03*
X-590000Y-2885000D03*
X-775000Y-2480000D03*
X-590000D03*
X-248920Y-5227320D03*
X-540000Y-4560000D03*
X-244390Y-4729480D03*
X-540000Y-4480000D03*
X-328260Y-3347560D03*
X-408940D03*
X-525000Y-2205000D03*
X-95000Y-6100000D03*
X223520Y-5077460D03*
X43180Y-4973320D03*
X119380Y-5080000D03*
X17780D03*
X-88360Y-5081270D03*
X-25400Y-5354050D03*
X96520Y-3462020D03*
Y-3597980D03*
G54D80*
G01X-6909990Y-4902200D02*
X-6789420D01*
X-6659880Y-4772660D01*
X-6339840D01*
X-6273800Y-4838700D01*
X-6184640D01*
G01X-6362700Y-5439410D02*
Y-5359400D01*
G01X-6134100Y-3073400D02*
X-6214110Y-3153410D01*
Y-3327410D01*
G01X-5803900Y-5636260D02*
Y-5558790D01*
G01X-5396600Y-4098100D02*
X-5446590Y-4148090D01*
G01X-5260340Y-5619750D02*
X-5273370D01*
X-5300040Y-5646420D01*
X-5367020D01*
G01X-4699000Y-5422900D02*
Y-5537200D01*
G01Y-5422900D02*
X-4800600D01*
X-4803140Y-5420360D01*
G01X-3740000Y-2658110D02*
Y-2655000D01*
X-3698240Y-2613240D01*
Y-2550160D01*
G01X-3285620Y-6837680D02*
X-3248660D01*
X-3205610Y-6794630D01*
Y-6658210D01*
G01X-3285620D02*
Y-6837680D01*
G01X-3492500Y-6108700D02*
Y-6182360D01*
X-3451860Y-6223000D01*
G54D71*
X-830580Y-6715760D03*
G54D62*
X-2450000Y-4280000D03*
X-2010000D03*
X-2120000Y-2210000D03*
X-1680000D03*
X-1040000Y-4280000D03*
X-600000D03*
G54D26*
X-7926820Y-6233160D03*
G54D53*
X-3585630Y-6918210D03*
X-3145630D03*
X-350130Y74640D03*
Y514640D03*
G54D44*
X-5440000Y-2480000D03*
Y-2240000D03*
G54D35*
X-5795820Y-7250180D03*
X-6055820D03*
X-5795820Y-7060180D03*
X-6055820Y-7155180D03*
Y-7060180D03*
G54D17*
X-8465380Y667050D03*
Y817070D03*
X-7565340Y304710D03*
Y454730D03*
X-6794500Y-5243910D03*
Y-5093890D03*
X-5350000Y-564990D03*
Y-715010D03*
X-4765040Y-245190D03*
Y-95170D03*
X-3659600Y-2018510D03*
X-3878200Y-1568290D03*
X-3659600Y-1868490D03*
X-3878200Y-1418270D03*
X-4010660Y714930D03*
Y864950D03*
X-3105400Y-2018510D03*
Y-1868490D03*
X-2882200Y-1593690D03*
Y-1443670D03*
G54D81*
G01X-8578900Y-5524960D02*
X-8581900Y-5521960D01*
X-8704580D01*
X-8729980Y-5496560D01*
Y-5334000D01*
X-8569960Y-5173980D01*
Y-4813300D01*
X-8529320Y-4772660D01*
X-8290560D01*
G01X-8473440Y-3045000D02*
X-8484340Y-3034100D01*
X-8599700D01*
G01X-8232140Y-4588510D02*
Y-4714240D01*
X-8290560Y-4772660D01*
G01X-7569930Y-6310000D02*
X-7768760D01*
X-7783920Y-6325160D01*
X-7829320D01*
G01Y-6220660D02*
Y-6141160D01*
G01X-7810500Y-6162040D02*
Y-6141160D01*
X-7829320D01*
G01X-7810500Y-6192520D02*
Y-6220660D01*
X-7829320D01*
G01X-7822120Y-5013460D02*
Y-4927170D01*
X-7781250Y-4886300D01*
G01X-7700990D02*
X-7322820D01*
G01X-5460000Y-6330000D02*
X-7167470D01*
X-7172930Y-6324540D01*
G01X-6922690Y-3911600D02*
X-6822440D01*
G01X-6665700Y-1995800D02*
X-6839020D01*
G01X-6665700Y-845800D02*
X-6875000D01*
G01X-6362700Y-5533390D02*
X-6322390Y-5573700D01*
X-6291580D01*
G01X-6180600Y-5478700D02*
X-6275600Y-5573700D01*
X-6291580D01*
G01X-6665700Y-2484100D02*
X-6512580D01*
G01X-6665700Y-1295800D02*
X-6529200D01*
X-6525000Y-1300000D01*
G01X-5439900Y-5319700D02*
X-5298100D01*
X-5283190Y-5304790D01*
G01X-5439900Y-5319700D02*
X-5739460D01*
X-5760720Y-5298440D01*
G01X-5350000Y-980000D02*
Y-715010D01*
G01Y-564990D02*
Y-370000D01*
X-5283760Y-303760D01*
Y-222480D01*
G01X-1920000Y-3375000D02*
X-1853540D01*
X-1841500Y-3362960D01*
G01X-1920000Y-3275000D02*
X-2035000D01*
X-2050000Y-3290000D01*
G01X-1920000Y-3325000D02*
X-1995000D01*
G01X-1920000Y-3025000D02*
X-2001940D01*
X-2074440Y-2952500D01*
G01X-1920000Y-3225000D02*
X-2075000D01*
G01X-1920000Y-3075000D02*
X-2025000D01*
G01X-1920000Y-2975000D02*
X-1988160D01*
X-2026920Y-2936240D01*
Y-2809240D01*
X-2067560Y-2768600D01*
X-2145490D01*
X-2197100Y-2716990D01*
X-2199120D01*
G01X-1920000Y-2925000D02*
X-1964500D01*
X-1983740Y-2905760D01*
Y-2778760D01*
X-2045510Y-2716990D01*
X-2073730D01*
G01X-1920000Y-3175000D02*
X-2005000D01*
G01X-1845000Y-2850000D02*
Y-2784280D01*
X-1913010Y-2716270D01*
G01X-1495000Y-3450000D02*
Y-3535000D01*
X-1470000Y-3560000D01*
G01X-1575000Y-3565000D02*
X-1595000Y-3545000D01*
Y-3450000D01*
G01X-1795000D02*
Y-3523150D01*
X-1800800Y-3528950D01*
Y-3596190D01*
X-1756990Y-3640000D01*
G01X-1845000Y-3450000D02*
Y-3612000D01*
X-1873010Y-3640010D01*
G01X-1745000Y-2850000D02*
Y-2755000D01*
G01X-1545000Y-2850000D02*
Y-2765000D01*
G01X-1495000Y-2850000D02*
Y-2765000D01*
G01X-1795000Y-2850000D02*
Y-2772500D01*
X-1820000Y-2747500D01*
Y-2720000D01*
G01X-1729740Y-1506220D02*
Y-1629740D01*
X-1760000Y-1660000D01*
G01X-1651000Y-1506220D02*
Y-1659000D01*
G01X-1570000Y-1660000D02*
Y-1506500D01*
G01X-1395000Y-3450000D02*
Y-3495600D01*
X-1380600Y-3510000D01*
X-1326160D01*
X-1223010Y-3613150D01*
Y-3656990D01*
X-1130000Y-3750000D01*
X-1040000D01*
X-995240Y-3794760D01*
X-931020D01*
X-925780Y-3800000D01*
X-800000D01*
G01X-1320000Y-3325000D02*
X-1267830D01*
X-1160000Y-3432830D01*
Y-3515340D01*
X-1157840Y-3517500D01*
G01X-1320000Y-3375000D02*
X-1285000D01*
X-1220000Y-3440000D01*
Y-3540000D01*
X-1157840Y-3602160D01*
Y-3644500D01*
G01X-1445000Y-3450000D02*
Y-3513150D01*
X-1398150Y-3560000D01*
X-1340000D01*
X-1318010Y-3581990D01*
Y-3640010D01*
G01X-1320000Y-3275000D02*
X-1245000D01*
X-1157840Y-3362160D01*
G01X-1445000Y-2850000D02*
Y-2765000D01*
G01X-1025000Y-2725000D02*
X-1245010Y-2945010D01*
G01D02*
Y-2955010D01*
G01X-1025000Y-2705000D02*
X-1245010Y-2925010D01*
Y-2945010D01*
G01Y-2955010D02*
X-1025000Y-2735000D01*
Y-2725000D01*
G01X-1320000Y-2975000D02*
X-1265000D01*
X-1245010Y-2955010D01*
G01X-1205000Y-2995000D02*
X-1170000D01*
G01X-1120000D02*
X-1165000D01*
G01X-1210000Y-3000000D02*
X-1192500Y-3017500D01*
G01X-1235000Y-3025000D02*
X-1250000D01*
G01X-1150000D02*
X-1175880D01*
G01D02*
X-1185000D01*
G01X-1250000D02*
X-1320000D01*
G01X-1170000Y-2995000D02*
X-1192500Y-3017500D01*
G01X-1120000Y-2995000D02*
X-1150000Y-3025000D01*
G01X-1170000Y-2995000D02*
X-1165000D01*
G01D02*
X-1170000Y-3000000D01*
X-1210000D01*
G01D02*
X-1205000Y-2995000D01*
G01X-1192500Y-3017500D02*
X-1185000Y-3025000D01*
G01X-1235000D02*
X-1210000Y-3000000D01*
G01X-1025000Y-3015000D02*
X-1045000Y-2995000D01*
X-1120000D01*
G01X-1150000Y-3025000D02*
X-1035000D01*
X-1025000Y-3015000D01*
G01X-1185000Y-3025000D02*
X-1235000D01*
G01X-1175880D02*
X-1165880Y-3015000D01*
X-1025000D01*
G01X-1250000Y-3025000D02*
X-1220000Y-2995000D01*
X-1205000D01*
G01X-1320000Y-3075000D02*
X-1238580D01*
G01X-1025000Y-2705000D02*
Y-2660000D01*
G01Y-2725000D02*
Y-2705000D01*
G54D36*
X-6048040Y-6812280D03*
X-5768040D03*
X-4496100Y-5219700D03*
X-4216100D03*
X-1025000Y-2660000D03*
X-745000D03*
G54D18*
X-8143240Y-5859520D03*
Y-5509520D03*
G54D27*
X-7829320Y-6220660D03*
G54D72*
X-522500Y-5670000D03*
X-277500D03*
G54D54*
X-3525650Y-6658210D03*
X-3445640D03*
X-3365630D03*
X-3285620D03*
X-3205610D03*
G54D63*
X-2359660Y-1356360D03*
Y-1277620D03*
Y-1196340D03*
Y-1117600D03*
Y-1036320D03*
Y-957580D03*
Y-876300D03*
Y-797560D03*
Y-716280D03*
Y-637540D03*
Y-556260D03*
Y-477520D03*
Y-396240D03*
Y-317500D03*
Y-236220D03*
Y-157480D03*
X-861060Y-1036320D03*
Y-1117600D03*
Y-1196340D03*
Y-1277620D03*
Y-1356360D03*
Y-637540D03*
Y-716280D03*
Y-797560D03*
Y-876300D03*
Y-957580D03*
Y-157480D03*
Y-236220D03*
Y-317500D03*
Y-396240D03*
Y-477520D03*
Y-556260D03*
G54D45*
X-5095320Y-6945680D03*
X-4970320D03*
X-4845320D03*
X-4720320D03*
X-4595320D03*
X-4470320D03*
G54D82*
G01X-5143500Y-4249420D02*
Y-4245000D01*
X-5096600Y-4198100D01*
G54D19*
X-8143240Y-4970480D03*
Y-5250480D03*
X-6477000Y-4927300D03*
Y-5207300D03*
X-2840000Y-3630000D03*
Y-3350000D03*
Y-2820000D03*
Y-2540000D03*
X-820000Y-5770000D03*
Y-5490000D03*
X-450000Y-5260000D03*
Y-4980000D03*
G54D73*
X-360680Y-6416040D03*
G54D64*
X-1920000Y-3225000D03*
Y-3275000D03*
Y-3325000D03*
Y-3375000D03*
Y-2925000D03*
Y-2975000D03*
Y-3025000D03*
Y-3075000D03*
Y-3125000D03*
Y-3175000D03*
X-1320000Y-3375000D03*
Y-3325000D03*
Y-3275000D03*
Y-3225000D03*
Y-3175000D03*
Y-3125000D03*
Y-3075000D03*
Y-3025000D03*
Y-2975000D03*
Y-2925000D03*
G54D37*
X-6102100Y-5181600D03*
X-5912100Y-5116600D03*
Y-5246600D03*
G54D46*
X-5283760Y-157480D03*
Y-222480D03*
X-5099760D03*
Y-157480D03*
X-5283760Y-92480D03*
X-5099760D03*
G54D55*
X-3570000Y-5860000D03*
G54D28*
X-7602120Y-5619000D03*
X-7822120Y-5714000D03*
Y-5524000D03*
X-7602120Y-5108460D03*
X-7822120Y-5203460D03*
Y-5013460D03*
X-6180600Y-5478700D03*
X-5960600Y-5383700D03*
Y-5573700D03*
X-5401800Y-5544900D03*
X-5621800Y-5639900D03*
Y-5449900D03*
X-5659900Y-5224700D03*
X-5439900Y-5129700D03*
Y-5319700D03*
X-5109700Y-5900500D03*
X-5329700Y-5995500D03*
X-5113800Y-5670300D03*
Y-5480300D03*
X-5329700Y-5805500D03*
X-5113800Y-5327400D03*
Y-5137400D03*
X-4893800Y-5575300D03*
Y-5232400D03*
G54D83*
G01X-5396600Y-4898100D02*
X-5446590Y-4948090D01*
G01X-5596600Y-4798100D02*
X-5646590Y-4848090D01*
G01X-5496600Y-4898100D02*
X-5546590Y-4948090D01*
G01X-5396600Y-4698100D02*
X-5446590Y-4748090D01*
G01X-5496600Y-4798100D02*
X-5546590Y-4848090D01*
G01X-5596600Y-4898100D02*
X-5646590Y-4948090D01*
G01X-5396600Y-4798100D02*
X-5446590Y-4848090D01*
G01X-5496600Y-4198100D02*
X-5546590Y-4248090D01*
G01X-5596600Y-4198100D02*
X-5596580D01*
X-5546590Y-4248090D01*
G01X-5596600Y-3798100D02*
X-5646590Y-3748110D01*
G01X-5496600Y-3798100D02*
X-5546590Y-3748110D01*
G01X-5396600Y-3698100D02*
X-5446590Y-3648110D01*
G01X-5396600Y-3898100D02*
X-5446590Y-3948090D01*
G01X-5596600Y-3998100D02*
X-5646590Y-4048090D01*
G01X-5496600Y-3998100D02*
X-5497470Y-3998970D01*
X-5507440D01*
X-5534220Y-4025750D01*
Y-4035720D01*
X-5546590Y-4048090D01*
G01X-5596600Y-3598100D02*
X-5646590Y-3548110D01*
G01X-5396600Y-3498100D02*
X-5446590Y-3448110D01*
G01X-5496600Y-3598100D02*
X-5546590Y-3548110D01*
G01X-5596600Y-2798100D02*
X-5646590Y-2748110D01*
G01X-5396600Y-2998100D02*
X-5446590Y-2948110D01*
G01X-5496600Y-2898100D02*
X-5546590Y-2848110D01*
G01X-5396600Y-2898100D02*
X-5446590Y-2848110D01*
G01X-5496600Y-2798100D02*
X-5546590Y-2748110D01*
G01X-5440000Y-2480000D02*
Y-2620000D01*
G01X-5511900Y-2158010D02*
X-5471990D01*
X-5440000Y-2190000D01*
Y-2240000D01*
G01X-4996600Y-4498100D02*
X-5046590Y-4548090D01*
G01X-4996600Y-4898100D02*
X-5046590Y-4948090D01*
G01X-5196600Y-4498100D02*
X-5246590Y-4548090D01*
G01X-5296600Y-4598100D02*
X-5346590Y-4648090D01*
G01X-5196600Y-4598100D02*
X-5246590Y-4648090D01*
G01X-5196600Y-4698100D02*
X-5246590Y-4748090D01*
G01X-5296600Y-4698100D02*
X-5346590Y-4748090D01*
G01X-4996600Y-4398100D02*
X-5046590Y-4348110D01*
G01X-5096600Y-4098100D02*
X-5146590Y-4148090D01*
G01X-5096600Y-4398100D02*
X-5146590Y-4448090D01*
G01X-5096600Y-4498100D02*
Y-4498070D01*
X-5146590Y-4448090D01*
G01X-5096600Y-4298100D02*
X-5146590Y-4348090D01*
G01X-5196600Y-4098100D02*
X-5246590Y-4148090D01*
G01X-5096600Y-3798100D02*
X-5146590Y-3748110D01*
G01X-5196600Y-3798100D02*
X-5246590Y-3748110D01*
G01X-5196600Y-3898100D02*
X-5246590Y-3948090D01*
G01X-5096600Y-3898100D02*
X-5146590Y-3948090D01*
G01X-5096600Y-3698100D02*
X-5146590Y-3648110D01*
G01X-5196600Y-3698100D02*
X-5246590Y-3648110D01*
G01X-5196600Y-3998100D02*
X-5246590Y-4048090D01*
G01X-5096600Y-3998100D02*
X-5146590Y-4048090D01*
G01X-5296600Y-3698100D02*
X-5346590Y-3648110D01*
G01X-5296600Y-3898100D02*
X-5346590Y-3948090D01*
G01X-4996600Y-3298100D02*
X-5046590Y-3248110D01*
G01X-4996600Y-3198100D02*
Y-3198130D01*
X-5046590Y-3248110D01*
G01X-5196600Y-3598100D02*
X-5246590Y-3548110D01*
G01X-5096600Y-3598100D02*
X-5146590Y-3548110D01*
G01X-5096600Y-3298100D02*
X-5146590Y-3248110D01*
G01X-5096600Y-3398100D02*
X-5146590Y-3348110D01*
G01X-5196600Y-3398100D02*
X-5246590Y-3348110D01*
G01X-5196600Y-3498100D02*
X-5246590Y-3448110D01*
G01X-5096600Y-3498100D02*
X-5146590Y-3448110D01*
G01X-5196600Y-2798100D02*
X-5246590Y-2748110D01*
G01X-5096600Y-3198100D02*
X-5146590Y-3148110D01*
G01X-5296600Y-3098100D02*
X-5346590Y-3048110D01*
G01X-5296600Y-2998100D02*
X-5346590Y-2948110D01*
G01X-5196600Y-3098100D02*
X-5246590Y-3048110D01*
G01X-5196600Y-3198100D02*
X-5246590Y-3148110D01*
G01X-4696600Y-4498100D02*
X-4746590Y-4548090D01*
G01X-4696600Y-4398100D02*
X-4746590Y-4348110D01*
G01X-4796600Y-4398100D02*
X-4846590Y-4448090D01*
G01X-4896600Y-4398100D02*
X-4946590Y-4448090D01*
G01X-4596600Y-4098100D02*
X-4646590Y-4148090D01*
G01X-4696600Y-4098100D02*
X-4746590Y-4148090D01*
G01X-4796600Y-4098100D02*
X-4846590Y-4148090D01*
G01X-4596600Y-4398100D02*
X-4646590Y-4448090D01*
G01X-4596600Y-3698100D02*
X-4646590Y-3648110D01*
G01X-4596600Y-3798100D02*
X-4646590Y-3748110D01*
G01X-4696600Y-3698100D02*
X-4746590Y-3648110D01*
G01X-4696600Y-3798100D02*
X-4746590Y-3748110D01*
G01X-4796600Y-3698100D02*
X-4846590Y-3648110D01*
G01X-4796600Y-3798100D02*
X-4846590Y-3748110D01*
G01X-4596600Y-3898100D02*
X-4646590Y-3948090D01*
G01X-4596600Y-3998100D02*
X-4646590Y-4048090D01*
G01X-4696600Y-3898100D02*
X-4746590Y-3948090D01*
G01X-4696600Y-3998100D02*
X-4746590Y-4048090D01*
G01X-4796600Y-3998100D02*
X-4846590Y-4048090D01*
G01X-4796600Y-3898100D02*
X-4846590Y-3948090D01*
G01X-4896600Y-3298100D02*
X-4946590Y-3348090D01*
G01X-4796600Y-3298100D02*
X-4846590Y-3348090D01*
G01X-4596600Y-3298100D02*
X-4646590Y-3348090D01*
G01X-4596600Y-3598100D02*
X-4646590Y-3548110D01*
G01X-4696600Y-3598100D02*
X-4746590Y-3548110D01*
G01X-4796600Y-3598100D02*
X-4846590Y-3548110D01*
G01X-4696600Y-3298100D02*
X-4746590Y-3248110D01*
G01X-4896600Y-3198100D02*
X-4946590Y-3148110D01*
G01X-4696600Y-3198100D02*
X-4746590Y-3148110D01*
G01X-4796600Y-3198100D02*
X-4846590Y-3148110D01*
G01X-4596600Y-3198100D02*
X-4546610Y-3148110D01*
G01X-4896600Y-2798100D02*
X-4946590Y-2748110D01*
G01X-4096600Y-4698100D02*
X-4046610Y-4748090D01*
G01X-4196600Y-4498100D02*
X-4146610Y-4548090D01*
G01X-4296600Y-4498100D02*
X-4246610Y-4548090D01*
G01X-4396600Y-4498100D02*
X-4346610Y-4548090D01*
G01X-4096600Y-4898100D02*
X-4046610Y-4948090D01*
G01X-4396600Y-4898100D02*
X-4396620D01*
X-4446610Y-4948090D01*
G01X-4496600Y-4898100D02*
X-4446610Y-4948090D01*
G01X-4296600Y-4398100D02*
X-4246610Y-4348110D01*
G01X-4196600Y-4398100D02*
X-4146610Y-4348110D01*
G01X-3996600Y-4498100D02*
X-4096600Y-4398100D01*
G01X-4396600D02*
X-4346610Y-4348110D01*
G01X-4496600Y-4398100D02*
X-4446610Y-4448090D01*
G01X-4296600Y-4098100D02*
X-4246610Y-4148090D01*
G01X-4396600Y-4098100D02*
X-4346610Y-4148090D01*
G01X-4496600Y-4098100D02*
X-4446610Y-4148090D01*
G01X-4296600Y-3698100D02*
X-4246610Y-3648110D01*
G01X-4296600Y-3798100D02*
X-4246610Y-3748110D01*
G01X-4396600Y-3698100D02*
X-4346610Y-3648110D01*
G01X-4396600Y-3798100D02*
X-4346610Y-3748110D01*
G01X-4496600Y-3698100D02*
X-4446610Y-3648110D01*
G01X-4496600Y-3798100D02*
X-4446610Y-3748110D01*
G01X-4296600Y-3898100D02*
X-4246610Y-3948090D01*
G01X-4296600Y-3998100D02*
X-4246610Y-4048090D01*
G01X-4396600Y-3898100D02*
X-4346610Y-3948090D01*
G01X-4396600Y-3998100D02*
X-4346610Y-4048090D01*
G01X-4496600Y-3898100D02*
X-4446610Y-3948090D01*
G01X-4496600Y-3998100D02*
X-4446610Y-4048090D01*
G01X-4296600Y-3298100D02*
X-4294520Y-3300180D01*
X-4198680D01*
X-4196600Y-3298100D01*
G01D02*
X-4146610Y-3248110D01*
G01X-4096600Y-3298100D02*
X-4046610Y-3348090D01*
G01X-4496600Y-3298100D02*
X-4446610Y-3348090D01*
G01X-4396600Y-3298100D02*
X-4346610Y-3348090D01*
G01X-4296600Y-3598100D02*
X-4246610Y-3548110D01*
G01X-4396600Y-3598100D02*
X-4346610Y-3548110D01*
G01X-4496600Y-3598100D02*
X-4446610Y-3548110D01*
G01X-4496600Y-2798100D02*
X-4446610Y-2748110D01*
G01X-4296600Y-3198100D02*
X-4246610Y-3148110D01*
G01X-4196600Y-3198100D02*
X-4146610Y-3148110D01*
G01X-4496600Y-3198100D02*
X-4446610Y-3148110D01*
G01X-4396600Y-3198100D02*
X-4346610Y-3148110D01*
G01X-4096600Y-3198100D02*
X-4046610Y-3148110D01*
G01X-4196600Y-2798100D02*
Y-2648720D01*
X-4176270Y-2628390D01*
G01X-3996600Y-4498100D02*
X-3946610Y-4548090D01*
G01X-3896600Y-4498100D02*
X-3846610Y-4548090D01*
G01X-3696600Y-4598100D02*
X-3646610Y-4648090D01*
G01X-3696600Y-4698100D02*
X-3646610Y-4748090D01*
G01X-3796600Y-4598100D02*
X-3746610Y-4648090D01*
G01X-3696600Y-4898100D02*
X-3646610Y-4948090D01*
G01X-3696600Y-4798100D02*
X-3646610Y-4848090D01*
G01X-3796600Y-4698100D02*
X-3746610Y-4748090D01*
G01X-3896600Y-4598100D02*
X-3846610Y-4648090D01*
G01X-3796600Y-4098100D02*
X-3746610Y-4148090D01*
G01X-3896600Y-4098100D02*
X-3846610Y-4148090D01*
G01X-3896600Y-4198100D02*
X-3846610Y-4248090D01*
G01X-3996600Y-4198100D02*
X-4046590Y-4248090D01*
G01X-3896600Y-4398100D02*
X-3846610Y-4448090D01*
G01X-3896600Y-4398100D02*
X-3946610Y-4348090D01*
G01X-3996600Y-4398100D02*
Y-4398080D01*
X-3946610Y-4348090D01*
G01X-3996600Y-4298100D02*
X-3946610Y-4348090D01*
G01X-3796600Y-4398100D02*
X-3746610Y-4448090D01*
G01X-3696600Y-4098100D02*
X-3646610Y-4148090D01*
G01X-3996600Y-4098100D02*
X-3946610Y-4148090D01*
G01X-3896600Y-3698100D02*
X-3846610Y-3648110D01*
G01X-3996600Y-3698100D02*
X-4046590Y-3648110D01*
G01X-3796600Y-3998100D02*
X-3746610Y-4048090D01*
G01X-3896600Y-3998100D02*
X-3846610Y-4048090D01*
G01X-3996600Y-3998100D02*
X-3946610Y-4048090D01*
G01X-3996600Y-3898100D02*
X-3946610Y-3948090D01*
G01X-3896600Y-3898100D02*
X-3846610Y-3948090D01*
G01X-3996600Y-3798100D02*
X-3946610Y-3748110D01*
G01X-3596600Y-4098100D02*
X-3696600Y-3998100D01*
G01X-3996600Y-3498100D02*
X-4046590Y-3548090D01*
G01X-3896600Y-3498100D02*
X-3846610Y-3448110D01*
G01X-3996600Y-3398100D02*
X-3946610Y-3348110D01*
G01X-3996600Y-3298100D02*
X-3946610Y-3248110D01*
G01X-3896600Y-3298100D02*
X-3896620D01*
X-3946610Y-3248110D01*
G01X-3996600Y-3598100D02*
X-3946610Y-3548110D01*
G01X-3896600Y-2798100D02*
X-3846610Y-2748110D01*
G01X-3996600Y-3198100D02*
X-3946610Y-3148110D01*
G01X-3796600Y-3098100D02*
X-3746610Y-3048110D01*
G01X-3696600Y-2998100D02*
X-3646610Y-2948110D01*
G01X-3796600Y-2998100D02*
X-3746610Y-2948110D01*
G01X-3896600Y-3098100D02*
X-3846610Y-3048110D01*
G01X-3896600Y-3198100D02*
X-3846610Y-3148110D01*
G01X-3696600Y-3098100D02*
X-3646610Y-3048110D01*
G01X-3696600Y-2898100D02*
X-3746610Y-2948110D01*
G01X-3496600Y-4698100D02*
X-3446610Y-4748090D01*
G01X-3496600Y-4898100D02*
X-3446610Y-4948090D01*
G01X-3496600Y-4798100D02*
X-3446610Y-4848090D01*
G01X-3596600Y-4698100D02*
X-3546610Y-4748090D01*
G01X-3596600Y-4798100D02*
X-3546610Y-4848090D01*
G01X-3596600Y-4898100D02*
X-3546610Y-4948090D01*
G01X-3496600Y-4298100D02*
X-3446610Y-4348090D01*
G01X-3596600Y-4098100D02*
X-3546610Y-4148090D01*
G01X-3596600Y-4198100D02*
X-3546610Y-4248090D01*
G01X-3496600Y-3798100D02*
X-3446610Y-3748110D01*
G01X-3496600Y-3998100D02*
X-3446610Y-4048090D01*
G01X-3596600Y-3998100D02*
X-3546610Y-4048090D01*
G01X-3496600Y-3398100D02*
X-3446610Y-3348110D01*
G01X-3496600Y-3098100D02*
X-3446610Y-3048110D01*
G01X-3496600Y-2898100D02*
X-3446610Y-2848110D01*
G01X-3596600Y-2998100D02*
X-3546610Y-2948110D01*
G01X-3596600Y-2898100D02*
X-3546610Y-2848110D01*
G01X-3596600Y-3098100D02*
X-3546610Y-3048110D01*
G01X-3596600Y-2798100D02*
X-3546610Y-2748110D01*
G01X-3288600Y-1540270D02*
Y-1617540D01*
X-3287460Y-1618680D01*
G01X-3471800Y-1446290D02*
Y-1354200D01*
X-3477260Y-1348740D01*
G01X-2714400Y-1471690D02*
X-2645170D01*
G01X-1966990Y-3640010D02*
X-1989990D01*
X-2030000Y-3600000D01*
G54D29*
X-7700990Y-4886300D03*
X-7781250D03*
X-3227830Y-4292600D03*
Y-4203700D03*
Y-4114800D03*
Y-3670300D03*
Y-3848100D03*
Y-3759200D03*
Y-3937000D03*
Y-4025900D03*
Y-3581400D03*
Y-3314700D03*
Y-3225800D03*
Y-3492500D03*
Y-3403600D03*
Y-3136900D03*
Y-3048000D03*
Y-2959100D03*
Y-2870200D03*
X-3147570Y-4292600D03*
Y-4203700D03*
Y-4114800D03*
Y-3670300D03*
Y-3848100D03*
Y-3759200D03*
Y-3937000D03*
Y-4025900D03*
Y-3581400D03*
Y-3314700D03*
Y-3225800D03*
Y-3492500D03*
Y-3403600D03*
Y-3136900D03*
Y-3048000D03*
Y-2959100D03*
Y-2870200D03*
G54D38*
X-6184640Y-4838700D03*
X-5834640D03*
G54D56*
X-3331440Y-5601160D03*
G54D47*
X-5191760Y-124980D03*
G54D74*
X-94850Y-6612700D03*
Y-5912700D03*
X-98960Y23380D03*
Y723380D03*
X235150Y-6612700D03*
Y-5912700D03*
X231040Y23380D03*
Y723380D03*
G54D65*
X-1889760Y-1506220D03*
X-1971040D03*
X-2049780D03*
X-2131060D03*
X-2209800D03*
Y-7620D03*
X-2131060D03*
X-2049780D03*
X-1971040D03*
X-1889760D03*
X-1490980Y-1506220D03*
X-1569720D03*
X-1651000D03*
X-1729740D03*
X-1811020D03*
Y-7620D03*
X-1729740D03*
X-1651000D03*
X-1569720D03*
X-1490980D03*
X-1010920Y-1506220D03*
X-1089660D03*
X-1170940D03*
X-1249680D03*
X-1330960D03*
X-1409700D03*
Y-7620D03*
X-1330960D03*
X-1249680D03*
X-1170940D03*
X-1089660D03*
X-1010920D03*
G54D84*
G01X-6578600Y-4595800D02*
X-6414400D01*
X-6413500Y-4594900D01*
X-6410020D01*
G01X-6489700Y-3825770D02*
X-6578600Y-3914670D01*
Y-3964000D01*
G01X-6096000Y-4540200D02*
Y-4701540D01*
G01X-5260000Y-2480000D02*
X-5200000Y-2540000D01*
X-5135880D01*
G01X-5260000Y-2480000D02*
X-5200000Y-2420000D01*
X-5135880D01*
G01X-3182050Y-4666000D02*
X-3345200D01*
G01X-2870200Y-4480560D02*
X-2872760Y-4478000D01*
X-2990050D01*
X-3022050Y-4446000D01*
G01X-2840000Y-2820000D02*
X-2580040D01*
X-2520000Y-2880040D01*
Y-2960000D01*
G01Y-3350000D02*
Y-3149600D01*
G01X-1255010Y-5324990D02*
X-1180000Y-5400000D01*
Y-5565000D01*
G01X-1505000Y-5220000D02*
X-1360000D01*
X-1255010Y-5324990D01*
G01X-281600Y-5260000D02*
X-119450D01*
G01X-350000D02*
X-255950Y-5354050D01*
X-25400D01*
G01X-74450Y-5305000D02*
X-236600D01*
X-281600Y-5260000D01*
G01X-119450D02*
X-152130Y-5227320D01*
X-248920D01*
G01X-74450Y-5305000D02*
X-119450Y-5260000D01*
G01X-248920Y-5227320D02*
X-417320D01*
X-450000Y-5260000D01*
G01X-95000Y-6100000D02*
X-94850Y-6099850D01*
Y-5912700D01*
G01X-25400Y-5354050D02*
X-74450Y-5305000D01*
G54D75*
X-247000Y-3173000D03*
Y-2919000D03*
Y-2411000D03*
Y-2665000D03*
Y-1903000D03*
Y-2157000D03*
Y-1395000D03*
Y-1649000D03*
Y-1141000D03*
Y-887000D03*
X7000Y-2919000D03*
Y-2411000D03*
Y-2665000D03*
Y-1903000D03*
Y-2157000D03*
Y-1395000D03*
Y-1649000D03*
Y-1141000D03*
Y-887000D03*
G54D48*
X-5179260Y-222480D03*
G54D57*
X-3201440Y-5601160D03*
X-3331440Y-5341160D03*
X-3201440D03*
G54D39*
X-6096000Y-4540200D03*
Y-3994200D03*
G54D66*
X-2013700Y741780D03*
Y1071780D03*
X-1313700Y741780D03*
Y1071780D03*
G54D85*
G01X-3896600Y-2898100D02*
X-3846610Y-2848110D01*
G01X-3896600Y-2998100D02*
X-3846610Y-2948110D01*
G01X-3445640Y-6658210D02*
Y-6564000D01*
X-3424680Y-6543040D01*
Y-6513320D01*
X-3388360Y-6477000D01*
X-3284220D01*
X-3268980Y-6461760D01*
Y-6451270D01*
X-3298660Y-6421590D01*
G01X-3040000Y-6480000D02*
X-3095650Y-6424350D01*
X-3129950D01*
X-3253080Y-6301220D01*
Y-5775820D01*
G01X-3203740Y-6421590D02*
X-3230370Y-6448220D01*
Y-6477760D01*
X-3268220Y-6515610D01*
X-3372360D01*
X-3386070Y-6529320D01*
Y-6548630D01*
X-3365630Y-6569070D01*
Y-6658210D01*
G54D76*
X7000Y-3173000D03*
G54D67*
X-1845000Y-3450000D03*
X-1795000D03*
X-1745000D03*
X-1695000D03*
X-1645000D03*
X-1595000D03*
X-1545000D03*
X-1495000D03*
X-1445000D03*
Y-2850000D03*
X-1495000D03*
X-1545000D03*
X-1595000D03*
X-1645000D03*
X-1695000D03*
X-1745000D03*
X-1795000D03*
X-1845000D03*
X-1395000Y-3450000D03*
Y-2850000D03*
G54D58*
X-3570000Y-5660000D03*
G54D49*
X-5073860Y403860D03*
X-5223860D03*
X-4623860D03*
X-4773860D03*
X-4923860D03*
X-4473860D03*
X-2874220Y391160D03*
X-3024220D03*
X-2424220D03*
X-2574220D03*
X-2724220D03*
X-2274220D03*
G54D86*
G01X-8599700Y-3334100D02*
X-8476240D01*
G01X-8599700Y-3534100D02*
X-8476240D01*
G01X-8599700Y-3484100D02*
X-8433580D01*
X-8379460Y-3538220D01*
G01X-8599700Y-3384100D02*
X-8375440D01*
G01X-8599700Y-3284100D02*
X-8375440D01*
G01X-8599700Y-3434100D02*
X-8476240D01*
G01X-8194680Y-2890000D02*
X-8364740D01*
X-8370640Y-2884100D01*
X-8599700D01*
G01Y-2934100D02*
X-8409540D01*
X-8371840Y-2971800D01*
G01X-8356600Y-3045460D02*
Y-3078480D01*
X-8462220Y-3184100D01*
X-8599700D01*
G01Y-2984100D02*
X-8476240D01*
G01X-8599700Y-3234100D02*
X-8476240D01*
G01X-8599700Y-3134100D02*
X-8488420D01*
X-8417560Y-3063240D01*
Y-3045460D01*
G01X-8599700Y-2834100D02*
X-8254100D01*
G01X-8599700Y-2384100D02*
X-8471860D01*
G01X-8599700Y-2534100D02*
X-8445460D01*
X-8439560Y-2540000D01*
G01X-8599700Y-2434100D02*
X-8462580D01*
X-8416080Y-2387600D01*
G01X-8085000Y-2684100D02*
X-8599700D01*
G01X-8285000Y-2734310D02*
X-8599490D01*
X-8599700Y-2734100D01*
G01Y-2584100D02*
X-8705900D01*
X-8740000Y-2550000D01*
G01X-8599700Y-2634100D02*
X-8488920D01*
X-8476100Y-2621280D01*
G01X-8194680Y-2735000D02*
X-8243780Y-2784100D01*
X-8599700D01*
G01X-8350000Y-2265000D02*
Y-2386080D01*
X-8448020Y-2484100D01*
X-8599700D01*
G01X-8724900Y-1938460D02*
X-8682240Y-1895800D01*
X-8599700D01*
G01Y-2334100D02*
X-8422480D01*
G01X-8599700Y-1695800D02*
X-8716360D01*
X-8719820Y-1699260D01*
G01X-8599700Y-1545800D02*
X-8215000D01*
G01X-8599700Y-1845800D02*
X-8693640D01*
X-8724900Y-1877060D01*
G01X-8599700Y-1745800D02*
X-8718100D01*
X-8727440Y-1755140D01*
G01X-8599700Y-1645800D02*
X-8729350D01*
X-8730230Y-1646680D01*
X-8730510D01*
G01X-8599700Y-1595800D02*
X-8714060D01*
X-8719820Y-1590040D01*
G01X-8599700Y-1495800D02*
X-8250080D01*
X-8250000Y-1495720D01*
X-8249870D01*
G01X-8599700Y-1795800D02*
X-8709680D01*
X-8727440Y-1813560D01*
G01X-8225000Y-1295000D02*
X-8274200Y-1245800D01*
X-8599700D01*
G01X-8300000Y-1295800D02*
X-8599700D01*
G01X-8409320Y-1390000D02*
X-8415120Y-1395800D01*
X-8599700D01*
G01Y-1345800D02*
X-8724600D01*
X-8725000Y-1346200D01*
G01X-8599700Y-1045800D02*
X-8375800D01*
X-8295000Y-965000D01*
G01X-8303260Y-1054100D02*
X-8344960Y-1095800D01*
X-8599700D01*
G01X-8145000Y-1145800D02*
X-8599700D01*
G01Y-1195800D02*
X-8255000D01*
G01X-8335000Y-845820D02*
X-8397240D01*
X-8497260Y-745800D01*
X-8599700D01*
G01X-8724900Y-868680D02*
X-8721500D01*
X-8694380Y-895800D01*
X-8599700D01*
G01Y-795800D02*
X-8509200D01*
X-8405000Y-900000D01*
G01X-8384540Y-792480D02*
X-8481220Y-695800D01*
X-8599700D01*
G01X-8724900Y-924560D02*
X-8703660Y-945800D01*
X-8599700D01*
G01Y-995800D02*
X-8385600D01*
X-8355000Y-965200D01*
G01X-8719820Y-797560D02*
Y-814480D01*
X-8688500Y-845800D01*
X-8599700D01*
G01X-7060010Y-4902200D02*
Y-4840010D01*
X-7035840Y-4815840D01*
X-6807200D01*
X-6779600Y-4788240D01*
Y-4787900D01*
G01X-7085000Y-4533900D02*
X-6978900Y-4640000D01*
X-6788840D01*
X-6766560Y-4617720D01*
G01X-6730000Y-4426500D02*
X-6951100D01*
X-7085000Y-4292600D01*
G01X-6885000D02*
X-6821500Y-4356100D01*
X-6730000D01*
G01X-6885000Y-4533900D02*
X-6773400D01*
X-6731000Y-4491500D01*
G01X-6578600Y-4164000D02*
X-6597980Y-4183380D01*
X-6991430D01*
X-7072710Y-4102100D01*
G01X-6922690D02*
X-6824980D01*
G01X-6665700Y-3034100D02*
X-6839020D01*
G01X-6665700Y-2984100D02*
X-6890620D01*
X-6936740Y-3030220D01*
G01X-6665700Y-2834100D02*
X-6839020D01*
G01X-6665700Y-2884100D02*
X-6912680D01*
X-7010400Y-2786380D01*
G01X-6665700Y-2934100D02*
X-6839020D01*
G01X-6665700Y-2584100D02*
X-6890000D01*
G01X-6665700Y-2684100D02*
X-6926580D01*
G01X-6850380Y-2387600D02*
X-6803880Y-2434100D01*
X-6665700D01*
G01Y-2634100D02*
X-6839020D01*
G01X-6665700Y-2734100D02*
X-6839020D01*
G01X-6665700Y-2784100D02*
X-6926580D01*
G01X-6665700Y-2534100D02*
X-6808920D01*
G01X-6665700Y-1745800D02*
X-6926580D01*
G01X-6665700Y-1495800D02*
X-6839020D01*
G01X-6665700Y-1645800D02*
X-6890800D01*
X-6927400Y-1682400D01*
X-6930150D01*
G01X-6665700Y-1545800D02*
X-6889200D01*
X-6925000Y-1510000D01*
G01X-6665700Y-1695800D02*
X-6839020D01*
G01X-6665700Y-1895800D02*
X-6839020D01*
G01X-6665700Y-1395800D02*
X-6839020D01*
G01X-6665700Y-1445800D02*
X-6926580D01*
G01X-6665700Y-1345800D02*
X-6926580D01*
G01X-6665700Y-1245800D02*
X-6788080D01*
X-6837680Y-1295400D01*
G01X-6665700Y-895800D02*
X-6795800D01*
X-6820000Y-920000D01*
G01X-6665700Y-795800D02*
X-6814200D01*
G01X-6308090Y-3327410D02*
Y-3402330D01*
X-6311900Y-3406140D01*
G01X-5918200Y-3845560D02*
X-5949950Y-3813810D01*
X-5950550D01*
X-6311900Y-3452460D01*
Y-3406140D01*
G01X-6665700Y-3384100D02*
X-6540600D01*
G01X-6665700Y-3284100D02*
X-6540600D01*
G01X-6665700Y-3334100D02*
X-6454140D01*
G01X-6466840Y-3535680D02*
X-6468420Y-3534100D01*
X-6665700D01*
G01Y-3484100D02*
X-6554960D01*
X-6551950Y-3481090D01*
X-6422410D01*
X-6385560Y-3444240D01*
Y-2890520D01*
X-6042660Y-2547620D01*
G01X-6665700Y-3434100D02*
X-6454140D01*
G01X-6665700Y-3134100D02*
X-6454140D01*
G01X-6665700Y-3184100D02*
X-6540600D01*
G01X-6665700Y-3084100D02*
X-6540600D01*
G01X-6665700Y-3234100D02*
X-6454140D01*
G01X-6390640Y-2446020D02*
X-6452560Y-2384100D01*
X-6665700D01*
G01Y-1845800D02*
X-6450000D01*
G01X-6665700Y-1595800D02*
X-6510000D01*
G01X-6665700Y-1045800D02*
X-6466840D01*
G01X-6665700Y-1095800D02*
X-6378060D01*
G01X-6665700Y-1145800D02*
X-6466840D01*
G01X-6665700Y-1195800D02*
X-6378060D01*
G01X-6665700Y-945800D02*
X-6466840D01*
G01X-6665700Y-745800D02*
X-6518600D01*
G01X-6665700Y-995800D02*
X-6378060D01*
G01X-5960600Y-5573700D02*
Y-5653260D01*
G01X-5912100Y-5246600D02*
X-5833420D01*
X-5811520Y-5224700D01*
G01X-5912100Y-5116600D02*
Y-4916160D01*
X-5834640Y-4838700D01*
G01X-5880100Y-3505200D02*
X-5791200D01*
G01X-5880100Y-3378200D02*
X-6018010D01*
G01X-6037580Y-2946400D02*
X-5892800D01*
X-5880100Y-2959100D01*
G01X-5795820Y-7250180D02*
X-5695700D01*
X-5427980Y-6982460D01*
Y-6814820D01*
X-4794250Y-6181090D01*
Y-5965190D01*
G01X-5795820Y-7060180D02*
X-5709220D01*
X-5708200Y-7061200D01*
X-5567680D01*
X-5486400Y-6979920D01*
Y-6804660D01*
X-5011420Y-6329680D01*
Y-6103620D01*
X-4913630Y-6005830D01*
G01X-5412730Y-5905510D02*
Y-5867730D01*
X-5350500Y-5805500D01*
X-5329700D01*
G01Y-5995500D02*
X-5404500D01*
X-5500290Y-5899710D01*
Y-5829300D01*
G01X-5803900Y-5384800D02*
Y-5464810D01*
G01X-5621800Y-5449900D02*
X-5788990D01*
X-5803900Y-5464810D01*
G01X-5735910Y-5638800D02*
X-5734810Y-5639900D01*
X-5621800D01*
G01X-5811520Y-5224700D02*
X-5659900D01*
G01X-5836920Y-4426500D02*
X-5818910Y-4444510D01*
X-5817450D01*
X-5765800Y-4496160D01*
Y-4769860D01*
X-5834640Y-4838700D01*
G01X-5496600Y-3298100D02*
X-5546590Y-3248110D01*
G01X-5496600Y-3498100D02*
X-5546590Y-3448110D01*
G01X-5496600Y-3398100D02*
X-5546590Y-3348110D01*
G01X-5596600Y-3498100D02*
X-5646590Y-3448110D01*
G01X-5596600Y-3398100D02*
X-5646590Y-3348110D01*
G01X-5396600Y-3398100D02*
X-5446590Y-3348110D01*
G01X-5396600Y-3298100D02*
X-5446590Y-3248110D01*
G01X-5596600Y-3298100D02*
X-5646590Y-3248110D01*
G01X-5396600Y-3598100D02*
X-5446590Y-3548110D01*
G01X-5496600Y-2998100D02*
X-5546590Y-2948110D01*
G01X-5396600Y-3198100D02*
X-5446590Y-3148110D01*
G01X-5396600Y-3098100D02*
X-5446590Y-3048110D01*
G01X-5596600Y-2998100D02*
X-5646590Y-2948110D01*
G01X-5596600Y-3198100D02*
X-5655260Y-3139440D01*
X-5770480D01*
G01X-5496600Y-3198100D02*
X-5546590Y-3148110D01*
G01X-5596600Y-2898100D02*
X-5646590Y-2848110D01*
G01X-5596600Y-3098100D02*
X-5646590Y-3048110D01*
G01X-5496600Y-3098100D02*
X-5546590Y-3048110D01*
G01X-5396600Y-2798100D02*
X-5446590Y-2748110D01*
G01X-5732780Y-2127220D02*
Y-2131060D01*
X-5739380D01*
G01X-5095320Y-6945680D02*
X-5151920D01*
X-5153240Y-6944360D01*
X-5194300D01*
X-5236210Y-6902450D01*
Y-6762750D01*
G01X-4970780Y-6631940D02*
Y-6833620D01*
X-4970320Y-6834080D01*
Y-6945680D01*
G01X-5329700Y-5805500D02*
X-5245500D01*
X-5191830Y-5751830D01*
X-5026830D01*
X-4986020Y-5711020D01*
Y-5646020D01*
X-4915300Y-5575300D01*
X-4893800D01*
G01X-5367020Y-5422900D02*
Y-5510120D01*
X-5401800Y-5544900D01*
G01X-5113800Y-5480300D02*
X-5214870D01*
X-5260340Y-5525770D01*
G01X-5113800Y-5480300D02*
X-4960300D01*
X-4910000Y-5430000D01*
Y-5248600D01*
X-4893800Y-5232400D01*
G01X-5113800Y-5137400D02*
X-5244080D01*
X-5283190Y-5176510D01*
Y-5210810D01*
G01X-5196600Y-4298100D02*
X-5246590Y-4348090D01*
G01X-5196600Y-4398100D02*
X-5246590Y-4448090D01*
G01X-5196600Y-4198100D02*
X-5246590Y-4248090D01*
G01X-5196600Y-3298100D02*
X-5246590Y-3248110D01*
G01X-5296600Y-3498100D02*
X-5346590Y-3448110D01*
G01X-5296600Y-3398100D02*
X-5346590Y-3348110D01*
G01X-5296600Y-3298100D02*
X-5346590Y-3248110D01*
G01X-5296600Y-3198100D02*
X-5346590Y-3148110D01*
G01X-4996600Y-2798100D02*
X-5046590Y-2748110D01*
G01X-5096600Y-2798100D02*
X-5146590Y-2748110D01*
G01X-4996600Y-2898100D02*
X-5046590Y-2848110D01*
G01X-5296600Y-2798100D02*
X-5346590Y-2748110D01*
G01X-4996600Y-3098100D02*
X-5046590Y-3048110D01*
G01X-5096600Y-3098100D02*
X-5146590Y-3048110D01*
G01X-5196600Y-2898100D02*
X-5246590Y-2848110D01*
G01X-5096600Y-2998100D02*
X-5146590Y-2948110D01*
G01X-5196600Y-2998100D02*
X-5246590Y-2948110D01*
G01X-4996600Y-2998100D02*
X-5046590Y-2948110D01*
G01X-5096600Y-2898100D02*
X-5146590Y-2848110D01*
G01X-5296600Y-2898100D02*
X-5346590Y-2848110D01*
G01X-4658360Y-5930900D02*
X-4716780Y-5989320D01*
Y-6942140D01*
X-4720320Y-6945680D01*
G01X-4594860Y-6720840D02*
Y-6833620D01*
X-4595320Y-6834080D01*
Y-6945680D01*
G01X-4846320Y-6616700D02*
Y-6833080D01*
X-4845320Y-6834080D01*
Y-6945680D01*
G01X-4559300Y-5537200D02*
X-4483100D01*
G01X-4559300Y-5422900D02*
X-4521200Y-5461000D01*
X-4483100D01*
G01X-4785360Y-5186680D02*
X-4767580Y-5168900D01*
X-4699000D01*
G01X-4851400Y-5334000D02*
X-4803100D01*
X-4765000Y-5295900D01*
X-4699000D01*
G01X-4696600Y-4798100D02*
X-4746590Y-4848090D01*
G01X-4696600Y-4698100D02*
X-4746590Y-4748090D01*
G01X-4696600Y-4598100D02*
X-4746590Y-4648090D01*
G01X-4596600Y-4498100D02*
X-4646590Y-4548090D01*
G01X-4896600Y-4498100D02*
X-4946590Y-4548090D01*
G01X-4796600Y-4498100D02*
X-4846590Y-4548090D01*
G01X-4596600Y-2898100D02*
X-4646590Y-2848110D01*
G01X-4796600Y-3098100D02*
X-4846590Y-3048110D01*
G01X-4896600Y-2898100D02*
X-4946590Y-2848110D01*
G01X-4796600Y-2998100D02*
X-4846590Y-2948110D01*
G01X-4796600Y-2898100D02*
X-4846590Y-2848110D01*
G01X-4796600Y-2798100D02*
X-4846590Y-2748110D01*
G01X-4696600Y-2798100D02*
X-4746590Y-2748110D01*
G01X-4696600Y-3098100D02*
X-4746590Y-3048110D01*
G01X-4696600Y-2898100D02*
X-4746590Y-2848110D01*
G01X-4896600Y-2998100D02*
X-4946590Y-2948110D01*
G01X-4696600Y-2998100D02*
X-4746590Y-2948110D01*
G01X-4596600Y-2798100D02*
X-4646590Y-2748110D01*
G01X-4896600Y-3098100D02*
X-4946590Y-3048110D01*
G01X-4596600Y-2998100D02*
X-4646590Y-2948110D01*
G01X-4406900Y-5537200D02*
X-4330700D01*
G01X-4406900Y-5422900D02*
X-4368800Y-5461000D01*
X-4330700D01*
G01X-4254500Y-5422900D02*
X-4216400Y-5461000D01*
X-4178300D01*
G01X-4102100Y-5537200D02*
X-4025900D01*
G01X-4254500D02*
X-4178300D01*
G01X-4036060Y-5461000D02*
X-4064000D01*
X-4102100Y-5422900D01*
G01X-4196600Y-4898100D02*
X-4146610Y-4948090D01*
G01X-4296600Y-4898100D02*
X-4246610Y-4948090D01*
G01X-4296600Y-4598100D02*
X-4246610Y-4648090D01*
G01X-4296600Y-4798100D02*
X-4246610Y-4848090D01*
G01X-4296600Y-4698100D02*
X-4246610Y-4748090D01*
G01X-4196600Y-4598100D02*
X-4146610Y-4648090D01*
G01X-4096600Y-4798100D02*
X-4046610Y-4848090D01*
G01X-4196600Y-4698100D02*
X-4146610Y-4748090D01*
G01X-4096600Y-4598100D02*
X-4046610Y-4648090D01*
G01X-4396600Y-4798100D02*
X-4346610Y-4848090D01*
G01X-4196600Y-4798100D02*
X-4146610Y-4848090D01*
G01X-4396600Y-4598100D02*
X-4346610Y-4648090D01*
G01X-4396600Y-4698100D02*
X-4346610Y-4748090D01*
G01X-4096600Y-4498100D02*
X-4046610Y-4548090D01*
G01X-4496600Y-4498100D02*
X-4446610Y-4548090D01*
G01X-4096600Y-3098100D02*
X-4046610Y-3048110D01*
G01X-4096600Y-2998100D02*
X-4046610Y-2948110D01*
G01X-3962400Y-2425700D02*
X-3898900Y-2489200D01*
Y-2616200D01*
X-4046610Y-2763910D01*
Y-2848110D01*
X-4096600Y-2898100D01*
G01X-4296600Y-2998100D02*
X-4246610Y-2948110D01*
G01X-4114800Y-2552700D02*
Y-2684780D01*
X-4146610Y-2716590D01*
Y-2848110D01*
X-4196600Y-2898100D01*
G01X-4496600D02*
X-4446610Y-2848110D01*
G01X-4196600Y-2998100D02*
X-4146610Y-2948110D01*
G01X-4196600Y-3098100D02*
X-4146610Y-3048110D01*
G01X-4496600Y-2998100D02*
X-4446610Y-2948110D01*
G01X-4496600Y-3098100D02*
X-4446610Y-3048110D01*
G01X-4396600Y-2798100D02*
X-4346610Y-2748110D01*
G01X-4396600Y-2898100D02*
X-4346610Y-2848110D01*
G01X-4396600Y-2998100D02*
X-4346610Y-2948110D01*
G01X-4396600Y-3098100D02*
X-4346610Y-3048110D01*
G01X-4296600Y-3098100D02*
X-4246610Y-3048110D01*
G01X-4096600Y-2798100D02*
Y-2745320D01*
X-3962400Y-2611120D01*
Y-2552700D01*
G01X-4254500D02*
X-4338720Y-2636920D01*
X-4340000D01*
G01X-4114800Y-2425700D02*
Y-2446020D01*
X-4048760Y-2512060D01*
Y-2618740D01*
G01X-4114800Y-2171700D02*
X-4185920D01*
G01X-4114800Y-2298700D02*
X-4185920D01*
G01X-3985260Y-5210810D02*
Y-5170310D01*
X-3949200Y-5134250D01*
G01X-3985260Y-5304790D02*
X-4055860D01*
G01X-3276600Y-5181600D02*
X-3426460D01*
X-3609340Y-4998720D01*
X-3695980D01*
X-3796600Y-4898100D01*
G01X-3934460Y-5048290D02*
X-3869650D01*
X-3821510Y-5096430D01*
Y-5257800D01*
G01X-3996600Y-4798100D02*
X-3946610Y-4848090D01*
G01X-3896600Y-4898100D02*
X-3846610Y-4948090D01*
G01X-3996600Y-4698100D02*
X-3946610Y-4748090D01*
G01X-3896600Y-4698100D02*
X-3846610Y-4748090D01*
G01X-3896600Y-4798100D02*
X-3846610Y-4848090D01*
G01X-3996600Y-4898100D02*
X-3946610Y-4948090D01*
G01X-3896600Y-4298100D02*
X-3846610Y-4348090D01*
G01X-3696600Y-4298100D02*
X-3646610Y-4348090D01*
G01X-3796600Y-4198100D02*
X-3746610Y-4248090D01*
G01X-3796600Y-4498100D02*
X-3746610Y-4548090D01*
G01X-3696600Y-4498100D02*
X-3646610Y-4548090D01*
G01X-3696600Y-4398100D02*
X-3646610Y-4448090D01*
G01X-3796600Y-3798100D02*
X-3746610Y-3748110D01*
G01X-3896600Y-3798100D02*
X-3846610Y-3748110D01*
G01X-3696600Y-3898100D02*
X-3646610Y-3948090D01*
G01X-3696600Y-3698100D02*
X-3646610Y-3648110D01*
G01X-3796600Y-3898100D02*
X-3746610Y-3948090D01*
G01X-3696600Y-3798100D02*
X-3646610Y-3748110D01*
G01X-3796600Y-3698100D02*
X-3746610Y-3648110D01*
G01X-3796600Y-3398100D02*
X-3746610Y-3348110D01*
G01X-3896600Y-3398100D02*
X-3846610Y-3348110D01*
G01X-3796600Y-3298100D02*
X-3746610Y-3248110D01*
G01X-3696600Y-3498100D02*
X-3646610Y-3448110D01*
G01X-3696600Y-3298100D02*
X-3646610Y-3248110D01*
G01X-3796600Y-3598100D02*
X-3746610Y-3548110D01*
G01X-3696600Y-3598100D02*
X-3646610Y-3548110D01*
G01X-3696600Y-3398100D02*
X-3646610Y-3348110D01*
G01X-3896600Y-3598100D02*
X-3846610Y-3548110D01*
G01X-3796600Y-3498100D02*
X-3746610Y-3448110D01*
G01X-3996600Y-2898100D02*
X-3946610Y-2848110D01*
G01X-3696600Y-3198100D02*
X-3646610Y-3148110D01*
G01X-3996600Y-2798100D02*
X-3810000Y-2611500D01*
Y-2552700D01*
G01X-3796600Y-2898100D02*
X-3746610Y-2848110D01*
G01X-3996600Y-2998100D02*
X-3946610Y-2948110D01*
G01X-3796600Y-2798100D02*
X-3746610Y-2748110D01*
G01X-3365500Y-2628900D02*
X-3426600Y-2690000D01*
X-3588500D01*
X-3696600Y-2798100D01*
G01X-3996600Y-3098100D02*
X-3946610Y-3048110D01*
G01X-3796600Y-3198100D02*
X-3746610Y-3148110D01*
G01X-3810000Y-2425700D02*
Y-2352040D01*
G01X-3962400Y-2298700D02*
X-3903980Y-2357120D01*
G01X-4047550Y-2379680D02*
X-4046220D01*
Y-2255520D01*
X-3962400Y-2171700D01*
G01X-3670300Y-2425700D02*
Y-2349500D01*
G01X-3601720Y-5556980D02*
Y-5557520D01*
X-3540760Y-5496560D01*
X-3373120D01*
X-3331440Y-5538240D01*
Y-5601160D01*
G01X-3413300Y-5565600D02*
X-3423920Y-5576220D01*
Y-5661660D01*
X-3401060Y-5684520D01*
X-3223260D01*
X-3201440Y-5662700D01*
Y-5601160D01*
G01X-3331440Y-5341160D02*
X-3395520D01*
G01X-3276600Y-5067300D02*
X-3352800D01*
G01X-3201440Y-5341160D02*
Y-5278560D01*
X-3224740Y-5255260D01*
X-3423920D01*
X-3601720Y-5077460D01*
G01X-3276600Y-4838700D02*
X-3362960D01*
G01X-3596600Y-4598100D02*
X-3546610Y-4648090D01*
G01X-3276600Y-4953000D02*
X-3357880D01*
X-3362960Y-4947920D01*
G01X-3596600Y-4398100D02*
X-3546610Y-4448090D01*
G01X-3596600Y-4498100D02*
X-3546610Y-4548090D01*
G01X-3496600Y-4198100D02*
X-3446610Y-4248090D01*
G01X-3182050Y-4446000D02*
X-3334020D01*
G01D02*
X-3390000Y-4390020D01*
Y-4204700D01*
X-3496600Y-4098100D01*
G01X-3227830Y-4203700D02*
X-3291840D01*
G01X-3596600Y-4298100D02*
X-3546610Y-4348090D01*
G01X-3227830Y-4292600D02*
X-3291840D01*
G01X-3596600Y-3698100D02*
X-3546610Y-3648110D01*
G01X-3227830Y-4114800D02*
X-3291840D01*
G01X-3496600Y-3698100D02*
X-3446610Y-3648110D01*
G01X-3496600Y-3898100D02*
X-3446610Y-3948090D01*
G01X-3227830Y-3848100D02*
X-3295000D01*
G01X-3227830Y-3759200D02*
X-3291840D01*
G01X-3596600Y-3898100D02*
X-3546610Y-3948090D01*
G01X-3596600Y-3798100D02*
X-3546610Y-3748110D01*
G01X-3227830Y-4025900D02*
X-3291840D01*
G01X-3227830Y-3937000D02*
X-3291840D01*
G01X-3596600Y-3398100D02*
X-3546610Y-3348110D01*
G01X-3227830Y-3314700D02*
X-3350260D01*
G01X-3596600Y-3498100D02*
X-3546610Y-3448110D01*
G01X-3227830Y-3492500D02*
X-3291840D01*
G01X-3496600Y-3598100D02*
X-3446610Y-3548110D01*
G01X-3496600Y-3498100D02*
X-3406660D01*
X-3312160Y-3403600D01*
X-3227830D01*
G01Y-3670300D02*
X-3291840D01*
G01X-3596600Y-3298100D02*
X-3546610Y-3248110D01*
G01X-3227830Y-3136900D02*
X-3276900D01*
X-3438100Y-3298100D01*
X-3496600D01*
G01X-3596600Y-3598100D02*
X-3546610Y-3548110D01*
G01X-3227830Y-3581400D02*
X-3291840D01*
G01X-3227830Y-2870200D02*
X-3324860D01*
G01X-3496600Y-2998100D02*
X-3378200Y-2879700D01*
Y-2832100D01*
X-3314700Y-2768600D01*
X-3247390D01*
G01X-3227830Y-3225800D02*
X-3291840D01*
G01X-3496600Y-3198100D02*
X-3391140D01*
X-3241040Y-3048000D01*
X-3227830D01*
G01X-3596600Y-3198100D02*
X-3543500Y-3145000D01*
X-3475000D01*
X-3289100Y-2959100D01*
X-3227830D01*
G01X-3479800Y-2628900D02*
Y-2552700D01*
G01X-3594100Y-2628900D02*
Y-2552700D01*
G01X-3365500Y-2628900D02*
Y-2552700D01*
G01X-3149600Y-5181600D02*
X-3065000D01*
G01X-3149600Y-5067300D02*
X-3063240D01*
G01X-3074770Y-4853100D02*
X-3089170Y-4838700D01*
X-3149600D01*
G01Y-4953000D02*
X-3063240D01*
G01X-3022050Y-4666000D02*
Y-4767050D01*
X-3030000Y-4775000D01*
G01X-2940000Y-4230000D02*
X-2940020D01*
X-2964300Y-4205720D01*
X-3145550D01*
X-3147570Y-4203700D01*
G01Y-4292600D02*
X-3042920D01*
G01X-3147570Y-4114800D02*
X-3030970D01*
X-2981960Y-4163810D01*
G01X-3070000Y-3937000D02*
X-3147570D01*
G01X-2395000Y-3865000D02*
X-2411900Y-3848100D01*
X-2496820D01*
X-2514600Y-3865880D01*
Y-3934460D01*
X-2501900Y-3947160D01*
X-2385060D01*
X-2359660Y-3972560D01*
Y-4023360D01*
X-2374900Y-4038600D01*
X-2555240D01*
X-2573020Y-4020820D01*
Y-3863340D01*
X-2590800Y-3845560D01*
X-2621280D01*
X-2639060Y-3863340D01*
Y-3939540D01*
X-2656840Y-3957320D01*
X-2687320D01*
X-2705100Y-3939540D01*
Y-3870960D01*
X-2727960Y-3848100D01*
X-3147570D01*
G01X-3030000Y-3895000D02*
X-2956560D01*
X-2928620Y-3922940D01*
Y-4010660D01*
X-2910840Y-4028440D01*
X-2847340D01*
X-2829560Y-4010660D01*
Y-3915320D01*
X-2809240Y-3895000D01*
X-2777580D01*
X-2758440Y-3914140D01*
Y-4048760D01*
X-2717800Y-4089400D01*
X-2354580D01*
X-2319020Y-4053840D01*
Y-3784600D01*
X-2303900Y-3769480D01*
X-2270640D01*
X-2260000Y-3780120D01*
Y-3790000D01*
G01X-2990000Y-3996910D02*
X-3081190D01*
X-3110180Y-4025900D01*
X-3147570D01*
G01Y-3759200D02*
X-3120800D01*
X-3075000Y-3805000D01*
G01X-3147570Y-3403600D02*
X-3083820D01*
X-3030220Y-3350000D01*
X-3025000D01*
G01X-3147570Y-3670300D02*
X-3081020D01*
G01X-3147570Y-3581400D02*
X-3093720D01*
X-3042920Y-3632200D01*
G01X-2400000Y-3790000D02*
Y-3652820D01*
X-2456180Y-3596640D01*
X-2593360D01*
X-2630000Y-3560000D01*
Y-3285000D01*
X-2695550Y-3219450D01*
X-2853390D01*
X-2871170Y-3201670D01*
Y-3166110D01*
X-2853390Y-3148330D01*
X-2657450D01*
X-2642210Y-3133090D01*
Y-3097530D01*
X-2662530Y-3077210D01*
X-2901950D01*
X-2923540Y-3098800D01*
Y-3188970D01*
X-2954020Y-3219450D01*
X-3011170D01*
X-3106420Y-3314700D01*
X-3147570D01*
G01X-3060080Y-3447140D02*
X-3091540D01*
X-3136900Y-3492500D01*
X-3147570D01*
G01Y-3136900D02*
X-3101340D01*
X-3081120Y-3116680D01*
X-3081190D01*
G01X-3147570Y-2870200D02*
X-3083560D01*
G01X-3147570Y-3225800D02*
X-3078480D01*
G01X-3147570Y-3048000D02*
X-2961640D01*
G01X-3147570Y-2959100D02*
X-3064100D01*
X-3015000Y-2910000D01*
G01X-2062480Y-1000760D02*
Y-830580D01*
X-2095500Y-797560D01*
X-2359660D01*
G01D02*
X-2487930D01*
G01X-2108200Y-1137920D02*
Y-901700D01*
X-2133600Y-876300D01*
X-2359660D01*
G01D02*
X-2487930D01*
G01X-2359660Y-716280D02*
X-2487930D01*
G01X-1120000Y-4990000D02*
X-1240820Y-4869180D01*
X-1779180D01*
X-1819820Y-4909820D01*
X-2132560D01*
X-2249400Y-5026660D01*
G01X-1570000Y-1506500D02*
X-1569720Y-1506220D01*
G01X-1320000Y-3225000D02*
X-1235240D01*
G54D77*
G01X-9169000Y-7603000D02*
X431000D01*
Y1397000D01*
X-9169000D01*
Y-7603000D01*
G54D68*
X-1620000Y-3150000D03*
G54D59*
X-3182050Y-4666000D03*
Y-4446000D03*
X-3022050Y-4666000D03*
Y-4446000D03*
G54D78*
G01X-6578600Y-4395800D02*
X-6465000D01*
G54D69*
X-830580Y-6116320D03*
G54D79*
G01X-6819140Y-3540000D02*
Y-3597400D01*
X-6782440Y-3634100D01*
X-6665700D01*
G01Y-1795800D02*
X-6525280D01*
G01X-1645000Y-3125000D02*
X-1920000D01*
G01X-1745000Y-3450000D02*
Y-3545000D01*
X-1750000Y-3550000D01*
G01X-1620000Y-3150000D02*
X-1645000Y-3125000D01*
G01X-1531620Y-3030220D02*
X-1595000Y-2966840D01*
G01D02*
Y-2850000D01*
G01X-1158240Y-3263500D02*
X-1183640Y-3238100D01*
Y-3175000D01*
G01X-1320000D02*
X-1183640D01*
G01D02*
Y-3149600D01*
X-1208240Y-3125000D01*
X-1320000D01*
M02*
