G04 ================== begin FILE IDENTIFICATION RECORD ==================*
G04 Layout Name:  STANDARD.brd*
G04 Film Name:    4-SIG*
G04 File Format:  Gerber RS274X*
G04 File Origin:  Cadence Allegro 16.6-P004*
G04 Origin Date:  Thu Sep 18 09:56:33 2014*
G04 *
G04 Layer:  VIA CLASS/4--SIG*
G04 Layer:  PIN/4--SIG*
G04 Layer:  ETCH/4--SIG*
G04 Layer:  BOARD GEOMETRY/OUTLINE*
G04 *
G04 Offset:    (0.0000 0.0000)*
G04 Mirror:    No*
G04 Mode:      Positive*
G04 Rotation:  0*
G04 FullContactRelief:  No*
G04 UndefLineWidth:     0.1000*
G04 ================== end FILE IDENTIFICATION RECORD ====================*
%FSLAX25Y25*MOMM*%
%IR0*IPPOS*OFA0.00000B0.00000*MIA0B0*SFA1.00000B1.00000*%
%ADD15C,.8*%
%ADD16C,.9*%
%ADD13C,.508*%
%ADD10C,.4064*%
%ADD11C,.762*%
%ADD17C,1.4*%
%ADD14C,1.016*%
%ADD12C,1.27*%
%ADD21C,1.524*%
%ADD20O,1.778X3.81*%
%ADD19O,3.81X1.778*%
%ADD18O,4.572X1.778*%
%ADD22C,.1*%
%ADD23C,.12*%
%ADD24C,.254*%
%ADD25C,.381*%
%ADD26C,.1219*%
%ADD27C,.1778*%
G75*
%LPD*%
G75*
G54D10*
X-8476240Y-3334100D03*
Y-3534100D03*
Y-3234100D03*
Y-3434100D03*
Y-2984100D03*
X-8740000Y-2550000D03*
X-8476100Y-2621280D03*
X-8724900Y-1938460D03*
X-8719820Y-1699260D03*
X-8724900Y-1877060D03*
X-8727440Y-1755140D03*
X-8730510Y-1646680D03*
X-8719820Y-1590040D03*
X-8727440Y-1813560D03*
X-8725000Y-1346200D03*
X-8724900Y-868680D03*
Y-924560D03*
X-8719820Y-797560D03*
X-8141970Y-7181850D03*
X-8087360Y-7371080D03*
X-8133080D03*
X-8087360Y-7325360D03*
X-8133080D03*
X-8085230Y-6971840D03*
X-8128410D03*
X-8084820Y-6929120D03*
X-8128000D03*
X-8276810Y-5757300D03*
X-8325070D03*
X-8375870D03*
X-8276810Y-5711580D03*
X-8325070D03*
X-8375870D03*
X-8277860Y-5666740D03*
X-8326120D03*
X-8376920D03*
X-8290560Y-4772660D03*
X-8346440Y-4699000D03*
X-8365110Y-4977790D03*
X-8410830D03*
X-8365110Y-4932070D03*
X-8410830D03*
X-8364220Y-4886960D03*
X-8409940D03*
X-8379460Y-3538220D03*
X-8375440Y-3384100D03*
Y-3284100D03*
X-8194680Y-2890000D03*
X-8371840Y-2971800D03*
X-8473440Y-3045000D03*
X-8356600Y-3045460D03*
X-8417560D03*
X-8254100Y-2834100D03*
X-8273580Y-2375000D03*
X-8471860Y-2384100D03*
X-8439560Y-2540000D03*
X-8416080Y-2387600D03*
X-8085000Y-2684100D03*
X-8285000Y-2734310D03*
X-8194680Y-2735000D03*
X-8422480Y-2334100D03*
X-8350000Y-2265000D03*
X-8215000Y-1545800D03*
X-8249870Y-1495720D03*
X-8225000Y-1295000D03*
X-8300000Y-1295800D03*
X-8409320Y-1390000D03*
X-8303260Y-1054100D03*
X-8145000Y-1145800D03*
X-8255000Y-1195800D03*
X-8191500Y-1390000D03*
X-8335000Y-845820D03*
X-8405000Y-900000D03*
X-8384540Y-792480D03*
X-8295000Y-965000D03*
X-8355000Y-965200D03*
X-7781120Y-7379850D03*
Y-7334130D03*
X-7735400D03*
Y-7379850D03*
X-7713980Y-6126480D03*
Y-6217920D03*
Y-6169660D03*
X-7657670Y-5920430D03*
X-7703390D03*
X-7657670Y-5874710D03*
X-7703390D03*
X-7658100Y-5826760D03*
X-7703820D03*
X-8011160Y-4699000D03*
X-7815580Y-4386580D03*
X-7861300D03*
X-7907020D03*
X-7815580Y-4340860D03*
X-7861300D03*
X-7907020D03*
X-7719060Y-3916680D03*
X-7710000Y-2933800D03*
X-7811400Y-2781400D03*
X-7807760Y-2690000D03*
X-7790000Y-2270000D03*
X-7647940Y581660D03*
X-7366000Y-6327140D03*
X-7411720D03*
X-7366000Y-6278880D03*
X-7411720D03*
X-7322820Y-4886300D03*
X-7447280Y-4693920D03*
X-7299180Y-4529600D03*
X-7250000Y-3040000D03*
X-7219100Y-2940000D03*
X-7159100Y-2000000D03*
X-7495540Y579120D03*
X-7048500Y-7167880D03*
X-7071360Y-6677660D03*
X-6758940Y-3802380D03*
X-6814200Y-795800D03*
X-6875000Y-845800D03*
X-6654800Y-5303520D03*
X-6329680Y-4612640D03*
X-6465000Y-4395800D03*
X-6497320Y-4284980D03*
X-6390000Y-4490000D03*
Y-4260000D03*
X-6298800Y-4264000D03*
X-6390000Y-4040000D03*
X-6311900Y-3406140D03*
X-6461760Y-3060700D03*
X-6512580Y-2484100D03*
X-6450000Y-1845800D03*
X-6525280Y-1795800D03*
X-6520000Y-825000D03*
X-6294120Y403860D03*
X-6176260Y-7250180D03*
X-6206180Y-6764550D03*
X-6156960Y-7056120D03*
X-6200140D03*
X-6201700Y-7010950D03*
X-6158520D03*
X-6210300Y-7155180D03*
X-6205020Y-6721390D03*
X-5861720Y-6614160D03*
X-6173880Y-6045850D03*
X-6118000D03*
X-6118860Y-5994400D03*
X-6174740D03*
X-5960600Y-5653260D03*
X-6210000Y-4270000D03*
X-5918200Y-3845560D03*
X-6018010Y-3378200D03*
X-6016840Y-3175000D03*
X-6042660Y-2547620D03*
X-6035040Y-2717800D03*
X-6248400Y403860D03*
X-5460000Y-6330000D03*
X-5803900Y-5384800D03*
X-5446590Y-4948090D03*
X-5646590Y-4848090D03*
X-5546590Y-4948090D03*
X-5446590Y-4748090D03*
X-5546590Y-4848090D03*
X-5646590Y-4948090D03*
X-5446590Y-4848090D03*
X-5546590Y-4248090D03*
X-5446590Y-4148090D03*
X-5646590Y-3748110D03*
X-5546590D03*
X-5446590Y-3948090D03*
X-5646590Y-4048090D03*
X-5546590D03*
X-5791200Y-3505200D03*
X-5546590Y-3248110D03*
Y-3448110D03*
Y-3348110D03*
X-5646590Y-3448110D03*
Y-3348110D03*
X-5446590D03*
Y-3248110D03*
X-5646590D03*
Y-3548110D03*
X-5446590Y-3448110D03*
Y-3648110D03*
X-5546590Y-3548110D03*
X-5446590D03*
X-5546590Y-2948110D03*
X-5446590Y-3148110D03*
Y-3048110D03*
X-5646590Y-2948110D03*
X-5770480Y-3139440D03*
X-5546590Y-3148110D03*
X-5646590Y-2848110D03*
Y-3048110D03*
X-5546590D03*
X-5446590Y-2948110D03*
X-5546590Y-2848110D03*
X-5446590D03*
Y-2748110D03*
X-5646590D03*
X-5546590D03*
X-5455920Y-1559560D03*
X-5461000Y-165100D03*
X-5537200Y563880D03*
Y507400D03*
X-5588600D03*
X-5186680Y-7218680D03*
Y-7272020D03*
Y-7325360D03*
X-5236210Y-6762750D03*
X-5184140Y-7162800D03*
X-5083810Y-6709410D03*
X-4970780Y-6631940D03*
X-5046590Y-4548090D03*
Y-4948090D03*
X-5246590Y-4548090D03*
X-5146590Y-4548060D03*
X-5346590Y-4648090D03*
X-5246590D03*
Y-4748090D03*
X-5346590D03*
X-5246590Y-4348090D03*
Y-4448090D03*
Y-4248090D03*
X-5046590Y-4348110D03*
X-5046610Y-4148090D03*
X-5146590D03*
Y-4448090D03*
Y-4348090D03*
X-5046590Y-4448110D03*
X-5246590Y-4148090D03*
X-5143500Y-4249420D03*
X-5146590Y-3748110D03*
X-5246590D03*
Y-3948090D03*
X-5146590D03*
X-5246590Y-4048090D03*
X-5146590D03*
X-5046610D03*
X-5346590Y-3948090D03*
X-5246590Y-3248110D03*
X-5346590Y-3448110D03*
Y-3348110D03*
Y-3248110D03*
X-5146590Y-3648110D03*
X-5246590D03*
X-5046590Y-3248110D03*
X-5042800Y-3658270D03*
X-5246590Y-3548110D03*
X-5146590D03*
Y-3248110D03*
Y-3348110D03*
X-5246590D03*
Y-3448110D03*
X-5346590Y-3648110D03*
X-5146590Y-3448110D03*
X-5346590Y-3148110D03*
X-5046590Y-2848110D03*
Y-3048110D03*
X-5146590D03*
X-5246590Y-2848110D03*
X-5146590Y-2948110D03*
X-5246590D03*
X-5046590D03*
X-5146590Y-2848110D03*
X-5346590D03*
X-5146590Y-3148110D03*
X-5346590Y-3048110D03*
Y-2948110D03*
X-5246590Y-3048110D03*
X-5046590Y-3148110D03*
X-5246590D03*
X-5046590Y-2748110D03*
X-5146590D03*
X-5346590D03*
X-5246590D03*
X-5350000Y-980000D03*
X-5097780Y-342900D03*
X-4594860Y-6720840D03*
X-4846320Y-6616700D03*
X-4913630Y-6005830D03*
X-4658360Y-5930900D03*
X-4861560Y-6083300D03*
X-4794250Y-5965190D03*
X-4594860Y-6192520D03*
X-4785360Y-5186680D03*
X-4851400Y-5334000D03*
X-4746590Y-4848090D03*
Y-4748090D03*
Y-4648090D03*
X-4646590Y-4548090D03*
X-4946590D03*
X-4846590D03*
X-4946590Y-4948090D03*
X-4746590Y-4548090D03*
Y-4348110D03*
X-4846590Y-4448090D03*
X-4946590D03*
X-4646590Y-4148090D03*
X-4746590D03*
X-4846590D03*
X-4646590Y-4448090D03*
Y-3748110D03*
X-4746590D03*
X-4846590D03*
X-4646590Y-3948090D03*
Y-4048090D03*
X-4746590Y-3948090D03*
Y-4048090D03*
X-4846590D03*
Y-3948090D03*
X-4946590Y-3348090D03*
X-4846590D03*
X-4646590D03*
Y-3548110D03*
Y-3648110D03*
X-4746590Y-3548110D03*
Y-3648110D03*
X-4846590Y-3548110D03*
Y-3648110D03*
X-4746590Y-3248110D03*
X-4646590D03*
X-4546590D03*
X-4946590D03*
X-4846590D03*
X-4646590Y-2848110D03*
X-4846590Y-3048110D03*
X-4946590Y-2848110D03*
X-4846590Y-2948110D03*
Y-2848110D03*
X-4746590Y-3048110D03*
Y-2848110D03*
X-4946590Y-2948110D03*
X-4746590D03*
X-4946590Y-3048110D03*
X-4646590Y-2948110D03*
X-4946590Y-3148110D03*
X-4746590D03*
X-4846590D03*
X-4546610D03*
X-4846590Y-2748110D03*
X-4746590D03*
X-4646590D03*
X-4946590D03*
X-4550000Y-2052320D03*
X-4160700Y-6993710D03*
X-4211500D03*
X-4262300D03*
X-4163060Y-6944360D03*
X-4213860D03*
X-4264660D03*
X-4518660Y-5963920D03*
X-4330700Y-5537200D03*
Y-5461000D03*
X-4178300D03*
X-4483100Y-5537200D03*
X-4178300D03*
X-4483100Y-5461000D03*
X-4218940Y-5096670D03*
X-4193470Y-5049800D03*
X-4146610Y-4948090D03*
X-4246610D03*
Y-4648090D03*
Y-4848090D03*
Y-4748090D03*
X-4146610Y-4648090D03*
X-4446610Y-4548090D03*
X-4146610Y-4748090D03*
X-4346610Y-4848090D03*
X-4146610D03*
X-4346610Y-4648090D03*
Y-4748090D03*
X-4146610Y-4548090D03*
X-4246610D03*
X-4346610D03*
X-4446610Y-4948090D03*
X-4246610Y-4348110D03*
X-4146610D03*
X-4346610D03*
X-4446610Y-4448090D03*
X-4246610Y-4148090D03*
X-4146610Y-4448110D03*
X-4346610Y-4148090D03*
X-4446610D03*
X-4346610Y-4448110D03*
X-4246610Y-3748110D03*
X-4346610D03*
X-4446610D03*
X-4246610Y-3948090D03*
Y-4048090D03*
X-4346610Y-3948090D03*
Y-4048090D03*
X-4446610Y-3948090D03*
Y-4048090D03*
X-4146610Y-3248110D03*
X-4446610Y-3348090D03*
X-4346610D03*
X-4246610Y-3548110D03*
Y-3648110D03*
X-4246590Y-3248110D03*
X-4346610Y-3548110D03*
Y-3648110D03*
X-4446610Y-3548110D03*
Y-3648110D03*
X-4446590Y-3248110D03*
X-4346590D03*
X-4246610Y-2948110D03*
X-4446610Y-2848110D03*
X-4146610Y-2948110D03*
Y-3048110D03*
X-4446610Y-2948110D03*
Y-3048110D03*
X-4346610Y-2848110D03*
Y-2948110D03*
Y-3048110D03*
X-4246610D03*
Y-3148110D03*
X-4146610D03*
X-4446610D03*
X-4346610D03*
X-4340000Y-2636920D03*
X-4346610Y-2748110D03*
X-4446610D03*
X-4185920Y-2171700D03*
Y-2298700D03*
X-4053840Y-7292340D03*
X-3680460Y-6697980D03*
X-3935000Y-5985000D03*
X-4036060Y-5461000D03*
X-4025900Y-5537200D03*
X-3985260Y-5370310D03*
X-3934460Y-5048290D03*
X-4046610Y-4548090D03*
Y-4748090D03*
X-3946610Y-4848090D03*
X-3846610Y-4948090D03*
X-3946610Y-4748090D03*
X-3846610D03*
Y-4848090D03*
X-3746610Y-4548090D03*
X-4046610Y-4848090D03*
X-3646610Y-4548090D03*
X-4046610Y-4648090D03*
X-3946610Y-4948090D03*
X-4046610D03*
X-3946610Y-4548090D03*
X-3846610D03*
X-3646610Y-4648090D03*
Y-4748090D03*
X-3746610Y-4648090D03*
X-3646610Y-4948090D03*
Y-4848090D03*
X-3746610Y-4748090D03*
X-3846610Y-4648090D03*
Y-4348090D03*
X-3646610D03*
X-3746610Y-4248090D03*
Y-4148090D03*
X-3646610Y-4448090D03*
X-3846610Y-4148090D03*
Y-4248090D03*
X-4046590D03*
X-3846610Y-4448090D03*
X-3946610Y-4348090D03*
X-3746610Y-4448090D03*
X-3646610Y-4148090D03*
X-3946610D03*
X-3746610Y-3748110D03*
X-3846610D03*
X-3746610Y-4048090D03*
X-3846610D03*
X-3646610Y-3948090D03*
X-3746610D03*
X-3946610Y-4048090D03*
X-3646610Y-3748110D03*
X-3946610Y-3948090D03*
X-3846610D03*
X-3946610Y-3748110D03*
X-3746610Y-3348110D03*
X-3846610D03*
X-3746610Y-3248110D03*
X-4046590Y-3548090D03*
X-3846610Y-3648110D03*
Y-3448110D03*
X-4046590Y-3648110D03*
X-3646610Y-3448110D03*
Y-3248110D03*
X-3746610Y-3548110D03*
X-3646610D03*
Y-3348110D03*
Y-3648110D03*
X-3846610Y-3548110D03*
X-3946610Y-3348110D03*
Y-3248110D03*
X-4046610Y-3348090D03*
X-3746610Y-3648110D03*
X-3946610D03*
X-4046610Y-3248110D03*
X-3946610Y-3548110D03*
Y-3448110D03*
X-3746610D03*
X-4046610Y-3048110D03*
X-3946610Y-2848110D03*
X-3646610Y-3148110D03*
X-4046610Y-2948110D03*
X-3746610Y-2848110D03*
X-3946610Y-2948110D03*
Y-3048110D03*
X-3846610Y-2848110D03*
Y-2948110D03*
X-4046610Y-3148110D03*
X-3946610D03*
X-3746610D03*
X-3646610Y-3048110D03*
X-3746610D03*
X-3646610Y-2948110D03*
X-3746610D03*
X-3846610Y-3048110D03*
Y-3148110D03*
X-3810000Y-2352040D03*
X-3903980Y-2357120D03*
X-4048760Y-2618740D03*
X-4047550Y-2379680D03*
X-3746610Y-2748110D03*
X-3670300Y-2349500D03*
X-3846610Y-2748110D03*
X-3601720Y-5556980D03*
X-3395520Y-5341160D03*
X-3601720Y-5077460D03*
X-3546610Y-4548090D03*
Y-4648090D03*
X-3362960Y-4947920D03*
X-3446610Y-4748090D03*
Y-4948090D03*
Y-4848090D03*
X-3546610Y-4748090D03*
Y-4848090D03*
Y-4948090D03*
X-3291840Y-4114800D03*
X-3546610Y-4448090D03*
X-3446610Y-4248090D03*
X-3291840Y-4203700D03*
X-3546610Y-4348090D03*
X-3291840Y-4292600D03*
X-3446610Y-4348090D03*
X-3546610Y-4148090D03*
Y-4248090D03*
X-3446610Y-3748110D03*
X-3291840Y-3670300D03*
X-3446610Y-3948090D03*
X-3295000Y-3848100D03*
X-3291840Y-3759200D03*
X-3546610Y-3948090D03*
Y-3748110D03*
X-3291840Y-4025900D03*
Y-3937000D03*
X-3546610Y-3848090D03*
X-3446610Y-4048090D03*
X-3546610D03*
Y-3648110D03*
Y-3348110D03*
X-3350260Y-3314700D03*
X-3546610Y-3448110D03*
X-3383280Y-3403600D03*
X-3446610Y-3648110D03*
X-3291840Y-3492500D03*
X-3446610Y-3548110D03*
X-3546610Y-3248110D03*
Y-3548110D03*
X-3291840Y-3581400D03*
X-3446610Y-3348110D03*
X-3312540Y-3047620D03*
X-3324860Y-2870200D03*
X-3446610Y-3048110D03*
X-3291840Y-3225800D03*
X-3446610Y-2848110D03*
X-3546610Y-2948110D03*
Y-2848110D03*
Y-3048110D03*
X-3479800Y-2379980D03*
X-3546610Y-2748110D03*
X-3040000Y-6480000D03*
X-3063240Y-5067300D03*
X-2895000Y-4725000D03*
X-3063240Y-4953000D03*
X-3004820Y-4335780D03*
X-2940000Y-4230000D03*
X-3042920Y-4292600D03*
X-2997200Y-4254500D03*
X-2981960Y-4163810D03*
X-3070000Y-3937000D03*
Y-4045000D03*
X-2971800Y-3759200D03*
X-3014980Y-3714070D03*
X-3030000Y-3895000D03*
X-3081020Y-3670300D03*
X-2950000Y-4055000D03*
X-2990000Y-3996910D03*
X-3075000Y-3805000D03*
X-3025000Y-3350000D03*
X-3025140Y-3294380D03*
X-3024490Y-3403600D03*
X-3042920Y-3632200D03*
X-3008020Y-3581400D03*
X-3060080Y-3447140D03*
X-3068320Y-3510280D03*
X-3081190Y-3116680D03*
X-3040000Y-3002280D03*
X-3083560Y-2870200D03*
X-3078480Y-3225800D03*
X-2954020Y-2954020D03*
X-2969260Y-3154680D03*
X-3061890Y-2821450D03*
X-3070860Y-3172460D03*
X-2961640Y-3048000D03*
X-3015000Y-2910000D03*
X-2395000Y-3865000D03*
X-2400000Y-3790000D03*
X-2645170Y-1471690D03*
X-2679700Y-1176020D03*
X-2762670D03*
X-2487930Y-797560D03*
X-2641600Y-762000D03*
X-2487930Y-876300D03*
Y-716280D03*
X-2496260Y-556260D03*
X-2492480Y-477520D03*
X-2560000Y170000D03*
X-1947720Y-7252160D03*
X-2189480Y-7076440D03*
X-1961200Y-5440000D03*
Y-5520000D03*
X-2210000D03*
X-2249400Y-5026660D03*
X-1982700Y-5097200D03*
X-1910000Y-5010000D03*
X-1960000Y-5045000D03*
X-1961200Y-5360000D03*
X-2210000Y-5400000D03*
X-1938020Y-4841240D03*
X-2321560Y-4688840D03*
X-2290000Y-4850000D03*
X-1958100Y-4729820D03*
X-1907540Y-4792980D03*
X-2235000Y-4785000D03*
X-2196990Y-4571320D03*
X-2182620Y-4862830D03*
X-1940560Y-4610100D03*
X-1910000Y-4464660D03*
X-2285000Y-4472940D03*
X-1985000Y-4520000D03*
X-1988580Y-4460320D03*
X-1909040Y-4013200D03*
X-2050000Y-3700000D03*
X-1929030Y-4099680D03*
X-1982880Y-4097200D03*
X-2267180Y-3964940D03*
X-2260000Y-3790000D03*
X-2236700Y-3901440D03*
X-2239240Y-4069080D03*
X-1988580Y-4019430D03*
X-2050000Y-3290000D03*
X-1995000Y-3325000D03*
X-2030000Y-3600000D03*
X-2074440Y-2952500D03*
X-2075000Y-3225000D03*
X-2025000Y-3075000D03*
X-2005000Y-3175000D03*
X-1975730Y-2351650D03*
X-2199120Y-2716990D03*
X-1913010Y-2716270D03*
X-2073730Y-2716990D03*
X-2171700Y-1920240D03*
X-1947750Y-2103550D03*
X-2100000Y-1650000D03*
X-2108200Y-1137920D03*
X-2062480Y-1000760D03*
X-2140580Y-551820D03*
X-2115820Y-396240D03*
X-2137020Y363700D03*
X-2139560Y310360D03*
X-2138680Y411480D03*
X-1999860Y310360D03*
X-2093840D03*
X-2045580D03*
X-1997320Y363700D03*
X-2043040D03*
X-2091300D03*
X-1998980Y411480D03*
X-2044700D03*
X-2092960D03*
X-1837520Y-6951370D03*
X-1789260D03*
X-1788160Y-6906260D03*
X-1836420D03*
X-1703260Y-5537200D03*
Y-5417200D03*
X-1665000Y-5340000D03*
X-1605280Y-5139480D03*
X-1570000Y-5050000D03*
X-1681480Y-5097200D03*
X-1630000Y-4590000D03*
X-1685000D03*
X-1705300Y-4777200D03*
X-1705840Y-4490720D03*
X-1645000Y-4470000D03*
X-1570000D03*
X-1455000Y-4485000D03*
X-1517800Y-4537200D03*
X-1585000Y-4070000D03*
X-1685000Y-3950000D03*
X-1841500Y-3362960D03*
X-1820000Y-2720000D03*
X-1790000Y-2535000D03*
X-1859890Y-2168550D03*
X-1760000Y-1660000D03*
X-1651000Y-1659000D03*
X-1570000Y-1660000D03*
X-1457960Y-182880D03*
X-1796960Y225980D03*
Y175180D03*
X-1649640Y225980D03*
Y175180D03*
X-1699260Y226060D03*
X-1747670Y226770D03*
X-1699260Y175260D03*
X-1747520D03*
X-1663700Y-140970D03*
X-1695450Y473710D03*
X-1440000Y-4580000D03*
X-1157840Y-3517500D03*
Y-3644500D03*
Y-3362160D03*
X-1158240Y-3263500D03*
X-1235240Y-3225000D03*
X-1238580Y-3075000D03*
X-1320000Y-1740000D03*
X-1409700Y-1315720D03*
X-1026160Y-1117600D03*
X-1409700Y-182880D03*
X-1090930Y-257810D03*
X-1170940Y-208280D03*
X-1224280Y-157480D03*
X-1170940D03*
X-1437640Y-139700D03*
X-1389380D03*
X-1036320Y170180D03*
X-800000Y-3800000D03*
X-949960Y-3840480D03*
X-657860Y-1394460D03*
X-637540Y-1026160D03*
X-650240Y-391160D03*
X-967740Y259080D03*
X-868680Y294640D03*
X-208280Y-5910580D03*
X-556260Y-1856740D03*
X270000Y-4930000D03*
G54D20*
X-360680Y-6416040D03*
G54D11*
X-8693400Y272840D03*
X-8607800Y273300D03*
X-8693400Y359200D03*
X-8607800Y359660D03*
X-8691880Y444500D03*
X-8606280Y444960D03*
X-8605520Y528320D03*
X-8694420D03*
X-8614820Y780800D03*
Y860800D03*
Y940800D03*
X-8694820Y780800D03*
Y940800D03*
Y860800D03*
X-8065100Y-6810400D03*
X-8063740Y-6726840D03*
X-8153400Y-6809740D03*
X-8152040Y-6726180D03*
X-8063740Y-6646840D03*
X-8152040Y-6646180D03*
X-8073480Y-6314230D03*
X-8162200Y-6313880D03*
X-8073480Y-6229230D03*
Y-6149230D03*
X-8162200Y-6148880D03*
Y-6228880D03*
X-8234680Y-4099560D03*
X-8028940Y228600D03*
X-8028640Y407680D03*
X-8027360Y316240D03*
X-7615340Y-360280D03*
X-7948600Y227680D03*
X-7868600D03*
X-7948600Y407680D03*
X-7868600D03*
X-7948600Y317680D03*
X-7868600D03*
X-7597410Y783270D03*
Y869630D03*
X-7597140Y952500D03*
X-7195140Y-5732580D03*
Y-5812580D03*
X-7310120Y-5194300D03*
X-7223760D03*
X-7297430Y-173560D03*
X-7213610D03*
X-7515340Y-360280D03*
X-7299900Y-90120D03*
X-7299960Y-7620D03*
X-7216080Y-90120D03*
X-7216140Y-7620D03*
X-7343410Y783270D03*
X-7427230D03*
X-7513590D03*
X-7343410Y869630D03*
X-7427230D03*
X-7513590D03*
X-7513320Y952500D03*
X-7426960D03*
X-7343140D03*
X-6782100Y-5712160D03*
X-7115140Y-5732580D03*
Y-5812580D03*
Y-5572580D03*
Y-5652580D03*
X-7132320Y-175260D03*
X-7132260Y-90120D03*
X-7132320Y-7620D03*
X-6502100Y-5689600D03*
X-6276340Y-5257800D03*
X-6527800Y-5076500D03*
X-6410020Y-4594900D03*
X-6365240Y-3820160D03*
X-6489700Y-3825770D03*
X-5859700Y-5900500D03*
X-6096000Y-4701540D03*
X-6220460Y-4960620D03*
X-6035040Y-3827780D03*
X-6129020D03*
X-6225540Y-3835400D03*
X-6160000Y-2138180D03*
X-5739380Y-2217420D03*
Y-2131060D03*
X-5135880Y-2420000D03*
Y-2540000D03*
X-5133340Y-2156460D03*
Y-2250440D03*
X-5021580Y-2161540D03*
X-5135470Y-797450D03*
X-5051650D03*
X-4965290D03*
X-5135470Y-713630D03*
X-5051650D03*
X-4965290D03*
X-4965700Y-627380D03*
X-5052060D03*
X-5135880D03*
X-4803140Y-5420360D03*
X-4914900Y-5702300D03*
X-4564900Y-5003800D03*
X-4720000Y-2165940D03*
X-4878930Y-797450D03*
Y-713630D03*
X-4879340Y-627380D03*
X-4584700Y193040D03*
X-4426350Y-2137810D03*
X-4106800Y-1719200D03*
X-4493260Y193040D03*
X-4401720D03*
X-4046220Y-6593840D03*
Y-6718560D03*
X-3706800Y-5077460D03*
X-4064000Y-5156200D03*
X-3760400Y-2043500D03*
X-3867680Y-471720D03*
X-3787680D03*
X-3707680D03*
X-3867680Y-551720D03*
X-3787680D03*
X-3707680D03*
X-3345200Y-4666000D03*
X-3317240Y-2700020D03*
X-3477260Y-1348740D03*
X-3335150Y593180D03*
X-3429130D03*
X-3520570D03*
X-3335150Y684620D03*
X-3429130D03*
X-3520570D03*
X-3393440Y1122680D03*
Y1031240D03*
X-3307080Y1122680D03*
Y1031240D03*
X-3337560Y772160D03*
X-3431540D03*
X-3522980D03*
X-2829440Y-6163200D03*
X-2829180Y-6262260D03*
X-2936120Y-6163200D03*
X-2935860Y-6262260D03*
X-2934760Y-5807500D03*
X-3097860Y-5395900D03*
X-2870200Y-4480560D03*
X-2971800Y-3482340D03*
X-3052100Y-2386460D03*
X-2903220Y-2346960D03*
X-2790000Y-2350000D03*
Y-2260000D03*
X-2686240Y-7264010D03*
X-2538930Y-7265420D03*
X-2411930D03*
X-2685040Y-7018780D03*
Y-6593840D03*
X-2684780Y-6692900D03*
X-2370000Y-5480000D03*
X-2560000Y-5490000D03*
X-2475000Y-5655000D03*
X-2730500Y-5692140D03*
X-2480000Y-5090000D03*
X-2519680Y-4569460D03*
X-2606040Y-4572000D03*
X-2527460Y-4477300D03*
X-2607460D03*
X-2628900Y-3685540D03*
X-2700020Y-3482340D03*
X-2520000Y-3149600D03*
X-2700000Y-2380000D03*
Y-2290000D03*
X-2722880Y-1808480D03*
X-2265000Y-5650000D03*
X-2270000Y-4360000D03*
X-2171700Y-195580D03*
X-1701800Y-3274060D03*
X-1536700D03*
X-1620000Y-3150000D03*
X-1704340Y-3022600D03*
X-1531620Y-3030220D03*
X-1446040Y-2472980D03*
X-1808070Y-825850D03*
X-1709010D03*
X-1607410D03*
X-1503270D03*
X-1502000Y-919520D03*
X-1606140D03*
X-1707740D03*
X-1806800D03*
X-1809750Y-731210D03*
X-1710690D03*
X-1609090D03*
X-1504950D03*
X-1503680Y-632460D03*
X-1607820D03*
X-1709420D03*
X-1808480D03*
X-1155700Y-6413500D03*
X-1155810Y-6553280D03*
X-1155700Y-6273800D03*
X-1016000D03*
X-1158240Y-2748280D03*
Y-2621280D03*
X-1160780Y-2506980D03*
X-1313960Y-2472980D03*
X-1051560Y-1315720D03*
X-1046480Y-764910D03*
X-1045210Y-858580D03*
X-876300Y-6273800D03*
X-645800Y-5657690D03*
X-620000Y-4560000D03*
X-700000D03*
Y-4480000D03*
X-620000D03*
X-586150Y-3352350D03*
X-589280Y-3263500D03*
X-581660Y-3497580D03*
X-590000Y-2885000D03*
X-775000Y-2480000D03*
X-590000D03*
X-248920Y-5227320D03*
X-540000Y-4560000D03*
X-244390Y-4729480D03*
X-540000Y-4480000D03*
X-328260Y-3347560D03*
X-408940D03*
X-525000Y-2205000D03*
X-95000Y-6100000D03*
X223520Y-5077460D03*
X43180Y-4973320D03*
X119380Y-5080000D03*
X17780D03*
X-88360Y-5081270D03*
X-25400Y-5354050D03*
X96520Y-3462020D03*
Y-3597980D03*
G54D21*
X-247000Y-3173000D03*
Y-2919000D03*
Y-2411000D03*
Y-2665000D03*
Y-1903000D03*
Y-2157000D03*
Y-1395000D03*
Y-1649000D03*
Y-1141000D03*
Y-887000D03*
X7000Y-3173000D03*
Y-2919000D03*
Y-2411000D03*
Y-2665000D03*
Y-1903000D03*
Y-2157000D03*
Y-1395000D03*
Y-1649000D03*
Y-1141000D03*
Y-887000D03*
G54D12*
X-8140700Y-2484100D03*
Y-845800D03*
X-7124700Y-2484100D03*
Y-845800D03*
G54D22*
G01X-9169000Y-7603000D02*
X431000D01*
Y1397000D01*
X-9169000D01*
Y-7603000D01*
G54D13*
G01X-5610860Y-5105400D02*
Y-5303520D01*
X-5367020Y-5547360D01*
Y-5646420D01*
G01X-3230880Y-2397760D02*
X-2797830Y-2830810D01*
G01X-3261360Y-2397760D02*
Y-2367280D01*
G01D02*
Y-2148840D01*
G01Y-2367280D02*
X-3230880Y-2397760D01*
G01X-3284220Y-2125980D02*
Y-2374900D01*
X-3261360Y-2397760D01*
G01X-2832100Y-2880360D02*
X-3322320Y-2390140D01*
Y-2080260D01*
X-3100000Y-1857940D01*
Y-1730000D01*
G01X-3230880Y-2397760D02*
X-3261360D01*
G01D02*
X-2832100Y-2827020D01*
Y-2880360D01*
G01X-3284220Y-2125980D02*
X-3261360Y-2148840D01*
G01X-3284220Y-2125980D02*
X-3261360Y-2103120D01*
G01D02*
X-3081750Y-1923510D01*
G01X-3261360Y-2148840D02*
Y-2103120D01*
G01X-3284220Y-2125980D02*
Y-2095500D01*
X-3081750Y-1893030D01*
G01X-1390000Y-3930000D02*
X-1604660D01*
X-2080250Y-3454410D01*
X-2367270D01*
X-2552700Y-3268980D01*
X-2659380D01*
X-2832100Y-3096260D01*
Y-2880360D01*
G01X-2797830Y-2830810D02*
X-2773680Y-2854960D01*
Y-3063240D01*
G01Y-3103880D02*
X-2649220Y-3228340D01*
X-2608580D01*
G01X-2797830Y-2830810D02*
Y-3079730D01*
X-2773680Y-3103880D01*
G01Y-3063240D02*
Y-3103880D01*
G01Y-3063240D02*
X-2608580Y-3228340D01*
G01X-3081750Y-1893030D02*
Y-1923510D01*
G01X-3050000Y-1861280D02*
X-3081750Y-1893030D01*
G01Y-1923510D02*
X-3050000Y-1891760D01*
Y-1861280D01*
G01X-2692400Y-3002280D02*
X-2613660Y-2923540D01*
Y-2105660D01*
X-2801620Y-1917700D01*
Y-1453380D01*
X-2900000Y-1355000D01*
G01X-3100000Y-1730000D02*
X-3081750Y-1748250D01*
G01X-3050000Y-1313270D02*
Y-1500000D01*
G01X-3100000Y-1350000D02*
Y-1730000D01*
G01X-3060000Y-1510000D02*
Y-1353270D01*
G01X-3081750Y-1748250D02*
Y-1531750D01*
X-3060000Y-1510000D01*
G01X-3050000Y-1500000D02*
X-3060000Y-1510000D01*
G01X-3050000Y-1500000D02*
Y-1861280D01*
G01X-3081750Y-1748250D02*
Y-1893030D01*
G01X-3060000Y-1353270D02*
Y-1323270D01*
X-3050000Y-1313270D01*
G01X-3100000D02*
X-3060000Y-1353270D01*
G01X-3100000Y-1350000D02*
Y-1313270D01*
G01Y-1350000D02*
X-3063270Y-1313270D01*
G01D02*
X-3050000D01*
G01X-3063270D02*
X-3100000D01*
G01X-2608580Y-3228340D02*
X-2537460D01*
X-2354580Y-3411220D01*
X-2057400D01*
X-1588620Y-3880000D01*
X-1390000D01*
G01X-620000Y-4010000D02*
Y-3703080D01*
X-1163320Y-3159760D01*
X-1259840D01*
X-1353820Y-3065780D01*
Y-2674620D01*
X-1859890Y-2168550D01*
G01X-970000Y-5250000D02*
X-1065010Y-5154990D01*
Y-4890000D01*
G01X-1010000Y-5160000D02*
Y-4890000D01*
G01Y-5160000D02*
X-970000Y-5200000D01*
G01X-1018680Y-4843670D02*
Y-5151320D01*
X-1010000Y-5160000D01*
G01X-620000Y-4060000D02*
X-795020Y-4235020D01*
Y-4681220D01*
X-1003800Y-4890000D01*
X-1010000D01*
G01X-620000Y-4010000D02*
X-840740Y-4230740D01*
Y-4665730D01*
X-1018680Y-4843670D01*
G01D02*
X-1065010Y-4890000D01*
G01X-1390000Y-3880000D02*
Y-3930000D01*
G01X-970000Y-5200000D02*
Y-5250000D01*
G01X-620000Y-4010000D02*
Y-4060000D01*
X-8224990Y-1795310D03*
X-7438900Y-6066460D03*
X-7294120D03*
Y-5921680D03*
X-7438900D03*
X-7366140Y-5994980D03*
X-7162800Y-3911600D03*
X-6903720Y-6217920D03*
X-6846800Y-6273740D03*
X-6847840Y-6217920D03*
X-6779600Y-4787900D03*
X-6766560Y-4617720D03*
X-7127240Y-4815840D03*
X-6789420Y-4724400D03*
X-6730000Y-4426500D03*
Y-4101500D03*
X-6824980Y-4102100D03*
X-6730000Y-4356100D03*
X-6731000Y-4491500D03*
X-6779260Y-4264660D03*
X-6822440Y-3911600D03*
X-6971110Y-3796500D03*
X-7072710Y-3794760D03*
X-6820000Y-3330000D03*
X-6819140Y-3540000D03*
X-6839020Y-3034100D03*
X-6936740Y-3030220D03*
X-6926580Y-2784100D03*
X-6839020Y-2834100D03*
X-7010400Y-2786380D03*
X-6839020Y-2934100D03*
X-6890000Y-2584100D03*
X-6926580Y-2684100D03*
X-6850380Y-2387600D03*
X-6839020Y-2634100D03*
Y-2734100D03*
X-6808920Y-2534100D03*
X-6930130Y-2229870D03*
X-6839020Y-1995800D03*
X-6926580Y-1745800D03*
X-6839020Y-1495800D03*
X-6930150Y-1682400D03*
X-6925000Y-1510000D03*
X-6839020Y-1695800D03*
Y-1895800D03*
Y-1395800D03*
X-6926580Y-1445800D03*
Y-1345800D03*
X-6837680Y-1295400D03*
X-6840220Y-1206500D03*
X-6820000Y-920000D03*
X-6984560Y357400D03*
X-6291580Y-5573700D03*
X-6362700Y-5359400D03*
X-6604000Y-3771900D03*
X-6540600Y-3384100D03*
Y-3284100D03*
X-6454140Y-3334100D03*
X-6466840Y-3535680D03*
X-6454140Y-3234100D03*
Y-3434100D03*
Y-3134100D03*
X-6540600Y-3184100D03*
Y-3084100D03*
X-6311900Y-3073400D03*
X-6390640Y-2446020D03*
X-6510000Y-1595800D03*
X-6466840Y-1045800D03*
X-6378060Y-1095800D03*
X-6466840Y-1145800D03*
X-6378060Y-1195800D03*
X-6525000Y-1300000D03*
X-6466840Y-945800D03*
X-6518600Y-745800D03*
X-6378060Y-995800D03*
X-6594560Y-162600D03*
X-6344560Y-217600D03*
X-6594560Y-327600D03*
Y-247600D03*
X-6519560Y-117600D03*
X-6441440Y117960D03*
Y-26820D03*
X-6296660D03*
Y117960D03*
X-6369960Y45200D03*
X-6102100Y-5264400D03*
X-6180600Y-5287500D03*
X-5839200Y-4556500D03*
X-5836920Y-4426500D03*
X-6134100Y-3073400D03*
X-6037580Y-2946400D03*
X-6219560Y-217600D03*
Y-137600D03*
X-5412730Y-5905510D03*
X-5803900Y-5636260D03*
X-5519420Y-5524500D03*
X-5735910Y-5638800D03*
X-5763260Y-5808980D03*
X-5729870Y-5501640D03*
X-5760720Y-5298440D03*
X-5811520Y-5224700D03*
X-5610860Y-5105400D03*
X-5825580Y-4296500D03*
X-5745000Y-2385000D03*
Y-2470000D03*
X-5740000Y-2555000D03*
X-5440000Y-2620000D03*
X-5511900Y-2158010D03*
X-5664560Y407400D03*
X-5220500Y-5996430D03*
X-5114810Y-6103620D03*
X-5367020Y-5422900D03*
X-5260340Y-5445760D03*
X-5265420Y-5699760D03*
X-5176520Y-5811520D03*
X-5367020Y-5646420D03*
X-4973320Y-5346700D03*
X-5315120Y-5129700D03*
X-4632960Y-5478780D03*
X-4176270Y-2628390D03*
X-4152030Y-1990490D03*
X-4023360Y-6870700D03*
X-3667760Y-6586220D03*
X-3900930Y-5514340D03*
X-3949200Y-5134250D03*
X-3886200Y-5126230D03*
X-4055860Y-5304790D03*
X-3740000Y-2658110D03*
X-3659600Y-2145000D03*
X-3778410Y-1568290D03*
X-3984080Y-1443280D03*
Y-1393280D03*
X-3650460Y-1094820D03*
X-3847680Y-1131720D03*
X-3747680D03*
X-3650460Y-989820D03*
Y-884820D03*
X-3977680Y-361720D03*
X-3285620Y-6837680D03*
X-3298660Y-6421590D03*
X-3203740D03*
X-3451860Y-6223000D03*
X-3253080Y-5775820D03*
X-3346210Y-5784030D03*
X-3413300Y-5565600D03*
X-3454400Y-5753100D03*
X-3467100Y-5438140D03*
X-3352800Y-5067300D03*
X-3445510Y-5068570D03*
X-3362960Y-4838700D03*
X-3334020Y-4446000D03*
X-3479800Y-2628900D03*
X-3594100D03*
X-3365500D03*
X-3378200Y-1990490D03*
X-3580000Y-2150000D03*
X-3276420Y-1770200D03*
X-3380000Y-1896510D03*
Y-1840000D03*
X-3287460Y-1618680D03*
X-3312680Y-1126720D03*
X-3222680Y-1036720D03*
X-3324860Y-596900D03*
X-3393080Y-667120D03*
X-3560380Y-872120D03*
X-3225060Y-954660D03*
X-3212360Y-882360D03*
X-3464560Y-594360D03*
Y-739140D03*
X-3319780D03*
X-3322670Y-935070D03*
X-3322680Y-301720D03*
Y-166720D03*
X-3232680D03*
Y-301720D03*
X-3387680Y-406720D03*
Y-351720D03*
X-3360680Y-1720D03*
X-3487680D03*
X-3424180D03*
X-3025000Y-6925000D03*
X-3154680Y-5989170D03*
X-2973070Y-5990590D03*
X-2880000Y-5430000D03*
X-3101850Y-5613910D03*
X-3065000Y-5181600D03*
X-3074770Y-4853100D03*
X-3030000Y-4775000D03*
X-2880000Y-3950000D03*
X-3185000Y-2150000D03*
X-3018540Y-2018510D03*
X-2882200Y-1710600D03*
X-3050000Y-1313270D03*
X-3100000D03*
X-2900000Y-1355000D03*
X-3162680Y-1121720D03*
X-2339340Y-6250940D03*
X-2720000Y-5806440D03*
X-2381180Y-3275400D03*
X-2692400Y-3002280D03*
X-2459360Y-2395400D03*
X-2373600Y-2749580D03*
X-2479040Y-1908550D03*
X-2453640Y-2011680D03*
X-2725000Y-1365000D03*
X-2637680Y-221720D03*
Y-171720D03*
Y-121720D03*
X-2144780Y-6250940D03*
X-2280000Y-4950000D03*
X-2209200Y-3591160D03*
X-2103130Y-3591450D03*
X-2209050Y-3644640D03*
X-2103050Y-3644950D03*
X-2133600Y-2542540D03*
X-1640000Y-4930000D03*
X-1470000Y-3560000D03*
X-1750000Y-3550000D03*
X-1745000Y-2755000D03*
X-1545000Y-2765000D03*
X-1495000D03*
X-1445000D03*
X-1663700Y-2722880D03*
X-1875000Y-1973550D03*
X-1424940Y-5031740D03*
X-1010000Y-4890000D03*
X-1065010D03*
X-1386990Y-4805000D03*
X-1390000Y-3930000D03*
Y-3880000D03*
X-1230000Y-3770000D03*
X-1008380Y-2252980D03*
Y-2189480D03*
X-1021080Y-1678940D03*
X-1082040D03*
X-1145540D03*
X-1020960Y1034180D03*
X-1021080Y1099820D03*
X-570230Y-5888990D03*
X-642620Y-5438140D03*
X-640000Y-5560000D03*
X-571500Y-5435600D03*
X-640000Y-5500000D03*
X-970000Y-5250000D03*
Y-5200000D03*
X-715010Y-5325110D03*
X-950000Y-4490000D03*
X-1000000D03*
X-620000Y-4060000D03*
Y-4010000D03*
X-760000Y-3900000D03*
X-960000Y-3740000D03*
X-873760Y-2252980D03*
X-942340D03*
X-873760Y-2189480D03*
X-942340D03*
X-688340Y-1640840D03*
X-629920Y-1582420D03*
Y-1640840D03*
X-688340Y-1584960D03*
X-610130Y584730D03*
X-822840Y1034180D03*
X-888880D03*
X-954920D03*
X-822960Y1099820D03*
X-889000D03*
X-955040D03*
X-555000Y-6080000D03*
X-497840Y-5433060D03*
X-510540Y-3741420D03*
X-546100Y523240D03*
X-490220Y584200D03*
X-546100D03*
X-88900Y-6414260D03*
X228600Y-6421120D03*
X235150Y-6060970D03*
X27940Y-5866200D03*
X95000D03*
X110000Y-5570000D03*
X-50400Y-5579600D03*
X-400D03*
X49600D03*
X95000Y-5792400D03*
X254000Y-5694680D03*
X251460Y-5509260D03*
Y-5245100D03*
X31460Y-5409260D03*
Y-5299260D03*
X176870Y-5209540D03*
X206400Y-2519020D03*
Y-2265020D03*
Y-2011020D03*
Y-1503020D03*
Y-1757020D03*
Y-1249020D03*
X261450Y-281290D03*
Y-222870D03*
X200490Y-281290D03*
Y-222870D03*
G54D23*
G01X-3253080Y-5775820D02*
X-3289300Y-5739600D01*
Y-5509260D01*
X-3487070Y-5311490D01*
Y-3922110D01*
X-3522980Y-3886200D01*
X-3741420D01*
X-3786700Y-3840920D01*
Y-2912010D01*
X-3811680Y-2887030D01*
X-3837940D01*
X-3846610Y-2878360D01*
Y-2848110D01*
G01X-3346210Y-5784030D02*
Y-5774030D01*
X-3311460Y-5739280D01*
Y-5518440D01*
X-3509230Y-5320670D01*
Y-3931290D01*
X-3532160Y-3908360D01*
X-3750600D01*
X-3808860Y-3850100D01*
Y-2921190D01*
X-3820860Y-2909190D01*
X-3832860D01*
X-3846610Y-2922940D01*
Y-2948110D01*
G54D14*
X-6670040Y-5735320D03*
X-2990000Y-2240000D03*
X-1440000Y-5790000D03*
G54D24*
G01X-8011160Y-4699000D02*
X-8346440D01*
G01X-5460000Y-6330000D02*
X-5410000D01*
X-5320000Y-6420000D01*
X-4680000D01*
X-4245000Y-5985000D01*
X-3935000D01*
G01X-3007360Y81280D02*
Y83820D01*
G01X-1982880Y-4097200D02*
Y-4092460D01*
X-1946920Y-4056500D01*
X-1942180D01*
X-1942060Y-4056380D01*
X-1598620D01*
X-1585000Y-4070000D01*
G01X-1238580Y-3075000D02*
Y-1821420D01*
X-1320000Y-1740000D01*
G54D15*
X-6124580Y-5007930D03*
G54D25*
G01X-5760720Y-5298440D02*
X-5722620Y-5260340D01*
Y-5113020D01*
X-5631180Y-5021580D01*
X-4759960D01*
X-4536940Y-4798560D01*
X-4097080D01*
X-4046610Y-4748090D01*
G01X-4646590Y-3348090D02*
X-4596120Y-3297620D01*
Y-3197620D01*
X-4546610Y-3148110D01*
G01X-1947750Y-2103550D02*
Y-2278810D01*
X-1607820Y-2618740D01*
Y-2819400D01*
X-1457960Y-2969260D01*
Y-3423920D01*
X-1041400Y-3840480D01*
X-949960D01*
G54D16*
X-3585630Y-6918210D03*
X-3145630D03*
X-350130Y74640D03*
Y514640D03*
G54D26*
G01X-8725000Y-1346200D02*
X-8679180Y-1392020D01*
Y-2437450D01*
X-8776580Y-2534850D01*
Y-2686700D01*
X-8479180Y-2984100D01*
X-8476240D01*
G01X-8471860Y-2384100D02*
X-8511540Y-2344420D01*
Y-825500D01*
X-8441940Y-755900D01*
X-8362700D01*
X-8335000Y-783600D01*
Y-845820D01*
G01X-8439560Y-2540000D02*
X-8597900Y-2381660D01*
Y-995680D01*
X-8724900Y-868680D01*
G01Y-924560D02*
X-8636000Y-1013460D01*
Y-2446000D01*
X-8740000Y-2550000D01*
G01X-8350000Y-2265000D02*
Y-2386080D01*
X-8394700Y-2430780D01*
X-8481060D01*
X-8554720Y-2357120D01*
Y-962660D01*
X-8719820Y-797560D01*
G01X-8170160Y-2990160D02*
Y-2992030D01*
G01X-8225000Y-1295000D02*
X-8150000Y-1370000D01*
Y-1850000D01*
X-8234680Y-1934680D01*
Y-2393070D01*
X-8350000Y-2508390D01*
Y-2620000D01*
X-8410000Y-2680000D01*
Y-2844740D01*
X-8364740Y-2890000D01*
X-8194680D01*
G01X-8255000Y-1195800D02*
X-8120000Y-1330800D01*
Y-2310000D01*
X-8325000Y-2515000D01*
Y-2763200D01*
X-8254100Y-2834100D01*
G01X-8273580Y-2375000D02*
Y-1780000D01*
X-8300000Y-1753580D01*
Y-1295800D01*
G01X-8416080Y-2387600D02*
X-8382000Y-2353520D01*
Y-2303000D01*
X-8445900Y-2239100D01*
Y-1355000D01*
X-8405000Y-1314100D01*
Y-900000D01*
G01X-8085000Y-2684100D02*
X-8055720D01*
X-7881620Y-2510000D01*
Y-1684020D01*
X-7932420Y-1633220D01*
Y-1214120D01*
X-8096540Y-1050000D01*
X-8210000D01*
X-8295000Y-965000D01*
G01X-8303260Y-1054100D02*
X-8085000Y-1272360D01*
Y-2310000D01*
X-8010000Y-2385000D01*
Y-2535000D01*
X-8080000Y-2605000D01*
X-8155690D01*
X-8285000Y-2734310D01*
G01X-8476100Y-2621280D02*
X-8461280D01*
X-8384700Y-2544700D01*
Y-2511480D01*
X-8313420Y-2440200D01*
Y-2156580D01*
X-8355000Y-2115000D01*
Y-965200D01*
G01X-8145000Y-1145800D02*
X-8059690Y-1231110D01*
Y-2270310D01*
X-7975000Y-2355000D01*
Y-2550000D01*
X-8065000Y-2640000D01*
X-8099680D01*
X-8194680Y-2735000D01*
G01X-8384540Y-792480D02*
X-8480000Y-887940D01*
Y-2276580D01*
X-8422480Y-2334100D01*
G01X-8011160Y-4699000D02*
X-7967980Y-4655820D01*
Y-3347720D01*
X-7515260Y-2895000D01*
X-7155000D01*
X-6710000Y-3340000D01*
Y-3353480D01*
X-6486140Y-3577340D01*
X-6081780D01*
X-5892090Y-3387650D01*
X-4434130D01*
X-4401820Y-3355340D01*
Y-3035300D01*
X-4361180Y-2994660D01*
X-4293160D01*
X-4246610Y-2948110D01*
G01X-7753420Y-2254850D02*
X-7755000Y-2253270D01*
G01X-7447280Y-4693920D02*
Y-3045460D01*
X-7391820Y-2990000D01*
X-7230000D01*
X-6845000Y-3375000D01*
X-6735000D01*
X-6505000Y-3605000D01*
X-6043400D01*
X-5848400Y-3410000D01*
X-4338320D01*
X-4295140Y-3366820D01*
Y-3096640D01*
X-4246610Y-3048110D01*
G01X-4146610Y-4648090D02*
X-4183190Y-4684670D01*
X-4472940D01*
X-4551680Y-4605930D01*
Y-3576320D01*
X-4627890Y-3500110D01*
X-4638040Y-3500120D01*
X-5702300D01*
X-5745480Y-3543300D01*
X-5902960D01*
X-6002020Y-3642360D01*
X-6507640D01*
X-6745000Y-3405000D01*
X-6885000D01*
X-7250000Y-3040000D01*
G01X-6839020Y-1395800D02*
X-6883400Y-1440180D01*
Y-1492680D01*
X-6883340Y-1492740D01*
Y-1527260D01*
X-6883400Y-1527320D01*
Y-2308400D01*
X-6911340Y-2336340D01*
Y-2486340D01*
X-7065000Y-2640000D01*
Y-2808120D01*
X-6839020Y-3034100D01*
G01X-6936740Y-3030220D02*
X-6655000Y-3311960D01*
Y-3329740D01*
X-6504740Y-3480000D01*
X-6261300D01*
X-6197600Y-3416300D01*
X-6126480D01*
X-5895340Y-3185160D01*
X-4810760D01*
X-4787900Y-3162300D01*
Y-3089420D01*
X-4746590Y-3048110D01*
G01X-6936740Y-3030220D02*
X-7104380Y-2862580D01*
Y-2619380D01*
X-6980000Y-2495000D01*
Y-1655000D01*
X-6970000Y-1645000D01*
Y-1389220D01*
X-6926580Y-1345800D01*
G01X-6839020Y-2834100D02*
X-6735540D01*
X-6476000Y-2574560D01*
Y-2173940D01*
X-6504940Y-2145000D01*
Y-1834940D01*
X-6468340Y-1798340D01*
Y-1286080D01*
X-6378060Y-1195800D01*
G01X-6890000Y-2584100D02*
X-6792880D01*
X-6720000Y-2511220D01*
Y-1116760D01*
X-6549040Y-945800D01*
X-6466840D01*
G01Y-1045800D02*
X-6507480D01*
X-6640000Y-1178320D01*
Y-2548060D01*
X-6776040Y-2684100D01*
X-6926580D01*
G01X-6378060Y-995800D02*
X-6527920D01*
X-6680000Y-1147880D01*
Y-2529640D01*
X-6784460Y-2634100D01*
X-6839020D01*
G01Y-2734100D02*
X-6767620D01*
X-6605000Y-2571480D01*
Y-1217660D01*
X-6483140Y-1095800D01*
X-6378060D01*
G01X-6466840Y-1145800D02*
X-6570000Y-1248960D01*
Y-2602520D01*
X-6751580Y-2784100D01*
X-6926580D01*
G01X-6808920Y-2534100D02*
X-6756400Y-2481580D01*
Y-983600D01*
X-6820000Y-920000D01*
G01X-7010400Y-2786380D02*
Y-2645400D01*
X-6794500Y-2429500D01*
Y-1338580D01*
X-6837680Y-1295400D01*
G01X-6540600Y-3284100D02*
X-6179700D01*
X-5887720Y-2992120D01*
X-4890600D01*
X-4846590Y-2948110D01*
G01X-6454140Y-3334100D02*
X-6117940D01*
X-5869940Y-3086100D01*
X-5084580D01*
X-5046590Y-3048110D01*
G01X-5646590Y-3348110D02*
X-5918590D01*
X-6106160Y-3535680D01*
X-6466840D01*
G01X-5046590Y-2848110D02*
X-5085460Y-2809240D01*
X-6129280D01*
X-6454140Y-3134100D01*
G01X-6540600Y-3184100D02*
X-6348940D01*
X-6053330Y-2888490D01*
X-4886970D01*
X-4846590Y-2848110D01*
G01X-6540600Y-3084100D02*
X-6243390Y-2786890D01*
X-4885370D01*
X-4846590Y-2748110D01*
G01X-6454140Y-3234100D02*
X-6216060D01*
X-5892800Y-2910840D01*
X-5083860D01*
X-5046590Y-2948110D01*
G01X-6390640Y-2446020D02*
Y-1270000D01*
X-6314440Y-1193800D01*
Y-949960D01*
X-6518600Y-745800D01*
G01X-6035040Y-2717800D02*
X-6207760D01*
X-6438900Y-2486660D01*
Y-1856900D01*
X-6450000Y-1845800D01*
G01X-4594860Y-6720840D02*
X-4622530Y-6693170D01*
X-4980670D01*
X-5067300Y-6606540D01*
X-5572760D01*
X-6045200Y-6134100D01*
Y-4836160D01*
X-5717540Y-4508500D01*
X-4986180D01*
X-4946590Y-4548090D01*
G01X-2189480Y-7076440D02*
X-2255520Y-7142480D01*
X-3837940D01*
X-4478020Y-6502400D01*
X-5466080D01*
X-5969000Y-5999480D01*
Y-5816600D01*
X-5892800Y-5740400D01*
Y-5059680D01*
X-5732780Y-4899660D01*
X-4798160D01*
X-4746590Y-4848090D01*
G01X-4970780Y-6631940D02*
X-5021580Y-6581140D01*
X-5486400D01*
X-6012180Y-6055360D01*
Y-4886960D01*
X-5717540Y-4592320D01*
X-4890820D01*
X-4846590Y-4548090D01*
G01X-5455920Y-1559560D02*
Y-170180D01*
X-5461000Y-165100D01*
G01X-2641600Y-762000D02*
X-2669540Y-789940D01*
X-4246060D01*
X-4550000Y-1093880D01*
Y-2052320D01*
G01X-2487930Y-797560D02*
X-2515600Y-825230D01*
X-4185650D01*
X-4246610Y-886190D01*
Y-2948110D01*
G01X-2487930Y-876300D02*
X-2644140D01*
X-3039450Y-1271610D01*
X-3687150D01*
X-3997960Y-1582420D01*
Y-2522220D01*
X-4057900Y-2582160D01*
X-4063910D01*
X-4198620Y-2716870D01*
Y-3000120D01*
X-4246610Y-3048110D01*
G01X-3680460Y-6697980D02*
X-3502660Y-6520180D01*
Y-6007100D01*
X-3406140Y-5910580D01*
Y-5656580D01*
X-3644900Y-5417820D01*
Y-5031740D01*
X-3609340Y-4996180D01*
Y-4585360D01*
X-3646610Y-4548090D01*
G01Y-4348090D02*
X-3685540Y-4387020D01*
Y-4940300D01*
X-3764280Y-5019040D01*
Y-5394420D01*
X-3601720Y-5556980D01*
G01X-3570000Y-5660000D02*
X-3797300Y-5432700D01*
Y-4977270D01*
X-3708400Y-4888370D01*
Y-4586300D01*
X-3746610Y-4548090D01*
G01X-3886200Y-5126230D02*
Y-4387680D01*
X-3846610Y-4348090D01*
G01X-3546610D02*
X-3583940Y-4385420D01*
Y-5059680D01*
X-3601720Y-5077460D01*
G01X-3190000Y-5197080D02*
X-3030220Y-5356860D01*
G01X-3081190Y-3116680D02*
X-3119120Y-3154610D01*
Y-4310380D01*
X-2631440Y-4798060D01*
X-2278380D01*
X-2254860Y-4821580D01*
X-1957680D01*
X-1938020Y-4841240D01*
G01X-3040000Y-3002280D02*
X-3141980Y-3104260D01*
Y-4333240D01*
X-2625220Y-4850000D01*
X-2290000D01*
G01X-1440000Y-4580000D02*
X-1551380Y-4691380D01*
X-2230120D01*
X-2585720Y-4335780D01*
X-3004820D01*
G01X-3014980Y-3714070D02*
Y-3810000D01*
X-2985000Y-3839980D01*
Y-3917180D01*
X-3030000Y-3962180D01*
Y-4174020D01*
X-3080000Y-4224020D01*
Y-4315000D01*
X-3021120Y-4373880D01*
X-2707640D01*
X-2674620Y-4406900D01*
Y-4610100D01*
X-2636520Y-4648200D01*
Y-4721860D01*
X-2620270Y-4738110D01*
X-2586730D01*
X-2573020Y-4724400D01*
Y-4665980D01*
X-2555240Y-4648200D01*
X-2527300D01*
X-2509520Y-4665980D01*
Y-4734560D01*
X-2496820Y-4747260D01*
X-2466340D01*
X-2453640Y-4734560D01*
Y-4599430D01*
X-2438910Y-4584700D01*
X-2407920D01*
X-2395220Y-4597400D01*
Y-4709160D01*
X-2358390Y-4745990D01*
X-2274010D01*
X-2235000Y-4785000D01*
G01X-2990000Y-3996910D02*
X-2932210D01*
X-2913380Y-4015740D01*
Y-4127500D01*
X-2900680Y-4140200D01*
X-2880360D01*
X-2870200Y-4130040D01*
Y-4020820D01*
X-2857500Y-4008120D01*
X-2827020D01*
X-2813050Y-4022090D01*
Y-4171950D01*
X-2796540Y-4188460D01*
X-2623820D01*
X-2282190Y-4530090D01*
Y-4547870D01*
X-2183380Y-4646680D01*
X-1634950D01*
X-1590040Y-4601770D01*
Y-4490040D01*
X-1570000Y-4470000D01*
G01X-2981960Y-4163810D02*
X-2900440D01*
X-2815340Y-4248910D01*
Y-4280410D01*
X-2803150Y-4292600D01*
X-2778770D01*
X-2766580Y-4280410D01*
Y-4248910D01*
X-2754390Y-4236720D01*
X-2646680D01*
X-2214370Y-4669030D01*
X-1585470D01*
X-1455000Y-4538560D01*
Y-4485000D01*
G01X-3081020Y-3670300D02*
X-2837180D01*
X-2820000Y-3687480D01*
Y-3707890D01*
X-2834730Y-3722620D01*
X-2907870D01*
X-2917520Y-3732270D01*
Y-3884170D01*
X-2905330Y-3896360D01*
X-2880950D01*
X-2868760Y-3884170D01*
Y-3773410D01*
X-2856570Y-3761220D01*
X-2832190D01*
X-2820000Y-3773410D01*
Y-3908460D01*
X-2773680Y-3954780D01*
Y-4142740D01*
X-2761510Y-4154910D01*
X-2737590D01*
X-2725420Y-4142740D01*
Y-3992370D01*
X-2713230Y-3980180D01*
X-2689860D01*
X-2677160Y-3992880D01*
Y-4076170D01*
X-2664460Y-4088870D01*
X-2645230D01*
X-2590950Y-4034590D01*
X-2573730D01*
X-2558390Y-4049930D01*
Y-4068450D01*
X-2615830Y-4125890D01*
Y-4143110D01*
X-2286000Y-4472940D01*
X-2285000D01*
G01X-2196990Y-4571320D02*
Y-4272390D01*
X-2271800Y-4197580D01*
X-2289020D01*
X-2306280Y-4214840D01*
Y-4232060D01*
X-2273210Y-4265130D01*
Y-4282350D01*
X-2290470Y-4299610D01*
X-2307690D01*
X-2375240Y-4232060D01*
Y-4214840D01*
X-2323500Y-4163100D01*
Y-4145880D01*
X-2412130Y-4057250D01*
X-2429350D01*
X-2446610Y-4074510D01*
Y-4091730D01*
X-2412910Y-4125430D01*
Y-4142650D01*
X-2430170Y-4159910D01*
X-2447390D01*
X-2515570Y-4091730D01*
Y-4074510D01*
X-2463830Y-4022770D01*
Y-4005550D01*
X-2699870Y-3769510D01*
X-2719630D01*
X-2736890Y-3786770D01*
Y-3801450D01*
X-2623730Y-3914610D01*
Y-3931830D01*
X-2640990Y-3949090D01*
X-2658210D01*
X-2776220Y-3831080D01*
Y-3693160D01*
X-2837180Y-3632200D01*
X-3042920D01*
G01X-3025000Y-3350000D02*
X-2611380D01*
X-2322830Y-3638550D01*
X-2274570D01*
X-2090430Y-3822690D01*
Y-4106130D01*
X-2037980Y-4158580D01*
X-1900060D01*
X-1727290Y-4331350D01*
Y-4348570D01*
X-1744550Y-4365830D01*
X-1761770D01*
X-1915300Y-4212300D01*
X-1935060D01*
X-1952320Y-4229560D01*
Y-4241810D01*
X-1705840Y-4488290D01*
Y-4490720D01*
G01X-3008020Y-3581400D02*
X-2583180D01*
X-2494280Y-3670300D01*
Y-3783990D01*
X-2506470Y-3796180D01*
X-2530850D01*
X-2543040Y-3783990D01*
Y-3740910D01*
X-2555230Y-3728720D01*
X-2579610D01*
X-2591800Y-3740910D01*
Y-3817510D01*
X-2148840Y-4260470D01*
Y-4602480D01*
X-2136140Y-4615180D01*
X-2105660D01*
X-2092960Y-4602480D01*
Y-4386070D01*
X-2078230Y-4371340D01*
X-2054860D01*
X-2039620Y-4386580D01*
Y-4605020D01*
X-2024380Y-4620260D01*
X-1996440D01*
X-1985000Y-4608820D01*
Y-4520000D01*
G01X-3060080Y-3447140D02*
X-3016300D01*
X-2993870Y-3424710D01*
X-2595090D01*
X-2329180Y-3690620D01*
X-2275840D01*
X-2136140Y-3830320D01*
Y-4124960D01*
X-1869440Y-4391660D01*
Y-4475480D01*
X-1851060Y-4493860D01*
X-1768440D01*
X-1752600Y-4509700D01*
Y-4529330D01*
X-1764790Y-4541520D01*
X-1892300D01*
X-1906550Y-4555770D01*
Y-4578070D01*
X-1894620Y-4590000D01*
X-1685000D01*
G01X-1940560Y-4610100D02*
X-1947200Y-4603460D01*
Y-4387560D01*
X-2176780Y-4157980D01*
Y-3850640D01*
X-2197100Y-3830320D01*
X-2280920D01*
X-2303780Y-3853180D01*
Y-3995420D01*
X-2316480Y-4008120D01*
X-2344420D01*
X-2357120Y-3995420D01*
Y-3721100D01*
X-2538220Y-3540000D01*
X-3038600D01*
X-3068320Y-3510280D01*
G54D17*
X-3570000Y-5860000D03*
Y-5660000D03*
G54D27*
G01X-7719060Y-3916680D02*
Y-4602480D01*
X-6939280Y-5382260D01*
Y-5740400D01*
X-5970270Y-6709410D01*
X-5083810D01*
G54D18*
X-830580Y-6116320D03*
G54D19*
Y-6715760D03*
M02*
