G04 ================== begin FILE IDENTIFICATION RECORD ==================*
G04 Layout Name:  STANDARD.brd*
G04 Film Name:    5-VCC*
G04 File Format:  Gerber RS274X*
G04 File Origin:  Cadence Allegro 16.6-P004*
G04 Origin Date:  Thu Sep 18 09:56:33 2014*
G04 *
G04 Layer:  VIA CLASS/5-VCC*
G04 Layer:  PIN/5-VCC*
G04 Layer:  ETCH/5-VCC*
G04 Layer:  BOARD GEOMETRY/OUTLINE*
G04 *
G04 Offset:    (0.0000 0.0000)*
G04 Mirror:    No*
G04 Mode:      Positive*
G04 Rotation:  0*
G04 FullContactRelief:  No*
G04 UndefLineWidth:     0.1000*
G04 ================== end FILE IDENTIFICATION RECORD ====================*
%FSLAX25Y25*MOMM*%
%IR0*IPPOS*OFA0.00000B0.00000*MIA0B0*SFA1.00000B1.00000*%
%ADD15C,.8*%
%ADD16C,.9*%
%ADD13C,.508*%
%ADD10C,.4064*%
%ADD11C,.762*%
%ADD17C,1.4*%
%ADD14C,1.016*%
%ADD12C,1.27*%
%ADD21C,1.524*%
%ADD20O,1.778X3.81*%
%ADD19O,3.81X1.778*%
%ADD18O,4.572X1.778*%
%ADD22C,.1*%
%ADD28C,.9084*%
%ADD24C,.8068*%
%ADD32C,2.0044*%
%ADD27C,2.1124*%
%ADD25C,1.1624*%
%ADD29C,1.7424*%
%ADD30C,1.8804*%
%ADD31C,1.4964*%
%ADD26O,2.2584X4.2904*%
%ADD23O,4.2904X2.2584*%
G75*
%LPD*%
G75*
G36*
G01X-9029700Y-7424420D02*
Y1191260D01*
X-3093720D01*
X-3053100Y1150640D01*
Y861610D01*
X-3106970Y807740D01*
X-3291600D01*
G03X-3377560Y814330I-45960J-35578D01*
G02X-3391540I-6990J7368D01*
G03X-3470460Y815330I-40001J-42168D01*
G02X-3484060I-6800J7543D01*
G03X-3568940Y807740I-38919J-43168D01*
G01X-7290690D01*
G03X-7300970Y822980I-52717J-24473D01*
G02Y829920I3709J3470D01*
G03X-7302520Y910930I-42440J39708D01*
G03X-7381680Y996000I-40629J41559D01*
G02X-7388420I-3370J3805D01*
G03X-7466670Y994940I-38543J-43501D01*
G02X-7473610I-3470J3709D01*
G03X-7551860Y996000I-39707J-42441D01*
G02X-7558600I-3370J3805D01*
G03X-7638030Y911200I-38540J-43500D01*
G03X-7639850Y829920I40620J-41570D01*
G02Y822980I-3709J-3470D01*
G03X-7650130Y807740I42437J-39713D01*
G01X-8458750D01*
X-8458770Y807720D01*
X-8486140D01*
X-8582660Y711200D01*
Y595410D01*
G02X-8594710Y585430I-10158J1D01*
G03X-8646400Y569640I-10811J-57109D01*
G02X-8653540I-3570J3607D01*
G03X-8736720Y488460I-40879J-41319D01*
G02X-8736520Y481720I-3697J-3483D01*
G03X-8735460Y406040I44639J-37222D01*
G02X-8735580Y399190I-3807J-3359D01*
G03X-8735840Y319490I42179J-39988D01*
G02Y312550I-3709J-3470D01*
G03X-8653810Y230290I42438J-39711D01*
G02X-8646930Y230330I3462J-3719D01*
G03X-8595050Y216600I39129J42972D01*
G02X-8582660Y206680I2229J-9914D01*
G01Y-6918960D01*
X-8567440Y-6934180D01*
Y-6944910D01*
X-8395250Y-7117100D01*
X-8384520D01*
X-8382000Y-7119620D01*
X-6253950D01*
G02X-6245170Y-7134890I1J-10159D01*
G03X-6175430I34870J-20290D01*
G02X-6166650Y-7119620I8779J5111D01*
G01X-5222350D01*
G02X-5214660Y-7136420I1J-10159D01*
G03X-5214450Y-7189420I30520J-26379D01*
G03X-5216950Y-7245350I27769J-29262D01*
G03Y-7298690I30270J-26670D01*
G03X-5156410I30270J-26670D01*
G03Y-7245350I-30270J26670D01*
G03X-5156370Y-7192060I-30269J26668D01*
G03X-5153620Y-7136420I-27770J29260D01*
G02X-5145930Y-7119620I7689J6641D01*
G01X-1587500D01*
X-1584980Y-7117100D01*
X-1579330D01*
X-1256880Y-6794650D01*
Y-6181940D01*
X-1087690Y-6012750D01*
X-675770Y-6012050D01*
X-599720Y-6088100D01*
X-599400Y-6089570D01*
G03X-564570Y-6124400I44400J9570D01*
G01X-563100Y-6124720D01*
X-541120Y-6146700D01*
X-543120Y-7424420D01*
X-7698440D01*
G02X-7705870Y-7407340I4J10158D01*
G03X-7702160Y-7356990I-29529J27487D01*
G03X-7758260Y-7300890I-33240J22860D01*
G03X-7814360Y-7356990I-22860J-33240D01*
G03X-7810650Y-7407340I33239J-22863D01*
G02X-7818080Y-7424420I-7434J-6922D01*
G01X-9029700D01*
G37*
G36*
G01X-505000Y-7422960D02*
X-502910Y-6087070D01*
X-509540Y-6080590D01*
X-509600Y-6078550D01*
G03X-554540Y-6034580I-45399J-1450D01*
G01X-556590Y-6034560D01*
X-618670Y-5973830D01*
X-1105020Y-5974660D01*
X-1295000Y-6164640D01*
Y-6778860D01*
X-1595120Y-7078980D01*
X-2148930D01*
X-2149200Y-7074180D01*
G03X-2229760I-40280J-2260D01*
G01X-2230030Y-7078980D01*
X-2638580D01*
G02X-2645500Y-7061370I-8J10161D01*
G03X-2724580I-39540J42590D01*
G02X-2731500Y-7078980I-6912J-7449D01*
G01X-8379460D01*
X-8529320Y-6929120D01*
Y683260D01*
X-8442960Y769620D01*
X-7654030D01*
X-7652920Y766050D01*
G03X-7558870Y739770I55509J17221D01*
G02X-7552130I3370J-3805D01*
G03X-7473880Y740830I38543J43501D01*
G02X-7466940I3470J-3709D01*
G03X-7388690Y739770I39707J42441D01*
G02X-7381950I3370J-3805D01*
G03X-7287900Y766050I38541J43501D01*
G01X-7286790Y769620D01*
X-3581220D01*
X-3580680Y765150D01*
G03X-3563770Y730750I57699J7007D01*
G02X-3563570Y723720I-3562J-3619D01*
G03X-3563740Y645700I42999J-39104D01*
G02Y632100I-7543J-6800D01*
G03X-3481650Y550010I43170J-38920D01*
G02X-3468050I6800J-7543D01*
G03X-3389130Y551010I38919J43168D01*
G02X-3375150I6990J-7368D01*
G03X-3291980Y632100I40000J42170D01*
G02Y645700I7543J6800D01*
G03X-3294360Y726030I-43168J38921D01*
G02X-3294560Y733060I3562J3619D01*
G03X-3279860Y765150I-42996J39108D01*
G01X-3279320Y769620D01*
X-3091180D01*
X-3014980Y845820D01*
Y1155700D01*
X-2981960Y1188720D01*
X309880D01*
Y325120D01*
X310960Y324040D01*
Y-183620D01*
G02X293610Y-190790I-10158J4D01*
G03X230970Y-189200I-32154J-32080D01*
G03X165710Y-252080I-30474J-33678D01*
G03X230970Y-314960I34786J-29202D01*
G03X293610Y-313370I30486J33670D01*
G02X310960Y-320540I7192J-7174D01*
G01Y-3259220D01*
X-274720D01*
Y-3027970D01*
G02X-262940Y-3017940I10161J-1D01*
G03Y-2820060I15940J98940D01*
G02X-274720Y-2810030I-1619J10031D01*
G01Y-2773970D01*
G02X-262940Y-2763940I10161J-1D01*
G03X-282290Y-2571200I15943J98942D01*
G01X-285350Y-2572350D01*
X-512880Y-2344820D01*
X-1889820D01*
X-2229640Y-2005000D01*
X-2408540D01*
X-2409470Y-2001100D01*
G03X-2497810I-44170J-10580D01*
G01X-2498740Y-2005000D01*
X-2714640D01*
X-2994790Y-1724860D01*
X-3015500Y-1704140D01*
X-3029640Y-1690000D01*
X-3300000D01*
Y-1674210D01*
G02X-3289410Y-1664060I10159J0D01*
G03Y-1573300I1950J45380D01*
G02X-3300000Y-1563150I-431J10150D01*
G01Y-1394640D01*
X-3389640Y-1305000D01*
X-3438990D01*
G03X-3515530I-38270J-43740D01*
G01X-4030360D01*
X-4122020Y-1396660D01*
Y-1662990D01*
X-4125470Y-1664160D01*
G03Y-1774240I18670J-55040D01*
G01X-4122020Y-1775410D01*
Y-1938580D01*
G02X-4135810Y-1948070I-10161J1D01*
G03Y-2032910I-16220J-42420D01*
G02X-4122020Y-2042400I3629J-9491D01*
G01Y-2258340D01*
X-4055910Y-2324450D01*
G02X-4059970Y-2341300I-7185J-7183D01*
G03X-4014820Y-2356100I12420J-38380D01*
G02X-4006580Y-2340000I8242J5940D01*
G01X-3954000D01*
G02X-3943930Y-2351560I5J-10161D01*
G03X-3865080Y-2346430I39954J-5562D01*
G01X-3865260Y-2345770D01*
Y-2340000D01*
X-3849800D01*
Y-2345470D01*
X-3849860Y-2345860D01*
G03X-3769690Y-2350540I39860J-6190D01*
G02X-3759540Y-2340000I10153J380D01*
G01X-3720800D01*
G02X-3710640Y-2350030I2J-10159D01*
G03X-3629960I40340J530D01*
G02X-3619800Y-2340000I10158J-129D01*
G01X-3490360D01*
X-3280000Y-2550360D01*
Y-2759640D01*
X-3330360Y-2810000D01*
X-3433360D01*
X-3434130Y-2809750D01*
G03X-3459090I-12480J-38360D01*
G01X-3459860Y-2810000D01*
X-3533360D01*
X-3534130Y-2809750D01*
G03X-3559090I-12480J-38360D01*
G01X-3559860Y-2810000D01*
X-3733360D01*
X-3734130Y-2809750D01*
G03X-3759090I-12480J-38360D01*
G01X-3759860Y-2810000D01*
X-3833360D01*
X-3834130Y-2809750D01*
G03X-3859090I-12480J-38360D01*
G01X-3859860Y-2810000D01*
X-3933360D01*
X-3934130Y-2809750D01*
G03X-3959090I-12480J-38360D01*
G01X-3959860Y-2810000D01*
X-4030360D01*
X-4122260Y-2901900D01*
G02X-4135080Y-2909450I-9920J2185D01*
G03Y-2986770I-11530J-38660D01*
G02X-4122020Y-2996500I2901J-9736D01*
G01Y-2999720D01*
G02X-4135080Y-3009450I-10159J6D01*
G03Y-3086770I-11530J-38660D01*
G02X-4122020Y-3096500I2901J-9736D01*
G01Y-3251000D01*
X-4137860Y-3266840D01*
X-4196820D01*
G02X-4206840Y-3254960I-5J10161D01*
G03X-4286340I-39750J6850D01*
G02X-4296360Y-3266840I-10015J-1719D01*
G01X-4296820D01*
G02X-4306840Y-3254960I-5J10161D01*
G03X-4386340I-39750J6850D01*
G02X-4396360Y-3266840I-10015J-1719D01*
G01X-4396820D01*
G02X-4406840Y-3254960I-5J10161D01*
G03X-4486340I-39750J6850D01*
G02X-4496360Y-3266840I-10015J-1719D01*
G01X-4496820D01*
G02X-4506840Y-3254960I-5J10161D01*
G03X-4586340I-39750J6850D01*
G02X-4596360Y-3266840I-10015J-1719D01*
G01X-4596820D01*
G02X-4606840Y-3254960I-5J10161D01*
G03X-4686340I-39750J6850D01*
G02X-4696360Y-3266840I-10015J-1719D01*
G01X-4696820D01*
G02X-4706840Y-3254960I-5J10161D01*
G03X-4786340I-39750J6850D01*
G02X-4796360Y-3266840I-10015J-1719D01*
G01X-4796820D01*
G02X-4806840Y-3254960I-5J10161D01*
G03X-4886340I-39750J6850D01*
G02X-4896360Y-3266840I-10015J-1719D01*
G01X-4896820D01*
G02X-4906840Y-3254960I-5J10161D01*
G03X-4986340I-39750J6850D01*
G02X-4996360Y-3266840I-10015J-1719D01*
G01X-5056940D01*
X-5065160Y-3258620D01*
Y-3197900D01*
G02X-5053310Y-3187890I10158J-7D01*
G03X-5059850Y-3110010I6717J39779D01*
G01X-5062860Y-3111060D01*
X-5109540Y-3064380D01*
X-5108490Y-3061370D01*
G03X-5186930Y-3048340I-38100J13258D01*
G02X-5197090Y-3058560I-10159J-61D01*
G01X-5206570D01*
Y-3053180D01*
X-5206530Y-3052880D01*
G03X-5286930Y-3048340I-40059J4760D01*
G02X-5297090Y-3058560I-10159J-61D01*
G01X-5306570D01*
Y-3053180D01*
X-5306530Y-3052880D01*
G03X-5386930Y-3048340I-40059J4760D01*
G02X-5397090Y-3058560I-10159J-61D01*
G01X-5406570D01*
Y-3053180D01*
X-5406530Y-3052880D01*
G03X-5486930Y-3048340I-40059J4760D01*
G02X-5497090Y-3058560I-10159J-61D01*
G01X-5506570D01*
Y-3053180D01*
X-5506530Y-3052880D01*
G03X-5586930Y-3048340I-40059J4760D01*
G02X-5597090Y-3058560I-10159J-61D01*
G01X-5606570D01*
Y-3053180D01*
X-5606530Y-3052880D01*
G03X-5660320Y-3010180I-40058J4769D01*
G01X-5663360Y-3011280D01*
X-5675000Y-2999640D01*
Y-2995200D01*
G02X-5661170Y-2985720I10161J5D01*
G03Y-2910500I14580J37610D01*
G02X-5675000Y-2901020I-3669J9475D01*
G01Y-2895200D01*
G02X-5661170Y-2885720I10161J5D01*
G03Y-2810500I14580J37610D01*
G02X-5675000Y-2801020I-3669J9475D01*
G01Y-2700360D01*
X-5635000Y-2660360D01*
Y-2274640D01*
X-5682090Y-2227550D01*
X-5681760Y-2225060D01*
G03X-5696940Y-2177710I-57618J7636D01*
G02Y-2170770I3709J3470D01*
G03X-5781820I-42440J39710D01*
G02Y-2177710I-3709J-3470D01*
G03X-5797090Y-2210520I42440J-39710D01*
G01X-5797620Y-2215000D01*
X-6000360D01*
X-6060000Y-2274640D01*
Y-2511200D01*
G03Y-2584040I17340J-36420D01*
G01Y-2686110D01*
G03Y-2749490I24960J-31690D01*
G01Y-2906900D01*
G03Y-2985900I22420J-39500D01*
G01Y-3390360D01*
X-6054080Y-3396280D01*
X-6053720Y-3396960D01*
G03X-6036770Y-3413910I35710J18760D01*
G01X-6036090Y-3414270D01*
X-5930320Y-3520040D01*
X-5828850D01*
X-5827450Y-3522890D01*
G03X-5754950I36250J17690D01*
G01X-5753550Y-3520040D01*
X-5593810D01*
G02X-5584310Y-3533800I1J-10159D01*
G03X-5508870I37720J-14310D01*
G02X-5499370Y-3520040I9499J3601D01*
G01X-5493810D01*
G02X-5484310Y-3533800I1J-10159D01*
G03X-5408870I37720J-14310D01*
G02X-5399370Y-3520040I9499J3601D01*
G01X-5145320D01*
X-4962760Y-3702600D01*
Y-4203500D01*
X-4988760Y-4229500D01*
X-5108420D01*
G03X-5183790Y-4247410I-35080J-19919D01*
G01X-5183890Y-4249370D01*
X-5188910Y-4254390D01*
G02X-5206260Y-4247390I-7191J7179D01*
G03X-5234690Y-4286640I-40334J-706D01*
G01X-5231770Y-4285730D01*
X-5226010Y-4291490D01*
X-5229460Y-4294940D01*
Y-4298070D01*
G02X-5241020Y-4308140I-10161J-6D01*
G03Y-4388040I-5570J-39950D01*
G02X-5229460Y-4398110I1399J-10064D01*
G01Y-4409380D01*
X-5235230D01*
X-5235890Y-4409200D01*
G03X-5220880Y-4479180I-10700J-38895D01*
G01X-5177690Y-4522370D01*
G03X-5108630Y-4534400I31103J-25690D01*
G02X-5099070Y-4520800I9558J3441D01*
G01X-4994100D01*
G02X-4984540Y-4534410I4J-10160D01*
G03X-4908640I37950J-13680D01*
G02X-4899080Y-4520800I9556J3450D01*
G01X-4894100D01*
G02X-4884540Y-4534410I4J-10160D01*
G03X-4808640I37950J-13680D01*
G02X-4799080Y-4520800I9556J3450D01*
G01X-4694100D01*
G02X-4684540Y-4534410I4J-10160D01*
G03X-4608640I37950J-13680D01*
G02X-4599080Y-4520800I9556J3450D01*
G01X-4494120D01*
G02X-4484560Y-4534410I4J-10160D01*
G03X-4408660I37950J-13680D01*
G02X-4399100Y-4520800I9556J3450D01*
G01X-4371140D01*
X-4337850Y-4487510D01*
X-4336510Y-4487170D01*
G03X-4307550Y-4458210I-10100J39060D01*
G01X-4307210Y-4456870D01*
X-4270140Y-4419800D01*
Y-4242000D01*
X-4231440Y-4203300D01*
X-3830520D01*
X-3817220Y-4216600D01*
Y-4301400D01*
G02X-3831250Y-4310790I-10160J4D01*
G03X-3885480Y-4358870I-15358J-37301D01*
G02X-3895270Y-4371740I-9793J-2709D01*
G01X-3897950D01*
G02X-3907740Y-4358870I3J10161D01*
G03X-3980930Y-4369290I-38872J10781D01*
G01X-3978810Y-4372710D01*
X-4028040Y-4421940D01*
Y-4498300D01*
G02X-4039890Y-4508310I-10158J7D01*
G03X-4034630Y-4586610I-6718J-39778D01*
G01X-4033890Y-4586380D01*
X-4028040D01*
Y-4595060D01*
X-3993080Y-4630020D01*
X-3896490D01*
G02X-3886450Y-4641770I5J-10160D01*
G03X-3806770I39840J-6320D01*
G02X-3796730Y-4630020I10035J1590D01*
G01X-3796490D01*
G02X-3786450Y-4641770I5J-10160D01*
G03X-3706770I39840J-6320D01*
G02X-3696730Y-4630020I10035J1590D01*
G01X-3696490D01*
G02X-3686450Y-4641770I5J-10160D01*
G03X-3606770I39840J-6320D01*
G02X-3596730Y-4630020I10035J1590D01*
G01X-3596490D01*
G02X-3586450Y-4641770I5J-10160D01*
G03X-3528820Y-4611880I39843J-6318D01*
G02X-3531520Y-4595580I4482J9116D01*
G01X-3497980Y-4562040D01*
Y-3924500D01*
X-3469440Y-3895960D01*
X-3331800D01*
G02X-3323760Y-3912330I1J-10159D01*
G03X-3310990Y-3972510I31919J-24672D01*
G02Y-3990390I-4817J-8940D01*
G03Y-4061410I19150J-35510D01*
G02Y-4079290I-4817J-8940D01*
G03Y-4150310I19150J-35510D01*
G02Y-4168190I-4817J-8940D01*
G03Y-4239210I19150J-35510D01*
G02Y-4257090I-4817J-8940D01*
G03X-3272690I19150J-35510D01*
G02Y-4239210I4817J8940D01*
G03Y-4168190I-19150J35510D01*
G02Y-4150310I4817J8940D01*
G03Y-4079290I-19150J35510D01*
G02Y-4061410I4817J8940D01*
G03Y-3990390I-19150J35510D01*
G02Y-3972510I4817J8940D01*
G03X-3259920Y-3912330I-19149J35508D01*
G02X-3251880Y-3895960I8039J6211D01*
G01X-3109960D01*
G02X-3101920Y-3912330I1J-10159D01*
G03X-3029750Y-3939760I31922J-24667D01*
G02X-3025280Y-3935060I5068J-344D01*
G03X-2990020Y-3900360I-4720J40061D01*
G01X-2989430Y-3895960D01*
X-2789120D01*
X-2755000Y-3930080D01*
Y-4595360D01*
X-2680360Y-4670000D01*
X-2379640D01*
X-2305000Y-4595360D01*
Y-4522470D01*
G02X-2292860Y-4512510I10159J-4D01*
G03Y-4433370I7860J39570D01*
G02X-2305000Y-4423410I-1981J9964D01*
G01Y-4415670D01*
G02X-2297520Y-4411190I5080J2D01*
G03X-2291140Y-4305860I27520J51191D01*
G02X-2305000Y-4296400I-3701J9461D01*
G01Y-4007190D01*
G02X-2289280Y-3998690I10159J-2D01*
G03X-2228940Y-3952090I22101J33748D01*
G02X-2222810Y-3939310I9629J3241D01*
G03X-2274940Y-3914290I-13893J37872D01*
G02X-2281070Y-3927070I-9629J-3241D01*
G03X-2289280Y-3931190I13870J-37880D01*
G02X-2305000Y-3922690I-5561J8502D01*
G01Y-3826560D01*
G02X-2287830Y-3819200I10160J5D01*
G03Y-3760800I27830J29200D01*
G02X-2305000Y-3753440I-7010J7355D01*
G01Y-3715000D01*
X-2087580D01*
X-2086180Y-3717830D01*
G03X-2013820I36180J17830D01*
G01X-2012420Y-3715000D01*
X-1013560D01*
G02X-1003770Y-3727870I-2J-10160D01*
G03X-939010Y-3780280I43770J-12131D01*
G02X-924160Y-3789290I4691J-9012D01*
G01Y-3792460D01*
G02X-937470Y-3802120I-10159J-2D01*
G03Y-3878840I-12490J-38360D01*
G02X-924160Y-3888500I3151J-9658D01*
G01Y-4630220D01*
X-978100Y-4684160D01*
X-1651200D01*
X-1703870Y-4736830D01*
X-1705930Y-4736860D01*
G03X-1745640Y-4776570I630J-40340D01*
G01X-1745670Y-4778630D01*
X-1974310Y-5007270D01*
X-1975260Y-5007660D01*
G03X-1997340Y-5029740I15260J-37340D01*
G01X-1997730Y-5030690D01*
X-2100780Y-5133740D01*
X-2420550D01*
G02X-2429390Y-5118580I3J10159D01*
G03X-2530610I-50610J28580D01*
G02X-2539450Y-5133740I-8843J-5001D01*
G01X-2964380D01*
X-3004330Y-5173690D01*
G02X-3021290Y-5169260I-7181J7188D01*
G03X-3077340Y-5225310I-43710J-12340D01*
G02X-3072910Y-5242270I-2758J-9779D01*
G01X-3083160Y-5252520D01*
Y-5327770D01*
G02X-3094000Y-5337910I-10160J-3D01*
G03Y-5453890I-3860J-57990D01*
G02X-3083160Y-5464030I680J-10137D01*
G01Y-5558990D01*
G02X-3094880Y-5569030I-10160J0D01*
G03Y-5658790I-6970J-44880D01*
G02X-3083160Y-5668830I1560J-10040D01*
G01Y-6062780D01*
X-3170120Y-6149740D01*
X-3502860D01*
X-3568300Y-6215180D01*
Y-6390840D01*
X-3502860Y-6456280D01*
X-3327980D01*
G03X-3269340I29320J34690D01*
G01X-3233060D01*
G03X-3174420I29320J34690D01*
G01X-3088650D01*
G02X-3078860Y-6469170I4J-10159D01*
G03X-3001140I38860J-10830D01*
G02X-2991350Y-6456280I9786J2731D01*
G01X-2895400D01*
X-2308660Y-5869540D01*
X-1934180D01*
X-1408400Y-5343760D01*
X-756420D01*
G03X-673600I41410J18650D01*
G01X-93680D01*
G02X-83520Y-5353940I0J-10160D01*
G03X-19020Y-5411820I58120J-111D01*
G02X-13440Y-5416100I558J-5049D01*
G03X36980Y-5364180I44900J6838D01*
G02X32530Y-5358730I615J5044D01*
G03X32560Y-5349760I-57930J4679D01*
G02X37010Y-5344340I5066J377D01*
G03X67860Y-5272090I-5549J45081D01*
G01X65230Y-5268570D01*
X116230Y-5217570D01*
G02X133180Y-5221970I7181J-7185D01*
G03X221810Y-5202990I43685J12432D01*
G02X231870Y-5191360I10055J1469D01*
G01X310960D01*
Y-7422960D01*
X-505000D01*
G37*
G36*
G01X-2659640Y-4620000D02*
X-2705000Y-4574640D01*
Y-3909360D01*
X-2768400Y-3845960D01*
X-3034980D01*
G02X-3043030Y-3829600I-1J10160D01*
G03X-3106970I-31970J24600D01*
G02X-3115020Y-3845960I-8049J-6200D01*
G01X-3254490D01*
X-3255170Y-3841690D01*
G03X-3274650Y-3813270I-39828J-6413D01*
G02X-3274010Y-3795390I5131J8768D01*
G03X-3272690Y-3723690I-17827J36190D01*
G02Y-3705810I4817J8940D01*
G03Y-3634790I-19150J35510D01*
G02Y-3616910I4817J8940D01*
G03Y-3545890I-19150J35510D01*
G02Y-3528010I4817J8940D01*
G03X-3310990I-19150J35510D01*
G02Y-3545890I-4817J-8940D01*
G03Y-3616910I19150J-35510D01*
G02Y-3634790I-4817J-8940D01*
G03Y-3705810I19150J-35510D01*
G02Y-3723690I-4817J-8940D01*
G03X-3312190Y-3794030I19149J-35507D01*
G02X-3312830Y-3811910I-5131J-8768D01*
G03X-3334830Y-3841690I17830J-36188D01*
G01X-3335510Y-3845960D01*
X-3490170D01*
G02X-3507010Y-3840400I-6865J7491D01*
G03X-3554300Y-3887690I-39600J-7690D01*
G02X-3547980Y-3903590I-1933J-9974D01*
G01Y-3907530D01*
X-3552340Y-3908160D01*
G03Y-3988020I5730J-39930D01*
G01X-3547980Y-3988650D01*
Y-4007530D01*
X-3552340Y-4008160D01*
G03Y-4088020I5730J-39930D01*
G01X-3547980Y-4088650D01*
Y-4107530D01*
X-3552340Y-4108160D01*
G03Y-4188020I5730J-39930D01*
G01X-3547980Y-4188650D01*
Y-4207530D01*
X-3552340Y-4208160D01*
G03Y-4288020I5730J-39930D01*
G01X-3547980Y-4288650D01*
Y-4307530D01*
X-3552340Y-4308160D01*
G03Y-4388020I5730J-39930D01*
G01X-3547980Y-4388650D01*
Y-4407530D01*
X-3552340Y-4408160D01*
G03Y-4488020I5730J-39930D01*
G01X-3547980Y-4488650D01*
Y-4507530D01*
X-3552340Y-4508160D01*
G03X-3581120Y-4568990I5727J-39933D01*
G01X-3579050Y-4572390D01*
X-3586680Y-4580020D01*
X-3601040D01*
G02X-3610210Y-4565480I-3J10159D01*
G03X-3683010I-36400J17390D01*
G02X-3692180Y-4580020I-9167J-4381D01*
G01X-3701040D01*
G02X-3710210Y-4565480I-3J10159D01*
G03X-3783010I-36400J17390D01*
G02X-3792180Y-4580020I-9167J-4381D01*
G01X-3801040D01*
G02X-3810210Y-4565480I-3J10159D01*
G03X-3883010I-36400J17390D01*
G02X-3892180Y-4580020I-9167J-4381D01*
G01X-3972360D01*
X-3978040Y-4574340D01*
Y-4442660D01*
X-3957120Y-4421740D01*
X-3830120D01*
X-3767220Y-4358840D01*
Y-4297500D01*
G02X-3754960Y-4287560I10158J1D01*
G03Y-4208620I8350J39470D01*
G02X-3767220Y-4198680I-2102J9939D01*
G01Y-4195880D01*
X-3771080Y-4192020D01*
X-3765150Y-4183910D01*
G03X-3786840Y-4151020I18540J35824D01*
G02X-3804160Y-4158940I-10134J-736D01*
G01X-3806990Y-4156110D01*
X-3806650Y-4153600D01*
G03X-3886950Y-4148210I-39961J5514D01*
G01Y-4153300D01*
X-3906270D01*
Y-4148210D01*
G03X-3986950I-40340J120D01*
G01Y-4153300D01*
X-4206270D01*
Y-4148210D01*
G03X-4275300Y-4176440I-40338J124D01*
G01X-4320140Y-4221280D01*
Y-4399080D01*
X-4331600Y-4410540D01*
X-4334540Y-4409620D01*
G03X-4385100Y-4460180I-12070J-38490D01*
G01X-4384180Y-4463120D01*
X-4391860Y-4470800D01*
X-4597670D01*
G02X-4607520Y-4458120I-7J10161D01*
G03X-4685660I-39070J10030D01*
G02X-4695510Y-4470800I-9843J-2519D01*
G01X-4997670D01*
G02X-5007510Y-4458120I1J10159D01*
G03X-5085670I-39080J10010D01*
G02X-5095510Y-4470800I-9841J-2521D01*
G01X-5158540D01*
X-5179460Y-4449880D01*
Y-4315660D01*
X-5152610Y-4288810D01*
X-5150030Y-4289230D01*
G03X-5116620Y-4279500I6528J39809D01*
G01X-4968040D01*
X-4912760Y-4224220D01*
Y-3681880D01*
X-5118040Y-3476600D01*
G03X-5185820Y-3457510I-28553J28493D01*
G02X-5195700Y-3470040I-9879J-2370D01*
G01X-5197480D01*
G02X-5207360Y-3457510I-1J10160D01*
G03X-5285820I-39230J9400D01*
G02X-5295700Y-3470040I-9879J-2370D01*
G01X-5297480D01*
G02X-5307360Y-3457510I-1J10160D01*
G03X-5385820I-39230J9400D01*
G02X-5395700Y-3470040I-9879J-2370D01*
G01X-5397480D01*
G02X-5407360Y-3457510I-1J10160D01*
G03X-5485820I-39230J9400D01*
G02X-5495700Y-3470040I-9879J-2370D01*
G01X-5497480D01*
G02X-5507360Y-3457510I-1J10160D01*
G03X-5585820I-39230J9400D01*
G02X-5595700Y-3470040I-9879J-2370D01*
G01X-5597480D01*
G02X-5607360Y-3457510I-1J10160D01*
G03X-5685820I-39230J9400D01*
G02X-5695700Y-3470040I-9879J-2370D01*
G01X-5771420D01*
G03X-5810980I-19780J-35160D01*
G01X-5909600D01*
X-5982320Y-3397320D01*
X-5980960Y-3394150D01*
G03X-6006380Y-3339570I-37051J15953D01*
G01X-6010000Y-3338480D01*
Y-3214950D01*
X-6006250Y-3213930D01*
G03Y-3136070I-10590J38930D01*
G01X-6010000Y-3135050D01*
Y-2982490D01*
G03Y-2910310I-27580J36090D01*
G01Y-2749430D01*
G03Y-2686170I-25040J31630D01*
G01Y-2571300D01*
G03Y-2523940I-32660J23680D01*
G01Y-2295360D01*
X-5979640Y-2265000D01*
X-5772760D01*
G03X-5714930Y-2270150I33381J47579D01*
G01X-5711710Y-2268650D01*
X-5685000Y-2295360D01*
Y-2639640D01*
X-5725000Y-2679640D01*
Y-3020360D01*
X-5685060Y-3060300D01*
X-5684680Y-3061390D01*
G03X-5659870Y-3086200I38090J13280D01*
G01X-5658780Y-3086580D01*
X-5636800Y-3108560D01*
X-5587660D01*
G02X-5579390Y-3124630I5J-10160D01*
G03X-5513790I32800J-23480D01*
G02X-5505520Y-3108560I8265J5910D01*
G01X-5487660D01*
G02X-5479390Y-3124630I5J-10160D01*
G03X-5413790I32800J-23480D01*
G02X-5405520Y-3108560I8265J5910D01*
G01X-5387660D01*
G02X-5379390Y-3124630I5J-10160D01*
G03X-5313790I32800J-23480D01*
G02X-5305520Y-3108560I8265J5910D01*
G01X-5287660D01*
G02X-5279390Y-3124630I5J-10160D01*
G03X-5213790I32800J-23480D01*
G02X-5205520Y-3108560I8265J5910D01*
G01X-5136080D01*
X-5115160Y-3129480D01*
Y-3279340D01*
X-5077660Y-3316840D01*
X-4117140D01*
X-4079510Y-3279210D01*
G02X-4072640Y-3278930I3587J-3596D01*
G03X-4058790Y-3209650I26029J30821D01*
G02X-4072020Y-3199970I-3071J9683D01*
G01Y-3096250D01*
G02X-4058790Y-3086570I10159J-3D01*
G03Y-3009650I12180J38460D01*
G02X-4072020Y-2999970I-3071J9683D01*
G01Y-2996250D01*
G02X-4058790Y-2986570I10159J-3D01*
G03X-4036840Y-2908970I12180J38459D01*
G02X-4041570Y-2891930I2456J9858D01*
G01X-4009640Y-2860000D01*
X-3985310D01*
X-3984030Y-2863180D01*
G03X-3909190I37420J15070D01*
G01X-3907910Y-2860000D01*
X-3885310D01*
X-3884030Y-2863180D01*
G03X-3809190I37420J15070D01*
G01X-3807910Y-2860000D01*
X-3785310D01*
X-3784030Y-2863180D01*
G03X-3709190I37420J15070D01*
G01X-3707910Y-2860000D01*
X-3585310D01*
X-3584030Y-2863180D01*
G03X-3509190I37420J15070D01*
G01X-3507910Y-2860000D01*
X-3485310D01*
X-3484030Y-2863180D01*
G03X-3409190I37420J15070D01*
G01X-3407910Y-2860000D01*
X-3375360D01*
G02X-3365200Y-2870170I0J-10160D01*
G03X-3293940Y-2844300I40338J-34D01*
G01X-3230000Y-2780360D01*
Y-2529640D01*
X-3469640Y-2290000D01*
X-4019640D01*
X-4072020Y-2237620D01*
Y-1765760D01*
G03Y-1672640I-34780J46560D01*
G01Y-1417380D01*
X-4009640Y-1355000D01*
X-3535200D01*
X-3534440Y-1359170D01*
G03X-3420080I57180J10430D01*
G01X-3419320Y-1355000D01*
X-3410360D01*
X-3350000Y-1415360D01*
Y-1725360D01*
X-3349500Y-1725860D01*
Y-1938090D01*
G02X-3363050Y-1947670I-10159J-3D01*
G03Y-2033310I-15150J-42820D01*
G02X-3349500Y-2042890I3391J-9577D01*
G01Y-2095860D01*
X-3215360Y-2230000D01*
X-3074980D01*
G02X-3064820Y-2240140I0J-10160D01*
G03X-2969450Y-2311940I74819J141D01*
G02X-2957220Y-2325470I2790J-9770D01*
G03X-2855900Y-2380710I54000J-21493D01*
G02X-2839060Y-2381160I8268J-5903D01*
G03X-2764920Y-2402430I49061J31160D01*
G02X-2751520Y-2406890I4392J-9163D01*
G03X-2641880Y-2380140I51522J26894D01*
G02X-2631720Y-2370000I10160J-20D01*
G01X-2540360D01*
X-2503270Y-2407090D01*
X-2502900Y-2408330D01*
G03X-2472290Y-2438940I43540J12930D01*
G01X-2471050Y-2439310D01*
X-2355000Y-2555360D01*
Y-2694640D01*
G02X-2366700Y-2704690I-10161J-7D01*
G03Y-2794470I-6900J-44890D01*
G02X-2355000Y-2804520I1539J-10043D01*
G01Y-3753440D01*
G02X-2372170Y-3760800I-10160J-5D01*
G03X-2424890Y-3821750I-27829J-29205D01*
G02X-2423880Y-3836840I-6265J-7998D01*
G03X-2371160Y-3897540I28888J-28154D01*
G02X-2355000Y-3905740I6000J-8199D01*
G01Y-4574640D01*
X-2400360Y-4620000D01*
X-2659640D01*
G37*
G36*
G01X-3482140Y-6406280D02*
X-3518300Y-6370120D01*
Y-6235900D01*
X-3482140Y-6199740D01*
X-3149400D01*
X-3033160Y-6083500D01*
Y-5273240D01*
X-2943660Y-5183740D01*
X-2080060D01*
X-2023770Y-5127450D01*
G02X-2009770Y-5127110I7179J-7189D01*
G03X-1945130Y-5082500I27073J29908D01*
G03X-1920660Y-5053930I-14870J37500D01*
G02X-1915070Y-5050020I4952J-1129D01*
G03X-1877060Y-4986710I5071J40021D01*
G01X-1879530Y-4983210D01*
X-1713170Y-4816850D01*
X-1710670Y-4817180D01*
G03X-1665320Y-4771830I5370J39980D01*
G01X-1665650Y-4769330D01*
X-1630480Y-4734160D01*
X-957380D01*
X-874160Y-4650940D01*
Y-3748840D01*
X-958000Y-3665000D01*
X-1108410D01*
G02X-1118350Y-3652760I3J10158D01*
G03X-1197330I-39490J8260D01*
G02X-1207270Y-3665000I-9943J-2082D01*
G01X-2029940D01*
G03X-2070060I-20060J-35000D01*
G01X-2305000D01*
Y-2534640D01*
X-2420590Y-2419050D01*
G03X-2483010Y-2356630I-38770J23650D01*
G01X-2519640Y-2320000D01*
X-2634670D01*
G02X-2644390Y-2306890I3J10160D01*
G03X-2725080Y-2237570I-55611J16890D01*
G02X-2738480Y-2233110I-4392J9163D01*
G03X-2846480Y-2246310I-51520J-26894D01*
G02X-2863540Y-2251100I-9875J2395D01*
G01X-2934640Y-2180000D01*
X-2945270D01*
X-2946590Y-2179060D01*
G03X-3034700Y-2180000I-43410J-60940D01*
G01X-3194640D01*
X-3299500Y-2075140D01*
Y-1740000D01*
X-3050360D01*
X-2735360Y-2055000D01*
X-2467310D01*
X-2466600Y-2055210D01*
G03X-2440680I12960J43530D01*
G01X-2439970Y-2055000D01*
X-2250360D01*
X-2000220Y-2305140D01*
G02X-2001030Y-2320230I-7187J-7181D01*
G03X-1944310Y-2376950I25300J-31420D01*
G02X-1929220Y-2376140I7909J-6377D01*
G01X-1910540Y-2394820D01*
X-533600D01*
X-325600Y-2602820D01*
G03X-324720Y-2728270I78600J-62177D01*
G01Y-2855730D01*
G03Y-2982270I77720J-63270D01*
G01Y-3109730D01*
G03Y-3236270I77720J-63270D01*
G01Y-3309220D01*
X310960D01*
Y-4889980D01*
G02X294600Y-4898030I-10160J-1D01*
G03Y-4961970I-24600J-31970D01*
G02X310960Y-4970020I6200J-8049D01*
G01Y-5141360D01*
X121720D01*
X-30680Y-5293760D01*
X-210260D01*
G02X-216010Y-5275230I4J10158D01*
G03X-281830I-32910J47910D01*
G02X-287580Y-5293760I-5754J-8372D01*
G01X-682140D01*
G03X-747880I-32870J-31350D01*
G01X-925730D01*
G02X-933820Y-5277460I4J10159D01*
G03X-932080Y-5225000I-36180J27459D01*
G03X-1007920I-37920J25000D01*
G03X-1006180Y-5277460I37920J-25001D01*
G02X-1014270Y-5293760I-8094J-6141D01*
G01X-1429120D01*
X-1653150Y-5517790D01*
G02X-1668970Y-5515950I-7181J7187D01*
G03X-1724510Y-5571490I-34290J-21250D01*
G02X-1722670Y-5587310I-5347J-8639D01*
G01X-1954900Y-5819540D01*
X-2329380D01*
X-2757340Y-6247500D01*
G02X-2774140Y-6243580I-7181J7186D01*
G03X-2789290Y-6219990I-55036J-18685D01*
G02X-2789320Y-6205260I6980J7379D01*
G03X-2874840Y-6126920I-40119J42053D01*
G02X-2890720I-7940J6346D01*
G03X-2976010Y-6205470I-45409J-36274D01*
G02X-2975980Y-6220200I-6980J-7379D01*
G03X-2890460Y-6298540I40119J-42053D01*
G02X-2874580I7940J-6346D01*
G03X-2847860Y-6317300I45412J36272D01*
G02X-2843940Y-6334100I-3266J-9619D01*
G01X-2916120Y-6406280D01*
X-3160850D01*
X-3162190Y-6403250D01*
G03X-3245290I-41550J-18340D01*
G01X-3246630Y-6406280D01*
X-3255770D01*
X-3257110Y-6403250D01*
G03X-3340210I-41550J-18340D01*
G01X-3341550Y-6406280D01*
X-3482140D01*
G37*
%LPC*%
G75*
G36*
G01X-8694370Y-842310D02*
G02X-8695800Y-896620I-30529J-26370D01*
G02X-8754000I-29100J-27940D01*
G02X-8751370Y-838240I29100J27938D01*
G03X-8750350Y-823930I-6666J7667D01*
G02X-8693350Y-828000I30528J26370D01*
G03X-8694370Y-842310I6666J-7667D01*
G37*
G36*
G01X-8695170Y-1904330D02*
G03Y-1911190I3743J-3430D01*
G02X-8754630I-29730J-27270D01*
G03Y-1904330I-3743J3430D01*
G02X-8754830Y-1850010I29729J27270D01*
G03X-8755110Y-1842910I-3768J3407D01*
G02X-8758330Y-1787620I27671J29350D01*
G03Y-1781080I-3891J3270D01*
G02X-8752210Y-1723300I30891J25942D01*
G02X-8754690Y-1678970I32390J24046D01*
G02X-8756400Y-1615740I24179J32292D01*
G03X-8755210Y-1609410I-3263J3890D01*
G02X-8693930Y-1620980I35389J19368D01*
G03X-8695120Y-1627310I3263J-3890D01*
G02X-8695640Y-1666970I-35389J-19369D01*
G02X-8695050Y-1731100I-24180J-32290D01*
G02X-8696550Y-1781080I-32391J-24040D01*
G03Y-1787620I3891J-3270D01*
G02X-8697510Y-1840610I-30890J-25944D01*
G03X-8697230Y-1847710I3768J-3407D01*
G02X-8695170Y-1904330I-27670J-29354D01*
G37*
G36*
G01X-8054120Y-7348220D02*
G02X-8110220Y-7404320I-33240J-22860D01*
G02X-8166320Y-7348220I-22860J33240D01*
G02X-8110220Y-7292120I33240J22860D01*
G02X-8054120Y-7348220I22860J-33240D01*
G37*
G36*
G01X-984620Y999810D02*
G03X-991260I-3320J-3839D01*
G02X-1055530Y1063640I-29705J34361D01*
G03X-1055550Y1070240I-3871J3288D01*
G02X-991380Y1134190I34471J29581D01*
G03X-984740I3320J3839D01*
G02X-925340I29700J-34370D01*
G03X-918700I3320J3839D01*
G02X-859300I29700J-34370D01*
G03X-852660I3320J3839D01*
G02X-788390Y1070360I29705J-34361D01*
G03X-788370Y1063760I3871J-3288D01*
G02X-852540Y999810I-34471J-29581D01*
G03X-859180I-3320J-3839D01*
G02X-918580I-29700J34370D01*
G03X-925220I-3320J-3839D01*
G02X-984620I-29700J34370D01*
G37*
G36*
G01X-490680Y538780D02*
G03X-500890Y527640I-100J-10157D01*
G02X-591200Y528650I-45210J-4389D01*
G03X-602900Y539890I-10087J1210D01*
G02X-577850Y616680I-7231J44840D01*
G02X-518160Y620010I31750J-32480D01*
G02X-490680Y538780I27939J-35811D01*
G37*
G36*
G01X-2069710Y278030D02*
G02X-2116700Y277120I-24130J32329D01*
G02X-2168500Y338470I-22870J33234D01*
G02X-2170320Y386460I31481J25223D01*
G02X-2115820Y444720I31642J25021D01*
G02X-2068830Y443810I22860J-33239D01*
G02X-2021840Y444720I24130J-32329D01*
G02X-1965680Y388720I22855J-33239D01*
G02X-1968380Y335590I-31640J-25026D01*
G02X-2022720Y277120I-31476J-25233D01*
G02X-2069710Y278030I-22860J33239D01*
G37*
G36*
G01X-7827790Y269060D02*
G02X-7908600Y185510I-40812J-41382D01*
G02X-7989250Y186140I-39998J42169D01*
G02X-8070080Y269650I-39681J42465D01*
G03X-8069950Y276700I-3595J3592D01*
G02X-8071060Y354550I42592J39540D01*
G03X-8071250Y368160I-7642J6700D01*
G02X-7988620Y449830I42619J39516D01*
G02X-7908600Y449850I40021J-42149D01*
G02X-7827790Y366300I39998J-42168D01*
G03Y359060I3566J-3620D01*
G02Y276300I-40810J-41380D01*
G03Y269060I3566J-3620D01*
G37*
G36*
G01X-4532180Y149870D02*
G03X-4545780I-6800J-7543D01*
G02Y236210I-38920J43170D01*
G03X-4532180I6800J7543D01*
G02X-4454300Y236170I38918J-43169D01*
G03X-4440680I6810J7538D01*
G02Y149910I38960J-43130D01*
G03X-4454300I-6810J-7538D01*
G02X-4532180Y149870I-38962J43129D01*
G37*
G36*
G01X-1723390Y142930D02*
G02X-1772190Y143340I-24130J32329D01*
G02X-1828300Y200580I-24771J31839D01*
G02X-1772830Y258300I31343J25393D01*
G02X-1722990Y258680I25162J-31530D01*
G02X-1674400Y257830I23732J-32620D01*
G02X-1618300Y200580I24762J-31847D01*
G02X-1674500Y143410I-31339J-25401D01*
G02X-1723390Y142930I-24760J31849D01*
G37*
G36*
G01X-3269450Y-193380D02*
G03X-3285910I-8230J-5961D01*
G02Y-140060I-36770J26660D01*
G03X-3269450I8230J5961D01*
G02Y-193380I36770J-26660D01*
G37*
G36*
G01X-1370110Y-175140D02*
G02X-1433830Y-215210I-39591J-7741D01*
G02X-1477230Y-147440I-24125J32332D01*
G02X-1413510Y-107370I39591J7741D01*
G02X-1370110Y-175140I24125J-32332D01*
G37*
G36*
G01X-7089330Y-129300D02*
G03Y-136140I3753J-3420D01*
G02X-7173830Y-215940I-42988J-39118D01*
G02X-7252150Y-217060I-39774J42380D01*
G03X-7258890I-3370J-3805D01*
G02X-7342190Y-136480I-38544J43501D01*
G03X-7342390Y-129780I-3913J3236D01*
G02X-7340870Y-48900I42490J39656D01*
G02X-7261420Y35880I40910J41280D01*
G03X-7254680I3370J3805D01*
G02X-7177600I38540J-43500D01*
G03X-7170860I3370J3805D01*
G02X-7091350Y-48840I38540J-43500D01*
G02X-7089330Y-129300I-40910J-41282D01*
G37*
G36*
G01X-1197610Y-127210D02*
G02X-1139600Y-182880I26674J-30264D01*
G02X-1211280Y-207980I-31341J-25399D01*
G03X-1222010Y-197760I-10158J78D01*
G02X-1197610Y-127210I-2267J40279D01*
G37*
G36*
G01X-6188020Y-170290D02*
G03Y-184910I7049J-7310D01*
G02X-6251100I-31540J-32690D01*
G03Y-170290I-7049J7310D01*
G02X-6188020I31540J32690D01*
G37*
G36*
G01X-6563020Y-280290D02*
G03Y-294910I7049J-7310D01*
G02X-6626100I-31540J-32690D01*
G03Y-280290I-7049J7310D01*
G02X-6623830Y-212870I31539J32686D01*
G03Y-197330I-6547J7770D01*
G02X-6578340Y-120180I29274J34725D01*
G03X-6564630Y-111950I3628J9490D01*
G02X-6535780Y-160020I45067J-5645D01*
G03X-6549490Y-168250I-3628J-9490D01*
G02X-6565290Y-197330I-45067J5654D01*
G03Y-212870I6547J-7770D01*
G02X-6563020Y-280290I-29269J-34734D01*
G37*
G36*
G01X-7557900Y-399860D02*
G03X-7572780I-7440J-6919D01*
G02Y-320700I-42560J39580D01*
G03X-7557900I7440J6919D01*
G02Y-399860I42560J-39580D01*
G37*
G36*
G01X-3342430Y-355590D02*
G02X-3351530Y-379220I-45254J3860D01*
G02X-3423830I-36150J-27500D01*
G02X-3379820Y-306990I36150J27497D01*
G03X-3367930Y-297850I1764J10009D01*
G02X-3285910Y-275060I45252J-3873D01*
G03X-3269450I8230J5961D01*
G02Y-328380I36770J-26660D01*
G03X-3285910I-8230J-5961D01*
G02X-3330540Y-346450I-36768J26662D01*
G03X-3342430Y-355590I-1764J-10009D01*
G37*
G36*
G01X-2468800Y-510180D02*
G03X-2469560Y-526020I5964J-8224D01*
G02X-2519940Y-523600I-26701J-30240D01*
G03X-2519180Y-507760I-5964J8224D01*
G02X-2468800Y-510180I26701J30240D01*
G37*
G36*
G01X-3747680Y-593890D02*
G02X-3827680I-40000J42170D01*
G02X-3909850Y-511720I-40000J42170D01*
G02X-3827680Y-429550I42170J40000D01*
G02X-3747680I40000J-42170D01*
G02X-3665510Y-511720I40000J-42170D01*
G02X-3747680Y-593890I-42170J-40000D01*
G37*
G36*
G01X-5090190Y-840950D02*
G03X-5096930I-3370J-3805D01*
G02X-5178970Y-758910I-38540J43500D01*
G03Y-752170I-3805J3370D01*
G02X-5178140Y-674170I43501J38542D01*
G03X-5178180Y-667240I-3734J3444D01*
G02X-5097340Y-583880I42302J39854D01*
G03X-5090600I3370J3805D01*
G02X-5012350Y-584940I38543J-43501D01*
G03X-5005410I3470J3709D01*
G02X-4925990I39710J-42440D01*
G03X-4919050I3470J3709D01*
G02X-4836670Y-666840I39709J-42440D01*
G03X-4836630Y-673770I3734J-3444D01*
G02X-4835430Y-752170I-42300J-39857D01*
G03Y-758910I3805J-3370D01*
G02X-4918640Y-839890I-43507J-38536D01*
G03X-4925580I-3470J-3709D01*
G02X-5005000I-39710J42440D01*
G03X-5011940I-3470J-3709D01*
G02X-5090190Y-840950I-39707J42441D01*
G37*
G36*
G01X-1003650Y-804200D02*
G03X-1003470Y-818140I7481J-6875D01*
G02X-1088040Y-819290I-41743J-40440D01*
G03X-1088220Y-805350I-7481J6875D01*
G02X-1003650Y-804200I41743J40440D01*
G37*
G36*
G01X-1749900Y-959530D02*
G03X-1764640I-7370J-6989D01*
G02X-1849630Y-880230I-42160J40010D01*
G03X-1849810Y-866290I-7481J6875D01*
G02X-1850670Y-786310I41740J40443D01*
G03X-1850920Y-772230I-7448J6910D01*
G02X-1849350Y-688670I41171J41021D01*
G03X-1849160Y-673970I-6918J7441D01*
G02X-1766320Y-592450I40681J41511D01*
G03X-1751580I7370J6989D01*
G02X-1666180Y-593630I42155J-40010D01*
G03X-1651060I7560J6793D01*
G02X-1563500Y-594860I43243J-38831D01*
G03X-1548000I7750J6568D01*
G02X-1464080Y-675000I44320J-37599D01*
G03X-1464270Y-689700I6918J-7441D01*
G02X-1462350Y-770750I-40679J-41511D01*
G03X-1462100Y-784830I7448J-6910D01*
G02X-1460440Y-865140I-41170J-41023D01*
G03X-1460260Y-879080I7481J-6875D01*
G02X-1546320Y-957120I-41735J-40448D01*
G03X-1561820I-7750J-6568D01*
G02X-1649380Y-958350I-44317J37601D01*
G03X-1664500I-7560J-6793D01*
G02X-1749900Y-959530I-43245J38830D01*
G37*
G36*
G01X-8254670Y-1322330D02*
G03X-8269760Y-1322500I-7468J-6888D01*
G02X-8270330Y-1268470I-30240J26699D01*
G03X-8255240Y-1268300I7468J6888D01*
G02X-8254670Y-1322330I30240J-26699D01*
G37*
G36*
G01X-3075000Y-1275350D02*
G02Y-1351190I25000J-37920D01*
G02Y-1275350I-25000J37920D01*
G37*
G36*
G01X-8209860Y-1500880D02*
G03X-8205960Y-1506490I5038J-658D01*
G02X-8255010Y-1540640I-9043J-39313D01*
G03X-8258910Y-1535030I-5038J658D01*
G02X-8209860Y-1500880I9043J39313D01*
G37*
G36*
G01X-595140Y-1611630D02*
G02X-659130Y-1675620I-34780J-29210D01*
G02X-724150Y-1612900I-29210J34782D01*
G02X-660640Y-1548960I35808J27945D01*
G02X-595140Y-1611630I30722J-33454D01*
G37*
G36*
G01X-1113790Y-1711420D02*
G02Y-1646460I-31750J32480D01*
G02X-1051560Y-1645270I31747J-32481D01*
G02Y-1712610I30480J-33670D01*
G02X-1113790Y-1711420I-30483J33671D01*
G37*
G36*
G01X-972040Y-2287350D02*
G03X-978680I-3320J-3839D01*
G02X-1040860Y-2221230I-29699J34368D01*
G02X-978680Y-2155110I32481J31752D01*
G03X-972040I3320J3839D01*
G02X-911500Y-2156140I29694J-34370D01*
G03X-904600I3450J3733D01*
G02X-841280Y-2221230I30841J-33341D01*
G02X-904600Y-2286320I-32479J-31749D01*
G03X-911500I-3450J-3733D01*
G02X-972040Y-2287350I-30846J33340D01*
G37*
G36*
G01X-8462820Y-2333710D02*
G02X-8389470Y-2357280I40337J-388D01*
G02X-8445790Y-2414890I-26615J-30315D01*
G02X-8472750Y-2343770I-26067J30788D01*
G03X-8462820Y-2333710I-229J10157D01*
G37*
G36*
G01X-8383670Y-3075370D02*
G03X-8390490I-3410J-3764D01*
G02X-8445740Y-3074330I-27072J29909D01*
G02X-8504560Y-3019330I-27706J29322D01*
G03X-8504870Y-3012520I-3917J3234D01*
G02X-8437010Y-2993510I28631J28419D01*
G03X-8425210Y-3005850I9879J-2365D01*
G02X-8416880Y-3005130I7620J-39613D01*
G03X-8407680Y-2990310I169J10160D01*
G02X-8339390Y-2995770I35843J18510D01*
G03X-8336320Y-3010590I8172J-6035D01*
G02X-8383670Y-3075370I-20280J-34871D01*
G37*
G36*
G01X-6166870Y-3871880D02*
G03X-6181240Y-3873020I-6619J-7711D01*
G02X-6187690Y-3791300I-44301J37618D01*
G03X-6173320Y-3790160I6619J7711D01*
G02X-6089020Y-3785610I44303J-37619D01*
G03X-6075040I6990J7368D01*
G02Y-3869950I40000J-42170D01*
G03X-6089020I-6990J-7368D01*
G02X-6166870Y-3871880I-39994J42170D01*
G37*
G36*
G01X-1427920Y-3905000D02*
G02X-1352080I37920J25000D01*
G02X-1427920I-37920J-25000D01*
G37*
G36*
G01X-2989760Y-4048170D02*
G03X-2997810Y-4036490I-10012J1713D01*
G02X-2950240Y-4003740I7810J39579D01*
G03X-2942190Y-4015420I10012J-1713D01*
G02X-2989760Y-4048170I-7810J-39579D01*
G37*
G36*
G01X-1898270Y-4052080D02*
G03X-1902290Y-4069470I2715J-9787D01*
G02X-1957340Y-4128420I-26739J-30209D01*
G02X-2010730Y-4068010I-25544J31222D01*
G03X-2011870Y-4052370I-7010J7351D01*
G02X-1958740Y-3992280I23296J32936D01*
G03X-1942740Y-3991030I7515J6837D01*
G02X-1898270Y-4052080I33701J-22173D01*
G37*
G36*
G01X-3045130Y-4337250D02*
G03X-3049390Y-4332420I-5077J-184D01*
G02X-3042130Y-4252270I6470J39818D01*
G03X-3037010Y-4248010I105J5081D01*
G02X-2983370Y-4216600I39815J-6487D01*
G03X-2976970Y-4213860I1745J4769D01*
G02X-2975860Y-4211530I36954J-16175D01*
G03X-2980560Y-4204130I-4517J2324D01*
G02X-2943710Y-4176620I-1404J40316D01*
G03X-2935270Y-4189940I9634J-3229D01*
G02X-2953830Y-4267900I-4735J-40062D01*
G03X-2960230Y-4270640I-1745J-4769D01*
G02X-2976600Y-4289180I-36968J16144D01*
G03X-2978130Y-4305530I5194J-8733D01*
G02X-3045130Y-4337250I-26687J-30250D01*
G37*
G36*
G01X-6695690Y-4456270D02*
G03X-6695790Y-4462800I3836J-3325D01*
G02X-6765310Y-4461730I-35210J-28697D01*
G03X-6765210Y-4455200I-3836J3325D01*
G02X-6762570Y-4394840I35208J28698D01*
G03Y-4387760I-3640J3540D01*
G02X-6697430I32570J31660D01*
G03Y-4394840I3640J-3540D01*
G02X-6695690Y-4456270I-32568J-31662D01*
G37*
G36*
G01X-1956670Y-4485000D02*
G03X-1956270Y-4491680I4015J-3112D01*
G02X-2016910Y-4495320I-28729J-28319D01*
G03X-2017310Y-4488640I-4015J3112D01*
G02X-1955800Y-4436810I28730J28318D01*
G03X-1939990Y-4437680I8255J5923D01*
G02X-1946010Y-4482850I29989J-26983D01*
G03X-1954800Y-4482360I-4536J-2288D01*
G02X-1956670Y-4485000I-33825J21977D01*
G37*
G36*
G01X-1657500Y-4619510D02*
G02Y-4560490I-27500J29510D01*
G02Y-4619510I27500J-29510D01*
G37*
G36*
G01X-6816240Y-4761060D02*
G02X-6752780Y-4751240I26817J36659D01*
G02X-6816240Y-4761060I-26817J-36659D01*
G37*
G36*
G01X-3396800Y-4868990D02*
G03X-3412870Y-4870200I-7570J-6778D01*
G02X-3418610Y-4819050I-33740J22111D01*
G03X-3402680Y-4816660I7047J7316D01*
G02X-3396800Y-4868990I39719J-22032D01*
G37*
G36*
G01X-3025180Y-4820160D02*
G03X-3033360Y-4834440I1083J-10103D01*
G02X-3079590Y-4807940I-41408J-18662D01*
G03X-3071410Y-4793660I-1083J10103D01*
G02X-3025180Y-4820160I41408J18662D01*
G37*
G36*
G01X-8331870Y-4954930D02*
G02X-8387970Y-5011030I-33240J-22860D01*
G02X-8444070Y-4954930I-22860J33240D01*
G02X-8443820Y-4908860I33240J22855D01*
G02X-8387080Y-4853720I33878J21902D01*
G02X-8331230Y-4910170I22857J-33239D01*
G02X-8331870Y-4954930I-33879J-21900D01*
G37*
G36*
G01X-2285330Y-5008310D02*
G03X-2291750Y-4993880I-9045J4619D01*
G02X-2241270Y-4973730I11747J43877D01*
G03X-2235990Y-4988620I8664J-5309D01*
G02X-2285330Y-5008310I-13417J-38043D01*
G37*
G36*
G01X-6164950Y-4943400D02*
G03X-6151050Y-4949640I9703J3013D01*
G02X-6186950Y-5022390I26467J-58294D01*
G03X-6200360Y-5015150I-9897J-2293D01*
G02X-6164950Y-4943400I-20100J54532D01*
G37*
G36*
G01X-4232800Y-5058780D02*
G02X-4179610Y-5087690I39331J8977D01*
G02X-4232800Y-5058780I-39331J-8977D01*
G37*
G36*
G01X-7263470Y-5236740D02*
G03X-7270410I-3470J-3709D01*
G02Y-5151860I-39710J42440D01*
G03X-7263470I3470J3709D01*
G02Y-5236740I39710J-42440D01*
G37*
G36*
G01X-6125500Y-5303330D02*
G03X-6139850Y-5307550I-5234J-8709D01*
G02X-6222330Y-5305430I-40752J20052D01*
G03X-6238310Y-5301750I-9337J-4007D01*
G02X-6220110Y-5243080I-38028J43954D01*
G03X-6204860Y-5249100I9827J2569D01*
G02X-6157200Y-5248570I24260J-38399D01*
G03X-6142850Y-5244350I5234J8709D01*
G02X-6125500Y-5303330I40752J-20054D01*
G37*
G36*
G01X-5768600Y-5239560D02*
G03X-5759310Y-5253040I9599J-3326D01*
G02X-5803640Y-5283580I-1409J-45399D01*
G03X-5812930Y-5270100I-9599J3326D01*
G02X-5768600Y-5239560I1409J45399D01*
G37*
G36*
G01X-4006070Y-5487980D02*
G03X-4004020Y-5503310I7556J-6792D01*
G02X-4055890Y-5510220I-21880J-33890D01*
G03X-4057940Y-5494890I-7556J6792D01*
G02X-4006070Y-5487980I21880J33890D01*
G37*
G36*
G01X-4151820Y-5491430D02*
G03Y-5506770I6665J-7670D01*
G02X-4204780I-26480J-30430D01*
G03Y-5491430I-6665J7670D01*
G02X-4151820I26480J30430D01*
G37*
G36*
G01X-4304220D02*
G03Y-5506770I6665J-7670D01*
G02X-4357180I-26480J-30430D01*
G03Y-5491430I-6665J7670D01*
G02X-4304220I26480J30430D01*
G37*
G36*
G01X-4456620D02*
G03Y-5506770I6665J-7670D01*
G02X-4509580I-26480J-30430D01*
G03Y-5491430I-6665J7670D01*
G02X-4456620I26480J30430D01*
G37*
G36*
G01X74530Y-5541630D02*
G02X85070Y-5607970I35470J-28372D01*
G02X24600Y-5617520I-35470J28370D01*
G02X-25400I-25000J37920D01*
G02Y-5541680I-25000J37920D01*
G02X24600I25000J-37920D01*
G02X74530Y-5541630I25003J-37920D01*
G37*
G36*
G01X-5772070Y-5603860D02*
G03X-5765230Y-5604110I3557J3626D01*
G02X-5767740Y-5671200I29320J-34689D01*
G03X-5774580Y-5670950I-3557J-3626D01*
G02X-5772070Y-5603860I-29320J34689D01*
G37*
G36*
G01X-3632940Y-5590150D02*
G03X-3632470Y-5583090I-3401J3772D01*
G02X-3561610Y-5561280I30750J26110D01*
G03X-3557250Y-5566850I5052J-537D01*
G02X-3632940Y-5590150I-12756J-93151D01*
G37*
G36*
G01X-8300940Y-5789630D02*
G02X-8350470Y-5788640I-24129J32329D01*
G02X-8409110Y-5734440I-25403J31338D01*
G02X-8409920Y-5689940I33239J22862D01*
G02X-8351520Y-5635400I33001J23200D01*
G02X-8301990Y-5634410I25401J-31339D01*
G02X-8243810Y-5688380I24135J-32326D01*
G02X-8243570Y-5734440I-33000J-23203D01*
G02X-8300940Y-5789630I-33237J-22863D01*
G37*
G36*
G01X-6735040Y-5678050D02*
G03X-6720030Y-5679650I8226J5961D01*
G02X-6738000Y-5766610I49991J-55667D01*
G03X-6752420Y-5762130I-9227J-4254D01*
G02X-6735040Y-5678050I-29679J49971D01*
G37*
G36*
G01X-7072970Y-5772580D02*
G02X-7155140Y-5854750I-42170J-40000D01*
G02X-7237310Y-5772580I-40000J42170D01*
G02X-7184110Y-5675520I42168J39997D01*
G03X-7172200Y-5663610I1932J9978D01*
G02X-7157310Y-5612580I57062J11037D01*
G02X-7072970I42170J40000D01*
G02Y-5692580I-42170J-40000D01*
G02Y-5772580I-42170J-40000D01*
G37*
G36*
G01X64840Y-5900160D02*
G03X58100I-3370J-3802D01*
G02Y-5832240I-30160J33960D01*
G03X64840I3370J3802D01*
G02Y-5900160I30160J-33960D01*
G37*
G36*
G01X-7624430Y-5897570D02*
G02X-7680530Y-5953670I-33240J-22860D01*
G02X-7736630Y-5897570I-22860J33240D01*
G02X-7736050Y-5851030I33239J22859D01*
G02X-7680960Y-5793520I32223J24274D01*
G02X-7625440Y-5850440I22862J-33237D01*
G02X-7624430Y-5897570I-32228J-24266D01*
G37*
G36*
G01X-6087360Y-6019610D02*
G02X-6145940Y-6074950I-30636J-26246D01*
G02X-6205380Y-6020640I-27942J29101D01*
G02X-6146800Y-5965300I30636J26246D01*
G02X-6087360Y-6019610I27942J-29101D01*
G37*
G36*
G01X-7679900Y-6148070D02*
G02X-7681650Y-6193790I-34079J-21589D01*
G02X-7746310I-32330J-24130D01*
G02X-7748060Y-6148070I32329J24131D01*
G02X-7679900I34080J21590D01*
G37*
G36*
G01X-6875780Y-6182110D02*
G02X-6811500Y-6245160I27935J-35812D01*
G02X-6892220Y-6273530I-35301J-28580D01*
G03X-6902620Y-6263330I-10158J44D01*
G02X-6875780Y-6182110I-1099J45408D01*
G37*
G36*
G01X-7333670Y-6303010D02*
G02X-7388860Y-6360380I-32327J-24133D01*
G02X-7444050Y-6303010I-22863J33237D01*
G02X-7388860Y-6245640I32327J24133D01*
G02X-7333670Y-6303010I22863J-33237D01*
G37*
G36*
G01X-8030460Y-6268310D02*
G03Y-6275150I3756J-3420D01*
G02X-8114440Y-6355470I-43022J-39081D01*
G03X-8121570Y-6355440I-3580J-3601D01*
G02X-8205220Y-6274800I-40634J41555D01*
G03Y-6267960I-3756J3420D01*
G02X-8204370Y-6188880I43019J39082D01*
G02X-8121240Y-6107640I42170J40000D01*
G03X-8114110Y-6107670I3580J3601D01*
G02X-8031310Y-6189230I40631J-41561D01*
G02X-8030460Y-6268310I-42169J-39998D01*
G37*
G36*
G01X-2724900Y-6650840D02*
G03X-2724930Y-6636110I-7010J7351D01*
G02X-2644920Y-6635900I39894J42269D01*
G03X-2644890Y-6650630I7010J-7351D01*
G02X-2724900Y-6650840I-39894J-42269D01*
G37*
G36*
G01X-8020770Y-6765970D02*
G03X-8020880Y-6772690I3757J-3422D01*
G02X-8106010Y-6851680I-44221J-37711D01*
G03X-8113110Y-6851630I-3576J-3609D01*
G02X-8196370Y-6770610I-40281J41896D01*
G03X-8196260Y-6763890I-3757J3422D01*
G02X-8194210Y-6686180I44220J37716D01*
G02X-8111130Y-6604900I42161J40005D01*
G03X-8104030Y-6604950I3576J3609D01*
G02X-8021570Y-6686840I40291J-41891D01*
G02X-8020770Y-6765970I-42170J-39995D01*
G37*
G36*
G01X-3349780Y-653420D02*
G02X-3380630Y-623440I-43304J-13698D01*
G03X-3368160Y-610600I2783J9773D01*
G02X-3337310Y-640580I43304J13698D01*
G03X-3349780Y-653420I-2783J-9773D01*
G37*
G36*
G01X-2462670Y-844850D02*
G02X-2513190I-25260J-31450D01*
G03Y-829010I-6366J7920D01*
G02X-2511880Y-765100I25261J31451D01*
G03Y-748740I-6027J8180D01*
G02X-2463980I23950J32460D01*
G03Y-765100I6027J-8180D01*
G02X-2462670Y-829010I-23951J-32459D01*
G03Y-844850I6366J-7920D01*
G37*
G36*
G01X-3610010Y-905480D02*
G02X-3617300Y-853780I-40450J20660D01*
G03X-3600830Y-851460I7421J6938D01*
G02X-3593540Y-903160I40450J-20660D01*
G03X-3610010Y-905480I-7421J-6938D01*
G37*
G36*
G01X-6826790Y-875090D02*
G02X-6860990Y-900440I6792J-44909D01*
G03X-6871140Y-885950I-9172J4375D01*
G02X-6866770Y-806310I-3867J40152D01*
G03X-6854540Y-796250I2071J9946D01*
G02X-6822430Y-835290I40338J452D01*
G03X-6834660Y-845350I-2071J-9946D01*
G02X-6837700Y-861170I-40339J-450D01*
G03X-6826790Y-875090I9390J-3876D01*
G37*
G36*
G01X-3193040Y-1002300D02*
G02X-3254260Y-1004080I-29635J-34420D01*
G03X-3254700Y-989080I-7067J7299D01*
G02X-3268920Y-966460I29643J34415D01*
G03X-3286760Y-962880I-9810J-2644D01*
G02X-3278810Y-923270I-35910J27810D01*
G03X-3260970Y-926850I9810J2644D01*
G02X-3253460Y-919220I35898J-27823D01*
G03X-3251140Y-906000I-6356J7929D01*
G02X-3183960Y-917800I38779J23642D01*
G03X-3186280Y-931020I6356J-7929D01*
G02X-3193480Y-987300I-38781J-23639D01*
G03X-3193040Y-1002300I7067J-7299D01*
G37*
G36*
G01X-8281330Y-1020240D02*
G02X-8318590Y-1016790I-21925J-33861D01*
G03X-8316930Y-998860I-3859J9399D01*
G02X-8321540Y-995380I21937J33854D01*
G03X-8328250Y-995400I-3344J-3823D01*
G02X-8393590Y-953430I-26753J30196D01*
G03X-8403650Y-940320I-9717J2959D01*
G02X-8388930Y-863000I-1349J40318D01*
G03X-8374850Y-852100I4044J9320D01*
G02X-8375280Y-843540I39848J6293D01*
G03X-8385240Y-832810I-10143J572D01*
G02X-8344260Y-794760I705J40334D01*
G03X-8334300Y-805490I10143J-572D01*
G02X-8351070Y-882820I-696J-40332D01*
G03X-8365150Y-893720I-4044J-9320D01*
G02X-8366410Y-911770I-39849J-6287D01*
G03X-8356350Y-924880I9717J-2959D01*
G02X-8328460Y-934820I1347J-40318D01*
G03X-8321750Y-934800I3344J3823D01*
G02X-8279670Y-1002310I26748J-30197D01*
G03X-8281330Y-1020240I3859J-9399D01*
G37*
G36*
G01X-3806820Y-1151550D02*
G02Y-1111890I-40860J19830D01*
G03X-3788540I9140J4441D01*
G02Y-1151550I40860J-19830D01*
G03X-3806820I-9140J-4441D01*
G37*
G36*
G01X-6447010Y-1104940D02*
G02X-6486670I-19830J-40860D01*
G03Y-1086660I-4441J9140D01*
G02Y-1004940I19830J40860D01*
G03Y-986660I-4441J9140D01*
G02X-6447010I19830J40860D01*
G03Y-1004940I4441J-9140D01*
G02Y-1086660I-19830J-40860D01*
G03Y-1104940I4441J-9140D01*
G37*
G36*
G01X-2729530Y-1199020D02*
G02Y-1153020I-33140J23000D01*
G03X-2712840I8345J5796D01*
G02Y-1199020I33140J-23000D01*
G03X-2729530I-8345J-5796D01*
G37*
G36*
G01X-6358230Y-1154940D02*
G02X-6397890I-19830J-40860D01*
G03Y-1136660I-4441J9140D01*
G02Y-1054940I19830J40860D01*
G03Y-1036660I-4441J9140D01*
G02X-6358230I19830J40860D01*
G03Y-1054940I4441J-9140D01*
G02Y-1136660I-19830J-40860D01*
G03Y-1154940I4441J-9140D01*
G37*
G36*
G01X-6885270Y-1532020D02*
G02X-6957900Y-1478690I-39726J22019D01*
G02X-6946410Y-1404940I31322J32890D01*
G03Y-1386660I-4441J9140D01*
G02X-6881320Y-1349630I19832J40861D01*
G03X-6865320Y-1358770I10123J-853D01*
G02X-6857960Y-1354520I26293J-37035D01*
G03X-6857710Y-1336160I-4231J9239D01*
G02X-6865950Y-1259850I20031J40763D01*
G03X-6866420Y-1243600I-6328J7949D01*
G02X-6811950Y-1242050I26201J37100D01*
G03X-6811480Y-1258300I6328J-7949D01*
G02X-6818740Y-1336680I-26201J-37099D01*
G03X-6818990Y-1355040I4231J-9239D01*
G02X-6819190Y-1436660I-20033J-40761D01*
G03Y-1454940I4441J-9140D01*
G02X-6869560Y-1529420I-19829J-40862D01*
G03X-6885270Y-1532020I-6825J-7524D01*
G37*
G36*
G01X-1602050Y-1635510D02*
G02X-1602650Y-1683690I32051J-24493D01*
G03X-1618950Y-1683490I-8224J-5968D01*
G02X-1618350Y-1635310I-32051J24493D01*
G03X-1602050Y-1635510I8224J5968D01*
G37*
G36*
G01X-6881320Y-1741970D02*
G02X-6960790Y-1715930I-45257J-3832D01*
G02X-6889220Y-1662720I30636J33531D01*
G03X-6872560Y-1665170I9158J4402D01*
G02X-6865320Y-1732830I33540J-30628D01*
G03X-6881320Y-1741970I-5877J-8287D01*
G37*
G36*
G01X-6470100Y-1810830D02*
G02X-6490030Y-1840830I20100J-34973D01*
G03X-6505180Y-1830770I-10085J1250D01*
G02X-6485250Y-1800770I-20100J34973D01*
G03X-6470100Y-1810830I10085J-1250D01*
G37*
G36*
G01X-5108140Y-2488930D02*
G02X-5163620I-27740J-51070D01*
G03Y-2471070I-4850J8930D01*
G02X-5108140I27740J51070D01*
G03Y-2488930I4850J-8930D01*
G37*
G36*
G01X-8444190Y-2596600D02*
G02X-8478820Y-2581030I-31911J-24679D01*
G03X-8471470Y-2564680I-687J10136D01*
G02X-8436840Y-2580250I31911J24679D01*
G03X-8444190Y-2596600I687J-10136D01*
G37*
G36*
G01X-8230620Y-2716670D02*
G02X-8230890Y-2752780I35939J-18325D01*
G03X-8249060Y-2752640I-9120J-4474D01*
G02X-8248790Y-2716530I-35939J18325D01*
G03X-8230620Y-2716670I9120J4474D01*
G37*
G36*
G01X-3721970Y-2716170D02*
G02X-3766320Y-2712910I-24643J-31939D01*
G03X-3765570Y-2695650I-4966J8862D01*
G02X-3720190Y-2698980I25567J37540D01*
G03X-3721970Y-2716170I4427J-9146D01*
G37*
G36*
G01X-6819190Y-2793240D02*
G02X-6884280Y-2830270I-19832J-40861D01*
G03X-6900280Y-2821130I-10123J853D01*
G02X-6960020Y-2814840I-26302J37030D01*
G03X-6975340Y-2815260I-7477J-6876D01*
G02X-6976960Y-2755640I-35059J28879D01*
G03X-6961640Y-2755220I7477J6876D01*
G02X-6946410Y-2743240I35050J-28888D01*
G03Y-2724960I-4441J9140D01*
G02X-6900280Y-2647070I19825J40864D01*
G03X-6884280Y-2637930I5877J8287D01*
G02X-6884440Y-2634550I45259J3836D01*
G03X-6889570Y-2629520I-5078J-48D01*
G02X-6869160Y-2543740I-427J45420D01*
G03X-6854340Y-2534600I4663J9024D01*
G02X-6829760Y-2574460I45419J499D01*
G03X-6844580Y-2583600I-4663J-9024D01*
G01Y-2583650D01*
G03X-6839450Y-2588680I5078J48D01*
G02X-6819190Y-2674960I429J-45418D01*
G03Y-2693240I4441J-9140D01*
G02Y-2774960I-19830J-40860D01*
G03Y-2793240I4441J-9140D01*
G37*
G36*
G01X-8202120Y-2850350D02*
G02X-8234710Y-2884990I7439J-39650D01*
G03X-8246660Y-2873750I-10080J1255D01*
G02X-8214070Y-2839110I-7439J39650D01*
G03X-8202120Y-2850350I10080J-1255D01*
G37*
G36*
G01X-6878090Y-3010940D02*
G02X-6879810Y-3054090I39069J-23167D01*
G03X-6897670Y-3053380I-9122J-4471D01*
G02X-6895950Y-3010230I-39069J23167D01*
G03X-6878090Y-3010940I9122J4471D01*
G37*
G36*
G01X-6434310Y-3393240D02*
G02X-6499450Y-3430930I-19831J-40861D01*
G03X-6515250Y-3421790I-10134J708D01*
G02X-6560430Y-3343240I-25350J37688D01*
G03Y-3324960I-4441J9140D01*
G02Y-3243240I19830J40860D01*
G03Y-3224960I-4441J9140D01*
G02Y-3143240I19830J40860D01*
G03Y-3124960I-4441J9140D01*
G02X-6513590Y-3047580I19833J40862D01*
G03X-6498340Y-3043690I6037J8169D01*
G02X-6428820Y-3083980I36580J-17005D01*
G03X-6426660Y-3097930I8301J-5857D01*
G02X-6434310Y-3174960I-27479J-36166D01*
G03Y-3193240I4441J-9140D01*
G02Y-3274960I-19830J-40860D01*
G03Y-3293240I4441J-9140D01*
G02Y-3374960I-19830J-40860D01*
G03Y-3393240I4441J-9140D01*
G37*
G36*
G01X-6435660Y-3847160D02*
G02X-6437800Y-3799610I-54040J21391D01*
G03X-6419280Y-3798770I9072J4575D01*
G02X-6417140Y-3846320I54040J-21391D01*
G03X-6435660Y-3847160I-9072J-4575D01*
G37*
G36*
G01X-6786020Y-4125450D02*
G02X-6786320Y-4078260I-38960J23348D01*
G03X-6768960Y-4078150I8647J5334D01*
G02X-6768660Y-4125340I38960J-23348D01*
G03X-6786020Y-4125450I-8647J-5334D01*
G37*
G36*
G01X-6244180Y-4248580D02*
G02X-6246750Y-4286630I34181J-21420D01*
G03X-6264620Y-4285420I-9259J-4186D01*
G02X-6262050Y-4247370I-34181J21420D01*
G03X-6244180Y-4248580I9259J4186D01*
G37*
G36*
G01X-1461810Y-4546060D02*
G02X-1480340Y-4579750I21811J-33937D01*
G03X-1495990Y-4571140I-10158J64D01*
G02X-1555810Y-4523690I-21809J33937D01*
G03X-1566310Y-4510170I-9574J3402D01*
G02X-1599960Y-4497020I-3696J40172D01*
G03X-1615040I-7540J-6803D01*
G02X-1662830Y-4506190I-29959J27018D01*
G03X-1669630Y-4508500I-2245J-4556D01*
G02X-1688010Y-4454530I-36210J17783D01*
G03X-1681210Y-4452220I2245J4556D01*
G02X-1615040Y-4442980I36213J-17778D01*
G03X-1599960I7540J6803D01*
G02X-1531990Y-4483510I29960J-27016D01*
G03X-1521490Y-4497030I9574J-3402D01*
G02X-1507890Y-4498100I3682J-40170D01*
G03X-1495260Y-4487590I2492J9850D01*
G02X-1464910Y-4524100I40256J2595D01*
G03X-1477540Y-4534610I-2492J-9850D01*
G02X-1477460Y-4537450I-40261J-2555D01*
G03X-1461810Y-4546060I10158J-64D01*
G37*
G36*
G01X-6372840Y-4639570D02*
G02X-6421360Y-4537900I-37182J44668D01*
G03X-6416630Y-4520300I-1977J9967D01*
G02X-6376400Y-4527980I26632J30299D01*
G03X-6378490Y-4546080I3424J-9566D01*
G02X-6357480Y-4570040I-31520J-48831D01*
G03X-6344550Y-4575140I9183J4342D01*
G02X-6358960Y-4640390I14870J-37500D01*
G03X-6372840Y-4639570I-7377J-6986D01*
G37*
G36*
G01X-1898680Y-4832330D02*
G02X-1946880Y-4801890I-39340J-8912D01*
G02X-1946590Y-4782840I39340J8928D01*
G03X-1956760Y-4770140I-9832J2548D01*
G02X-1919050Y-4739960I-1337J40320D01*
G03X-1908880Y-4752660I9832J-2548D01*
G02X-1898680Y-4832330I1335J-40317D01*
G37*
G36*
G01X-2251470Y-4838050D02*
G02X-2284600Y-4810020I-38531J-11948D01*
G03X-2273530Y-4796950I1366J10066D01*
G02X-2240400Y-4824980I38531J11948D01*
G03X-2251470Y-4838050I-1366J-10066D01*
G37*
G36*
G01X-3413150Y-4970630D02*
G02X-3413250Y-4925420I-33460J22531D01*
G03X-3396420Y-4925380I8401J5714D01*
G02X-3396320Y-4970590I33460J-22531D01*
G03X-3413150Y-4970630I-8401J-5714D01*
G37*
G36*
G01X-3407290Y-5093100D02*
G02X-3407970Y-5043000I-38221J24536D01*
G03X-3391020Y-5042770I8399J5719D01*
G02X-3390340Y-5092870I38221J-24536D01*
G03X-3407290Y-5093100I-8399J-5719D01*
G37*
G36*
G01X-3653520Y-5100690D02*
G02Y-5054230I-53280J23230D01*
G03X-3635660Y-5055660I9312J4060D01*
G02Y-5099260I33940J-21800D01*
G03X-3653520Y-5100690I-8548J-5490D01*
G37*
G36*
G01X-3913600Y-5162460D02*
G02X-3967030Y-5092480I-35599J28207D01*
G03X-3963660Y-5076120I-3984J9348D01*
G02X-3898320Y-5066220I29203J27830D01*
G03X-3888670Y-5080880I9101J-4515D01*
G02X-3913600Y-5162460I2468J-45353D01*
G37*
G36*
G01X-4804090Y-5362250D02*
G02X-4852140Y-5389100I946J-58112D01*
G03X-4858830Y-5373650I-8564J5465D01*
G02X-4813740Y-5348450I7428J39649D01*
G03X-4804090Y-5362250I9487J-3640D01*
G37*
G36*
G01X-3306000Y-5805150D02*
G02X-3310310Y-5756200I-40210J21124D01*
G03X-3293290Y-5754700I8027J6226D01*
G02X-3288980Y-5803650I40210J-21124D01*
G03X-3306000Y-5805150I-8027J-6226D01*
G37*
G36*
G01X-4022550Y-6665480D02*
G02X-4069890I-23670J-53080D01*
G03Y-6646920I-4139J9280D01*
G02X-4022550I23670J53080D01*
G03Y-6665480I4139J-9280D01*
G37*
G36*
G01X-3625090Y-2115470D02*
G03X-3610540Y-2116380I7717J6608D01*
G02X-3614510Y-2179530I30540J-33620D01*
G03X-3629060Y-2178620I-7717J-6608D01*
G02X-3625090Y-2115470I-30540J33620D01*
G37*
G36*
G01X-2974880Y-2905750D02*
G03X-2962620Y-2914610I10103J1067D01*
G02X-2994140Y-2958270I8597J-39414D01*
G03X-3006400Y-2949410I-10103J-1067D01*
G02X-3054930Y-2915720I-8599J39411D01*
G03X-3068730Y-2907710I-10060J-1439D01*
G02X-3100380Y-2833530I-14824J37517D01*
G02X-3045070Y-2858120I38491J12078D01*
G02X-3043630Y-2864480I-38495J-12059D01*
G03X-3029830Y-2872490I10060J1439D01*
G02X-2974880Y-2905750I14835J-37513D01*
G37*
G36*
G01X-2984000Y-3014430D02*
G02X-3001870Y-3045050I22359J-33574D01*
G03X-3017640Y-3035850I-10135J744D01*
G02X-2999770Y-3005230I-22359J33574D01*
G03X-2984000Y-3014430I10135J-744D01*
G37*
G36*
G01X-3393890Y-3364680D02*
G02X-3423260Y-3398190I10607J-38922D01*
G03X-3436000Y-3387030I-10067J1360D01*
G02X-3406630Y-3353520I-10607J38922D01*
G03X-3393890Y-3364680I10067J-1360D01*
G37*
G36*
G01X-2969810Y-3718910D02*
G02X-3012140Y-3759410I-1991J-40291D01*
G03X-3016970Y-3754360I-5080J-24D01*
G02X-3055180Y-3717440I1989J40291D01*
G03X-3068460Y-3708640I-10122J-854D01*
G02X-3083200Y-3630020I-12555J38338D01*
G02X-3051850Y-3592860I40281J-2179D01*
G03X-3047940Y-3587180I-1119J4956D01*
G02X-3016500Y-3541960I39923J5783D01*
G03X-3011660Y-3524630I-2129J9936D01*
G02X-3014090Y-3522200I39860J42290D01*
G03X-3030910Y-3525370I-7395J-6970D01*
G02X-3093190Y-3478520I-37411J15089D01*
G03X-3092270Y-3471460I-3132J3998D01*
G02X-3064680Y-3407060I32187J24320D01*
G02X-3054890Y-3377090I40190J3456D01*
G02X-3054290Y-3322260I29890J27091D01*
G02X-3062680Y-3279620I29151J27881D01*
G03X-3073410Y-3265820I-9455J3720D01*
G02X-3104390Y-3194880I-5071J40020D01*
G02X-3104230Y-3149790I33531J22426D01*
G02X-3047820Y-3139350I23043J33111D01*
G02X-3044950Y-3203380I-23040J-33112D01*
G02X-3040940Y-3240560I-33531J-22423D01*
G03X-3030210Y-3254360I9455J-3720D01*
G02X-2995850Y-3322120I5071J-40020D01*
G02X-2994600Y-3376510I-29152J-27879D01*
G02X-2985040Y-3412020I-29891J-27089D01*
G03X-2974610Y-3424290I9937J-2121D01*
G02X-2968620Y-3540370I2810J-58050D01*
G03X-2976100Y-3556730I557J-10145D01*
G02X-2999090Y-3620740I-31919J-24670D01*
G03X-3003000Y-3626420I1119J-4956D01*
G02X-3012060Y-3658170I-39921J-5776D01*
G03X-3006430Y-3674650I7774J-6546D01*
G02X-2974640Y-3713860I-8548J-39423D01*
G03X-2969810Y-3718910I5080J24D01*
G37*
G36*
G01X-546550Y-3302900D02*
G03X-546300Y-3310040I3732J-3444D01*
G02X-628880Y-3312950I-39850J-42309D01*
G03X-629130Y-3305810I-3732J3444D01*
G02X-546550Y-3302900I39850J42309D01*
G37*
G36*
G01X-657920Y-4035000D02*
G02X-582080I37920J25000D01*
G02X-657920I-37920J-25000D01*
G37*
G36*
G01X-580000Y-4602170D02*
G02X-660000I-40000J42170D01*
G02X-742170Y-4520000I-40000J42170D01*
G02X-660000Y-4437830I42170J40000D01*
G02X-580000I40000J-42170D01*
G02X-497830Y-4520000I40000J-42170D01*
G02X-580000Y-4602170I-42170J-40000D01*
G37*
G36*
G01X-1037500Y-4853860D02*
G02Y-4926140I27500J-36140D01*
G02Y-4853860I-27510J36140D01*
G37*
G36*
G01X-1936580Y-5471950D02*
G03Y-5488050I6206J-8050D01*
G02X-1985820I-24620J-31950D01*
G03Y-5471950I-6206J8050D01*
G02Y-5408050I24620J31950D01*
G03Y-5391950I-6206J8050D01*
G02X-1936580I24620J31950D01*
G03Y-5408050I6206J-8050D01*
G02Y-5471950I-24620J-31950D01*
G37*
G36*
G01X-1179560Y-3229250D02*
G02X-1198430Y-3266990I21320J-34248D01*
G03X-1213920Y-3259250I-10120J-882D01*
G02X-1195050Y-3221510I-21320J34248D01*
G03X-1179560Y-3229250I10120J882D01*
G37*
G36*
G01X-2000430Y-3285030D02*
G02X-2033510Y-3337010I5430J-39972D01*
G03X-2044570Y-3329970I-9699J-3029D01*
G02X-2087250Y-3274530I-5427J39971D01*
G03X-2092280Y-3261450I-9384J3898D01*
G02X-2059330Y-3187830I17280J36450D01*
G03X-2045240Y-3177770I3952J9362D01*
G02X-2020670Y-3212170I40243J2769D01*
G03X-2034760Y-3222230I-3952J-9362D01*
G02X-2037750Y-3240470I-40242J-2768D01*
G03X-2032720Y-3253550I9384J-3898D01*
G02X-2011490Y-3277990I-17280J-36451D01*
G03X-2000430Y-3285030I9699J3029D01*
G37*
G36*
G01X-1625820Y-5104760D02*
G02X-1645610Y-5140420I20540J-34720D01*
G03X-1660940Y-5131920I-10156J-243D01*
G02X-1641150Y-5096260I-20540J34720D01*
G03X-1625820Y-5104760I10156J243D01*
G37*
G36*
G01X-1669120Y-5395710D02*
G02X-1706840Y-5377020I-34139J-21491D01*
G03X-1699140Y-5361490I-900J10120D01*
G02X-1661420Y-5380180I34139J21491D01*
G03X-1669120Y-5395710I900J-10120D01*
G37*
G54D28*
X-8224990Y-1795310D03*
X-7366140Y-5994980D03*
X-7438900Y-6066460D03*
Y-5921680D03*
X-7294120Y-6066460D03*
Y-5921680D03*
X-6766560Y-4617720D03*
X-7127240Y-4815840D03*
X-6779260Y-4264660D03*
X-7162800Y-3911600D03*
X-6822440D03*
X-7072710Y-3794760D03*
X-6604000Y-3771900D03*
X-6971110Y-3796500D03*
X-6820000Y-3330000D03*
X-6850380Y-2387600D03*
X-6839020Y-1895800D03*
X-6984560Y357400D03*
X-6291580Y-5573700D03*
X-6362700Y-5359400D03*
X-5839200Y-4556500D03*
X-5836920Y-4426500D03*
X-5825580Y-4296500D03*
X-6466840Y-3535680D03*
X-6134100Y-3073400D03*
X-6390640Y-2446020D03*
X-6311900Y-3073400D03*
X-6510000Y-1595800D03*
X-6344560Y-217600D03*
X-6518600Y-745800D03*
X-6441440Y117960D03*
X-6369960Y45200D03*
X-6441440Y-26820D03*
X-6296660Y117960D03*
Y-26820D03*
X-5265420Y-5699760D03*
X-5176520Y-5811520D03*
X-5763260Y-5808980D03*
X-5220500Y-5996430D03*
X-5367020Y-5422900D03*
X-5519420Y-5524500D03*
X-5729870Y-5501640D03*
X-5367020Y-5646420D03*
X-5260340Y-5445760D03*
X-5412730Y-5905510D03*
X-5610860Y-5105400D03*
X-5315120Y-5129700D03*
X-5440000Y-2620000D03*
X-5511900Y-2158010D03*
X-5664560Y407400D03*
X-4632960Y-5478780D03*
X-4973320Y-5346700D03*
X-3667760Y-6586220D03*
X-3900930Y-5514340D03*
X-4055860Y-5304790D03*
X-4176270Y-2628390D03*
X-3594100Y-2628900D03*
X-3650460Y-989820D03*
Y-1094820D03*
X-3977680Y-361720D03*
X-3285620Y-6837680D03*
X-3413300Y-5565600D03*
X-3334020Y-4446000D03*
X-3479800Y-2628900D03*
X-3365500D03*
X-2882200Y-1710600D03*
X-3162680Y-1121720D03*
X-3312680Y-1126720D03*
X-2900000Y-1355000D03*
X-3464560Y-739140D03*
X-3319780D03*
X-3464560Y-594360D03*
X-2339340Y-6250940D03*
X-2144780D03*
X228600Y-6421120D03*
X251460Y-5509260D03*
X235150Y-6060970D03*
X-3778410Y-1568290D03*
X-2692400Y-3002280D03*
X-2973070Y-5990590D03*
X-3018540Y-2018510D03*
X-2720000Y-5806440D03*
X-2133600Y-2542540D03*
X-1424940Y-5031740D03*
X-1386990Y-4805000D03*
X-1640000Y-4930000D03*
X-1663700Y-2722880D03*
X-760000Y-3900000D03*
X-510540Y-3741420D03*
G54D24*
X-8141970Y-7181850D03*
X-8740000Y-2550000D03*
X-8725000Y-1346200D03*
X-6176260Y-7250180D03*
X-4053840Y-7292340D03*
X-1947720Y-7252160D03*
X-8346440Y-4699000D03*
X-8290560Y-4772660D03*
X-8476240Y-3534100D03*
Y-3434100D03*
Y-3334100D03*
X-8375440Y-3284100D03*
Y-3384100D03*
X-8379460Y-3538220D03*
X-8476240Y-3234100D03*
X-8273580Y-2375000D03*
X-8350000Y-2265000D03*
X-8409320Y-1390000D03*
X-8145000Y-1145800D03*
X-8255000Y-1195800D03*
X-8011160Y-4699000D03*
X-7447280Y-4693920D03*
X-7719060Y-3916680D03*
X-8085000Y-2684100D03*
X-7710000Y-2933800D03*
X-7807760Y-2690000D03*
X-7790000Y-2270000D03*
X-7495540Y579120D03*
X-7647940Y581660D03*
X-7071360Y-6677660D03*
X-7322820Y-4886300D03*
X-6654800Y-5303520D03*
X-7299180Y-4529600D03*
X-6758940Y-3802380D03*
X-7250000Y-3040000D03*
X-7219100Y-2940000D03*
X-7159100Y-2000000D03*
X-5861720Y-6614160D03*
X-5960600Y-5653260D03*
X-6390000Y-4260000D03*
Y-4040000D03*
X-6497320Y-4284980D03*
X-6465000Y-4395800D03*
X-6311900Y-3406140D03*
X-5918200Y-3845560D03*
X-6512580Y-2484100D03*
X-5460000Y-6330000D03*
X-5083810Y-6709410D03*
X-5236210Y-6762750D03*
X-5803900Y-5384800D03*
X-5646590Y-4948090D03*
X-5446590Y-4848090D03*
X-5546590D03*
X-5446590Y-4748090D03*
X-5246590D03*
X-5346590D03*
Y-4648090D03*
X-5246590D03*
X-5146590Y-3948090D03*
X-5246590D03*
X-5446590Y-4148090D03*
X-5546590Y-4048090D03*
X-5646590D03*
X-5446590Y-3948090D03*
X-5246590Y-4048090D03*
X-5346590Y-3948090D03*
X-5246590Y-4548090D03*
Y-4148090D03*
X-5146590Y-4048090D03*
X-5246590Y-3748110D03*
X-5146590D03*
X-5646590D03*
X-5546590D03*
X-5346590Y-3648110D03*
X-5246590D03*
X-5146590D03*
X-5446590D03*
X-5346590Y-2748110D03*
X-5546590D03*
X-5346590Y-2948110D03*
X-5246590D03*
X-5146590D03*
X-5546590D03*
X-5446590D03*
Y-2748110D03*
X-5146590D03*
X-5446590Y-2848110D03*
X-5346590D03*
X-5246590D03*
X-5146590D03*
X-5546590D03*
X-5350000Y-980000D03*
X-5455920Y-1559560D03*
X-5461000Y-165100D03*
X-5097780Y-342900D03*
X-4594860Y-6720840D03*
X-4970780Y-6631940D03*
X-4846320Y-6616700D03*
X-4594860Y-6192520D03*
X-4518660Y-5963920D03*
X-4658360Y-5930900D03*
X-4794250Y-5965190D03*
X-4913630Y-6005830D03*
X-4861560Y-6083300D03*
X-4785360Y-5186680D03*
X-4746590Y-4648090D03*
X-4446610Y-4948090D03*
X-4346610Y-4848090D03*
Y-4748090D03*
Y-4648090D03*
X-4746590Y-4848090D03*
Y-4748090D03*
X-4546610Y-3148110D03*
X-4340000Y-2636920D03*
X-4346610Y-3048110D03*
X-4446610D03*
X-4746590D03*
X-4846590D03*
X-4946590D03*
X-5046590D03*
X-4646590Y-2948110D03*
X-4446610D03*
X-4346610D03*
X-5046590D03*
X-4946590D03*
X-4846590D03*
X-4746590D03*
X-4346610Y-2748110D03*
X-4646590D03*
X-4746590D03*
X-4846590D03*
X-4946590D03*
X-5046590D03*
X-4646590Y-2848110D03*
X-4446610D03*
X-4346610D03*
X-5046590D03*
X-4946590D03*
X-4846590D03*
X-4746590D03*
X-4550000Y-2052320D03*
X-3680460Y-6697980D03*
X-3935000Y-5985000D03*
X-3985260Y-5370310D03*
X-3846610Y-4948090D03*
X-3646610D03*
X-3546610D03*
Y-4848090D03*
X-3646610D03*
X-3546610Y-4748090D03*
X-3646610D03*
X-3746610D03*
X-3846610D03*
X-4246610Y-4948090D03*
X-4146610D03*
X-3946610D03*
Y-4848090D03*
X-4046610D03*
X-4146610D03*
X-4246610D03*
X-3946610Y-4748090D03*
X-4046610D03*
X-4146610D03*
X-4246610D03*
Y-4648090D03*
X-4146610D03*
X-4046610D03*
X-3846610Y-4848090D03*
X-4146610Y-4448110D03*
X-4246610Y-3048110D03*
Y-2948110D03*
X-4048760Y-2618740D03*
X-3546610Y-2748110D03*
X-4185920Y-2171700D03*
Y-2298700D03*
X-2895000Y-4725000D03*
X-3063240Y-4953000D03*
Y-5067300D03*
X-3395520Y-5341160D03*
X-3070000Y-4045000D03*
X-3446610Y-4248090D03*
Y-4048090D03*
Y-3948090D03*
X-2182620Y-4862830D03*
X-2321560Y-4688840D03*
X-2196990Y-4571320D03*
X-2239240Y-4069080D03*
X-2100000Y-1650000D03*
X-2171700Y-1920240D03*
X-2108200Y-1137920D03*
X-2062480Y-1000760D03*
X-2645170Y-1471690D03*
X-2641600Y-762000D03*
X-2140580Y-551820D03*
X-2115820Y-396240D03*
X-2560000Y170000D03*
X-1585000Y-4070000D03*
X-1940560Y-4610100D03*
X-1685000Y-3950000D03*
X-1760000Y-1660000D03*
X-1320000Y-1740000D03*
X-1947750Y-2103550D03*
X-1859890Y-2168550D03*
X-1409700Y-1315720D03*
X-1663700Y-140970D03*
X-1695450Y473710D03*
X-556260Y-1856740D03*
X-657860Y-1394460D03*
X-637540Y-1026160D03*
X-1026160Y-1117600D03*
X-650240Y-391160D03*
X-1090930Y-257810D03*
X-967740Y259080D03*
X-868680Y294640D03*
X-1036320Y170180D03*
X-208280Y-5910580D03*
X-5246590Y-3348110D03*
X-5346590D03*
X-5446590D03*
X-5546590D03*
X-5646590D03*
X-5246590Y-3248110D03*
X-5346590D03*
X-5446590D03*
X-5546590D03*
X-5646590D03*
X-5770480Y-3139440D03*
X-5046590Y-4348110D03*
X-4846590Y-3948090D03*
X-4646590Y-4048090D03*
X-4446610D03*
X-4346610D03*
X-4446610Y-3948090D03*
X-4346610D03*
X-4646590Y-4148090D03*
X-4446610D03*
X-4346610D03*
X-4746590D03*
Y-3948090D03*
X-4846590Y-4048090D03*
X-4746590D03*
X-4846590Y-4148090D03*
X-4646590Y-3948090D03*
X-4746590Y-3648110D03*
X-4646590Y-3548110D03*
X-4746590D03*
X-4846590D03*
X-4346610D03*
X-4646590Y-3648110D03*
X-4446610D03*
X-4346610D03*
X-4646590Y-3748110D03*
X-4446610D03*
X-4346610D03*
X-4846590Y-3648110D03*
Y-3748110D03*
X-4746590D03*
X-4446610Y-3548110D03*
X-4246610Y-3948090D03*
X-3746610Y-4448090D03*
X-3646610D03*
Y-4348090D03*
Y-4148090D03*
X-3846610Y-4048090D03*
X-3746610D03*
X-3646610Y-3948090D03*
X-3746610D03*
X-3946610Y-4048090D03*
X-4246610D03*
X-4046590Y-3648110D03*
Y-3548090D03*
X-3746610Y-3748110D03*
X-3846610D03*
X-3946610D03*
X-3546610D03*
X-3646610D03*
X-3746610Y-3648110D03*
X-3846610D03*
X-3546610D03*
X-3646610D03*
X-3746610Y-3548110D03*
X-3846610D03*
X-3946610D03*
X-3546610D03*
X-3646610D03*
X-3746610Y-3448110D03*
X-3846610D03*
X-3546610D03*
X-3646610D03*
X-4246610Y-3548110D03*
X-3546610Y-3348110D03*
X-3646610D03*
X-3746610D03*
X-3846610D03*
X-4246610Y-3648110D03*
X-3546610Y-3248110D03*
X-3646610D03*
X-3746610D03*
X-4246610Y-3748110D03*
X-3646610Y-3148110D03*
X-3746610D03*
X-3846610D03*
X-3946610Y-3648110D03*
Y-3448110D03*
X-3646610Y-3048110D03*
X-3546610D03*
X-3746610D03*
X-3846610D03*
X-3946610D03*
X-3846610Y-2948110D03*
X-3746610D03*
X-3646610D03*
X-3546610D03*
X-3946610D03*
X-2969260Y-3154680D03*
X-3350260Y-3314700D03*
X-3291840Y-3225800D03*
X-3446610Y-3748110D03*
Y-3648110D03*
Y-3548110D03*
X-3312540Y-3047620D03*
X-3446610Y-3048110D03*
X-2210000Y-5520000D03*
Y-5400000D03*
X-2030000Y-3600000D03*
X-2073730Y-2716990D03*
X-2074440Y-2952500D03*
X-2199120Y-2716990D03*
X-2025000Y-3075000D03*
X-1570000Y-5050000D03*
X-1841500Y-3362960D03*
X-1790000Y-2535000D03*
X-1913010Y-2716270D03*
X-1820000Y-2720000D03*
X-800000Y-3800000D03*
X-1157840Y-3362160D03*
Y-3517500D03*
X-1238580Y-3075000D03*
G54D32*
X7000Y-2919000D03*
Y-2665000D03*
Y-2411000D03*
X-247000D03*
Y-2157000D03*
X7000Y-1903000D03*
X-247000D03*
X7000Y-1649000D03*
X-247000D03*
X7000Y-2157000D03*
Y-1395000D03*
X-247000D03*
X7000Y-1141000D03*
X-247000D03*
X7000Y-887000D03*
X-247000D03*
G54D27*
X-8140700Y-2484100D03*
Y-845800D03*
X-7124700Y-2484100D03*
Y-845800D03*
G54D25*
X-2538930Y-7265420D03*
X-2411930D03*
X-2686240Y-7264010D03*
X-8234680Y-4099560D03*
X-6502100Y-5689600D03*
X-5859700Y-5900500D03*
X-6527800Y-5076500D03*
X-6096000Y-4701540D03*
X-6160000Y-2138180D03*
X-4914900Y-5702300D03*
X-4564900Y-5003800D03*
X-4720000Y-2165940D03*
X-4426350Y-2137810D03*
X-4064000Y-5156200D03*
X-3345200Y-4666000D03*
X-2870200Y-4480560D03*
X-2722880Y-1808480D03*
X-2171700Y-195580D03*
X-645800Y-5657690D03*
X-525000Y-2205000D03*
X-1051560Y-1315720D03*
X-95000Y-6100000D03*
X-3760400Y-2043500D03*
X-3052100Y-2386460D03*
X-2700020Y-3482340D03*
X-2520000Y-3149600D03*
X-1620000Y-3150000D03*
X-1701800Y-3274060D03*
X-1536700D03*
X-1313960Y-2472980D03*
X-1531620Y-3030220D03*
X-1446040Y-2472980D03*
X-1704340Y-3022600D03*
X-581660Y-3497580D03*
X-590000Y-2885000D03*
X-775000Y-2480000D03*
X-590000D03*
X-244390Y-4729480D03*
X96520Y-3597980D03*
Y-3462020D03*
G54D29*
X-3585630Y-6918210D03*
X-3145630D03*
X-350130Y74640D03*
Y514640D03*
G54D30*
X-3570000Y-5860000D03*
G54D31*
X-1440000Y-5790000D03*
G54D26*
X-360680Y-6416040D03*
G54D23*
X-830580Y-6715760D03*
%LPD*%
G75*
G54D10*
X-8476240Y-3334100D03*
Y-3534100D03*
Y-3234100D03*
Y-3434100D03*
Y-2984100D03*
X-8740000Y-2550000D03*
X-8476100Y-2621280D03*
X-8724900Y-1938460D03*
X-8719820Y-1699260D03*
X-8724900Y-1877060D03*
X-8727440Y-1755140D03*
X-8730510Y-1646680D03*
X-8719820Y-1590040D03*
X-8727440Y-1813560D03*
X-8725000Y-1346200D03*
X-8724900Y-868680D03*
Y-924560D03*
X-8719820Y-797560D03*
X-8141970Y-7181850D03*
X-8087360Y-7371080D03*
X-8133080D03*
X-8087360Y-7325360D03*
X-8133080D03*
X-8085230Y-6971840D03*
X-8128410D03*
X-8084820Y-6929120D03*
X-8128000D03*
X-8276810Y-5757300D03*
X-8325070D03*
X-8375870D03*
X-8276810Y-5711580D03*
X-8325070D03*
X-8375870D03*
X-8277860Y-5666740D03*
X-8326120D03*
X-8376920D03*
X-8290560Y-4772660D03*
X-8346440Y-4699000D03*
X-8365110Y-4977790D03*
X-8410830D03*
X-8365110Y-4932070D03*
X-8410830D03*
X-8364220Y-4886960D03*
X-8409940D03*
X-8379460Y-3538220D03*
X-8375440Y-3384100D03*
Y-3284100D03*
X-8194680Y-2890000D03*
X-8371840Y-2971800D03*
X-8473440Y-3045000D03*
X-8356600Y-3045460D03*
X-8417560D03*
X-8254100Y-2834100D03*
X-8273580Y-2375000D03*
X-8471860Y-2384100D03*
X-8439560Y-2540000D03*
X-8416080Y-2387600D03*
X-8085000Y-2684100D03*
X-8285000Y-2734310D03*
X-8194680Y-2735000D03*
X-8422480Y-2334100D03*
X-8350000Y-2265000D03*
X-8215000Y-1545800D03*
X-8249870Y-1495720D03*
X-8225000Y-1295000D03*
X-8300000Y-1295800D03*
X-8409320Y-1390000D03*
X-8303260Y-1054100D03*
X-8145000Y-1145800D03*
X-8255000Y-1195800D03*
X-8191500Y-1390000D03*
X-8335000Y-845820D03*
X-8405000Y-900000D03*
X-8384540Y-792480D03*
X-8295000Y-965000D03*
X-8355000Y-965200D03*
X-7781120Y-7379850D03*
Y-7334130D03*
X-7735400D03*
Y-7379850D03*
X-7713980Y-6126480D03*
Y-6217920D03*
Y-6169660D03*
X-7657670Y-5920430D03*
X-7703390D03*
X-7657670Y-5874710D03*
X-7703390D03*
X-7658100Y-5826760D03*
X-7703820D03*
X-8011160Y-4699000D03*
X-7815580Y-4386580D03*
X-7861300D03*
X-7907020D03*
X-7815580Y-4340860D03*
X-7861300D03*
X-7907020D03*
X-7719060Y-3916680D03*
X-7710000Y-2933800D03*
X-7811400Y-2781400D03*
X-7807760Y-2690000D03*
X-7790000Y-2270000D03*
X-7647940Y581660D03*
X-7366000Y-6327140D03*
X-7411720D03*
X-7366000Y-6278880D03*
X-7411720D03*
X-7322820Y-4886300D03*
X-7447280Y-4693920D03*
X-7299180Y-4529600D03*
X-7250000Y-3040000D03*
X-7219100Y-2940000D03*
X-7159100Y-2000000D03*
X-7495540Y579120D03*
X-7048500Y-7167880D03*
X-7071360Y-6677660D03*
X-6758940Y-3802380D03*
X-6814200Y-795800D03*
X-6875000Y-845800D03*
X-6654800Y-5303520D03*
X-6329680Y-4612640D03*
X-6465000Y-4395800D03*
X-6497320Y-4284980D03*
X-6390000Y-4490000D03*
Y-4260000D03*
X-6298800Y-4264000D03*
X-6390000Y-4040000D03*
X-6311900Y-3406140D03*
X-6461760Y-3060700D03*
X-6512580Y-2484100D03*
X-6450000Y-1845800D03*
X-6525280Y-1795800D03*
X-6520000Y-825000D03*
X-6294120Y403860D03*
X-6176260Y-7250180D03*
X-6206180Y-6764550D03*
X-6156960Y-7056120D03*
X-6200140D03*
X-6201700Y-7010950D03*
X-6158520D03*
X-6210300Y-7155180D03*
X-6205020Y-6721390D03*
X-5861720Y-6614160D03*
X-6173880Y-6045850D03*
X-6118000D03*
X-6118860Y-5994400D03*
X-6174740D03*
X-5960600Y-5653260D03*
X-6210000Y-4270000D03*
X-5918200Y-3845560D03*
X-6018010Y-3378200D03*
X-6016840Y-3175000D03*
X-6042660Y-2547620D03*
X-6035040Y-2717800D03*
X-6248400Y403860D03*
X-5460000Y-6330000D03*
X-5803900Y-5384800D03*
X-5446590Y-4948090D03*
X-5646590Y-4848090D03*
X-5546590Y-4948090D03*
X-5446590Y-4748090D03*
X-5546590Y-4848090D03*
X-5646590Y-4948090D03*
X-5446590Y-4848090D03*
X-5546590Y-4248090D03*
X-5446590Y-4148090D03*
X-5646590Y-3748110D03*
X-5546590D03*
X-5446590Y-3948090D03*
X-5646590Y-4048090D03*
X-5546590D03*
X-5791200Y-3505200D03*
X-5546590Y-3248110D03*
Y-3448110D03*
Y-3348110D03*
X-5646590Y-3448110D03*
Y-3348110D03*
X-5446590D03*
Y-3248110D03*
X-5646590D03*
Y-3548110D03*
X-5446590Y-3448110D03*
Y-3648110D03*
X-5546590Y-3548110D03*
X-5446590D03*
X-5546590Y-2948110D03*
X-5446590Y-3148110D03*
Y-3048110D03*
X-5646590Y-2948110D03*
X-5770480Y-3139440D03*
X-5546590Y-3148110D03*
X-5646590Y-2848110D03*
Y-3048110D03*
X-5546590D03*
X-5446590Y-2948110D03*
X-5546590Y-2848110D03*
X-5446590D03*
Y-2748110D03*
X-5646590D03*
X-5546590D03*
X-5455920Y-1559560D03*
X-5461000Y-165100D03*
X-5537200Y563880D03*
Y507400D03*
X-5588600D03*
X-5186680Y-7218680D03*
Y-7272020D03*
Y-7325360D03*
X-5236210Y-6762750D03*
X-5184140Y-7162800D03*
X-5083810Y-6709410D03*
X-4970780Y-6631940D03*
X-5046590Y-4548090D03*
Y-4948090D03*
X-5246590Y-4548090D03*
X-5146590Y-4548060D03*
X-5346590Y-4648090D03*
X-5246590D03*
Y-4748090D03*
X-5346590D03*
X-5246590Y-4348090D03*
Y-4448090D03*
Y-4248090D03*
X-5046590Y-4348110D03*
X-5046610Y-4148090D03*
X-5146590D03*
Y-4448090D03*
Y-4348090D03*
X-5046590Y-4448110D03*
X-5246590Y-4148090D03*
X-5143500Y-4249420D03*
X-5146590Y-3748110D03*
X-5246590D03*
Y-3948090D03*
X-5146590D03*
X-5246590Y-4048090D03*
X-5146590D03*
X-5046610D03*
X-5346590Y-3948090D03*
X-5246590Y-3248110D03*
X-5346590Y-3448110D03*
Y-3348110D03*
Y-3248110D03*
X-5146590Y-3648110D03*
X-5246590D03*
X-5046590Y-3248110D03*
X-5042800Y-3658270D03*
X-5246590Y-3548110D03*
X-5146590D03*
Y-3248110D03*
Y-3348110D03*
X-5246590D03*
Y-3448110D03*
X-5346590Y-3648110D03*
X-5146590Y-3448110D03*
X-5346590Y-3148110D03*
X-5046590Y-2848110D03*
Y-3048110D03*
X-5146590D03*
X-5246590Y-2848110D03*
X-5146590Y-2948110D03*
X-5246590D03*
X-5046590D03*
X-5146590Y-2848110D03*
X-5346590D03*
X-5146590Y-3148110D03*
X-5346590Y-3048110D03*
Y-2948110D03*
X-5246590Y-3048110D03*
X-5046590Y-3148110D03*
X-5246590D03*
X-5046590Y-2748110D03*
X-5146590D03*
X-5346590D03*
X-5246590D03*
X-5350000Y-980000D03*
X-5097780Y-342900D03*
X-4594860Y-6720840D03*
X-4846320Y-6616700D03*
X-4913630Y-6005830D03*
X-4658360Y-5930900D03*
X-4861560Y-6083300D03*
X-4794250Y-5965190D03*
X-4594860Y-6192520D03*
X-4785360Y-5186680D03*
X-4851400Y-5334000D03*
X-4746590Y-4848090D03*
Y-4748090D03*
Y-4648090D03*
X-4646590Y-4548090D03*
X-4946590D03*
X-4846590D03*
X-4946590Y-4948090D03*
X-4746590Y-4548090D03*
Y-4348110D03*
X-4846590Y-4448090D03*
X-4946590D03*
X-4646590Y-4148090D03*
X-4746590D03*
X-4846590D03*
X-4646590Y-4448090D03*
Y-3748110D03*
X-4746590D03*
X-4846590D03*
X-4646590Y-3948090D03*
Y-4048090D03*
X-4746590Y-3948090D03*
Y-4048090D03*
X-4846590D03*
Y-3948090D03*
X-4946590Y-3348090D03*
X-4846590D03*
X-4646590D03*
Y-3548110D03*
Y-3648110D03*
X-4746590Y-3548110D03*
Y-3648110D03*
X-4846590Y-3548110D03*
Y-3648110D03*
X-4746590Y-3248110D03*
X-4646590D03*
X-4546590D03*
X-4946590D03*
X-4846590D03*
X-4646590Y-2848110D03*
X-4846590Y-3048110D03*
X-4946590Y-2848110D03*
X-4846590Y-2948110D03*
Y-2848110D03*
X-4746590Y-3048110D03*
Y-2848110D03*
X-4946590Y-2948110D03*
X-4746590D03*
X-4946590Y-3048110D03*
X-4646590Y-2948110D03*
X-4946590Y-3148110D03*
X-4746590D03*
X-4846590D03*
X-4546610D03*
X-4846590Y-2748110D03*
X-4746590D03*
X-4646590D03*
X-4946590D03*
X-4550000Y-2052320D03*
X-4160700Y-6993710D03*
X-4211500D03*
X-4262300D03*
X-4163060Y-6944360D03*
X-4213860D03*
X-4264660D03*
X-4518660Y-5963920D03*
X-4330700Y-5537200D03*
Y-5461000D03*
X-4178300D03*
X-4483100Y-5537200D03*
X-4178300D03*
X-4483100Y-5461000D03*
X-4218940Y-5096670D03*
X-4193470Y-5049800D03*
X-4146610Y-4948090D03*
X-4246610D03*
Y-4648090D03*
Y-4848090D03*
Y-4748090D03*
X-4146610Y-4648090D03*
X-4446610Y-4548090D03*
X-4146610Y-4748090D03*
X-4346610Y-4848090D03*
X-4146610D03*
X-4346610Y-4648090D03*
Y-4748090D03*
X-4146610Y-4548090D03*
X-4246610D03*
X-4346610D03*
X-4446610Y-4948090D03*
X-4246610Y-4348110D03*
X-4146610D03*
X-4346610D03*
X-4446610Y-4448090D03*
X-4246610Y-4148090D03*
X-4146610Y-4448110D03*
X-4346610Y-4148090D03*
X-4446610D03*
X-4346610Y-4448110D03*
X-4246610Y-3748110D03*
X-4346610D03*
X-4446610D03*
X-4246610Y-3948090D03*
Y-4048090D03*
X-4346610Y-3948090D03*
Y-4048090D03*
X-4446610Y-3948090D03*
Y-4048090D03*
X-4146610Y-3248110D03*
X-4446610Y-3348090D03*
X-4346610D03*
X-4246610Y-3548110D03*
Y-3648110D03*
X-4246590Y-3248110D03*
X-4346610Y-3548110D03*
Y-3648110D03*
X-4446610Y-3548110D03*
Y-3648110D03*
X-4446590Y-3248110D03*
X-4346590D03*
X-4246610Y-2948110D03*
X-4446610Y-2848110D03*
X-4146610Y-2948110D03*
Y-3048110D03*
X-4446610Y-2948110D03*
Y-3048110D03*
X-4346610Y-2848110D03*
Y-2948110D03*
Y-3048110D03*
X-4246610D03*
Y-3148110D03*
X-4146610D03*
X-4446610D03*
X-4346610D03*
X-4340000Y-2636920D03*
X-4346610Y-2748110D03*
X-4446610D03*
X-4185920Y-2171700D03*
Y-2298700D03*
X-4053840Y-7292340D03*
X-3680460Y-6697980D03*
X-3935000Y-5985000D03*
X-4036060Y-5461000D03*
X-4025900Y-5537200D03*
X-3985260Y-5370310D03*
X-3934460Y-5048290D03*
X-4046610Y-4548090D03*
Y-4748090D03*
X-3946610Y-4848090D03*
X-3846610Y-4948090D03*
X-3946610Y-4748090D03*
X-3846610D03*
Y-4848090D03*
X-3746610Y-4548090D03*
X-4046610Y-4848090D03*
X-3646610Y-4548090D03*
X-4046610Y-4648090D03*
X-3946610Y-4948090D03*
X-4046610D03*
X-3946610Y-4548090D03*
X-3846610D03*
X-3646610Y-4648090D03*
Y-4748090D03*
X-3746610Y-4648090D03*
X-3646610Y-4948090D03*
Y-4848090D03*
X-3746610Y-4748090D03*
X-3846610Y-4648090D03*
Y-4348090D03*
X-3646610D03*
X-3746610Y-4248090D03*
Y-4148090D03*
X-3646610Y-4448090D03*
X-3846610Y-4148090D03*
Y-4248090D03*
X-4046590D03*
X-3846610Y-4448090D03*
X-3946610Y-4348090D03*
X-3746610Y-4448090D03*
X-3646610Y-4148090D03*
X-3946610D03*
X-3746610Y-3748110D03*
X-3846610D03*
X-3746610Y-4048090D03*
X-3846610D03*
X-3646610Y-3948090D03*
X-3746610D03*
X-3946610Y-4048090D03*
X-3646610Y-3748110D03*
X-3946610Y-3948090D03*
X-3846610D03*
X-3946610Y-3748110D03*
X-3746610Y-3348110D03*
X-3846610D03*
X-3746610Y-3248110D03*
X-4046590Y-3548090D03*
X-3846610Y-3648110D03*
Y-3448110D03*
X-4046590Y-3648110D03*
X-3646610Y-3448110D03*
Y-3248110D03*
X-3746610Y-3548110D03*
X-3646610D03*
Y-3348110D03*
Y-3648110D03*
X-3846610Y-3548110D03*
X-3946610Y-3348110D03*
Y-3248110D03*
X-4046610Y-3348090D03*
X-3746610Y-3648110D03*
X-3946610D03*
X-4046610Y-3248110D03*
X-3946610Y-3548110D03*
Y-3448110D03*
X-3746610D03*
X-4046610Y-3048110D03*
X-3946610Y-2848110D03*
X-3646610Y-3148110D03*
X-4046610Y-2948110D03*
X-3746610Y-2848110D03*
X-3946610Y-2948110D03*
Y-3048110D03*
X-3846610Y-2848110D03*
Y-2948110D03*
X-4046610Y-3148110D03*
X-3946610D03*
X-3746610D03*
X-3646610Y-3048110D03*
X-3746610D03*
X-3646610Y-2948110D03*
X-3746610D03*
X-3846610Y-3048110D03*
Y-3148110D03*
X-3810000Y-2352040D03*
X-3903980Y-2357120D03*
X-4048760Y-2618740D03*
X-4047550Y-2379680D03*
X-3746610Y-2748110D03*
X-3670300Y-2349500D03*
X-3846610Y-2748110D03*
X-3601720Y-5556980D03*
X-3395520Y-5341160D03*
X-3601720Y-5077460D03*
X-3546610Y-4548090D03*
Y-4648090D03*
X-3362960Y-4947920D03*
X-3446610Y-4748090D03*
Y-4948090D03*
Y-4848090D03*
X-3546610Y-4748090D03*
Y-4848090D03*
Y-4948090D03*
X-3291840Y-4114800D03*
X-3546610Y-4448090D03*
X-3446610Y-4248090D03*
X-3291840Y-4203700D03*
X-3546610Y-4348090D03*
X-3291840Y-4292600D03*
X-3446610Y-4348090D03*
X-3546610Y-4148090D03*
Y-4248090D03*
X-3446610Y-3748110D03*
X-3291840Y-3670300D03*
X-3446610Y-3948090D03*
X-3295000Y-3848100D03*
X-3291840Y-3759200D03*
X-3546610Y-3948090D03*
Y-3748110D03*
X-3291840Y-4025900D03*
Y-3937000D03*
X-3546610Y-3848090D03*
X-3446610Y-4048090D03*
X-3546610D03*
Y-3648110D03*
Y-3348110D03*
X-3350260Y-3314700D03*
X-3546610Y-3448110D03*
X-3383280Y-3403600D03*
X-3446610Y-3648110D03*
X-3291840Y-3492500D03*
X-3446610Y-3548110D03*
X-3546610Y-3248110D03*
Y-3548110D03*
X-3291840Y-3581400D03*
X-3446610Y-3348110D03*
X-3312540Y-3047620D03*
X-3324860Y-2870200D03*
X-3446610Y-3048110D03*
X-3291840Y-3225800D03*
X-3446610Y-2848110D03*
X-3546610Y-2948110D03*
Y-2848110D03*
Y-3048110D03*
X-3479800Y-2379980D03*
X-3546610Y-2748110D03*
X-3040000Y-6480000D03*
X-3063240Y-5067300D03*
X-2895000Y-4725000D03*
X-3063240Y-4953000D03*
X-3004820Y-4335780D03*
X-2940000Y-4230000D03*
X-3042920Y-4292600D03*
X-2997200Y-4254500D03*
X-2981960Y-4163810D03*
X-3070000Y-3937000D03*
Y-4045000D03*
X-2971800Y-3759200D03*
X-3014980Y-3714070D03*
X-3030000Y-3895000D03*
X-3081020Y-3670300D03*
X-2950000Y-4055000D03*
X-2990000Y-3996910D03*
X-3075000Y-3805000D03*
X-3025000Y-3350000D03*
X-3025140Y-3294380D03*
X-3024490Y-3403600D03*
X-3042920Y-3632200D03*
X-3008020Y-3581400D03*
X-3060080Y-3447140D03*
X-3068320Y-3510280D03*
X-3081190Y-3116680D03*
X-3040000Y-3002280D03*
X-3083560Y-2870200D03*
X-3078480Y-3225800D03*
X-2954020Y-2954020D03*
X-2969260Y-3154680D03*
X-3061890Y-2821450D03*
X-3070860Y-3172460D03*
X-2961640Y-3048000D03*
X-3015000Y-2910000D03*
X-2395000Y-3865000D03*
X-2400000Y-3790000D03*
X-2645170Y-1471690D03*
X-2679700Y-1176020D03*
X-2762670D03*
X-2487930Y-797560D03*
X-2641600Y-762000D03*
X-2487930Y-876300D03*
Y-716280D03*
X-2496260Y-556260D03*
X-2492480Y-477520D03*
X-2560000Y170000D03*
X-1947720Y-7252160D03*
X-2189480Y-7076440D03*
X-1961200Y-5440000D03*
Y-5520000D03*
X-2210000D03*
X-2249400Y-5026660D03*
X-1982700Y-5097200D03*
X-1910000Y-5010000D03*
X-1960000Y-5045000D03*
X-1961200Y-5360000D03*
X-2210000Y-5400000D03*
X-1938020Y-4841240D03*
X-2321560Y-4688840D03*
X-2290000Y-4850000D03*
X-1958100Y-4729820D03*
X-1907540Y-4792980D03*
X-2235000Y-4785000D03*
X-2196990Y-4571320D03*
X-2182620Y-4862830D03*
X-1940560Y-4610100D03*
X-1910000Y-4464660D03*
X-2285000Y-4472940D03*
X-1985000Y-4520000D03*
X-1988580Y-4460320D03*
X-1909040Y-4013200D03*
X-2050000Y-3700000D03*
X-1929030Y-4099680D03*
X-1982880Y-4097200D03*
X-2267180Y-3964940D03*
X-2260000Y-3790000D03*
X-2236700Y-3901440D03*
X-2239240Y-4069080D03*
X-1988580Y-4019430D03*
X-2050000Y-3290000D03*
X-1995000Y-3325000D03*
X-2030000Y-3600000D03*
X-2074440Y-2952500D03*
X-2075000Y-3225000D03*
X-2025000Y-3075000D03*
X-2005000Y-3175000D03*
X-1975730Y-2351650D03*
X-2199120Y-2716990D03*
X-1913010Y-2716270D03*
X-2073730Y-2716990D03*
X-2171700Y-1920240D03*
X-1947750Y-2103550D03*
X-2100000Y-1650000D03*
X-2108200Y-1137920D03*
X-2062480Y-1000760D03*
X-2140580Y-551820D03*
X-2115820Y-396240D03*
X-2137020Y363700D03*
X-2139560Y310360D03*
X-2138680Y411480D03*
X-1999860Y310360D03*
X-2093840D03*
X-2045580D03*
X-1997320Y363700D03*
X-2043040D03*
X-2091300D03*
X-1998980Y411480D03*
X-2044700D03*
X-2092960D03*
X-1837520Y-6951370D03*
X-1789260D03*
X-1788160Y-6906260D03*
X-1836420D03*
X-1703260Y-5537200D03*
Y-5417200D03*
X-1665000Y-5340000D03*
X-1605280Y-5139480D03*
X-1570000Y-5050000D03*
X-1681480Y-5097200D03*
X-1630000Y-4590000D03*
X-1685000D03*
X-1705300Y-4777200D03*
X-1705840Y-4490720D03*
X-1645000Y-4470000D03*
X-1570000D03*
X-1455000Y-4485000D03*
X-1517800Y-4537200D03*
X-1585000Y-4070000D03*
X-1685000Y-3950000D03*
X-1841500Y-3362960D03*
X-1820000Y-2720000D03*
X-1790000Y-2535000D03*
X-1859890Y-2168550D03*
X-1760000Y-1660000D03*
X-1651000Y-1659000D03*
X-1570000Y-1660000D03*
X-1457960Y-182880D03*
X-1796960Y225980D03*
Y175180D03*
X-1649640Y225980D03*
Y175180D03*
X-1699260Y226060D03*
X-1747670Y226770D03*
X-1699260Y175260D03*
X-1747520D03*
X-1663700Y-140970D03*
X-1695450Y473710D03*
X-1440000Y-4580000D03*
X-1157840Y-3517500D03*
Y-3644500D03*
Y-3362160D03*
X-1158240Y-3263500D03*
X-1235240Y-3225000D03*
X-1238580Y-3075000D03*
X-1320000Y-1740000D03*
X-1409700Y-1315720D03*
X-1026160Y-1117600D03*
X-1409700Y-182880D03*
X-1090930Y-257810D03*
X-1170940Y-208280D03*
X-1224280Y-157480D03*
X-1170940D03*
X-1437640Y-139700D03*
X-1389380D03*
X-1036320Y170180D03*
X-800000Y-3800000D03*
X-949960Y-3840480D03*
X-657860Y-1394460D03*
X-637540Y-1026160D03*
X-650240Y-391160D03*
X-967740Y259080D03*
X-868680Y294640D03*
X-208280Y-5910580D03*
X-556260Y-1856740D03*
X270000Y-4930000D03*
G54D20*
X-360680Y-6416040D03*
G54D11*
X-8693400Y272840D03*
X-8607800Y273300D03*
X-8693400Y359200D03*
X-8607800Y359660D03*
X-8691880Y444500D03*
X-8606280Y444960D03*
X-8605520Y528320D03*
X-8694420D03*
X-8614820Y780800D03*
Y860800D03*
Y940800D03*
X-8694820Y780800D03*
Y940800D03*
Y860800D03*
X-8065100Y-6810400D03*
X-8063740Y-6726840D03*
X-8153400Y-6809740D03*
X-8152040Y-6726180D03*
X-8063740Y-6646840D03*
X-8152040Y-6646180D03*
X-8073480Y-6314230D03*
X-8162200Y-6313880D03*
X-8073480Y-6229230D03*
Y-6149230D03*
X-8162200Y-6148880D03*
Y-6228880D03*
X-8234680Y-4099560D03*
X-8028940Y228600D03*
X-8028640Y407680D03*
X-8027360Y316240D03*
X-7615340Y-360280D03*
X-7948600Y227680D03*
X-7868600D03*
X-7948600Y407680D03*
X-7868600D03*
X-7948600Y317680D03*
X-7868600D03*
X-7597410Y783270D03*
Y869630D03*
X-7597140Y952500D03*
X-7195140Y-5732580D03*
Y-5812580D03*
X-7310120Y-5194300D03*
X-7223760D03*
X-7297430Y-173560D03*
X-7213610D03*
X-7515340Y-360280D03*
X-7299900Y-90120D03*
X-7299960Y-7620D03*
X-7216080Y-90120D03*
X-7216140Y-7620D03*
X-7343410Y783270D03*
X-7427230D03*
X-7513590D03*
X-7343410Y869630D03*
X-7427230D03*
X-7513590D03*
X-7513320Y952500D03*
X-7426960D03*
X-7343140D03*
X-6782100Y-5712160D03*
X-7115140Y-5732580D03*
Y-5812580D03*
Y-5572580D03*
Y-5652580D03*
X-7132320Y-175260D03*
X-7132260Y-90120D03*
X-7132320Y-7620D03*
X-6502100Y-5689600D03*
X-6276340Y-5257800D03*
X-6527800Y-5076500D03*
X-6410020Y-4594900D03*
X-6365240Y-3820160D03*
X-6489700Y-3825770D03*
X-5859700Y-5900500D03*
X-6096000Y-4701540D03*
X-6220460Y-4960620D03*
X-6035040Y-3827780D03*
X-6129020D03*
X-6225540Y-3835400D03*
X-6160000Y-2138180D03*
X-5739380Y-2217420D03*
Y-2131060D03*
X-5135880Y-2420000D03*
Y-2540000D03*
X-5133340Y-2156460D03*
Y-2250440D03*
X-5021580Y-2161540D03*
X-5135470Y-797450D03*
X-5051650D03*
X-4965290D03*
X-5135470Y-713630D03*
X-5051650D03*
X-4965290D03*
X-4965700Y-627380D03*
X-5052060D03*
X-5135880D03*
X-4803140Y-5420360D03*
X-4914900Y-5702300D03*
X-4564900Y-5003800D03*
X-4720000Y-2165940D03*
X-4878930Y-797450D03*
Y-713630D03*
X-4879340Y-627380D03*
X-4584700Y193040D03*
X-4426350Y-2137810D03*
X-4106800Y-1719200D03*
X-4493260Y193040D03*
X-4401720D03*
X-4046220Y-6593840D03*
Y-6718560D03*
X-3706800Y-5077460D03*
X-4064000Y-5156200D03*
X-3760400Y-2043500D03*
X-3867680Y-471720D03*
X-3787680D03*
X-3707680D03*
X-3867680Y-551720D03*
X-3787680D03*
X-3707680D03*
X-3345200Y-4666000D03*
X-3317240Y-2700020D03*
X-3477260Y-1348740D03*
X-3335150Y593180D03*
X-3429130D03*
X-3520570D03*
X-3335150Y684620D03*
X-3429130D03*
X-3520570D03*
X-3393440Y1122680D03*
Y1031240D03*
X-3307080Y1122680D03*
Y1031240D03*
X-3337560Y772160D03*
X-3431540D03*
X-3522980D03*
X-2829440Y-6163200D03*
X-2829180Y-6262260D03*
X-2936120Y-6163200D03*
X-2935860Y-6262260D03*
X-2934760Y-5807500D03*
X-3097860Y-5395900D03*
X-2870200Y-4480560D03*
X-2971800Y-3482340D03*
X-3052100Y-2386460D03*
X-2903220Y-2346960D03*
X-2790000Y-2350000D03*
Y-2260000D03*
X-2686240Y-7264010D03*
X-2538930Y-7265420D03*
X-2411930D03*
X-2685040Y-7018780D03*
Y-6593840D03*
X-2684780Y-6692900D03*
X-2370000Y-5480000D03*
X-2560000Y-5490000D03*
X-2475000Y-5655000D03*
X-2730500Y-5692140D03*
X-2480000Y-5090000D03*
X-2519680Y-4569460D03*
X-2606040Y-4572000D03*
X-2527460Y-4477300D03*
X-2607460D03*
X-2628900Y-3685540D03*
X-2700020Y-3482340D03*
X-2520000Y-3149600D03*
X-2700000Y-2380000D03*
Y-2290000D03*
X-2722880Y-1808480D03*
X-2265000Y-5650000D03*
X-2270000Y-4360000D03*
X-2171700Y-195580D03*
X-1701800Y-3274060D03*
X-1536700D03*
X-1620000Y-3150000D03*
X-1704340Y-3022600D03*
X-1531620Y-3030220D03*
X-1446040Y-2472980D03*
X-1808070Y-825850D03*
X-1709010D03*
X-1607410D03*
X-1503270D03*
X-1502000Y-919520D03*
X-1606140D03*
X-1707740D03*
X-1806800D03*
X-1809750Y-731210D03*
X-1710690D03*
X-1609090D03*
X-1504950D03*
X-1503680Y-632460D03*
X-1607820D03*
X-1709420D03*
X-1808480D03*
X-1155700Y-6413500D03*
X-1155810Y-6553280D03*
X-1155700Y-6273800D03*
X-1016000D03*
X-1158240Y-2748280D03*
Y-2621280D03*
X-1160780Y-2506980D03*
X-1313960Y-2472980D03*
X-1051560Y-1315720D03*
X-1046480Y-764910D03*
X-1045210Y-858580D03*
X-876300Y-6273800D03*
X-645800Y-5657690D03*
X-620000Y-4560000D03*
X-700000D03*
Y-4480000D03*
X-620000D03*
X-586150Y-3352350D03*
X-589280Y-3263500D03*
X-581660Y-3497580D03*
X-590000Y-2885000D03*
X-775000Y-2480000D03*
X-590000D03*
X-248920Y-5227320D03*
X-540000Y-4560000D03*
X-244390Y-4729480D03*
X-540000Y-4480000D03*
X-328260Y-3347560D03*
X-408940D03*
X-525000Y-2205000D03*
X-95000Y-6100000D03*
X223520Y-5077460D03*
X43180Y-4973320D03*
X119380Y-5080000D03*
X17780D03*
X-88360Y-5081270D03*
X-25400Y-5354050D03*
X96520Y-3462020D03*
Y-3597980D03*
G54D21*
X-247000Y-3173000D03*
Y-2919000D03*
Y-2411000D03*
Y-2665000D03*
Y-1903000D03*
Y-2157000D03*
Y-1395000D03*
Y-1649000D03*
Y-1141000D03*
Y-887000D03*
X7000Y-3173000D03*
Y-2919000D03*
Y-2411000D03*
Y-2665000D03*
Y-1903000D03*
Y-2157000D03*
Y-1395000D03*
Y-1649000D03*
Y-1141000D03*
Y-887000D03*
G54D12*
X-8140700Y-2484100D03*
Y-845800D03*
X-7124700Y-2484100D03*
Y-845800D03*
G54D22*
G01X-9169000Y-7603000D02*
X431000D01*
Y1397000D01*
X-9169000D01*
Y-7603000D01*
G54D13*
X-8224990Y-1795310D03*
X-7438900Y-6066460D03*
X-7294120D03*
Y-5921680D03*
X-7438900D03*
X-7366140Y-5994980D03*
X-7162800Y-3911600D03*
X-6903720Y-6217920D03*
X-6846800Y-6273740D03*
X-6847840Y-6217920D03*
X-6779600Y-4787900D03*
X-6766560Y-4617720D03*
X-7127240Y-4815840D03*
X-6789420Y-4724400D03*
X-6730000Y-4426500D03*
Y-4101500D03*
X-6824980Y-4102100D03*
X-6730000Y-4356100D03*
X-6731000Y-4491500D03*
X-6779260Y-4264660D03*
X-6822440Y-3911600D03*
X-6971110Y-3796500D03*
X-7072710Y-3794760D03*
X-6820000Y-3330000D03*
X-6819140Y-3540000D03*
X-6839020Y-3034100D03*
X-6936740Y-3030220D03*
X-6926580Y-2784100D03*
X-6839020Y-2834100D03*
X-7010400Y-2786380D03*
X-6839020Y-2934100D03*
X-6890000Y-2584100D03*
X-6926580Y-2684100D03*
X-6850380Y-2387600D03*
X-6839020Y-2634100D03*
Y-2734100D03*
X-6808920Y-2534100D03*
X-6930130Y-2229870D03*
X-6839020Y-1995800D03*
X-6926580Y-1745800D03*
X-6839020Y-1495800D03*
X-6930150Y-1682400D03*
X-6925000Y-1510000D03*
X-6839020Y-1695800D03*
Y-1895800D03*
Y-1395800D03*
X-6926580Y-1445800D03*
Y-1345800D03*
X-6837680Y-1295400D03*
X-6840220Y-1206500D03*
X-6820000Y-920000D03*
X-6984560Y357400D03*
X-6291580Y-5573700D03*
X-6362700Y-5359400D03*
X-6604000Y-3771900D03*
X-6540600Y-3384100D03*
Y-3284100D03*
X-6454140Y-3334100D03*
X-6466840Y-3535680D03*
X-6454140Y-3234100D03*
Y-3434100D03*
Y-3134100D03*
X-6540600Y-3184100D03*
Y-3084100D03*
X-6311900Y-3073400D03*
X-6390640Y-2446020D03*
X-6510000Y-1595800D03*
X-6466840Y-1045800D03*
X-6378060Y-1095800D03*
X-6466840Y-1145800D03*
X-6378060Y-1195800D03*
X-6525000Y-1300000D03*
X-6466840Y-945800D03*
X-6518600Y-745800D03*
X-6378060Y-995800D03*
X-6594560Y-162600D03*
X-6344560Y-217600D03*
X-6594560Y-327600D03*
Y-247600D03*
X-6519560Y-117600D03*
X-6441440Y117960D03*
Y-26820D03*
X-6296660D03*
Y117960D03*
X-6369960Y45200D03*
X-6102100Y-5264400D03*
X-6180600Y-5287500D03*
X-5839200Y-4556500D03*
X-5836920Y-4426500D03*
X-6134100Y-3073400D03*
X-6037580Y-2946400D03*
X-6219560Y-217600D03*
Y-137600D03*
X-5412730Y-5905510D03*
X-5803900Y-5636260D03*
X-5519420Y-5524500D03*
X-5735910Y-5638800D03*
X-5763260Y-5808980D03*
X-5729870Y-5501640D03*
X-5760720Y-5298440D03*
X-5811520Y-5224700D03*
X-5610860Y-5105400D03*
X-5825580Y-4296500D03*
X-5745000Y-2385000D03*
Y-2470000D03*
X-5740000Y-2555000D03*
X-5440000Y-2620000D03*
X-5511900Y-2158010D03*
X-5664560Y407400D03*
X-5220500Y-5996430D03*
X-5114810Y-6103620D03*
X-5367020Y-5422900D03*
X-5260340Y-5445760D03*
X-5265420Y-5699760D03*
X-5176520Y-5811520D03*
X-5367020Y-5646420D03*
X-4973320Y-5346700D03*
X-5315120Y-5129700D03*
X-4632960Y-5478780D03*
X-4176270Y-2628390D03*
X-4152030Y-1990490D03*
X-4023360Y-6870700D03*
X-3667760Y-6586220D03*
X-3900930Y-5514340D03*
X-3949200Y-5134250D03*
X-3886200Y-5126230D03*
X-4055860Y-5304790D03*
X-3740000Y-2658110D03*
X-3659600Y-2145000D03*
X-3778410Y-1568290D03*
X-3984080Y-1443280D03*
Y-1393280D03*
X-3650460Y-1094820D03*
X-3847680Y-1131720D03*
X-3747680D03*
X-3650460Y-989820D03*
Y-884820D03*
X-3977680Y-361720D03*
X-3285620Y-6837680D03*
X-3298660Y-6421590D03*
X-3203740D03*
X-3451860Y-6223000D03*
X-3253080Y-5775820D03*
X-3346210Y-5784030D03*
X-3413300Y-5565600D03*
X-3454400Y-5753100D03*
X-3467100Y-5438140D03*
X-3352800Y-5067300D03*
X-3445510Y-5068570D03*
X-3362960Y-4838700D03*
X-3334020Y-4446000D03*
X-3479800Y-2628900D03*
X-3594100D03*
X-3365500D03*
X-3378200Y-1990490D03*
X-3580000Y-2150000D03*
X-3276420Y-1770200D03*
X-3380000Y-1896510D03*
Y-1840000D03*
X-3287460Y-1618680D03*
X-3312680Y-1126720D03*
X-3222680Y-1036720D03*
X-3324860Y-596900D03*
X-3393080Y-667120D03*
X-3560380Y-872120D03*
X-3225060Y-954660D03*
X-3212360Y-882360D03*
X-3464560Y-594360D03*
Y-739140D03*
X-3319780D03*
X-3322670Y-935070D03*
X-3322680Y-301720D03*
Y-166720D03*
X-3232680D03*
Y-301720D03*
X-3387680Y-406720D03*
Y-351720D03*
X-3360680Y-1720D03*
X-3487680D03*
X-3424180D03*
X-3025000Y-6925000D03*
X-3154680Y-5989170D03*
X-2973070Y-5990590D03*
X-2880000Y-5430000D03*
X-3101850Y-5613910D03*
X-3065000Y-5181600D03*
X-3074770Y-4853100D03*
X-3030000Y-4775000D03*
X-2880000Y-3950000D03*
X-3185000Y-2150000D03*
X-3018540Y-2018510D03*
X-2882200Y-1710600D03*
X-3050000Y-1313270D03*
X-3100000D03*
X-2900000Y-1355000D03*
X-3162680Y-1121720D03*
X-2339340Y-6250940D03*
X-2720000Y-5806440D03*
X-2381180Y-3275400D03*
X-2692400Y-3002280D03*
X-2459360Y-2395400D03*
X-2373600Y-2749580D03*
X-2479040Y-1908550D03*
X-2453640Y-2011680D03*
X-2725000Y-1365000D03*
X-2637680Y-221720D03*
Y-171720D03*
Y-121720D03*
X-2144780Y-6250940D03*
X-2280000Y-4950000D03*
X-2209200Y-3591160D03*
X-2103130Y-3591450D03*
X-2209050Y-3644640D03*
X-2103050Y-3644950D03*
X-2133600Y-2542540D03*
X-1640000Y-4930000D03*
X-1470000Y-3560000D03*
X-1750000Y-3550000D03*
X-1745000Y-2755000D03*
X-1545000Y-2765000D03*
X-1495000D03*
X-1445000D03*
X-1663700Y-2722880D03*
X-1875000Y-1973550D03*
X-1424940Y-5031740D03*
X-1010000Y-4890000D03*
X-1065010D03*
X-1386990Y-4805000D03*
X-1390000Y-3930000D03*
Y-3880000D03*
X-1230000Y-3770000D03*
X-1008380Y-2252980D03*
Y-2189480D03*
X-1021080Y-1678940D03*
X-1082040D03*
X-1145540D03*
X-1020960Y1034180D03*
X-1021080Y1099820D03*
X-570230Y-5888990D03*
X-642620Y-5438140D03*
X-640000Y-5560000D03*
X-571500Y-5435600D03*
X-640000Y-5500000D03*
X-970000Y-5250000D03*
Y-5200000D03*
X-715010Y-5325110D03*
X-950000Y-4490000D03*
X-1000000D03*
X-620000Y-4060000D03*
Y-4010000D03*
X-760000Y-3900000D03*
X-960000Y-3740000D03*
X-873760Y-2252980D03*
X-942340D03*
X-873760Y-2189480D03*
X-942340D03*
X-688340Y-1640840D03*
X-629920Y-1582420D03*
Y-1640840D03*
X-688340Y-1584960D03*
X-610130Y584730D03*
X-822840Y1034180D03*
X-888880D03*
X-954920D03*
X-822960Y1099820D03*
X-889000D03*
X-955040D03*
X-555000Y-6080000D03*
X-497840Y-5433060D03*
X-510540Y-3741420D03*
X-546100Y523240D03*
X-490220Y584200D03*
X-546100D03*
X-88900Y-6414260D03*
X228600Y-6421120D03*
X235150Y-6060970D03*
X27940Y-5866200D03*
X95000D03*
X110000Y-5570000D03*
X-50400Y-5579600D03*
X-400D03*
X49600D03*
X95000Y-5792400D03*
X254000Y-5694680D03*
X251460Y-5509260D03*
Y-5245100D03*
X31460Y-5409260D03*
Y-5299260D03*
X176870Y-5209540D03*
X206400Y-2519020D03*
Y-2265020D03*
Y-2011020D03*
Y-1503020D03*
Y-1757020D03*
Y-1249020D03*
X261450Y-281290D03*
Y-222870D03*
X200490Y-281290D03*
Y-222870D03*
G54D14*
X-6670040Y-5735320D03*
X-2990000Y-2240000D03*
X-1440000Y-5790000D03*
G54D15*
X-6124580Y-5007930D03*
G54D16*
X-3585630Y-6918210D03*
X-3145630D03*
X-350130Y74640D03*
Y514640D03*
G54D17*
X-3570000Y-5860000D03*
Y-5660000D03*
G54D18*
X-830580Y-6116320D03*
G54D19*
Y-6715760D03*
M02*
