G04 ================== begin FILE IDENTIFICATION RECORD ==================*
G04 Layout Name:  STANDARD.brd*
G04 Film Name:    DRILL*
G04 File Format:  Gerber RS274X*
G04 File Origin:  Cadence Allegro 16.6-P004*
G04 Origin Date:  Thu Sep 18 09:56:33 2014*
G04 *
G04 Layer:  MANUFACTURING/NCLEGEND-1-8*
G04 Layer:  BOARD GEOMETRY/OUTLINE*
G04 *
G04 Offset:    (0.0000 0.0000)*
G04 Mirror:    No*
G04 Mode:      Positive*
G04 Rotation:  0*
G04 FullContactRelief:  No*
G04 UndefLineWidth:     0.1500*
G04 ================== end FILE IDENTIFICATION RECORD ====================*
%FSLAX25Y25*MOMM*%
%IR0*IPPOS*OFA0.00000B0.00000*MIA0B0*SFA1.00000B1.00000*%
%AMMACRO20*
1,1,.15,.508,.508*
20,1,.15,.508,.508,.508,-.508,0.0*
1,1,.15,.508,-.508*
20,1,.15,.508,-.508,-.508,-.508,0.0*
1,1,.15,-.508,-.508*
20,1,.15,-.508,-.508,-.508,.508,0.0*
1,1,.15,-.508,.508*
20,1,.15,-.508,.508,.508,.508,0.0*
1,1,.15,.508,.508*
%
%ADD20MACRO20*%
%AMMACRO12*
1,1,.15,.635,0.0*
20,1,.15,.635,0.0,.625353,-.110267,0.0*
1,1,.15,.625353,-.110267*
20,1,.15,.625353,-.110267,.596705,-.217183,0.0*
1,1,.15,.596705,-.217183*
20,1,.15,.596705,-.217183,.549926,-.3175,0.0*
1,1,.15,.549926,-.3175*
20,1,.15,.549926,-.3175,.486438,-.40817,0.0*
1,1,.15,.486438,-.40817*
20,1,.15,.486438,-.40817,.40817,-.486438,0.0*
1,1,.15,.40817,-.486438*
20,1,.15,.40817,-.486438,.3175,-.549926,0.0*
1,1,.15,.3175,-.549926*
20,1,.15,.3175,-.549926,.217183,-.596705,0.0*
1,1,.15,.217183,-.596705*
20,1,.15,.217183,-.596705,.110267,-.625353,0.0*
1,1,.15,.110267,-.625353*
20,1,.15,.110267,-.625353,0.0,-.635,0.0*
1,1,.15,0.0,-.635*
20,1,.15,0.0,-.635,-.110267,-.625353,0.0*
1,1,.15,-.110267,-.625353*
20,1,.15,-.110267,-.625353,-.217183,-.596705,0.0*
1,1,.15,-.217183,-.596705*
20,1,.15,-.217183,-.596705,-.3175,-.549926,0.0*
1,1,.15,-.3175,-.549926*
20,1,.15,-.3175,-.549926,-.40817,-.486438,0.0*
1,1,.15,-.40817,-.486438*
20,1,.15,-.40817,-.486438,-.486438,-.40817,0.0*
1,1,.15,-.486438,-.40817*
20,1,.15,-.486438,-.40817,-.549926,-.3175,0.0*
1,1,.15,-.549926,-.3175*
20,1,.15,-.549926,-.3175,-.596705,-.217183,0.0*
1,1,.15,-.596705,-.217183*
20,1,.15,-.596705,-.217183,-.625353,-.110267,0.0*
1,1,.15,-.625353,-.110267*
20,1,.15,-.625353,-.110267,-.635,0.0,0.0*
1,1,.15,-.635,0.0*
20,1,.15,-.635,0.0,-.625353,.110267,0.0*
1,1,.15,-.625353,.110267*
20,1,.15,-.625353,.110267,-.596705,.217183,0.0*
1,1,.15,-.596705,.217183*
20,1,.15,-.596705,.217183,-.549926,.3175,0.0*
1,1,.15,-.549926,.3175*
20,1,.15,-.549926,.3175,-.486438,.40817,0.0*
1,1,.15,-.486438,.40817*
20,1,.15,-.486438,.40817,-.40817,.486438,0.0*
1,1,.15,-.40817,.486438*
20,1,.15,-.40817,.486438,-.3175,.549926,0.0*
1,1,.15,-.3175,.549926*
20,1,.15,-.3175,.549926,-.217183,.596705,0.0*
1,1,.15,-.217183,.596705*
20,1,.15,-.217183,.596705,-.110267,.625353,0.0*
1,1,.15,-.110267,.625353*
20,1,.15,-.110267,.625353,0.0,.635,0.0*
1,1,.15,0.0,.635*
20,1,.15,0.0,.635,.110267,.625353,0.0*
1,1,.15,.110267,.625353*
20,1,.15,.110267,.625353,.217183,.596705,0.0*
1,1,.15,.217183,.596705*
20,1,.15,.217183,.596705,.3175,.549926,0.0*
1,1,.15,.3175,.549926*
20,1,.15,.3175,.549926,.40817,.486438,0.0*
1,1,.15,.40817,.486438*
20,1,.15,.40817,.486438,.486438,.40817,0.0*
1,1,.15,.486438,.40817*
20,1,.15,.486438,.40817,.549926,.3175,0.0*
1,1,.15,.549926,.3175*
20,1,.15,.549926,.3175,.596705,.217183,0.0*
1,1,.15,.596705,.217183*
20,1,.15,.596705,.217183,.625353,.110267,0.0*
1,1,.15,.625353,.110267*
20,1,.15,.625353,.110267,.635,0.0,0.0*
1,1,.15,.635,0.0*
%
%ADD12MACRO12*%
%AMMACRO10*
1,1,.15,.1016,0.0*
20,1,.15,.1016,0.0,-.1016,0.0,0.0*
1,1,.15,-.1016,0.0*
1,1,.15,0.0,.1016*
20,1,.15,0.0,.1016,0.0,-.1016,0.0*
1,1,.15,0.0,-.1016*
%
%ADD10MACRO10*%
%AMMACRO13*
1,1,.15,.127,.127*
20,1,.15,.127,.127,.127,-.127,0.0*
1,1,.15,.127,-.127*
20,1,.15,.127,-.127,-.127,-.127,0.0*
1,1,.15,-.127,-.127*
20,1,.15,-.127,-.127,-.127,.127,0.0*
1,1,.15,-.127,.127*
20,1,.15,-.127,.127,.127,.127,0.0*
1,1,.15,.127,.127*
%
%ADD13MACRO13*%
%AMMACRO15*
1,1,.15,.45,0.0*
20,1,.15,.45,0.0,.443163,-.078142,0.0*
1,1,.15,.443163,-.078142*
20,1,.15,.443163,-.078142,.422862,-.153909,0.0*
1,1,.15,.422862,-.153909*
20,1,.15,.422862,-.153909,.389711,-.225,0.0*
1,1,.15,.389711,-.225*
20,1,.15,.389711,-.225,.34472,-.289254,0.0*
1,1,.15,.34472,-.289254*
20,1,.15,.34472,-.289254,.289254,-.34472,0.0*
1,1,.15,.289254,-.34472*
20,1,.15,.289254,-.34472,.225,-.389711,0.0*
1,1,.15,.225,-.389711*
20,1,.15,.225,-.389711,.153909,-.422862,0.0*
1,1,.15,.153909,-.422862*
20,1,.15,.153909,-.422862,.078142,-.443163,0.0*
1,1,.15,.078142,-.443163*
20,1,.15,.078142,-.443163,0.0,-.45,0.0*
1,1,.15,0.0,-.45*
20,1,.15,0.0,-.45,-.078142,-.443163,0.0*
1,1,.15,-.078142,-.443163*
20,1,.15,-.078142,-.443163,-.153909,-.422862,0.0*
1,1,.15,-.153909,-.422862*
20,1,.15,-.153909,-.422862,-.225,-.389711,0.0*
1,1,.15,-.225,-.389711*
20,1,.15,-.225,-.389711,-.289254,-.34472,0.0*
1,1,.15,-.289254,-.34472*
20,1,.15,-.289254,-.34472,-.34472,-.289254,0.0*
1,1,.15,-.34472,-.289254*
20,1,.15,-.34472,-.289254,-.389711,-.225,0.0*
1,1,.15,-.389711,-.225*
20,1,.15,-.389711,-.225,-.422862,-.153909,0.0*
1,1,.15,-.422862,-.153909*
20,1,.15,-.422862,-.153909,-.443163,-.078142,0.0*
1,1,.15,-.443163,-.078142*
20,1,.15,-.443163,-.078142,-.45,0.0,0.0*
1,1,.15,-.45,0.0*
20,1,.15,-.45,0.0,-.443163,.078142,0.0*
1,1,.15,-.443163,.078142*
20,1,.15,-.443163,.078142,-.422862,.153909,0.0*
1,1,.15,-.422862,.153909*
20,1,.15,-.422862,.153909,-.389711,.225,0.0*
1,1,.15,-.389711,.225*
20,1,.15,-.389711,.225,-.34472,.289254,0.0*
1,1,.15,-.34472,.289254*
20,1,.15,-.34472,.289254,-.289254,.34472,0.0*
1,1,.15,-.289254,.34472*
20,1,.15,-.289254,.34472,-.225,.389711,0.0*
1,1,.15,-.225,.389711*
20,1,.15,-.225,.389711,-.153909,.422862,0.0*
1,1,.15,-.153909,.422862*
20,1,.15,-.153909,.422862,-.078142,.443163,0.0*
1,1,.15,-.078142,.443163*
20,1,.15,-.078142,.443163,0.0,.45,0.0*
1,1,.15,0.0,.45*
20,1,.15,0.0,.45,.078142,.443163,0.0*
1,1,.15,.078142,.443163*
20,1,.15,.078142,.443163,.153909,.422862,0.0*
1,1,.15,.153909,.422862*
20,1,.15,.153909,.422862,.225,.389711,0.0*
1,1,.15,.225,.389711*
20,1,.15,.225,.389711,.289254,.34472,0.0*
1,1,.15,.289254,.34472*
20,1,.15,.289254,.34472,.34472,.289254,0.0*
1,1,.15,.34472,.289254*
20,1,.15,.34472,.289254,.389711,.225,0.0*
1,1,.15,.389711,.225*
20,1,.15,.389711,.225,.422862,.153909,0.0*
1,1,.15,.422862,.153909*
20,1,.15,.422862,.153909,.443163,.078142,0.0*
1,1,.15,.443163,.078142*
20,1,.15,.443163,.078142,.45,0.0,0.0*
1,1,.15,.45,0.0*
1,1,.15,-.1875,-.225*
20,1,.15,-.1875,-.225,0.0,.225,0.0*
1,1,.15,0.0,.225*
20,1,.15,0.0,.225,.1875,-.225,0.0*
1,1,.15,.1875,-.225*
1,1,.15,.12,-.0675*
20,1,.15,.12,-.0675,-.12,-.0675,0.0*
1,1,.15,-.12,-.0675*
%
%ADD15MACRO15*%
%AMMACRO16*
1,1,.15,0.0,.45*
20,1,.15,0.0,.45,.078142,.443163,0.0*
1,1,.15,.078142,.443163*
20,1,.15,.078142,.443163,.153909,.422862,0.0*
1,1,.15,.153909,.422862*
20,1,.15,.153909,.422862,.225,.389711,0.0*
1,1,.15,.225,.389711*
20,1,.15,.225,.389711,.289254,.34472,0.0*
1,1,.15,.289254,.34472*
20,1,.15,.289254,.34472,.34472,.289254,0.0*
1,1,.15,.34472,.289254*
20,1,.15,.34472,.289254,.389711,.225,0.0*
1,1,.15,.389711,.225*
20,1,.15,.389711,.225,.422862,.153909,0.0*
1,1,.15,.422862,.153909*
20,1,.15,.422862,.153909,.443163,.078142,0.0*
1,1,.15,.443163,.078142*
20,1,.15,.443163,.078142,.45,0.0,0.0*
1,1,.15,.45,0.0*
20,1,.15,.45,0.0,.443163,-.078142,0.0*
1,1,.15,.443163,-.078142*
20,1,.15,.443163,-.078142,.422862,-.153909,0.0*
1,1,.15,.422862,-.153909*
20,1,.15,.422862,-.153909,.389711,-.225,0.0*
1,1,.15,.389711,-.225*
20,1,.15,.389711,-.225,.34472,-.289254,0.0*
1,1,.15,.34472,-.289254*
20,1,.15,.34472,-.289254,.289254,-.34472,0.0*
1,1,.15,.289254,-.34472*
20,1,.15,.289254,-.34472,.225,-.389711,0.0*
1,1,.15,.225,-.389711*
20,1,.15,.225,-.389711,.153909,-.422862,0.0*
1,1,.15,.153909,-.422862*
20,1,.15,.153909,-.422862,.078142,-.443163,0.0*
1,1,.15,.078142,-.443163*
20,1,.15,.078142,-.443163,0.0,-.45,0.0*
1,1,.15,0.0,-.45*
20,1,.15,0.0,-.45,-.078142,-.443163,0.0*
1,1,.15,-.078142,-.443163*
20,1,.15,-.078142,-.443163,-.153909,-.422862,0.0*
1,1,.15,-.153909,-.422862*
20,1,.15,-.153909,-.422862,-.225,-.389711,0.0*
1,1,.15,-.225,-.389711*
20,1,.15,-.225,-.389711,-.289254,-.34472,0.0*
1,1,.15,-.289254,-.34472*
20,1,.15,-.289254,-.34472,-.34472,-.289254,0.0*
1,1,.15,-.34472,-.289254*
20,1,.15,-.34472,-.289254,-.389711,-.225,0.0*
1,1,.15,-.389711,-.225*
20,1,.15,-.389711,-.225,-.422862,-.153909,0.0*
1,1,.15,-.422862,-.153909*
20,1,.15,-.422862,-.153909,-.443163,-.078142,0.0*
1,1,.15,-.443163,-.078142*
20,1,.15,-.443163,-.078142,-.45,0.0,0.0*
1,1,.15,-.45,0.0*
20,1,.15,-.45,0.0,-.443163,.078142,0.0*
1,1,.15,-.443163,.078142*
20,1,.15,-.443163,.078142,-.422862,.153909,0.0*
1,1,.15,-.422862,.153909*
20,1,.15,-.422862,.153909,-.389711,.225,0.0*
1,1,.15,-.389711,.225*
20,1,.15,-.389711,.225,-.34472,.289254,0.0*
1,1,.15,-.34472,.289254*
20,1,.15,-.34472,.289254,-.289254,.34472,0.0*
1,1,.15,-.289254,.34472*
20,1,.15,-.289254,.34472,-.225,.389711,0.0*
1,1,.15,-.225,.389711*
20,1,.15,-.225,.389711,-.153909,.422862,0.0*
1,1,.15,-.153909,.422862*
20,1,.15,-.153909,.422862,-.078142,.443163,0.0*
1,1,.15,-.078142,.443163*
20,1,.15,-.078142,.443163,0.0,.45,0.0*
1,1,.15,0.0,.45*
%
%ADD16MACRO16*%
%AMMACRO11*
1,1,.15,.1905,0.0*
20,1,.15,.1905,0.0,.09525,.164978,0.0*
1,1,.15,.09525,.164978*
20,1,.15,.09525,.164978,-.09525,.164978,0.0*
1,1,.15,-.09525,.164978*
20,1,.15,-.09525,.164978,-.1905,0.0,0.0*
1,1,.15,-.1905,0.0*
20,1,.15,-.1905,0.0,-.09525,-.164978,0.0*
1,1,.15,-.09525,-.164978*
20,1,.15,-.09525,-.164978,.09525,-.164978,0.0*
1,1,.15,.09525,-.164978*
20,1,.15,.09525,-.164978,.1905,0.0,0.0*
1,1,.15,.1905,0.0*
%
%ADD11MACRO11*%
%AMMACRO19*
1,1,.15,-.508,-1.016*
20,1,.15,-.508,-1.016,-.508,1.016,0.0*
1,1,.15,-.508,1.016*
20,1,.15,-.508,1.016,-.500282,1.104213,0.0*
1,1,.15,-.500282,1.104213*
20,1,.15,-.500282,1.104213,-.477364,1.189746,0.0*
1,1,.15,-.477364,1.189746*
20,1,.15,-.477364,1.189746,-.439941,1.27,0.0*
1,1,.15,-.439941,1.27*
20,1,.15,-.439941,1.27,-.389151,1.342536,0.0*
1,1,.15,-.389151,1.342536*
20,1,.15,-.389151,1.342536,-.326536,1.405151,0.0*
1,1,.15,-.326536,1.405151*
20,1,.15,-.326536,1.405151,-.254,1.455941,0.0*
1,1,.15,-.254,1.455941*
20,1,.15,-.254,1.455941,-.173746,1.493364,0.0*
1,1,.15,-.173746,1.493364*
20,1,.15,-.173746,1.493364,-.088213,1.516282,0.0*
1,1,.15,-.088213,1.516282*
20,1,.15,-.088213,1.516282,0.0,1.524,0.0*
1,1,.15,0.0,1.524*
20,1,.15,0.0,1.524,.088213,1.516282,0.0*
1,1,.15,.088213,1.516282*
20,1,.15,.088213,1.516282,.173746,1.493364,0.0*
1,1,.15,.173746,1.493364*
20,1,.15,.173746,1.493364,.254,1.455941,0.0*
1,1,.15,.254,1.455941*
20,1,.15,.254,1.455941,.326536,1.405151,0.0*
1,1,.15,.326536,1.405151*
20,1,.15,.326536,1.405151,.389151,1.342536,0.0*
1,1,.15,.389151,1.342536*
20,1,.15,.389151,1.342536,.439941,1.27,0.0*
1,1,.15,.439941,1.27*
20,1,.15,.439941,1.27,.477364,1.189746,0.0*
1,1,.15,.477364,1.189746*
20,1,.15,.477364,1.189746,.500282,1.104213,0.0*
1,1,.15,.500282,1.104213*
20,1,.15,.500282,1.104213,.508,1.016,0.0*
1,1,.15,.508,1.016*
20,1,.15,.508,1.016,.508,-1.016,0.0*
1,1,.15,.508,-1.016*
20,1,.15,.508,-1.016,.500282,-1.104213,0.0*
1,1,.15,.500282,-1.104213*
20,1,.15,.500282,-1.104213,.477364,-1.189746,0.0*
1,1,.15,.477364,-1.189746*
20,1,.15,.477364,-1.189746,.439941,-1.27,0.0*
1,1,.15,.439941,-1.27*
20,1,.15,.439941,-1.27,.389151,-1.342536,0.0*
1,1,.15,.389151,-1.342536*
20,1,.15,.389151,-1.342536,.326536,-1.405151,0.0*
1,1,.15,.326536,-1.405151*
20,1,.15,.326536,-1.405151,.254,-1.455941,0.0*
1,1,.15,.254,-1.455941*
20,1,.15,.254,-1.455941,.173746,-1.493364,0.0*
1,1,.15,.173746,-1.493364*
20,1,.15,.173746,-1.493364,.088213,-1.516282,0.0*
1,1,.15,.088213,-1.516282*
20,1,.15,.088213,-1.516282,0.0,-1.524,0.0*
1,1,.15,0.0,-1.524*
20,1,.15,0.0,-1.524,-.088213,-1.516282,0.0*
1,1,.15,-.088213,-1.516282*
20,1,.15,-.088213,-1.516282,-.173746,-1.493364,0.0*
1,1,.15,-.173746,-1.493364*
20,1,.15,-.173746,-1.493364,-.254,-1.455941,0.0*
1,1,.15,-.254,-1.455941*
20,1,.15,-.254,-1.455941,-.326536,-1.405151,0.0*
1,1,.15,-.326536,-1.405151*
20,1,.15,-.326536,-1.405151,-.389151,-1.342536,0.0*
1,1,.15,-.389151,-1.342536*
20,1,.15,-.389151,-1.342536,-.439941,-1.27,0.0*
1,1,.15,-.439941,-1.27*
20,1,.15,-.439941,-1.27,-.477364,-1.189746,0.0*
1,1,.15,-.477364,-1.189746*
20,1,.15,-.477364,-1.189746,-.500282,-1.104213,0.0*
1,1,.15,-.500282,-1.104213*
20,1,.15,-.500282,-1.104213,-.508,-1.016,0.0*
1,1,.15,-.508,-1.016*
1,1,.15,-.254,-.254*
20,1,.15,-.254,-.254,-.3217,-.2455,0.0*
1,1,.15,-.3217,-.2455*
20,1,.15,-.3217,-.2455,-.381,-.2117,0.0*
1,1,.15,-.381,-.2117*
20,1,.15,-.381,-.2117,-.4318,-.1609,0.0*
1,1,.15,-.4318,-.1609*
20,1,.15,-.4318,-.1609,-.4657,-.1016,0.0*
1,1,.15,-.4657,-.1016*
20,1,.15,-.4657,-.1016,-.4826,-.0339,0.0*
1,1,.15,-.4826,-.0339*
20,1,.15,-.4826,-.0339,-.4826,.0339,0.0*
1,1,.15,-.4826,.0339*
20,1,.15,-.4826,.0339,-.4657,.1016,0.0*
1,1,.15,-.4657,.1016*
20,1,.15,-.4657,.1016,-.4318,.1609,0.0*
1,1,.15,-.4318,.1609*
20,1,.15,-.4318,.1609,-.381,.2117,0.0*
1,1,.15,-.381,.2117*
20,1,.15,-.381,.2117,-.3217,.2455,0.0*
1,1,.15,-.3217,.2455*
20,1,.15,-.3217,.2455,-.254,.254,0.0*
1,1,.15,-.254,.254*
20,1,.15,-.254,.254,-.1863,.2455,0.0*
1,1,.15,-.1863,.2455*
20,1,.15,-.1863,.2455,-.127,.2117,0.0*
1,1,.15,-.127,.2117*
20,1,.15,-.127,.2117,-.0762,.1609,0.0*
1,1,.15,-.0762,.1609*
20,1,.15,-.0762,.1609,-.0423,.1016,0.0*
1,1,.15,-.0423,.1016*
20,1,.15,-.0423,.1016,-.0254,.0339,0.0*
1,1,.15,-.0254,.0339*
20,1,.15,-.0254,.0339,-.0254,-.0339,0.0*
1,1,.15,-.0254,-.0339*
20,1,.15,-.0254,-.0339,-.0423,-.1016,0.0*
1,1,.15,-.0423,-.1016*
20,1,.15,-.0423,-.1016,-.0762,-.1609,0.0*
1,1,.15,-.0762,-.1609*
20,1,.15,-.0762,-.1609,-.127,-.2117,0.0*
1,1,.15,-.127,-.2117*
20,1,.15,-.127,-.2117,-.1863,-.2455,0.0*
1,1,.15,-.1863,-.2455*
20,1,.15,-.1863,-.2455,-.254,-.254,0.0*
1,1,.15,-.254,-.254*
1,1,.15,.4404,.2117*
20,1,.15,.4404,.2117,.3896,.2371,0.0*
1,1,.15,.3896,.2371*
20,1,.15,.3896,.2371,.3303,.254,0.0*
1,1,.15,.3303,.254*
20,1,.15,.3303,.254,.2626,.254,0.0*
1,1,.15,.2626,.254*
20,1,.15,.2626,.254,.1864,.2286,0.0*
1,1,.15,.1864,.2286*
20,1,.15,.1864,.2286,.1271,.1863,0.0*
1,1,.15,.1271,.1863*
20,1,.15,.1271,.1863,.0848,.1355,0.0*
1,1,.15,.0848,.1355*
20,1,.15,.0848,.1355,.0509,.0508,0.0*
1,1,.15,.0509,.0508*
20,1,.15,.0509,.0508,.0424,-.0254,0.0*
1,1,.15,.0424,-.0254*
20,1,.15,.0424,-.0254,.0594,-.1016,0.0*
1,1,.15,.0594,-.1016*
20,1,.15,.0594,-.1016,.0848,-.1524,0.0*
1,1,.15,.0848,-.1524*
20,1,.15,.0848,-.1524,.1356,-.2032,0.0*
1,1,.15,.1356,-.2032*
20,1,.15,.1356,-.2032,.1948,-.2371,0.0*
1,1,.15,.1948,-.2371*
20,1,.15,.1948,-.2371,.2541,-.254,0.0*
1,1,.15,.2541,-.254*
20,1,.15,.2541,-.254,.3134,-.254,0.0*
1,1,.15,.3134,-.254*
20,1,.15,.3134,-.254,.3726,-.2371,0.0*
1,1,.15,.3726,-.2371*
20,1,.15,.3726,-.2371,.4234,-.2117,0.0*
1,1,.15,.4234,-.2117*
20,1,.15,.4234,-.2117,.4658,-.1778,0.0*
1,1,.15,.4658,-.1778*
%
%ADD19MACRO19*%
%AMMACRO18*
1,1,.15,-1.016,.508*
20,1,.15,-1.016,.508,1.016,.508,0.0*
1,1,.15,1.016,.508*
20,1,.15,1.016,.508,1.104213,.500282,0.0*
1,1,.15,1.104213,.500282*
20,1,.15,1.104213,.500282,1.189746,.477364,0.0*
1,1,.15,1.189746,.477364*
20,1,.15,1.189746,.477364,1.27,.439941,0.0*
1,1,.15,1.27,.439941*
20,1,.15,1.27,.439941,1.342536,.389151,0.0*
1,1,.15,1.342536,.389151*
20,1,.15,1.342536,.389151,1.405151,.326536,0.0*
1,1,.15,1.405151,.326536*
20,1,.15,1.405151,.326536,1.455941,.254,0.0*
1,1,.15,1.455941,.254*
20,1,.15,1.455941,.254,1.493364,.173746,0.0*
1,1,.15,1.493364,.173746*
20,1,.15,1.493364,.173746,1.516282,.088213,0.0*
1,1,.15,1.516282,.088213*
20,1,.15,1.516282,.088213,1.524,0.0,0.0*
1,1,.15,1.524,0.0*
20,1,.15,1.524,0.0,1.516282,-.088213,0.0*
1,1,.15,1.516282,-.088213*
20,1,.15,1.516282,-.088213,1.493364,-.173746,0.0*
1,1,.15,1.493364,-.173746*
20,1,.15,1.493364,-.173746,1.455941,-.254,0.0*
1,1,.15,1.455941,-.254*
20,1,.15,1.455941,-.254,1.405151,-.326536,0.0*
1,1,.15,1.405151,-.326536*
20,1,.15,1.405151,-.326536,1.342536,-.389151,0.0*
1,1,.15,1.342536,-.389151*
20,1,.15,1.342536,-.389151,1.27,-.439941,0.0*
1,1,.15,1.27,-.439941*
20,1,.15,1.27,-.439941,1.189746,-.477364,0.0*
1,1,.15,1.189746,-.477364*
20,1,.15,1.189746,-.477364,1.104213,-.500282,0.0*
1,1,.15,1.104213,-.500282*
20,1,.15,1.104213,-.500282,1.016,-.508,0.0*
1,1,.15,1.016,-.508*
20,1,.15,1.016,-.508,-1.016,-.508,0.0*
1,1,.15,-1.016,-.508*
20,1,.15,-1.016,-.508,-1.104213,-.500282,0.0*
1,1,.15,-1.104213,-.500282*
20,1,.15,-1.104213,-.500282,-1.189746,-.477364,0.0*
1,1,.15,-1.189746,-.477364*
20,1,.15,-1.189746,-.477364,-1.27,-.439941,0.0*
1,1,.15,-1.27,-.439941*
20,1,.15,-1.27,-.439941,-1.342536,-.389151,0.0*
1,1,.15,-1.342536,-.389151*
20,1,.15,-1.342536,-.389151,-1.405151,-.326536,0.0*
1,1,.15,-1.405151,-.326536*
20,1,.15,-1.405151,-.326536,-1.455941,-.254,0.0*
1,1,.15,-1.455941,-.254*
20,1,.15,-1.455941,-.254,-1.493364,-.173746,0.0*
1,1,.15,-1.493364,-.173746*
20,1,.15,-1.493364,-.173746,-1.516282,-.088213,0.0*
1,1,.15,-1.516282,-.088213*
20,1,.15,-1.516282,-.088213,-1.524,0.0,0.0*
1,1,.15,-1.524,0.0*
20,1,.15,-1.524,0.0,-1.516282,.088213,0.0*
1,1,.15,-1.516282,.088213*
20,1,.15,-1.516282,.088213,-1.493364,.173746,0.0*
1,1,.15,-1.493364,.173746*
20,1,.15,-1.493364,.173746,-1.455941,.254,0.0*
1,1,.15,-1.455941,.254*
20,1,.15,-1.455941,.254,-1.405151,.326536,0.0*
1,1,.15,-1.405151,.326536*
20,1,.15,-1.405151,.326536,-1.342536,.389151,0.0*
1,1,.15,-1.342536,.389151*
20,1,.15,-1.342536,.389151,-1.27,.439941,0.0*
1,1,.15,-1.27,.439941*
20,1,.15,-1.27,.439941,-1.189746,.477364,0.0*
1,1,.15,-1.189746,.477364*
20,1,.15,-1.189746,.477364,-1.104213,.500282,0.0*
1,1,.15,-1.104213,.500282*
20,1,.15,-1.104213,.500282,-1.016,.508,0.0*
1,1,.15,-1.016,.508*
1,1,.15,-.254,-.254*
20,1,.15,-.254,-.254,-.3217,-.2455,0.0*
1,1,.15,-.3217,-.2455*
20,1,.15,-.3217,-.2455,-.381,-.2117,0.0*
1,1,.15,-.381,-.2117*
20,1,.15,-.381,-.2117,-.4318,-.1609,0.0*
1,1,.15,-.4318,-.1609*
20,1,.15,-.4318,-.1609,-.4657,-.1016,0.0*
1,1,.15,-.4657,-.1016*
20,1,.15,-.4657,-.1016,-.4826,-.0339,0.0*
1,1,.15,-.4826,-.0339*
20,1,.15,-.4826,-.0339,-.4826,.0339,0.0*
1,1,.15,-.4826,.0339*
20,1,.15,-.4826,.0339,-.4657,.1016,0.0*
1,1,.15,-.4657,.1016*
20,1,.15,-.4657,.1016,-.4318,.1609,0.0*
1,1,.15,-.4318,.1609*
20,1,.15,-.4318,.1609,-.381,.2117,0.0*
1,1,.15,-.381,.2117*
20,1,.15,-.381,.2117,-.3217,.2455,0.0*
1,1,.15,-.3217,.2455*
20,1,.15,-.3217,.2455,-.254,.254,0.0*
1,1,.15,-.254,.254*
20,1,.15,-.254,.254,-.1863,.2455,0.0*
1,1,.15,-.1863,.2455*
20,1,.15,-.1863,.2455,-.127,.2117,0.0*
1,1,.15,-.127,.2117*
20,1,.15,-.127,.2117,-.0762,.1609,0.0*
1,1,.15,-.0762,.1609*
20,1,.15,-.0762,.1609,-.0423,.1016,0.0*
1,1,.15,-.0423,.1016*
20,1,.15,-.0423,.1016,-.0254,.0339,0.0*
1,1,.15,-.0254,.0339*
20,1,.15,-.0254,.0339,-.0254,-.0339,0.0*
1,1,.15,-.0254,-.0339*
20,1,.15,-.0254,-.0339,-.0423,-.1016,0.0*
1,1,.15,-.0423,-.1016*
20,1,.15,-.0423,-.1016,-.0762,-.1609,0.0*
1,1,.15,-.0762,-.1609*
20,1,.15,-.0762,-.1609,-.127,-.2117,0.0*
1,1,.15,-.127,-.2117*
20,1,.15,-.127,-.2117,-.1863,-.2455,0.0*
1,1,.15,-.1863,-.2455*
20,1,.15,-.1863,-.2455,-.254,-.254,0.0*
1,1,.15,-.254,-.254*
1,1,.15,.4404,.2117*
20,1,.15,.4404,.2117,.3896,.2371,0.0*
1,1,.15,.3896,.2371*
20,1,.15,.3896,.2371,.3303,.254,0.0*
1,1,.15,.3303,.254*
20,1,.15,.3303,.254,.2626,.254,0.0*
1,1,.15,.2626,.254*
20,1,.15,.2626,.254,.1864,.2286,0.0*
1,1,.15,.1864,.2286*
20,1,.15,.1864,.2286,.1271,.1863,0.0*
1,1,.15,.1271,.1863*
20,1,.15,.1271,.1863,.0848,.1355,0.0*
1,1,.15,.0848,.1355*
20,1,.15,.0848,.1355,.0509,.0508,0.0*
1,1,.15,.0509,.0508*
20,1,.15,.0509,.0508,.0424,-.0254,0.0*
1,1,.15,.0424,-.0254*
20,1,.15,.0424,-.0254,.0594,-.1016,0.0*
1,1,.15,.0594,-.1016*
20,1,.15,.0594,-.1016,.0848,-.1524,0.0*
1,1,.15,.0848,-.1524*
20,1,.15,.0848,-.1524,.1356,-.2032,0.0*
1,1,.15,.1356,-.2032*
20,1,.15,.1356,-.2032,.1948,-.2371,0.0*
1,1,.15,.1948,-.2371*
20,1,.15,.1948,-.2371,.2541,-.254,0.0*
1,1,.15,.2541,-.254*
20,1,.15,.2541,-.254,.3134,-.254,0.0*
1,1,.15,.3134,-.254*
20,1,.15,.3134,-.254,.3726,-.2371,0.0*
1,1,.15,.3726,-.2371*
20,1,.15,.3726,-.2371,.4234,-.2117,0.0*
1,1,.15,.4234,-.2117*
20,1,.15,.4234,-.2117,.4658,-.1778,0.0*
1,1,.15,.4658,-.1778*
%
%ADD18MACRO18*%
%AMMACRO17*
1,1,.15,-1.27,.508*
20,1,.15,-1.27,.508,1.27,.508,0.0*
1,1,.15,1.27,.508*
20,1,.15,1.27,.508,1.358213,.500282,0.0*
1,1,.15,1.358213,.500282*
20,1,.15,1.358213,.500282,1.443746,.477364,0.0*
1,1,.15,1.443746,.477364*
20,1,.15,1.443746,.477364,1.524,.439941,0.0*
1,1,.15,1.524,.439941*
20,1,.15,1.524,.439941,1.596536,.389151,0.0*
1,1,.15,1.596536,.389151*
20,1,.15,1.596536,.389151,1.659151,.326536,0.0*
1,1,.15,1.659151,.326536*
20,1,.15,1.659151,.326536,1.709941,.254,0.0*
1,1,.15,1.709941,.254*
20,1,.15,1.709941,.254,1.747364,.173746,0.0*
1,1,.15,1.747364,.173746*
20,1,.15,1.747364,.173746,1.770282,.088213,0.0*
1,1,.15,1.770282,.088213*
20,1,.15,1.770282,.088213,1.778,0.0,0.0*
1,1,.15,1.778,0.0*
20,1,.15,1.778,0.0,1.770282,-.088213,0.0*
1,1,.15,1.770282,-.088213*
20,1,.15,1.770282,-.088213,1.747364,-.173746,0.0*
1,1,.15,1.747364,-.173746*
20,1,.15,1.747364,-.173746,1.709941,-.254,0.0*
1,1,.15,1.709941,-.254*
20,1,.15,1.709941,-.254,1.659151,-.326536,0.0*
1,1,.15,1.659151,-.326536*
20,1,.15,1.659151,-.326536,1.596536,-.389151,0.0*
1,1,.15,1.596536,-.389151*
20,1,.15,1.596536,-.389151,1.524,-.439941,0.0*
1,1,.15,1.524,-.439941*
20,1,.15,1.524,-.439941,1.443746,-.477364,0.0*
1,1,.15,1.443746,-.477364*
20,1,.15,1.443746,-.477364,1.358213,-.500282,0.0*
1,1,.15,1.358213,-.500282*
20,1,.15,1.358213,-.500282,1.27,-.508,0.0*
1,1,.15,1.27,-.508*
20,1,.15,1.27,-.508,-1.27,-.508,0.0*
1,1,.15,-1.27,-.508*
20,1,.15,-1.27,-.508,-1.358213,-.500282,0.0*
1,1,.15,-1.358213,-.500282*
20,1,.15,-1.358213,-.500282,-1.443746,-.477364,0.0*
1,1,.15,-1.443746,-.477364*
20,1,.15,-1.443746,-.477364,-1.524,-.439941,0.0*
1,1,.15,-1.524,-.439941*
20,1,.15,-1.524,-.439941,-1.596536,-.389151,0.0*
1,1,.15,-1.596536,-.389151*
20,1,.15,-1.596536,-.389151,-1.659151,-.326536,0.0*
1,1,.15,-1.659151,-.326536*
20,1,.15,-1.659151,-.326536,-1.709941,-.254,0.0*
1,1,.15,-1.709941,-.254*
20,1,.15,-1.709941,-.254,-1.747364,-.173746,0.0*
1,1,.15,-1.747364,-.173746*
20,1,.15,-1.747364,-.173746,-1.770282,-.088213,0.0*
1,1,.15,-1.770282,-.088213*
20,1,.15,-1.770282,-.088213,-1.778,0.0,0.0*
1,1,.15,-1.778,0.0*
20,1,.15,-1.778,0.0,-1.770282,.088213,0.0*
1,1,.15,-1.770282,.088213*
20,1,.15,-1.770282,.088213,-1.747364,.173746,0.0*
1,1,.15,-1.747364,.173746*
20,1,.15,-1.747364,.173746,-1.709941,.254,0.0*
1,1,.15,-1.709941,.254*
20,1,.15,-1.709941,.254,-1.659151,.326536,0.0*
1,1,.15,-1.659151,.326536*
20,1,.15,-1.659151,.326536,-1.596536,.389151,0.0*
1,1,.15,-1.596536,.389151*
20,1,.15,-1.596536,.389151,-1.524,.439941,0.0*
1,1,.15,-1.524,.439941*
20,1,.15,-1.524,.439941,-1.443746,.477364,0.0*
1,1,.15,-1.443746,.477364*
20,1,.15,-1.443746,.477364,-1.358213,.500282,0.0*
1,1,.15,-1.358213,.500282*
20,1,.15,-1.358213,.500282,-1.27,.508,0.0*
1,1,.15,-1.27,.508*
1,1,.15,-.254,-.254*
20,1,.15,-.254,-.254,-.3217,-.2455,0.0*
1,1,.15,-.3217,-.2455*
20,1,.15,-.3217,-.2455,-.381,-.2117,0.0*
1,1,.15,-.381,-.2117*
20,1,.15,-.381,-.2117,-.4318,-.1609,0.0*
1,1,.15,-.4318,-.1609*
20,1,.15,-.4318,-.1609,-.4657,-.1016,0.0*
1,1,.15,-.4657,-.1016*
20,1,.15,-.4657,-.1016,-.4826,-.0339,0.0*
1,1,.15,-.4826,-.0339*
20,1,.15,-.4826,-.0339,-.4826,.0339,0.0*
1,1,.15,-.4826,.0339*
20,1,.15,-.4826,.0339,-.4657,.1016,0.0*
1,1,.15,-.4657,.1016*
20,1,.15,-.4657,.1016,-.4318,.1609,0.0*
1,1,.15,-.4318,.1609*
20,1,.15,-.4318,.1609,-.381,.2117,0.0*
1,1,.15,-.381,.2117*
20,1,.15,-.381,.2117,-.3217,.2455,0.0*
1,1,.15,-.3217,.2455*
20,1,.15,-.3217,.2455,-.254,.254,0.0*
1,1,.15,-.254,.254*
20,1,.15,-.254,.254,-.1863,.2455,0.0*
1,1,.15,-.1863,.2455*
20,1,.15,-.1863,.2455,-.127,.2117,0.0*
1,1,.15,-.127,.2117*
20,1,.15,-.127,.2117,-.0762,.1609,0.0*
1,1,.15,-.0762,.1609*
20,1,.15,-.0762,.1609,-.0423,.1016,0.0*
1,1,.15,-.0423,.1016*
20,1,.15,-.0423,.1016,-.0254,.0339,0.0*
1,1,.15,-.0254,.0339*
20,1,.15,-.0254,.0339,-.0254,-.0339,0.0*
1,1,.15,-.0254,-.0339*
20,1,.15,-.0254,-.0339,-.0423,-.1016,0.0*
1,1,.15,-.0423,-.1016*
20,1,.15,-.0423,-.1016,-.0762,-.1609,0.0*
1,1,.15,-.0762,-.1609*
20,1,.15,-.0762,-.1609,-.127,-.2117,0.0*
1,1,.15,-.127,-.2117*
20,1,.15,-.127,-.2117,-.1863,-.2455,0.0*
1,1,.15,-.1863,-.2455*
20,1,.15,-.1863,-.2455,-.254,-.254,0.0*
1,1,.15,-.254,-.254*
1,1,.15,.0678,-.254*
20,1,.15,.0678,-.254,.0678,.254,0.0*
1,1,.15,.0678,.254*
20,1,.15,.0678,.254,.2372,.254,0.0*
1,1,.15,.2372,.254*
20,1,.15,.2372,.254,.3049,.2286,0.0*
1,1,.15,.3049,.2286*
20,1,.15,.3049,.2286,.3557,.1947,0.0*
1,1,.15,.3557,.1947*
20,1,.15,.3557,.1947,.398,.1439,0.0*
1,1,.15,.398,.1439*
20,1,.15,.398,.1439,.4319,.0847,0.0*
1,1,.15,.4319,.0847*
20,1,.15,.4319,.0847,.4404,0.0,0.0*
1,1,.15,.4404,0.0*
20,1,.15,.4404,0.0,.4319,-.0847,0.0*
1,1,.15,.4319,-.0847*
20,1,.15,.4319,-.0847,.398,-.1439,0.0*
1,1,.15,.398,-.1439*
20,1,.15,.398,-.1439,.3557,-.1947,0.0*
1,1,.15,.3557,-.1947*
20,1,.15,.3557,-.1947,.3049,-.2286,0.0*
1,1,.15,.3049,-.2286*
20,1,.15,.3049,-.2286,.2372,-.254,0.0*
1,1,.15,.2372,-.254*
20,1,.15,.2372,-.254,.0678,-.254,0.0*
1,1,.15,.0678,-.254*
%
%ADD17MACRO17*%
%AMMACRO14*
1,1,.15,0.0,.3048*
20,1,.15,0.0,.3048,-.263965,.1524,0.0*
1,1,.15,-.263965,.1524*
20,1,.15,-.263965,.1524,-.263965,-.1524,0.0*
1,1,.15,-.263965,-.1524*
20,1,.15,-.263965,-.1524,0.0,-.3048,0.0*
1,1,.15,0.0,-.3048*
20,1,.15,0.0,-.3048,.263965,-.1524,0.0*
1,1,.15,.263965,-.1524*
20,1,.15,.263965,-.1524,.263965,.1524,0.0*
1,1,.15,.263965,.1524*
20,1,.15,.263965,.1524,0.0,.3048,0.0*
1,1,.15,0.0,.3048*
%
%ADD14MACRO14*%
%ADD21C,.1*%
G75*
%LPD*%
G75*
G54D10*
X-8476240Y-3334100D03*
Y-3534100D03*
Y-3234100D03*
Y-3434100D03*
Y-2984100D03*
X-8740000Y-2550000D03*
X-8476100Y-2621280D03*
X-8724900Y-1938460D03*
X-8719820Y-1699260D03*
X-8724900Y-1877060D03*
X-8727440Y-1755140D03*
X-8730510Y-1646680D03*
X-8719820Y-1590040D03*
X-8727440Y-1813560D03*
X-8725000Y-1346200D03*
X-8724900Y-868680D03*
Y-924560D03*
X-8719820Y-797560D03*
X-8141970Y-7181850D03*
X-8087360Y-7371080D03*
X-8133080D03*
X-8087360Y-7325360D03*
X-8133080D03*
X-8085230Y-6971840D03*
X-8128410D03*
X-8084820Y-6929120D03*
X-8128000D03*
X-8276810Y-5757300D03*
X-8325070D03*
X-8375870D03*
X-8276810Y-5711580D03*
X-8325070D03*
X-8375870D03*
X-8277860Y-5666740D03*
X-8326120D03*
X-8376920D03*
X-8290560Y-4772660D03*
X-8346440Y-4699000D03*
X-8365110Y-4977790D03*
X-8410830D03*
X-8365110Y-4932070D03*
X-8410830D03*
X-8364220Y-4886960D03*
X-8409940D03*
X-8379460Y-3538220D03*
X-8375440Y-3384100D03*
Y-3284100D03*
X-8194680Y-2890000D03*
X-8371840Y-2971800D03*
X-8473440Y-3045000D03*
X-8356600Y-3045460D03*
X-8417560D03*
X-8254100Y-2834100D03*
X-8273580Y-2375000D03*
X-8471860Y-2384100D03*
X-8439560Y-2540000D03*
X-8416080Y-2387600D03*
X-8085000Y-2684100D03*
X-8285000Y-2734310D03*
X-8194680Y-2735000D03*
X-8422480Y-2334100D03*
X-8350000Y-2265000D03*
X-8215000Y-1545800D03*
X-8249870Y-1495720D03*
X-8225000Y-1295000D03*
X-8300000Y-1295800D03*
X-8409320Y-1390000D03*
X-8303260Y-1054100D03*
X-8145000Y-1145800D03*
X-8255000Y-1195800D03*
X-8191500Y-1390000D03*
X-8335000Y-845820D03*
X-8405000Y-900000D03*
X-8384540Y-792480D03*
X-8295000Y-965000D03*
X-8355000Y-965200D03*
X-7781120Y-7379850D03*
Y-7334130D03*
X-7735400D03*
Y-7379850D03*
X-7713980Y-6126480D03*
Y-6217920D03*
Y-6169660D03*
X-7657670Y-5920430D03*
X-7703390D03*
X-7657670Y-5874710D03*
X-7703390D03*
X-7658100Y-5826760D03*
X-7703820D03*
X-8011160Y-4699000D03*
X-7815580Y-4386580D03*
X-7861300D03*
X-7907020D03*
X-7815580Y-4340860D03*
X-7861300D03*
X-7907020D03*
X-7719060Y-3916680D03*
X-7710000Y-2933800D03*
X-7811400Y-2781400D03*
X-7807760Y-2690000D03*
X-7790000Y-2270000D03*
X-7647940Y581660D03*
X-7366000Y-6327140D03*
X-7411720D03*
X-7366000Y-6278880D03*
X-7411720D03*
X-7322820Y-4886300D03*
X-7447280Y-4693920D03*
X-7299180Y-4529600D03*
X-7250000Y-3040000D03*
X-7219100Y-2940000D03*
X-7159100Y-2000000D03*
X-7495540Y579120D03*
X-7048500Y-7167880D03*
X-7071360Y-6677660D03*
X-6758940Y-3802380D03*
X-6814200Y-795800D03*
X-6875000Y-845800D03*
X-6654800Y-5303520D03*
X-6329680Y-4612640D03*
X-6465000Y-4395800D03*
X-6497320Y-4284980D03*
X-6390000Y-4490000D03*
Y-4260000D03*
X-6298800Y-4264000D03*
X-6390000Y-4040000D03*
X-6311900Y-3406140D03*
X-6461760Y-3060700D03*
X-6512580Y-2484100D03*
X-6450000Y-1845800D03*
X-6525280Y-1795800D03*
X-6520000Y-825000D03*
X-6294120Y403860D03*
X-6176260Y-7250180D03*
X-6206180Y-6764550D03*
X-6156960Y-7056120D03*
X-6200140D03*
X-6201700Y-7010950D03*
X-6158520D03*
X-6210300Y-7155180D03*
X-6205020Y-6721390D03*
X-5861720Y-6614160D03*
X-6173880Y-6045850D03*
X-6118000D03*
X-6118860Y-5994400D03*
X-6174740D03*
X-5960600Y-5653260D03*
X-6210000Y-4270000D03*
X-5918200Y-3845560D03*
X-6018010Y-3378200D03*
X-6016840Y-3175000D03*
X-6042660Y-2547620D03*
X-6035040Y-2717800D03*
X-6248400Y403860D03*
X-5460000Y-6330000D03*
X-5803900Y-5384800D03*
X-5446590Y-4948090D03*
X-5646590Y-4848090D03*
X-5546590Y-4948090D03*
X-5446590Y-4748090D03*
X-5546590Y-4848090D03*
X-5646590Y-4948090D03*
X-5446590Y-4848090D03*
X-5546590Y-4248090D03*
X-5446590Y-4148090D03*
X-5646590Y-3748110D03*
X-5546590D03*
X-5446590Y-3948090D03*
X-5646590Y-4048090D03*
X-5546590D03*
X-5791200Y-3505200D03*
X-5546590Y-3248110D03*
Y-3448110D03*
Y-3348110D03*
X-5646590Y-3448110D03*
Y-3348110D03*
X-5446590D03*
Y-3248110D03*
X-5646590D03*
Y-3548110D03*
X-5446590Y-3448110D03*
Y-3648110D03*
X-5546590Y-3548110D03*
X-5446590D03*
X-5546590Y-2948110D03*
X-5446590Y-3148110D03*
Y-3048110D03*
X-5646590Y-2948110D03*
X-5770480Y-3139440D03*
X-5546590Y-3148110D03*
X-5646590Y-2848110D03*
Y-3048110D03*
X-5546590D03*
X-5446590Y-2948110D03*
X-5546590Y-2848110D03*
X-5446590D03*
Y-2748110D03*
X-5646590D03*
X-5546590D03*
X-5455920Y-1559560D03*
X-5461000Y-165100D03*
X-5537200Y563880D03*
Y507400D03*
X-5588600D03*
X-5186680Y-7218680D03*
Y-7272020D03*
Y-7325360D03*
X-5236210Y-6762750D03*
X-5184140Y-7162800D03*
X-5083810Y-6709410D03*
X-4970780Y-6631940D03*
X-5046590Y-4548090D03*
Y-4948090D03*
X-5246590Y-4548090D03*
X-5146590Y-4548060D03*
X-5346590Y-4648090D03*
X-5246590D03*
Y-4748090D03*
X-5346590D03*
X-5246590Y-4348090D03*
Y-4448090D03*
Y-4248090D03*
X-5046590Y-4348110D03*
X-5046610Y-4148090D03*
X-5146590D03*
Y-4448090D03*
Y-4348090D03*
X-5046590Y-4448110D03*
X-5246590Y-4148090D03*
X-5143500Y-4249420D03*
X-5146590Y-3748110D03*
X-5246590D03*
Y-3948090D03*
X-5146590D03*
X-5246590Y-4048090D03*
X-5146590D03*
X-5046610D03*
X-5346590Y-3948090D03*
X-5246590Y-3248110D03*
X-5346590Y-3448110D03*
Y-3348110D03*
Y-3248110D03*
X-5146590Y-3648110D03*
X-5246590D03*
X-5046590Y-3248110D03*
X-5042800Y-3658270D03*
X-5246590Y-3548110D03*
X-5146590D03*
Y-3248110D03*
Y-3348110D03*
X-5246590D03*
Y-3448110D03*
X-5346590Y-3648110D03*
X-5146590Y-3448110D03*
X-5346590Y-3148110D03*
X-5046590Y-2848110D03*
Y-3048110D03*
X-5146590D03*
X-5246590Y-2848110D03*
X-5146590Y-2948110D03*
X-5246590D03*
X-5046590D03*
X-5146590Y-2848110D03*
X-5346590D03*
X-5146590Y-3148110D03*
X-5346590Y-3048110D03*
Y-2948110D03*
X-5246590Y-3048110D03*
X-5046590Y-3148110D03*
X-5246590D03*
X-5046590Y-2748110D03*
X-5146590D03*
X-5346590D03*
X-5246590D03*
X-5350000Y-980000D03*
X-5097780Y-342900D03*
X-4594860Y-6720840D03*
X-4846320Y-6616700D03*
X-4913630Y-6005830D03*
X-4658360Y-5930900D03*
X-4861560Y-6083300D03*
X-4794250Y-5965190D03*
X-4594860Y-6192520D03*
X-4785360Y-5186680D03*
X-4851400Y-5334000D03*
X-4746590Y-4848090D03*
Y-4748090D03*
Y-4648090D03*
X-4646590Y-4548090D03*
X-4946590D03*
X-4846590D03*
X-4946590Y-4948090D03*
X-4746590Y-4548090D03*
Y-4348110D03*
X-4846590Y-4448090D03*
X-4946590D03*
X-4646590Y-4148090D03*
X-4746590D03*
X-4846590D03*
X-4646590Y-4448090D03*
Y-3748110D03*
X-4746590D03*
X-4846590D03*
X-4646590Y-3948090D03*
Y-4048090D03*
X-4746590Y-3948090D03*
Y-4048090D03*
X-4846590D03*
Y-3948090D03*
X-4946590Y-3348090D03*
X-4846590D03*
X-4646590D03*
Y-3548110D03*
Y-3648110D03*
X-4746590Y-3548110D03*
Y-3648110D03*
X-4846590Y-3548110D03*
Y-3648110D03*
X-4746590Y-3248110D03*
X-4646590D03*
X-4546590D03*
X-4946590D03*
X-4846590D03*
X-4646590Y-2848110D03*
X-4846590Y-3048110D03*
X-4946590Y-2848110D03*
X-4846590Y-2948110D03*
Y-2848110D03*
X-4746590Y-3048110D03*
Y-2848110D03*
X-4946590Y-2948110D03*
X-4746590D03*
X-4946590Y-3048110D03*
X-4646590Y-2948110D03*
X-4946590Y-3148110D03*
X-4746590D03*
X-4846590D03*
X-4546610D03*
X-4846590Y-2748110D03*
X-4746590D03*
X-4646590D03*
X-4946590D03*
X-4550000Y-2052320D03*
X-4160700Y-6993710D03*
X-4211500D03*
X-4262300D03*
X-4163060Y-6944360D03*
X-4213860D03*
X-4264660D03*
X-4518660Y-5963920D03*
X-4330700Y-5537200D03*
Y-5461000D03*
X-4178300D03*
X-4483100Y-5537200D03*
X-4178300D03*
X-4483100Y-5461000D03*
X-4218940Y-5096670D03*
X-4193470Y-5049800D03*
X-4146610Y-4948090D03*
X-4246610D03*
Y-4648090D03*
Y-4848090D03*
Y-4748090D03*
X-4146610Y-4648090D03*
X-4446610Y-4548090D03*
X-4146610Y-4748090D03*
X-4346610Y-4848090D03*
X-4146610D03*
X-4346610Y-4648090D03*
Y-4748090D03*
X-4146610Y-4548090D03*
X-4246610D03*
X-4346610D03*
X-4446610Y-4948090D03*
X-4246610Y-4348110D03*
X-4146610D03*
X-4346610D03*
X-4446610Y-4448090D03*
X-4246610Y-4148090D03*
X-4146610Y-4448110D03*
X-4346610Y-4148090D03*
X-4446610D03*
X-4346610Y-4448110D03*
X-4246610Y-3748110D03*
X-4346610D03*
X-4446610D03*
X-4246610Y-3948090D03*
Y-4048090D03*
X-4346610Y-3948090D03*
Y-4048090D03*
X-4446610Y-3948090D03*
Y-4048090D03*
X-4146610Y-3248110D03*
X-4446610Y-3348090D03*
X-4346610D03*
X-4246610Y-3548110D03*
Y-3648110D03*
X-4246590Y-3248110D03*
X-4346610Y-3548110D03*
Y-3648110D03*
X-4446610Y-3548110D03*
Y-3648110D03*
X-4446590Y-3248110D03*
X-4346590D03*
X-4246610Y-2948110D03*
X-4446610Y-2848110D03*
X-4146610Y-2948110D03*
Y-3048110D03*
X-4446610Y-2948110D03*
Y-3048110D03*
X-4346610Y-2848110D03*
Y-2948110D03*
Y-3048110D03*
X-4246610D03*
Y-3148110D03*
X-4146610D03*
X-4446610D03*
X-4346610D03*
X-4340000Y-2636920D03*
X-4346610Y-2748110D03*
X-4446610D03*
X-4185920Y-2171700D03*
Y-2298700D03*
X-4053840Y-7292340D03*
X-3680460Y-6697980D03*
X-3935000Y-5985000D03*
X-4036060Y-5461000D03*
X-4025900Y-5537200D03*
X-3985260Y-5370310D03*
X-3934460Y-5048290D03*
X-4046610Y-4548090D03*
Y-4748090D03*
X-3946610Y-4848090D03*
X-3846610Y-4948090D03*
X-3946610Y-4748090D03*
X-3846610D03*
Y-4848090D03*
X-3746610Y-4548090D03*
X-4046610Y-4848090D03*
X-3646610Y-4548090D03*
X-4046610Y-4648090D03*
X-3946610Y-4948090D03*
X-4046610D03*
X-3946610Y-4548090D03*
X-3846610D03*
X-3646610Y-4648090D03*
Y-4748090D03*
X-3746610Y-4648090D03*
X-3646610Y-4948090D03*
Y-4848090D03*
X-3746610Y-4748090D03*
X-3846610Y-4648090D03*
Y-4348090D03*
X-3646610D03*
X-3746610Y-4248090D03*
Y-4148090D03*
X-3646610Y-4448090D03*
X-3846610Y-4148090D03*
Y-4248090D03*
X-4046590D03*
X-3846610Y-4448090D03*
X-3946610Y-4348090D03*
X-3746610Y-4448090D03*
X-3646610Y-4148090D03*
X-3946610D03*
X-3746610Y-3748110D03*
X-3846610D03*
X-3746610Y-4048090D03*
X-3846610D03*
X-3646610Y-3948090D03*
X-3746610D03*
X-3946610Y-4048090D03*
X-3646610Y-3748110D03*
X-3946610Y-3948090D03*
X-3846610D03*
X-3946610Y-3748110D03*
X-3746610Y-3348110D03*
X-3846610D03*
X-3746610Y-3248110D03*
X-4046590Y-3548090D03*
X-3846610Y-3648110D03*
Y-3448110D03*
X-4046590Y-3648110D03*
X-3646610Y-3448110D03*
Y-3248110D03*
X-3746610Y-3548110D03*
X-3646610D03*
Y-3348110D03*
Y-3648110D03*
X-3846610Y-3548110D03*
X-3946610Y-3348110D03*
Y-3248110D03*
X-4046610Y-3348090D03*
X-3746610Y-3648110D03*
X-3946610D03*
X-4046610Y-3248110D03*
X-3946610Y-3548110D03*
Y-3448110D03*
X-3746610D03*
X-4046610Y-3048110D03*
X-3946610Y-2848110D03*
X-3646610Y-3148110D03*
X-4046610Y-2948110D03*
X-3746610Y-2848110D03*
X-3946610Y-2948110D03*
Y-3048110D03*
X-3846610Y-2848110D03*
Y-2948110D03*
X-4046610Y-3148110D03*
X-3946610D03*
X-3746610D03*
X-3646610Y-3048110D03*
X-3746610D03*
X-3646610Y-2948110D03*
X-3746610D03*
X-3846610Y-3048110D03*
Y-3148110D03*
X-3810000Y-2352040D03*
X-3903980Y-2357120D03*
X-4048760Y-2618740D03*
X-4047550Y-2379680D03*
X-3746610Y-2748110D03*
X-3670300Y-2349500D03*
X-3846610Y-2748110D03*
X-3601720Y-5556980D03*
X-3395520Y-5341160D03*
X-3601720Y-5077460D03*
X-3546610Y-4548090D03*
Y-4648090D03*
X-3362960Y-4947920D03*
X-3446610Y-4748090D03*
Y-4948090D03*
Y-4848090D03*
X-3546610Y-4748090D03*
Y-4848090D03*
Y-4948090D03*
X-3291840Y-4114800D03*
X-3546610Y-4448090D03*
X-3446610Y-4248090D03*
X-3291840Y-4203700D03*
X-3546610Y-4348090D03*
X-3291840Y-4292600D03*
X-3446610Y-4348090D03*
X-3546610Y-4148090D03*
Y-4248090D03*
X-3446610Y-3748110D03*
X-3291840Y-3670300D03*
X-3446610Y-3948090D03*
X-3295000Y-3848100D03*
X-3291840Y-3759200D03*
X-3546610Y-3948090D03*
Y-3748110D03*
X-3291840Y-4025900D03*
Y-3937000D03*
X-3546610Y-3848090D03*
X-3446610Y-4048090D03*
X-3546610D03*
Y-3648110D03*
Y-3348110D03*
X-3350260Y-3314700D03*
X-3546610Y-3448110D03*
X-3383280Y-3403600D03*
X-3446610Y-3648110D03*
X-3291840Y-3492500D03*
X-3446610Y-3548110D03*
X-3546610Y-3248110D03*
Y-3548110D03*
X-3291840Y-3581400D03*
X-3446610Y-3348110D03*
X-3312540Y-3047620D03*
X-3324860Y-2870200D03*
X-3446610Y-3048110D03*
X-3291840Y-3225800D03*
X-3446610Y-2848110D03*
X-3546610Y-2948110D03*
Y-2848110D03*
Y-3048110D03*
X-3479800Y-2379980D03*
X-3546610Y-2748110D03*
X-3040000Y-6480000D03*
X-3063240Y-5067300D03*
X-2895000Y-4725000D03*
X-3063240Y-4953000D03*
X-3004820Y-4335780D03*
X-2940000Y-4230000D03*
X-3042920Y-4292600D03*
X-2997200Y-4254500D03*
X-2981960Y-4163810D03*
X-3070000Y-3937000D03*
Y-4045000D03*
X-2971800Y-3759200D03*
X-3014980Y-3714070D03*
X-3030000Y-3895000D03*
X-3081020Y-3670300D03*
X-2950000Y-4055000D03*
X-2990000Y-3996910D03*
X-3075000Y-3805000D03*
X-3025000Y-3350000D03*
X-3025140Y-3294380D03*
X-3024490Y-3403600D03*
X-3042920Y-3632200D03*
X-3008020Y-3581400D03*
X-3060080Y-3447140D03*
X-3068320Y-3510280D03*
X-3081190Y-3116680D03*
X-3040000Y-3002280D03*
X-3083560Y-2870200D03*
X-3078480Y-3225800D03*
X-2954020Y-2954020D03*
X-2969260Y-3154680D03*
X-3061890Y-2821450D03*
X-3070860Y-3172460D03*
X-2961640Y-3048000D03*
X-3015000Y-2910000D03*
X-2395000Y-3865000D03*
X-2400000Y-3790000D03*
X-2645170Y-1471690D03*
X-2679700Y-1176020D03*
X-2762670D03*
X-2487930Y-797560D03*
X-2641600Y-762000D03*
X-2487930Y-876300D03*
Y-716280D03*
X-2496260Y-556260D03*
X-2492480Y-477520D03*
X-2560000Y170000D03*
X-1947720Y-7252160D03*
X-2189480Y-7076440D03*
X-1961200Y-5440000D03*
Y-5520000D03*
X-2210000D03*
X-2249400Y-5026660D03*
X-1982700Y-5097200D03*
X-1910000Y-5010000D03*
X-1960000Y-5045000D03*
X-1961200Y-5360000D03*
X-2210000Y-5400000D03*
X-1938020Y-4841240D03*
X-2321560Y-4688840D03*
X-2290000Y-4850000D03*
X-1958100Y-4729820D03*
X-1907540Y-4792980D03*
X-2235000Y-4785000D03*
X-2196990Y-4571320D03*
X-2182620Y-4862830D03*
X-1940560Y-4610100D03*
X-1910000Y-4464660D03*
X-2285000Y-4472940D03*
X-1985000Y-4520000D03*
X-1988580Y-4460320D03*
X-1909040Y-4013200D03*
X-2050000Y-3700000D03*
X-1929030Y-4099680D03*
X-1982880Y-4097200D03*
X-2267180Y-3964940D03*
X-2260000Y-3790000D03*
X-2236700Y-3901440D03*
X-2239240Y-4069080D03*
X-1988580Y-4019430D03*
X-2050000Y-3290000D03*
X-1995000Y-3325000D03*
X-2030000Y-3600000D03*
X-2074440Y-2952500D03*
X-2075000Y-3225000D03*
X-2025000Y-3075000D03*
X-2005000Y-3175000D03*
X-1975730Y-2351650D03*
X-2199120Y-2716990D03*
X-1913010Y-2716270D03*
X-2073730Y-2716990D03*
X-2171700Y-1920240D03*
X-1947750Y-2103550D03*
X-2100000Y-1650000D03*
X-2108200Y-1137920D03*
X-2062480Y-1000760D03*
X-2140580Y-551820D03*
X-2115820Y-396240D03*
X-2137020Y363700D03*
X-2139560Y310360D03*
X-2138680Y411480D03*
X-1999860Y310360D03*
X-2093840D03*
X-2045580D03*
X-1997320Y363700D03*
X-2043040D03*
X-2091300D03*
X-1998980Y411480D03*
X-2044700D03*
X-2092960D03*
X-1837520Y-6951370D03*
X-1789260D03*
X-1788160Y-6906260D03*
X-1836420D03*
X-1703260Y-5537200D03*
Y-5417200D03*
X-1665000Y-5340000D03*
X-1605280Y-5139480D03*
X-1570000Y-5050000D03*
X-1681480Y-5097200D03*
X-1630000Y-4590000D03*
X-1685000D03*
X-1705300Y-4777200D03*
X-1705840Y-4490720D03*
X-1645000Y-4470000D03*
X-1570000D03*
X-1455000Y-4485000D03*
X-1517800Y-4537200D03*
X-1585000Y-4070000D03*
X-1685000Y-3950000D03*
X-1841500Y-3362960D03*
X-1820000Y-2720000D03*
X-1790000Y-2535000D03*
X-1859890Y-2168550D03*
X-1760000Y-1660000D03*
X-1651000Y-1659000D03*
X-1570000Y-1660000D03*
X-1457960Y-182880D03*
X-1796960Y225980D03*
Y175180D03*
X-1649640Y225980D03*
Y175180D03*
X-1699260Y226060D03*
X-1747670Y226770D03*
X-1699260Y175260D03*
X-1747520D03*
X-1663700Y-140970D03*
X-1695450Y473710D03*
X-1440000Y-4580000D03*
X-1157840Y-3517500D03*
Y-3644500D03*
Y-3362160D03*
X-1158240Y-3263500D03*
X-1235240Y-3225000D03*
X-1238580Y-3075000D03*
X-1320000Y-1740000D03*
X-1409700Y-1315720D03*
X-1026160Y-1117600D03*
X-1409700Y-182880D03*
X-1090930Y-257810D03*
X-1170940Y-208280D03*
X-1224280Y-157480D03*
X-1170940D03*
X-1437640Y-139700D03*
X-1389380D03*
X-1036320Y170180D03*
X-800000Y-3800000D03*
X-949960Y-3840480D03*
X-657860Y-1394460D03*
X-637540Y-1026160D03*
X-650240Y-391160D03*
X-967740Y259080D03*
X-868680Y294640D03*
X-208280Y-5910580D03*
X-556260Y-1856740D03*
X270000Y-4930000D03*
G54D11*
X-8693400Y272840D03*
X-8607800Y273300D03*
X-8693400Y359200D03*
X-8607800Y359660D03*
X-8691880Y444500D03*
X-8606280Y444960D03*
X-8605520Y528320D03*
X-8694420D03*
X-8614820Y780800D03*
Y860800D03*
Y940800D03*
X-8694820Y780800D03*
Y940800D03*
Y860800D03*
X-8065100Y-6810400D03*
X-8063740Y-6726840D03*
X-8153400Y-6809740D03*
X-8152040Y-6726180D03*
X-8063740Y-6646840D03*
X-8152040Y-6646180D03*
X-8073480Y-6314230D03*
X-8162200Y-6313880D03*
X-8073480Y-6229230D03*
Y-6149230D03*
X-8162200Y-6148880D03*
Y-6228880D03*
X-8234680Y-4099560D03*
X-8028940Y228600D03*
X-8028640Y407680D03*
X-8027360Y316240D03*
X-7615340Y-360280D03*
X-7948600Y227680D03*
X-7868600D03*
X-7948600Y407680D03*
X-7868600D03*
X-7948600Y317680D03*
X-7868600D03*
X-7597410Y783270D03*
Y869630D03*
X-7597140Y952500D03*
X-7195140Y-5732580D03*
Y-5812580D03*
X-7310120Y-5194300D03*
X-7223760D03*
X-7297430Y-173560D03*
X-7213610D03*
X-7515340Y-360280D03*
X-7299900Y-90120D03*
X-7299960Y-7620D03*
X-7216080Y-90120D03*
X-7216140Y-7620D03*
X-7343410Y783270D03*
X-7427230D03*
X-7513590D03*
X-7343410Y869630D03*
X-7427230D03*
X-7513590D03*
X-7513320Y952500D03*
X-7426960D03*
X-7343140D03*
X-6782100Y-5712160D03*
X-7115140Y-5732580D03*
Y-5812580D03*
Y-5572580D03*
Y-5652580D03*
X-7132320Y-175260D03*
X-7132260Y-90120D03*
X-7132320Y-7620D03*
X-6502100Y-5689600D03*
X-6276340Y-5257800D03*
X-6527800Y-5076500D03*
X-6410020Y-4594900D03*
X-6365240Y-3820160D03*
X-6489700Y-3825770D03*
X-5859700Y-5900500D03*
X-6096000Y-4701540D03*
X-6220460Y-4960620D03*
X-6035040Y-3827780D03*
X-6129020D03*
X-6225540Y-3835400D03*
X-6160000Y-2138180D03*
X-5739380Y-2217420D03*
Y-2131060D03*
X-5135880Y-2420000D03*
Y-2540000D03*
X-5133340Y-2156460D03*
Y-2250440D03*
X-5021580Y-2161540D03*
X-5135470Y-797450D03*
X-5051650D03*
X-4965290D03*
X-5135470Y-713630D03*
X-5051650D03*
X-4965290D03*
X-4965700Y-627380D03*
X-5052060D03*
X-5135880D03*
X-4803140Y-5420360D03*
X-4914900Y-5702300D03*
X-4564900Y-5003800D03*
X-4720000Y-2165940D03*
X-4878930Y-797450D03*
Y-713630D03*
X-4879340Y-627380D03*
X-4584700Y193040D03*
X-4426350Y-2137810D03*
X-4106800Y-1719200D03*
X-4493260Y193040D03*
X-4401720D03*
X-4046220Y-6593840D03*
Y-6718560D03*
X-3706800Y-5077460D03*
X-4064000Y-5156200D03*
X-3760400Y-2043500D03*
X-3867680Y-471720D03*
X-3787680D03*
X-3707680D03*
X-3867680Y-551720D03*
X-3787680D03*
X-3707680D03*
X-3345200Y-4666000D03*
X-3317240Y-2700020D03*
X-3477260Y-1348740D03*
X-3335150Y593180D03*
X-3429130D03*
X-3520570D03*
X-3335150Y684620D03*
X-3429130D03*
X-3520570D03*
X-3393440Y1122680D03*
Y1031240D03*
X-3307080Y1122680D03*
Y1031240D03*
X-3337560Y772160D03*
X-3431540D03*
X-3522980D03*
X-2829440Y-6163200D03*
X-2829180Y-6262260D03*
X-2936120Y-6163200D03*
X-2935860Y-6262260D03*
X-2934760Y-5807500D03*
X-3097860Y-5395900D03*
X-2870200Y-4480560D03*
X-2971800Y-3482340D03*
X-3052100Y-2386460D03*
X-2903220Y-2346960D03*
X-2790000Y-2350000D03*
Y-2260000D03*
X-2686240Y-7264010D03*
X-2538930Y-7265420D03*
X-2411930D03*
X-2685040Y-7018780D03*
Y-6593840D03*
X-2684780Y-6692900D03*
X-2370000Y-5480000D03*
X-2560000Y-5490000D03*
X-2475000Y-5655000D03*
X-2730500Y-5692140D03*
X-2480000Y-5090000D03*
X-2519680Y-4569460D03*
X-2606040Y-4572000D03*
X-2527460Y-4477300D03*
X-2607460D03*
X-2628900Y-3685540D03*
X-2700020Y-3482340D03*
X-2520000Y-3149600D03*
X-2700000Y-2380000D03*
Y-2290000D03*
X-2722880Y-1808480D03*
X-2265000Y-5650000D03*
X-2270000Y-4360000D03*
X-2171700Y-195580D03*
X-1701800Y-3274060D03*
X-1536700D03*
X-1620000Y-3150000D03*
X-1704340Y-3022600D03*
X-1531620Y-3030220D03*
X-1446040Y-2472980D03*
X-1808070Y-825850D03*
X-1709010D03*
X-1607410D03*
X-1503270D03*
X-1502000Y-919520D03*
X-1606140D03*
X-1707740D03*
X-1806800D03*
X-1809750Y-731210D03*
X-1710690D03*
X-1609090D03*
X-1504950D03*
X-1503680Y-632460D03*
X-1607820D03*
X-1709420D03*
X-1808480D03*
X-1155700Y-6413500D03*
X-1155810Y-6553280D03*
X-1155700Y-6273800D03*
X-1016000D03*
X-1158240Y-2748280D03*
Y-2621280D03*
X-1160780Y-2506980D03*
X-1313960Y-2472980D03*
X-1051560Y-1315720D03*
X-1046480Y-764910D03*
X-1045210Y-858580D03*
X-876300Y-6273800D03*
X-645800Y-5657690D03*
X-620000Y-4560000D03*
X-700000D03*
Y-4480000D03*
X-620000D03*
X-586150Y-3352350D03*
X-589280Y-3263500D03*
X-581660Y-3497580D03*
X-590000Y-2885000D03*
X-775000Y-2480000D03*
X-590000D03*
X-248920Y-5227320D03*
X-540000Y-4560000D03*
X-244390Y-4729480D03*
X-540000Y-4480000D03*
X-328260Y-3347560D03*
X-408940D03*
X-525000Y-2205000D03*
X-95000Y-6100000D03*
X223520Y-5077460D03*
X43180Y-4973320D03*
X119380Y-5080000D03*
X17780D03*
X-88360Y-5081270D03*
X-25400Y-5354050D03*
X96520Y-3462020D03*
Y-3597980D03*
G54D20*
X-247000Y-3173000D03*
Y-2919000D03*
Y-2411000D03*
Y-2665000D03*
Y-1903000D03*
Y-2157000D03*
Y-1395000D03*
Y-1649000D03*
Y-1141000D03*
Y-887000D03*
X7000Y-3173000D03*
Y-2919000D03*
Y-2411000D03*
Y-2665000D03*
Y-1903000D03*
Y-2157000D03*
Y-1395000D03*
Y-1649000D03*
Y-1141000D03*
Y-887000D03*
G54D21*
G01X-9169000Y-7603000D02*
X431000D01*
Y1397000D01*
X-9169000D01*
Y-7603000D01*
G54D12*
X-8140700Y-2484100D03*
Y-845800D03*
X-7124700Y-2484100D03*
Y-845800D03*
G54D13*
X-8224990Y-1795310D03*
X-7438900Y-6066460D03*
X-7294120D03*
Y-5921680D03*
X-7438900D03*
X-7366140Y-5994980D03*
X-7162800Y-3911600D03*
X-6903720Y-6217920D03*
X-6846800Y-6273740D03*
X-6847840Y-6217920D03*
X-6779600Y-4787900D03*
X-6766560Y-4617720D03*
X-7127240Y-4815840D03*
X-6789420Y-4724400D03*
X-6730000Y-4426500D03*
Y-4101500D03*
X-6824980Y-4102100D03*
X-6730000Y-4356100D03*
X-6731000Y-4491500D03*
X-6779260Y-4264660D03*
X-6822440Y-3911600D03*
X-6971110Y-3796500D03*
X-7072710Y-3794760D03*
X-6820000Y-3330000D03*
X-6819140Y-3540000D03*
X-6839020Y-3034100D03*
X-6936740Y-3030220D03*
X-6926580Y-2784100D03*
X-6839020Y-2834100D03*
X-7010400Y-2786380D03*
X-6839020Y-2934100D03*
X-6890000Y-2584100D03*
X-6926580Y-2684100D03*
X-6850380Y-2387600D03*
X-6839020Y-2634100D03*
Y-2734100D03*
X-6808920Y-2534100D03*
X-6930130Y-2229870D03*
X-6839020Y-1995800D03*
X-6926580Y-1745800D03*
X-6839020Y-1495800D03*
X-6930150Y-1682400D03*
X-6925000Y-1510000D03*
X-6839020Y-1695800D03*
Y-1895800D03*
Y-1395800D03*
X-6926580Y-1445800D03*
Y-1345800D03*
X-6837680Y-1295400D03*
X-6840220Y-1206500D03*
X-6820000Y-920000D03*
X-6984560Y357400D03*
X-6291580Y-5573700D03*
X-6362700Y-5359400D03*
X-6604000Y-3771900D03*
X-6540600Y-3384100D03*
Y-3284100D03*
X-6454140Y-3334100D03*
X-6466840Y-3535680D03*
X-6454140Y-3234100D03*
Y-3434100D03*
Y-3134100D03*
X-6540600Y-3184100D03*
Y-3084100D03*
X-6311900Y-3073400D03*
X-6390640Y-2446020D03*
X-6510000Y-1595800D03*
X-6466840Y-1045800D03*
X-6378060Y-1095800D03*
X-6466840Y-1145800D03*
X-6378060Y-1195800D03*
X-6525000Y-1300000D03*
X-6466840Y-945800D03*
X-6518600Y-745800D03*
X-6378060Y-995800D03*
X-6594560Y-162600D03*
X-6344560Y-217600D03*
X-6594560Y-327600D03*
Y-247600D03*
X-6519560Y-117600D03*
X-6441440Y117960D03*
Y-26820D03*
X-6296660D03*
Y117960D03*
X-6369960Y45200D03*
X-6102100Y-5264400D03*
X-6180600Y-5287500D03*
X-5839200Y-4556500D03*
X-5836920Y-4426500D03*
X-6134100Y-3073400D03*
X-6037580Y-2946400D03*
X-6219560Y-217600D03*
Y-137600D03*
X-5412730Y-5905510D03*
X-5803900Y-5636260D03*
X-5519420Y-5524500D03*
X-5735910Y-5638800D03*
X-5763260Y-5808980D03*
X-5729870Y-5501640D03*
X-5760720Y-5298440D03*
X-5811520Y-5224700D03*
X-5610860Y-5105400D03*
X-5825580Y-4296500D03*
X-5745000Y-2385000D03*
Y-2470000D03*
X-5740000Y-2555000D03*
X-5440000Y-2620000D03*
X-5511900Y-2158010D03*
X-5664560Y407400D03*
X-5220500Y-5996430D03*
X-5114810Y-6103620D03*
X-5367020Y-5422900D03*
X-5260340Y-5445760D03*
X-5265420Y-5699760D03*
X-5176520Y-5811520D03*
X-5367020Y-5646420D03*
X-4973320Y-5346700D03*
X-5315120Y-5129700D03*
X-4632960Y-5478780D03*
X-4176270Y-2628390D03*
X-4152030Y-1990490D03*
X-4023360Y-6870700D03*
X-3667760Y-6586220D03*
X-3900930Y-5514340D03*
X-3949200Y-5134250D03*
X-3886200Y-5126230D03*
X-4055860Y-5304790D03*
X-3740000Y-2658110D03*
X-3659600Y-2145000D03*
X-3778410Y-1568290D03*
X-3984080Y-1443280D03*
Y-1393280D03*
X-3650460Y-1094820D03*
X-3847680Y-1131720D03*
X-3747680D03*
X-3650460Y-989820D03*
Y-884820D03*
X-3977680Y-361720D03*
X-3285620Y-6837680D03*
X-3298660Y-6421590D03*
X-3203740D03*
X-3451860Y-6223000D03*
X-3253080Y-5775820D03*
X-3346210Y-5784030D03*
X-3413300Y-5565600D03*
X-3454400Y-5753100D03*
X-3467100Y-5438140D03*
X-3352800Y-5067300D03*
X-3445510Y-5068570D03*
X-3362960Y-4838700D03*
X-3334020Y-4446000D03*
X-3479800Y-2628900D03*
X-3594100D03*
X-3365500D03*
X-3378200Y-1990490D03*
X-3580000Y-2150000D03*
X-3276420Y-1770200D03*
X-3380000Y-1896510D03*
Y-1840000D03*
X-3287460Y-1618680D03*
X-3312680Y-1126720D03*
X-3222680Y-1036720D03*
X-3324860Y-596900D03*
X-3393080Y-667120D03*
X-3560380Y-872120D03*
X-3225060Y-954660D03*
X-3212360Y-882360D03*
X-3464560Y-594360D03*
Y-739140D03*
X-3319780D03*
X-3322670Y-935070D03*
X-3322680Y-301720D03*
Y-166720D03*
X-3232680D03*
Y-301720D03*
X-3387680Y-406720D03*
Y-351720D03*
X-3360680Y-1720D03*
X-3487680D03*
X-3424180D03*
X-3025000Y-6925000D03*
X-3154680Y-5989170D03*
X-2973070Y-5990590D03*
X-2880000Y-5430000D03*
X-3101850Y-5613910D03*
X-3065000Y-5181600D03*
X-3074770Y-4853100D03*
X-3030000Y-4775000D03*
X-2880000Y-3950000D03*
X-3185000Y-2150000D03*
X-3018540Y-2018510D03*
X-2882200Y-1710600D03*
X-3050000Y-1313270D03*
X-3100000D03*
X-2900000Y-1355000D03*
X-3162680Y-1121720D03*
X-2339340Y-6250940D03*
X-2720000Y-5806440D03*
X-2381180Y-3275400D03*
X-2692400Y-3002280D03*
X-2459360Y-2395400D03*
X-2373600Y-2749580D03*
X-2479040Y-1908550D03*
X-2453640Y-2011680D03*
X-2725000Y-1365000D03*
X-2637680Y-221720D03*
Y-171720D03*
Y-121720D03*
X-2144780Y-6250940D03*
X-2280000Y-4950000D03*
X-2209200Y-3591160D03*
X-2103130Y-3591450D03*
X-2209050Y-3644640D03*
X-2103050Y-3644950D03*
X-2133600Y-2542540D03*
X-1640000Y-4930000D03*
X-1470000Y-3560000D03*
X-1750000Y-3550000D03*
X-1745000Y-2755000D03*
X-1545000Y-2765000D03*
X-1495000D03*
X-1445000D03*
X-1663700Y-2722880D03*
X-1875000Y-1973550D03*
X-1424940Y-5031740D03*
X-1010000Y-4890000D03*
X-1065010D03*
X-1386990Y-4805000D03*
X-1390000Y-3930000D03*
Y-3880000D03*
X-1230000Y-3770000D03*
X-1008380Y-2252980D03*
Y-2189480D03*
X-1021080Y-1678940D03*
X-1082040D03*
X-1145540D03*
X-1020960Y1034180D03*
X-1021080Y1099820D03*
X-570230Y-5888990D03*
X-642620Y-5438140D03*
X-640000Y-5560000D03*
X-571500Y-5435600D03*
X-640000Y-5500000D03*
X-970000Y-5250000D03*
Y-5200000D03*
X-715010Y-5325110D03*
X-950000Y-4490000D03*
X-1000000D03*
X-620000Y-4060000D03*
Y-4010000D03*
X-760000Y-3900000D03*
X-960000Y-3740000D03*
X-873760Y-2252980D03*
X-942340D03*
X-873760Y-2189480D03*
X-942340D03*
X-688340Y-1640840D03*
X-629920Y-1582420D03*
Y-1640840D03*
X-688340Y-1584960D03*
X-610130Y584730D03*
X-822840Y1034180D03*
X-888880D03*
X-954920D03*
X-822960Y1099820D03*
X-889000D03*
X-955040D03*
X-555000Y-6080000D03*
X-497840Y-5433060D03*
X-510540Y-3741420D03*
X-546100Y523240D03*
X-490220Y584200D03*
X-546100D03*
X-88900Y-6414260D03*
X228600Y-6421120D03*
X235150Y-6060970D03*
X27940Y-5866200D03*
X95000D03*
X110000Y-5570000D03*
X-50400Y-5579600D03*
X-400D03*
X49600D03*
X95000Y-5792400D03*
X254000Y-5694680D03*
X251460Y-5509260D03*
Y-5245100D03*
X31460Y-5409260D03*
Y-5299260D03*
X176870Y-5209540D03*
X206400Y-2519020D03*
Y-2265020D03*
Y-2011020D03*
Y-1503020D03*
Y-1757020D03*
Y-1249020D03*
X261450Y-281290D03*
Y-222870D03*
X200490Y-281290D03*
Y-222870D03*
G54D14*
X-6670040Y-5735320D03*
X-6124580Y-5007930D03*
X-2990000Y-2240000D03*
X-1440000Y-5790000D03*
G54D15*
X-3585630Y-6918210D03*
X-3145630D03*
X-350130Y74640D03*
Y514640D03*
G54D16*
X-3570000Y-5860000D03*
Y-5660000D03*
G54D17*
X-830580Y-6116320D03*
G54D18*
Y-6715760D03*
G54D19*
X-360680Y-6416040D03*
M02*
