G04 ================== begin FILE IDENTIFICATION RECORD ==================*
G04 Layout Name:  STANDARD.brd*
G04 Film Name:    2-GND*
G04 File Format:  Gerber RS274X*
G04 File Origin:  Cadence Allegro 16.6-P004*
G04 Origin Date:  Thu Sep 18 09:56:33 2014*
G04 *
G04 Layer:  VIA CLASS/2-GND*
G04 Layer:  PIN/2-GND*
G04 Layer:  ETCH/2-GND*
G04 Layer:  BOARD GEOMETRY/OUTLINE*
G04 *
G04 Offset:    (0.0000 0.0000)*
G04 Mirror:    No*
G04 Mode:      Positive*
G04 Rotation:  0*
G04 FullContactRelief:  No*
G04 UndefLineWidth:     0.1000*
G04 ================== end FILE IDENTIFICATION RECORD ====================*
%FSLAX25Y25*MOMM*%
%IR0*IPPOS*OFA0.00000B0.00000*MIA0B0*SFA1.00000B1.00000*%
%ADD15C,.8*%
%ADD16C,.9*%
%ADD13C,.508*%
%ADD10C,.4064*%
%ADD11C,.762*%
%ADD17C,1.4*%
%ADD14C,1.016*%
%ADD12C,1.27*%
%ADD21C,1.524*%
%ADD20O,1.778X3.81*%
%ADD19O,3.81X1.778*%
%ADD18O,4.572X1.778*%
%ADD22C,.1*%
%ADD25C,.9084*%
%ADD23C,.8068*%
%ADD29C,2.0044*%
%ADD24C,2.1124*%
%ADD26C,1.1624*%
%ADD27C,1.7424*%
%ADD28C,1.4964*%
G75*
%LPD*%
G75*
G36*
G01X-9029700Y-7424420D02*
Y1188720D01*
X-3432680D01*
G02X-3426840Y1170250I0J-10158D01*
G03X-3436610Y1083760I33398J-47569D01*
G02Y1070160I-7543J-6800D01*
G03X-3353730Y988800I43169J-38919D01*
G02X-3346790I3470J-3709D01*
G03X-3263910Y1070160I39711J42441D01*
G02Y1083760I7543J6800D01*
G03X-3273680Y1170250I-43168J38921D01*
G02X-3267840Y1188720I5840J8312D01*
G01X312420D01*
Y-7424420D01*
X-9029700D01*
G37*
%LPC*%
G75*
G36*
G01X-8572650Y820800D02*
G02X-8654820Y738630I-42170J-40000D01*
G02X-8736990Y820800I-40000J42170D01*
G02Y900800I42170J40000D01*
G02X-8654820Y982970I42170J40000D01*
G02X-8572650Y900800I40000J-42170D01*
G02Y820800I-42170J-40000D01*
G37*
G36*
G01X-3468050Y550010D02*
G03X-3481650I-6800J-7543D01*
G02X-3563740Y632100I-38920J43170D01*
G03Y645700I-7543J6800D01*
G02X-3563570Y723720I43169J38916D01*
G03X-3563770Y730750I-3762J3411D01*
G02X-3484060Y815330I40789J41409D01*
G03X-3470460I6800J7543D01*
G02X-3391540Y814330I38919J-43168D01*
G03X-3377560I6990J7368D01*
G02X-3294560Y733060I40005J-42162D01*
G03X-3294360Y726030I3762J-3411D01*
G02X-3291980Y645700I-40788J-41409D01*
G03Y632100I7543J-6800D01*
G02X-3375150Y551010I-43170J-38920D01*
G03X-3389130I-6990J-7368D01*
G02X-3468050Y550010I-40001J42168D01*
G37*
G36*
G01X-490680Y538780D02*
G03X-500890Y527640I-100J-10157D01*
G02X-591200Y528650I-45210J-4389D01*
G03X-602900Y539890I-10087J1210D01*
G02X-577850Y616680I-7231J44840D01*
G02X-518160Y620010I31750J-32480D01*
G02X-490680Y538780I27939J-35811D01*
G37*
G36*
G01X-5508390Y535640D02*
G02X-5562900Y476310I-28809J-28237D01*
G02X-5587600Y547730I-25701J31093D01*
G03X-5577250Y559090I261J10157D01*
G02X-5508390Y535640I40054J4790D01*
G37*
G36*
G01X-6271260Y437100D02*
G02Y370620I22860J-33240D01*
G02Y437100I-22860J33240D01*
G37*
G36*
G01X-2069710Y278030D02*
G02X-2116700Y277120I-24130J32329D01*
G02X-2168500Y338470I-22870J33234D01*
G02X-2170320Y386460I31481J25223D01*
G02X-2115820Y444720I31642J25021D01*
G02X-2068830Y443810I22860J-33239D01*
G02X-2021840Y444720I24130J-32329D01*
G02X-1965680Y388720I22855J-33239D01*
G02X-1968380Y335590I-31640J-25026D01*
G02X-2022720Y277120I-31476J-25233D01*
G02X-2069710Y278030I-22860J33239D01*
G37*
G36*
G01X-7827790Y269060D02*
G02X-7908600Y185510I-40812J-41382D01*
G02X-7989250Y186140I-39998J42169D01*
G02X-8070080Y269650I-39681J42465D01*
G03X-8069950Y276700I-3595J3592D01*
G02X-8071060Y354550I42592J39540D01*
G03X-8071250Y368160I-7642J6700D01*
G02X-7988620Y449830I42619J39516D01*
G02X-7908600Y449850I40021J-42149D01*
G02X-7827790Y366300I39998J-42168D01*
G03Y359060I3566J-3620D01*
G02Y276300I-40810J-41380D01*
G03Y269060I3566J-3620D01*
G37*
G36*
G01X-4532180Y149870D02*
G03X-4545780I-6800J-7543D01*
G02Y236210I-38920J43170D01*
G03X-4532180I6800J7543D01*
G02X-4454300Y236170I38918J-43169D01*
G03X-4440680I6810J7538D01*
G02Y149910I38960J-43130D01*
G03X-4454300I-6810J-7538D01*
G02X-4532180Y149870I-38962J43129D01*
G37*
G36*
G01X-1723390Y142930D02*
G02X-1772190Y143340I-24130J32329D01*
G02X-1828300Y200580I-24771J31839D01*
G02X-1772830Y258300I31343J25393D01*
G02X-1722990Y258680I25162J-31530D01*
G02X-1674400Y257830I23732J-32620D01*
G02X-1618300Y200580I24762J-31847D01*
G02X-1674500Y143410I-31339J-25401D01*
G02X-1723390Y142930I-24760J31849D01*
G37*
G36*
G01X-3392430Y-34200D02*
G02X-3455930I-31750J32480D01*
G02Y30760I-31750J32480D01*
G02X-3392430I31750J-32480D01*
G02Y-34200I31750J-32480D01*
G37*
G36*
G01X-7089330Y-129300D02*
G03Y-136140I3753J-3420D01*
G02X-7173830Y-215940I-42988J-39118D01*
G02X-7252150Y-217060I-39774J42380D01*
G03X-7258890I-3370J-3805D01*
G02X-7342190Y-136480I-38544J43501D01*
G03X-7342390Y-129780I-3913J3236D01*
G02X-7340870Y-48900I42490J39656D01*
G02X-7261420Y35880I40910J41280D01*
G03X-7254680I3370J3805D01*
G02X-7177600I38540J-43500D01*
G03X-7170860I3370J3805D01*
G02X-7091350Y-48840I38540J-43500D01*
G02X-7089330Y-129300I-40910J-41282D01*
G37*
G36*
G01X-1197610Y-127210D02*
G02X-1139600Y-182880I26674J-30264D01*
G02X-1211280Y-207980I-31341J-25399D01*
G03X-1222010Y-197760I-10158J78D01*
G02X-1197610Y-127210I-2267J40279D01*
G37*
G36*
G01X-2599760Y-146720D02*
G02Y-196720I-37920J-25000D01*
G02X-2675600I-37920J-25000D01*
G02Y-146720I37920J25000D01*
G02X-2599760I37920J25000D01*
G37*
G36*
G01X-3747680Y-593890D02*
G02X-3827680I-40000J42170D01*
G02X-3909850Y-511720I-40000J42170D01*
G02X-3827680Y-429550I42170J40000D01*
G02X-3747680I40000J-42170D01*
G02X-3665510Y-511720I40000J-42170D01*
G02X-3747680Y-593890I-42170J-40000D01*
G37*
G36*
G01X-6490460Y-781450D02*
G03X-6491370Y-796580I6300J-7971D01*
G02X-6547610Y-795590I-28629J-28420D01*
G03X-6547990Y-780430I-6950J7411D01*
G02X-6490460Y-781450I29388J34630D01*
G37*
G36*
G01X-8694370Y-842310D02*
G02X-8695800Y-896620I-30529J-26370D01*
G02X-8754000I-29100J-27940D01*
G02X-8751370Y-838240I29100J27938D01*
G03X-8750350Y-823930I-6666J7667D01*
G02X-8693350Y-828000I30528J26370D01*
G03X-8694370Y-842310I6666J-7667D01*
G37*
G36*
G01X-8254670Y-1322330D02*
G03X-8269760Y-1322500I-7468J-6888D01*
G02X-8270330Y-1268470I-30240J26699D01*
G03X-8255240Y-1268300I7468J6888D01*
G02X-8254670Y-1322330I30240J-26699D01*
G37*
G36*
G01X-3075000Y-1275350D02*
G02Y-1351190I25000J-37920D01*
G02Y-1275350I-25000J37920D01*
G37*
G36*
G01X-4022000Y-1418280D02*
G02X-3946160I37920J25000D01*
G02X-4022000I-37920J-25000D01*
G37*
G36*
G01X-8209860Y-1500880D02*
G03X-8205960Y-1506490I5038J-658D01*
G02X-8255010Y-1540640I-9043J-39313D01*
G03X-8258910Y-1535030I-5038J658D01*
G02X-8209860Y-1500880I9043J39313D01*
G37*
G36*
G01X-595140Y-1611630D02*
G02X-659130Y-1675620I-34780J-29210D01*
G02X-724150Y-1612900I-29210J34782D01*
G02X-660640Y-1548960I35808J27945D01*
G02X-595140Y-1611630I30722J-33454D01*
G37*
G36*
G01X-3415560Y-1868260D02*
G02X-3344440I35560J28260D01*
G02X-3415560I-35560J-28250D01*
G37*
G36*
G01X-8695170Y-1904330D02*
G03Y-1911190I3743J-3430D01*
G02X-8754630I-29730J-27270D01*
G03Y-1904330I-3743J3430D01*
G02X-8754830Y-1850010I29729J27270D01*
G03X-8755110Y-1842910I-3768J3407D01*
G02X-8758330Y-1787620I27671J29350D01*
G03Y-1781080I-3891J3270D01*
G02X-8752210Y-1723300I30891J25942D01*
G02X-8754690Y-1678970I32390J24046D01*
G02X-8756400Y-1615740I24179J32292D01*
G03X-8755210Y-1609410I-3263J3890D01*
G02X-8693930Y-1620980I35389J19368D01*
G03X-8695120Y-1627310I3263J-3890D01*
G02X-8695640Y-1666970I-35389J-19369D01*
G02X-8695050Y-1731100I-24180J-32290D01*
G02X-8696550Y-1781080I-32391J-24040D01*
G03Y-1787620I3891J-3270D01*
G02X-8697510Y-1840610I-30890J-25944D01*
G03X-8697230Y-1847710I3768J-3407D01*
G02X-8695170Y-1904330I-27670J-29354D01*
G37*
G36*
G01X-5696940Y-2170770D02*
G03Y-2177710I3709J-3470D01*
G02X-5781820I-42440J-39710D01*
G03Y-2170770I-3709J3470D01*
G02X-5696940I42440J39710D01*
G37*
G36*
G01X-972040Y-2287350D02*
G03X-978680I-3320J-3839D01*
G02X-1040860Y-2221230I-29699J34368D01*
G02X-978680Y-2155110I32481J31752D01*
G03X-972040I3320J3839D01*
G02X-911500Y-2156140I29694J-34370D01*
G03X-904600I3450J3733D01*
G02X-841280Y-2221230I30841J-33341D01*
G02X-904600Y-2286320I-32479J-31749D01*
G03X-911500I-3450J-3733D01*
G02X-972040Y-2287350I-30846J33340D01*
G37*
G36*
G01X-5091170Y-2196460D02*
G03Y-2210440I7368J-6990D01*
G02X-5175510I-42170J-40000D01*
G03Y-2196460I-7368J6990D01*
G02X-5084260Y-2125330I42172J39995D01*
G03X-5067630Y-2126080I8577J5444D01*
G02X-5070660Y-2192670I46050J-35459D01*
G03X-5087290Y-2191920I-8577J-5444D01*
G02X-5091170Y-2196460I-46066J35441D01*
G37*
G36*
G01X-8462820Y-2333710D02*
G02X-8389470Y-2357280I40337J-388D01*
G02X-8445790Y-2414890I-26615J-30315D01*
G02X-8472750Y-2343770I-26067J30788D01*
G03X-8462820Y-2333710I-229J10157D01*
G37*
G36*
G01X-5713810Y-2503020D02*
G03X-5712900Y-2518550I6979J-7383D01*
G02X-5771190Y-2521980I-27101J-36450D01*
G03X-5772100Y-2506450I-6979J7383D01*
G02X-5774270Y-2435270I27100J36449D01*
G03Y-2419730I-6547J7770D01*
G02X-5715730I29270J34730D01*
G03Y-2435270I6547J-7770D01*
G02X-5713810Y-2503020I-29270J-34732D01*
G37*
G36*
G01X-1127920Y-2554920D02*
G03X-1127540Y-2571930I5742J-8381D01*
G02X-1191100Y-2573340I-30701J-49350D01*
G03X-1191480Y-2556330I-5742J8381D01*
G02X-1127920Y-2554920I30701J49350D01*
G37*
G36*
G01X-3320160Y-2631530D02*
G03X-3311090Y-2642230I10145J-595D01*
G02X-3373220Y-2684380I-6155J-57793D01*
G03X-3379800Y-2672010I-9785J2730D01*
G02X-3320160Y-2631530I14298J43110D01*
G37*
G36*
G01X-1686610Y-2762100D02*
G03X-1701470Y-2767970I-5124J-8772D01*
G02X-1789500Y-2764100I-43530J12969D01*
G03X-1803590Y-2756850I-9955J-2030D01*
G02X-1781210Y-2708910I-16408J36854D01*
G03X-1766610Y-2715050I9766J2794D01*
G02X-1722090Y-2715780I21611J-39950D01*
G03X-1707230Y-2709910I5124J8772D01*
G02X-1686610Y-2762100I43530J-12970D01*
G37*
G36*
G01X-1470000Y-2802920D02*
G02X-1520000I-25000J37920D01*
G02Y-2727080I-25000J37920D01*
G02X-1470000I25000J-37920D01*
G02Y-2802920I25000J-37920D01*
G37*
G36*
G01X-2974880Y-2905750D02*
G03X-2962620Y-2914610I10103J1067D01*
G02X-2994140Y-2958270I8597J-39414D01*
G03X-3006400Y-2949410I-10103J-1067D01*
G02X-3054930Y-2915720I-8599J39411D01*
G03X-3068730Y-2907710I-10060J-1439D01*
G02X-3100380Y-2833530I-14824J37517D01*
G02X-3045070Y-2858120I38491J12078D01*
G02X-3043630Y-2864480I-38495J-12059D01*
G03X-3029830Y-2872490I10060J1439D01*
G02X-2974880Y-2905750I14835J-37513D01*
G37*
G36*
G01X-8383670Y-3075370D02*
G03X-8390490I-3410J-3764D01*
G02X-8445740Y-3074330I-27072J29909D01*
G02X-8504560Y-3019330I-27706J29322D01*
G03X-8504870Y-3012520I-3917J3234D01*
G02X-8437010Y-2993510I28631J28419D01*
G03X-8425210Y-3005850I9879J-2365D01*
G02X-8416880Y-3005130I7620J-39613D01*
G03X-8407680Y-2990310I169J10160D01*
G02X-8339390Y-2995770I35843J18510D01*
G03X-8336320Y-3010590I8172J-6035D01*
G02X-8383670Y-3075370I-20280J-34871D01*
G37*
G36*
G01X-368600Y-3305720D02*
G02Y-3389400I40340J-41840D01*
G02Y-3305720I-40340J41840D01*
G37*
G36*
G01X-2245840Y-3618000D02*
G02X-2172410Y-3617800I36642J26840D01*
G02X-2245840Y-3618000I-36642J-26840D01*
G37*
G36*
G01X-2090340Y-3700380D02*
G03X-2100960Y-3690320I-10159J-89D01*
G02X-2139800Y-3618250I-2093J45373D01*
G02X-2066380Y-3618150I36674J26799D01*
G02X-2057790Y-3648710I-36672J-26795D01*
G03X-2048130Y-3659700I10125J-841D01*
G02X-2090340Y-3700380I-1870J-40298D01*
G37*
G36*
G01X-6166870Y-3871880D02*
G03X-6181240Y-3873020I-6619J-7711D01*
G02X-6187690Y-3791300I-44301J37618D01*
G03X-6173320Y-3790160I6619J7711D01*
G02X-6089020Y-3785610I44303J-37619D01*
G03X-6075040I6990J7368D01*
G02Y-3869950I40000J-42170D01*
G03X-6089020I-6990J-7368D01*
G02X-6166870Y-3871880I-39994J42170D01*
G37*
G36*
G01X-2371120Y-3818160D02*
G03X-2370110Y-3833250I7275J-7092D01*
G02X-2423880Y-3836840I-24885J-31750D01*
G03X-2424890Y-3821750I-7275J7092D01*
G02X-2371120Y-3818160I24885J31750D01*
G37*
G36*
G01X-1427920Y-3905000D02*
G02X-1352080I37920J25000D01*
G02X-1427920I-37920J-25000D01*
G37*
G36*
G01X-3074720Y-3896940D02*
G03X-3070250Y-3892240I-598J5044D01*
G02X-3025280Y-3935060I40246J-2757D01*
G03X-3029750Y-3939760I598J-5044D01*
G02X-3074720Y-3896940I-40246J2757D01*
G37*
G36*
G01X-2281070Y-3927070D02*
G03X-2274940Y-3914290I-3499J9539D01*
G02X-2222810Y-3939310I38237J12852D01*
G03X-2228940Y-3952090I3499J-9539D01*
G02X-2281070Y-3927070I-38237J-12852D01*
G37*
G36*
G01X-2989760Y-4048170D02*
G03X-2997810Y-4036490I-10012J1713D01*
G02X-2950240Y-4003740I7810J39579D01*
G03X-2942190Y-4015420I10012J-1713D01*
G02X-2989760Y-4048170I-7810J-39579D01*
G37*
G36*
G01X-657920Y-4035000D02*
G02X-582080I37920J25000D01*
G02X-657920I-37920J-25000D01*
G37*
G36*
G01X-1898270Y-4052080D02*
G03X-1902290Y-4069470I2715J-9787D01*
G02X-1957340Y-4128420I-26739J-30209D01*
G02X-2010730Y-4068010I-25544J31222D01*
G03X-2011870Y-4052370I-7010J7351D01*
G02X-1958740Y-3992280I23296J32936D01*
G03X-1942740Y-3991030I7515J6837D01*
G02X-1898270Y-4052080I33701J-22173D01*
G37*
G36*
G01X-2976600Y-4289180D02*
G03X-2978130Y-4305530I5194J-8733D01*
G02X-3045130Y-4337250I-26687J-30250D01*
G03X-3049390Y-4332420I-5077J-184D01*
G02X-3042130Y-4252270I6470J39818D01*
G03X-3037010Y-4248010I105J5081D01*
G02X-2983370Y-4216600I39815J-6487D01*
G03X-2976970Y-4213860I1745J4769D01*
G02X-2975860Y-4211530I36954J-16175D01*
G03X-2980560Y-4204130I-4517J2324D01*
G02X-2943710Y-4176620I-1404J40316D01*
G03X-2935270Y-4189940I9634J-3229D01*
G02X-2953830Y-4267900I-4735J-40062D01*
G03X-2960230Y-4270640I-1745J-4769D01*
G02X-2976600Y-4289180I-36968J16144D01*
G37*
G36*
G01X-7838440Y-4419820D02*
G02X-7884160I-22860J33240D01*
G02X-7940260Y-4363720I-22860J33240D01*
G02X-7884160Y-4307620I33240J22860D01*
G02X-7838440I22860J-33240D01*
G02X-7782340Y-4363720I22860J-33240D01*
G02X-7838440Y-4419820I-33240J-22860D01*
G37*
G36*
G01X-1662830Y-4506190D02*
G03X-1669630Y-4508500I-2245J-4556D01*
G02X-1688010Y-4454530I-36210J17783D01*
G03X-1681210Y-4452220I2245J4556D01*
G02X-1615040Y-4442980I36213J-17778D01*
G03X-1599960I7540J6803D01*
G02Y-4497020I29960J-27020D01*
G03X-1615040I-7540J-6803D01*
G02X-1662830Y-4506190I-29959J27018D01*
G37*
G36*
G01X-975000Y-4527920D02*
G02Y-4452080I-25000J37920D01*
G02Y-4527920I25000J-37920D01*
G37*
G36*
G01X-6695690Y-4456270D02*
G03X-6695790Y-4462800I3836J-3325D01*
G02X-6765310Y-4461730I-35210J-28697D01*
G03X-6765210Y-4455200I-3836J3325D01*
G02X-6762570Y-4394840I35208J28698D01*
G03Y-4387760I-3640J3540D01*
G02X-6697430I32570J31660D01*
G03Y-4394840I3640J-3540D01*
G02X-6695690Y-4456270I-32568J-31662D01*
G37*
G36*
G01X-1956670Y-4485000D02*
G03X-1956270Y-4491680I4015J-3112D01*
G02X-2016910Y-4495320I-28729J-28319D01*
G03X-2017310Y-4488640I-4015J3112D01*
G02X-1955800Y-4436810I28730J28318D01*
G03X-1939990Y-4437680I8255J5923D01*
G02X-1946010Y-4482850I29989J-26983D01*
G03X-1954800Y-4482360I-4536J-2288D01*
G02X-1956670Y-4485000I-33825J21977D01*
G37*
G36*
G01X-580000Y-4602170D02*
G02X-660000I-40000J42170D01*
G02X-742170Y-4520000I-40000J42170D01*
G02X-660000Y-4437830I42170J40000D01*
G02X-580000I40000J-42170D01*
G02X-497830Y-4520000I40000J-42170D01*
G02X-580000Y-4602170I-42170J-40000D01*
G37*
G36*
G01X-2558140Y-4613030D02*
G03X-2565080Y-4613240I-3358J-3811D01*
G02X-2648510Y-4532320I-40959J41239D01*
G03X-2648720Y-4518230I-7424J6936D01*
G02X-2567460Y-4435130I41256J40938D01*
G02X-2481540Y-4512930I40007J-42161D01*
G03X-2480380Y-4526640I8028J-6225D01*
G02X-2558140Y-4613030I-39298J-42818D01*
G37*
G36*
G01X-1657500Y-4619510D02*
G02Y-4560490I-27500J29510D01*
G02Y-4619510I27500J-29510D01*
G37*
G36*
G01X-3025180Y-4820160D02*
G03X-3033360Y-4834440I1083J-10103D01*
G02X-3079590Y-4807940I-41408J-18662D01*
G03X-3071410Y-4793660I-1083J10103D01*
G02X-3025180Y-4820160I41408J18662D01*
G37*
G36*
G01X-1037500Y-4853860D02*
G02Y-4926140I27500J-36140D01*
G02Y-4853860I-27510J36140D01*
G37*
G36*
G01X-2285330Y-5008310D02*
G03X-2291750Y-4993880I-9045J4619D01*
G02X-2241270Y-4973730I11747J43877D01*
G03X-2235990Y-4988620I8664J-5309D01*
G02X-2285330Y-5008310I-13417J-38043D01*
G37*
G36*
G01X-6164950Y-4943400D02*
G03X-6151050Y-4949640I9703J3013D01*
G02X-6186950Y-5022390I26467J-58294D01*
G03X-6200360Y-5015150I-9897J-2293D01*
G02X-6164950Y-4943400I-20100J54532D01*
G37*
G36*
G01X-4232800Y-5058780D02*
G02X-4179610Y-5087690I39331J8977D01*
G02X-4232800Y-5058780I-39331J-8977D01*
G37*
G36*
G01X-1945130Y-5082500D02*
G02X-1997570Y-5059700I-37568J-14700D01*
G02X-1954930Y-5004980I37568J14699D01*
G03X-1949340Y-5001070I638J5039D01*
G02X-1915070Y-5050020I39340J-8930D01*
G03X-1920660Y-5053930I-638J-5039D01*
G02X-1945130Y-5082500I-39340J8930D01*
G37*
G36*
G01X-5100Y-5026570D02*
G03X-1320Y-5010700I-4002J9338D01*
G02X66060Y-5026750I44505J37379D01*
G03X62280Y-5042620I4002J-9338D01*
G02X64500Y-5045420I-44411J-37492D01*
G03X72660I4080J3018D01*
G02X162790Y-5041350I46718J-34578D01*
G03X178280Y-5040970I7584J6758D01*
G02X180110Y-5116110I45239J-36491D01*
G03X164620Y-5116490I-7584J-6758D01*
G02X76140Y-5118830I-45236J36491D01*
G03X61020I-7560J-6793D01*
G02X-26960Y-5117100I-43243J38831D01*
G03X-42750Y-5117290I-7818J-6489D01*
G02X-43620Y-5044170I-45610J36022D01*
G03X-27830Y-5043980I7818J6489D01*
G02X-5100Y-5026570I45617J-36014D01*
G37*
G36*
G01X-7263470Y-5236740D02*
G03X-7270410I-3470J-3709D01*
G02Y-5151860I-39710J42440D01*
G03X-7263470I3470J3709D01*
G02Y-5236740I39710J-42440D01*
G37*
G36*
G01X207910Y-5257990D02*
G03X194270Y-5251490I-9744J-2885D01*
G02X220420Y-5196650I-17401J41952D01*
G03X234060Y-5203150I9744J2885D01*
G02X207910Y-5257990I17401J-41952D01*
G37*
G36*
G01X-1007920Y-5225000D02*
G02X-932080I37920J25000D01*
G02X-1007920I-37920J-25000D01*
G37*
G36*
G01X-5768600Y-5239560D02*
G03X-5759310Y-5253040I9599J-3326D01*
G02X-5803640Y-5283580I-1409J-45399D01*
G03X-5812930Y-5270100I-9599J3326D01*
G02X-5768600Y-5239560I1409J45399D01*
G37*
G36*
G01X-4006070Y-5487980D02*
G03X-4004020Y-5503310I7556J-6792D01*
G02X-4055890Y-5510220I-21880J-33890D01*
G03X-4057940Y-5494890I-7556J6792D01*
G02X-4006070Y-5487980I21880J33890D01*
G37*
G36*
G01X-4151820Y-5491430D02*
G03Y-5506770I6665J-7670D01*
G02X-4204780I-26480J-30430D01*
G03Y-5491430I-6665J7670D01*
G02X-4151820I26480J30430D01*
G37*
G36*
G01X-4304220D02*
G03Y-5506770I6665J-7670D01*
G02X-4357180I-26480J-30430D01*
G03Y-5491430I-6665J7670D01*
G02X-4304220I26480J30430D01*
G37*
G36*
G01X-4456620D02*
G03Y-5506770I6665J-7670D01*
G02X-4509580I-26480J-30430D01*
G03Y-5491430I-6665J7670D01*
G02X-4456620I26480J30430D01*
G37*
G36*
G01X-605900Y-5530000D02*
G02X-674100I-34100J-30000D01*
G02X-674520Y-5470480I34100J30002D01*
G02X-611790Y-5404790I31897J32337D01*
G03X-604630Y-5404530I3449J3731D01*
G02X-542570Y-5400580I33133J-31069D01*
G03X-529110Y-5400120I6470J7832D01*
G02X-526770Y-5468080I31269J-32944D01*
G03X-540230Y-5468540I-6470J-7832D01*
G02X-582890Y-5479570I-31273J32939D01*
G03X-595410Y-5491340I-2548J-9833D01*
G02X-605900Y-5530000I-44588J-8655D01*
G37*
G36*
G01X74530Y-5541630D02*
G02X85070Y-5607970I35470J-28372D01*
G02X24600Y-5617520I-35470J28370D01*
G02X-25400I-25000J37920D01*
G02Y-5541680I-25000J37920D01*
G02X24600I25000J-37920D01*
G02X74530Y-5541630I25003J-37920D01*
G37*
G36*
G01X-5772070Y-5603860D02*
G03X-5765230Y-5604110I3557J3626D01*
G02X-5767740Y-5671200I29320J-34689D01*
G03X-5774580Y-5670950I-3557J-3626D01*
G02X-5772070Y-5603860I-29320J34689D01*
G37*
G36*
G01X-6735040Y-5678050D02*
G03X-6720030Y-5679650I8226J5961D01*
G02X-6738000Y-5766610I49991J-55667D01*
G03X-6752420Y-5762130I-9227J-4254D01*
G02X-6735040Y-5678050I-29679J49971D01*
G37*
G36*
G01X-7072970Y-5772580D02*
G02X-7155140Y-5854750I-42170J-40000D01*
G02X-7237310Y-5772580I-40000J42170D01*
G02X-7184110Y-5675520I42168J39997D01*
G03X-7172200Y-5663610I1932J9978D01*
G02X-7157310Y-5612580I57062J11037D01*
G02X-7072970I42170J40000D01*
G02Y-5692580I-42170J-40000D01*
G02Y-5772580I-42170J-40000D01*
G37*
G36*
G01X-7679900Y-6148070D02*
G02X-7681650Y-6193790I-34079J-21589D01*
G02X-7746310I-32330J-24130D01*
G02X-7748060Y-6148070I32329J24131D01*
G02X-7679900I34080J21590D01*
G37*
G36*
G01X-6875780Y-6182110D02*
G02X-6811500Y-6245160I27935J-35812D01*
G02X-6892220Y-6273530I-35301J-28580D01*
G03X-6902620Y-6263330I-10158J44D01*
G02X-6875780Y-6182110I-1099J45408D01*
G37*
G36*
G01X-957020Y-6229240D02*
G03X-965800Y-6244520I-2J-10161D01*
G02X-1042130Y-6221880I-50207J-29278D01*
G03X-1040380Y-6204840I-4561J9078D01*
G02X-970280Y-6003400I70100J88523D01*
G01X-690880D01*
G02X-602000Y-6046670I0J-112918D01*
G03X-586870Y-6047640I7998J6266D01*
G02X-566480Y-6123950I31870J-32364D01*
G03X-579100Y-6132340I-2565J-9828D01*
G02X-690880Y-6229240I-111780J16022D01*
G01X-817320D01*
G03X-826100Y-6244520I-2J-10161D01*
G02X-926500I-50200J-29280D01*
G03X-935280Y-6229240I-8778J5119D01*
G01X-957020D01*
G37*
G36*
G01X-7333670Y-6303010D02*
G02X-7388860Y-6360380I-32327J-24133D01*
G02X-7444050Y-6303010I-22863J33237D01*
G02X-7388860Y-6245640I32327J24133D01*
G02X-7333670Y-6303010I22863J-33237D01*
G37*
G36*
G01X-8030460Y-6268310D02*
G03Y-6275150I3756J-3420D01*
G02X-8114440Y-6355470I-43022J-39081D01*
G03X-8121570Y-6355440I-3580J-3601D01*
G02X-8205220Y-6274800I-40634J41555D01*
G03Y-6267960I-3756J3420D01*
G02X-8204370Y-6188880I43019J39082D01*
G02X-8121240Y-6107640I42170J40000D01*
G03X-8114110Y-6107670I3580J3601D01*
G02X-8031310Y-6189230I40631J-41561D01*
G02X-8030460Y-6268310I-42169J-39998D01*
G37*
G36*
G01X-6239670Y-6742050D02*
G02X-6171530Y-6743890I34653J20657D01*
G02X-6239670Y-6742050I-34653J-20657D01*
G37*
G36*
G01X-8020770Y-6765970D02*
G03X-8020880Y-6772690I3757J-3422D01*
G02X-8106010Y-6851680I-44221J-37711D01*
G03X-8113110Y-6851630I-3576J-3609D01*
G02X-8196370Y-6770610I-40281J41896D01*
G03X-8196260Y-6763890I-3757J3422D01*
G02X-8194210Y-6686180I44220J37716D01*
G02X-8111130Y-6604900I42161J40005D01*
G03X-8104030Y-6604950I3576J3609D01*
G02X-8021570Y-6686840I40291J-41891D01*
G02X-8020770Y-6765970I-42170J-39995D01*
G37*
G36*
G01X-1755280Y-6929630D02*
G02X-1813390Y-6983700I-33980J-21742D01*
G02X-1870400Y-6928000I-24130J32328D01*
G02X-1812290Y-6873930I33980J21742D01*
G02X-1755280Y-6929630I24130J-32328D01*
G37*
G36*
G01X-3054780Y-6959290D02*
G03X-3070240Y-6961870I-6665J-7669D01*
G02X-3065820Y-6883290I-75391J43655D01*
G03X-3050750Y-6887580I9306J4077D01*
G02X-3054780Y-6959290I25750J-37415D01*
G37*
G36*
G01X-8050810Y-6950810D02*
G02X-8106820Y-7005920I-34423J-21032D01*
G02X-8162420Y-6950150I-21589J34077D01*
G02X-8106410Y-6895040I34423J21032D01*
G02X-8050810Y-6950810I21589J-34077D01*
G37*
G36*
G01X-4186100Y-7025050D02*
G02X-4236900I-25400J31340D01*
G02X-4295340Y-6970560I-25404J31338D01*
G02X-4239260Y-6913020I30672J26205D01*
G02X-4188460I25400J-31340D01*
G02X-4130020Y-6967510I25404J-31338D01*
G02X-4186100Y-7025050I-30672J-26205D01*
G37*
G36*
G01X-6124340Y-7032380D02*
G02X-6178550Y-7090200I-32615J-23744D01*
G02X-6234320Y-7034690I-21593J34077D01*
G02X-6180110Y-6976870I32615J23744D01*
G02X-6124340Y-7032380I21593J-34077D01*
G37*
G36*
G01X-2462670Y-844850D02*
G02X-2513190I-25260J-31450D01*
G03Y-829010I-6366J7920D01*
G02X-2511880Y-765100I25261J31451D01*
G03Y-748740I-6027J8180D01*
G02X-2463980I23950J32460D01*
G03Y-765100I6027J-8180D01*
G02X-2462670Y-829010I-23951J-32459D01*
G03Y-844850I6366J-7920D01*
G37*
G36*
G01X-8281330Y-1020240D02*
G02X-8318590Y-1016790I-21925J-33861D01*
G03X-8316930Y-998860I-3859J9399D01*
G02X-8321540Y-995380I21937J33854D01*
G03X-8328250Y-995400I-3344J-3823D01*
G02X-8393590Y-953430I-26753J30196D01*
G03X-8403650Y-940320I-9717J2959D01*
G02X-8388930Y-863000I-1349J40318D01*
G03X-8374850Y-852100I4044J9320D01*
G02X-8375280Y-843540I39848J6293D01*
G03X-8385240Y-832810I-10143J572D01*
G02X-8344260Y-794760I705J40334D01*
G03X-8334300Y-805490I10143J-572D01*
G02X-8351070Y-882820I-696J-40332D01*
G03X-8365150Y-893720I-4044J-9320D01*
G02X-8366410Y-911770I-39849J-6287D01*
G03X-8356350Y-924880I9717J-2959D01*
G02X-8328460Y-934820I1347J-40318D01*
G03X-8321750Y-934800I3344J3823D01*
G02X-8279670Y-1002310I26748J-30197D01*
G03X-8281330Y-1020240I3859J-9399D01*
G37*
G36*
G01X-6447010Y-1104940D02*
G02X-6486670I-19830J-40860D01*
G03Y-1086660I-4441J9140D01*
G02Y-1004940I19830J40860D01*
G03Y-986660I-4441J9140D01*
G02X-6447010I19830J40860D01*
G03Y-1004940I4441J-9140D01*
G02Y-1086660I-19830J-40860D01*
G03Y-1104940I4441J-9140D01*
G37*
G36*
G01X-2729530Y-1199020D02*
G02Y-1153020I-33140J23000D01*
G03X-2712840I8345J5796D01*
G02Y-1199020I33140J-23000D01*
G03X-2729530I-8345J-5796D01*
G37*
G36*
G01X-6358230Y-1154940D02*
G02X-6397890I-19830J-40860D01*
G03Y-1136660I-4441J9140D01*
G02Y-1054940I19830J40860D01*
G03Y-1036660I-4441J9140D01*
G02X-6358230I19830J40860D01*
G03Y-1054940I4441J-9140D01*
G02Y-1136660I-19830J-40860D01*
G03Y-1154940I4441J-9140D01*
G37*
G36*
G01X-6885270Y-1532020D02*
G02X-6957900Y-1478690I-39726J22019D01*
G02X-6946410Y-1404940I31322J32890D01*
G03Y-1386660I-4441J9140D01*
G02X-6881320Y-1349630I19832J40861D01*
G03X-6865320Y-1358770I10123J-853D01*
G02X-6857960Y-1354520I26293J-37035D01*
G03X-6857710Y-1336160I-4231J9239D01*
G02X-6818740Y-1336680I20032J40761D01*
G03X-6818990Y-1355040I4231J-9239D01*
G02X-6819190Y-1436660I-20033J-40761D01*
G03Y-1454940I4441J-9140D01*
G02X-6869560Y-1529420I-19829J-40862D01*
G03X-6885270Y-1532020I-6825J-7524D01*
G37*
G36*
G01X-1602050Y-1635510D02*
G02X-1602650Y-1683690I32051J-24493D01*
G03X-1618950Y-1683490I-8224J-5968D01*
G02X-1618350Y-1635310I-32051J24493D01*
G03X-1602050Y-1635510I8224J5968D01*
G37*
G36*
G01X-6881320Y-1741970D02*
G02X-6960790Y-1715930I-45257J-3832D01*
G02X-6889220Y-1662720I30636J33531D01*
G03X-6872560Y-1665170I9158J4402D01*
G02X-6865320Y-1732830I33540J-30628D01*
G03X-6881320Y-1741970I-5877J-8287D01*
G37*
G36*
G01X-6819190Y-1954940D02*
G02X-6858850I-19830J-40860D01*
G03Y-1936660I-4441J9140D01*
G02X-6819190I19830J40860D01*
G03Y-1954940I4441J-9140D01*
G37*
G36*
G01X-2659190Y-2338620D02*
G02X-2751520Y-2406890I-40805J-41384D01*
G03X-2764920Y-2402430I-9008J-4703D01*
G02X-2839060Y-2381160I-25079J52430D01*
G03X-2855900Y-2380710I-8572J-5453D01*
G02X-2957220Y-2325470I-47320J33747D01*
G03X-2969450Y-2311940I-9440J3760D01*
G02X-2923840Y-2274930I-20554J71939D01*
G03X-2913120Y-2289690I8984J-4748D01*
G02X-2854160Y-2315800I9900J-57270D01*
G03X-2837320Y-2316250I8572J5453D01*
G02X-2830810Y-2308620I47304J-33768D01*
G03Y-2301380I-3566J3620D01*
G02X-2738480Y-2233110I40805J41384D01*
G03X-2725080Y-2237570I9008J4703D01*
G02X-2659190Y-2331380I25078J-52430D01*
G03Y-2338620I3566J-3620D01*
G37*
G36*
G01X-5108140Y-2488930D02*
G02X-5163620I-27740J-51070D01*
G03Y-2471070I-4850J8930D01*
G02X-5108140I27740J51070D01*
G03Y-2488930I4850J-8930D01*
G37*
G36*
G01X-8444190Y-2596600D02*
G02X-8478820Y-2581030I-31911J-24679D01*
G03X-8471470Y-2564680I-687J10136D01*
G02X-8436840Y-2580250I31911J24679D01*
G03X-8444190Y-2596600I687J-10136D01*
G37*
G36*
G01X-8230620Y-2716670D02*
G02X-8230890Y-2752780I35939J-18325D01*
G03X-8249060Y-2752640I-9120J-4474D01*
G02X-8248790Y-2716530I-35939J18325D01*
G03X-8230620Y-2716670I9120J4474D01*
G37*
G36*
G01X-8202120Y-2850350D02*
G02X-8234710Y-2884990I7439J-39650D01*
G03X-8246660Y-2873750I-10080J1255D01*
G02X-8214070Y-2839110I-7439J39650D01*
G03X-8202120Y-2850350I10080J-1255D01*
G37*
G36*
G01X-6819190Y-2993240D02*
G02X-6879810Y-3054090I-19834J-40862D01*
G03X-6897670Y-3053380I-9122J-4471D01*
G02X-6895950Y-3010230I-39069J23167D01*
G03X-6878090Y-3010940I9122J4471D01*
G02X-6858850Y-2993240I39069J-23162D01*
G03Y-2974960I-4441J9140D01*
G02Y-2893240I19830J40860D01*
G03Y-2874960I-4441J9140D01*
G02X-6884280Y-2830270I19828J40863D01*
G03X-6900280Y-2821130I-10123J853D01*
G02X-6960020Y-2814840I-26302J37030D01*
G03X-6975340Y-2815260I-7477J-6876D01*
G02X-6976960Y-2755640I-35059J28879D01*
G03X-6961640Y-2755220I7477J6876D01*
G02X-6946410Y-2743240I35050J-28888D01*
G03Y-2724960I-4441J9140D01*
G02X-6900280Y-2647070I19825J40864D01*
G03X-6884280Y-2637930I5877J8287D01*
G02X-6884440Y-2634550I45259J3836D01*
G03X-6889570Y-2629520I-5078J-48D01*
G02X-6869160Y-2543740I-427J45420D01*
G03X-6854340Y-2534600I4663J9024D01*
G02X-6829760Y-2574460I45419J499D01*
G03X-6844580Y-2583600I-4663J-9024D01*
G01Y-2583650D01*
G03X-6839450Y-2588680I5078J48D01*
G02X-6819190Y-2674960I429J-45418D01*
G03Y-2693240I4441J-9140D01*
G02Y-2774960I-19830J-40860D01*
G03Y-2793240I4441J-9140D01*
G02Y-2874960I-19830J-40860D01*
G03Y-2893240I4441J-9140D01*
G02Y-2974960I-19830J-40860D01*
G03Y-2993240I4441J-9140D01*
G37*
G36*
G01X-2984000Y-3014430D02*
G02X-3001870Y-3045050I22359J-33574D01*
G03X-3017640Y-3035850I-10135J744D01*
G02X-2999770Y-3005230I-22359J33574D01*
G03X-2984000Y-3014430I10135J-744D01*
G37*
G36*
G01X-2000430Y-3285030D02*
G02X-2033510Y-3337010I5430J-39972D01*
G03X-2044570Y-3329970I-9699J-3029D01*
G02X-2087250Y-3274530I-5427J39971D01*
G03X-2092280Y-3261450I-9384J3898D01*
G02X-2059330Y-3187830I17280J36450D01*
G03X-2045240Y-3177770I3952J9362D01*
G02X-2020670Y-3212170I40243J2769D01*
G03X-2034760Y-3222230I-3952J-9362D01*
G02X-2037750Y-3240470I-40242J-2768D01*
G03X-2032720Y-3253550I9384J-3898D01*
G02X-2011490Y-3277990I-17280J-36451D01*
G03X-2000430Y-3285030I9699J3029D01*
G37*
G36*
G01X-6495290Y-3380930D02*
G02X-6560430Y-3343240I-45309J-3171D01*
G03Y-3324960I-4441J9140D01*
G02Y-3243240I19830J40860D01*
G03Y-3224960I-4441J9140D01*
G02Y-3143240I19830J40860D01*
G03Y-3124960I-4441J9140D01*
G02X-6513590Y-3047580I19833J40862D01*
G03X-6498340Y-3043690I6037J8169D01*
G02X-6428820Y-3083980I36580J-17005D01*
G03X-6426660Y-3097930I8301J-5857D01*
G02X-6434310Y-3174960I-27479J-36166D01*
G03Y-3193240I4441J-9140D01*
G02Y-3274960I-19830J-40860D01*
G03Y-3293240I4441J-9140D01*
G02X-6479490Y-3371790I-19830J-40862D01*
G03X-6495290Y-3380930I-5666J-8432D01*
G37*
G36*
G01X-2969810Y-3718910D02*
G02X-3012140Y-3759410I-1991J-40291D01*
G03X-3016970Y-3754360I-5080J-24D01*
G02X-3055180Y-3717440I1989J40291D01*
G03X-3068460Y-3708640I-10122J-854D01*
G02X-3083200Y-3630020I-12555J38338D01*
G02X-3051850Y-3592860I40281J-2179D01*
G03X-3047940Y-3587180I-1119J4956D01*
G02X-3016500Y-3541960I39923J5783D01*
G03X-3011660Y-3524630I-2129J9936D01*
G02X-3014090Y-3522200I39860J42290D01*
G03X-3030910Y-3525370I-7395J-6970D01*
G02X-3093190Y-3478520I-37411J15089D01*
G03X-3092270Y-3471460I-3132J3998D01*
G02X-3064680Y-3407060I32187J24320D01*
G02X-3054890Y-3377090I40190J3456D01*
G02X-3054290Y-3322260I29890J27091D01*
G02X-3062680Y-3279620I29151J27881D01*
G03X-3073410Y-3265820I-9455J3720D01*
G02X-3104390Y-3194880I-5071J40020D01*
G02X-3104230Y-3149790I33531J22426D01*
G02X-3047820Y-3139350I23043J33111D01*
G02X-3044950Y-3203380I-23040J-33112D01*
G02X-3040940Y-3240560I-33531J-22423D01*
G03X-3030210Y-3254360I9455J-3720D01*
G02X-2995850Y-3322120I5071J-40020D01*
G02X-2994600Y-3376510I-29152J-27879D01*
G02X-2985040Y-3412020I-29891J-27089D01*
G03X-2974610Y-3424290I9937J-2121D01*
G02X-2968620Y-3540370I2810J-58050D01*
G03X-2976100Y-3556730I557J-10145D01*
G02X-2999090Y-3620740I-31919J-24670D01*
G03X-3003000Y-3626420I1119J-4956D01*
G02X-3012060Y-3658170I-39921J-5776D01*
G03X-3006430Y-3674650I7774J-6546D01*
G02X-2974640Y-3713860I-8548J-39423D01*
G03X-2969810Y-3718910I5080J24D01*
G37*
G36*
G01X-6786020Y-4125450D02*
G02X-6786320Y-4078260I-38960J23348D01*
G03X-6768960Y-4078150I8647J5334D01*
G02X-6768660Y-4125340I38960J-23348D01*
G03X-6786020Y-4125450I-8647J-5334D01*
G37*
G36*
G01X-3272690Y-4257090D02*
G02X-3310990I-19150J-35510D01*
G03Y-4239210I-4817J8940D01*
G02Y-4168190I19150J35510D01*
G03Y-4150310I-4817J8940D01*
G02Y-4079290I19150J35510D01*
G03Y-4061410I-4817J8940D01*
G02Y-3990390I19150J35510D01*
G03Y-3972510I-4817J8940D01*
G02X-3312190Y-3902170I19149J35507D01*
G03X-3312830Y-3884290I-5131J8768D01*
G02Y-3811910I17830J36190D01*
G03X-3312190Y-3794030I-4491J9112D01*
G02X-3310990Y-3723690I20349J34833D01*
G03Y-3705810I-4817J8940D01*
G02Y-3634790I19150J35510D01*
G03Y-3616910I-4817J8940D01*
G02Y-3545890I19150J35510D01*
G03Y-3528010I-4817J8940D01*
G02X-3272690I19150J35510D01*
G03Y-3545890I4817J-8940D01*
G02Y-3616910I-19150J-35510D01*
G03Y-3634790I4817J-8940D01*
G02Y-3705810I-19150J-35510D01*
G03Y-3723690I4817J-8940D01*
G02X-3274010Y-3795390I-19147J-35510D01*
G03X-3274650Y-3813270I4491J-9112D01*
G02Y-3882930I-20350J-34830D01*
G03X-3274010Y-3900810I5131J-8768D01*
G02X-3272690Y-3972510I-17827J-36190D01*
G03Y-3990390I4817J-8940D01*
G02Y-4061410I-19150J-35510D01*
G03Y-4079290I4817J-8940D01*
G02Y-4150310I-19150J-35510D01*
G03Y-4168190I4817J-8940D01*
G02Y-4239210I-19150J-35510D01*
G03Y-4257090I4817J-8940D01*
G37*
G36*
G01X-1898680Y-4832330D02*
G02X-1946880Y-4801890I-39340J-8912D01*
G02X-1946590Y-4782840I39340J8928D01*
G03X-1956760Y-4770140I-9832J2548D01*
G02X-1919050Y-4739960I-1337J40320D01*
G03X-1908880Y-4752660I9832J-2548D01*
G02X-1898680Y-4832330I1335J-40317D01*
G37*
G36*
G01X-2251470Y-4838050D02*
G02X-2284600Y-4810020I-38531J-11948D01*
G03X-2273530Y-4796950I1366J10066D01*
G02X-2240400Y-4824980I38531J11948D01*
G03X-2251470Y-4838050I-1366J-10066D01*
G37*
G36*
G01X-3407290Y-5093100D02*
G02X-3407970Y-5043000I-38221J24536D01*
G03X-3391020Y-5042770I8399J5719D01*
G02X-3390340Y-5092870I38221J-24536D01*
G03X-3407290Y-5093100I-8399J-5719D01*
G37*
G36*
G01X-3913600Y-5162460D02*
G02X-3967030Y-5092480I-35599J28207D01*
G03X-3963660Y-5076120I-3984J9348D01*
G02X-3898320Y-5066220I29203J27830D01*
G03X-3888670Y-5080880I9101J-4515D01*
G02X-3913600Y-5162460I2468J-45353D01*
G37*
G36*
G01X-1669120Y-5395710D02*
G02X-1706840Y-5377020I-34139J-21491D01*
G03X-1699140Y-5361490I-900J10120D01*
G02X-1661420Y-5380180I34139J21491D01*
G03X-1669120Y-5395710I900J-10120D01*
G37*
G36*
G01X-3470680Y-5710700D02*
G02X-3499300Y-5746230I16277J-42403D01*
G03X-3515260Y-5736440I-10043J1532D01*
G02X-3632940Y-5590150I-54748J76437D01*
G03X-3632470Y-5583090I-3401J3772D01*
G02X-3561610Y-5561280I30750J26110D01*
G03X-3557250Y-5566850I5052J-537D01*
G02X-3483650Y-5697190I-12751J-93150D01*
G03X-3470680Y-5710700I9331J-4023D01*
G37*
G36*
G01X-3306000Y-5805150D02*
G02X-3310310Y-5756200I-40210J21124D01*
G03X-3293290Y-5754700I8027J6226D01*
G02X-3288980Y-5803650I40210J-21124D01*
G03X-3306000Y-5805150I-8027J-6226D01*
G37*
G36*
G01X-3259880Y-6445230D02*
G02Y-6397950I-38780J23640D01*
G03X-3242520I8680J5285D01*
G02Y-6445230I38780J-23640D01*
G03X-3259880I-8680J-5285D01*
G37*
G54D25*
X-6779600Y-4787900D03*
X-6766560Y-4617720D03*
X-7127240Y-4815840D03*
X-7162800Y-3911600D03*
X-6822440D03*
X-6819140Y-3540000D03*
X-6604000Y-3771900D03*
X-6971110Y-3796500D03*
X-6820000Y-3330000D03*
X-6850380Y-2387600D03*
X-6930130Y-2229870D03*
X-6820000Y-920000D03*
X-6984560Y357400D03*
X-6291580Y-5573700D03*
X-6362700Y-5359400D03*
X-6102100Y-5264400D03*
X-5836920Y-4426500D03*
X-6466840Y-3535680D03*
X-6037580Y-2946400D03*
X-6134100Y-3073400D03*
X-6390640Y-2446020D03*
X-6510000Y-1595800D03*
X-6525000Y-1300000D03*
X-5763260Y-5808980D03*
X-5220500Y-5996430D03*
X-5367020Y-5422900D03*
X-5519420Y-5524500D03*
X-5114810Y-6103620D03*
X-5367020Y-5646420D03*
X-5260340Y-5445760D03*
X-5412730Y-5905510D03*
X-5610860Y-5105400D03*
X-4632960Y-5478780D03*
X-4023360Y-6870700D03*
X-4055860Y-5304790D03*
X-3594100Y-2628900D03*
X-3659600Y-2145000D03*
X-3778410Y-1568290D03*
X-3977680Y-361720D03*
X-3451860Y-6223000D03*
X-2880000Y-5430000D03*
X-3467100Y-5438140D03*
X-3154680Y-5989170D03*
X-3413300Y-5565600D03*
X-3065000Y-5181600D03*
X-3362960Y-4838700D03*
X-2880000Y-3950000D03*
X-3334020Y-4446000D03*
X-3479800Y-2628900D03*
X-3276420Y-1770200D03*
X-3018540Y-2018510D03*
X-2882200Y-1710600D03*
X-3185000Y-2150000D03*
X-2900000Y-1355000D03*
X-2339340Y-6250940D03*
X-2144780D03*
X-2381180Y-3275400D03*
X-2692400Y-3002280D03*
X-2479040Y-1908550D03*
X-2725000Y-1365000D03*
X-1424940Y-5031740D03*
X-1640000Y-4930000D03*
X-1750000Y-3550000D03*
X-1470000Y-3560000D03*
X-1875000Y-1973550D03*
X-570230Y-5888990D03*
X-1230000Y-3770000D03*
X-510540Y-3741420D03*
X-88900Y-6414260D03*
X95000Y-5792400D03*
X254000Y-5694680D03*
X235150Y-6060970D03*
X206400Y-2519020D03*
Y-1757020D03*
Y-2011020D03*
Y-2265020D03*
Y-1503020D03*
Y-1249020D03*
G54D23*
X-8141970Y-7181850D03*
X-8346440Y-4699000D03*
X-8290560Y-4772660D03*
X-8476240Y-3534100D03*
Y-3434100D03*
Y-3334100D03*
X-8375440Y-3284100D03*
Y-3384100D03*
X-8379460Y-3538220D03*
X-8476240Y-3234100D03*
X-8740000Y-2550000D03*
X-8273580Y-2375000D03*
X-8350000Y-2265000D03*
X-8191500Y-1390000D03*
X-8409320D03*
X-8145000Y-1145800D03*
X-8725000Y-1346200D03*
X-8255000Y-1195800D03*
X-8011160Y-4699000D03*
X-7447280Y-4693920D03*
X-7719060Y-3916680D03*
X-8085000Y-2684100D03*
X-7811400Y-2781400D03*
X-7048500Y-7167880D03*
X-7071360Y-6677660D03*
X-7322820Y-4886300D03*
X-6654800Y-5303520D03*
X-6758940Y-3802380D03*
X-7250000Y-3040000D03*
X-6814200Y-795800D03*
X-6176260Y-7250180D03*
X-5960600Y-5653260D03*
X-6465000Y-4395800D03*
X-6329680Y-4612640D03*
X-6311900Y-3406140D03*
X-6018010Y-3378200D03*
X-5918200Y-3845560D03*
X-6042660Y-2547620D03*
X-6035040Y-2717800D03*
X-6450000Y-1845800D03*
X-5460000Y-6330000D03*
X-5083810Y-6709410D03*
X-5236210Y-6762750D03*
X-5803900Y-5384800D03*
X-5546590Y-4948090D03*
X-5446590D03*
X-5646590Y-4848090D03*
X-5146590Y-3948090D03*
X-5246590D03*
X-5146590Y-4148090D03*
X-5546590Y-4248090D03*
X-5246590Y-4348090D03*
X-5146590D03*
X-5246590Y-4248090D03*
Y-4048090D03*
Y-4448090D03*
X-5146590D03*
Y-4048090D03*
X-5446590Y-3548110D03*
X-5791200Y-3505200D03*
X-5246590Y-3748110D03*
X-5146590D03*
X-5246590Y-3648110D03*
X-5146590D03*
X-5246590Y-3548110D03*
X-5646590D03*
X-5346590Y-3448110D03*
X-5646590D03*
X-5546590D03*
X-5146590Y-3348110D03*
X-5346590D03*
X-5446590D03*
X-5546590D03*
X-5646590D03*
X-5146590Y-3548110D03*
Y-3248110D03*
X-5246590D03*
X-5346590D03*
X-5446590D03*
X-5546590D03*
X-5646590D03*
X-5146590Y-3148110D03*
X-5346590D03*
X-5446590D03*
X-5546590D03*
X-5770480Y-3139440D03*
X-5346590Y-2748110D03*
X-5646590D03*
X-5146590Y-3048110D03*
X-5446590D03*
X-5546590D03*
X-5646590D03*
X-5246590Y-2948110D03*
X-5146590D03*
X-5646590D03*
X-5546590D03*
X-5446590Y-2748110D03*
X-5246590D03*
X-5146590D03*
X-5346590Y-2848110D03*
X-5246590D03*
X-5146590D03*
X-5646590D03*
X-5350000Y-980000D03*
X-5455920Y-1559560D03*
X-5461000Y-165100D03*
X-5097780Y-342900D03*
X-4594860Y-6720840D03*
X-4970780Y-6631940D03*
X-4846320Y-6616700D03*
X-4594860Y-6192520D03*
X-4518660Y-5963920D03*
X-4658360Y-5930900D03*
X-4794250Y-5965190D03*
X-4913630Y-6005830D03*
X-4861560Y-6083300D03*
X-4785360Y-5186680D03*
X-4851400Y-5334000D03*
X-4746590Y-4648090D03*
X-4346610Y-4848090D03*
Y-4748090D03*
Y-4648090D03*
X-5046590Y-4948090D03*
X-4946590D03*
X-4746590Y-4848090D03*
Y-4748090D03*
X-5046610Y-4148090D03*
Y-4048090D03*
X-5046590Y-4348110D03*
X-4346610D03*
X-4846590Y-4548090D03*
X-5046590D03*
X-4946590D03*
X-4646590D03*
X-4446610D03*
X-4346610D03*
X-4446610Y-4448090D03*
X-4746590Y-4548090D03*
Y-4348110D03*
X-4846590Y-4448090D03*
X-4946590D03*
X-5042800Y-3658270D03*
X-4546610Y-3148110D03*
X-4846590Y-3348090D03*
X-4346610D03*
X-4646590D03*
X-4446610D03*
X-4946590D03*
X-5046590Y-3248110D03*
X-4346610Y-3148110D03*
X-4446610D03*
X-4746590D03*
X-4846590D03*
X-4946590D03*
X-4340000Y-2636920D03*
X-4346610Y-3048110D03*
X-4446610D03*
X-4746590D03*
X-4846590D03*
X-4946590D03*
X-5046590D03*
X-4646590Y-2948110D03*
X-4446610D03*
X-4346610D03*
X-5046590D03*
X-4946590D03*
X-4846590D03*
X-4746590D03*
X-4346610Y-2748110D03*
X-4446610D03*
X-4646590D03*
X-4746590D03*
X-4846590D03*
X-5046590D03*
X-4646590Y-2848110D03*
X-4446610D03*
X-4346610D03*
X-5046590D03*
X-4946590D03*
X-4846590D03*
X-4746590D03*
X-4550000Y-2052320D03*
X-4053840Y-7292340D03*
X-3680460Y-6697980D03*
X-3935000Y-5985000D03*
X-3985260Y-5370310D03*
X-3601720Y-5077460D03*
X-3846610Y-4948090D03*
Y-4748090D03*
X-3546610Y-4648090D03*
X-4246610Y-4948090D03*
X-4146610D03*
X-4046610D03*
X-3946610D03*
Y-4848090D03*
X-4046610D03*
X-4146610D03*
X-4246610D03*
X-3946610Y-4748090D03*
X-4046610D03*
X-4146610D03*
X-4246610D03*
Y-4648090D03*
X-4146610D03*
X-4046610D03*
X-3846610Y-4848090D03*
X-4246610Y-4348110D03*
X-4146610D03*
X-3746610Y-4548090D03*
X-3646610D03*
X-3546610D03*
X-3846610Y-4448090D03*
X-3646610D03*
X-3546610D03*
X-3846610Y-4348090D03*
X-3646610D03*
X-3546610D03*
X-3846610Y-4248090D03*
X-3746610D03*
X-3846610Y-4148090D03*
X-3746610D03*
X-3846610Y-4048090D03*
X-3746610D03*
X-3646610Y-3948090D03*
X-3546610D03*
X-3846610D03*
X-3746610D03*
X-4246610Y-4548090D03*
X-4146610D03*
X-4046610D03*
X-3946610D03*
X-4046590Y-4248090D03*
X-3946610Y-4348090D03*
Y-4048090D03*
Y-3948090D03*
X-4046590Y-3648110D03*
Y-3548090D03*
X-3746610Y-3748110D03*
X-3846610D03*
X-3546610D03*
X-3646610D03*
X-3746610Y-3648110D03*
X-3846610D03*
X-3546610D03*
X-3646610D03*
X-3746610Y-3548110D03*
X-3846610D03*
X-3546610D03*
X-3646610D03*
X-3746610Y-3448110D03*
X-3846610D03*
X-3546610D03*
X-3646610D03*
X-3546610Y-3348110D03*
X-3646610D03*
X-3746610D03*
X-3846610D03*
X-3946610D03*
X-3546610Y-3248110D03*
X-3646610D03*
X-3746610D03*
X-3946610D03*
X-3646610Y-3148110D03*
X-3746610D03*
X-3946610D03*
X-4046610D03*
X-4146610D03*
X-4246610D03*
X-4146610Y-3248110D03*
X-4046610Y-3348090D03*
X-4047550Y-2379680D03*
X-3903980Y-2357120D03*
X-3810000Y-2352040D03*
X-3670300Y-2349500D03*
X-3946610Y-3048110D03*
X-4046610D03*
X-4146610D03*
X-4246610D03*
X-3846610Y-2948110D03*
X-4246610D03*
X-4146610D03*
X-4046610D03*
X-3946610D03*
X-3846610Y-2748110D03*
X-4048760Y-2618740D03*
X-3746610Y-2748110D03*
X-3846610Y-2848110D03*
X-3746610D03*
X-3946610D03*
X-4185920Y-2171700D03*
Y-2298700D03*
X-3040000Y-6480000D03*
X-2895000Y-4725000D03*
X-3063240Y-4953000D03*
Y-5067300D03*
X-3362960Y-4947920D03*
X-3446610Y-4748090D03*
X-3395520Y-5341160D03*
X-3070000Y-4045000D03*
X-3446610Y-4348090D03*
Y-4248090D03*
Y-3948090D03*
X-3075000Y-3805000D03*
X-2969260Y-3154680D03*
X-3383280Y-3403600D03*
X-3350260Y-3314700D03*
X-3291840Y-3225800D03*
X-3446610Y-3748110D03*
Y-3648110D03*
Y-3548110D03*
X-3479800Y-2379980D03*
X-3312540Y-3047620D03*
X-3324860Y-2870200D03*
X-3446610Y-3048110D03*
X-2189480Y-7076440D03*
X-2182620Y-4862830D03*
X-2321560Y-4688840D03*
X-2285000Y-4472940D03*
X-2196990Y-4571320D03*
X-2239240Y-4069080D03*
X-2260000Y-3790000D03*
X-2073730Y-2716990D03*
X-2074440Y-2952500D03*
X-2199120Y-2716990D03*
X-2025000Y-3075000D03*
X-2100000Y-1650000D03*
X-2171700Y-1920240D03*
X-2108200Y-1137920D03*
X-2062480Y-1000760D03*
X-2492480Y-477520D03*
X-2641600Y-762000D03*
X-2140580Y-551820D03*
X-2115820Y-396240D03*
X-2560000Y170000D03*
X-1703260Y-5537200D03*
X-1605280Y-5139480D03*
X-1570000Y-5050000D03*
X-1440000Y-4580000D03*
X-1455000Y-4485000D03*
X-1585000Y-4070000D03*
X-1940560Y-4610100D03*
X-1841500Y-3362960D03*
X-1975730Y-2351650D03*
X-1913010Y-2716270D03*
X-1760000Y-1660000D03*
X-1320000Y-1740000D03*
X-1947750Y-2103550D03*
X-1859890Y-2168550D03*
X-1409700Y-1315720D03*
X-1663700Y-140970D03*
X-1695450Y473710D03*
X-949960Y-3840480D03*
X-800000Y-3800000D03*
X-1235240Y-3225000D03*
X-1157840Y-3362160D03*
Y-3517500D03*
Y-3644500D03*
X-1238580Y-3075000D03*
X-556260Y-1856740D03*
X-657860Y-1394460D03*
X-637540Y-1026160D03*
X-1026160Y-1117600D03*
X-1090930Y-257810D03*
X-967740Y259080D03*
X-868680Y294640D03*
X-1036320Y170180D03*
X-208280Y-5910580D03*
G54D29*
X7000Y-3173000D03*
X-247000D03*
X7000Y-2919000D03*
Y-2665000D03*
Y-2411000D03*
Y-1903000D03*
Y-1649000D03*
Y-2157000D03*
Y-1395000D03*
Y-1141000D03*
Y-887000D03*
G54D24*
X-8140700Y-2484100D03*
Y-845800D03*
X-7124700Y-2484100D03*
Y-845800D03*
G54D26*
X-6276340Y-5257800D03*
X-6096000Y-4701540D03*
X-4564900Y-5003800D03*
X-2934760Y-5807500D03*
X-2370000Y-5480000D03*
X-2560000Y-5490000D03*
X-2475000Y-5655000D03*
X-2265000Y-5650000D03*
X-2730500Y-5692140D03*
X-2480000Y-5090000D03*
X-2628900Y-3685540D03*
X-1155810Y-6553280D03*
X-1155700Y-6413500D03*
Y-6273800D03*
X-1158240Y-2748280D03*
X-95000Y-6100000D03*
G54D27*
X-3585630Y-6918210D03*
X-350130Y74640D03*
Y514640D03*
G54D28*
X-1440000Y-5790000D03*
%LPD*%
G75*
G54D10*
X-8476240Y-3334100D03*
Y-3534100D03*
Y-3234100D03*
Y-3434100D03*
Y-2984100D03*
X-8740000Y-2550000D03*
X-8476100Y-2621280D03*
X-8724900Y-1938460D03*
X-8719820Y-1699260D03*
X-8724900Y-1877060D03*
X-8727440Y-1755140D03*
X-8730510Y-1646680D03*
X-8719820Y-1590040D03*
X-8727440Y-1813560D03*
X-8725000Y-1346200D03*
X-8724900Y-868680D03*
Y-924560D03*
X-8719820Y-797560D03*
X-8141970Y-7181850D03*
X-8087360Y-7371080D03*
X-8133080D03*
X-8087360Y-7325360D03*
X-8133080D03*
X-8085230Y-6971840D03*
X-8128410D03*
X-8084820Y-6929120D03*
X-8128000D03*
X-8276810Y-5757300D03*
X-8325070D03*
X-8375870D03*
X-8276810Y-5711580D03*
X-8325070D03*
X-8375870D03*
X-8277860Y-5666740D03*
X-8326120D03*
X-8376920D03*
X-8290560Y-4772660D03*
X-8346440Y-4699000D03*
X-8365110Y-4977790D03*
X-8410830D03*
X-8365110Y-4932070D03*
X-8410830D03*
X-8364220Y-4886960D03*
X-8409940D03*
X-8379460Y-3538220D03*
X-8375440Y-3384100D03*
Y-3284100D03*
X-8194680Y-2890000D03*
X-8371840Y-2971800D03*
X-8473440Y-3045000D03*
X-8356600Y-3045460D03*
X-8417560D03*
X-8254100Y-2834100D03*
X-8273580Y-2375000D03*
X-8471860Y-2384100D03*
X-8439560Y-2540000D03*
X-8416080Y-2387600D03*
X-8085000Y-2684100D03*
X-8285000Y-2734310D03*
X-8194680Y-2735000D03*
X-8422480Y-2334100D03*
X-8350000Y-2265000D03*
X-8215000Y-1545800D03*
X-8249870Y-1495720D03*
X-8225000Y-1295000D03*
X-8300000Y-1295800D03*
X-8409320Y-1390000D03*
X-8303260Y-1054100D03*
X-8145000Y-1145800D03*
X-8255000Y-1195800D03*
X-8191500Y-1390000D03*
X-8335000Y-845820D03*
X-8405000Y-900000D03*
X-8384540Y-792480D03*
X-8295000Y-965000D03*
X-8355000Y-965200D03*
X-7781120Y-7379850D03*
Y-7334130D03*
X-7735400D03*
Y-7379850D03*
X-7713980Y-6126480D03*
Y-6217920D03*
Y-6169660D03*
X-7657670Y-5920430D03*
X-7703390D03*
X-7657670Y-5874710D03*
X-7703390D03*
X-7658100Y-5826760D03*
X-7703820D03*
X-8011160Y-4699000D03*
X-7815580Y-4386580D03*
X-7861300D03*
X-7907020D03*
X-7815580Y-4340860D03*
X-7861300D03*
X-7907020D03*
X-7719060Y-3916680D03*
X-7710000Y-2933800D03*
X-7811400Y-2781400D03*
X-7807760Y-2690000D03*
X-7790000Y-2270000D03*
X-7647940Y581660D03*
X-7366000Y-6327140D03*
X-7411720D03*
X-7366000Y-6278880D03*
X-7411720D03*
X-7322820Y-4886300D03*
X-7447280Y-4693920D03*
X-7299180Y-4529600D03*
X-7250000Y-3040000D03*
X-7219100Y-2940000D03*
X-7159100Y-2000000D03*
X-7495540Y579120D03*
X-7048500Y-7167880D03*
X-7071360Y-6677660D03*
X-6758940Y-3802380D03*
X-6814200Y-795800D03*
X-6875000Y-845800D03*
X-6654800Y-5303520D03*
X-6329680Y-4612640D03*
X-6465000Y-4395800D03*
X-6497320Y-4284980D03*
X-6390000Y-4490000D03*
Y-4260000D03*
X-6298800Y-4264000D03*
X-6390000Y-4040000D03*
X-6311900Y-3406140D03*
X-6461760Y-3060700D03*
X-6512580Y-2484100D03*
X-6450000Y-1845800D03*
X-6525280Y-1795800D03*
X-6520000Y-825000D03*
X-6294120Y403860D03*
X-6176260Y-7250180D03*
X-6206180Y-6764550D03*
X-6156960Y-7056120D03*
X-6200140D03*
X-6201700Y-7010950D03*
X-6158520D03*
X-6210300Y-7155180D03*
X-6205020Y-6721390D03*
X-5861720Y-6614160D03*
X-6173880Y-6045850D03*
X-6118000D03*
X-6118860Y-5994400D03*
X-6174740D03*
X-5960600Y-5653260D03*
X-6210000Y-4270000D03*
X-5918200Y-3845560D03*
X-6018010Y-3378200D03*
X-6016840Y-3175000D03*
X-6042660Y-2547620D03*
X-6035040Y-2717800D03*
X-6248400Y403860D03*
X-5460000Y-6330000D03*
X-5803900Y-5384800D03*
X-5446590Y-4948090D03*
X-5646590Y-4848090D03*
X-5546590Y-4948090D03*
X-5446590Y-4748090D03*
X-5546590Y-4848090D03*
X-5646590Y-4948090D03*
X-5446590Y-4848090D03*
X-5546590Y-4248090D03*
X-5446590Y-4148090D03*
X-5646590Y-3748110D03*
X-5546590D03*
X-5446590Y-3948090D03*
X-5646590Y-4048090D03*
X-5546590D03*
X-5791200Y-3505200D03*
X-5546590Y-3248110D03*
Y-3448110D03*
Y-3348110D03*
X-5646590Y-3448110D03*
Y-3348110D03*
X-5446590D03*
Y-3248110D03*
X-5646590D03*
Y-3548110D03*
X-5446590Y-3448110D03*
Y-3648110D03*
X-5546590Y-3548110D03*
X-5446590D03*
X-5546590Y-2948110D03*
X-5446590Y-3148110D03*
Y-3048110D03*
X-5646590Y-2948110D03*
X-5770480Y-3139440D03*
X-5546590Y-3148110D03*
X-5646590Y-2848110D03*
Y-3048110D03*
X-5546590D03*
X-5446590Y-2948110D03*
X-5546590Y-2848110D03*
X-5446590D03*
Y-2748110D03*
X-5646590D03*
X-5546590D03*
X-5455920Y-1559560D03*
X-5461000Y-165100D03*
X-5537200Y563880D03*
Y507400D03*
X-5588600D03*
X-5186680Y-7218680D03*
Y-7272020D03*
Y-7325360D03*
X-5236210Y-6762750D03*
X-5184140Y-7162800D03*
X-5083810Y-6709410D03*
X-4970780Y-6631940D03*
X-5046590Y-4548090D03*
Y-4948090D03*
X-5246590Y-4548090D03*
X-5146590Y-4548060D03*
X-5346590Y-4648090D03*
X-5246590D03*
Y-4748090D03*
X-5346590D03*
X-5246590Y-4348090D03*
Y-4448090D03*
Y-4248090D03*
X-5046590Y-4348110D03*
X-5046610Y-4148090D03*
X-5146590D03*
Y-4448090D03*
Y-4348090D03*
X-5046590Y-4448110D03*
X-5246590Y-4148090D03*
X-5143500Y-4249420D03*
X-5146590Y-3748110D03*
X-5246590D03*
Y-3948090D03*
X-5146590D03*
X-5246590Y-4048090D03*
X-5146590D03*
X-5046610D03*
X-5346590Y-3948090D03*
X-5246590Y-3248110D03*
X-5346590Y-3448110D03*
Y-3348110D03*
Y-3248110D03*
X-5146590Y-3648110D03*
X-5246590D03*
X-5046590Y-3248110D03*
X-5042800Y-3658270D03*
X-5246590Y-3548110D03*
X-5146590D03*
Y-3248110D03*
Y-3348110D03*
X-5246590D03*
Y-3448110D03*
X-5346590Y-3648110D03*
X-5146590Y-3448110D03*
X-5346590Y-3148110D03*
X-5046590Y-2848110D03*
Y-3048110D03*
X-5146590D03*
X-5246590Y-2848110D03*
X-5146590Y-2948110D03*
X-5246590D03*
X-5046590D03*
X-5146590Y-2848110D03*
X-5346590D03*
X-5146590Y-3148110D03*
X-5346590Y-3048110D03*
Y-2948110D03*
X-5246590Y-3048110D03*
X-5046590Y-3148110D03*
X-5246590D03*
X-5046590Y-2748110D03*
X-5146590D03*
X-5346590D03*
X-5246590D03*
X-5350000Y-980000D03*
X-5097780Y-342900D03*
X-4594860Y-6720840D03*
X-4846320Y-6616700D03*
X-4913630Y-6005830D03*
X-4658360Y-5930900D03*
X-4861560Y-6083300D03*
X-4794250Y-5965190D03*
X-4594860Y-6192520D03*
X-4785360Y-5186680D03*
X-4851400Y-5334000D03*
X-4746590Y-4848090D03*
Y-4748090D03*
Y-4648090D03*
X-4646590Y-4548090D03*
X-4946590D03*
X-4846590D03*
X-4946590Y-4948090D03*
X-4746590Y-4548090D03*
Y-4348110D03*
X-4846590Y-4448090D03*
X-4946590D03*
X-4646590Y-4148090D03*
X-4746590D03*
X-4846590D03*
X-4646590Y-4448090D03*
Y-3748110D03*
X-4746590D03*
X-4846590D03*
X-4646590Y-3948090D03*
Y-4048090D03*
X-4746590Y-3948090D03*
Y-4048090D03*
X-4846590D03*
Y-3948090D03*
X-4946590Y-3348090D03*
X-4846590D03*
X-4646590D03*
Y-3548110D03*
Y-3648110D03*
X-4746590Y-3548110D03*
Y-3648110D03*
X-4846590Y-3548110D03*
Y-3648110D03*
X-4746590Y-3248110D03*
X-4646590D03*
X-4546590D03*
X-4946590D03*
X-4846590D03*
X-4646590Y-2848110D03*
X-4846590Y-3048110D03*
X-4946590Y-2848110D03*
X-4846590Y-2948110D03*
Y-2848110D03*
X-4746590Y-3048110D03*
Y-2848110D03*
X-4946590Y-2948110D03*
X-4746590D03*
X-4946590Y-3048110D03*
X-4646590Y-2948110D03*
X-4946590Y-3148110D03*
X-4746590D03*
X-4846590D03*
X-4546610D03*
X-4846590Y-2748110D03*
X-4746590D03*
X-4646590D03*
X-4946590D03*
X-4550000Y-2052320D03*
X-4160700Y-6993710D03*
X-4211500D03*
X-4262300D03*
X-4163060Y-6944360D03*
X-4213860D03*
X-4264660D03*
X-4518660Y-5963920D03*
X-4330700Y-5537200D03*
Y-5461000D03*
X-4178300D03*
X-4483100Y-5537200D03*
X-4178300D03*
X-4483100Y-5461000D03*
X-4218940Y-5096670D03*
X-4193470Y-5049800D03*
X-4146610Y-4948090D03*
X-4246610D03*
Y-4648090D03*
Y-4848090D03*
Y-4748090D03*
X-4146610Y-4648090D03*
X-4446610Y-4548090D03*
X-4146610Y-4748090D03*
X-4346610Y-4848090D03*
X-4146610D03*
X-4346610Y-4648090D03*
Y-4748090D03*
X-4146610Y-4548090D03*
X-4246610D03*
X-4346610D03*
X-4446610Y-4948090D03*
X-4246610Y-4348110D03*
X-4146610D03*
X-4346610D03*
X-4446610Y-4448090D03*
X-4246610Y-4148090D03*
X-4146610Y-4448110D03*
X-4346610Y-4148090D03*
X-4446610D03*
X-4346610Y-4448110D03*
X-4246610Y-3748110D03*
X-4346610D03*
X-4446610D03*
X-4246610Y-3948090D03*
Y-4048090D03*
X-4346610Y-3948090D03*
Y-4048090D03*
X-4446610Y-3948090D03*
Y-4048090D03*
X-4146610Y-3248110D03*
X-4446610Y-3348090D03*
X-4346610D03*
X-4246610Y-3548110D03*
Y-3648110D03*
X-4246590Y-3248110D03*
X-4346610Y-3548110D03*
Y-3648110D03*
X-4446610Y-3548110D03*
Y-3648110D03*
X-4446590Y-3248110D03*
X-4346590D03*
X-4246610Y-2948110D03*
X-4446610Y-2848110D03*
X-4146610Y-2948110D03*
Y-3048110D03*
X-4446610Y-2948110D03*
Y-3048110D03*
X-4346610Y-2848110D03*
Y-2948110D03*
Y-3048110D03*
X-4246610D03*
Y-3148110D03*
X-4146610D03*
X-4446610D03*
X-4346610D03*
X-4340000Y-2636920D03*
X-4346610Y-2748110D03*
X-4446610D03*
X-4185920Y-2171700D03*
Y-2298700D03*
X-4053840Y-7292340D03*
X-3680460Y-6697980D03*
X-3935000Y-5985000D03*
X-4036060Y-5461000D03*
X-4025900Y-5537200D03*
X-3985260Y-5370310D03*
X-3934460Y-5048290D03*
X-4046610Y-4548090D03*
Y-4748090D03*
X-3946610Y-4848090D03*
X-3846610Y-4948090D03*
X-3946610Y-4748090D03*
X-3846610D03*
Y-4848090D03*
X-3746610Y-4548090D03*
X-4046610Y-4848090D03*
X-3646610Y-4548090D03*
X-4046610Y-4648090D03*
X-3946610Y-4948090D03*
X-4046610D03*
X-3946610Y-4548090D03*
X-3846610D03*
X-3646610Y-4648090D03*
Y-4748090D03*
X-3746610Y-4648090D03*
X-3646610Y-4948090D03*
Y-4848090D03*
X-3746610Y-4748090D03*
X-3846610Y-4648090D03*
Y-4348090D03*
X-3646610D03*
X-3746610Y-4248090D03*
Y-4148090D03*
X-3646610Y-4448090D03*
X-3846610Y-4148090D03*
Y-4248090D03*
X-4046590D03*
X-3846610Y-4448090D03*
X-3946610Y-4348090D03*
X-3746610Y-4448090D03*
X-3646610Y-4148090D03*
X-3946610D03*
X-3746610Y-3748110D03*
X-3846610D03*
X-3746610Y-4048090D03*
X-3846610D03*
X-3646610Y-3948090D03*
X-3746610D03*
X-3946610Y-4048090D03*
X-3646610Y-3748110D03*
X-3946610Y-3948090D03*
X-3846610D03*
X-3946610Y-3748110D03*
X-3746610Y-3348110D03*
X-3846610D03*
X-3746610Y-3248110D03*
X-4046590Y-3548090D03*
X-3846610Y-3648110D03*
Y-3448110D03*
X-4046590Y-3648110D03*
X-3646610Y-3448110D03*
Y-3248110D03*
X-3746610Y-3548110D03*
X-3646610D03*
Y-3348110D03*
Y-3648110D03*
X-3846610Y-3548110D03*
X-3946610Y-3348110D03*
Y-3248110D03*
X-4046610Y-3348090D03*
X-3746610Y-3648110D03*
X-3946610D03*
X-4046610Y-3248110D03*
X-3946610Y-3548110D03*
Y-3448110D03*
X-3746610D03*
X-4046610Y-3048110D03*
X-3946610Y-2848110D03*
X-3646610Y-3148110D03*
X-4046610Y-2948110D03*
X-3746610Y-2848110D03*
X-3946610Y-2948110D03*
Y-3048110D03*
X-3846610Y-2848110D03*
Y-2948110D03*
X-4046610Y-3148110D03*
X-3946610D03*
X-3746610D03*
X-3646610Y-3048110D03*
X-3746610D03*
X-3646610Y-2948110D03*
X-3746610D03*
X-3846610Y-3048110D03*
Y-3148110D03*
X-3810000Y-2352040D03*
X-3903980Y-2357120D03*
X-4048760Y-2618740D03*
X-4047550Y-2379680D03*
X-3746610Y-2748110D03*
X-3670300Y-2349500D03*
X-3846610Y-2748110D03*
X-3601720Y-5556980D03*
X-3395520Y-5341160D03*
X-3601720Y-5077460D03*
X-3546610Y-4548090D03*
Y-4648090D03*
X-3362960Y-4947920D03*
X-3446610Y-4748090D03*
Y-4948090D03*
Y-4848090D03*
X-3546610Y-4748090D03*
Y-4848090D03*
Y-4948090D03*
X-3291840Y-4114800D03*
X-3546610Y-4448090D03*
X-3446610Y-4248090D03*
X-3291840Y-4203700D03*
X-3546610Y-4348090D03*
X-3291840Y-4292600D03*
X-3446610Y-4348090D03*
X-3546610Y-4148090D03*
Y-4248090D03*
X-3446610Y-3748110D03*
X-3291840Y-3670300D03*
X-3446610Y-3948090D03*
X-3295000Y-3848100D03*
X-3291840Y-3759200D03*
X-3546610Y-3948090D03*
Y-3748110D03*
X-3291840Y-4025900D03*
Y-3937000D03*
X-3546610Y-3848090D03*
X-3446610Y-4048090D03*
X-3546610D03*
Y-3648110D03*
Y-3348110D03*
X-3350260Y-3314700D03*
X-3546610Y-3448110D03*
X-3383280Y-3403600D03*
X-3446610Y-3648110D03*
X-3291840Y-3492500D03*
X-3446610Y-3548110D03*
X-3546610Y-3248110D03*
Y-3548110D03*
X-3291840Y-3581400D03*
X-3446610Y-3348110D03*
X-3312540Y-3047620D03*
X-3324860Y-2870200D03*
X-3446610Y-3048110D03*
X-3291840Y-3225800D03*
X-3446610Y-2848110D03*
X-3546610Y-2948110D03*
Y-2848110D03*
Y-3048110D03*
X-3479800Y-2379980D03*
X-3546610Y-2748110D03*
X-3040000Y-6480000D03*
X-3063240Y-5067300D03*
X-2895000Y-4725000D03*
X-3063240Y-4953000D03*
X-3004820Y-4335780D03*
X-2940000Y-4230000D03*
X-3042920Y-4292600D03*
X-2997200Y-4254500D03*
X-2981960Y-4163810D03*
X-3070000Y-3937000D03*
Y-4045000D03*
X-2971800Y-3759200D03*
X-3014980Y-3714070D03*
X-3030000Y-3895000D03*
X-3081020Y-3670300D03*
X-2950000Y-4055000D03*
X-2990000Y-3996910D03*
X-3075000Y-3805000D03*
X-3025000Y-3350000D03*
X-3025140Y-3294380D03*
X-3024490Y-3403600D03*
X-3042920Y-3632200D03*
X-3008020Y-3581400D03*
X-3060080Y-3447140D03*
X-3068320Y-3510280D03*
X-3081190Y-3116680D03*
X-3040000Y-3002280D03*
X-3083560Y-2870200D03*
X-3078480Y-3225800D03*
X-2954020Y-2954020D03*
X-2969260Y-3154680D03*
X-3061890Y-2821450D03*
X-3070860Y-3172460D03*
X-2961640Y-3048000D03*
X-3015000Y-2910000D03*
X-2395000Y-3865000D03*
X-2400000Y-3790000D03*
X-2645170Y-1471690D03*
X-2679700Y-1176020D03*
X-2762670D03*
X-2487930Y-797560D03*
X-2641600Y-762000D03*
X-2487930Y-876300D03*
Y-716280D03*
X-2496260Y-556260D03*
X-2492480Y-477520D03*
X-2560000Y170000D03*
X-1947720Y-7252160D03*
X-2189480Y-7076440D03*
X-1961200Y-5440000D03*
Y-5520000D03*
X-2210000D03*
X-2249400Y-5026660D03*
X-1982700Y-5097200D03*
X-1910000Y-5010000D03*
X-1960000Y-5045000D03*
X-1961200Y-5360000D03*
X-2210000Y-5400000D03*
X-1938020Y-4841240D03*
X-2321560Y-4688840D03*
X-2290000Y-4850000D03*
X-1958100Y-4729820D03*
X-1907540Y-4792980D03*
X-2235000Y-4785000D03*
X-2196990Y-4571320D03*
X-2182620Y-4862830D03*
X-1940560Y-4610100D03*
X-1910000Y-4464660D03*
X-2285000Y-4472940D03*
X-1985000Y-4520000D03*
X-1988580Y-4460320D03*
X-1909040Y-4013200D03*
X-2050000Y-3700000D03*
X-1929030Y-4099680D03*
X-1982880Y-4097200D03*
X-2267180Y-3964940D03*
X-2260000Y-3790000D03*
X-2236700Y-3901440D03*
X-2239240Y-4069080D03*
X-1988580Y-4019430D03*
X-2050000Y-3290000D03*
X-1995000Y-3325000D03*
X-2030000Y-3600000D03*
X-2074440Y-2952500D03*
X-2075000Y-3225000D03*
X-2025000Y-3075000D03*
X-2005000Y-3175000D03*
X-1975730Y-2351650D03*
X-2199120Y-2716990D03*
X-1913010Y-2716270D03*
X-2073730Y-2716990D03*
X-2171700Y-1920240D03*
X-1947750Y-2103550D03*
X-2100000Y-1650000D03*
X-2108200Y-1137920D03*
X-2062480Y-1000760D03*
X-2140580Y-551820D03*
X-2115820Y-396240D03*
X-2137020Y363700D03*
X-2139560Y310360D03*
X-2138680Y411480D03*
X-1999860Y310360D03*
X-2093840D03*
X-2045580D03*
X-1997320Y363700D03*
X-2043040D03*
X-2091300D03*
X-1998980Y411480D03*
X-2044700D03*
X-2092960D03*
X-1837520Y-6951370D03*
X-1789260D03*
X-1788160Y-6906260D03*
X-1836420D03*
X-1703260Y-5537200D03*
Y-5417200D03*
X-1665000Y-5340000D03*
X-1605280Y-5139480D03*
X-1570000Y-5050000D03*
X-1681480Y-5097200D03*
X-1630000Y-4590000D03*
X-1685000D03*
X-1705300Y-4777200D03*
X-1705840Y-4490720D03*
X-1645000Y-4470000D03*
X-1570000D03*
X-1455000Y-4485000D03*
X-1517800Y-4537200D03*
X-1585000Y-4070000D03*
X-1685000Y-3950000D03*
X-1841500Y-3362960D03*
X-1820000Y-2720000D03*
X-1790000Y-2535000D03*
X-1859890Y-2168550D03*
X-1760000Y-1660000D03*
X-1651000Y-1659000D03*
X-1570000Y-1660000D03*
X-1457960Y-182880D03*
X-1796960Y225980D03*
Y175180D03*
X-1649640Y225980D03*
Y175180D03*
X-1699260Y226060D03*
X-1747670Y226770D03*
X-1699260Y175260D03*
X-1747520D03*
X-1663700Y-140970D03*
X-1695450Y473710D03*
X-1440000Y-4580000D03*
X-1157840Y-3517500D03*
Y-3644500D03*
Y-3362160D03*
X-1158240Y-3263500D03*
X-1235240Y-3225000D03*
X-1238580Y-3075000D03*
X-1320000Y-1740000D03*
X-1409700Y-1315720D03*
X-1026160Y-1117600D03*
X-1409700Y-182880D03*
X-1090930Y-257810D03*
X-1170940Y-208280D03*
X-1224280Y-157480D03*
X-1170940D03*
X-1437640Y-139700D03*
X-1389380D03*
X-1036320Y170180D03*
X-800000Y-3800000D03*
X-949960Y-3840480D03*
X-657860Y-1394460D03*
X-637540Y-1026160D03*
X-650240Y-391160D03*
X-967740Y259080D03*
X-868680Y294640D03*
X-208280Y-5910580D03*
X-556260Y-1856740D03*
X270000Y-4930000D03*
G54D20*
X-360680Y-6416040D03*
G54D11*
X-8693400Y272840D03*
X-8607800Y273300D03*
X-8693400Y359200D03*
X-8607800Y359660D03*
X-8691880Y444500D03*
X-8606280Y444960D03*
X-8605520Y528320D03*
X-8694420D03*
X-8614820Y780800D03*
Y860800D03*
Y940800D03*
X-8694820Y780800D03*
Y940800D03*
Y860800D03*
X-8065100Y-6810400D03*
X-8063740Y-6726840D03*
X-8153400Y-6809740D03*
X-8152040Y-6726180D03*
X-8063740Y-6646840D03*
X-8152040Y-6646180D03*
X-8073480Y-6314230D03*
X-8162200Y-6313880D03*
X-8073480Y-6229230D03*
Y-6149230D03*
X-8162200Y-6148880D03*
Y-6228880D03*
X-8234680Y-4099560D03*
X-8028940Y228600D03*
X-8028640Y407680D03*
X-8027360Y316240D03*
X-7615340Y-360280D03*
X-7948600Y227680D03*
X-7868600D03*
X-7948600Y407680D03*
X-7868600D03*
X-7948600Y317680D03*
X-7868600D03*
X-7597410Y783270D03*
Y869630D03*
X-7597140Y952500D03*
X-7195140Y-5732580D03*
Y-5812580D03*
X-7310120Y-5194300D03*
X-7223760D03*
X-7297430Y-173560D03*
X-7213610D03*
X-7515340Y-360280D03*
X-7299900Y-90120D03*
X-7299960Y-7620D03*
X-7216080Y-90120D03*
X-7216140Y-7620D03*
X-7343410Y783270D03*
X-7427230D03*
X-7513590D03*
X-7343410Y869630D03*
X-7427230D03*
X-7513590D03*
X-7513320Y952500D03*
X-7426960D03*
X-7343140D03*
X-6782100Y-5712160D03*
X-7115140Y-5732580D03*
Y-5812580D03*
Y-5572580D03*
Y-5652580D03*
X-7132320Y-175260D03*
X-7132260Y-90120D03*
X-7132320Y-7620D03*
X-6502100Y-5689600D03*
X-6276340Y-5257800D03*
X-6527800Y-5076500D03*
X-6410020Y-4594900D03*
X-6365240Y-3820160D03*
X-6489700Y-3825770D03*
X-5859700Y-5900500D03*
X-6096000Y-4701540D03*
X-6220460Y-4960620D03*
X-6035040Y-3827780D03*
X-6129020D03*
X-6225540Y-3835400D03*
X-6160000Y-2138180D03*
X-5739380Y-2217420D03*
Y-2131060D03*
X-5135880Y-2420000D03*
Y-2540000D03*
X-5133340Y-2156460D03*
Y-2250440D03*
X-5021580Y-2161540D03*
X-5135470Y-797450D03*
X-5051650D03*
X-4965290D03*
X-5135470Y-713630D03*
X-5051650D03*
X-4965290D03*
X-4965700Y-627380D03*
X-5052060D03*
X-5135880D03*
X-4803140Y-5420360D03*
X-4914900Y-5702300D03*
X-4564900Y-5003800D03*
X-4720000Y-2165940D03*
X-4878930Y-797450D03*
Y-713630D03*
X-4879340Y-627380D03*
X-4584700Y193040D03*
X-4426350Y-2137810D03*
X-4106800Y-1719200D03*
X-4493260Y193040D03*
X-4401720D03*
X-4046220Y-6593840D03*
Y-6718560D03*
X-3706800Y-5077460D03*
X-4064000Y-5156200D03*
X-3760400Y-2043500D03*
X-3867680Y-471720D03*
X-3787680D03*
X-3707680D03*
X-3867680Y-551720D03*
X-3787680D03*
X-3707680D03*
X-3345200Y-4666000D03*
X-3317240Y-2700020D03*
X-3477260Y-1348740D03*
X-3335150Y593180D03*
X-3429130D03*
X-3520570D03*
X-3335150Y684620D03*
X-3429130D03*
X-3520570D03*
X-3393440Y1122680D03*
Y1031240D03*
X-3307080Y1122680D03*
Y1031240D03*
X-3337560Y772160D03*
X-3431540D03*
X-3522980D03*
X-2829440Y-6163200D03*
X-2829180Y-6262260D03*
X-2936120Y-6163200D03*
X-2935860Y-6262260D03*
X-2934760Y-5807500D03*
X-3097860Y-5395900D03*
X-2870200Y-4480560D03*
X-2971800Y-3482340D03*
X-3052100Y-2386460D03*
X-2903220Y-2346960D03*
X-2790000Y-2350000D03*
Y-2260000D03*
X-2686240Y-7264010D03*
X-2538930Y-7265420D03*
X-2411930D03*
X-2685040Y-7018780D03*
Y-6593840D03*
X-2684780Y-6692900D03*
X-2370000Y-5480000D03*
X-2560000Y-5490000D03*
X-2475000Y-5655000D03*
X-2730500Y-5692140D03*
X-2480000Y-5090000D03*
X-2519680Y-4569460D03*
X-2606040Y-4572000D03*
X-2527460Y-4477300D03*
X-2607460D03*
X-2628900Y-3685540D03*
X-2700020Y-3482340D03*
X-2520000Y-3149600D03*
X-2700000Y-2380000D03*
Y-2290000D03*
X-2722880Y-1808480D03*
X-2265000Y-5650000D03*
X-2270000Y-4360000D03*
X-2171700Y-195580D03*
X-1701800Y-3274060D03*
X-1536700D03*
X-1620000Y-3150000D03*
X-1704340Y-3022600D03*
X-1531620Y-3030220D03*
X-1446040Y-2472980D03*
X-1808070Y-825850D03*
X-1709010D03*
X-1607410D03*
X-1503270D03*
X-1502000Y-919520D03*
X-1606140D03*
X-1707740D03*
X-1806800D03*
X-1809750Y-731210D03*
X-1710690D03*
X-1609090D03*
X-1504950D03*
X-1503680Y-632460D03*
X-1607820D03*
X-1709420D03*
X-1808480D03*
X-1155700Y-6413500D03*
X-1155810Y-6553280D03*
X-1155700Y-6273800D03*
X-1016000D03*
X-1158240Y-2748280D03*
Y-2621280D03*
X-1160780Y-2506980D03*
X-1313960Y-2472980D03*
X-1051560Y-1315720D03*
X-1046480Y-764910D03*
X-1045210Y-858580D03*
X-876300Y-6273800D03*
X-645800Y-5657690D03*
X-620000Y-4560000D03*
X-700000D03*
Y-4480000D03*
X-620000D03*
X-586150Y-3352350D03*
X-589280Y-3263500D03*
X-581660Y-3497580D03*
X-590000Y-2885000D03*
X-775000Y-2480000D03*
X-590000D03*
X-248920Y-5227320D03*
X-540000Y-4560000D03*
X-244390Y-4729480D03*
X-540000Y-4480000D03*
X-328260Y-3347560D03*
X-408940D03*
X-525000Y-2205000D03*
X-95000Y-6100000D03*
X223520Y-5077460D03*
X43180Y-4973320D03*
X119380Y-5080000D03*
X17780D03*
X-88360Y-5081270D03*
X-25400Y-5354050D03*
X96520Y-3462020D03*
Y-3597980D03*
G54D21*
X-247000Y-3173000D03*
Y-2919000D03*
Y-2411000D03*
Y-2665000D03*
Y-1903000D03*
Y-2157000D03*
Y-1395000D03*
Y-1649000D03*
Y-1141000D03*
Y-887000D03*
X7000Y-3173000D03*
Y-2919000D03*
Y-2411000D03*
Y-2665000D03*
Y-1903000D03*
Y-2157000D03*
Y-1395000D03*
Y-1649000D03*
Y-1141000D03*
Y-887000D03*
G54D12*
X-8140700Y-2484100D03*
Y-845800D03*
X-7124700Y-2484100D03*
Y-845800D03*
G54D22*
G01X-9169000Y-7603000D02*
X431000D01*
Y1397000D01*
X-9169000D01*
Y-7603000D01*
G54D13*
X-8224990Y-1795310D03*
X-7438900Y-6066460D03*
X-7294120D03*
Y-5921680D03*
X-7438900D03*
X-7366140Y-5994980D03*
X-7162800Y-3911600D03*
X-6903720Y-6217920D03*
X-6846800Y-6273740D03*
X-6847840Y-6217920D03*
X-6779600Y-4787900D03*
X-6766560Y-4617720D03*
X-7127240Y-4815840D03*
X-6789420Y-4724400D03*
X-6730000Y-4426500D03*
Y-4101500D03*
X-6824980Y-4102100D03*
X-6730000Y-4356100D03*
X-6731000Y-4491500D03*
X-6779260Y-4264660D03*
X-6822440Y-3911600D03*
X-6971110Y-3796500D03*
X-7072710Y-3794760D03*
X-6820000Y-3330000D03*
X-6819140Y-3540000D03*
X-6839020Y-3034100D03*
X-6936740Y-3030220D03*
X-6926580Y-2784100D03*
X-6839020Y-2834100D03*
X-7010400Y-2786380D03*
X-6839020Y-2934100D03*
X-6890000Y-2584100D03*
X-6926580Y-2684100D03*
X-6850380Y-2387600D03*
X-6839020Y-2634100D03*
Y-2734100D03*
X-6808920Y-2534100D03*
X-6930130Y-2229870D03*
X-6839020Y-1995800D03*
X-6926580Y-1745800D03*
X-6839020Y-1495800D03*
X-6930150Y-1682400D03*
X-6925000Y-1510000D03*
X-6839020Y-1695800D03*
Y-1895800D03*
Y-1395800D03*
X-6926580Y-1445800D03*
Y-1345800D03*
X-6837680Y-1295400D03*
X-6840220Y-1206500D03*
X-6820000Y-920000D03*
X-6984560Y357400D03*
X-6291580Y-5573700D03*
X-6362700Y-5359400D03*
X-6604000Y-3771900D03*
X-6540600Y-3384100D03*
Y-3284100D03*
X-6454140Y-3334100D03*
X-6466840Y-3535680D03*
X-6454140Y-3234100D03*
Y-3434100D03*
Y-3134100D03*
X-6540600Y-3184100D03*
Y-3084100D03*
X-6311900Y-3073400D03*
X-6390640Y-2446020D03*
X-6510000Y-1595800D03*
X-6466840Y-1045800D03*
X-6378060Y-1095800D03*
X-6466840Y-1145800D03*
X-6378060Y-1195800D03*
X-6525000Y-1300000D03*
X-6466840Y-945800D03*
X-6518600Y-745800D03*
X-6378060Y-995800D03*
X-6594560Y-162600D03*
X-6344560Y-217600D03*
X-6594560Y-327600D03*
Y-247600D03*
X-6519560Y-117600D03*
X-6441440Y117960D03*
Y-26820D03*
X-6296660D03*
Y117960D03*
X-6369960Y45200D03*
X-6102100Y-5264400D03*
X-6180600Y-5287500D03*
X-5839200Y-4556500D03*
X-5836920Y-4426500D03*
X-6134100Y-3073400D03*
X-6037580Y-2946400D03*
X-6219560Y-217600D03*
Y-137600D03*
X-5412730Y-5905510D03*
X-5803900Y-5636260D03*
X-5519420Y-5524500D03*
X-5735910Y-5638800D03*
X-5763260Y-5808980D03*
X-5729870Y-5501640D03*
X-5760720Y-5298440D03*
X-5811520Y-5224700D03*
X-5610860Y-5105400D03*
X-5825580Y-4296500D03*
X-5745000Y-2385000D03*
Y-2470000D03*
X-5740000Y-2555000D03*
X-5440000Y-2620000D03*
X-5511900Y-2158010D03*
X-5664560Y407400D03*
X-5220500Y-5996430D03*
X-5114810Y-6103620D03*
X-5367020Y-5422900D03*
X-5260340Y-5445760D03*
X-5265420Y-5699760D03*
X-5176520Y-5811520D03*
X-5367020Y-5646420D03*
X-4973320Y-5346700D03*
X-5315120Y-5129700D03*
X-4632960Y-5478780D03*
X-4176270Y-2628390D03*
X-4152030Y-1990490D03*
X-4023360Y-6870700D03*
X-3667760Y-6586220D03*
X-3900930Y-5514340D03*
X-3949200Y-5134250D03*
X-3886200Y-5126230D03*
X-4055860Y-5304790D03*
X-3740000Y-2658110D03*
X-3659600Y-2145000D03*
X-3778410Y-1568290D03*
X-3984080Y-1443280D03*
Y-1393280D03*
X-3650460Y-1094820D03*
X-3847680Y-1131720D03*
X-3747680D03*
X-3650460Y-989820D03*
Y-884820D03*
X-3977680Y-361720D03*
X-3285620Y-6837680D03*
X-3298660Y-6421590D03*
X-3203740D03*
X-3451860Y-6223000D03*
X-3253080Y-5775820D03*
X-3346210Y-5784030D03*
X-3413300Y-5565600D03*
X-3454400Y-5753100D03*
X-3467100Y-5438140D03*
X-3352800Y-5067300D03*
X-3445510Y-5068570D03*
X-3362960Y-4838700D03*
X-3334020Y-4446000D03*
X-3479800Y-2628900D03*
X-3594100D03*
X-3365500D03*
X-3378200Y-1990490D03*
X-3580000Y-2150000D03*
X-3276420Y-1770200D03*
X-3380000Y-1896510D03*
Y-1840000D03*
X-3287460Y-1618680D03*
X-3312680Y-1126720D03*
X-3222680Y-1036720D03*
X-3324860Y-596900D03*
X-3393080Y-667120D03*
X-3560380Y-872120D03*
X-3225060Y-954660D03*
X-3212360Y-882360D03*
X-3464560Y-594360D03*
Y-739140D03*
X-3319780D03*
X-3322670Y-935070D03*
X-3322680Y-301720D03*
Y-166720D03*
X-3232680D03*
Y-301720D03*
X-3387680Y-406720D03*
Y-351720D03*
X-3360680Y-1720D03*
X-3487680D03*
X-3424180D03*
X-3025000Y-6925000D03*
X-3154680Y-5989170D03*
X-2973070Y-5990590D03*
X-2880000Y-5430000D03*
X-3101850Y-5613910D03*
X-3065000Y-5181600D03*
X-3074770Y-4853100D03*
X-3030000Y-4775000D03*
X-2880000Y-3950000D03*
X-3185000Y-2150000D03*
X-3018540Y-2018510D03*
X-2882200Y-1710600D03*
X-3050000Y-1313270D03*
X-3100000D03*
X-2900000Y-1355000D03*
X-3162680Y-1121720D03*
X-2339340Y-6250940D03*
X-2720000Y-5806440D03*
X-2381180Y-3275400D03*
X-2692400Y-3002280D03*
X-2459360Y-2395400D03*
X-2373600Y-2749580D03*
X-2479040Y-1908550D03*
X-2453640Y-2011680D03*
X-2725000Y-1365000D03*
X-2637680Y-221720D03*
Y-171720D03*
Y-121720D03*
X-2144780Y-6250940D03*
X-2280000Y-4950000D03*
X-2209200Y-3591160D03*
X-2103130Y-3591450D03*
X-2209050Y-3644640D03*
X-2103050Y-3644950D03*
X-2133600Y-2542540D03*
X-1640000Y-4930000D03*
X-1470000Y-3560000D03*
X-1750000Y-3550000D03*
X-1745000Y-2755000D03*
X-1545000Y-2765000D03*
X-1495000D03*
X-1445000D03*
X-1663700Y-2722880D03*
X-1875000Y-1973550D03*
X-1424940Y-5031740D03*
X-1010000Y-4890000D03*
X-1065010D03*
X-1386990Y-4805000D03*
X-1390000Y-3930000D03*
Y-3880000D03*
X-1230000Y-3770000D03*
X-1008380Y-2252980D03*
Y-2189480D03*
X-1021080Y-1678940D03*
X-1082040D03*
X-1145540D03*
X-1020960Y1034180D03*
X-1021080Y1099820D03*
X-570230Y-5888990D03*
X-642620Y-5438140D03*
X-640000Y-5560000D03*
X-571500Y-5435600D03*
X-640000Y-5500000D03*
X-970000Y-5250000D03*
Y-5200000D03*
X-715010Y-5325110D03*
X-950000Y-4490000D03*
X-1000000D03*
X-620000Y-4060000D03*
Y-4010000D03*
X-760000Y-3900000D03*
X-960000Y-3740000D03*
X-873760Y-2252980D03*
X-942340D03*
X-873760Y-2189480D03*
X-942340D03*
X-688340Y-1640840D03*
X-629920Y-1582420D03*
Y-1640840D03*
X-688340Y-1584960D03*
X-610130Y584730D03*
X-822840Y1034180D03*
X-888880D03*
X-954920D03*
X-822960Y1099820D03*
X-889000D03*
X-955040D03*
X-555000Y-6080000D03*
X-497840Y-5433060D03*
X-510540Y-3741420D03*
X-546100Y523240D03*
X-490220Y584200D03*
X-546100D03*
X-88900Y-6414260D03*
X228600Y-6421120D03*
X235150Y-6060970D03*
X27940Y-5866200D03*
X95000D03*
X110000Y-5570000D03*
X-50400Y-5579600D03*
X-400D03*
X49600D03*
X95000Y-5792400D03*
X254000Y-5694680D03*
X251460Y-5509260D03*
Y-5245100D03*
X31460Y-5409260D03*
Y-5299260D03*
X176870Y-5209540D03*
X206400Y-2519020D03*
Y-2265020D03*
Y-2011020D03*
Y-1503020D03*
Y-1757020D03*
Y-1249020D03*
X261450Y-281290D03*
Y-222870D03*
X200490Y-281290D03*
Y-222870D03*
G54D14*
X-6670040Y-5735320D03*
X-2990000Y-2240000D03*
X-1440000Y-5790000D03*
G54D15*
X-6124580Y-5007930D03*
G54D16*
X-3585630Y-6918210D03*
X-3145630D03*
X-350130Y74640D03*
Y514640D03*
G54D17*
X-3570000Y-5860000D03*
Y-5660000D03*
G54D18*
X-830580Y-6116320D03*
G54D19*
Y-6715760D03*
M02*
