G04 ================== begin FILE IDENTIFICATION RECORD ==================*
G04 Layout Name:  STANDARD.brd*
G04 Film Name:    3-SIG*
G04 File Format:  Gerber RS274X*
G04 File Origin:  Cadence Allegro 16.6-P004*
G04 Origin Date:  Thu Sep 18 09:56:33 2014*
G04 *
G04 Layer:  VIA CLASS/3-SIG*
G04 Layer:  PIN/3-SIG*
G04 Layer:  ETCH/3-SIG*
G04 Layer:  BOARD GEOMETRY/OUTLINE*
G04 *
G04 Offset:    (0.0000 0.0000)*
G04 Mirror:    No*
G04 Mode:      Positive*
G04 Rotation:  0*
G04 FullContactRelief:  No*
G04 UndefLineWidth:     0.1000*
G04 ================== end FILE IDENTIFICATION RECORD ====================*
%FSLAX25Y25*MOMM*%
%IR0*IPPOS*OFA0.00000B0.00000*MIA0B0*SFA1.00000B1.00000*%
%ADD15C,.8*%
%ADD16C,.9*%
%ADD13C,.508*%
%ADD10C,.4064*%
%ADD11C,.762*%
%ADD17C,1.4*%
%ADD14C,1.016*%
%ADD12C,1.27*%
%ADD21C,1.524*%
%ADD20O,1.778X3.81*%
%ADD19O,3.81X1.778*%
%ADD18O,4.572X1.778*%
%ADD22C,.1*%
%ADD23C,.254*%
%ADD24C,.381*%
%ADD25C,.1219*%
%ADD26C,.8068*%
G75*
%LPD*%
G75*
G36*
G01X-5040000Y-3703630D02*
Y-3997720D01*
G02X-5049450Y-4007850I-10160J5D01*
G03X-5057680Y-4086880I2841J-40239D01*
G01X-5056410Y-4087240D01*
X-5051890Y-4091770D01*
X-5062220Y-4102100D01*
X-5280660D01*
X-5303520Y-4079240D01*
Y-3612860D01*
X-5280660Y-3590000D01*
X-5074920D01*
X-5058730Y-3606190D01*
G02X-5061270Y-3622400I-7187J-7178D01*
G03X-5044820Y-3698560I18465J-35868D01*
G02X-5040000Y-3703630I-260J-5073D01*
G37*
%LPC*%
G75*
G54D26*
X-5146590Y-3948090D03*
X-5246590D03*
Y-3748110D03*
X-5146590D03*
%LPD*%
G75*
G54D10*
X-8476240Y-3334100D03*
Y-3534100D03*
Y-3234100D03*
Y-3434100D03*
Y-2984100D03*
X-8740000Y-2550000D03*
X-8476100Y-2621280D03*
X-8724900Y-1938460D03*
X-8719820Y-1699260D03*
X-8724900Y-1877060D03*
X-8727440Y-1755140D03*
X-8730510Y-1646680D03*
X-8719820Y-1590040D03*
X-8727440Y-1813560D03*
X-8725000Y-1346200D03*
X-8724900Y-868680D03*
Y-924560D03*
X-8719820Y-797560D03*
X-8141970Y-7181850D03*
X-8087360Y-7371080D03*
X-8133080D03*
X-8087360Y-7325360D03*
X-8133080D03*
X-8085230Y-6971840D03*
X-8128410D03*
X-8084820Y-6929120D03*
X-8128000D03*
X-8276810Y-5757300D03*
X-8325070D03*
X-8375870D03*
X-8276810Y-5711580D03*
X-8325070D03*
X-8375870D03*
X-8277860Y-5666740D03*
X-8326120D03*
X-8376920D03*
X-8290560Y-4772660D03*
X-8346440Y-4699000D03*
X-8365110Y-4977790D03*
X-8410830D03*
X-8365110Y-4932070D03*
X-8410830D03*
X-8364220Y-4886960D03*
X-8409940D03*
X-8379460Y-3538220D03*
X-8375440Y-3384100D03*
Y-3284100D03*
X-8194680Y-2890000D03*
X-8371840Y-2971800D03*
X-8473440Y-3045000D03*
X-8356600Y-3045460D03*
X-8417560D03*
X-8254100Y-2834100D03*
X-8273580Y-2375000D03*
X-8471860Y-2384100D03*
X-8439560Y-2540000D03*
X-8416080Y-2387600D03*
X-8085000Y-2684100D03*
X-8285000Y-2734310D03*
X-8194680Y-2735000D03*
X-8422480Y-2334100D03*
X-8350000Y-2265000D03*
X-8215000Y-1545800D03*
X-8249870Y-1495720D03*
X-8225000Y-1295000D03*
X-8300000Y-1295800D03*
X-8409320Y-1390000D03*
X-8303260Y-1054100D03*
X-8145000Y-1145800D03*
X-8255000Y-1195800D03*
X-8191500Y-1390000D03*
X-8335000Y-845820D03*
X-8405000Y-900000D03*
X-8384540Y-792480D03*
X-8295000Y-965000D03*
X-8355000Y-965200D03*
X-7781120Y-7379850D03*
Y-7334130D03*
X-7735400D03*
Y-7379850D03*
X-7713980Y-6126480D03*
Y-6217920D03*
Y-6169660D03*
X-7657670Y-5920430D03*
X-7703390D03*
X-7657670Y-5874710D03*
X-7703390D03*
X-7658100Y-5826760D03*
X-7703820D03*
X-8011160Y-4699000D03*
X-7815580Y-4386580D03*
X-7861300D03*
X-7907020D03*
X-7815580Y-4340860D03*
X-7861300D03*
X-7907020D03*
X-7719060Y-3916680D03*
X-7710000Y-2933800D03*
X-7811400Y-2781400D03*
X-7807760Y-2690000D03*
X-7790000Y-2270000D03*
X-7647940Y581660D03*
X-7366000Y-6327140D03*
X-7411720D03*
X-7366000Y-6278880D03*
X-7411720D03*
X-7322820Y-4886300D03*
X-7447280Y-4693920D03*
X-7299180Y-4529600D03*
X-7250000Y-3040000D03*
X-7219100Y-2940000D03*
X-7159100Y-2000000D03*
X-7495540Y579120D03*
X-7048500Y-7167880D03*
X-7071360Y-6677660D03*
X-6758940Y-3802380D03*
X-6814200Y-795800D03*
X-6875000Y-845800D03*
X-6654800Y-5303520D03*
X-6329680Y-4612640D03*
X-6465000Y-4395800D03*
X-6497320Y-4284980D03*
X-6390000Y-4490000D03*
Y-4260000D03*
X-6298800Y-4264000D03*
X-6390000Y-4040000D03*
X-6311900Y-3406140D03*
X-6461760Y-3060700D03*
X-6512580Y-2484100D03*
X-6450000Y-1845800D03*
X-6525280Y-1795800D03*
X-6520000Y-825000D03*
X-6294120Y403860D03*
X-6176260Y-7250180D03*
X-6206180Y-6764550D03*
X-6156960Y-7056120D03*
X-6200140D03*
X-6201700Y-7010950D03*
X-6158520D03*
X-6210300Y-7155180D03*
X-6205020Y-6721390D03*
X-5861720Y-6614160D03*
X-6173880Y-6045850D03*
X-6118000D03*
X-6118860Y-5994400D03*
X-6174740D03*
X-5960600Y-5653260D03*
X-6210000Y-4270000D03*
X-5918200Y-3845560D03*
X-6018010Y-3378200D03*
X-6016840Y-3175000D03*
X-6042660Y-2547620D03*
X-6035040Y-2717800D03*
X-6248400Y403860D03*
X-5460000Y-6330000D03*
X-5803900Y-5384800D03*
X-5446590Y-4948090D03*
X-5646590Y-4848090D03*
X-5546590Y-4948090D03*
X-5446590Y-4748090D03*
X-5546590Y-4848090D03*
X-5646590Y-4948090D03*
X-5446590Y-4848090D03*
X-5546590Y-4248090D03*
X-5446590Y-4148090D03*
X-5646590Y-3748110D03*
X-5546590D03*
X-5446590Y-3948090D03*
X-5646590Y-4048090D03*
X-5546590D03*
X-5791200Y-3505200D03*
X-5546590Y-3248110D03*
Y-3448110D03*
Y-3348110D03*
X-5646590Y-3448110D03*
Y-3348110D03*
X-5446590D03*
Y-3248110D03*
X-5646590D03*
Y-3548110D03*
X-5446590Y-3448110D03*
Y-3648110D03*
X-5546590Y-3548110D03*
X-5446590D03*
X-5546590Y-2948110D03*
X-5446590Y-3148110D03*
Y-3048110D03*
X-5646590Y-2948110D03*
X-5770480Y-3139440D03*
X-5546590Y-3148110D03*
X-5646590Y-2848110D03*
Y-3048110D03*
X-5546590D03*
X-5446590Y-2948110D03*
X-5546590Y-2848110D03*
X-5446590D03*
Y-2748110D03*
X-5646590D03*
X-5546590D03*
X-5455920Y-1559560D03*
X-5461000Y-165100D03*
X-5537200Y563880D03*
Y507400D03*
X-5588600D03*
X-5186680Y-7218680D03*
Y-7272020D03*
Y-7325360D03*
X-5236210Y-6762750D03*
X-5184140Y-7162800D03*
X-5083810Y-6709410D03*
X-4970780Y-6631940D03*
X-5046590Y-4548090D03*
Y-4948090D03*
X-5246590Y-4548090D03*
X-5146590Y-4548060D03*
X-5346590Y-4648090D03*
X-5246590D03*
Y-4748090D03*
X-5346590D03*
X-5246590Y-4348090D03*
Y-4448090D03*
Y-4248090D03*
X-5046590Y-4348110D03*
X-5046610Y-4148090D03*
X-5146590D03*
Y-4448090D03*
Y-4348090D03*
X-5046590Y-4448110D03*
X-5246590Y-4148090D03*
X-5143500Y-4249420D03*
X-5146590Y-3748110D03*
X-5246590D03*
Y-3948090D03*
X-5146590D03*
X-5246590Y-4048090D03*
X-5146590D03*
X-5046610D03*
X-5346590Y-3948090D03*
X-5246590Y-3248110D03*
X-5346590Y-3448110D03*
Y-3348110D03*
Y-3248110D03*
X-5146590Y-3648110D03*
X-5246590D03*
X-5046590Y-3248110D03*
X-5042800Y-3658270D03*
X-5246590Y-3548110D03*
X-5146590D03*
Y-3248110D03*
Y-3348110D03*
X-5246590D03*
Y-3448110D03*
X-5346590Y-3648110D03*
X-5146590Y-3448110D03*
X-5346590Y-3148110D03*
X-5046590Y-2848110D03*
Y-3048110D03*
X-5146590D03*
X-5246590Y-2848110D03*
X-5146590Y-2948110D03*
X-5246590D03*
X-5046590D03*
X-5146590Y-2848110D03*
X-5346590D03*
X-5146590Y-3148110D03*
X-5346590Y-3048110D03*
Y-2948110D03*
X-5246590Y-3048110D03*
X-5046590Y-3148110D03*
X-5246590D03*
X-5046590Y-2748110D03*
X-5146590D03*
X-5346590D03*
X-5246590D03*
X-5350000Y-980000D03*
X-5097780Y-342900D03*
X-4594860Y-6720840D03*
X-4846320Y-6616700D03*
X-4913630Y-6005830D03*
X-4658360Y-5930900D03*
X-4861560Y-6083300D03*
X-4794250Y-5965190D03*
X-4594860Y-6192520D03*
X-4785360Y-5186680D03*
X-4851400Y-5334000D03*
X-4746590Y-4848090D03*
Y-4748090D03*
Y-4648090D03*
X-4646590Y-4548090D03*
X-4946590D03*
X-4846590D03*
X-4946590Y-4948090D03*
X-4746590Y-4548090D03*
Y-4348110D03*
X-4846590Y-4448090D03*
X-4946590D03*
X-4646590Y-4148090D03*
X-4746590D03*
X-4846590D03*
X-4646590Y-4448090D03*
Y-3748110D03*
X-4746590D03*
X-4846590D03*
X-4646590Y-3948090D03*
Y-4048090D03*
X-4746590Y-3948090D03*
Y-4048090D03*
X-4846590D03*
Y-3948090D03*
X-4946590Y-3348090D03*
X-4846590D03*
X-4646590D03*
Y-3548110D03*
Y-3648110D03*
X-4746590Y-3548110D03*
Y-3648110D03*
X-4846590Y-3548110D03*
Y-3648110D03*
X-4746590Y-3248110D03*
X-4646590D03*
X-4546590D03*
X-4946590D03*
X-4846590D03*
X-4646590Y-2848110D03*
X-4846590Y-3048110D03*
X-4946590Y-2848110D03*
X-4846590Y-2948110D03*
Y-2848110D03*
X-4746590Y-3048110D03*
Y-2848110D03*
X-4946590Y-2948110D03*
X-4746590D03*
X-4946590Y-3048110D03*
X-4646590Y-2948110D03*
X-4946590Y-3148110D03*
X-4746590D03*
X-4846590D03*
X-4546610D03*
X-4846590Y-2748110D03*
X-4746590D03*
X-4646590D03*
X-4946590D03*
X-4550000Y-2052320D03*
X-4160700Y-6993710D03*
X-4211500D03*
X-4262300D03*
X-4163060Y-6944360D03*
X-4213860D03*
X-4264660D03*
X-4518660Y-5963920D03*
X-4330700Y-5537200D03*
Y-5461000D03*
X-4178300D03*
X-4483100Y-5537200D03*
X-4178300D03*
X-4483100Y-5461000D03*
X-4218940Y-5096670D03*
X-4193470Y-5049800D03*
X-4146610Y-4948090D03*
X-4246610D03*
Y-4648090D03*
Y-4848090D03*
Y-4748090D03*
X-4146610Y-4648090D03*
X-4446610Y-4548090D03*
X-4146610Y-4748090D03*
X-4346610Y-4848090D03*
X-4146610D03*
X-4346610Y-4648090D03*
Y-4748090D03*
X-4146610Y-4548090D03*
X-4246610D03*
X-4346610D03*
X-4446610Y-4948090D03*
X-4246610Y-4348110D03*
X-4146610D03*
X-4346610D03*
X-4446610Y-4448090D03*
X-4246610Y-4148090D03*
X-4146610Y-4448110D03*
X-4346610Y-4148090D03*
X-4446610D03*
X-4346610Y-4448110D03*
X-4246610Y-3748110D03*
X-4346610D03*
X-4446610D03*
X-4246610Y-3948090D03*
Y-4048090D03*
X-4346610Y-3948090D03*
Y-4048090D03*
X-4446610Y-3948090D03*
Y-4048090D03*
X-4146610Y-3248110D03*
X-4446610Y-3348090D03*
X-4346610D03*
X-4246610Y-3548110D03*
Y-3648110D03*
X-4246590Y-3248110D03*
X-4346610Y-3548110D03*
Y-3648110D03*
X-4446610Y-3548110D03*
Y-3648110D03*
X-4446590Y-3248110D03*
X-4346590D03*
X-4246610Y-2948110D03*
X-4446610Y-2848110D03*
X-4146610Y-2948110D03*
Y-3048110D03*
X-4446610Y-2948110D03*
Y-3048110D03*
X-4346610Y-2848110D03*
Y-2948110D03*
Y-3048110D03*
X-4246610D03*
Y-3148110D03*
X-4146610D03*
X-4446610D03*
X-4346610D03*
X-4340000Y-2636920D03*
X-4346610Y-2748110D03*
X-4446610D03*
X-4185920Y-2171700D03*
Y-2298700D03*
X-4053840Y-7292340D03*
X-3680460Y-6697980D03*
X-3935000Y-5985000D03*
X-4036060Y-5461000D03*
X-4025900Y-5537200D03*
X-3985260Y-5370310D03*
X-3934460Y-5048290D03*
X-4046610Y-4548090D03*
Y-4748090D03*
X-3946610Y-4848090D03*
X-3846610Y-4948090D03*
X-3946610Y-4748090D03*
X-3846610D03*
Y-4848090D03*
X-3746610Y-4548090D03*
X-4046610Y-4848090D03*
X-3646610Y-4548090D03*
X-4046610Y-4648090D03*
X-3946610Y-4948090D03*
X-4046610D03*
X-3946610Y-4548090D03*
X-3846610D03*
X-3646610Y-4648090D03*
Y-4748090D03*
X-3746610Y-4648090D03*
X-3646610Y-4948090D03*
Y-4848090D03*
X-3746610Y-4748090D03*
X-3846610Y-4648090D03*
Y-4348090D03*
X-3646610D03*
X-3746610Y-4248090D03*
Y-4148090D03*
X-3646610Y-4448090D03*
X-3846610Y-4148090D03*
Y-4248090D03*
X-4046590D03*
X-3846610Y-4448090D03*
X-3946610Y-4348090D03*
X-3746610Y-4448090D03*
X-3646610Y-4148090D03*
X-3946610D03*
X-3746610Y-3748110D03*
X-3846610D03*
X-3746610Y-4048090D03*
X-3846610D03*
X-3646610Y-3948090D03*
X-3746610D03*
X-3946610Y-4048090D03*
X-3646610Y-3748110D03*
X-3946610Y-3948090D03*
X-3846610D03*
X-3946610Y-3748110D03*
X-3746610Y-3348110D03*
X-3846610D03*
X-3746610Y-3248110D03*
X-4046590Y-3548090D03*
X-3846610Y-3648110D03*
Y-3448110D03*
X-4046590Y-3648110D03*
X-3646610Y-3448110D03*
Y-3248110D03*
X-3746610Y-3548110D03*
X-3646610D03*
Y-3348110D03*
Y-3648110D03*
X-3846610Y-3548110D03*
X-3946610Y-3348110D03*
Y-3248110D03*
X-4046610Y-3348090D03*
X-3746610Y-3648110D03*
X-3946610D03*
X-4046610Y-3248110D03*
X-3946610Y-3548110D03*
Y-3448110D03*
X-3746610D03*
X-4046610Y-3048110D03*
X-3946610Y-2848110D03*
X-3646610Y-3148110D03*
X-4046610Y-2948110D03*
X-3746610Y-2848110D03*
X-3946610Y-2948110D03*
Y-3048110D03*
X-3846610Y-2848110D03*
Y-2948110D03*
X-4046610Y-3148110D03*
X-3946610D03*
X-3746610D03*
X-3646610Y-3048110D03*
X-3746610D03*
X-3646610Y-2948110D03*
X-3746610D03*
X-3846610Y-3048110D03*
Y-3148110D03*
X-3810000Y-2352040D03*
X-3903980Y-2357120D03*
X-4048760Y-2618740D03*
X-4047550Y-2379680D03*
X-3746610Y-2748110D03*
X-3670300Y-2349500D03*
X-3846610Y-2748110D03*
X-3601720Y-5556980D03*
X-3395520Y-5341160D03*
X-3601720Y-5077460D03*
X-3546610Y-4548090D03*
Y-4648090D03*
X-3362960Y-4947920D03*
X-3446610Y-4748090D03*
Y-4948090D03*
Y-4848090D03*
X-3546610Y-4748090D03*
Y-4848090D03*
Y-4948090D03*
X-3291840Y-4114800D03*
X-3546610Y-4448090D03*
X-3446610Y-4248090D03*
X-3291840Y-4203700D03*
X-3546610Y-4348090D03*
X-3291840Y-4292600D03*
X-3446610Y-4348090D03*
X-3546610Y-4148090D03*
Y-4248090D03*
X-3446610Y-3748110D03*
X-3291840Y-3670300D03*
X-3446610Y-3948090D03*
X-3295000Y-3848100D03*
X-3291840Y-3759200D03*
X-3546610Y-3948090D03*
Y-3748110D03*
X-3291840Y-4025900D03*
Y-3937000D03*
X-3546610Y-3848090D03*
X-3446610Y-4048090D03*
X-3546610D03*
Y-3648110D03*
Y-3348110D03*
X-3350260Y-3314700D03*
X-3546610Y-3448110D03*
X-3383280Y-3403600D03*
X-3446610Y-3648110D03*
X-3291840Y-3492500D03*
X-3446610Y-3548110D03*
X-3546610Y-3248110D03*
Y-3548110D03*
X-3291840Y-3581400D03*
X-3446610Y-3348110D03*
X-3312540Y-3047620D03*
X-3324860Y-2870200D03*
X-3446610Y-3048110D03*
X-3291840Y-3225800D03*
X-3446610Y-2848110D03*
X-3546610Y-2948110D03*
Y-2848110D03*
Y-3048110D03*
X-3479800Y-2379980D03*
X-3546610Y-2748110D03*
X-3040000Y-6480000D03*
X-3063240Y-5067300D03*
X-2895000Y-4725000D03*
X-3063240Y-4953000D03*
X-3004820Y-4335780D03*
X-2940000Y-4230000D03*
X-3042920Y-4292600D03*
X-2997200Y-4254500D03*
X-2981960Y-4163810D03*
X-3070000Y-3937000D03*
Y-4045000D03*
X-2971800Y-3759200D03*
X-3014980Y-3714070D03*
X-3030000Y-3895000D03*
X-3081020Y-3670300D03*
X-2950000Y-4055000D03*
X-2990000Y-3996910D03*
X-3075000Y-3805000D03*
X-3025000Y-3350000D03*
X-3025140Y-3294380D03*
X-3024490Y-3403600D03*
X-3042920Y-3632200D03*
X-3008020Y-3581400D03*
X-3060080Y-3447140D03*
X-3068320Y-3510280D03*
X-3081190Y-3116680D03*
X-3040000Y-3002280D03*
X-3083560Y-2870200D03*
X-3078480Y-3225800D03*
X-2954020Y-2954020D03*
X-2969260Y-3154680D03*
X-3061890Y-2821450D03*
X-3070860Y-3172460D03*
X-2961640Y-3048000D03*
X-3015000Y-2910000D03*
X-2395000Y-3865000D03*
X-2400000Y-3790000D03*
X-2645170Y-1471690D03*
X-2679700Y-1176020D03*
X-2762670D03*
X-2487930Y-797560D03*
X-2641600Y-762000D03*
X-2487930Y-876300D03*
Y-716280D03*
X-2496260Y-556260D03*
X-2492480Y-477520D03*
X-2560000Y170000D03*
X-1947720Y-7252160D03*
X-2189480Y-7076440D03*
X-1961200Y-5440000D03*
Y-5520000D03*
X-2210000D03*
X-2249400Y-5026660D03*
X-1982700Y-5097200D03*
X-1910000Y-5010000D03*
X-1960000Y-5045000D03*
X-1961200Y-5360000D03*
X-2210000Y-5400000D03*
X-1938020Y-4841240D03*
X-2321560Y-4688840D03*
X-2290000Y-4850000D03*
X-1958100Y-4729820D03*
X-1907540Y-4792980D03*
X-2235000Y-4785000D03*
X-2196990Y-4571320D03*
X-2182620Y-4862830D03*
X-1940560Y-4610100D03*
X-1910000Y-4464660D03*
X-2285000Y-4472940D03*
X-1985000Y-4520000D03*
X-1988580Y-4460320D03*
X-1909040Y-4013200D03*
X-2050000Y-3700000D03*
X-1929030Y-4099680D03*
X-1982880Y-4097200D03*
X-2267180Y-3964940D03*
X-2260000Y-3790000D03*
X-2236700Y-3901440D03*
X-2239240Y-4069080D03*
X-1988580Y-4019430D03*
X-2050000Y-3290000D03*
X-1995000Y-3325000D03*
X-2030000Y-3600000D03*
X-2074440Y-2952500D03*
X-2075000Y-3225000D03*
X-2025000Y-3075000D03*
X-2005000Y-3175000D03*
X-1975730Y-2351650D03*
X-2199120Y-2716990D03*
X-1913010Y-2716270D03*
X-2073730Y-2716990D03*
X-2171700Y-1920240D03*
X-1947750Y-2103550D03*
X-2100000Y-1650000D03*
X-2108200Y-1137920D03*
X-2062480Y-1000760D03*
X-2140580Y-551820D03*
X-2115820Y-396240D03*
X-2137020Y363700D03*
X-2139560Y310360D03*
X-2138680Y411480D03*
X-1999860Y310360D03*
X-2093840D03*
X-2045580D03*
X-1997320Y363700D03*
X-2043040D03*
X-2091300D03*
X-1998980Y411480D03*
X-2044700D03*
X-2092960D03*
X-1837520Y-6951370D03*
X-1789260D03*
X-1788160Y-6906260D03*
X-1836420D03*
X-1703260Y-5537200D03*
Y-5417200D03*
X-1665000Y-5340000D03*
X-1605280Y-5139480D03*
X-1570000Y-5050000D03*
X-1681480Y-5097200D03*
X-1630000Y-4590000D03*
X-1685000D03*
X-1705300Y-4777200D03*
X-1705840Y-4490720D03*
X-1645000Y-4470000D03*
X-1570000D03*
X-1455000Y-4485000D03*
X-1517800Y-4537200D03*
X-1585000Y-4070000D03*
X-1685000Y-3950000D03*
X-1841500Y-3362960D03*
X-1820000Y-2720000D03*
X-1790000Y-2535000D03*
X-1859890Y-2168550D03*
X-1760000Y-1660000D03*
X-1651000Y-1659000D03*
X-1570000Y-1660000D03*
X-1457960Y-182880D03*
X-1796960Y225980D03*
Y175180D03*
X-1649640Y225980D03*
Y175180D03*
X-1699260Y226060D03*
X-1747670Y226770D03*
X-1699260Y175260D03*
X-1747520D03*
X-1663700Y-140970D03*
X-1695450Y473710D03*
X-1440000Y-4580000D03*
X-1157840Y-3517500D03*
Y-3644500D03*
Y-3362160D03*
X-1158240Y-3263500D03*
X-1235240Y-3225000D03*
X-1238580Y-3075000D03*
X-1320000Y-1740000D03*
X-1409700Y-1315720D03*
X-1026160Y-1117600D03*
X-1409700Y-182880D03*
X-1090930Y-257810D03*
X-1170940Y-208280D03*
X-1224280Y-157480D03*
X-1170940D03*
X-1437640Y-139700D03*
X-1389380D03*
X-1036320Y170180D03*
X-800000Y-3800000D03*
X-949960Y-3840480D03*
X-657860Y-1394460D03*
X-637540Y-1026160D03*
X-650240Y-391160D03*
X-967740Y259080D03*
X-868680Y294640D03*
X-208280Y-5910580D03*
X-556260Y-1856740D03*
X270000Y-4930000D03*
G54D20*
X-360680Y-6416040D03*
G54D11*
G01X-7223760Y-5194300D02*
X-6941820Y-5476240D01*
Y-5897880D01*
X-6344920Y-6494780D01*
X-3524780D01*
X-3060700Y-6030700D01*
Y-5933440D01*
X-2934760Y-5807500D01*
G01X-7310120Y-5194300D02*
X-7223760D01*
X-8693400Y272840D03*
X-8607800Y273300D03*
X-8693400Y359200D03*
X-8607800Y359660D03*
X-8691880Y444500D03*
X-8606280Y444960D03*
X-8605520Y528320D03*
X-8694420D03*
X-8614820Y780800D03*
Y860800D03*
Y940800D03*
X-8694820Y780800D03*
Y940800D03*
Y860800D03*
X-8065100Y-6810400D03*
X-8063740Y-6726840D03*
X-8153400Y-6809740D03*
X-8152040Y-6726180D03*
X-8063740Y-6646840D03*
X-8152040Y-6646180D03*
X-8073480Y-6314230D03*
X-8162200Y-6313880D03*
X-8073480Y-6229230D03*
Y-6149230D03*
X-8162200Y-6148880D03*
Y-6228880D03*
X-8234680Y-4099560D03*
X-8028940Y228600D03*
X-8028640Y407680D03*
X-8027360Y316240D03*
X-7615340Y-360280D03*
X-7948600Y227680D03*
X-7868600D03*
X-7948600Y407680D03*
X-7868600D03*
X-7948600Y317680D03*
X-7868600D03*
X-7597410Y783270D03*
Y869630D03*
X-7597140Y952500D03*
X-7195140Y-5732580D03*
Y-5812580D03*
X-7310120Y-5194300D03*
X-7223760D03*
X-7297430Y-173560D03*
X-7213610D03*
X-7515340Y-360280D03*
X-7299900Y-90120D03*
X-7299960Y-7620D03*
X-7216080Y-90120D03*
X-7216140Y-7620D03*
X-7343410Y783270D03*
X-7427230D03*
X-7513590D03*
X-7343410Y869630D03*
X-7427230D03*
X-7513590D03*
X-7513320Y952500D03*
X-7426960D03*
X-7343140D03*
X-6782100Y-5712160D03*
X-7115140Y-5732580D03*
Y-5812580D03*
Y-5572580D03*
Y-5652580D03*
X-7132320Y-175260D03*
X-7132260Y-90120D03*
X-7132320Y-7620D03*
X-6502100Y-5689600D03*
X-6276340Y-5257800D03*
X-6527800Y-5076500D03*
X-6410020Y-4594900D03*
X-6365240Y-3820160D03*
X-6489700Y-3825770D03*
X-5859700Y-5900500D03*
X-6096000Y-4701540D03*
X-6220460Y-4960620D03*
X-6035040Y-3827780D03*
X-6129020D03*
X-6225540Y-3835400D03*
X-6160000Y-2138180D03*
X-5739380Y-2217420D03*
Y-2131060D03*
X-5135880Y-2420000D03*
Y-2540000D03*
X-5133340Y-2156460D03*
Y-2250440D03*
X-5021580Y-2161540D03*
X-5135470Y-797450D03*
X-5051650D03*
X-4965290D03*
X-5135470Y-713630D03*
X-5051650D03*
X-4965290D03*
X-4965700Y-627380D03*
X-5052060D03*
X-5135880D03*
X-4803140Y-5420360D03*
X-4914900Y-5702300D03*
X-4564900Y-5003800D03*
X-4720000Y-2165940D03*
X-4878930Y-797450D03*
Y-713630D03*
X-4879340Y-627380D03*
X-4584700Y193040D03*
X-4426350Y-2137810D03*
X-4106800Y-1719200D03*
X-4493260Y193040D03*
X-4401720D03*
X-4046220Y-6593840D03*
Y-6718560D03*
X-3706800Y-5077460D03*
X-4064000Y-5156200D03*
X-3760400Y-2043500D03*
X-3867680Y-471720D03*
X-3787680D03*
X-3707680D03*
X-3867680Y-551720D03*
X-3787680D03*
X-3707680D03*
X-3345200Y-4666000D03*
X-3317240Y-2700020D03*
X-3477260Y-1348740D03*
X-3335150Y593180D03*
X-3429130D03*
X-3520570D03*
X-3335150Y684620D03*
X-3429130D03*
X-3520570D03*
X-3393440Y1122680D03*
Y1031240D03*
X-3307080Y1122680D03*
Y1031240D03*
X-3337560Y772160D03*
X-3431540D03*
X-3522980D03*
X-2829440Y-6163200D03*
X-2829180Y-6262260D03*
X-2936120Y-6163200D03*
X-2935860Y-6262260D03*
X-2934760Y-5807500D03*
X-3097860Y-5395900D03*
X-2870200Y-4480560D03*
X-2971800Y-3482340D03*
X-3052100Y-2386460D03*
X-2903220Y-2346960D03*
X-2790000Y-2350000D03*
Y-2260000D03*
X-2686240Y-7264010D03*
X-2538930Y-7265420D03*
X-2411930D03*
X-2685040Y-7018780D03*
Y-6593840D03*
X-2684780Y-6692900D03*
X-2370000Y-5480000D03*
X-2560000Y-5490000D03*
X-2475000Y-5655000D03*
X-2730500Y-5692140D03*
X-2480000Y-5090000D03*
X-2519680Y-4569460D03*
X-2606040Y-4572000D03*
X-2527460Y-4477300D03*
X-2607460D03*
X-2628900Y-3685540D03*
X-2700020Y-3482340D03*
X-2520000Y-3149600D03*
X-2700000Y-2380000D03*
Y-2290000D03*
X-2722880Y-1808480D03*
X-2265000Y-5650000D03*
X-2270000Y-4360000D03*
X-2171700Y-195580D03*
X-1701800Y-3274060D03*
X-1536700D03*
X-1620000Y-3150000D03*
X-1704340Y-3022600D03*
X-1531620Y-3030220D03*
X-1446040Y-2472980D03*
X-1808070Y-825850D03*
X-1709010D03*
X-1607410D03*
X-1503270D03*
X-1502000Y-919520D03*
X-1606140D03*
X-1707740D03*
X-1806800D03*
X-1809750Y-731210D03*
X-1710690D03*
X-1609090D03*
X-1504950D03*
X-1503680Y-632460D03*
X-1607820D03*
X-1709420D03*
X-1808480D03*
X-1155700Y-6413500D03*
X-1155810Y-6553280D03*
X-1155700Y-6273800D03*
X-1016000D03*
X-1158240Y-2748280D03*
Y-2621280D03*
X-1160780Y-2506980D03*
X-1313960Y-2472980D03*
X-1051560Y-1315720D03*
X-1046480Y-764910D03*
X-1045210Y-858580D03*
X-876300Y-6273800D03*
X-645800Y-5657690D03*
X-620000Y-4560000D03*
X-700000D03*
Y-4480000D03*
X-620000D03*
X-586150Y-3352350D03*
X-589280Y-3263500D03*
X-581660Y-3497580D03*
X-590000Y-2885000D03*
X-775000Y-2480000D03*
X-590000D03*
X-248920Y-5227320D03*
X-540000Y-4560000D03*
X-244390Y-4729480D03*
X-540000Y-4480000D03*
X-328260Y-3347560D03*
X-408940D03*
X-525000Y-2205000D03*
X-95000Y-6100000D03*
X223520Y-5077460D03*
X43180Y-4973320D03*
X119380Y-5080000D03*
X17780D03*
X-88360Y-5081270D03*
X-25400Y-5354050D03*
X96520Y-3462020D03*
Y-3597980D03*
G54D21*
X-247000Y-3173000D03*
Y-2919000D03*
Y-2411000D03*
Y-2665000D03*
Y-1903000D03*
Y-2157000D03*
Y-1395000D03*
Y-1649000D03*
Y-1141000D03*
Y-887000D03*
X7000Y-3173000D03*
Y-2919000D03*
Y-2411000D03*
Y-2665000D03*
Y-1903000D03*
Y-2157000D03*
Y-1395000D03*
Y-1649000D03*
Y-1141000D03*
Y-887000D03*
G54D12*
X-8140700Y-2484100D03*
Y-845800D03*
X-7124700Y-2484100D03*
Y-845800D03*
G54D22*
G01X-9169000Y-7603000D02*
X431000D01*
Y1397000D01*
X-9169000D01*
Y-7603000D01*
G54D13*
G01X-7988240Y-6809740D02*
X-7988900Y-6810400D01*
G01X-2990000Y-2240000D02*
X-2918550Y-2168550D01*
X-1859890D01*
G01X-2280000Y-4950000D02*
X-2230580D01*
X-1950580Y-5230000D01*
X-1145000D01*
X-620000Y-4705000D01*
Y-4560000D01*
X-8224990Y-1795310D03*
X-7438900Y-6066460D03*
X-7294120D03*
Y-5921680D03*
X-7438900D03*
X-7366140Y-5994980D03*
X-7162800Y-3911600D03*
X-6903720Y-6217920D03*
X-6846800Y-6273740D03*
X-6847840Y-6217920D03*
X-6779600Y-4787900D03*
X-6766560Y-4617720D03*
X-7127240Y-4815840D03*
X-6789420Y-4724400D03*
X-6730000Y-4426500D03*
Y-4101500D03*
X-6824980Y-4102100D03*
X-6730000Y-4356100D03*
X-6731000Y-4491500D03*
X-6779260Y-4264660D03*
X-6822440Y-3911600D03*
X-6971110Y-3796500D03*
X-7072710Y-3794760D03*
X-6820000Y-3330000D03*
X-6819140Y-3540000D03*
X-6839020Y-3034100D03*
X-6936740Y-3030220D03*
X-6926580Y-2784100D03*
X-6839020Y-2834100D03*
X-7010400Y-2786380D03*
X-6839020Y-2934100D03*
X-6890000Y-2584100D03*
X-6926580Y-2684100D03*
X-6850380Y-2387600D03*
X-6839020Y-2634100D03*
Y-2734100D03*
X-6808920Y-2534100D03*
X-6930130Y-2229870D03*
X-6839020Y-1995800D03*
X-6926580Y-1745800D03*
X-6839020Y-1495800D03*
X-6930150Y-1682400D03*
X-6925000Y-1510000D03*
X-6839020Y-1695800D03*
Y-1895800D03*
Y-1395800D03*
X-6926580Y-1445800D03*
Y-1345800D03*
X-6837680Y-1295400D03*
X-6840220Y-1206500D03*
X-6820000Y-920000D03*
X-6984560Y357400D03*
X-6291580Y-5573700D03*
X-6362700Y-5359400D03*
X-6604000Y-3771900D03*
X-6540600Y-3384100D03*
Y-3284100D03*
X-6454140Y-3334100D03*
X-6466840Y-3535680D03*
X-6454140Y-3234100D03*
Y-3434100D03*
Y-3134100D03*
X-6540600Y-3184100D03*
Y-3084100D03*
X-6311900Y-3073400D03*
X-6390640Y-2446020D03*
X-6510000Y-1595800D03*
X-6466840Y-1045800D03*
X-6378060Y-1095800D03*
X-6466840Y-1145800D03*
X-6378060Y-1195800D03*
X-6525000Y-1300000D03*
X-6466840Y-945800D03*
X-6518600Y-745800D03*
X-6378060Y-995800D03*
X-6594560Y-162600D03*
X-6344560Y-217600D03*
X-6594560Y-327600D03*
Y-247600D03*
X-6519560Y-117600D03*
X-6441440Y117960D03*
Y-26820D03*
X-6296660D03*
Y117960D03*
X-6369960Y45200D03*
X-6102100Y-5264400D03*
X-6180600Y-5287500D03*
X-5839200Y-4556500D03*
X-5836920Y-4426500D03*
X-6134100Y-3073400D03*
X-6037580Y-2946400D03*
X-6219560Y-217600D03*
Y-137600D03*
X-5412730Y-5905510D03*
X-5803900Y-5636260D03*
X-5519420Y-5524500D03*
X-5735910Y-5638800D03*
X-5763260Y-5808980D03*
X-5729870Y-5501640D03*
X-5760720Y-5298440D03*
X-5811520Y-5224700D03*
X-5610860Y-5105400D03*
X-5825580Y-4296500D03*
X-5745000Y-2385000D03*
Y-2470000D03*
X-5740000Y-2555000D03*
X-5440000Y-2620000D03*
X-5511900Y-2158010D03*
X-5664560Y407400D03*
X-5220500Y-5996430D03*
X-5114810Y-6103620D03*
X-5367020Y-5422900D03*
X-5260340Y-5445760D03*
X-5265420Y-5699760D03*
X-5176520Y-5811520D03*
X-5367020Y-5646420D03*
X-4973320Y-5346700D03*
X-5315120Y-5129700D03*
X-4632960Y-5478780D03*
X-4176270Y-2628390D03*
X-4152030Y-1990490D03*
X-4023360Y-6870700D03*
X-3667760Y-6586220D03*
X-3900930Y-5514340D03*
X-3949200Y-5134250D03*
X-3886200Y-5126230D03*
X-4055860Y-5304790D03*
X-3740000Y-2658110D03*
X-3659600Y-2145000D03*
X-3778410Y-1568290D03*
X-3984080Y-1443280D03*
Y-1393280D03*
X-3650460Y-1094820D03*
X-3847680Y-1131720D03*
X-3747680D03*
X-3650460Y-989820D03*
Y-884820D03*
X-3977680Y-361720D03*
X-3285620Y-6837680D03*
X-3298660Y-6421590D03*
X-3203740D03*
X-3451860Y-6223000D03*
X-3253080Y-5775820D03*
X-3346210Y-5784030D03*
X-3413300Y-5565600D03*
X-3454400Y-5753100D03*
X-3467100Y-5438140D03*
X-3352800Y-5067300D03*
X-3445510Y-5068570D03*
X-3362960Y-4838700D03*
X-3334020Y-4446000D03*
X-3479800Y-2628900D03*
X-3594100D03*
X-3365500D03*
X-3378200Y-1990490D03*
X-3580000Y-2150000D03*
X-3276420Y-1770200D03*
X-3380000Y-1896510D03*
Y-1840000D03*
X-3287460Y-1618680D03*
X-3312680Y-1126720D03*
X-3222680Y-1036720D03*
X-3324860Y-596900D03*
X-3393080Y-667120D03*
X-3560380Y-872120D03*
X-3225060Y-954660D03*
X-3212360Y-882360D03*
X-3464560Y-594360D03*
Y-739140D03*
X-3319780D03*
X-3322670Y-935070D03*
X-3322680Y-301720D03*
Y-166720D03*
X-3232680D03*
Y-301720D03*
X-3387680Y-406720D03*
Y-351720D03*
X-3360680Y-1720D03*
X-3487680D03*
X-3424180D03*
X-3025000Y-6925000D03*
X-3154680Y-5989170D03*
X-2973070Y-5990590D03*
X-2880000Y-5430000D03*
X-3101850Y-5613910D03*
X-3065000Y-5181600D03*
X-3074770Y-4853100D03*
X-3030000Y-4775000D03*
X-2880000Y-3950000D03*
X-3185000Y-2150000D03*
X-3018540Y-2018510D03*
X-2882200Y-1710600D03*
X-3050000Y-1313270D03*
X-3100000D03*
X-2900000Y-1355000D03*
X-3162680Y-1121720D03*
X-2339340Y-6250940D03*
X-2720000Y-5806440D03*
X-2381180Y-3275400D03*
X-2692400Y-3002280D03*
X-2459360Y-2395400D03*
X-2373600Y-2749580D03*
X-2479040Y-1908550D03*
X-2453640Y-2011680D03*
X-2725000Y-1365000D03*
X-2637680Y-221720D03*
Y-171720D03*
Y-121720D03*
X-2144780Y-6250940D03*
X-2280000Y-4950000D03*
X-2209200Y-3591160D03*
X-2103130Y-3591450D03*
X-2209050Y-3644640D03*
X-2103050Y-3644950D03*
X-2133600Y-2542540D03*
X-1640000Y-4930000D03*
X-1470000Y-3560000D03*
X-1750000Y-3550000D03*
X-1745000Y-2755000D03*
X-1545000Y-2765000D03*
X-1495000D03*
X-1445000D03*
X-1663700Y-2722880D03*
X-1875000Y-1973550D03*
X-1424940Y-5031740D03*
X-1010000Y-4890000D03*
X-1065010D03*
X-1386990Y-4805000D03*
X-1390000Y-3930000D03*
Y-3880000D03*
X-1230000Y-3770000D03*
X-1008380Y-2252980D03*
Y-2189480D03*
X-1021080Y-1678940D03*
X-1082040D03*
X-1145540D03*
X-1020960Y1034180D03*
X-1021080Y1099820D03*
X-570230Y-5888990D03*
X-642620Y-5438140D03*
X-640000Y-5560000D03*
X-571500Y-5435600D03*
X-640000Y-5500000D03*
X-970000Y-5250000D03*
Y-5200000D03*
X-715010Y-5325110D03*
X-950000Y-4490000D03*
X-1000000D03*
X-620000Y-4060000D03*
Y-4010000D03*
X-760000Y-3900000D03*
X-960000Y-3740000D03*
X-873760Y-2252980D03*
X-942340D03*
X-873760Y-2189480D03*
X-942340D03*
X-688340Y-1640840D03*
X-629920Y-1582420D03*
Y-1640840D03*
X-688340Y-1584960D03*
X-610130Y584730D03*
X-822840Y1034180D03*
X-888880D03*
X-954920D03*
X-822960Y1099820D03*
X-889000D03*
X-955040D03*
X-555000Y-6080000D03*
X-497840Y-5433060D03*
X-510540Y-3741420D03*
X-546100Y523240D03*
X-490220Y584200D03*
X-546100D03*
X-88900Y-6414260D03*
X228600Y-6421120D03*
X235150Y-6060970D03*
X27940Y-5866200D03*
X95000D03*
X110000Y-5570000D03*
X-50400Y-5579600D03*
X-400D03*
X49600D03*
X95000Y-5792400D03*
X254000Y-5694680D03*
X251460Y-5509260D03*
Y-5245100D03*
X31460Y-5409260D03*
Y-5299260D03*
X176870Y-5209540D03*
X206400Y-2519020D03*
Y-2265020D03*
Y-2011020D03*
Y-1503020D03*
Y-1757020D03*
Y-1249020D03*
X261450Y-281290D03*
Y-222870D03*
X200490Y-281290D03*
Y-222870D03*
G54D23*
G01X-5350000Y-980000D02*
X-5120000Y-1210000D01*
X-2850000D01*
X-2770000Y-1290000D01*
X-1700000D01*
X-1651000Y-1339000D01*
Y-1659000D01*
G54D14*
X-6670040Y-5735320D03*
X-2990000Y-2240000D03*
X-1440000Y-5790000D03*
G54D24*
G01X-5760720Y-5298440D02*
X-6037580D01*
X-6083300Y-5344160D01*
X-6300700D01*
X-6341340Y-5303520D01*
X-6654800D01*
G01X-5763260Y-5808980D02*
X-5407950D01*
X-5220500Y-5996430D01*
G01X-5046590Y-4548090D02*
X-5096120Y-4498560D01*
Y-4397640D01*
X-5046590Y-4348110D01*
G54D15*
X-6124580Y-5007930D03*
G54D25*
G01X-8724900Y-1877060D02*
X-8956660Y-2108820D01*
Y-3303340D01*
X-8689320Y-3570680D01*
X-8411920D01*
X-8379460Y-3538220D01*
G01X-8476240Y-3334100D02*
X-8501130D01*
X-8671560Y-3163670D01*
Y-2066560D01*
X-8615840Y-2010840D01*
Y-1803240D01*
X-8719820Y-1699260D01*
G01X-8724900Y-1938460D02*
X-8830000Y-2043560D01*
Y-2595000D01*
X-8770000Y-2655000D01*
Y-3240340D01*
X-8476240Y-3534100D01*
G01X-8375440Y-3384100D02*
X-8505640D01*
X-8696960Y-3192780D01*
Y-2031960D01*
X-8648860Y-1983860D01*
Y-1833720D01*
X-8727440Y-1755140D01*
G01X-8730510Y-1646680D02*
X-8720670D01*
X-8572660Y-1794690D01*
Y-2022660D01*
X-8646160Y-2096160D01*
Y-3115910D01*
X-8477970Y-3284100D01*
X-8375440D01*
G01X-8727440Y-1813560D02*
X-8688320Y-1852680D01*
Y-1968320D01*
X-8790000Y-2070000D01*
Y-2575000D01*
X-8730000Y-2635000D01*
Y-3225000D01*
X-8520900Y-3434100D01*
X-8476240D01*
G01X-8356600Y-3045460D02*
X-8408420Y-2993640D01*
Y-2942840D01*
X-8539480Y-2811780D01*
Y-2179480D01*
X-8266650Y-1906650D01*
Y-1597450D01*
X-8215000Y-1545800D01*
G01X-8476240Y-3234100D02*
X-8618220Y-3092120D01*
Y-2123220D01*
X-8537100Y-2042100D01*
Y-1772760D01*
X-8719820Y-1590040D01*
G01X-8417560Y-3045460D02*
X-8437880Y-3025140D01*
Y-2968980D01*
X-8564880Y-2841980D01*
Y-2144880D01*
X-8310000Y-1890000D01*
Y-1555720D01*
X-8250000Y-1495720D01*
X-8249870D01*
G01X-8371840Y-2971800D02*
Y-2918460D01*
X-8514080Y-2776220D01*
Y-2607530D01*
X-8491250Y-2584700D01*
X-8414700D01*
X-8350000Y-2520000D01*
Y-2451420D01*
X-8273580Y-2375000D01*
G01X-5346590Y-2748110D02*
X-5383170Y-2784690D01*
X-5461740D01*
X-5481090Y-2765340D01*
Y-2761880D01*
X-5541350Y-2701620D01*
X-5848380D01*
X-5964280Y-2585720D01*
X-6139180D01*
X-6672580Y-2052320D01*
X-6845300D01*
X-6872620Y-2025000D01*
X-6990000D01*
X-7065000Y-1950000D01*
X-7270200D01*
X-7683500Y-1536700D01*
X-7883300D01*
X-7983770Y-1436230D01*
Y-1376130D01*
X-8204900Y-1155000D01*
X-8533800D01*
X-8725000Y-1346200D01*
G01X-8724900Y-924560D02*
X-8558780Y-1090680D01*
X-8111740D01*
X-7812420Y-1390000D01*
X-7370000D01*
X-7285000Y-1475000D01*
Y-1580000D01*
X-7010860Y-1854140D01*
X-6751380D01*
X-6146800Y-2458720D01*
X-5966280D01*
X-5802700Y-2622300D01*
X-5520940D01*
X-5450180Y-2693060D01*
X-5349910D01*
X-5310010Y-2732960D01*
Y-2971800D01*
X-5330330Y-2992120D01*
X-5364480D01*
X-5383170Y-3010810D01*
Y-3211530D01*
X-5346590Y-3248110D01*
G01X-3546610Y-4448090D02*
X-3600500Y-4394200D01*
X-4455160D01*
X-4564380Y-4503420D01*
Y-4886960D01*
X-4619260Y-4941840D01*
Y-5183460D01*
X-4554220Y-5248500D01*
Y-5504220D01*
X-4597650Y-5547650D01*
X-5405410D01*
X-5547360Y-5689600D01*
X-5945210D01*
X-5945450Y-5689840D01*
X-5975750D01*
X-5975990Y-5689600D01*
X-6324600D01*
X-6487160Y-5527040D01*
X-6741160D01*
X-7231380Y-5036820D01*
X-7366000D01*
X-7589520Y-4813300D01*
X-8249920D01*
X-8290560Y-4772660D01*
G01X-8476240Y-3334100D02*
X-8271860D01*
X-8219440Y-3281680D01*
X-6663340D01*
X-6610000Y-3335020D01*
X-6520180D01*
X-6469380Y-3385820D01*
X-6365820D01*
X-6312480Y-3332480D01*
X-5942480D01*
X-5799180Y-3189180D01*
X-5763330D01*
X-5763320Y-3189170D01*
X-5744820D01*
X-5744810Y-3189180D01*
X-5620470D01*
X-5580260Y-3229390D01*
X-5565310D01*
X-5546590Y-3248110D01*
G01X-8476240Y-3534100D02*
X-8429560Y-3487420D01*
X-6687580D01*
X-6563120Y-3611880D01*
X-6046880D01*
X-5820820Y-3385820D01*
X-5584300D01*
X-5546590Y-3348110D01*
G01X-5346590Y-3448110D02*
X-5383170Y-3484690D01*
X-5687250D01*
X-5725160Y-3446780D01*
X-5826780D01*
X-6022360Y-3642360D01*
X-6792640D01*
X-6896780Y-3538220D01*
X-8379460D01*
G01X-8375440Y-3384100D02*
X-8369450Y-3378110D01*
X-6691890D01*
X-6590200Y-3479800D01*
X-6029800D01*
X-5761530Y-3211530D01*
X-5629730D01*
X-5598150Y-3243110D01*
Y-3261370D01*
X-5557520Y-3302000D01*
X-5492700D01*
X-5446590Y-3348110D01*
G01X-5770480Y-3139440D02*
X-5859780D01*
X-5996940Y-3276600D01*
X-6477000D01*
X-6512560Y-3241040D01*
X-8239760D01*
X-8282820Y-3284100D01*
X-8375440D01*
G01X-8476240Y-3434100D02*
X-6690900D01*
X-6542910Y-3582090D01*
X-6071290D01*
X-5737310Y-3248110D01*
X-5646590D01*
G01X-8194680Y-2890000D02*
X-6966960D01*
X-6875000Y-2981960D01*
X-6540500D01*
X-6461760Y-3060700D01*
G01X-5346590Y-3348110D02*
X-5402860Y-3291840D01*
X-5461000D01*
X-5496560Y-3256280D01*
Y-3241040D01*
X-5530560Y-3207040D01*
X-5571000D01*
X-5623360Y-3154680D01*
X-5696200D01*
X-5748020Y-3102860D01*
X-6036560D01*
X-6118860Y-3185160D01*
X-6469380D01*
X-6522720Y-3131820D01*
X-8194040D01*
X-8296320Y-3234100D01*
X-8476240D01*
G01X-8285000Y-2734310D02*
X-8189310Y-2830000D01*
X-6910900D01*
X-6850380Y-2890520D01*
X-6568440D01*
X-6342380Y-3116580D01*
X-6113780D01*
X-6073140Y-3075940D01*
X-5720080D01*
X-5664200Y-3131820D01*
X-5614610D01*
X-5561740Y-3184690D01*
X-5510010D01*
X-5446590Y-3248110D01*
G01X-8439560Y-2540000D02*
Y-2469560D01*
X-8285000Y-2315000D01*
X-7020000D01*
X-6885000Y-2450000D01*
X-6790000D01*
X-6310000Y-2930000D01*
X-6112900D01*
X-6053720Y-2989180D01*
X-5622160D01*
X-5615510Y-2995840D01*
X-5594520Y-3016830D01*
Y-3016840D01*
X-5587660Y-3023710D01*
Y-3060470D01*
X-5541090Y-3107040D01*
X-5487660D01*
X-5446590Y-3148110D01*
G01X-8416080Y-2387600D02*
X-8253480Y-2225000D01*
X-7060000D01*
X-6950000Y-2335000D01*
X-6835000D01*
X-6285000Y-2885000D01*
X-6027860D01*
X-5964750Y-2948110D01*
X-5646590D01*
G01X-8085000Y-2684100D02*
X-8034100Y-2735000D01*
X-6905000D01*
X-6860000Y-2780000D01*
X-6612920D01*
X-6372860Y-3020060D01*
X-6121400D01*
X-6093350Y-3048110D01*
X-5699650D01*
X-5648960Y-3098800D01*
X-5595900D01*
X-5546590Y-3148110D01*
G01X-8476100Y-2621280D02*
X-6918720D01*
X-6855000Y-2685000D01*
X-6635000D01*
X-6345000Y-2975000D01*
X-6123280D01*
X-6080760Y-3017520D01*
X-5677180D01*
X-5646590Y-3048110D01*
G01X-5546590D02*
X-5560860Y-3033840D01*
Y-3018910D01*
X-5572170Y-3007590D01*
Y-3007570D01*
X-5585380Y-2994340D01*
X-5603240Y-2976480D01*
Y-2939730D01*
X-5631440Y-2911530D01*
X-5942910D01*
X-6014440Y-2840000D01*
X-6270000D01*
X-6820000Y-2290000D01*
X-6935000D01*
X-7035000Y-2190000D01*
X-8275000D01*
X-8350000Y-2265000D01*
G01X-8215000Y-1545800D02*
X-8210340D01*
X-8081140Y-1675000D01*
X-7885000D01*
X-7401000Y-2159000D01*
X-6891020D01*
X-6255020Y-2795000D01*
X-6011180D01*
X-5917000Y-2889180D01*
X-5605520D01*
X-5546590Y-2948110D01*
G01X-5646590Y-2848110D02*
X-5896890D01*
X-5990000Y-2755000D01*
X-6160400D01*
X-6765300Y-2150100D01*
X-6854200D01*
X-6893560Y-2110740D01*
X-7282180D01*
X-7762920Y-1630000D01*
X-8034700D01*
X-8168980Y-1495720D01*
X-8249870D01*
G01X-5346590Y-2848110D02*
X-5385460Y-2809240D01*
X-5502120D01*
X-5522180Y-2789180D01*
X-5820820D01*
X-5985000Y-2625000D01*
X-6148160D01*
X-6672580Y-2100580D01*
X-6847840D01*
X-6885940Y-2062480D01*
X-7244080D01*
X-7726560Y-1580000D01*
X-7990000D01*
X-8124810Y-1445190D01*
Y-1320990D01*
X-8250000Y-1195800D01*
X-8255000D01*
G01X-8384540Y-792480D02*
X-8445000Y-852940D01*
Y-970000D01*
X-8400000Y-1015000D01*
X-8286480D01*
X-8244840Y-1056640D01*
X-8078360D01*
X-7800000Y-1335000D01*
X-7330000D01*
X-7180000Y-1485000D01*
Y-1633800D01*
X-6992620Y-1821180D01*
X-6728460D01*
X-6134830Y-2414810D01*
X-5935190D01*
X-5838340Y-2511660D01*
X-5476640D01*
X-5287660Y-2700640D01*
Y-2907040D01*
X-5246590Y-2948110D01*
G01X-8145000Y-1145800D02*
Y-1146320D01*
X-7856320Y-1435000D01*
X-7495000D01*
X-6984360Y-1945640D01*
X-6728460D01*
X-6174740Y-2499360D01*
X-5985640D01*
X-5825620Y-2659380D01*
X-5535320D01*
X-5446590Y-2748110D01*
G01X-8335000Y-845820D02*
X-8160820Y-1020000D01*
X-8050000D01*
X-7880000Y-1190000D01*
X-7405000D01*
X-7135000Y-1460000D01*
Y-1607460D01*
X-6955000Y-1787460D01*
X-6703760D01*
X-6108700Y-2382520D01*
X-5902480D01*
X-5858340Y-2426660D01*
X-5516310D01*
X-5210010Y-2732960D01*
Y-3073870D01*
X-5232400Y-3096260D01*
X-5294740D01*
X-5346590Y-3148110D01*
G01X-3746610Y-4248090D02*
X-3796200Y-4297680D01*
X-4432680D01*
X-4602480Y-4467480D01*
Y-4853940D01*
X-4648200Y-4899660D01*
Y-5211800D01*
X-4582160Y-5277840D01*
Y-5487160D01*
X-4616960Y-5521960D01*
X-5453380D01*
X-5516420Y-5585000D01*
X-6190440D01*
X-6357620Y-5417820D01*
X-6791300D01*
X-7322820Y-4886300D01*
G01X-6839020Y-1495800D02*
X-6524200D01*
X-5955000Y-2065000D01*
X-5697240D01*
X-5083170Y-2679070D01*
Y-2811530D01*
X-5046590Y-2848110D01*
G01X-6839020Y-1695800D02*
X-6726840D01*
X-6092200Y-2330440D01*
X-5541020D01*
X-5187660Y-2683800D01*
Y-2958770D01*
X-5161740Y-2984690D01*
X-5110010D01*
X-5046590Y-3048110D01*
G01Y-2748110D02*
Y-2538410D01*
X-5100880Y-2484120D01*
X-5185880D01*
X-5390000Y-2280000D01*
Y-2214760D01*
X-5778500Y-1826260D01*
X-5898740D01*
X-6135000Y-1590000D01*
X-6345000D01*
X-6539200Y-1395800D01*
X-6839020D01*
G01X-6837680Y-1295400D02*
X-6777350Y-1355730D01*
X-6515730D01*
X-6303810Y-1567650D01*
X-6113310D01*
X-5941060Y-1739900D01*
X-5735320D01*
X-5608320Y-1866900D01*
Y-1921680D01*
X-5172880Y-2357120D01*
X-5110480D01*
X-5005520Y-2462080D01*
Y-2989180D01*
X-4946590Y-3048110D01*
G01X-4646590Y-2748110D02*
Y-1803410D01*
X-5309540Y-1140460D01*
X-6032790D01*
X-6309650Y-863600D01*
X-6763600D01*
X-6820000Y-920000D01*
G01X-5446590Y-3048110D02*
X-5499100Y-2995600D01*
Y-2843870D01*
X-5531440Y-2811530D01*
X-5868470D01*
X-6010000Y-2670000D01*
X-6166660D01*
X-6390640Y-2446020D01*
G01X-6510000Y-1595800D02*
Y-1675000D01*
X-5895190Y-2289810D01*
X-5526170D01*
X-5105520Y-2710460D01*
Y-2889180D01*
X-5046590Y-2948110D01*
G01X-6466840Y-1045800D02*
X-6425180Y-1087460D01*
Y-1210060D01*
X-6295240Y-1340000D01*
X-6040000D01*
X-5939820Y-1440180D01*
X-5659820D01*
X-4958080Y-2141920D01*
Y-2331720D01*
X-4910010Y-2379790D01*
Y-2811530D01*
X-4946590Y-2848110D01*
G01X-4746590Y-2748110D02*
Y-2324770D01*
X-4831080Y-2240280D01*
Y-1945640D01*
X-5151120Y-1625600D01*
Y-1478280D01*
X-5406600Y-1222800D01*
X-6204160D01*
X-6309360Y-1117600D01*
Y-1064500D01*
X-6378060Y-995800D01*
G01X-4746590Y-2848110D02*
X-4785360Y-2809340D01*
Y-2577720D01*
X-4785350Y-2577710D01*
Y-2559190D01*
X-4785360Y-2559180D01*
Y-2354580D01*
X-4876800Y-2263140D01*
Y-2100580D01*
X-5087620Y-1889760D01*
Y-1775460D01*
X-5496560Y-1366520D01*
X-5883480D01*
X-5990000Y-1260000D01*
X-6219170D01*
X-6378060Y-1101110D01*
Y-1095800D01*
G01X-6466840Y-1145800D02*
Y-1244600D01*
X-6324600Y-1386840D01*
X-6043160D01*
X-5565140Y-1864860D01*
Y-1904860D01*
X-5155550Y-2314450D01*
X-5105550D01*
X-4983170Y-2436830D01*
Y-2911530D01*
X-4946590Y-2948110D01*
G01X-6378060Y-1195800D02*
X-6273860Y-1300000D01*
X-6020000D01*
X-5912840Y-1407160D01*
X-5527840D01*
X-5130000Y-1805000D01*
Y-1910000D01*
X-4920000Y-2120000D01*
Y-2301220D01*
X-4807710Y-2413510D01*
Y-2886990D01*
X-4746590Y-2948110D01*
G01X-6466840Y-945800D02*
X-6369150D01*
X-6263640Y-1051310D01*
Y-1112520D01*
X-6186160Y-1190000D01*
X-5370820D01*
X-4798060Y-1762760D01*
Y-2197100D01*
X-4710010Y-2285150D01*
Y-2963260D01*
X-4749030Y-3002280D01*
X-4800760D01*
X-4846590Y-3048110D01*
G01X-5780520Y-5767320D02*
X-5780550Y-5767350D01*
G01X-5745970D02*
X-5746000Y-5767320D01*
G01X-5246590Y-4348090D02*
X-5193640Y-4295140D01*
X-5049520D01*
X-4993640Y-4239260D01*
Y-3136900D01*
X-4955540Y-3098800D01*
X-4587240D01*
X-4490720Y-3002280D01*
Y-2415540D01*
X-4328160Y-2252980D01*
X-3183120D01*
X-3025140Y-2095000D01*
X-2100000D01*
X-2037000Y-2032000D01*
X12760D01*
X99460Y-2118700D01*
Y-2318540D01*
X7000Y-2411000D01*
G01X-4658360Y-5930900D02*
X-4526280Y-5798820D01*
Y-5146280D01*
X-4500880Y-5120880D01*
Y-4988560D01*
X-4523740Y-4965700D01*
Y-4625220D01*
X-4446610Y-4548090D01*
G01X-4746590Y-4748090D02*
X-4785360Y-4786860D01*
Y-4874260D01*
X-4749800Y-4909820D01*
Y-5151120D01*
X-4785360Y-5186680D01*
G01X-4851400Y-5334000D02*
X-4709160Y-5191760D01*
Y-4685520D01*
X-4746590Y-4648090D01*
G01X7000Y-1649000D02*
X130000Y-1772000D01*
Y-2684320D01*
X25400Y-2788920D01*
X-373380D01*
X-472440Y-2689860D01*
X-1300480D01*
X-1323340Y-2667000D01*
X-3190240D01*
X-3416300Y-2893060D01*
X-3756660D01*
X-3783190Y-2919590D01*
Y-3223190D01*
X-3867080Y-3307080D01*
X-4511040D01*
X-4686300Y-3482340D01*
Y-4508380D01*
X-4646590Y-4548090D01*
G01X-4946590D02*
X-4899660Y-4501160D01*
Y-3238500D01*
X-4859020Y-3197860D01*
X-3939540D01*
X-3901440Y-3159760D01*
Y-2686440D01*
X-3676260Y-2461260D01*
X-2202180D01*
X-2136140Y-2395220D01*
X-444500D01*
X-345440Y-2296160D01*
X-132160D01*
X7000Y-2157000D01*
G01Y-2665000D02*
X-92600Y-2565400D01*
X-1292860D01*
X-1318260Y-2590800D01*
X-2707640D01*
X-2727960Y-2570480D01*
X-3725480D01*
X-3810000Y-2655000D01*
Y-3167380D01*
X-3927350Y-3284730D01*
X-4676650D01*
X-4792980Y-3401060D01*
Y-4494480D01*
X-4846590Y-4548090D01*
G01X-4218940Y-5096670D02*
X-4290060Y-5025550D01*
Y-4691540D01*
X-4246610Y-4648090D01*
G01Y-4748090D02*
X-4193540Y-4801160D01*
Y-5049730D01*
X-4193470Y-5049800D01*
G01X-4146610Y-4748090D02*
X-4109720Y-4784980D01*
Y-5034280D01*
X-4042160Y-5101840D01*
X-4041480D01*
X-4009640Y-5133680D01*
Y-5134360D01*
X-3962400Y-5181600D01*
X-3467100D01*
X-3352800Y-5067300D01*
G01X-2339340Y-6250940D02*
X-2905760Y-5684520D01*
X-3116580D01*
X-3444250Y-5356850D01*
X-3850650D01*
X-3990340Y-5217160D01*
X-4193540D01*
X-4346610Y-5064090D01*
Y-4848090D01*
G01X-4446610Y-2848110D02*
X-4396740Y-2798240D01*
Y-2696740D01*
X-4340000Y-2640000D01*
Y-2636920D01*
G01X-4048760Y-2618740D02*
Y-2693760D01*
X-4146610Y-2791610D01*
Y-2948110D01*
G01X-4185920Y-2298700D02*
X-4130000Y-2354620D01*
Y-2675000D01*
X-4198620Y-2743620D01*
Y-2996100D01*
X-4146610Y-3048110D01*
G01X7000Y-2919000D02*
X-114300Y-3040300D01*
Y-3505200D01*
X-388620Y-3779520D01*
Y-6096000D01*
X-525780Y-6233160D01*
Y-6967220D01*
X-698500Y-7139940D01*
X-3901440D01*
X-4053840Y-7292340D01*
G01X-4046610Y-4548090D02*
X-4084320Y-4585800D01*
Y-4999130D01*
X-3949200Y-5134250D01*
G01X-3946610Y-4748090D02*
X-3943790D01*
X-3898900Y-4792980D01*
Y-4963160D01*
X-3845560Y-5016500D01*
X-3274060D01*
X-3108960Y-5181600D01*
X-3065000D01*
G01X-4046610Y-4848090D02*
X-3997960Y-4896740D01*
Y-4984790D01*
X-3934460Y-5048290D01*
G01X-3846610Y-4948090D02*
X-3808680Y-4986020D01*
X-3233420D01*
X-3111500Y-5107940D01*
X-3048000D01*
X-3025140Y-5085080D01*
Y-4991100D01*
X-3063240Y-4953000D01*
G01Y-5067300D02*
X-3245870Y-4884670D01*
X-3769110D01*
X-3797300Y-4856480D01*
Y-4797400D01*
X-3846610Y-4748090D01*
G01X-3362960Y-4947920D02*
X-3399370Y-4911510D01*
X-3783190D01*
X-3846610Y-4848090D01*
G01X-3746610Y-3748110D02*
Y-3843390D01*
X-3690000Y-3900000D01*
Y-3960000D01*
X-3645000Y-4005000D01*
X-3401640D01*
X-3291840Y-4114800D01*
G01X-3746610Y-3948090D02*
Y-3982610D01*
X-3700000Y-4029220D01*
Y-4055000D01*
X-3665000Y-4090000D01*
X-3410000D01*
X-3345000Y-4155000D01*
Y-4239440D01*
X-3291840Y-4292600D01*
G01Y-3937000D02*
X-3431540Y-3797300D01*
X-3652700D01*
X-3695000Y-3755000D01*
Y-3699720D01*
X-3746610Y-3648110D01*
G01Y-3348110D02*
X-3704720Y-3390000D01*
X-3425560D01*
X-3350260Y-3314700D01*
G01X-3312540Y-3047620D02*
X-3616960Y-3195000D01*
X-3655000D01*
X-3695000Y-3235000D01*
Y-3260000D01*
X-3734460Y-3299460D01*
X-3797960D01*
X-3846610Y-3348110D01*
G01Y-3548110D02*
X-3787370Y-3607350D01*
X-3402650D01*
X-3365000Y-3645000D01*
Y-3686040D01*
X-3291840Y-3759200D01*
G01X-3946610Y-2848110D02*
Y-2488650D01*
X-3810000Y-2352040D01*
G01X-4046610Y-2948110D02*
Y-2783840D01*
X-4000500Y-2737730D01*
Y-2453640D01*
X-3903980Y-2357120D01*
G01X-3746610Y-2848110D02*
X-3598500Y-2700000D01*
X-3550900D01*
X-3479800Y-2628900D01*
G01X-3594100D02*
X-3627400D01*
X-3746610Y-2748110D01*
G01X-3546610Y-4548090D02*
X-3497300Y-4597400D01*
X-3330470D01*
X-3074770Y-4853100D01*
G01X-3362960Y-4838700D02*
Y-4775200D01*
X-3444240Y-4693920D01*
X-3500780D01*
X-3546610Y-4648090D01*
G01X-3646610Y-4448090D02*
X-3601440Y-4493260D01*
X-3373120D01*
X-2636520Y-5229860D01*
Y-5759200D01*
X-2144780Y-6250940D01*
G01X-1982700Y-5097200D02*
X-2175160Y-4904740D01*
X-2541110D01*
X-2553300Y-4892550D01*
Y-4868170D01*
X-2541110Y-4855980D01*
X-2374390D01*
X-2362200Y-4843790D01*
Y-4819410D01*
X-2374390Y-4807220D01*
X-2589870D01*
X-2602060Y-4819410D01*
Y-4892550D01*
X-2614250Y-4904740D01*
X-2644140D01*
X-2870200Y-4678680D01*
X-2971800D01*
X-3220720Y-4429760D01*
Y-3007360D01*
X-3083560Y-2870200D01*
G01X-3646610Y-3648110D02*
X-3609720Y-3685000D01*
X-3457990D01*
X-3410030Y-3732960D01*
Y-3733070D01*
X-3295000Y-3848100D01*
G01X-3383280Y-3403600D02*
X-3265920D01*
X-3257060Y-3412460D01*
Y-3437460D01*
X-3267710Y-3448110D01*
X-3546610D01*
G01X-3291840Y-3670300D02*
Y-3648160D01*
X-3355000Y-3585000D01*
X-3609720D01*
X-3646610Y-3548110D01*
G01X-3291840Y-3225800D02*
X-3390900D01*
X-3472180Y-3307080D01*
X-3605580D01*
X-3646610Y-3348110D01*
G01X-3546610Y-3548110D02*
X-3503500Y-3505000D01*
X-3368240D01*
X-3291840Y-3581400D01*
G01X-3324860Y-2870200D02*
X-3330200D01*
X-3497580Y-3037580D01*
Y-3055620D01*
X-3590070Y-3148110D01*
X-3646610D01*
G01X-3025140Y-3294380D02*
X-3145000Y-3414240D01*
Y-4342920D01*
X-2942920Y-4545000D01*
X-2818460D01*
X-2778760Y-4584700D01*
X-2756480D01*
X-2743200Y-4571420D01*
Y-4480560D01*
X-2727960Y-4465320D01*
X-2694940D01*
X-2679700Y-4480560D01*
Y-4609520D01*
X-2649220Y-4640000D01*
X-2370400D01*
X-2321560Y-4688840D01*
G01X-1958100Y-4729820D02*
X-2694600D01*
X-2829420Y-4595000D01*
X-2931020D01*
X-3169920Y-4356100D01*
Y-3317240D01*
X-3078480Y-3225800D01*
G01X-555000Y-6080000D02*
X-739660Y-5895340D01*
X-1658620D01*
X-2052320Y-5501640D01*
Y-5415280D01*
X-2489200Y-4978400D01*
X-2641600D01*
X-2895000Y-4725000D01*
G01X-3070860Y-3172460D02*
X-3081020D01*
X-3195320Y-3286760D01*
Y-4414520D01*
X-2964840Y-4645000D01*
X-2848000D01*
X-2725420Y-4767580D01*
X-2308860D01*
X-2213610Y-4862830D01*
X-2182620D01*
G01X-3070000Y-4045000D02*
X-3079500Y-4054500D01*
Y-4330500D01*
X-3025000Y-4385000D01*
X-2792590D01*
X-2780400Y-4372810D01*
Y-4337810D01*
X-2768210Y-4325620D01*
X-2743830D01*
X-2731640Y-4337810D01*
Y-4372810D01*
X-2719450Y-4385000D01*
X-2695070D01*
X-2682880Y-4372810D01*
Y-4340350D01*
X-2670690Y-4328160D01*
X-2646310D01*
X-2634120Y-4340350D01*
Y-4372810D01*
X-2621930Y-4385000D01*
X-2597550D01*
X-2585360Y-4372810D01*
Y-4340350D01*
X-2573170Y-4328160D01*
X-2548790D01*
X-2536600Y-4340350D01*
Y-4372810D01*
X-2524410Y-4385000D01*
X-2373320D01*
X-2276100Y-4287780D01*
X-2087620D01*
X-1948180Y-4427220D01*
Y-4490720D01*
X-1905000Y-4533900D01*
X-1673860D01*
X-1645000Y-4505040D01*
Y-4470000D01*
G01X-2267180Y-3964940D02*
X-2354580D01*
X-2367280Y-3977640D01*
Y-4077210D01*
X-2379470Y-4089400D01*
X-2407920D01*
X-2418080Y-4079240D01*
Y-3947160D01*
X-2430780Y-3934460D01*
X-2456180D01*
X-2466340Y-3944620D01*
Y-4076700D01*
X-2479040Y-4089400D01*
X-2506980D01*
X-2519680Y-4076700D01*
Y-3959860D01*
X-2534920Y-3944620D01*
X-2565400D01*
X-2580640Y-3959860D01*
Y-4102100D01*
X-2611120Y-4132580D01*
X-2871230D01*
X-2880880Y-4122930D01*
Y-4098550D01*
X-2866150Y-4083820D01*
X-2656330D01*
X-2644140Y-4071630D01*
Y-4047250D01*
X-2656330Y-4035060D01*
X-2879360D01*
X-2918460Y-4074160D01*
Y-4089400D01*
X-2941320Y-4112260D01*
X-3027680D01*
X-3045460Y-4130040D01*
Y-4188460D01*
X-3030220Y-4203700D01*
X-2966300D01*
X-2940000Y-4230000D01*
G01X-3075000Y-3805000D02*
X-3112520Y-3842520D01*
Y-4337480D01*
X-3030000Y-4420000D01*
X-2468820D01*
X-2456630Y-4432190D01*
Y-4491230D01*
X-2444440Y-4503420D01*
X-2420060D01*
X-2407870Y-4491230D01*
Y-4432190D01*
X-2395680Y-4420000D01*
X-2215640D01*
X-2203450Y-4407810D01*
Y-4335270D01*
X-2191260Y-4323080D01*
X-2166880D01*
X-2154690Y-4335270D01*
Y-4526390D01*
X-2142100Y-4538980D01*
X-2120900D01*
X-2108200Y-4526280D01*
Y-4365750D01*
X-2098550Y-4356100D01*
X-2069590D01*
X-2057400Y-4368290D01*
Y-4445000D01*
X-2042080Y-4460320D01*
X-1988580D01*
G01X-2239240Y-4069080D02*
X-2059940D01*
X-2044200Y-4084820D01*
Y-4236190D01*
X-2056390Y-4248380D01*
X-2080770D01*
X-2092960Y-4236190D01*
Y-4120380D01*
X-2105150Y-4108190D01*
X-2129530D01*
X-2141720Y-4120380D01*
Y-4233650D01*
X-2153910Y-4245840D01*
X-2178290D01*
X-2190480Y-4233650D01*
Y-4125460D01*
X-2202670Y-4113270D01*
X-2227050D01*
X-2239240Y-4125460D01*
Y-4197580D01*
X-2334260Y-4292600D01*
X-2811780D01*
X-2827020Y-4307840D01*
Y-4343400D01*
X-2837180Y-4353560D01*
X-2855470D01*
X-2867660Y-4341370D01*
Y-4305300D01*
X-2880360Y-4292600D01*
X-2900680D01*
X-2913380Y-4305300D01*
Y-4341370D01*
X-2925570Y-4353560D01*
X-2946910D01*
X-2959100Y-4341370D01*
Y-4307840D01*
X-2974340Y-4292600D01*
X-3042920D01*
G01X-1988580Y-4019430D02*
X-2246510D01*
X-2298700Y-4071620D01*
Y-4208780D01*
X-2356500Y-4266580D01*
X-2852330D01*
X-2864520Y-4254390D01*
Y-4230010D01*
X-2852330Y-4217820D01*
X-2378340D01*
X-2366150Y-4205630D01*
Y-4181250D01*
X-2378340Y-4169060D01*
X-2888900D01*
X-2903220Y-4183380D01*
Y-4248800D01*
X-2921000Y-4266580D01*
X-2985120D01*
X-2997200Y-4254500D01*
G01X-1909040Y-4013200D02*
Y-3988840D01*
X-2006600Y-3891280D01*
X-2105660D01*
X-2243520Y-3753420D01*
X-2304480D01*
X-2456180Y-3601720D01*
X-2910340D01*
X-2922530Y-3589530D01*
Y-3565150D01*
X-2910340Y-3552960D01*
X-2794620D01*
X-2782430Y-3540770D01*
Y-3516390D01*
X-2794620Y-3504200D01*
X-2914920D01*
X-2959100Y-3548380D01*
Y-3604260D01*
X-3065780Y-3710940D01*
X-3103880D01*
X-3116580Y-3723640D01*
Y-3751580D01*
X-3106420Y-3761740D01*
X-3027680D01*
X-3004820Y-3784600D01*
Y-3835400D01*
X-3020060Y-3850640D01*
X-3055620D01*
X-3070010Y-3865030D01*
X-3070000Y-3876900D01*
Y-3937000D01*
G01X-1929030Y-4099680D02*
Y-4141570D01*
X-1917700Y-4152900D01*
X-1856740D01*
X-1845030Y-4141190D01*
Y-4073170D01*
X-1866900Y-4051300D01*
X-1930380D01*
X-1945620Y-4036060D01*
Y-3995440D01*
X-2006600Y-3934460D01*
X-2120900D01*
X-2227580Y-3827780D01*
X-2496820D01*
X-2512060Y-3812540D01*
Y-3756660D01*
X-2496820Y-3741420D01*
X-2433320D01*
X-2420620Y-3728720D01*
Y-3683000D01*
X-2438400Y-3665220D01*
X-2552700D01*
X-2567940Y-3680460D01*
Y-3746500D01*
X-2580640Y-3759200D01*
X-2912880D01*
X-2922530Y-3749550D01*
Y-3725170D01*
X-2907800Y-3710440D01*
X-2714750D01*
X-2702560Y-3698250D01*
Y-3673870D01*
X-2714750Y-3661680D01*
X-2950480D01*
X-2971800Y-3683000D01*
Y-3759200D01*
G01X-2950000Y-4055000D02*
X-3008740D01*
X-3030220Y-4033520D01*
Y-3959860D01*
X-2975400Y-3905040D01*
Y-3818680D01*
X-2961640Y-3804920D01*
X-2929130D01*
X-2916940Y-3817110D01*
Y-3912620D01*
X-2933700Y-3929380D01*
Y-3980180D01*
X-2913920Y-3999960D01*
X-2691470D01*
X-2679280Y-3987770D01*
Y-3963390D01*
X-2691470Y-3951200D01*
X-2810750D01*
X-2822940Y-3939010D01*
Y-3914630D01*
X-2810750Y-3902440D01*
X-2566920D01*
X-2557270Y-3892790D01*
Y-3868410D01*
X-2572000Y-3853680D01*
X-2830590D01*
X-2842780Y-3841490D01*
Y-3817110D01*
X-2830590Y-3804920D01*
X-2570480D01*
X-2473820Y-3901580D01*
X-2379850D01*
X-2379710Y-3901440D01*
X-2236700D01*
G01X-3024490Y-3403600D02*
X-2857500D01*
X-2705100Y-3556000D01*
X-2458720D01*
X-2296660Y-3718060D01*
X-2230620D01*
X-2103120Y-3845560D01*
X-2014220D01*
X-1772920Y-4086860D01*
Y-4333240D01*
X-1790700Y-4351020D01*
X-1824230D01*
X-1838960Y-4365750D01*
Y-4394710D01*
X-1826770Y-4406900D01*
X-1744470D01*
X-1732280Y-4419090D01*
Y-4450080D01*
X-1746860Y-4464660D01*
X-1910000D01*
G01X-2969260Y-3154680D02*
X-2260070Y-3662570D01*
X-2235440Y-3680510D01*
X-1969780Y-3841740D01*
X-1752600Y-4058920D01*
X-1695340Y-4202930D01*
X-1608420Y-4421540D01*
Y-4568420D01*
X-1630000Y-4590000D01*
G01X-2954020Y-2954020D02*
X-2740660Y-3167380D01*
X-2611120D01*
X-2352040Y-3426460D01*
X-2148840D01*
X-1930400Y-3644900D01*
Y-3779520D01*
X-1501140Y-4208780D01*
Y-4495800D01*
X-1480820Y-4516120D01*
Y-4566920D01*
X-1506220Y-4592320D01*
Y-4683760D01*
X-1694180Y-4871720D01*
X-1771720D01*
X-1910000Y-5010000D01*
G01X-1605280Y-5139480D02*
X-1599480D01*
X-1513840Y-5053840D01*
Y-4836160D01*
X-1374140Y-4696460D01*
Y-4117340D01*
X-2670030Y-2821450D01*
X-3061890D01*
G01X-1960000Y-5045000D02*
Y-4924180D01*
X-1856740Y-4820920D01*
X-1691640D01*
X-1628140Y-4757420D01*
Y-4726940D01*
X-1648460Y-4706620D01*
X-1833880D01*
X-1849400Y-4691100D01*
Y-4668800D01*
X-1836420Y-4655820D01*
X-1592580D01*
X-1559560Y-4622800D01*
Y-4518660D01*
X-1529080Y-4488180D01*
Y-4234180D01*
X-2016760Y-3746500D01*
X-2062480D01*
X-2156460Y-3652520D01*
Y-3573780D01*
X-2247900Y-3482340D01*
X-2387600D01*
X-2641600Y-3228340D01*
X-2781300D01*
X-2961640Y-3048000D01*
G01X-1570000Y-5050000D02*
Y-4841520D01*
X-1402080Y-4673600D01*
Y-4132580D01*
X-2446020Y-3088640D01*
X-2743200D01*
X-2851220Y-2980620D01*
Y-2965940D01*
X-2833960Y-2948680D01*
X-2816730D01*
X-2775830Y-2989580D01*
X-2763520D01*
X-2741540Y-2967600D01*
Y-2952360D01*
X-2783900Y-2910000D01*
X-3015000D01*
G01X-2171700Y-1920240D02*
X-1300480D01*
X-1160780Y-1780540D01*
X-115460D01*
X7000Y-1903000D01*
G01X-208280Y-5910580D02*
X-309880Y-5808980D01*
Y-3756660D01*
X160000Y-3286780D01*
Y-1548000D01*
X7000Y-1395000D01*
G54D16*
X-3585630Y-6918210D03*
X-3145630D03*
X-350130Y74640D03*
Y514640D03*
G54D17*
X-3570000Y-5860000D03*
Y-5660000D03*
G54D18*
X-830580Y-6116320D03*
G54D19*
Y-6715760D03*
M02*
