G04 ================== begin FILE IDENTIFICATION RECORD ==================*
G04 Layout Name:  STANDARD.brd*
G04 Film Name:    7-VCC*
G04 File Format:  Gerber RS274X*
G04 File Origin:  Cadence Allegro 16.6-P004*
G04 Origin Date:  Thu Sep 18 09:56:34 2014*
G04 *
G04 Layer:  VIA CLASS/7-VCC*
G04 Layer:  PIN/7-VCC*
G04 Layer:  ETCH/7-VCC*
G04 Layer:  BOARD GEOMETRY/OUTLINE*
G04 *
G04 Offset:    (0.0000 0.0000)*
G04 Mirror:    No*
G04 Mode:      Positive*
G04 Rotation:  0*
G04 FullContactRelief:  No*
G04 UndefLineWidth:     0.1000*
G04 ================== end FILE IDENTIFICATION RECORD ====================*
%FSLAX25Y25*MOMM*%
%IR0*IPPOS*OFA0.00000B0.00000*MIA0B0*SFA1.00000B1.00000*%
%ADD15C,.8*%
%ADD16C,.9*%
%ADD13C,.508*%
%ADD10C,.4064*%
%ADD11C,.762*%
%ADD17C,1.4*%
%ADD14C,1.016*%
%ADD12C,1.27*%
%ADD21C,1.524*%
%ADD20O,1.778X3.81*%
%ADD19O,3.81X1.778*%
%ADD18O,4.572X1.778*%
%ADD22C,.1*%
%ADD25C,.9084*%
%ADD23C,.8068*%
%ADD28C,2.0044*%
%ADD26C,2.1124*%
%ADD24C,1.1624*%
%ADD29C,1.7424*%
%ADD30C,1.8804*%
%ADD32O,4.2904X2.2584*%
%ADD31O,2.2584X4.2904*%
%ADD27C,1.4964*%
G75*
%LPD*%
G75*
G36*
G01X-4538170Y230330D02*
X-4688840Y381000D01*
X-5611410D01*
G02X-5621120Y394130I5J10159D01*
G03X-5708000I-43440J13270D01*
G02X-5717710Y381000I-9715J-2971D01*
G01X-6199520D01*
G02X-6209360Y393710I-5J10160D01*
G03X-6271260Y437100I-39042J10151D01*
G03X-6333160Y393710I-22858J-33239D01*
G02X-6343000Y381000I-9835J-2550D01*
G01X-6784340D01*
X-6924040Y241300D01*
Y-269240D01*
X-7086600Y-431800D01*
X-8606790D01*
X-8665210Y-490220D01*
Y-1498640D01*
X-8669040Y-1502470D01*
Y-3599730D01*
X-8555650Y-3713120D01*
X-8555080D01*
X-8542020Y-3726180D01*
X-7564120D01*
X-7528560Y-3761740D01*
Y-4734560D01*
X-7359040Y-4904080D01*
X-7358680Y-4904790D01*
G03X-7341310Y-4922160I35860J18490D01*
G01X-7340600Y-4922520D01*
X-7073900Y-5189220D01*
Y-5849620D01*
X-7096760Y-5872480D01*
X-7617160D01*
X-7617860Y-5868220D01*
G03X-7625440Y-5850440I-39819J-6470D01*
G03X-7680960Y-5793520I-32658J23683D01*
G03X-7736050Y-5851030I-22867J-33236D01*
G03X-7743200Y-5868220I32665J-23669D01*
G01X-7743900Y-5872480D01*
X-9029700D01*
Y1188720D01*
X-3586480D01*
Y-518160D01*
X-3726180Y-657860D01*
X-4259580D01*
X-4290060Y-627380D01*
Y-17780D01*
X-4455970Y148130D01*
X-4452370Y151730D01*
X-4452360Y151740D01*
G03X-4451170Y152960I-41007J41189D01*
G02X-4443810I3680J-3501D01*
G03X-4440680Y236170I42090J40081D01*
G02X-4454300I-6810J7538D01*
G03X-4534560Y233940I-38963J-43129D01*
G01X-4534570Y233930D01*
X-4538170Y230330D01*
G37*
G36*
G01X-6436160Y-5529980D02*
X-6568840Y-5397300D01*
Y-5137400D01*
G02X-6554090Y-5128340I10158J-1D01*
G03Y-5024660I26290J51840D01*
G02X-6568840Y-5015600I-4592J9061D01*
G01Y-4221280D01*
X-6619040Y-4171080D01*
X-7127040D01*
X-7206380Y-4091740D01*
Y-3812740D01*
X-7121960Y-3728320D01*
X-6804460D01*
X-6740000Y-3663860D01*
Y-3234640D01*
X-6759640Y-3215000D01*
X-7420360D01*
X-7525620Y-3320260D01*
Y-3675000D01*
X-8539860D01*
X-8630920Y-3583940D01*
Y-1518260D01*
X-8582660Y-1470000D01*
X-8297910D01*
G02X-8288250Y-1483290I-4J-10159D01*
G03X-8258910Y-1535030I38378J-12426D01*
G02X-8255010Y-1540640I-1138J-4952D01*
G03X-8205960Y-1506490I40007J-5163D01*
G02X-8209860Y-1500880I1138J4952D01*
G03X-8211490Y-1483290I-40010J5163D01*
G02X-8201830Y-1470000I9664J3131D01*
G01X-6965020D01*
G03X-6957900Y-1478690I38424J24220D01*
G03X-6885270Y-1532020I32904J-31311D01*
G02X-6869560Y-1529420I8885J-4924D01*
G03X-6795440Y-1483020I30536J33621D01*
G02X-6785690Y-1470000I9751J2859D01*
G01X-4653740D01*
X-4503620Y-1620120D01*
X-3333080D01*
X-3332500Y-1624540D01*
G03X-3242420I45040J5860D01*
G01X-3241840Y-1620120D01*
X-3227940D01*
Y-1729940D01*
G02X-3245100Y-1737300I-10158J0D01*
G03Y-1803100I-31320J-32900D01*
G02X-3227940Y-1810460I7002J-7360D01*
G01Y-1872420D01*
X-3165360Y-1935000D01*
X-2515960D01*
G03X-2442120I36920J26450D01*
G01X-2209380D01*
X-2207990Y-1937860D01*
G03X-2135410I36290J17620D01*
G01X-2134020Y-1935000D01*
X-1922780D01*
G02X-1914050Y-1950350I-3J-10159D01*
G03X-1835950I39050J-23200D01*
G02X-1827220Y-1935000I8733J5191D01*
G01X-341970D01*
G03X-264210Y-2001730I94972J31999D01*
G01X-260000Y-2002470D01*
Y-2057530D01*
X-264210Y-2058270D01*
G03Y-2255730I17210J-98730D01*
G01X-260000Y-2256470D01*
Y-2311530D01*
X-264210Y-2312270D01*
G03Y-2509730I17210J-98730D01*
G01X-260000Y-2510470D01*
Y-2565530D01*
X-264210Y-2566270D01*
G03Y-2763730I17210J-98730D01*
G01X-260000Y-2764470D01*
Y-2819530D01*
X-264210Y-2820270D01*
G03X-208350Y-3011470I17212J-98731D01*
G01X-205210Y-3010150D01*
X-84150Y-3131210D01*
X-85470Y-3134350D01*
G03X-65000Y-3242710I92469J-38645D01*
G01Y-4555000D01*
X310960D01*
Y-4889980D01*
G02X294600Y-4898030I-10160J-1D01*
G03Y-4961970I-24600J-31970D01*
G02X310960Y-4970020I6200J-8049D01*
G01Y-5365000D01*
X41670D01*
X41140Y-5364880D01*
G03X36980Y-5364180I-9609J-44392D01*
G02X32530Y-5358730I615J5044D01*
G03X32560Y-5349760I-57930J4679D01*
G02X37010Y-5344340I5066J377D01*
G03X-13380Y-5292050I-5547J45079D01*
G02X-18960Y-5296290I-5017J811D01*
G03X-83520Y-5354720I-6443J-57762D01*
G02X-93680Y-5365000I-10158J-122D01*
G01X-440000D01*
Y-3509640D01*
X-543470Y-3406170D01*
G02X-543700Y-3392050I7188J7179D01*
G03X-546300Y-3310040I-42449J39700D01*
G02X-546550Y-3302900I3482J3696D01*
G03X-629130Y-3305810I-42730J39399D01*
G02X-628880Y-3312950I-3482J-3696D01*
G03X-629030Y-3313110I42327J-39832D01*
G01X-629100Y-3313200D01*
X-632770Y-3316870D01*
X-957120Y-2992520D01*
X-1487390D01*
G03X-1575850I-44230J-37700D01*
G01X-1654610D01*
G03X-1754070I-49730J-30080D01*
G01X-2033710D01*
G02X-2041910Y-2976350I-6J10161D01*
G03X-2106970I-32530J23850D01*
G02X-2115170Y-2992520I-8194J-6009D01*
G01X-2647880D01*
X-2648990Y-2988930D01*
G03X-2735810I-43410J-13350D01*
G01X-2736920Y-2992520D01*
X-2802120D01*
X-3209640Y-2585000D01*
X-3353830D01*
X-3354440Y-2584850D01*
G03X-3376560I-11060J-44050D01*
G01X-3377170Y-2585000D01*
X-3468130D01*
X-3468740Y-2584850D01*
G03X-3490860I-11060J-44050D01*
G01X-3491470Y-2585000D01*
X-3582430D01*
X-3583040Y-2584850D01*
G03X-3605160I-11060J-44050D01*
G01X-3605770Y-2585000D01*
X-4026650D01*
G03X-4070870I-22110J-33740D01*
G01X-4162820D01*
X-4163520Y-2584800D01*
G03X-4189020I-12750J-43590D01*
G01X-4189720Y-2585000D01*
X-5077160D01*
G02X-5085900Y-2569660I1J10160D01*
G03X-5108140Y-2488930I-49981J29659D01*
G02Y-2471070I4850J8930D01*
G03X-5163620I-27740J51070D01*
G02Y-2488930I-4850J-8930D01*
G03X-5140970Y-2597900I27740J-51073D01*
G02X-5134680Y-2615200I-895J-10119D01*
G01X-5230470Y-2710990D01*
X-5233470Y-2709960D01*
G03X-5284740Y-2761230I-13120J-38150D01*
G01X-5283710Y-2764230D01*
X-5330470Y-2810990D01*
X-5333470Y-2809960D01*
G03X-5348590Y-2888400I-13117J-38149D01*
G02X-5343760Y-2893470I-250J-5074D01*
G01Y-2902750D01*
G02X-5348590Y-2907820I-5080J4D01*
G03X-5383960Y-2963300I2000J-40290D01*
G02X-5393370Y-2977280I-9414J-3820D01*
G01X-5399810D01*
G02X-5409220Y-2963300I4J10160D01*
G03X-5483960I-37370J15190D01*
G02X-5493370Y-2977280I-9414J-3820D01*
G01X-5499810D01*
G02X-5509220Y-2963300I4J10160D01*
G03X-5583960I-37370J15190D01*
G02X-5593370Y-2977280I-9414J-3820D01*
G01X-5599810D01*
G02X-5609220Y-2963300I4J10160D01*
G03X-5683960I-37370J15190D01*
G02X-5693370Y-2977280I-9414J-3820D01*
G01X-5986010D01*
G02X-5995430Y-2963330I5J10159D01*
G03X-6079730I-42150J16930D01*
G02X-6089150Y-2977280I-9425J-3791D01*
G01X-6195260D01*
X-6235300Y-3017320D01*
Y-3286960D01*
X-5948280Y-3573980D01*
Y-3818680D01*
G03Y-3872440I30080J-26880D01*
G01Y-4681420D01*
X-5852360Y-4777340D01*
X-5639000D01*
X-5583900Y-4832440D01*
X-5584890Y-4835410D01*
G03X-5549170Y-4888350I38298J-12680D01*
G02X-5544420Y-4893420I-329J-5068D01*
G01Y-4902760D01*
G02X-5549170Y-4907830I-5079J-2D01*
G03Y-4988350I2580J-40260D01*
G02X-5544420Y-4993420I-329J-5068D01*
G01Y-5117900D01*
X-5580580Y-5154060D01*
X-5664000D01*
X-5699560Y-5118500D01*
X-6291780D01*
X-6369920Y-5196640D01*
Y-5288480D01*
X-6260700Y-5397700D01*
Y-5529980D01*
X-6279250D01*
X-6279890Y-5529810D01*
G03X-6303270I-11690J-43890D01*
G01X-6303910Y-5529980D01*
X-6436160D01*
G37*
G36*
G01X-4852140Y-5389100D02*
G03X-4759560Y-5458810I48999J-31258D01*
G02X-4741780Y-5465530I7619J-6722D01*
G01Y-6499860D01*
X-5222640D01*
X-5309000Y-6413500D01*
Y-6238040D01*
X-5376980Y-6170060D01*
X-6809580D01*
X-6885000Y-6094640D01*
Y-5775360D01*
X-6878720Y-5769080D01*
Y-5082340D01*
X-6961940Y-4999120D01*
X-6962140D01*
X-7033260Y-4928000D01*
X-7147560D01*
X-7475620Y-4599940D01*
Y-3710980D01*
X-7475000Y-3710360D01*
Y-3689640D01*
X-7475620Y-3689020D01*
Y-3340980D01*
X-7399640Y-3265000D01*
X-6790000D01*
Y-3487760D01*
G02X-6803630Y-3497310I-10160J-1D01*
G03Y-3582690I-15510J-42690D01*
G02X-6790000Y-3592240I3470J-9549D01*
G01Y-3643140D01*
X-6825180Y-3678320D01*
X-7142680D01*
X-7256380Y-3792020D01*
Y-4112460D01*
X-7147760Y-4221080D01*
X-6823670D01*
G02X-6815550Y-4237350I2J-10160D01*
G03X-6742970I36290J-27310D01*
G02X-6734850Y-4221080I8118J6110D01*
G01X-6639760D01*
X-6618840Y-4242000D01*
Y-5260110D01*
G02X-6634190Y-5268840I-10159J3D01*
G03Y-5338200I-20610J-34680D01*
G02X-6618840Y-5346930I5191J-8733D01*
G01Y-5418020D01*
X-6456880Y-5579980D01*
X-6336740D01*
X-6335840Y-5583920D01*
G03X-6274650Y-5615850I44258J10219D01*
G02X-6260700Y-5625270I3791J-9425D01*
G01Y-5710120D01*
X-6159700Y-5811120D01*
X-5808840D01*
X-5808210Y-5815470D01*
G03X-5718310I44950J6490D01*
G01X-5717680Y-5811120D01*
X-5420160D01*
X-5323640Y-5714600D01*
G02X-5307120Y-5717750I7191J-7179D01*
G03X-5290660Y-5662000I41702J17992D01*
G02X-5306460Y-5653550I-5640J8451D01*
G01Y-5407860D01*
X-5249980Y-5351380D01*
X-5018690D01*
X-5017880Y-5355480D01*
G03X-4928760I44560J8780D01*
G01X-4927950Y-5351380D01*
X-4887800D01*
G03X-4858830Y-5373650I36404J17378D01*
G02X-4852140Y-5389100I-1874J-9985D01*
G37*
G36*
G01X-4691780Y-7422960D02*
Y-5975720D01*
G02X-4676940Y-5966710I10159J-6D01*
G03Y-5895090I18580J35810D01*
G02X-4691780Y-5886080I-4681J9016D01*
G01Y-5407460D01*
X-4797860Y-5301380D01*
X-4827670D01*
G03X-4875130I-23730J-32620D01*
G01X-4970300D01*
X-4970460Y-5301370D01*
G03X-4976180I-2860J-45330D01*
G01X-4976340Y-5301380D01*
X-5270700D01*
X-5350000Y-5380680D01*
X-5352960Y-5379710D01*
G03X-5366690Y-5468320I-14058J-43190D01*
G02X-5356460Y-5478480I71J-10159D01*
G01Y-5590840D01*
G02X-5366690Y-5601000I-10159J-1D01*
G03X-5386440Y-5687480I-332J-45419D01*
G02X-5383600Y-5703840I-4349J-9181D01*
G01X-5440880Y-5761120D01*
X-6138980D01*
X-6210700Y-5689400D01*
Y-5376980D01*
X-6319920Y-5267760D01*
Y-5217360D01*
X-6271060Y-5168500D01*
X-5720280D01*
X-5684720Y-5204060D01*
X-5559860D01*
X-5494420Y-5138620D01*
Y-4981720D01*
G02X-5476680Y-4974960I10159J-4D01*
G03Y-4921220I30090J26870D01*
G02X-5494420Y-4914460I-7581J6764D01*
G01Y-4881720D01*
G02X-5476680Y-4874960I10159J-4D01*
G03X-5485700Y-4838200I30090J26870D01*
G02X-5502730Y-4842890I-9848J2496D01*
G01X-5507470Y-4838150D01*
X-5507840Y-4836890D01*
G03X-5535390Y-4809340I-38750J-11200D01*
G01X-5536650Y-4808970D01*
X-5618280Y-4727340D01*
X-5831640D01*
X-5898280Y-4660700D01*
Y-3880640D01*
G03Y-3810480I-19920J35080D01*
G01Y-3553260D01*
X-6016420Y-3435120D01*
G02X-6011000Y-3417930I7181J7185D01*
G03X-6057740Y-3371190I-7010J39730D01*
G02X-6074930Y-3376610I-10005J1761D01*
G01X-6185300Y-3266240D01*
Y-3038040D01*
X-6174540Y-3027280D01*
X-5695950D01*
G02X-5686020Y-3039590I0J-10160D01*
G03X-5607160I39430J-8520D01*
G02X-5597230Y-3027280I9930J2150D01*
G01X-5595950D01*
G02X-5586020Y-3039590I0J-10160D01*
G03X-5507160I39430J-8520D01*
G02X-5497230Y-3027280I9930J2150D01*
G01X-5495950D01*
G02X-5486020Y-3039590I0J-10160D01*
G03X-5407160I39430J-8520D01*
G02X-5397230Y-3027280I9930J2150D01*
G01X-5395950D01*
G02X-5386020Y-3039590I0J-10160D01*
G03X-5348590Y-3088400I39430J-8520D01*
G02X-5343760Y-3093470I-250J-5074D01*
G01Y-3102750D01*
G02X-5348590Y-3107820I-5080J4D01*
G03Y-3188400I2000J-40290D01*
G02X-5343760Y-3193470I-250J-5074D01*
G01Y-3202750D01*
G02X-5348590Y-3207820I-5080J4D01*
G03Y-3288400I2000J-40290D01*
G02X-5343760Y-3293470I-250J-5074D01*
G01Y-3302750D01*
G02X-5348590Y-3307820I-5080J4D01*
G03Y-3388400I2000J-40290D01*
G02X-5343760Y-3393470I-250J-5074D01*
G01Y-3402750D01*
G02X-5348590Y-3407820I-5080J4D01*
G03Y-3488400I2000J-40290D01*
G02X-5343760Y-3493470I-250J-5074D01*
G01Y-3602750D01*
G02X-5348590Y-3607820I-5080J4D01*
G03Y-3688400I2000J-40290D01*
G02X-5343760Y-3693470I-250J-5074D01*
G01Y-3902730D01*
G02X-5348590Y-3907800I-5080J4D01*
G03Y-3988380I2000J-40290D01*
G02X-5343760Y-3993450I-250J-5074D01*
G01Y-4277560D01*
X-5285210Y-4336110D01*
X-5285860Y-4338860D01*
G03X-5237360Y-4387360I39270J-9230D01*
G01X-5234610Y-4386710D01*
X-5185210Y-4436110D01*
X-5185860Y-4438860D01*
G03X-5137360Y-4487360I39270J-9230D01*
G01X-5134610Y-4486710D01*
X-5085210Y-4536110D01*
X-5085860Y-4538860D01*
G03X-5018130Y-4576680I39270J-9230D01*
G01X-4975050D01*
G03X-4918130I28460J28590D01*
G01X-4875050D01*
G03X-4818130I28460J28590D01*
G01X-4775050D01*
G03X-4718130I28460J28590D01*
G01X-4675050D01*
G03X-4618130I28460J28590D01*
G01X-4475070D01*
G03X-4418150I28460J28590D01*
G01X-4375070D01*
G03X-4318150I28460J28590D01*
G01X-4275070D01*
G03X-4218150I28460J28590D01*
G01X-4175070D01*
G03X-4118150I28460J28590D01*
G01X-4075070D01*
G03X-4018150I28460J28590D01*
G01X-3975070D01*
G03X-3918150I28460J28590D01*
G01X-3875070D01*
G03X-3818150I28460J28590D01*
G01X-3775070D01*
G03X-3718150I28460J28590D01*
G01X-3675070D01*
G03X-3618150I28460J28590D01*
G01X-3575070D01*
G03X-3518150I28460J28590D01*
G01X-2664130D01*
X-2663460Y-4580980D01*
G03X-2581920Y-4624880I57422J8979D01*
G02X-2567540Y-4634120I4221J-9241D01*
G01Y-5011020D01*
X-2299600D01*
G02X-2289500Y-5022280I0J-10160D01*
G03X-2209300I40100J-4380D01*
G02X-2199200Y-5011020I10100J1100D01*
G01X-2004530D01*
G02X-1995570Y-5025970I1J-10159D01*
G03X-1997570Y-5059700I35569J-19033D01*
G03X-1945130Y-5082500I14872J-37500D01*
G03X-1920660Y-5053930I-14870J37500D01*
G02X-1915070Y-5050020I4952J-1129D01*
G03X-1874660Y-5029450I5069J40020D01*
G02X-1858570Y-5027170I8901J-4899D01*
G01X-1797920Y-5087820D01*
Y-5595820D01*
X-1704540Y-5689200D01*
X-1412440D01*
X-1348340Y-5753300D01*
Y-7422960D01*
X-4691780D01*
G37*
G36*
G01X-1016400Y-5150000D02*
Y-4945450D01*
G02X-1006930Y-4935320I10158J-5D01*
G03Y-4844680I-3070J45320D01*
G02X-1016400Y-4834550I688J10135D01*
G01Y-4545230D01*
G02X-1005100Y-4535130I10161J3D01*
G03X-975000Y-4527920I5103J45131D01*
G03Y-4452080I25000J37920D01*
G03X-1005100Y-4444870I-24997J-37921D01*
G02X-1016400Y-4434770I-1139J10097D01*
G01Y-3860000D01*
X-1349220D01*
G03X-1430780I-40780J-20000D01*
G01X-2354770D01*
X-2355670Y-3856050D01*
G03X-2370110Y-3833250I-39336J-8940D01*
G02X-2371120Y-3818160I6265J7998D01*
G03X-2424890Y-3821750I-28885J28160D01*
G02X-2423880Y-3836840I-6265J-7998D01*
G03X-2434330Y-3856050I28882J-28159D01*
G01X-2435230Y-3860000D01*
X-3009940D01*
G03X-3048980Y-3859400I-20063J-34999D01*
G01X-3050100Y-3860000D01*
X-3055360D01*
X-3195000Y-3999640D01*
Y-4526680D01*
X-3512420D01*
G03X-3580800I-34190J-21410D01*
G01X-3612420D01*
G03X-3680800I-34190J-21410D01*
G01X-3712420D01*
G03X-3780800I-34190J-21410D01*
G01X-3812420D01*
G03X-3880800I-34190J-21410D01*
G01X-3912420D01*
G03X-3980800I-34190J-21410D01*
G01X-4012420D01*
G03X-4080800I-34190J-21410D01*
G01X-4112420D01*
G03X-4180800I-34190J-21410D01*
G01X-4212420D01*
G03X-4280800I-34190J-21410D01*
G01X-4312420D01*
G03X-4380800I-34190J-21410D01*
G01X-4412420D01*
G03X-4480800I-34190J-21410D01*
G01X-4612400D01*
G03X-4680780I-34190J-21410D01*
G01X-4712400D01*
G03X-4780780I-34190J-21410D01*
G01X-4812400D01*
G03X-4880780I-34190J-21410D01*
G01X-4912400D01*
G03X-4980780I-34190J-21410D01*
G01X-5012400D01*
G03X-5041010Y-4508140I-34188J-21412D01*
G01X-5042700Y-4507900D01*
X-5045490Y-4505110D01*
G02X-5039970Y-4487900I7183J7186D01*
G03X-5086380Y-4441490I-6620J39790D01*
G02X-5103590Y-4447010I-10024J1663D01*
G01X-5106400Y-4444200D01*
X-5106640Y-4442510D01*
G03X-5141010Y-4408140I-39950J-5580D01*
G01X-5142700Y-4407900D01*
X-5145510Y-4405090D01*
G02X-5139990Y-4387890I7187J7179D01*
G03X-5186390Y-4341490I-6600J39800D01*
G02X-5203590Y-4347010I-10021J1667D01*
G01X-5206400Y-4344200D01*
X-5206640Y-4342510D01*
G03X-5241010Y-4308140I-39950J-5580D01*
G01X-5242700Y-4307900D01*
X-5245510Y-4305090D01*
G02X-5239990Y-4287890I7187J7179D01*
G03X-5276150Y-4220640I-6601J39797D01*
G02X-5293760Y-4213730I-7450J6908D01*
G01Y-4182450D01*
G02X-5276150Y-4175540I10160J2D01*
G03Y-4120640I29560J27450D01*
G02X-5293760Y-4113730I-7450J6908D01*
G01Y-4082450D01*
G02X-5276150Y-4075540I10160J2D01*
G03Y-4020640I29560J27450D01*
G02X-5293760Y-4013730I-7450J6908D01*
G01Y-3982450D01*
G02X-5276150Y-3975540I10160J2D01*
G03Y-3920640I29560J27450D01*
G02X-5293760Y-3913730I-7450J6908D01*
G01Y-3782470D01*
G02X-5276150Y-3775560I10160J2D01*
G03Y-3720660I29560J27450D01*
G02X-5293760Y-3713750I-7450J6908D01*
G01Y-3682470D01*
G02X-5276150Y-3675560I10160J2D01*
G03Y-3620660I29560J27450D01*
G02X-5293760Y-3613750I-7450J6908D01*
G01Y-3582470D01*
G02X-5276150Y-3575560I10160J2D01*
G03Y-3520660I29560J27450D01*
G02X-5293760Y-3513750I-7450J6908D01*
G01Y-3482470D01*
G02X-5276150Y-3475560I10160J2D01*
G03Y-3420660I29560J27450D01*
G02X-5293760Y-3413750I-7450J6908D01*
G01Y-3382470D01*
G02X-5276150Y-3375560I10160J2D01*
G03Y-3320660I29560J27450D01*
G02X-5293760Y-3313750I-7450J6908D01*
G01Y-3282470D01*
G02X-5276150Y-3275560I10160J2D01*
G03Y-3220660I29560J27450D01*
G02X-5293760Y-3213750I-7450J6908D01*
G01Y-3182470D01*
G02X-5276150Y-3175560I10160J2D01*
G03Y-3120660I29560J27450D01*
G02X-5293760Y-3113750I-7450J6908D01*
G01Y-3082470D01*
G02X-5276150Y-3075560I10160J2D01*
G03Y-3020660I29560J27450D01*
G02X-5293760Y-3013750I-7450J6908D01*
G01Y-2982470D01*
G02X-5276150Y-2975560I10160J2D01*
G03Y-2920660I29560J27450D01*
G02X-5293760Y-2913750I-7450J6908D01*
G01Y-2882470D01*
G02X-5276150Y-2875560I10160J2D01*
G03X-5236280Y-2809110I29560J27450D01*
G02X-5240860Y-2792100I2600J9822D01*
G01X-5235740Y-2786980D01*
X-5234550Y-2786610D01*
G03X-5208090Y-2760150I-12040J38500D01*
G01X-5207720Y-2758960D01*
X-5202600Y-2753840D01*
G02X-5185590Y-2758420I7188J-7180D01*
G03X-5136280Y-2709110I39000J10310D01*
G02X-5140860Y-2692100I2600J9822D01*
G01X-5083760Y-2635000D01*
X-4380570D01*
X-4380240Y-2639730D01*
G03X-4299760I40240J2810D01*
G01X-4299430Y-2635000D01*
X-4221390D01*
X-4220460Y-2638900D01*
G03X-4132080I44190J10510D01*
G01X-4131150Y-2635000D01*
X-4085680D01*
G03X-4011840I36920J16260D01*
G01X-3794050D01*
G02X-3784170Y-2647530I0J-10160D01*
G03X-3765570Y-2695650I44170J-10581D01*
G02X-3766320Y-2712910I-5716J-8398D01*
G03X-3721970Y-2716170I19707J-35199D01*
G02X-3720190Y-2698980I6207J8044D01*
G03X-3695830Y-2647530I-19810J40871D01*
G02X-3685950Y-2635000I9880J2370D01*
G01X-3639290D01*
X-3638390Y-2638960D01*
G03X-3549810I44290J10060D01*
G01X-3548910Y-2635000D01*
X-3524990D01*
X-3524090Y-2638960D01*
G03X-3435510I44290J10060D01*
G01X-3434610Y-2635000D01*
X-3410690D01*
X-3409790Y-2638960D01*
G03X-3379800Y-2672010I44291J10059D01*
G02X-3373220Y-2684380I-3205J-9640D01*
G03X-3282640Y-2653320I55978J-15639D01*
G02X-3276590Y-2635000I6051J8161D01*
G01X-3230360D01*
X-3088560Y-2776800D01*
G02X-3088940Y-2791520I-7187J-7179D01*
G03X-3100380Y-2833530I27050J-29929D01*
G03X-3068730Y-2907710I16826J-36663D01*
G02X-3054930Y-2915720I3740J-9449D01*
G03X-3006400Y-2949410I39931J5721D01*
G02X-2994140Y-2958270I2157J-9927D01*
G03X-2916520Y-2968900I40119J4244D01*
G02X-2899900Y-2965460I9442J-3748D01*
G01X-2822840Y-3042520D01*
X-2713460D01*
G03X-2671340I21060J40240D01*
G01X-2070300D01*
G02X-2061190Y-3057170I-1J-10158D01*
G03X-1988810I36190J-17830D01*
G02X-1979700Y-3042520I9111J4492D01*
G01X-1758940D01*
G03X-1649740I54600J19920D01*
G01X-1588550D01*
X-1587500Y-3046200D01*
G03X-1475740I55880J15980D01*
G01X-1474690Y-3042520D01*
X-1283880D01*
G02X-1274770Y-3057170I-1J-10158D01*
G03X-1202390I36190J-17830D01*
G02X-1193280Y-3042520I9111J4492D01*
G01X-977840D01*
X-630780Y-3389580D01*
G03X-623540Y-3396840I44611J37249D01*
G01X-623380Y-3396980D01*
X-595070Y-3425290D01*
G02X-599190Y-3442170I-7179J-7191D01*
G03X-526250Y-3515110I17530J-55410D01*
G02X-509370Y-3510990I9689J-3059D01*
G01X-490000Y-3530360D01*
Y-5150000D01*
X-1016400D01*
G37*
G36*
G01X-1298340Y-7422960D02*
Y-5732580D01*
X-1391720Y-5639200D01*
X-1683820D01*
X-1747920Y-5575100D01*
Y-5067100D01*
X-1854000Y-4961020D01*
X-2224430D01*
G02X-2234590Y-4950700I0J10161D01*
G03X-2325410I-45410J700D01*
G02X-2335570Y-4961020I-10160J-159D01*
G01X-2517540D01*
Y-4627720D01*
X-2513040Y-4627200D01*
G03X-2480380Y-4526640I-6639J57740D01*
G02X-2481540Y-4512930I6868J7485D01*
G03X-2567460Y-4435130I-45913J35639D01*
G03X-2655040Y-4510680I-40004J-42164D01*
G02X-2663350Y-4526680I-8312J-5841D01*
G01X-2812160D01*
G02X-2820790Y-4511170I5J10159D01*
G03X-2919610I-49410J30610D01*
G02X-2928240Y-4526680I-8635J-5351D01*
G01X-3145000D01*
Y-4020360D01*
X-3094040Y-3969400D01*
G03X-3029750Y-3939760I24041J32397D01*
G02X-3025280Y-3935060I5068J-344D01*
G03X-2993820Y-3912830I-4723J40060D01*
G01X-2992420Y-3910000D01*
X-2926890D01*
G02X-2918320Y-3925610I-2J-10159D01*
G03X-2841680I38320J-24390D01*
G02X-2833110Y-3910000I8572J5451D01*
G01X-2276300D01*
X-2275180Y-3913550D01*
G03X-2274940Y-3914290I38491J12075D01*
G02X-2281070Y-3927070I-9629J-3241D01*
G03X-2228940Y-3952090I13893J-37872D01*
G02X-2222810Y-3939310I9629J3241D01*
G03X-2198220Y-3913550I-13887J37873D01*
G01X-2197100Y-3910000D01*
X-1725740D01*
G02X-1717540Y-3926160I1J-10160D01*
G03X-1652460I32540J-23840D01*
G02X-1644260Y-3910000I8199J6000D01*
G01X-1444700D01*
G02X-1434700Y-3921960I0J-10161D01*
G03X-1345300I44700J-8040D01*
G02X-1335300Y-3910000I10000J1799D01*
G01X-1066400D01*
Y-4844380D01*
X-1070830Y-4844950D01*
G03Y-4935050I5820J-45050D01*
G01X-1066400Y-4935620D01*
Y-5200000D01*
X-1015650D01*
X-1015190Y-5204570D01*
G03X-1007920Y-5225000I45189J4572D01*
G03X-932080I37920J-25000D01*
G03X-924810Y-5204570I-37919J25002D01*
G01X-924350Y-5200000D01*
X-490000D01*
Y-5377530D01*
G02X-499740Y-5387680I-10160J1D01*
G03X-529110Y-5400120I1902J-45380D01*
G02X-542570Y-5400580I-6990J7372D01*
G03X-604630Y-5404530I-28927J-35019D01*
G02X-611790Y-5404790I-3711J3471D01*
G03X-674520Y-5470480I-30833J-33353D01*
G03X-674100Y-5530000I34520J-29518D01*
G03X-672690Y-5591540I34099J-30005D01*
G02X-674910Y-5607380I-7310J-7051D01*
G03X-610940Y-5611180I29109J-50308D01*
G02X-611280Y-5595180I6090J8133D01*
G03X-605900Y-5530000I-28722J35183D01*
G03X-595410Y-5491340I-34098J30005D01*
G02X-582890Y-5479570I9972J1937D01*
G03X-540230Y-5468540I11387J43969D01*
G02X-526770Y-5468080I6990J-7372D01*
G03X-452880Y-5426600I28930J35017D01*
G02X-442820Y-5415000I10056J1441D01*
G01X-13780D01*
X-12910Y-5418990D01*
G03X75830I44370J9730D01*
G01X76700Y-5415000D01*
X310960D01*
Y-7422960D01*
X-1298340D01*
G37*
G36*
G01X-2806700Y-1229360D02*
X-2842260Y-1193800D01*
Y-22860D01*
X-2606040Y213360D01*
X-2598050D01*
G02X-2590400Y196520I-3J-10159D01*
G03X-2529600I30400J-26520D01*
G02X-2521950Y213360I7653J6681D01*
G01X-1986280D01*
X-1912620Y287020D01*
X-1463040D01*
X-1417320Y241300D01*
Y-45720D01*
X-1478280Y-106680D01*
X-1642450D01*
G03X-1684950I-21250J-34290D01*
G01X-2463800D01*
X-2512060Y-154940D01*
Y-442250D01*
G03X-2514380Y-511400I19579J-35271D01*
G01X-2512060Y-512900D01*
Y-519140D01*
G03Y-593380I15800J-37120D01*
G01Y-683950D01*
G03Y-748610I24130J-32330D01*
G01Y-765230D01*
G03Y-829890I24130J-32330D01*
G01Y-843970D01*
G03Y-908630I24130J-32330D01*
G01Y-1198880D01*
X-2542540Y-1229360D01*
X-2806700D01*
G37*
G36*
G01X-800100Y-1844040D02*
X-850900Y-1793240D01*
Y-1661160D01*
X-701040Y-1511300D01*
Y-1432670D01*
G02X-684240Y-1424980I10159J1D01*
G03Y-1363940I26380J30520D01*
G02X-701040Y-1356250I-6641J7689D01*
G01Y601980D01*
X-670560Y632460D01*
X-459740D01*
X-424180Y596900D01*
Y560560D01*
X-424900Y559350D01*
G03X-424180Y468740I74770J-44714D01*
G01Y120540D01*
G03Y28740I74050J-45900D01*
G01Y-1772920D01*
X-495300Y-1844040D01*
X-517820D01*
X-519140Y-1840950D01*
G03X-593380I-37120J-15790D01*
G01X-594700Y-1844040D01*
X-800100D01*
G37*
%LPC*%
G75*
G36*
G01X-7552130Y739770D02*
G03X-7558870I-3370J-3805D01*
G02X-7639850Y822980I-38536J43507D01*
G03Y829920I-3709J3470D01*
G02X-7638030Y911200I42440J39710D01*
G02X-7558600Y996000I40890J41300D01*
G03X-7551860I3370J3805D01*
G02X-7473610Y994940I38543J-43501D01*
G03X-7466670I3470J3709D01*
G02X-7388420Y996000I39707J-42441D01*
G03X-7381680I3370J3805D01*
G02X-7302520Y910930I38531J-43511D01*
G02X-7300970Y829920I-40890J-41302D01*
G03Y822980I3709J-3470D01*
G02X-7381950Y739770I-42444J-39703D01*
G03X-7388690I-3370J-3805D01*
G02X-7466940Y740830I-38543J43501D01*
G03X-7473880I-3470J-3709D01*
G02X-7552130Y739770I-39707J42441D01*
G37*
G36*
G01X-8572650Y820800D02*
G02X-8654820Y738630I-42170J-40000D01*
G02X-8736990Y820800I-40000J42170D01*
G02Y900800I42170J40000D01*
G02X-8654820Y982970I42170J40000D01*
G02X-8572650Y900800I40000J-42170D01*
G02Y820800I-42170J-40000D01*
G37*
G36*
G01X-5508390Y535640D02*
G02X-5562900Y476310I-28809J-28237D01*
G02X-5587600Y547730I-25701J31093D01*
G03X-5577250Y559090I261J10157D01*
G02X-5508390Y535640I40054J4790D01*
G37*
G36*
G01X-8646930Y230330D02*
G03X-8653810Y230290I-3418J-3759D01*
G02X-8735840Y312550I-39592J42549D01*
G03Y319490I-3709J3470D01*
G02X-8735580Y399190I42439J39712D01*
G03X-8735460Y406040I-3687J3491D01*
G02X-8736520Y481720I43579J38458D01*
G03X-8736720Y488460I-3897J3257D01*
G02X-8653540Y569640I42301J39861D01*
G03X-8646400I3570J3607D01*
G02X-8562180Y489590I40880J-41320D01*
G03X-8562240Y482890I3786J-3384D01*
G02X-8564100Y404970I-44039J-37931D01*
G03X-8564220Y398120I3687J-3491D01*
G02X-8565360Y319950I-43579J-38458D01*
G03Y313010I3709J-3470D01*
G02X-8646930Y230330I-42445J-39702D01*
G37*
G36*
G01X-7557900Y-399860D02*
G03X-7572780I-7440J-6919D01*
G02Y-320700I-42560J39580D01*
G03X-7557900I7440J6919D01*
G02Y-399860I42560J-39580D01*
G37*
G36*
G01X-8694370Y-842310D02*
G02X-8695800Y-896620I-30529J-26370D01*
G02X-8754000I-29100J-27940D01*
G02X-8751370Y-838240I29100J27938D01*
G03X-8750350Y-823930I-6666J7667D01*
G02X-8693350Y-828000I30528J26370D01*
G03X-8694370Y-842310I6666J-7667D01*
G37*
G36*
G01X-8695170Y-1904330D02*
G03Y-1911190I3743J-3430D01*
G02X-8754630I-29730J-27270D01*
G03Y-1904330I-3743J3430D01*
G02X-8754830Y-1850010I29729J27270D01*
G03X-8755110Y-1842910I-3768J3407D01*
G02X-8758330Y-1787620I27671J29350D01*
G03Y-1781080I-3891J3270D01*
G02X-8752210Y-1723300I30891J25942D01*
G02X-8754690Y-1678970I32390J24046D01*
G02X-8756400Y-1615740I24179J32292D01*
G03X-8755210Y-1609410I-3263J3890D01*
G02X-8693930Y-1620980I35389J19368D01*
G03X-8695120Y-1627310I3263J-3890D01*
G02X-8695640Y-1666970I-35389J-19369D01*
G02X-8695050Y-1731100I-24180J-32290D01*
G02X-8696550Y-1781080I-32391J-24040D01*
G03Y-1787620I3891J-3270D01*
G02X-8697510Y-1840610I-30890J-25944D01*
G03X-8697230Y-1847710I3768J-3407D01*
G02X-8695170Y-1904330I-27670J-29354D01*
G37*
G36*
G01X-7838440Y-4419820D02*
G02X-7884160I-22860J33240D01*
G02X-7940260Y-4363720I-22860J33240D01*
G02X-7884160Y-4307620I33240J22860D01*
G02X-7838440I22860J-33240D01*
G02X-7782340Y-4363720I22860J-33240D01*
G02X-7838440Y-4419820I-33240J-22860D01*
G37*
G36*
G01X-8331870Y-4954930D02*
G02X-8387970Y-5011030I-33240J-22860D01*
G02X-8444070Y-4954930I-22860J33240D01*
G02X-8443820Y-4908860I33240J22855D01*
G02X-8387080Y-4853720I33878J21902D01*
G02X-8331230Y-4910170I22857J-33239D01*
G02X-8331870Y-4954930I-33879J-21900D01*
G37*
G36*
G01X-7263470Y-5236740D02*
G03X-7270410I-3470J-3709D01*
G02Y-5151860I-39710J42440D01*
G03X-7263470I3470J3709D01*
G02Y-5236740I39710J-42440D01*
G37*
G36*
G01X-8300940Y-5789630D02*
G02X-8350470Y-5788640I-24129J32329D01*
G02X-8409110Y-5734440I-25403J31338D01*
G02X-8409920Y-5689940I33239J22862D01*
G02X-8351520Y-5635400I33001J23200D01*
G02X-8301990Y-5634410I25401J-31339D01*
G02X-8243810Y-5688380I24135J-32326D01*
G02X-8243570Y-5734440I-33000J-23203D01*
G02X-8300940Y-5789630I-33237J-22863D01*
G37*
G36*
G01X-3625090Y-2115470D02*
G03X-3610540Y-2116380I7717J6608D01*
G02X-3614510Y-2179530I30540J-33620D01*
G03X-3629060Y-2178620I-7717J-6608D01*
G02X-3625090Y-2115470I-30540J33620D01*
G37*
G36*
G01X-5696940Y-2170770D02*
G03Y-2177710I3709J-3470D01*
G02X-5781820I-42440J-39710D01*
G03Y-2170770I-3709J3470D01*
G02X-5696940I42440J39710D01*
G37*
G36*
G01X-5091170Y-2196460D02*
G03Y-2210440I7368J-6990D01*
G02X-5175510I-42170J-40000D01*
G03Y-2196460I-7368J6990D01*
G02X-5084260Y-2125330I42172J39995D01*
G03X-5067630Y-2126080I8577J5444D01*
G02X-5070660Y-2192670I46050J-35459D01*
G03X-5087290Y-2191920I-8577J-5444D01*
G02X-5091170Y-2196460I-46066J35441D01*
G37*
G36*
G01X-8462820Y-2333710D02*
G02X-8389470Y-2357280I40337J-388D01*
G02X-8445790Y-2414890I-26615J-30315D01*
G02X-8472750Y-2343770I-26067J30788D01*
G03X-8462820Y-2333710I-229J10157D01*
G37*
G36*
G01X-5713810Y-2503020D02*
G03X-5712900Y-2518550I6979J-7383D01*
G02X-5771190Y-2521980I-27101J-36450D01*
G03X-5772100Y-2506450I-6979J7383D01*
G02X-5774270Y-2435270I27100J36449D01*
G03Y-2419730I-6547J7770D01*
G02X-5715730I29270J34730D01*
G03Y-2435270I6547J-7770D01*
G02X-5713810Y-2503020I-29270J-34732D01*
G37*
G36*
G01X-1127920Y-2554920D02*
G03X-1127540Y-2571930I5742J-8381D01*
G02X-1191100Y-2573340I-30701J-49350D01*
G03X-1191480Y-2556330I-5742J8381D01*
G02X-1127920Y-2554920I30701J49350D01*
G37*
G36*
G01X-1686610Y-2762100D02*
G03X-1701470Y-2767970I-5124J-8772D01*
G02X-1789500Y-2764100I-43530J12969D01*
G03X-1803590Y-2756850I-9955J-2030D01*
G02X-1781210Y-2708910I-16408J36854D01*
G03X-1766610Y-2715050I9766J2794D01*
G02X-1722090Y-2715780I21611J-39950D01*
G03X-1707230Y-2709910I5124J8772D01*
G02X-1686610Y-2762100I43530J-12970D01*
G37*
G36*
G01X-1470000Y-2802920D02*
G02X-1520000I-25000J37920D01*
G02Y-2727080I-25000J37920D01*
G02X-1470000I25000J-37920D01*
G02Y-2802920I25000J-37920D01*
G37*
G36*
G01X-8383670Y-3075370D02*
G03X-8390490I-3410J-3764D01*
G02X-8445740Y-3074330I-27072J29909D01*
G02X-8504560Y-3019330I-27706J29322D01*
G03X-8504870Y-3012520I-3917J3234D01*
G02X-8437010Y-2993510I28631J28419D01*
G03X-8425210Y-3005850I9879J-2365D01*
G02X-8416880Y-3005130I7620J-39613D01*
G03X-8407680Y-2990310I169J10160D01*
G02X-8339390Y-2995770I35843J18510D01*
G03X-8336320Y-3010590I8172J-6035D01*
G02X-8383670Y-3075370I-20280J-34871D01*
G37*
G36*
G01X-368600Y-3305720D02*
G02Y-3389400I40340J-41840D01*
G02Y-3305720I-40340J41840D01*
G37*
G36*
G01X-6164950Y-4943400D02*
G03X-6151050Y-4949640I9703J3013D01*
G02X-6186950Y-5022390I26467J-58294D01*
G03X-6200360Y-5015150I-9897J-2293D01*
G02X-6164950Y-4943400I-20100J54532D01*
G37*
G36*
G01X-5100Y-5026570D02*
G03X-1320Y-5010700I-4002J9338D01*
G02X66060Y-5026750I44505J37379D01*
G03X62280Y-5042620I4002J-9338D01*
G02X64500Y-5045420I-44411J-37492D01*
G03X72660I4080J3018D01*
G02X162790Y-5041350I46718J-34578D01*
G03X178280Y-5040970I7584J6758D01*
G02X180110Y-5116110I45239J-36491D01*
G03X164620Y-5116490I-7584J-6758D01*
G02X76140Y-5118830I-45236J36491D01*
G03X61020I-7560J-6793D01*
G02X-26960Y-5117100I-43243J38831D01*
G03X-42750Y-5117290I-7818J-6489D01*
G02X-43620Y-5044170I-45610J36022D01*
G03X-27830Y-5043980I7818J6489D01*
G02X-5100Y-5026570I45617J-36014D01*
G37*
G36*
G01X-6881320Y-1741970D02*
G02X-6960790Y-1715930I-45257J-3832D01*
G02X-6889220Y-1662720I30636J33531D01*
G03X-6872560Y-1665170I9158J4402D01*
G02X-6865320Y-1732830I33540J-30628D01*
G03X-6881320Y-1741970I-5877J-8287D01*
G37*
G36*
G01X-6470100Y-1810830D02*
G02X-6490030Y-1840830I20100J-34973D01*
G03X-6505180Y-1830770I-10085J1250D01*
G02X-6485250Y-1800770I-20100J34973D01*
G03X-6470100Y-1810830I10085J-1250D01*
G37*
G36*
G01X-3354690Y-1951630D02*
G02X-3403180Y-1952550I-23516J-38859D01*
G03X-3403510Y-1935370I-5584J8486D01*
G02X-3415560Y-1868260I23512J38859D01*
G02X-3344440I35560J28260D01*
G02X-3355020Y-1934450I-35561J-28256D01*
G03X-3354690Y-1951630I5584J-8486D01*
G37*
G36*
G01X-6819190Y-1954940D02*
G02X-6858850I-19830J-40860D01*
G03Y-1936660I-4441J9140D01*
G02X-6819190I19830J40860D01*
G03Y-1954940I4441J-9140D01*
G37*
G36*
G01X-8444190Y-2596600D02*
G02X-8478820Y-2581030I-31911J-24679D01*
G03X-8471470Y-2564680I-687J10136D01*
G02X-8436840Y-2580250I31911J24679D01*
G03X-8444190Y-2596600I687J-10136D01*
G37*
G36*
G01X-8230620Y-2716670D02*
G02X-8230890Y-2752780I35939J-18325D01*
G03X-8249060Y-2752640I-9120J-4474D01*
G02X-8248790Y-2716530I-35939J18325D01*
G03X-8230620Y-2716670I9120J4474D01*
G37*
G36*
G01X-8202120Y-2850350D02*
G02X-8234710Y-2884990I7439J-39650D01*
G03X-8246660Y-2873750I-10080J1255D01*
G02X-8214070Y-2839110I-7439J39650D01*
G03X-8202120Y-2850350I10080J-1255D01*
G37*
G36*
G01X-6819190Y-2993240D02*
G02X-6879810Y-3054090I-19834J-40862D01*
G03X-6897670Y-3053380I-9122J-4471D01*
G02X-6895950Y-3010230I-39069J23167D01*
G03X-6878090Y-3010940I9122J4471D01*
G02X-6858850Y-2993240I39069J-23162D01*
G03Y-2974960I-4441J9140D01*
G02Y-2893240I19830J40860D01*
G03Y-2874960I-4441J9140D01*
G02X-6884280Y-2830270I19828J40863D01*
G03X-6900280Y-2821130I-10123J853D01*
G02X-6960020Y-2814840I-26302J37030D01*
G03X-6975340Y-2815260I-7477J-6876D01*
G02X-6976960Y-2755640I-35059J28879D01*
G03X-6961640Y-2755220I7477J6876D01*
G02X-6946410Y-2743240I35050J-28888D01*
G03Y-2724960I-4441J9140D01*
G02X-6900280Y-2647070I19825J40864D01*
G03X-6884280Y-2637930I5877J8287D01*
G02X-6884440Y-2634550I45259J3836D01*
G03X-6889570Y-2629520I-5078J-48D01*
G02X-6869160Y-2543740I-427J45420D01*
G03X-6854340Y-2534600I4663J9024D01*
G02X-6829760Y-2574460I45419J499D01*
G03X-6844580Y-2583600I-4663J-9024D01*
G01Y-2583650D01*
G03X-6839450Y-2588680I5078J48D01*
G02X-6819190Y-2674960I429J-45418D01*
G03Y-2693240I4441J-9140D01*
G02Y-2774960I-19830J-40860D01*
G03Y-2793240I4441J-9140D01*
G02Y-2874960I-19830J-40860D01*
G03Y-2893240I4441J-9140D01*
G02Y-2974960I-19830J-40860D01*
G03Y-2993240I4441J-9140D01*
G37*
G36*
G01X-6434310Y-3393240D02*
G02X-6499450Y-3430930I-19831J-40861D01*
G03X-6515250Y-3421790I-10134J708D01*
G02X-6560430Y-3343240I-25350J37688D01*
G03Y-3324960I-4441J9140D01*
G02Y-3243240I19830J40860D01*
G03Y-3224960I-4441J9140D01*
G02Y-3143240I19830J40860D01*
G03Y-3124960I-4441J9140D01*
G02X-6513590Y-3047580I19833J40862D01*
G03X-6498340Y-3043690I6037J8169D01*
G02X-6428820Y-3083980I36580J-17005D01*
G03X-6426660Y-3097930I8301J-5857D01*
G02X-6434310Y-3174960I-27479J-36166D01*
G03Y-3193240I4441J-9140D01*
G02Y-3274960I-19830J-40860D01*
G03Y-3293240I4441J-9140D01*
G02Y-3374960I-19830J-40860D01*
G03Y-3393240I4441J-9140D01*
G37*
G36*
G01X-6435660Y-3847160D02*
G02X-6437800Y-3799610I-54040J21391D01*
G03X-6419280Y-3798770I9072J4575D01*
G02X-6417140Y-3846320I54040J-21391D01*
G03X-6435660Y-3847160I-9072J-4575D01*
G37*
G36*
G01X-6786020Y-4125450D02*
G02X-6786320Y-4078260I-38960J23348D01*
G03X-6768960Y-4078150I8647J5334D01*
G02X-6768660Y-4125340I38960J-23348D01*
G03X-6786020Y-4125450I-8647J-5334D01*
G37*
G36*
G01X-6244180Y-4248580D02*
G02X-6246750Y-4286630I34181J-21420D01*
G03X-6264620Y-4285420I-9259J-4186D01*
G02X-6262050Y-4247370I-34181J21420D01*
G03X-6244180Y-4248580I9259J4186D01*
G37*
G36*
G01X-6372840Y-4639570D02*
G02X-6421360Y-4537900I-37182J44668D01*
G03X-6416630Y-4520300I-1977J9967D01*
G02X-6376400Y-4527980I26632J30299D01*
G03X-6378490Y-4546080I3424J-9566D01*
G02X-6357480Y-4570040I-31520J-48831D01*
G03X-6344550Y-4575140I9183J4342D01*
G02X-6358960Y-4640390I14870J-37500D01*
G03X-6372840Y-4639570I-7377J-6986D01*
G37*
G36*
G01X-6695690Y-4456270D02*
G03X-6695790Y-4462800I3836J-3325D01*
G02X-6765310Y-4461730I-35210J-28697D01*
G03X-6765210Y-4455200I-3836J3325D01*
G02X-6762570Y-4394840I35208J28698D01*
G03Y-4387760I-3640J3540D01*
G02X-6697430I32570J31660D01*
G03Y-4394840I3640J-3540D01*
G02X-6695690Y-4456270I-32568J-31662D01*
G37*
G36*
G01X-6816240Y-4761060D02*
G02X-6752780Y-4751240I26817J36659D01*
G02X-6816240Y-4761060I-26817J-36659D01*
G37*
G36*
G01X-6087360Y-6019610D02*
G02X-6145940Y-6074950I-30636J-26246D01*
G02X-6205380Y-6020640I-27942J29101D01*
G02X-6146800Y-5965300I30636J26246D01*
G02X-6087360Y-6019610I27942J-29101D01*
G37*
G36*
G01X-3396800Y-4868990D02*
G03X-3412870Y-4870200I-7570J-6778D01*
G02X-3418610Y-4819050I-33740J22111D01*
G03X-3402680Y-4816660I7047J7316D01*
G02X-3396800Y-4868990I39719J-22032D01*
G37*
G36*
G01X-3025180Y-4820160D02*
G03X-3033360Y-4834440I1083J-10103D01*
G02X-3079590Y-4807940I-41408J-18662D01*
G03X-3071410Y-4793660I-1083J10103D01*
G02X-3025180Y-4820160I41408J18662D01*
G37*
G36*
G01X-4232800Y-5058780D02*
G02X-4179610Y-5087690I39331J8977D01*
G02X-4232800Y-5058780I-39331J-8977D01*
G37*
G36*
G01X-5768600Y-5239560D02*
G03X-5759310Y-5253040I9599J-3326D01*
G02X-5803640Y-5283580I-1409J-45399D01*
G03X-5812930Y-5270100I-9599J3326D01*
G02X-5768600Y-5239560I1409J45399D01*
G37*
G36*
G01X-1936580Y-5471950D02*
G03Y-5488050I6206J-8050D01*
G02X-1985820I-24620J-31950D01*
G03Y-5471950I-6206J8050D01*
G02Y-5408050I24620J31950D01*
G03Y-5391950I-6206J8050D01*
G02X-1936580I24620J31950D01*
G03Y-5408050I6206J-8050D01*
G02Y-5471950I-24620J-31950D01*
G37*
G36*
G01X-4006070Y-5487980D02*
G03X-4004020Y-5503310I7556J-6792D01*
G02X-4055890Y-5510220I-21880J-33890D01*
G03X-4057940Y-5494890I-7556J6792D01*
G02X-4006070Y-5487980I21880J33890D01*
G37*
G36*
G01X-4151820Y-5491430D02*
G03Y-5506770I6665J-7670D01*
G02X-4204780I-26480J-30430D01*
G03Y-5491430I-6665J7670D01*
G02X-4151820I26480J30430D01*
G37*
G36*
G01X-4304220D02*
G03Y-5506770I6665J-7670D01*
G02X-4357180I-26480J-30430D01*
G03Y-5491430I-6665J7670D01*
G02X-4304220I26480J30430D01*
G37*
G36*
G01X-4456620D02*
G03Y-5506770I6665J-7670D01*
G02X-4509580I-26480J-30430D01*
G03Y-5491430I-6665J7670D01*
G02X-4456620I26480J30430D01*
G37*
G36*
G01X-2975980Y-6220200D02*
G03X-2976010Y-6205470I-7010J7351D01*
G02X-2890720Y-6126920I39881J42276D01*
G03X-2874840I7940J6346D01*
G02X-2789320Y-6205260I45401J-36287D01*
G03X-2789290Y-6219990I7010J-7351D01*
G02X-2874580Y-6298540I-39881J-42276D01*
G03X-2890460I-7940J-6346D01*
G02X-2975980Y-6220200I-45401J36287D01*
G37*
G36*
G01X-2724900Y-6650840D02*
G03X-2724930Y-6636110I-7010J7351D01*
G02X-2644920Y-6635900I39894J42269D01*
G03X-2644890Y-6650630I7010J-7351D01*
G02X-2724900Y-6650840I-39894J-42269D01*
G37*
G36*
G01X-1755280Y-6929630D02*
G02X-1813390Y-6983700I-33980J-21742D01*
G02X-1870400Y-6928000I-24130J32328D01*
G02X-1812290Y-6873930I33980J21742D01*
G02X-1755280Y-6929630I24130J-32328D01*
G37*
G36*
G01X-3054780Y-6959290D02*
G03X-3070240Y-6961870I-6665J-7669D01*
G02X-3065820Y-6883290I-75391J43655D01*
G03X-3050750Y-6887580I9306J4077D01*
G02X-3054780Y-6959290I25750J-37415D01*
G37*
G36*
G01X-4236900Y-7025050D02*
G02X-4295340Y-6970560I-25404J31338D01*
G02X-4239260Y-6913020I30672J26205D01*
G02X-4188460I25400J-31340D01*
G02X-4130020Y-6967510I25404J-31338D01*
G02X-4186100Y-7025050I-30672J-26205D01*
G02X-4236900I-25400J31340D01*
G37*
G36*
G01X-3413150Y-4970630D02*
G02X-3413250Y-4925420I-33460J22531D01*
G03X-3396420Y-4925380I8401J5714D01*
G02X-3396320Y-4970590I33460J-22531D01*
G03X-3413150Y-4970630I-8401J-5714D01*
G37*
G36*
G01X-3407290Y-5093100D02*
G02X-3407970Y-5043000I-38221J24536D01*
G03X-3391020Y-5042770I8399J5719D01*
G02X-3390340Y-5092870I38221J-24536D01*
G03X-3407290Y-5093100I-8399J-5719D01*
G37*
G36*
G01X-3653520Y-5100690D02*
G02Y-5054230I-53280J23230D01*
G03X-3635660Y-5055660I9312J4060D01*
G02Y-5099260I33940J-21800D01*
G03X-3653520Y-5100690I-8548J-5490D01*
G37*
G36*
G01X-3913600Y-5162460D02*
G02X-3967030Y-5092480I-35599J28207D01*
G03X-3963660Y-5076120I-3984J9348D01*
G02X-3898320Y-5066220I29203J27830D01*
G03X-3888670Y-5080880I9101J-4515D01*
G02X-3913600Y-5162460I2468J-45353D01*
G37*
G36*
G01X-3470680Y-5710700D02*
G02X-3499300Y-5746230I16277J-42403D01*
G03X-3515260Y-5736440I-10043J1532D01*
G02X-3632940Y-5590150I-54748J76437D01*
G03X-3632470Y-5583090I-3401J3772D01*
G02X-3561610Y-5561280I30750J26110D01*
G03X-3557250Y-5566850I5052J-537D01*
G02X-3483650Y-5697190I-12751J-93150D01*
G03X-3470680Y-5710700I9331J-4023D01*
G37*
G36*
G01X-3306000Y-5805150D02*
G02X-3310310Y-5756200I-40210J21124D01*
G03X-3293290Y-5754700I8027J6226D01*
G02X-3288980Y-5803650I40210J-21124D01*
G03X-3306000Y-5805150I-8027J-6226D01*
G37*
G36*
G01X-3259880Y-6445230D02*
G02Y-6397950I-38780J23640D01*
G03X-3242520I8680J5285D01*
G02Y-6445230I38780J-23640D01*
G03X-3259880I-8680J-5285D01*
G37*
G36*
G01X-4022550Y-6665480D02*
G02X-4069890I-23670J-53080D01*
G03Y-6646920I-4139J9280D01*
G02X-4022550I23670J53080D01*
G03Y-6665480I4139J-9280D01*
G37*
G36*
G01X-2245840Y-3618000D02*
G02X-2172410Y-3617800I36642J26840D01*
G02X-2245840Y-3618000I-36642J-26840D01*
G37*
G36*
G01X-2090340Y-3700380D02*
G03X-2100960Y-3690320I-10159J-89D01*
G02X-2139800Y-3618250I-2093J45373D01*
G02X-2066660Y-3564370I36672J26801D01*
G03X-2052770Y-3566700I8156J6055D01*
G02X-2044000Y-3637830I22770J-33298D01*
G03X-2057670Y-3646920I-3520J-9530D01*
G02X-2057790Y-3648710I-45368J2142D01*
G03X-2048130Y-3659700I10125J-841D01*
G02X-2090340Y-3700380I-1870J-40298D01*
G37*
G36*
G01X-3068460Y-3708640D02*
G02X-3083200Y-3630020I-12555J38338D01*
G02X-3051850Y-3592860I40281J-2179D01*
G03X-3047940Y-3587180I-1119J4956D01*
G02X-2999090Y-3620740I39923J5779D01*
G03X-3003000Y-3626420I1119J-4956D01*
G02X-3012060Y-3658170I-39921J-5776D01*
G03X-3006430Y-3674650I7774J-6546D01*
G02X-2974640Y-3713860I-8548J-39423D01*
G03X-2969810Y-3718910I5080J24D01*
G02X-3012140Y-3759410I-1991J-40291D01*
G03X-3016970Y-3754360I-5080J-24D01*
G02X-3055180Y-3717440I1989J40291D01*
G03X-3068460Y-3708640I-10122J-854D01*
G37*
G36*
G01X-657920Y-4035000D02*
G02X-582080I37920J25000D01*
G02X-657920I-37920J-25000D01*
G37*
G36*
G01X-2984000Y-3014430D02*
G02X-3001870Y-3045050I22359J-33574D01*
G03X-3017640Y-3035850I-10135J744D01*
G02X-2999770Y-3005230I-22359J33574D01*
G03X-2984000Y-3014430I10135J-744D01*
G37*
G36*
G01X-1179560Y-3229250D02*
G02X-1198430Y-3266990I21320J-34248D01*
G03X-1213920Y-3259250I-10120J-882D01*
G02X-1195050Y-3221510I-21320J34248D01*
G03X-1179560Y-3229250I10120J882D01*
G37*
G36*
G01X-2000430Y-3285030D02*
G02X-2033510Y-3337010I5430J-39972D01*
G03X-2044570Y-3329970I-9699J-3029D01*
G02X-2087250Y-3274530I-5427J39971D01*
G03X-2092280Y-3261450I-9384J3898D01*
G02X-2059330Y-3187830I17280J36450D01*
G03X-2045240Y-3177770I3952J9362D01*
G02X-2020670Y-3212170I40243J2769D01*
G03X-2034760Y-3222230I-3952J-9362D01*
G02X-2037750Y-3240470I-40242J-2768D01*
G03X-2032720Y-3253550I9384J-3898D01*
G02X-2011490Y-3277990I-17280J-36451D01*
G03X-2000430Y-3285030I9699J3029D01*
G37*
G36*
G01X-3393890Y-3364680D02*
G02X-3423260Y-3398190I10607J-38922D01*
G03X-3436000Y-3387030I-10067J1360D01*
G02X-3406630Y-3353520I-10607J38922D01*
G03X-3393890Y-3364680I10067J-1360D01*
G37*
G36*
G01X-3036130Y-3485960D02*
G02X-3093190Y-3478520I-32186J-24320D01*
G03X-3092270Y-3471460I-3132J3998D01*
G02X-3064680Y-3407060I32187J24320D01*
G02X-3054890Y-3377090I40190J3456D01*
G02X-3054290Y-3322260I29890J27091D01*
G02X-3062680Y-3279620I29151J27881D01*
G03X-3073410Y-3265820I-9455J3720D01*
G02X-3104390Y-3194880I-5071J40020D01*
G02X-3104230Y-3149790I33531J22426D01*
G02X-3047820Y-3139350I23043J33111D01*
G02X-3044950Y-3203380I-23040J-33112D01*
G02X-3040940Y-3240560I-33531J-22423D01*
G03X-3030210Y-3254360I9455J-3720D01*
G02X-2995850Y-3322120I5071J-40020D01*
G02X-2994600Y-3376510I-29152J-27879D01*
G02X-3019890Y-3443680I-29890J-27092D01*
G02X-3035210Y-3478900I-40190J-3460D01*
G03X-3036130Y-3485960I3132J-3998D01*
G37*
G36*
G01X-3272690Y-4257090D02*
G02X-3310990I-19150J-35510D01*
G03Y-4239210I-4817J8940D01*
G02Y-4168190I19150J35510D01*
G03Y-4150310I-4817J8940D01*
G02Y-4079290I19150J35510D01*
G03Y-4061410I-4817J8940D01*
G02Y-3990390I19150J35510D01*
G03Y-3972510I-4817J8940D01*
G02X-3312190Y-3902170I19149J35507D01*
G03X-3312830Y-3884290I-5131J8768D01*
G02Y-3811910I17830J36190D01*
G03X-3312190Y-3794030I-4491J9112D01*
G02X-3310990Y-3723690I20349J34833D01*
G03Y-3705810I-4817J8940D01*
G02Y-3634790I19150J35510D01*
G03Y-3616910I-4817J8940D01*
G02Y-3545890I19150J35510D01*
G03Y-3528010I-4817J8940D01*
G02X-3272690I19150J35510D01*
G03Y-3545890I4817J-8940D01*
G02Y-3616910I-19150J-35510D01*
G03Y-3634790I4817J-8940D01*
G02Y-3705810I-19150J-35510D01*
G03Y-3723690I4817J-8940D01*
G02X-3274010Y-3795390I-19147J-35510D01*
G03X-3274650Y-3813270I4491J-9112D01*
G02Y-3882930I-20350J-34830D01*
G03X-3274010Y-3900810I5131J-8768D01*
G02X-3272690Y-3972510I-17827J-36190D01*
G03Y-3990390I4817J-8940D01*
G02Y-4061410I-19150J-35510D01*
G03Y-4079290I4817J-8940D01*
G02Y-4150310I-19150J-35510D01*
G03Y-4168190I4817J-8940D01*
G02Y-4239210I-19150J-35510D01*
G03Y-4257090I4817J-8940D01*
G37*
G36*
G01X-2989760Y-4048170D02*
G03X-2997810Y-4036490I-10012J1713D01*
G02X-2950240Y-4003740I7810J39579D01*
G03X-2942190Y-4015420I10012J-1713D01*
G02X-2989760Y-4048170I-7810J-39579D01*
G37*
G36*
G01X-3045130Y-4337250D02*
G03X-3049390Y-4332420I-5077J-184D01*
G02X-3042130Y-4252270I6470J39818D01*
G03X-3037010Y-4248010I105J5081D01*
G02X-2983370Y-4216600I39815J-6487D01*
G03X-2976970Y-4213860I1745J4769D01*
G02X-2975860Y-4211530I36954J-16175D01*
G03X-2980560Y-4204130I-4517J2324D01*
G02X-2943710Y-4176620I-1404J40316D01*
G03X-2935270Y-4189940I9634J-3229D01*
G02X-2953830Y-4267900I-4735J-40062D01*
G03X-2960230Y-4270640I-1745J-4769D01*
G02X-2976600Y-4289180I-36968J16144D01*
G03X-2978130Y-4305530I5194J-8733D01*
G02X-3045130Y-4337250I-26687J-30250D01*
G37*
G36*
G01X-1956670Y-4485000D02*
G03X-1956270Y-4491680I4015J-3112D01*
G02X-2016910Y-4495320I-28729J-28319D01*
G03X-2017310Y-4488640I-4015J3112D01*
G02X-1955800Y-4436810I28730J28318D01*
G03X-1939990Y-4437680I8255J5923D01*
G02X-1946010Y-4482850I29989J-26983D01*
G03X-1954800Y-4482360I-4536J-2288D01*
G02X-1956670Y-4485000I-33825J21977D01*
G37*
G36*
G01X-1657500Y-4619510D02*
G02Y-4560490I-27500J29510D01*
G02Y-4619510I27500J-29510D01*
G37*
G36*
G01X74530Y-5541630D02*
G02X85070Y-5607970I35470J-28372D01*
G02X24600Y-5617520I-35470J28370D01*
G02X-25400I-25000J37920D01*
G02Y-5541680I-25000J37920D01*
G02X24600I25000J-37920D01*
G02X74530Y-5541630I25003J-37920D01*
G37*
G36*
G01X64840Y-5900160D02*
G03X58100I-3370J-3802D01*
G02X40490Y-5822550I-30161J33959D01*
G03X52740Y-5809060I2799J9765D01*
G02X128970Y-5822550I42257J16659D01*
G03Y-5836050I7593J-6750D01*
G02X64840Y-5900160I-33971J-30148D01*
G37*
G36*
G01X-1042130Y-6221880D02*
G03X-1040380Y-6204840I-4561J9078D01*
G02X-970280Y-6003400I70100J88523D01*
G01X-690880D01*
G02X-602000Y-6046670I0J-112918D01*
G03X-586870Y-6047640I7998J6266D01*
G02X-566480Y-6123950I31870J-32364D01*
G03X-579100Y-6132340I-2565J-9828D01*
G02X-690880Y-6229240I-111780J16022D01*
G01X-817320D01*
G03X-826100Y-6244520I-2J-10161D01*
G02X-926500I-50200J-29280D01*
G03X-935280Y-6229240I-8778J5119D01*
G01X-957020D01*
G03X-965800Y-6244520I-2J-10161D01*
G02X-1042130Y-6221880I-50207J-29278D01*
G37*
G36*
G01X-1902290Y-4069470D02*
G02X-1939800Y-4060800I-26739J-30208D01*
G03X-1935780Y-4043410I-2715J9787D01*
G02X-1938880Y-4040350I26749J30199D01*
G03X-1954880Y-4041600I-7515J-6837D01*
G02X-1958740Y-3992280I-33700J22174D01*
G03X-1942740Y-3991030I7515J6837D01*
G02X-1898270Y-4052080I33701J-22173D01*
G03X-1902290Y-4069470I2715J-9787D01*
G37*
G36*
G01X-1461810Y-4546060D02*
G02X-1480340Y-4579750I21811J-33937D01*
G03X-1495990Y-4571140I-10158J64D01*
G02X-1555810Y-4523690I-21809J33937D01*
G03X-1566310Y-4510170I-9574J3402D01*
G02X-1599960Y-4497020I-3696J40172D01*
G03X-1615040I-7540J-6803D01*
G02X-1662830Y-4506190I-29959J27018D01*
G03X-1669630Y-4508500I-2245J-4556D01*
G02X-1688010Y-4454530I-36210J17783D01*
G03X-1681210Y-4452220I2245J4556D01*
G02X-1615040Y-4442980I36213J-17778D01*
G03X-1599960I7540J6803D01*
G02X-1531990Y-4483510I29960J-27016D01*
G03X-1521490Y-4497030I9574J-3402D01*
G02X-1507890Y-4498100I3682J-40170D01*
G03X-1495260Y-4487590I2492J9850D01*
G02X-1464910Y-4524100I40256J2595D01*
G03X-1477540Y-4534610I-2492J-9850D01*
G02X-1477460Y-4537450I-40261J-2555D01*
G03X-1461810Y-4546060I10158J-64D01*
G37*
G36*
G01X-2251470Y-4838050D02*
G02X-2284600Y-4810020I-38531J-11948D01*
G03X-2273530Y-4796950I1366J10066D01*
G02X-2240400Y-4824980I38531J11948D01*
G03X-2251470Y-4838050I-1366J-10066D01*
G37*
G36*
G01X-1625820Y-5104760D02*
G02X-1645610Y-5140420I20540J-34720D01*
G03X-1660940Y-5131920I-10156J-243D01*
G02X-1641150Y-5096260I-20540J34720D01*
G03X-1625820Y-5104760I10156J243D01*
G37*
G36*
G01X-2599760Y-146720D02*
G02Y-196720I-37920J-25000D01*
G02X-2675600I-37920J-25000D01*
G02Y-146720I37920J25000D01*
G02X-2599760I37920J25000D01*
G37*
G54D25*
X-6984560Y357400D03*
X-3977680Y-361720D03*
X-8224990Y-1795310D03*
X-6822440Y-3911600D03*
X-7072710Y-3794760D03*
X-6604000Y-3771900D03*
X-6971110Y-3796500D03*
X-6850380Y-2387600D03*
X-6930130Y-2229870D03*
X-6466840Y-3535680D03*
X-6390640Y-2446020D03*
X-6311900Y-3073400D03*
X-6510000Y-1595800D03*
X-5440000Y-2620000D03*
X-5511900Y-2158010D03*
X-4152030Y-1990490D03*
X-3018540Y-2018510D03*
X-3185000Y-2150000D03*
X-2459360Y-2395400D03*
X-2133600Y-2542540D03*
X-2373600Y-2749580D03*
X-2453640Y-2011680D03*
X251460Y-5245100D03*
X-6766560Y-4617720D03*
X-5176520Y-5811520D03*
X-5220500Y-5996430D03*
X-5114810Y-6103620D03*
X-5412730Y-5905510D03*
X-6180600Y-5287500D03*
X-5839200Y-4556500D03*
X-5836920Y-4426500D03*
X-5825580Y-4296500D03*
X-5729870Y-5501640D03*
X-5735910Y-5638800D03*
X-5315120Y-5129700D03*
X-3667760Y-6586220D03*
X-4023360Y-6870700D03*
X-3900930Y-5514340D03*
X-4055860Y-5304790D03*
X-3285620Y-6837680D03*
X-3451860Y-6223000D03*
X-2880000Y-5430000D03*
X-3467100Y-5438140D03*
X-2973070Y-5990590D03*
X-3154680Y-5989170D03*
X-3101850Y-5613910D03*
X-3413300Y-5565600D03*
X-3065000Y-5181600D03*
X-2339340Y-6250940D03*
X-2144780D03*
X-2720000Y-5806440D03*
X-3334020Y-4446000D03*
X-2381180Y-3275400D03*
X-1750000Y-3550000D03*
X-1470000Y-3560000D03*
X-760000Y-3900000D03*
X-960000Y-3740000D03*
X-1230000Y-3770000D03*
X-1424940Y-5031740D03*
X-1386990Y-4805000D03*
X-1640000Y-4930000D03*
X-570230Y-5888990D03*
X-715010Y-5325110D03*
X-88900Y-6414260D03*
X228600Y-6421120D03*
X251460Y-5509260D03*
X254000Y-5694680D03*
X235150Y-6060970D03*
G54D23*
X-8346440Y-4699000D03*
X-8290560Y-4772660D03*
X-8740000Y-2550000D03*
X-8725000Y-1346200D03*
X-8011160Y-4699000D03*
X-7719060Y-3916680D03*
X-7495540Y579120D03*
X-7647940Y581660D03*
X-8476240Y-3534100D03*
Y-3434100D03*
Y-3334100D03*
X-8375440Y-3284100D03*
Y-3384100D03*
X-8379460Y-3538220D03*
X-8476240Y-3234100D03*
X-8273580Y-2375000D03*
X-8350000Y-2265000D03*
X-8085000Y-2684100D03*
X-7710000Y-2933800D03*
X-7811400Y-2781400D03*
X-7807760Y-2690000D03*
X-7790000Y-2270000D03*
X-6758940Y-3802380D03*
X-7250000Y-3040000D03*
X-7219100Y-2940000D03*
X-7159100Y-2000000D03*
X-6390000Y-4260000D03*
Y-4040000D03*
X-6497320Y-4284980D03*
X-6465000Y-4395800D03*
X-6311900Y-3406140D03*
X-6512580Y-2484100D03*
X-6042660Y-2547620D03*
X-6035040Y-2717800D03*
X-5646590Y-4948090D03*
Y-4848090D03*
X-5346590Y-2748110D03*
X-5646590D03*
X-5546590D03*
X-5446590D03*
Y-2848110D03*
X-5646590D03*
X-5546590D03*
X-5455920Y-1559560D03*
X-4550000Y-2052320D03*
X-4047550Y-2379680D03*
X-3903980Y-2357120D03*
X-3810000Y-2352040D03*
X-3670300Y-2349500D03*
X-4185920Y-2171700D03*
Y-2298700D03*
X-3479800Y-2379980D03*
X-2073730Y-2716990D03*
X-2199120D03*
X-1790000Y-2535000D03*
X-1975730Y-2351650D03*
X-1913010Y-2716270D03*
X-1947750Y-2103550D03*
X-1859890Y-2168550D03*
X-7299180Y-4529600D03*
X-4794250Y-5965190D03*
X-4913630Y-6005830D03*
X-5960600Y-5653260D03*
X-6016840Y-3175000D03*
X-5803900Y-5384800D03*
X-5446590Y-4748090D03*
X-5246590D03*
X-5346590D03*
Y-4648090D03*
X-5246590D03*
X-5446590Y-4148090D03*
X-5546590Y-4048090D03*
X-5646590D03*
X-5446590Y-3948090D03*
X-5546590Y-4248090D03*
X-5246590Y-4548090D03*
X-5146590Y-4548060D03*
X-5246590Y-4448090D03*
X-5446590Y-3548110D03*
X-5791200Y-3505200D03*
X-5646590Y-3748110D03*
X-5546590D03*
X-5446590Y-3648110D03*
X-5646590Y-3548110D03*
X-5546590D03*
X-5646590Y-3448110D03*
X-5546590D03*
X-5446590D03*
Y-3348110D03*
X-5546590D03*
X-5646590D03*
X-5446590Y-3248110D03*
X-5546590D03*
X-5646590D03*
X-5446590Y-3148110D03*
X-5546590D03*
X-5770480Y-3139440D03*
X-4594860Y-6720840D03*
Y-6192520D03*
X-4518660Y-5963920D03*
X-4785360Y-5186680D03*
X-4746590Y-4648090D03*
X-4446610Y-4948090D03*
X-4346610Y-4848090D03*
Y-4748090D03*
Y-4648090D03*
X-5046590Y-4948090D03*
X-4946590D03*
X-4746590Y-4848090D03*
Y-4748090D03*
X-4053840Y-7292340D03*
X-3680460Y-6697980D03*
X-3935000Y-5985000D03*
X-3985260Y-5370310D03*
X-3846610Y-4948090D03*
X-3646610D03*
X-3546610D03*
Y-4848090D03*
X-3646610D03*
X-3546610Y-4748090D03*
X-3646610D03*
X-3746610D03*
X-3846610D03*
Y-4648090D03*
X-3746610D03*
X-3646610D03*
X-3546610D03*
X-4246610Y-4948090D03*
X-4146610D03*
X-4046610D03*
X-3946610D03*
Y-4848090D03*
X-4046610D03*
X-4146610D03*
X-4246610D03*
X-3946610Y-4748090D03*
X-4046610D03*
X-4146610D03*
X-4246610D03*
Y-4648090D03*
X-4146610D03*
X-4046610D03*
X-3846610Y-4848090D03*
X-3040000Y-6480000D03*
X-2895000Y-4725000D03*
X-3063240Y-4953000D03*
Y-5067300D03*
X-3446610Y-4748090D03*
X-3395520Y-5341160D03*
X-2189480Y-7076440D03*
X-2210000Y-5520000D03*
Y-5400000D03*
X-1947720Y-7252160D03*
X-5143500Y-4249420D03*
X-5146590Y-3948090D03*
Y-4148090D03*
Y-4048090D03*
Y-3748110D03*
Y-3648110D03*
Y-3448110D03*
Y-3348110D03*
Y-3548110D03*
Y-3248110D03*
Y-3148110D03*
Y-3048110D03*
Y-2948110D03*
Y-2848110D03*
X-5046610Y-4148090D03*
Y-4048090D03*
X-4346610Y-4448110D03*
X-5046590Y-4348110D03*
X-4846590Y-3948090D03*
X-4346610Y-4348110D03*
X-4646590Y-4048090D03*
X-4446610D03*
X-4346610D03*
X-4446610Y-3948090D03*
X-4346610D03*
X-4646590Y-4148090D03*
X-4446610D03*
X-4346610D03*
X-4746590D03*
Y-3948090D03*
X-4646590Y-4448090D03*
X-4446610D03*
X-4846590Y-4048090D03*
X-4746590D03*
X-4846590Y-4148090D03*
X-4646590Y-3948090D03*
X-4746590Y-4348110D03*
X-4846590Y-4448090D03*
X-4946590D03*
X-5042800Y-3658270D03*
X-5046590Y-3148110D03*
X-4646590Y-3248110D03*
X-4946590D03*
X-4546590D03*
X-4446590D03*
X-4346590D03*
X-4846590D03*
X-4546610Y-3148110D03*
X-4846590Y-3348090D03*
X-4346610D03*
X-4646590D03*
X-4446610D03*
X-4746590Y-3648110D03*
X-4646590Y-3548110D03*
X-4746590D03*
X-4846590D03*
X-4946590Y-3348090D03*
X-4346610Y-3548110D03*
X-4646590Y-3648110D03*
X-4446610D03*
X-4346610D03*
X-4746590Y-3248110D03*
X-5046590D03*
X-4646590Y-3748110D03*
X-4446610D03*
X-4346610D03*
Y-3148110D03*
X-4446610D03*
X-4746590D03*
X-4846590D03*
X-4946590D03*
X-4846590Y-3648110D03*
Y-3748110D03*
X-4746590D03*
X-4446610Y-3548110D03*
X-4346610Y-3048110D03*
X-4446610D03*
X-4746590D03*
X-4846590D03*
X-4946590D03*
X-5046590D03*
X-4646590Y-2948110D03*
X-4446610D03*
X-4346610D03*
X-5046590D03*
X-4946590D03*
X-4846590D03*
X-4746590D03*
X-4346610Y-2748110D03*
X-4446610D03*
X-4646590D03*
X-4746590D03*
X-4846590D03*
X-4946590D03*
X-5046590D03*
X-4646590Y-2848110D03*
X-4446610D03*
X-4346610D03*
X-5046590D03*
X-4946590D03*
X-4846590D03*
X-4746590D03*
X-4146610Y-4448110D03*
X-4246610Y-4348110D03*
Y-3948090D03*
Y-4148090D03*
X-4146610Y-4348110D03*
X-3846610Y-4448090D03*
X-3746610D03*
X-3646610D03*
X-3546610D03*
X-3846610Y-4348090D03*
X-3646610D03*
X-3546610D03*
Y-4248090D03*
X-3846610D03*
X-3746610D03*
X-3646610Y-4148090D03*
X-3546610D03*
X-3846610D03*
X-3746610D03*
X-3546610Y-4048090D03*
X-3846610D03*
X-3746610D03*
X-3646610Y-3948090D03*
X-3546610D03*
X-3846610D03*
X-3746610D03*
X-4046590Y-4248090D03*
X-3946610Y-4348090D03*
Y-4148090D03*
Y-4048090D03*
Y-3948090D03*
X-4246610Y-4048090D03*
X-4246590Y-3248110D03*
X-3546610Y-3848090D03*
X-3746610Y-3748110D03*
X-3846610D03*
X-3946610D03*
X-3546610D03*
X-3646610D03*
X-3746610Y-3648110D03*
X-3546610D03*
X-3646610D03*
X-3746610Y-3548110D03*
X-3846610D03*
X-3946610D03*
X-3546610D03*
X-3646610D03*
X-3746610Y-3448110D03*
X-3546610D03*
X-3646610D03*
X-4246610Y-3548110D03*
X-3546610Y-3348110D03*
X-3646610D03*
X-3746610D03*
X-3846610D03*
X-3946610D03*
X-4246610Y-3648110D03*
X-3546610Y-3248110D03*
X-3646610D03*
X-3746610D03*
X-4046610D03*
X-3946610D03*
X-4246610Y-3748110D03*
X-3646610Y-3148110D03*
X-3746610D03*
X-3846610D03*
X-3946610D03*
X-4046610D03*
X-4146610D03*
X-4246610D03*
X-4146610Y-3248110D03*
X-3946610Y-3648110D03*
Y-3448110D03*
X-4046610Y-3348090D03*
X-3646610Y-3048110D03*
X-3546610D03*
X-3746610D03*
X-3846610D03*
X-3946610D03*
X-4046610D03*
X-4146610D03*
X-4246610D03*
X-3846610Y-2948110D03*
X-3746610D03*
X-3646610D03*
X-3546610D03*
X-4246610D03*
X-4146610D03*
X-4046610D03*
X-3946610D03*
X-3846610Y-2748110D03*
X-3546610D03*
X-3846610Y-2848110D03*
X-3746610D03*
X-3546610D03*
X-3946610D03*
X-3446610Y-4348090D03*
Y-4248090D03*
Y-4048090D03*
Y-3948090D03*
X-3075000Y-3805000D03*
X-2969260Y-3154680D03*
X-3350260Y-3314700D03*
X-3291840Y-3225800D03*
X-3446610Y-3648110D03*
Y-3548110D03*
X-3312540Y-3047620D03*
X-3324860Y-2870200D03*
X-3446610Y-2848110D03*
X-2260000Y-3790000D03*
X-1841500Y-3362960D03*
X-949960Y-3840480D03*
X-800000Y-3800000D03*
X-1157840Y-3362160D03*
Y-3517500D03*
Y-3644500D03*
X-3070000Y-4045000D03*
X-2182620Y-4862830D03*
X-2321560Y-4688840D03*
X-2285000Y-4472940D03*
X-2196990Y-4571320D03*
X-2239240Y-4069080D03*
X-1958100Y-4729820D03*
X-1570000Y-5050000D03*
X-1705300Y-4777200D03*
X-1938020Y-4841240D03*
X-1940560Y-4610100D03*
X-208280Y-5910580D03*
X-2641600Y-762000D03*
X-637540Y-1026160D03*
X-650240Y-391160D03*
G54D28*
X-247000Y-3173000D03*
G54D26*
X-8140700Y-2484100D03*
X-7124700D03*
G54D24*
X-8234680Y-4099560D03*
X-6096000Y-4701540D03*
X-6160000Y-2138180D03*
X-4720000Y-2165940D03*
X-4426350Y-2137810D03*
X-4106800Y-1719200D03*
X-3760400Y-2043500D03*
X-3052100Y-2386460D03*
X-1313960Y-2472980D03*
X-1446040D03*
X-590000Y-2885000D03*
X-775000Y-2480000D03*
X-590000D03*
X-1158240Y-2748280D03*
X-525000Y-2205000D03*
X-248920Y-5227320D03*
X-244390Y-4729480D03*
X-6502100Y-5689600D03*
X-5859700Y-5900500D03*
X-4914900Y-5702300D03*
X-4564900Y-5003800D03*
X-4064000Y-5156200D03*
X-2934760Y-5807500D03*
X-3097860Y-5395900D03*
X-3345200Y-4666000D03*
X-2538930Y-7265420D03*
X-2411930D03*
X-2686240Y-7264010D03*
X-2685040Y-7018780D03*
X-2370000Y-5480000D03*
X-2560000Y-5490000D03*
X-2475000Y-5655000D03*
X-2265000Y-5650000D03*
X-2730500Y-5692140D03*
X-2700020Y-3482340D03*
X-2628900Y-3685540D03*
X-2520000Y-3149600D03*
X-1620000Y-3150000D03*
X-1701800Y-3274060D03*
X-1536700D03*
X-2270000Y-4360000D03*
X-1155810Y-6553280D03*
X-1155700Y-6413500D03*
Y-6273800D03*
X-95000Y-6100000D03*
G54D29*
X-3585630Y-6918210D03*
G54D30*
X-3570000Y-5860000D03*
G54D32*
X-830580Y-6715760D03*
G54D31*
X-360680Y-6416040D03*
G54D27*
X-2990000Y-2240000D03*
X-6670040Y-5735320D03*
%LPD*%
G75*
G54D10*
X-8476240Y-3334100D03*
Y-3534100D03*
Y-3234100D03*
Y-3434100D03*
Y-2984100D03*
X-8740000Y-2550000D03*
X-8476100Y-2621280D03*
X-8724900Y-1938460D03*
X-8719820Y-1699260D03*
X-8724900Y-1877060D03*
X-8727440Y-1755140D03*
X-8730510Y-1646680D03*
X-8719820Y-1590040D03*
X-8727440Y-1813560D03*
X-8725000Y-1346200D03*
X-8724900Y-868680D03*
Y-924560D03*
X-8719820Y-797560D03*
X-8141970Y-7181850D03*
X-8087360Y-7371080D03*
X-8133080D03*
X-8087360Y-7325360D03*
X-8133080D03*
X-8085230Y-6971840D03*
X-8128410D03*
X-8084820Y-6929120D03*
X-8128000D03*
X-8276810Y-5757300D03*
X-8325070D03*
X-8375870D03*
X-8276810Y-5711580D03*
X-8325070D03*
X-8375870D03*
X-8277860Y-5666740D03*
X-8326120D03*
X-8376920D03*
X-8290560Y-4772660D03*
X-8346440Y-4699000D03*
X-8365110Y-4977790D03*
X-8410830D03*
X-8365110Y-4932070D03*
X-8410830D03*
X-8364220Y-4886960D03*
X-8409940D03*
X-8379460Y-3538220D03*
X-8375440Y-3384100D03*
Y-3284100D03*
X-8194680Y-2890000D03*
X-8371840Y-2971800D03*
X-8473440Y-3045000D03*
X-8356600Y-3045460D03*
X-8417560D03*
X-8254100Y-2834100D03*
X-8273580Y-2375000D03*
X-8471860Y-2384100D03*
X-8439560Y-2540000D03*
X-8416080Y-2387600D03*
X-8085000Y-2684100D03*
X-8285000Y-2734310D03*
X-8194680Y-2735000D03*
X-8422480Y-2334100D03*
X-8350000Y-2265000D03*
X-8215000Y-1545800D03*
X-8249870Y-1495720D03*
X-8225000Y-1295000D03*
X-8300000Y-1295800D03*
X-8409320Y-1390000D03*
X-8303260Y-1054100D03*
X-8145000Y-1145800D03*
X-8255000Y-1195800D03*
X-8191500Y-1390000D03*
X-8335000Y-845820D03*
X-8405000Y-900000D03*
X-8384540Y-792480D03*
X-8295000Y-965000D03*
X-8355000Y-965200D03*
X-7781120Y-7379850D03*
Y-7334130D03*
X-7735400D03*
Y-7379850D03*
X-7713980Y-6126480D03*
Y-6217920D03*
Y-6169660D03*
X-7657670Y-5920430D03*
X-7703390D03*
X-7657670Y-5874710D03*
X-7703390D03*
X-7658100Y-5826760D03*
X-7703820D03*
X-8011160Y-4699000D03*
X-7815580Y-4386580D03*
X-7861300D03*
X-7907020D03*
X-7815580Y-4340860D03*
X-7861300D03*
X-7907020D03*
X-7719060Y-3916680D03*
X-7710000Y-2933800D03*
X-7811400Y-2781400D03*
X-7807760Y-2690000D03*
X-7790000Y-2270000D03*
X-7647940Y581660D03*
X-7366000Y-6327140D03*
X-7411720D03*
X-7366000Y-6278880D03*
X-7411720D03*
X-7322820Y-4886300D03*
X-7447280Y-4693920D03*
X-7299180Y-4529600D03*
X-7250000Y-3040000D03*
X-7219100Y-2940000D03*
X-7159100Y-2000000D03*
X-7495540Y579120D03*
X-7048500Y-7167880D03*
X-7071360Y-6677660D03*
X-6758940Y-3802380D03*
X-6814200Y-795800D03*
X-6875000Y-845800D03*
X-6654800Y-5303520D03*
X-6329680Y-4612640D03*
X-6465000Y-4395800D03*
X-6497320Y-4284980D03*
X-6390000Y-4490000D03*
Y-4260000D03*
X-6298800Y-4264000D03*
X-6390000Y-4040000D03*
X-6311900Y-3406140D03*
X-6461760Y-3060700D03*
X-6512580Y-2484100D03*
X-6450000Y-1845800D03*
X-6525280Y-1795800D03*
X-6520000Y-825000D03*
X-6294120Y403860D03*
X-6176260Y-7250180D03*
X-6206180Y-6764550D03*
X-6156960Y-7056120D03*
X-6200140D03*
X-6201700Y-7010950D03*
X-6158520D03*
X-6210300Y-7155180D03*
X-6205020Y-6721390D03*
X-5861720Y-6614160D03*
X-6173880Y-6045850D03*
X-6118000D03*
X-6118860Y-5994400D03*
X-6174740D03*
X-5960600Y-5653260D03*
X-6210000Y-4270000D03*
X-5918200Y-3845560D03*
X-6018010Y-3378200D03*
X-6016840Y-3175000D03*
X-6042660Y-2547620D03*
X-6035040Y-2717800D03*
X-6248400Y403860D03*
X-5460000Y-6330000D03*
X-5803900Y-5384800D03*
X-5446590Y-4948090D03*
X-5646590Y-4848090D03*
X-5546590Y-4948090D03*
X-5446590Y-4748090D03*
X-5546590Y-4848090D03*
X-5646590Y-4948090D03*
X-5446590Y-4848090D03*
X-5546590Y-4248090D03*
X-5446590Y-4148090D03*
X-5646590Y-3748110D03*
X-5546590D03*
X-5446590Y-3948090D03*
X-5646590Y-4048090D03*
X-5546590D03*
X-5791200Y-3505200D03*
X-5546590Y-3248110D03*
Y-3448110D03*
Y-3348110D03*
X-5646590Y-3448110D03*
Y-3348110D03*
X-5446590D03*
Y-3248110D03*
X-5646590D03*
Y-3548110D03*
X-5446590Y-3448110D03*
Y-3648110D03*
X-5546590Y-3548110D03*
X-5446590D03*
X-5546590Y-2948110D03*
X-5446590Y-3148110D03*
Y-3048110D03*
X-5646590Y-2948110D03*
X-5770480Y-3139440D03*
X-5546590Y-3148110D03*
X-5646590Y-2848110D03*
Y-3048110D03*
X-5546590D03*
X-5446590Y-2948110D03*
X-5546590Y-2848110D03*
X-5446590D03*
Y-2748110D03*
X-5646590D03*
X-5546590D03*
X-5455920Y-1559560D03*
X-5461000Y-165100D03*
X-5537200Y563880D03*
Y507400D03*
X-5588600D03*
X-5186680Y-7218680D03*
Y-7272020D03*
Y-7325360D03*
X-5236210Y-6762750D03*
X-5184140Y-7162800D03*
X-5083810Y-6709410D03*
X-4970780Y-6631940D03*
X-5046590Y-4548090D03*
Y-4948090D03*
X-5246590Y-4548090D03*
X-5146590Y-4548060D03*
X-5346590Y-4648090D03*
X-5246590D03*
Y-4748090D03*
X-5346590D03*
X-5246590Y-4348090D03*
Y-4448090D03*
Y-4248090D03*
X-5046590Y-4348110D03*
X-5046610Y-4148090D03*
X-5146590D03*
Y-4448090D03*
Y-4348090D03*
X-5046590Y-4448110D03*
X-5246590Y-4148090D03*
X-5143500Y-4249420D03*
X-5146590Y-3748110D03*
X-5246590D03*
Y-3948090D03*
X-5146590D03*
X-5246590Y-4048090D03*
X-5146590D03*
X-5046610D03*
X-5346590Y-3948090D03*
X-5246590Y-3248110D03*
X-5346590Y-3448110D03*
Y-3348110D03*
Y-3248110D03*
X-5146590Y-3648110D03*
X-5246590D03*
X-5046590Y-3248110D03*
X-5042800Y-3658270D03*
X-5246590Y-3548110D03*
X-5146590D03*
Y-3248110D03*
Y-3348110D03*
X-5246590D03*
Y-3448110D03*
X-5346590Y-3648110D03*
X-5146590Y-3448110D03*
X-5346590Y-3148110D03*
X-5046590Y-2848110D03*
Y-3048110D03*
X-5146590D03*
X-5246590Y-2848110D03*
X-5146590Y-2948110D03*
X-5246590D03*
X-5046590D03*
X-5146590Y-2848110D03*
X-5346590D03*
X-5146590Y-3148110D03*
X-5346590Y-3048110D03*
Y-2948110D03*
X-5246590Y-3048110D03*
X-5046590Y-3148110D03*
X-5246590D03*
X-5046590Y-2748110D03*
X-5146590D03*
X-5346590D03*
X-5246590D03*
X-5350000Y-980000D03*
X-5097780Y-342900D03*
X-4594860Y-6720840D03*
X-4846320Y-6616700D03*
X-4913630Y-6005830D03*
X-4658360Y-5930900D03*
X-4861560Y-6083300D03*
X-4794250Y-5965190D03*
X-4594860Y-6192520D03*
X-4785360Y-5186680D03*
X-4851400Y-5334000D03*
X-4746590Y-4848090D03*
Y-4748090D03*
Y-4648090D03*
X-4646590Y-4548090D03*
X-4946590D03*
X-4846590D03*
X-4946590Y-4948090D03*
X-4746590Y-4548090D03*
Y-4348110D03*
X-4846590Y-4448090D03*
X-4946590D03*
X-4646590Y-4148090D03*
X-4746590D03*
X-4846590D03*
X-4646590Y-4448090D03*
Y-3748110D03*
X-4746590D03*
X-4846590D03*
X-4646590Y-3948090D03*
Y-4048090D03*
X-4746590Y-3948090D03*
Y-4048090D03*
X-4846590D03*
Y-3948090D03*
X-4946590Y-3348090D03*
X-4846590D03*
X-4646590D03*
Y-3548110D03*
Y-3648110D03*
X-4746590Y-3548110D03*
Y-3648110D03*
X-4846590Y-3548110D03*
Y-3648110D03*
X-4746590Y-3248110D03*
X-4646590D03*
X-4546590D03*
X-4946590D03*
X-4846590D03*
X-4646590Y-2848110D03*
X-4846590Y-3048110D03*
X-4946590Y-2848110D03*
X-4846590Y-2948110D03*
Y-2848110D03*
X-4746590Y-3048110D03*
Y-2848110D03*
X-4946590Y-2948110D03*
X-4746590D03*
X-4946590Y-3048110D03*
X-4646590Y-2948110D03*
X-4946590Y-3148110D03*
X-4746590D03*
X-4846590D03*
X-4546610D03*
X-4846590Y-2748110D03*
X-4746590D03*
X-4646590D03*
X-4946590D03*
X-4550000Y-2052320D03*
X-4160700Y-6993710D03*
X-4211500D03*
X-4262300D03*
X-4163060Y-6944360D03*
X-4213860D03*
X-4264660D03*
X-4518660Y-5963920D03*
X-4330700Y-5537200D03*
Y-5461000D03*
X-4178300D03*
X-4483100Y-5537200D03*
X-4178300D03*
X-4483100Y-5461000D03*
X-4218940Y-5096670D03*
X-4193470Y-5049800D03*
X-4146610Y-4948090D03*
X-4246610D03*
Y-4648090D03*
Y-4848090D03*
Y-4748090D03*
X-4146610Y-4648090D03*
X-4446610Y-4548090D03*
X-4146610Y-4748090D03*
X-4346610Y-4848090D03*
X-4146610D03*
X-4346610Y-4648090D03*
Y-4748090D03*
X-4146610Y-4548090D03*
X-4246610D03*
X-4346610D03*
X-4446610Y-4948090D03*
X-4246610Y-4348110D03*
X-4146610D03*
X-4346610D03*
X-4446610Y-4448090D03*
X-4246610Y-4148090D03*
X-4146610Y-4448110D03*
X-4346610Y-4148090D03*
X-4446610D03*
X-4346610Y-4448110D03*
X-4246610Y-3748110D03*
X-4346610D03*
X-4446610D03*
X-4246610Y-3948090D03*
Y-4048090D03*
X-4346610Y-3948090D03*
Y-4048090D03*
X-4446610Y-3948090D03*
Y-4048090D03*
X-4146610Y-3248110D03*
X-4446610Y-3348090D03*
X-4346610D03*
X-4246610Y-3548110D03*
Y-3648110D03*
X-4246590Y-3248110D03*
X-4346610Y-3548110D03*
Y-3648110D03*
X-4446610Y-3548110D03*
Y-3648110D03*
X-4446590Y-3248110D03*
X-4346590D03*
X-4246610Y-2948110D03*
X-4446610Y-2848110D03*
X-4146610Y-2948110D03*
Y-3048110D03*
X-4446610Y-2948110D03*
Y-3048110D03*
X-4346610Y-2848110D03*
Y-2948110D03*
Y-3048110D03*
X-4246610D03*
Y-3148110D03*
X-4146610D03*
X-4446610D03*
X-4346610D03*
X-4340000Y-2636920D03*
X-4346610Y-2748110D03*
X-4446610D03*
X-4185920Y-2171700D03*
Y-2298700D03*
X-4053840Y-7292340D03*
X-3680460Y-6697980D03*
X-3935000Y-5985000D03*
X-4036060Y-5461000D03*
X-4025900Y-5537200D03*
X-3985260Y-5370310D03*
X-3934460Y-5048290D03*
X-4046610Y-4548090D03*
Y-4748090D03*
X-3946610Y-4848090D03*
X-3846610Y-4948090D03*
X-3946610Y-4748090D03*
X-3846610D03*
Y-4848090D03*
X-3746610Y-4548090D03*
X-4046610Y-4848090D03*
X-3646610Y-4548090D03*
X-4046610Y-4648090D03*
X-3946610Y-4948090D03*
X-4046610D03*
X-3946610Y-4548090D03*
X-3846610D03*
X-3646610Y-4648090D03*
Y-4748090D03*
X-3746610Y-4648090D03*
X-3646610Y-4948090D03*
Y-4848090D03*
X-3746610Y-4748090D03*
X-3846610Y-4648090D03*
Y-4348090D03*
X-3646610D03*
X-3746610Y-4248090D03*
Y-4148090D03*
X-3646610Y-4448090D03*
X-3846610Y-4148090D03*
Y-4248090D03*
X-4046590D03*
X-3846610Y-4448090D03*
X-3946610Y-4348090D03*
X-3746610Y-4448090D03*
X-3646610Y-4148090D03*
X-3946610D03*
X-3746610Y-3748110D03*
X-3846610D03*
X-3746610Y-4048090D03*
X-3846610D03*
X-3646610Y-3948090D03*
X-3746610D03*
X-3946610Y-4048090D03*
X-3646610Y-3748110D03*
X-3946610Y-3948090D03*
X-3846610D03*
X-3946610Y-3748110D03*
X-3746610Y-3348110D03*
X-3846610D03*
X-3746610Y-3248110D03*
X-4046590Y-3548090D03*
X-3846610Y-3648110D03*
Y-3448110D03*
X-4046590Y-3648110D03*
X-3646610Y-3448110D03*
Y-3248110D03*
X-3746610Y-3548110D03*
X-3646610D03*
Y-3348110D03*
Y-3648110D03*
X-3846610Y-3548110D03*
X-3946610Y-3348110D03*
Y-3248110D03*
X-4046610Y-3348090D03*
X-3746610Y-3648110D03*
X-3946610D03*
X-4046610Y-3248110D03*
X-3946610Y-3548110D03*
Y-3448110D03*
X-3746610D03*
X-4046610Y-3048110D03*
X-3946610Y-2848110D03*
X-3646610Y-3148110D03*
X-4046610Y-2948110D03*
X-3746610Y-2848110D03*
X-3946610Y-2948110D03*
Y-3048110D03*
X-3846610Y-2848110D03*
Y-2948110D03*
X-4046610Y-3148110D03*
X-3946610D03*
X-3746610D03*
X-3646610Y-3048110D03*
X-3746610D03*
X-3646610Y-2948110D03*
X-3746610D03*
X-3846610Y-3048110D03*
Y-3148110D03*
X-3810000Y-2352040D03*
X-3903980Y-2357120D03*
X-4048760Y-2618740D03*
X-4047550Y-2379680D03*
X-3746610Y-2748110D03*
X-3670300Y-2349500D03*
X-3846610Y-2748110D03*
X-3601720Y-5556980D03*
X-3395520Y-5341160D03*
X-3601720Y-5077460D03*
X-3546610Y-4548090D03*
Y-4648090D03*
X-3362960Y-4947920D03*
X-3446610Y-4748090D03*
Y-4948090D03*
Y-4848090D03*
X-3546610Y-4748090D03*
Y-4848090D03*
Y-4948090D03*
X-3291840Y-4114800D03*
X-3546610Y-4448090D03*
X-3446610Y-4248090D03*
X-3291840Y-4203700D03*
X-3546610Y-4348090D03*
X-3291840Y-4292600D03*
X-3446610Y-4348090D03*
X-3546610Y-4148090D03*
Y-4248090D03*
X-3446610Y-3748110D03*
X-3291840Y-3670300D03*
X-3446610Y-3948090D03*
X-3295000Y-3848100D03*
X-3291840Y-3759200D03*
X-3546610Y-3948090D03*
Y-3748110D03*
X-3291840Y-4025900D03*
Y-3937000D03*
X-3546610Y-3848090D03*
X-3446610Y-4048090D03*
X-3546610D03*
Y-3648110D03*
Y-3348110D03*
X-3350260Y-3314700D03*
X-3546610Y-3448110D03*
X-3383280Y-3403600D03*
X-3446610Y-3648110D03*
X-3291840Y-3492500D03*
X-3446610Y-3548110D03*
X-3546610Y-3248110D03*
Y-3548110D03*
X-3291840Y-3581400D03*
X-3446610Y-3348110D03*
X-3312540Y-3047620D03*
X-3324860Y-2870200D03*
X-3446610Y-3048110D03*
X-3291840Y-3225800D03*
X-3446610Y-2848110D03*
X-3546610Y-2948110D03*
Y-2848110D03*
Y-3048110D03*
X-3479800Y-2379980D03*
X-3546610Y-2748110D03*
X-3040000Y-6480000D03*
X-3063240Y-5067300D03*
X-2895000Y-4725000D03*
X-3063240Y-4953000D03*
X-3004820Y-4335780D03*
X-2940000Y-4230000D03*
X-3042920Y-4292600D03*
X-2997200Y-4254500D03*
X-2981960Y-4163810D03*
X-3070000Y-3937000D03*
Y-4045000D03*
X-2971800Y-3759200D03*
X-3014980Y-3714070D03*
X-3030000Y-3895000D03*
X-3081020Y-3670300D03*
X-2950000Y-4055000D03*
X-2990000Y-3996910D03*
X-3075000Y-3805000D03*
X-3025000Y-3350000D03*
X-3025140Y-3294380D03*
X-3024490Y-3403600D03*
X-3042920Y-3632200D03*
X-3008020Y-3581400D03*
X-3060080Y-3447140D03*
X-3068320Y-3510280D03*
X-3081190Y-3116680D03*
X-3040000Y-3002280D03*
X-3083560Y-2870200D03*
X-3078480Y-3225800D03*
X-2954020Y-2954020D03*
X-2969260Y-3154680D03*
X-3061890Y-2821450D03*
X-3070860Y-3172460D03*
X-2961640Y-3048000D03*
X-3015000Y-2910000D03*
X-2395000Y-3865000D03*
X-2400000Y-3790000D03*
X-2645170Y-1471690D03*
X-2679700Y-1176020D03*
X-2762670D03*
X-2487930Y-797560D03*
X-2641600Y-762000D03*
X-2487930Y-876300D03*
Y-716280D03*
X-2496260Y-556260D03*
X-2492480Y-477520D03*
X-2560000Y170000D03*
X-1947720Y-7252160D03*
X-2189480Y-7076440D03*
X-1961200Y-5440000D03*
Y-5520000D03*
X-2210000D03*
X-2249400Y-5026660D03*
X-1982700Y-5097200D03*
X-1910000Y-5010000D03*
X-1960000Y-5045000D03*
X-1961200Y-5360000D03*
X-2210000Y-5400000D03*
X-1938020Y-4841240D03*
X-2321560Y-4688840D03*
X-2290000Y-4850000D03*
X-1958100Y-4729820D03*
X-1907540Y-4792980D03*
X-2235000Y-4785000D03*
X-2196990Y-4571320D03*
X-2182620Y-4862830D03*
X-1940560Y-4610100D03*
X-1910000Y-4464660D03*
X-2285000Y-4472940D03*
X-1985000Y-4520000D03*
X-1988580Y-4460320D03*
X-1909040Y-4013200D03*
X-2050000Y-3700000D03*
X-1929030Y-4099680D03*
X-1982880Y-4097200D03*
X-2267180Y-3964940D03*
X-2260000Y-3790000D03*
X-2236700Y-3901440D03*
X-2239240Y-4069080D03*
X-1988580Y-4019430D03*
X-2050000Y-3290000D03*
X-1995000Y-3325000D03*
X-2030000Y-3600000D03*
X-2074440Y-2952500D03*
X-2075000Y-3225000D03*
X-2025000Y-3075000D03*
X-2005000Y-3175000D03*
X-1975730Y-2351650D03*
X-2199120Y-2716990D03*
X-1913010Y-2716270D03*
X-2073730Y-2716990D03*
X-2171700Y-1920240D03*
X-1947750Y-2103550D03*
X-2100000Y-1650000D03*
X-2108200Y-1137920D03*
X-2062480Y-1000760D03*
X-2140580Y-551820D03*
X-2115820Y-396240D03*
X-2137020Y363700D03*
X-2139560Y310360D03*
X-2138680Y411480D03*
X-1999860Y310360D03*
X-2093840D03*
X-2045580D03*
X-1997320Y363700D03*
X-2043040D03*
X-2091300D03*
X-1998980Y411480D03*
X-2044700D03*
X-2092960D03*
X-1837520Y-6951370D03*
X-1789260D03*
X-1788160Y-6906260D03*
X-1836420D03*
X-1703260Y-5537200D03*
Y-5417200D03*
X-1665000Y-5340000D03*
X-1605280Y-5139480D03*
X-1570000Y-5050000D03*
X-1681480Y-5097200D03*
X-1630000Y-4590000D03*
X-1685000D03*
X-1705300Y-4777200D03*
X-1705840Y-4490720D03*
X-1645000Y-4470000D03*
X-1570000D03*
X-1455000Y-4485000D03*
X-1517800Y-4537200D03*
X-1585000Y-4070000D03*
X-1685000Y-3950000D03*
X-1841500Y-3362960D03*
X-1820000Y-2720000D03*
X-1790000Y-2535000D03*
X-1859890Y-2168550D03*
X-1760000Y-1660000D03*
X-1651000Y-1659000D03*
X-1570000Y-1660000D03*
X-1457960Y-182880D03*
X-1796960Y225980D03*
Y175180D03*
X-1649640Y225980D03*
Y175180D03*
X-1699260Y226060D03*
X-1747670Y226770D03*
X-1699260Y175260D03*
X-1747520D03*
X-1663700Y-140970D03*
X-1695450Y473710D03*
X-1440000Y-4580000D03*
X-1157840Y-3517500D03*
Y-3644500D03*
Y-3362160D03*
X-1158240Y-3263500D03*
X-1235240Y-3225000D03*
X-1238580Y-3075000D03*
X-1320000Y-1740000D03*
X-1409700Y-1315720D03*
X-1026160Y-1117600D03*
X-1409700Y-182880D03*
X-1090930Y-257810D03*
X-1170940Y-208280D03*
X-1224280Y-157480D03*
X-1170940D03*
X-1437640Y-139700D03*
X-1389380D03*
X-1036320Y170180D03*
X-800000Y-3800000D03*
X-949960Y-3840480D03*
X-657860Y-1394460D03*
X-637540Y-1026160D03*
X-650240Y-391160D03*
X-967740Y259080D03*
X-868680Y294640D03*
X-208280Y-5910580D03*
X-556260Y-1856740D03*
X270000Y-4930000D03*
G54D20*
X-360680Y-6416040D03*
G54D11*
X-8693400Y272840D03*
X-8607800Y273300D03*
X-8693400Y359200D03*
X-8607800Y359660D03*
X-8691880Y444500D03*
X-8606280Y444960D03*
X-8605520Y528320D03*
X-8694420D03*
X-8614820Y780800D03*
Y860800D03*
Y940800D03*
X-8694820Y780800D03*
Y940800D03*
Y860800D03*
X-8065100Y-6810400D03*
X-8063740Y-6726840D03*
X-8153400Y-6809740D03*
X-8152040Y-6726180D03*
X-8063740Y-6646840D03*
X-8152040Y-6646180D03*
X-8073480Y-6314230D03*
X-8162200Y-6313880D03*
X-8073480Y-6229230D03*
Y-6149230D03*
X-8162200Y-6148880D03*
Y-6228880D03*
X-8234680Y-4099560D03*
X-8028940Y228600D03*
X-8028640Y407680D03*
X-8027360Y316240D03*
X-7615340Y-360280D03*
X-7948600Y227680D03*
X-7868600D03*
X-7948600Y407680D03*
X-7868600D03*
X-7948600Y317680D03*
X-7868600D03*
X-7597410Y783270D03*
Y869630D03*
X-7597140Y952500D03*
X-7195140Y-5732580D03*
Y-5812580D03*
X-7310120Y-5194300D03*
X-7223760D03*
X-7297430Y-173560D03*
X-7213610D03*
X-7515340Y-360280D03*
X-7299900Y-90120D03*
X-7299960Y-7620D03*
X-7216080Y-90120D03*
X-7216140Y-7620D03*
X-7343410Y783270D03*
X-7427230D03*
X-7513590D03*
X-7343410Y869630D03*
X-7427230D03*
X-7513590D03*
X-7513320Y952500D03*
X-7426960D03*
X-7343140D03*
X-6782100Y-5712160D03*
X-7115140Y-5732580D03*
Y-5812580D03*
Y-5572580D03*
Y-5652580D03*
X-7132320Y-175260D03*
X-7132260Y-90120D03*
X-7132320Y-7620D03*
X-6502100Y-5689600D03*
X-6276340Y-5257800D03*
X-6527800Y-5076500D03*
X-6410020Y-4594900D03*
X-6365240Y-3820160D03*
X-6489700Y-3825770D03*
X-5859700Y-5900500D03*
X-6096000Y-4701540D03*
X-6220460Y-4960620D03*
X-6035040Y-3827780D03*
X-6129020D03*
X-6225540Y-3835400D03*
X-6160000Y-2138180D03*
X-5739380Y-2217420D03*
Y-2131060D03*
X-5135880Y-2420000D03*
Y-2540000D03*
X-5133340Y-2156460D03*
Y-2250440D03*
X-5021580Y-2161540D03*
X-5135470Y-797450D03*
X-5051650D03*
X-4965290D03*
X-5135470Y-713630D03*
X-5051650D03*
X-4965290D03*
X-4965700Y-627380D03*
X-5052060D03*
X-5135880D03*
X-4803140Y-5420360D03*
X-4914900Y-5702300D03*
X-4564900Y-5003800D03*
X-4720000Y-2165940D03*
X-4878930Y-797450D03*
Y-713630D03*
X-4879340Y-627380D03*
X-4584700Y193040D03*
X-4426350Y-2137810D03*
X-4106800Y-1719200D03*
X-4493260Y193040D03*
X-4401720D03*
X-4046220Y-6593840D03*
Y-6718560D03*
X-3706800Y-5077460D03*
X-4064000Y-5156200D03*
X-3760400Y-2043500D03*
X-3867680Y-471720D03*
X-3787680D03*
X-3707680D03*
X-3867680Y-551720D03*
X-3787680D03*
X-3707680D03*
X-3345200Y-4666000D03*
X-3317240Y-2700020D03*
X-3477260Y-1348740D03*
X-3335150Y593180D03*
X-3429130D03*
X-3520570D03*
X-3335150Y684620D03*
X-3429130D03*
X-3520570D03*
X-3393440Y1122680D03*
Y1031240D03*
X-3307080Y1122680D03*
Y1031240D03*
X-3337560Y772160D03*
X-3431540D03*
X-3522980D03*
X-2829440Y-6163200D03*
X-2829180Y-6262260D03*
X-2936120Y-6163200D03*
X-2935860Y-6262260D03*
X-2934760Y-5807500D03*
X-3097860Y-5395900D03*
X-2870200Y-4480560D03*
X-2971800Y-3482340D03*
X-3052100Y-2386460D03*
X-2903220Y-2346960D03*
X-2790000Y-2350000D03*
Y-2260000D03*
X-2686240Y-7264010D03*
X-2538930Y-7265420D03*
X-2411930D03*
X-2685040Y-7018780D03*
Y-6593840D03*
X-2684780Y-6692900D03*
X-2370000Y-5480000D03*
X-2560000Y-5490000D03*
X-2475000Y-5655000D03*
X-2730500Y-5692140D03*
X-2480000Y-5090000D03*
X-2519680Y-4569460D03*
X-2606040Y-4572000D03*
X-2527460Y-4477300D03*
X-2607460D03*
X-2628900Y-3685540D03*
X-2700020Y-3482340D03*
X-2520000Y-3149600D03*
X-2700000Y-2380000D03*
Y-2290000D03*
X-2722880Y-1808480D03*
X-2265000Y-5650000D03*
X-2270000Y-4360000D03*
X-2171700Y-195580D03*
X-1701800Y-3274060D03*
X-1536700D03*
X-1620000Y-3150000D03*
X-1704340Y-3022600D03*
X-1531620Y-3030220D03*
X-1446040Y-2472980D03*
X-1808070Y-825850D03*
X-1709010D03*
X-1607410D03*
X-1503270D03*
X-1502000Y-919520D03*
X-1606140D03*
X-1707740D03*
X-1806800D03*
X-1809750Y-731210D03*
X-1710690D03*
X-1609090D03*
X-1504950D03*
X-1503680Y-632460D03*
X-1607820D03*
X-1709420D03*
X-1808480D03*
X-1155700Y-6413500D03*
X-1155810Y-6553280D03*
X-1155700Y-6273800D03*
X-1016000D03*
X-1158240Y-2748280D03*
Y-2621280D03*
X-1160780Y-2506980D03*
X-1313960Y-2472980D03*
X-1051560Y-1315720D03*
X-1046480Y-764910D03*
X-1045210Y-858580D03*
X-876300Y-6273800D03*
X-645800Y-5657690D03*
X-620000Y-4560000D03*
X-700000D03*
Y-4480000D03*
X-620000D03*
X-586150Y-3352350D03*
X-589280Y-3263500D03*
X-581660Y-3497580D03*
X-590000Y-2885000D03*
X-775000Y-2480000D03*
X-590000D03*
X-248920Y-5227320D03*
X-540000Y-4560000D03*
X-244390Y-4729480D03*
X-540000Y-4480000D03*
X-328260Y-3347560D03*
X-408940D03*
X-525000Y-2205000D03*
X-95000Y-6100000D03*
X223520Y-5077460D03*
X43180Y-4973320D03*
X119380Y-5080000D03*
X17780D03*
X-88360Y-5081270D03*
X-25400Y-5354050D03*
X96520Y-3462020D03*
Y-3597980D03*
G54D21*
X-247000Y-3173000D03*
Y-2919000D03*
Y-2411000D03*
Y-2665000D03*
Y-1903000D03*
Y-2157000D03*
Y-1395000D03*
Y-1649000D03*
Y-1141000D03*
Y-887000D03*
X7000Y-3173000D03*
Y-2919000D03*
Y-2411000D03*
Y-2665000D03*
Y-1903000D03*
Y-2157000D03*
Y-1395000D03*
Y-1649000D03*
Y-1141000D03*
Y-887000D03*
G54D12*
X-8140700Y-2484100D03*
Y-845800D03*
X-7124700Y-2484100D03*
Y-845800D03*
G54D22*
G01X-9169000Y-7603000D02*
X431000D01*
Y1397000D01*
X-9169000D01*
Y-7603000D01*
G54D13*
X-8224990Y-1795310D03*
X-7438900Y-6066460D03*
X-7294120D03*
Y-5921680D03*
X-7438900D03*
X-7366140Y-5994980D03*
X-7162800Y-3911600D03*
X-6903720Y-6217920D03*
X-6846800Y-6273740D03*
X-6847840Y-6217920D03*
X-6779600Y-4787900D03*
X-6766560Y-4617720D03*
X-7127240Y-4815840D03*
X-6789420Y-4724400D03*
X-6730000Y-4426500D03*
Y-4101500D03*
X-6824980Y-4102100D03*
X-6730000Y-4356100D03*
X-6731000Y-4491500D03*
X-6779260Y-4264660D03*
X-6822440Y-3911600D03*
X-6971110Y-3796500D03*
X-7072710Y-3794760D03*
X-6820000Y-3330000D03*
X-6819140Y-3540000D03*
X-6839020Y-3034100D03*
X-6936740Y-3030220D03*
X-6926580Y-2784100D03*
X-6839020Y-2834100D03*
X-7010400Y-2786380D03*
X-6839020Y-2934100D03*
X-6890000Y-2584100D03*
X-6926580Y-2684100D03*
X-6850380Y-2387600D03*
X-6839020Y-2634100D03*
Y-2734100D03*
X-6808920Y-2534100D03*
X-6930130Y-2229870D03*
X-6839020Y-1995800D03*
X-6926580Y-1745800D03*
X-6839020Y-1495800D03*
X-6930150Y-1682400D03*
X-6925000Y-1510000D03*
X-6839020Y-1695800D03*
Y-1895800D03*
Y-1395800D03*
X-6926580Y-1445800D03*
Y-1345800D03*
X-6837680Y-1295400D03*
X-6840220Y-1206500D03*
X-6820000Y-920000D03*
X-6984560Y357400D03*
X-6291580Y-5573700D03*
X-6362700Y-5359400D03*
X-6604000Y-3771900D03*
X-6540600Y-3384100D03*
Y-3284100D03*
X-6454140Y-3334100D03*
X-6466840Y-3535680D03*
X-6454140Y-3234100D03*
Y-3434100D03*
Y-3134100D03*
X-6540600Y-3184100D03*
Y-3084100D03*
X-6311900Y-3073400D03*
X-6390640Y-2446020D03*
X-6510000Y-1595800D03*
X-6466840Y-1045800D03*
X-6378060Y-1095800D03*
X-6466840Y-1145800D03*
X-6378060Y-1195800D03*
X-6525000Y-1300000D03*
X-6466840Y-945800D03*
X-6518600Y-745800D03*
X-6378060Y-995800D03*
X-6594560Y-162600D03*
X-6344560Y-217600D03*
X-6594560Y-327600D03*
Y-247600D03*
X-6519560Y-117600D03*
X-6441440Y117960D03*
Y-26820D03*
X-6296660D03*
Y117960D03*
X-6369960Y45200D03*
X-6102100Y-5264400D03*
X-6180600Y-5287500D03*
X-5839200Y-4556500D03*
X-5836920Y-4426500D03*
X-6134100Y-3073400D03*
X-6037580Y-2946400D03*
X-6219560Y-217600D03*
Y-137600D03*
X-5412730Y-5905510D03*
X-5803900Y-5636260D03*
X-5519420Y-5524500D03*
X-5735910Y-5638800D03*
X-5763260Y-5808980D03*
X-5729870Y-5501640D03*
X-5760720Y-5298440D03*
X-5811520Y-5224700D03*
X-5610860Y-5105400D03*
X-5825580Y-4296500D03*
X-5745000Y-2385000D03*
Y-2470000D03*
X-5740000Y-2555000D03*
X-5440000Y-2620000D03*
X-5511900Y-2158010D03*
X-5664560Y407400D03*
X-5220500Y-5996430D03*
X-5114810Y-6103620D03*
X-5367020Y-5422900D03*
X-5260340Y-5445760D03*
X-5265420Y-5699760D03*
X-5176520Y-5811520D03*
X-5367020Y-5646420D03*
X-4973320Y-5346700D03*
X-5315120Y-5129700D03*
X-4632960Y-5478780D03*
X-4176270Y-2628390D03*
X-4152030Y-1990490D03*
X-4023360Y-6870700D03*
X-3667760Y-6586220D03*
X-3900930Y-5514340D03*
X-3949200Y-5134250D03*
X-3886200Y-5126230D03*
X-4055860Y-5304790D03*
X-3740000Y-2658110D03*
X-3659600Y-2145000D03*
X-3778410Y-1568290D03*
X-3984080Y-1443280D03*
Y-1393280D03*
X-3650460Y-1094820D03*
X-3847680Y-1131720D03*
X-3747680D03*
X-3650460Y-989820D03*
Y-884820D03*
X-3977680Y-361720D03*
X-3285620Y-6837680D03*
X-3298660Y-6421590D03*
X-3203740D03*
X-3451860Y-6223000D03*
X-3253080Y-5775820D03*
X-3346210Y-5784030D03*
X-3413300Y-5565600D03*
X-3454400Y-5753100D03*
X-3467100Y-5438140D03*
X-3352800Y-5067300D03*
X-3445510Y-5068570D03*
X-3362960Y-4838700D03*
X-3334020Y-4446000D03*
X-3479800Y-2628900D03*
X-3594100D03*
X-3365500D03*
X-3378200Y-1990490D03*
X-3580000Y-2150000D03*
X-3276420Y-1770200D03*
X-3380000Y-1896510D03*
Y-1840000D03*
X-3287460Y-1618680D03*
X-3312680Y-1126720D03*
X-3222680Y-1036720D03*
X-3324860Y-596900D03*
X-3393080Y-667120D03*
X-3560380Y-872120D03*
X-3225060Y-954660D03*
X-3212360Y-882360D03*
X-3464560Y-594360D03*
Y-739140D03*
X-3319780D03*
X-3322670Y-935070D03*
X-3322680Y-301720D03*
Y-166720D03*
X-3232680D03*
Y-301720D03*
X-3387680Y-406720D03*
Y-351720D03*
X-3360680Y-1720D03*
X-3487680D03*
X-3424180D03*
X-3025000Y-6925000D03*
X-3154680Y-5989170D03*
X-2973070Y-5990590D03*
X-2880000Y-5430000D03*
X-3101850Y-5613910D03*
X-3065000Y-5181600D03*
X-3074770Y-4853100D03*
X-3030000Y-4775000D03*
X-2880000Y-3950000D03*
X-3185000Y-2150000D03*
X-3018540Y-2018510D03*
X-2882200Y-1710600D03*
X-3050000Y-1313270D03*
X-3100000D03*
X-2900000Y-1355000D03*
X-3162680Y-1121720D03*
X-2339340Y-6250940D03*
X-2720000Y-5806440D03*
X-2381180Y-3275400D03*
X-2692400Y-3002280D03*
X-2459360Y-2395400D03*
X-2373600Y-2749580D03*
X-2479040Y-1908550D03*
X-2453640Y-2011680D03*
X-2725000Y-1365000D03*
X-2637680Y-221720D03*
Y-171720D03*
Y-121720D03*
X-2144780Y-6250940D03*
X-2280000Y-4950000D03*
X-2209200Y-3591160D03*
X-2103130Y-3591450D03*
X-2209050Y-3644640D03*
X-2103050Y-3644950D03*
X-2133600Y-2542540D03*
X-1640000Y-4930000D03*
X-1470000Y-3560000D03*
X-1750000Y-3550000D03*
X-1745000Y-2755000D03*
X-1545000Y-2765000D03*
X-1495000D03*
X-1445000D03*
X-1663700Y-2722880D03*
X-1875000Y-1973550D03*
X-1424940Y-5031740D03*
X-1010000Y-4890000D03*
X-1065010D03*
X-1386990Y-4805000D03*
X-1390000Y-3930000D03*
Y-3880000D03*
X-1230000Y-3770000D03*
X-1008380Y-2252980D03*
Y-2189480D03*
X-1021080Y-1678940D03*
X-1082040D03*
X-1145540D03*
X-1020960Y1034180D03*
X-1021080Y1099820D03*
X-570230Y-5888990D03*
X-642620Y-5438140D03*
X-640000Y-5560000D03*
X-571500Y-5435600D03*
X-640000Y-5500000D03*
X-970000Y-5250000D03*
Y-5200000D03*
X-715010Y-5325110D03*
X-950000Y-4490000D03*
X-1000000D03*
X-620000Y-4060000D03*
Y-4010000D03*
X-760000Y-3900000D03*
X-960000Y-3740000D03*
X-873760Y-2252980D03*
X-942340D03*
X-873760Y-2189480D03*
X-942340D03*
X-688340Y-1640840D03*
X-629920Y-1582420D03*
Y-1640840D03*
X-688340Y-1584960D03*
X-610130Y584730D03*
X-822840Y1034180D03*
X-888880D03*
X-954920D03*
X-822960Y1099820D03*
X-889000D03*
X-955040D03*
X-555000Y-6080000D03*
X-497840Y-5433060D03*
X-510540Y-3741420D03*
X-546100Y523240D03*
X-490220Y584200D03*
X-546100D03*
X-88900Y-6414260D03*
X228600Y-6421120D03*
X235150Y-6060970D03*
X27940Y-5866200D03*
X95000D03*
X110000Y-5570000D03*
X-50400Y-5579600D03*
X-400D03*
X49600D03*
X95000Y-5792400D03*
X254000Y-5694680D03*
X251460Y-5509260D03*
Y-5245100D03*
X31460Y-5409260D03*
Y-5299260D03*
X176870Y-5209540D03*
X206400Y-2519020D03*
Y-2265020D03*
Y-2011020D03*
Y-1503020D03*
Y-1757020D03*
Y-1249020D03*
X261450Y-281290D03*
Y-222870D03*
X200490Y-281290D03*
Y-222870D03*
G54D14*
X-6670040Y-5735320D03*
X-2990000Y-2240000D03*
X-1440000Y-5790000D03*
G54D15*
X-6124580Y-5007930D03*
G54D16*
X-3585630Y-6918210D03*
X-3145630D03*
X-350130Y74640D03*
Y514640D03*
G54D17*
X-3570000Y-5860000D03*
Y-5660000D03*
G54D18*
X-830580Y-6116320D03*
G54D19*
Y-6715760D03*
M02*
