G04 ================== begin FILE IDENTIFICATION RECORD ==================*
G04 Layout Name:  STANDARD.brd*
G04 Film Name:    8-BOTTOM*
G04 File Format:  Gerber RS274X*
G04 File Origin:  Cadence Allegro 16.6-P004*
G04 Origin Date:  Thu Sep 18 09:56:33 2014*
G04 *
G04 Layer:  BOARD GEOMETRY/OUTLINE*
G04 Layer:  ETCH/BOTTOM*
G04 Layer:  PIN/BOTTOM*
G04 Layer:  VIA CLASS/BOTTOM*
G04 *
G04 Offset:    (0.0000 0.0000)*
G04 Mirror:    No*
G04 Mode:      Positive*
G04 Rotation:  0*
G04 FullContactRelief:  No*
G04 UndefLineWidth:     0.1000*
G04 ================== end FILE IDENTIFICATION RECORD ====================*
%FSLAX25Y25*MOMM*%
%IR0*IPPOS*OFA0.00000B0.00000*MIA0B0*SFA1.00000B1.00000*%
%ADD36R,1.5001X.3*%
%ADD66R,.38X1.*%
%ADD61R,.55X1.1*%
%ADD25R,1.1X.55*%
%ADD63R,1.28X.2*%
%ADD59R,1.6X.42*%
%ADD42R,.65X1.3*%
%ADD15R,1.X.95*%
%ADD62R,1.8X.7*%
%ADD47R,1.3X.65*%
%ADD19R,.95X1.*%
%ADD13R,1.8X.7*%
%ADD46R,1.7X.55*%
%ADD48C,.9*%
%ADD20C,.508*%
%ADD12R,2.65X.85*%
%ADD10R,3.55X.85*%
%ADD14C,.4064*%
%ADD70R,2.2606X.508*%
%ADD16C,.762*%
%AMMACRO40*
21,1,.65,.65,0.0,0.0,45.*%
%ADD40MACRO40*%
%ADD17R,.65X.65*%
%AMMACRO38*
4,1,20,.375,-2.15,
.375,-1.025,
1.025,-1.025,
1.025,1.025,
.375,1.025,
.375,2.15,
.175,2.15,
.175,1.025,
-.175,1.025,
-.175,2.15,
-.375,2.15,
-.375,1.025,
-1.025,1.025,
-1.025,-1.025,
-.375,-1.025,
-.375,-2.15,
-.175,-2.15,
-.175,-1.025,
.175,-1.025,
.175,-2.15,
.375,-2.15,
0.0*
%
%ADD38MACRO38*%
%AMMACRO26*
4,1,20,-2.15,-.375,
-1.025,-.375,
-1.025,-1.025,
1.025,-1.025,
1.025,-.375,
2.15,-.375,
2.15,-.175,
1.025,-.175,
1.025,.175,
2.15,.175,
2.15,.375,
1.025,.375,
1.025,1.025,
-1.025,1.025,
-1.025,.375,
-2.15,.375,
-2.15,.175,
-1.025,.175,
-1.025,-.175,
-2.15,-.175,
-2.15,-.375,
0.0*
%
%ADD26MACRO26*%
%ADD31R,1.4X1.*%
%ADD11R,3.X2.*%
%ADD30R,1.X1.4*%
%ADD60R,1.2X1.4*%
%ADD55R,1.1X1.05*%
%ADD24R,1.05X1.05*%
%ADD75C,1.*%
%ADD77R,1.7X1.7*%
%ADD43R,.3X.8*%
%ADD76R,.23X.8*%
%ADD72R,.8X.23*%
%ADD54R,.46X.4*%
%ADD52C,1.4*%
%ADD37R,2.4X5.16*%
%ADD58R,.9X.42*%
%ADD56R,.85X.4*%
%ADD34C,1.016*%
%ADD57R,.9X.62*%
%ADD51R,.63X.35*%
%ADD44R,.45X.8*%
%ADD68R,1.2X1.2*%
%ADD18C,1.27*%
%ADD73C,1.524*%
%ADD53R,1.4X1.4*%
%ADD49R,.3X.575*%
%ADD39R,.9X.65*%
%ADD33R,1.524X1.3462*%
%ADD27R,.28X.85*%
%ADD29R,1.3462X1.524*%
%ADD28R,.85X.28*%
%ADD50R,.25X.575*%
%ADD41R,1.78X3.56*%
%ADD64R,3.56X1.78*%
%ADD71O,1.778X3.81*%
%ADD78R,1.524X1.524*%
%ADD69R,3.5052X2.0574*%
%ADD67O,3.81X1.778*%
%ADD65O,4.572X1.778*%
%ADD35R,2.7X1.5999*%
%ADD32R,1.5999X2.7*%
%ADD22R,1.8001X1.5999*%
%ADD45R,.508X.5588*%
%ADD23R,1.5999X1.8001*%
%ADD21R,.5588X.508*%
%ADD74R,3.9878X2.0574*%
%ADD79C,.1*%
%ADD80C,.2*%
%ADD81C,.3*%
%ADD82C,.4*%
%ADD83C,.5*%
%ADD84C,.245*%
%ADD85C,.38*%
%ADD86C,.254*%
%ADD87C,.381*%
%ADD88C,.76*%
%ADD89C,.1829*%
%ADD90C,.1778*%
G75*
%LPD*%
G75*
G36*
G01X-8544560Y-7419340D02*
Y-7185660D01*
X-8219440D01*
X-8210920Y-7177140D01*
X-8174090Y-7213970D01*
G03X-8099960Y-7164580I32121J32115D01*
G01X-8101250Y-7161450D01*
X-8095260Y-7155470D01*
X-8092990Y-7157740D01*
X-7612360D01*
X-7586980Y-7183120D01*
Y-7249160D01*
X-7566660Y-7269480D01*
X-7560480D01*
Y-7269770D01*
X-7528260D01*
Y-7303350D01*
X-7443050Y-7388560D01*
X-6986690D01*
X-6902830Y-7304700D01*
Y-7133970D01*
X-6855460Y-7086600D01*
Y-6616700D01*
X-6469380D01*
Y-7419340D01*
X-8544560D01*
G37*
G36*
G01X-8542020Y-6858000D02*
Y-6436360D01*
X-8234680D01*
X-8130540Y-6540500D01*
X-7759700D01*
Y-6858000D01*
X-8542020D01*
G37*
G36*
G01X-8077200Y-7119620D02*
X-8186420Y-7010400D01*
X-8542020D01*
Y-6896120D01*
X-7805400D01*
X-7747000Y-6954520D01*
X-7353300D01*
Y-7119620D01*
X-8077200D01*
G37*
G36*
G01X-8218870Y-6398260D02*
X-8218890Y-6398240D01*
X-8526780D01*
Y-5996940D01*
X-8204200D01*
X-8156110Y-6045370D01*
X-8155940Y-6045200D01*
X-8008620D01*
Y-6398260D01*
X-8218870D01*
G37*
G36*
G01X-8412480Y-4538980D02*
X-8432800Y-4518660D01*
X-8684260D01*
Y-4401820D01*
X-8453120D01*
X-8361680Y-4310380D01*
X-7792720D01*
Y-4538980D01*
X-8001820D01*
Y-4535990D01*
X-8106860D01*
Y-4538980D01*
X-8179620D01*
Y-4535990D01*
X-8284660D01*
Y-4538980D01*
X-8412480D01*
G37*
G36*
G01X-7691120Y-4597400D02*
Y-4333240D01*
X-7754620Y-4269740D01*
X-8376920D01*
X-8470880Y-4363700D01*
X-8684260D01*
Y-4043680D01*
X-7556500D01*
Y-4597400D01*
X-7691120D01*
G37*
G36*
G01X-7721580Y-6502400D02*
Y-6502380D01*
X-7970520D01*
Y-6436380D01*
X-7970500D01*
Y-6301740D01*
X-7696200D01*
X-7660640Y-6266180D01*
Y-6068060D01*
X-7721600Y-6007100D01*
X-7970500D01*
Y-6007080D01*
X-8115320D01*
X-8227060Y-5895340D01*
X-8450580D01*
Y-4813300D01*
X-7416800D01*
Y-5280330D01*
X-7423260Y-5286790D01*
Y-5910700D01*
X-7256160D01*
Y-5954000D01*
X-7244080D01*
Y-6035960D01*
X-7256160D01*
Y-6095380D01*
X-7265740Y-6104960D01*
X-7312640D01*
Y-6080740D01*
X-7476120D01*
Y-6035960D01*
X-7601160D01*
Y-6104000D01*
X-7517910D01*
G02X-7510720Y-6121340I2J-10160D01*
G01X-7515860Y-6126480D01*
Y-6207760D01*
X-7560310Y-6252210D01*
Y-6338570D01*
X-7597140Y-6375400D01*
Y-6502400D01*
X-7721580D01*
G37*
G36*
G01X-5387340Y-901700D02*
X-5803900Y-485140D01*
X-7744460D01*
Y1094740D01*
X-6624180D01*
G02X-6617000Y1077400I-4J-10158D01*
G01X-6706970Y987420D01*
X-6764580D01*
Y767380D01*
X-6709980D01*
Y743590D01*
X-6669980Y703590D01*
Y689930D01*
X-6694580D01*
Y554890D01*
X-6554540D01*
Y689930D01*
X-6579140D01*
Y741210D01*
X-6587960Y750030D01*
G02X-6580770Y767380I7184J7188D01*
G01X-6564540D01*
Y995980D01*
X-6544420D01*
G02X-6537230Y978640I2J-10160D01*
G01X-6542680Y973190D01*
Y561610D01*
X-6514580Y533510D01*
Y517810D01*
X-6554540D01*
Y539910D01*
X-6694580D01*
Y517810D01*
X-6734540D01*
Y539910D01*
X-6874580D01*
Y404870D01*
X-6734540D01*
Y426970D01*
X-6694580D01*
Y404870D01*
X-6554540D01*
Y426970D01*
X-6514580D01*
Y404870D01*
X-6477680D01*
Y280220D01*
X-6478980D01*
Y227740D01*
G02X-6496320Y220550I-10160J-2D01*
G01X-6496770Y221000D01*
X-6778710D01*
X-6900630Y342920D01*
X-6929150D01*
G02X-6939280Y353870I0J10161D01*
G03X-6939140Y357400I-45279J3564D01*
G01Y404870D01*
X-6914540D01*
Y539910D01*
X-7054580D01*
Y404870D01*
X-7029980D01*
Y357400D01*
G03X-7029840Y353870I45419J34D01*
G02X-7039970Y342920I-10130J-789D01*
G01X-7102390D01*
X-7150120Y295190D01*
Y78760D01*
X-7341150D01*
X-7388880Y31030D01*
Y-234230D01*
X-7356390Y-266720D01*
X-7040330D01*
X-6847290Y-73680D01*
X-6651710D01*
X-6590750Y-12720D01*
X-6476450D01*
X-6443960Y19770D01*
Y155180D01*
X-6410940D01*
Y280220D01*
X-6412240D01*
Y404870D01*
X-6374540D01*
Y529280D01*
X-6368770D01*
X-6356880Y541170D01*
G02X-6339540Y533980I7180J-7188D01*
G01Y403860D01*
G03X-6271260Y364610I45421J0D01*
G03X-6202980Y403860I22859J39250D01*
G01Y430290D01*
X-6248700Y476010D01*
Y597930D01*
X-6309410Y658640D01*
X-6286440Y681610D01*
Y691610D01*
X-6276440Y701610D01*
Y983190D01*
X-6280560Y987310D01*
G02X-6276970Y995980I3594J3590D01*
G01X-5322330D01*
X-5143200Y816850D01*
Y-342900D01*
G03X-5052360I45420J0D01*
G01Y854470D01*
X-5275280Y1077400D01*
G02X-5268100Y1094740I7184J7182D01*
G01X-4790440D01*
Y-901700D01*
X-5387340D01*
G37*
G36*
G01X-7432040Y-6510020D02*
Y-6118860D01*
X-7350760D01*
Y-6243320D01*
X-7348860Y-6245220D01*
Y-6257410D01*
X-7297420Y-6308850D01*
Y-6510020D01*
X-7432040D01*
G37*
G36*
G01X-7243620Y-5872580D02*
Y-5872460D01*
X-7382120D01*
Y-5759960D01*
X-7385140D01*
Y-5302580D01*
X-7345140Y-5262580D01*
X-7205140D01*
X-7185140Y-5282580D01*
Y-5447580D01*
X-7075140Y-5557580D01*
Y-5852580D01*
X-7095140Y-5872580D01*
X-7243620D01*
G37*
G36*
G01X-7340600Y-228600D02*
X-7350760Y-218440D01*
Y15240D01*
X-7325360Y40640D01*
X-7127240D01*
X-7112000Y55880D01*
Y279400D01*
X-7086600Y304800D01*
X-6916420D01*
X-6794500Y182880D01*
X-6512560D01*
X-6492480Y162800D01*
Y29220D01*
X-6604980D01*
Y26960D01*
X-6667500Y-35560D01*
X-6863080D01*
X-7056120Y-228600D01*
X-7340600D01*
G37*
G36*
G01X-6918230Y-6309360D02*
X-6962140Y-6265450D01*
Y-6014720D01*
X-6949440Y-6002020D01*
X-6812280D01*
X-6743700Y-5933440D01*
X-6553200D01*
Y-6309360D01*
X-6918230D01*
G37*
G36*
G01X-6103620Y-5110480D02*
X-6170930Y-5043170D01*
Y-5022850D01*
X-6187440Y-5006340D01*
X-6223000D01*
X-6273800Y-4955540D01*
X-6741160D01*
X-6756400Y-4940300D01*
Y-4826950D01*
G03X-6734840Y-4795590I-23204J39044D01*
G01X-6734560Y-4794000D01*
X-6713220Y-4772660D01*
Y-4610100D01*
X-6700520Y-4597400D01*
X-6537960D01*
X-6520180Y-4615180D01*
Y-4721860D01*
X-6497320Y-4744720D01*
X-6205220D01*
X-6187440Y-4762500D01*
Y-4828540D01*
X-6056800Y-4959180D01*
Y-4968370D01*
X-6047610D01*
X-6042660Y-4973320D01*
X-5951220D01*
X-5928360Y-4996180D01*
Y-5105400D01*
X-5933440Y-5110480D01*
X-6103620D01*
G37*
G36*
G01X-6474460Y-5933440D02*
X-6050280D01*
Y-6289040D01*
X-6474460D01*
Y-5933440D01*
G37*
G36*
G01X-6324560Y707400D02*
Y697400D01*
X-6364560Y657400D01*
Y587400D01*
X-6384560Y567400D01*
X-6494560D01*
X-6504560Y577400D01*
Y957400D01*
X-6474560Y987400D01*
X-6334560D01*
X-6314560Y967400D01*
Y717400D01*
X-6324560Y707400D01*
G37*
G36*
G01X-5897880Y-7101840D02*
X-6238240D01*
Y-6692900D01*
X-5897880D01*
Y-7101840D01*
G37*
G36*
G01X-6037580Y-6507480D02*
Y-6652260D01*
X-6240780D01*
Y-6334760D01*
X-5826760D01*
Y-6466840D01*
X-5996940D01*
X-6037580Y-6507480D01*
G37*
G36*
G01X-6126480Y-4124960D02*
X-6139180Y-4112260D01*
Y-3980820D01*
X-6160000Y-3960000D01*
X-6260000D01*
X-6273800Y-3946200D01*
Y-3810000D01*
X-6256020Y-3792220D01*
X-6174740D01*
X-6164580Y-3782060D01*
Y-3500120D01*
X-6156960Y-3492500D01*
X-5974080D01*
X-5971540Y-3495040D01*
Y-3797300D01*
X-5970270Y-3798570D01*
Y-3846830D01*
X-5994920Y-3871480D01*
X-6073820D01*
Y-4071520D01*
X-5887720D01*
Y-4117340D01*
X-5895340Y-4124960D01*
X-6126480D01*
G37*
G36*
G01X-4904740Y-7099300D02*
Y-7205980D01*
X-4892040Y-7218680D01*
X-4622800D01*
Y-7371080D01*
X-5240020D01*
Y-7099300D01*
X-4904740D01*
G37*
G36*
G01X-4130040Y-7084060D02*
X-4615180D01*
Y-6903720D01*
X-4130040D01*
Y-7084060D01*
G37*
G36*
G01X-4318000Y254000D02*
Y-627380D01*
X-4683760D01*
Y254000D01*
X-4318000D01*
G37*
G36*
G01X-396750Y170180D02*
G02X-391880Y151100I2J-10161D01*
G03X-308380I41750J-76460D01*
G02X-303510Y170180I4868J8919D01*
G01X-172720D01*
Y-78740D01*
X-160020Y-91440D01*
X297180D01*
Y-355600D01*
X-408940D01*
X-436880Y-383540D01*
Y-1084580D01*
X-911860Y-1559560D01*
Y-1701800D01*
X-1307010D01*
X-1307760Y-1701560D01*
G03X-1332240I-12240J-38440D01*
G01X-1332990Y-1701800D01*
X-1530650D01*
G02X-1538560Y-1685270I7J10161D01*
G03X-1602050Y-1635510I-31440J25270D01*
G02X-1618350Y-1635310I-8076J6168D01*
G03X-1681780Y-1685070I-32649J-23689D01*
G02X-1689530Y-1701800I-7752J-6569D01*
G01X-1720650D01*
G02X-1728560Y-1685270I7J10161D01*
G03X-1752080Y-1620450I-31442J25268D01*
G01X-1753580Y-1620140D01*
X-1896450Y-1477280D01*
X-1937470D01*
Y-1439980D01*
X-2072510D01*
Y-1580020D01*
X-1937470D01*
Y-1542720D01*
X-1923550D01*
X-1799860Y-1666420D01*
X-1799550Y-1667920D01*
G03X-1791440Y-1685270I39553J7918D01*
G02X-1799350Y-1701800I-7917J-6369D01*
G01X-2489200D01*
Y-1325880D01*
X-2588260Y-1226820D01*
X-2624840D01*
G02X-2633000Y-1210610I5J10161D01*
G03X-2632480Y-1142140I-46702J34592D01*
G01X-2633430Y-1140810D01*
Y-1122480D01*
X-2636500Y-1119410D01*
Y-903690D01*
X-2699780Y-840410D01*
G02X-2696190Y-831740I3594J3590D01*
G01X-2695150D01*
Y-790910D01*
X-2669730D01*
G03X-2668360Y-731810I28130J28914D01*
G01X-2669800Y-733090D01*
X-2681320D01*
X-2681600Y-732810D01*
X-2695150D01*
Y-691700D01*
X-2830190D01*
Y-803600D01*
X-2845170D01*
Y-691700D01*
X-2980250D01*
G02X-2997550Y-697940I-10117J947D01*
G01X-3081890Y-613600D01*
X-3100130D01*
X-3105220Y-608510D01*
G02X-3101630Y-599840I3596J3589D01*
G01X-3045830D01*
X-3031230Y-614440D01*
X-2980210D01*
Y-651740D01*
X-2845170D01*
Y-511700D01*
X-2867270D01*
Y-471740D01*
X-2845170D01*
Y-331700D01*
X-2867270D01*
Y-291740D01*
X-2845170D01*
Y-151700D01*
X-2980210D01*
Y-291740D01*
X-2958110D01*
Y-331700D01*
X-2980210D01*
Y-471740D01*
X-2958110D01*
Y-511700D01*
X-2980210D01*
Y-549000D01*
X-3004130D01*
X-3018730Y-534400D01*
X-3158060D01*
Y-533100D01*
X-3284060D01*
Y-469440D01*
X-3184130D01*
X-3074960Y-360270D01*
Y-324250D01*
X-3037660D01*
Y-189210D01*
X-3177700D01*
Y-324250D01*
X-3140400D01*
Y-333170D01*
X-3211230Y-404000D01*
X-3311230D01*
X-3339330Y-432100D01*
X-3352100D01*
Y-557140D01*
X-3283100D01*
Y-613600D01*
X-3305800D01*
Y-777100D01*
X-3352100D01*
Y-902140D01*
X-3284060D01*
Y-801140D01*
X-3184530D01*
X-3170400Y-815270D01*
Y-945270D01*
X-3071230Y-1044440D01*
X-2980210D01*
Y-1081740D01*
X-2855800D01*
Y-1097510D01*
X-2820790Y-1132520D01*
Y-1176020D01*
G03X-2809370Y-1210610I58118J8D01*
G02X-2817530Y-1226820I-8165J-6049D01*
G01X-4267200D01*
Y279400D01*
X-3665080D01*
G02X-3657900Y262060I-4J-10158D01*
G01X-3671650Y248300D01*
X-3797700D01*
Y28260D01*
X-3693100D01*
Y-39190D01*
X-3717700D01*
Y-174230D01*
X-3577660D01*
Y-167910D01*
G02X-3568990Y-164320I5080J-4D01*
G01X-3537700Y-195610D01*
Y-211310D01*
X-3577660D01*
Y-189210D01*
X-3717700D01*
Y-211310D01*
X-3757660D01*
Y-189210D01*
X-3897700D01*
Y-324250D01*
X-3757660D01*
Y-302150D01*
X-3717700D01*
Y-324250D01*
X-3577660D01*
Y-302150D01*
X-3537700D01*
Y-324250D01*
X-3500400D01*
Y-348170D01*
X-3500800Y-348570D01*
Y-400160D01*
G02X-3518140Y-407350I-10160J-2D01*
G01X-3541890Y-383600D01*
X-3923350D01*
G02X-3933280Y-371300I1J10159D01*
G03X-3942830Y-332590I-44399J9579D01*
G01X-3944020Y-331170D01*
Y-324250D01*
X-3937660D01*
Y-189210D01*
X-4077700D01*
Y-324250D01*
X-4053100D01*
Y-350530D01*
X-4051790Y-351850D01*
G02X-4058970Y-369190I-7184J-7182D01*
G01X-4090970D01*
X-4092260Y-367900D01*
Y-170530D01*
X-4086370Y-164650D01*
G02X-4077700Y-168240I3592J-3590D01*
G01Y-174230D01*
X-3937660D01*
Y-152130D01*
X-3897700D01*
Y-174230D01*
X-3757660D01*
Y-39190D01*
X-3897700D01*
Y-61290D01*
X-3937660D01*
Y-39190D01*
X-4077700D01*
Y-61290D01*
X-4111480D01*
X-4183100Y-132910D01*
Y-405520D01*
X-4157700Y-430920D01*
Y-504230D01*
X-4017660D01*
Y-408620D01*
G02X-4002050Y-400050I10159J-3D01*
G03X-3980730Y-407040I24372J38329D01*
G02X-3974230Y-424360I-683J-10136D01*
G01X-3985800Y-435930D01*
Y-655930D01*
X-4003470Y-673600D01*
X-4183470D01*
X-4225800Y-715930D01*
Y-867510D01*
X-4183470Y-909840D01*
X-3921890D01*
X-3851890Y-839840D01*
X-3681890D01*
X-3639560Y-797510D01*
Y-727510D01*
X-3631890Y-719840D01*
X-3479560D01*
Y-557140D01*
X-3434060D01*
Y-432100D01*
X-3435360D01*
Y-375670D01*
X-3434960Y-375270D01*
Y-324250D01*
X-3397660D01*
Y-195610D01*
X-3359560Y-157510D01*
Y-87510D01*
X-3299560Y-27510D01*
Y234070D01*
X-3327550Y262060D01*
G02X-3320360Y279400I7188J7180D01*
G01X-3271520D01*
X-3237160Y313760D01*
X-3117880D01*
X-3109870Y321760D01*
G02X-3092530Y314580I7182J-7184D01*
G01Y309980D01*
X-2957490D01*
Y450020D01*
X-3092530D01*
Y412720D01*
X-3111460D01*
X-3144980Y379200D01*
X-3147190D01*
G02X-3154380Y396540I-2J10160D01*
G01X-3147060Y403860D01*
Y970280D01*
X-2598420D01*
X-2565400Y937260D01*
Y723900D01*
X-2486660Y645160D01*
Y180340D01*
X-2423160Y116840D01*
X-2283460D01*
X-2255520Y88900D01*
Y-106680D01*
X-2232660Y-129540D01*
X-2062480D01*
X-1998980Y-193040D01*
Y-350820D01*
X-2115820D01*
G03X-2156620Y-416200I0J-45420D01*
G02X-2163500Y-430580I-9123J-4471D01*
G01X-2302060D01*
Y-423730D01*
X-2407100D01*
Y-430830D01*
X-2443990D01*
X-2445260Y-432100D01*
X-2492480D01*
G03Y-522940I0J-45420D01*
G01X-2407100D01*
Y-528770D01*
X-2302060D01*
Y-521920D01*
X-2190200D01*
G02X-2182960Y-535480I-2241J-9909D01*
G03X-2186000Y-551820I42394J-16340D01*
G01Y-597540D01*
X-2240300D01*
Y-777580D01*
X-2080260D01*
Y-638670D01*
G02X-2062920Y-631490I10158J-4D01*
G01X-2018480Y-675920D01*
Y-716730D01*
X-1913440D01*
Y-611690D01*
X-1954250D01*
X-2026920Y-539010D01*
G02X-2021980Y-521920I7184J7182D01*
G01X-1908270D01*
G03X-1903620Y-521680I-26J45671D01*
G01X-1886330Y-519890D01*
X-1868150Y-501710D01*
G03X-1866340Y-500380I-26130J37457D01*
G01X-1419560D01*
Y-960100D01*
X-1918250D01*
X-1934330Y-976180D01*
X-2019750D01*
Y-980430D01*
X-2027530D01*
X-2029040Y-978200D01*
G03X-2080220Y-1036990I-33441J-22560D01*
G01X-2079470Y-1037360D01*
X-2067680Y-1049140D01*
G03X-2047240Y-1057610I20440J20428D01*
G01X-2019750D01*
Y-1081220D01*
X-1948200D01*
Y-1115880D01*
X-2019750D01*
Y-1139490D01*
X-2065750D01*
X-2067860Y-1137370D01*
G03X-2110630Y-1178190I-40339J-551D01*
G01X-2108700Y-1178300D01*
X-2089690Y-1197310D01*
X-2019750D01*
Y-1220920D01*
X-1948200D01*
Y-1222290D01*
X-1915710Y-1254780D01*
X-1724110D01*
X-1652990Y-1183660D01*
X-1627320D01*
Y-1250130D01*
X-1522280D01*
Y-1243030D01*
X-1462220D01*
Y-1250130D01*
X-1421410D01*
X-1414880Y-1256660D01*
X-1441820Y-1283600D01*
G03X-1377580Y-1347840I32120J-32120D01*
G01X-1343380Y-1313630D01*
X-1342600D01*
X-1293590Y-1264620D01*
X-705090D01*
X-592120Y-1151650D01*
Y-1026160D01*
G03X-682960I-45420J0D01*
G01Y-1114030D01*
X-742710Y-1173780D01*
X-1321400D01*
G02X-1328590Y-1156440I-2J10160D01*
G01X-1321200Y-1149050D01*
X-1200600D01*
Y-1156150D01*
X-1159790D01*
X-1152920Y-1163020D01*
X-1026160D01*
G03Y-1072180I0J45420D01*
G01X-1095560D01*
Y-1051110D01*
X-1200600D01*
Y-1058210D01*
X-1315700D01*
Y-1000210D01*
X-1328720Y-987190D01*
Y-500380D01*
X-1314900D01*
Y-556710D01*
X-1209860D01*
Y-549610D01*
X-1188940D01*
X-1139090Y-499760D01*
X-1128240D01*
X-1121710Y-493230D01*
X-1077970D01*
X-1077950Y-493210D01*
X-1037140D01*
Y-388170D01*
X-1044240D01*
Y-351280D01*
X-1045510Y-350010D01*
Y-257810D01*
G03X-1082930Y-213100I-45420J0D01*
G01X-1087120Y-212350D01*
Y-134620D01*
X-960120Y-7620D01*
X-861060D01*
X-736600Y116840D01*
Y169210D01*
X-477080D01*
Y170180D01*
X-396750D01*
G37*
G36*
G01X-4167680Y-871720D02*
X-4187680Y-851720D01*
Y-731720D01*
X-4167680Y-711720D01*
X-3987680D01*
X-3947680Y-671720D01*
Y-451720D01*
X-3917680Y-421720D01*
X-3557680D01*
X-3517680Y-461720D01*
Y-681720D01*
X-3647680D01*
X-3677680Y-711720D01*
Y-781720D01*
X-3697680Y-801720D01*
X-3867680D01*
X-3937680Y-871720D01*
X-4167680D01*
G37*
G36*
G01X-2797680Y-1101720D02*
X-2817680Y-1081720D01*
Y-971720D01*
X-2845170Y-944230D01*
Y-941700D01*
X-2980210D01*
Y-941720D01*
X-3017680D01*
X-3104960Y-854440D01*
Y-788170D01*
X-3158060Y-735070D01*
Y-733100D01*
X-3166300D01*
X-3167680Y-731720D01*
X-3267680D01*
Y-651720D01*
X-3154550D01*
X-3013550Y-792720D01*
X-3007680D01*
Y-811720D01*
X-2977680Y-841720D01*
X-2752380D01*
X-2674620Y-919480D01*
Y-1081400D01*
X-2694940Y-1101720D01*
X-2797680D01*
G37*
G36*
G01X-3397680Y-71720D02*
Y-141720D01*
X-3417680Y-161720D01*
X-3517680D01*
X-3537680Y-141720D01*
Y218280D01*
X-3517680Y238280D01*
X-3357680D01*
X-3337680Y218280D01*
Y-11720D01*
X-3397680Y-71720D01*
G37*
G36*
G01X-3602260Y-39190D02*
Y28260D01*
X-3597660D01*
Y193820D01*
X-3593140Y198340D01*
G02X-3575800Y191160I7182J-7184D01*
G01Y-39190D01*
X-3602260D01*
G37*
G36*
G01X-3627120Y848360D02*
X-3220720D01*
Y393700D01*
X-3627120D01*
Y848360D01*
G37*
G36*
G01X-2527280Y953050D02*
X-2582630Y1008400D01*
X-3012440D01*
Y1186180D01*
X-1501140D01*
Y845820D01*
X-1882140D01*
X-1955800Y772160D01*
Y284480D01*
X-1993900Y246380D01*
X-2448540D01*
Y660950D01*
X-2448560Y660970D01*
Y683260D01*
X-2522220Y756920D01*
Y947420D01*
X-2527280Y952480D01*
Y953050D01*
G37*
G36*
G01X-2143760Y-7073900D02*
Y-6880860D01*
X-1750060D01*
Y-7073900D01*
X-2143760D01*
G37*
G36*
G01X-2008310Y-5128370D02*
G03X-1995230Y-5135540I25596J31178D01*
G01X-1994080Y-5135920D01*
X-1990000Y-5140000D01*
Y-5285000D01*
X-1935000Y-5340000D01*
Y-5530000D01*
X-1965000Y-5560000D01*
X-2205000D01*
X-2245000Y-5520000D01*
Y-5190000D01*
X-2183370Y-5128370D01*
X-2008310D01*
G37*
G36*
G01X-1899920Y-1216660D02*
X-1910080Y-1206500D01*
Y-1005840D01*
X-1902460Y-998220D01*
X-1371600D01*
X-1353820Y-1016000D01*
Y-1127760D01*
X-1371150Y-1145090D01*
X-1462220D01*
Y-1145540D01*
X-1522280D01*
Y-1145090D01*
X-1627320D01*
Y-1145540D01*
X-1668780D01*
X-1739900Y-1216660D01*
X-1899920D01*
G37*
G36*
G01X-930000Y-5760000D02*
X-1120000Y-5570000D01*
X-1870000D01*
X-1879570Y-5560430D01*
Y-5209570D01*
X-1877220Y-5207220D01*
X-1723580D01*
Y-5200000D01*
X-1480000D01*
X-1470000Y-5210000D01*
Y-5280000D01*
X-1465530Y-5284470D01*
Y-5292520D01*
X-1457480D01*
X-1440000Y-5310000D01*
X-1040000D01*
X-910000Y-5440000D01*
X-790000D01*
X-760000Y-5470000D01*
Y-5740000D01*
X-780000Y-5760000D01*
X-930000D01*
G37*
G36*
G01X-1492720Y-2987040D02*
G03X-1557140Y-2978000I-38904J-43179D01*
G01X-1560400Y-2979600D01*
X-1660000Y-2880000D01*
X-1760000D01*
X-1790000Y-2850000D01*
Y-2746970D01*
G03X-1785240Y-2740470I-30004J26965D01*
G01X-1784910Y-2739910D01*
X-1775000Y-2730000D01*
X-1711830D01*
X-1707730Y-2734100D01*
X-1707370Y-2735370D01*
G03X-1619630Y-2733850I43667J12493D01*
G01X-1618670Y-2730000D01*
X-1560000D01*
X-1557960Y-2727960D01*
X-1239520D01*
X-1231580Y-2720020D01*
X-1224980D01*
Y-2713420D01*
X-1224280Y-2712720D01*
Y-2453640D01*
X-1181100Y-2410460D01*
X-886460D01*
X-840740Y-2456180D01*
Y-2946400D01*
X-881380Y-2987040D01*
X-1492720D01*
G37*
G36*
G01X-1602760Y-312400D02*
X-1609910Y-305250D01*
Y-211640D01*
X-1610360D01*
Y-127000D01*
X-1600200Y-116840D01*
X-1361440D01*
X-1356360Y-121920D01*
Y-172150D01*
X-1386860Y-202650D01*
Y-312400D01*
X-1602760D01*
G37*
G36*
G01X-1849120Y-447040D02*
X-1871530Y-424630D01*
Y-331020D01*
X-1874520D01*
Y-303980D01*
X-1871530D01*
Y-205290D01*
X-1854200Y-187960D01*
X-1793240D01*
X-1762760Y-218440D01*
Y-317500D01*
X-1729740Y-350520D01*
X-1361440D01*
X-1348740Y-337820D01*
Y-218440D01*
X-1341120Y-210820D01*
X-1282700D01*
X-1259840Y-187960D01*
Y-134620D01*
X-1247140Y-121920D01*
X-1125240D01*
Y-228050D01*
G03X-1136350Y-257810I34304J-29760D01*
G01Y-379430D01*
X-1159310Y-402390D01*
X-1159330D01*
X-1165860Y-408920D01*
X-1176710D01*
X-1176730Y-408940D01*
X-1226820D01*
X-1264920Y-447040D01*
X-1849120D01*
G37*
G36*
G01X-1546860Y-73660D02*
X-1849120D01*
X-1861820Y-60960D01*
Y223520D01*
X-1823720Y261620D01*
X-1564640D01*
X-1531620Y228600D01*
Y-58420D01*
X-1546860Y-73660D01*
G37*
G36*
G01X-1041400Y-2319020D02*
X-1061720Y-2298700D01*
Y-1948180D01*
X-1049470Y-1935930D01*
X-1033300D01*
X-1032300Y-1936380D01*
G03X-984460I23920J52970D01*
G01X-983460Y-1935930D01*
X-964750D01*
X-947420Y-1953260D01*
Y-2092960D01*
X-929640Y-2110740D01*
X-807720D01*
X-789940Y-2128520D01*
Y-2301240D01*
X-807720Y-2319020D01*
X-1041400D01*
G37*
G36*
G01X-830580Y762000D02*
X-866140Y797560D01*
X-1102360D01*
Y1143000D01*
X-411480D01*
Y642620D01*
X-830580D01*
Y762000D01*
G37*
G36*
G01X-797880Y-5257880D02*
X-820000Y-5235770D01*
Y-5110000D01*
X-800000Y-5090000D01*
X-605000D01*
X-582500Y-5067500D01*
Y-4682500D01*
X-525000Y-4625000D01*
X-250000D01*
X-210000Y-4665000D01*
Y-4717930D01*
X-215920Y-4723850D01*
Y-4995920D01*
X-265000Y-5045000D01*
X-365000D01*
X-380000Y-5060000D01*
Y-5073680D01*
X-386530D01*
Y-5178720D01*
X-281490D01*
Y-5170000D01*
X-226270D01*
X-207480Y-5188790D01*
X-176210D01*
X-131920Y-5233080D01*
Y-5266570D01*
X-108640D01*
X-79290Y-5295920D01*
X62080D01*
Y-5360570D01*
X113300D01*
X113920Y-5360730D01*
G03X122100Y-5361770I8184J31680D01*
G01X198940D01*
Y-5382710D01*
X302260D01*
Y-5603180D01*
X198180D01*
Y-5453440D01*
X185420Y-5440680D01*
X184590D01*
X155790Y-5411880D01*
X-75790D01*
X-76420Y-5412520D01*
X-93980Y-5394960D01*
X-94300Y-5395280D01*
X-277260D01*
X-281490Y-5391050D01*
Y-5217980D01*
X-386530D01*
Y-5236530D01*
X-390000Y-5240000D01*
Y-5310000D01*
X-412280Y-5332280D01*
X-480510D01*
Y-5340000D01*
X-495000D01*
X-515000Y-5360000D01*
X-710000D01*
X-735000Y-5335000D01*
Y-5280000D01*
X-780000D01*
X-788520Y-5271480D01*
X-788890Y-5270680D01*
G03X-797880Y-5257880I-41111J-19317D01*
G37*
G36*
G01X230930Y-4919940D02*
X230790Y-4920530D01*
G03X271420Y-4970310I39211J-9468D01*
G02X281940Y-4980470I359J-10155D01*
G01Y-5153660D01*
X276860Y-5158740D01*
X104140D01*
X88900Y-5173980D01*
Y-5240020D01*
X81390Y-5247530D01*
X62080D01*
Y-5249030D01*
X-68880D01*
Y-5215350D01*
X-68720Y-5214730D01*
G03X-67680Y-5206550I-31680J8184D01*
G01Y-5155350D01*
X-68880Y-5154150D01*
Y-5146530D01*
X-73660D01*
Y-5133340D01*
X-81280Y-5125720D01*
X-97310D01*
X-99680Y-5123350D01*
X-142070D01*
X-177800Y-5087620D01*
Y-4739640D01*
X-167640Y-4729480D01*
X-10000D01*
X27940Y-4767420D01*
Y-4866640D01*
X45720Y-4884420D01*
X230930D01*
Y-4919940D01*
G37*
G36*
G01X-67680Y-5501550D02*
G03X-68720Y-5493370I-32720J-4D01*
G01X-68880Y-5492750D01*
Y-5459070D01*
X62080D01*
Y-5460570D01*
X113300D01*
X113920Y-5460730D01*
G03X122100Y-5461770I8184J31680D01*
G01X151770D01*
X160000Y-5470000D01*
Y-5595000D01*
X150720Y-5604280D01*
X42480D01*
Y-5615000D01*
X-42480D01*
Y-5604280D01*
X-70720D01*
X-80000Y-5595000D01*
Y-5571270D01*
X-70300Y-5561570D01*
X-68880D01*
Y-5560150D01*
X-67680Y-5558950D01*
Y-5501550D01*
G37*
%LPC*%
G75*
G36*
G01X-7476120Y-5885960D02*
Y-5954000D01*
X-7601160D01*
Y-5885960D01*
X-7571360D01*
Y-5774350D01*
X-7580210Y-5765500D01*
X-7737940D01*
Y-5799110D01*
X-7877980D01*
Y-5664070D01*
X-7737940D01*
Y-5698870D01*
X-7719010D01*
X-7717820Y-5700060D01*
X-7553110D01*
X-7505920Y-5747250D01*
Y-5885960D01*
X-7476120D01*
G37*
G36*
G01X-6154580Y689930D02*
X-6081270D01*
X-6042490Y728710D01*
Y773700D01*
X-5957090Y859100D01*
Y957420D01*
X-5822050D01*
Y817380D01*
X-5870350D01*
X-5951650Y736080D01*
Y691090D01*
X-6014540Y628200D01*
Y554890D01*
X-6154580D01*
Y689930D01*
G37*
G36*
G01X-7094540Y576990D02*
Y554890D01*
X-7234580D01*
Y689930D01*
X-7094540D01*
Y667830D01*
X-7054580D01*
Y689930D01*
X-6914540D01*
Y667830D01*
X-6874580D01*
Y689930D01*
X-6734540D01*
Y554890D01*
X-6874580D01*
Y576990D01*
X-6914540D01*
Y554890D01*
X-7054580D01*
Y576990D01*
X-7094540D01*
G37*
G36*
G01X-5672030Y755520D02*
X-5646650D01*
X-5496100Y604980D01*
G02X-5479080Y563880I-41102J-41095D01*
G01Y507400D01*
G02X-5537200Y449280I-58120J0D01*
G01X-5672030D01*
Y437380D01*
X-5807070D01*
Y577420D01*
X-5672030D01*
Y565520D01*
X-5645560D01*
G03X-5638380Y582860I-4J10158D01*
G01X-5682890Y627380D01*
X-5807070D01*
Y767420D01*
X-5672030D01*
Y755520D01*
G37*
G36*
G01X-6372050Y-242580D02*
Y-382620D01*
X-6507090D01*
Y-242580D01*
X-6472290D01*
Y-231140D01*
X-6477680Y-225750D01*
Y-189820D01*
X-6478980D01*
Y-64780D01*
X-6410940D01*
Y-189820D01*
X-6412240D01*
Y-198650D01*
X-6406850Y-204040D01*
Y-242580D01*
X-6372050D01*
G37*
G36*
G01X-5244550Y-627400D02*
X-5588550D01*
X-5833330Y-382620D01*
X-5957090D01*
Y-345320D01*
X-6048110D01*
X-6167280Y-226150D01*
Y-96150D01*
X-6174610Y-88820D01*
X-6260940D01*
Y-189820D01*
X-6328980D01*
Y-64780D01*
X-6282680D01*
Y105520D01*
X-6259980D01*
Y155180D01*
X-6328980D01*
Y280220D01*
X-6318010D01*
X-6268110Y330120D01*
X-6188110D01*
X-6130710Y387530D01*
G03X-6137890Y404870I-7184J7182D01*
G01X-6154580D01*
Y539910D01*
X-6014540D01*
Y404870D01*
X-6051840D01*
Y373850D01*
X-6161010Y264680D01*
X-6241010D01*
X-6260940Y244750D01*
Y179220D01*
X-6159010D01*
X-6118110Y220120D01*
X-6016010D01*
X-5974430Y178550D01*
G03X-5957090Y185730I7182J7184D01*
G01Y197420D01*
X-5934990D01*
Y247380D01*
X-5957090D01*
Y387420D01*
X-5934990D01*
Y437380D01*
X-5957090D01*
Y577420D01*
X-5822050D01*
Y437380D01*
X-5844150D01*
Y387420D01*
X-5822050D01*
Y247380D01*
X-5844150D01*
Y197420D01*
X-5822050D01*
Y57380D01*
X-5957090D01*
Y94680D01*
X-5983110D01*
X-6043110Y154680D01*
X-6091010D01*
X-6114710Y130980D01*
X-6089250Y105520D01*
X-6058770D01*
X-5960670Y7420D01*
X-5822050D01*
Y-104480D01*
X-5807070D01*
Y7420D01*
X-5672030D01*
Y-33690D01*
X-5559150D01*
X-5558250Y-34590D01*
X-5550630D01*
X-5460500Y-124720D01*
X-5458570Y-124830D01*
G02X-5423890Y-149290I-2434J-40267D01*
G01X-5422570Y-152380D01*
X-5269950D01*
X-5189200Y-233130D01*
Y-572050D01*
X-5244550Y-627400D01*
G37*
G36*
G01X-2592720Y193590D02*
Y296450D01*
X-2643550Y347280D01*
X-2807470D01*
Y309980D01*
X-2942510D01*
Y450020D01*
X-2807470D01*
Y412720D01*
X-2616450D01*
X-2527280Y323550D01*
Y193590D01*
G02X-2592720I-32720J-23590D01*
G37*
G36*
G01X-2980210Y213300D02*
X-2845170D01*
Y73260D01*
X-2918480D01*
X-3037660Y-45920D01*
Y-174230D01*
X-3177700D01*
Y-39190D01*
X-3153100D01*
Y-32900D01*
X-2980210Y139990D01*
Y213300D01*
G37*
G36*
G01X-2592260Y-221720D02*
G02X-2637680Y-267140I-45420J0D01*
G01X-2695150D01*
Y-291740D01*
X-2830190D01*
Y-151700D01*
X-2813100D01*
Y-111740D01*
X-2830190D01*
Y28300D01*
X-2695150D01*
Y-20D01*
X-2605560Y-89600D01*
G02X-2592260Y-121710I-32122J-32115D01*
G01Y-221720D01*
G37*
G36*
G01X-3434060Y-777100D02*
Y-902140D01*
X-3435360D01*
Y-951700D01*
X-3405170D01*
Y-1091740D01*
X-3540210D01*
Y-951700D01*
X-3505410D01*
X-3505430Y-923200D01*
X-3500800Y-918570D01*
Y-902140D01*
X-3502100D01*
Y-777100D01*
X-3434060D01*
G37*
G36*
G01X-2513190Y-844850D02*
G03Y-829010I-6366J7920D01*
G02X-2511880Y-765100I25261J31451D01*
G03Y-748740I-6027J8180D01*
G02X-2459800Y-687370I23943J32465D01*
G01X-2436590D01*
X-2401870Y-722090D01*
Y-817540D01*
X-2240260D01*
Y-997580D01*
X-2291370D01*
Y-1034600D01*
X-2267770D01*
Y-1139640D01*
X-2372810D01*
Y-1034600D01*
X-2349200D01*
Y-1021050D01*
X-2349190Y-1021040D01*
Y-997580D01*
X-2400300D01*
Y-936470D01*
X-2413850D01*
X-2414630Y-935690D01*
X-2430050D01*
X-2460170Y-905570D01*
G02X-2513190Y-844850I-27763J29266D01*
G37*
G36*
G01X-2106360Y-1597360D02*
X-2093580Y-1610140D01*
X-2092080Y-1610450D01*
G02X-2139550Y-1657920I-7920J-39550D01*
G01X-2139860Y-1656420D01*
X-2187730Y-1608540D01*
Y-1580020D01*
X-2222530D01*
Y-1439980D01*
X-2087490D01*
Y-1580020D01*
X-2099180D01*
G03X-2106360Y-1597360I4J-10158D01*
G37*
%LPD*%
G75*
G36*
G01X-6137450Y61180D02*
X-5984560Y-91710D01*
Y-102600D01*
X-5957090Y-130070D01*
Y-132620D01*
X-5954540D01*
X-5944560Y-142600D01*
X-5674560D01*
X-5674200Y-142240D01*
X-5633720D01*
X-5585460Y-190500D01*
X-5492340D01*
G03X-5429660I31340J25400D01*
G01X-5285740D01*
X-5227320Y-248920D01*
Y-556260D01*
X-5260340Y-589280D01*
X-5572760D01*
X-5803900Y-358140D01*
Y-332740D01*
X-5804560Y-252600D01*
X-5824560Y-232600D01*
X-6044560D01*
X-6101840Y-175320D01*
Y-69050D01*
X-6134940Y-35950D01*
Y-20780D01*
X-6244560D01*
Y61180D01*
X-6137450D01*
G37*
G54D10*
X-8765650Y-7243880D03*
Y-6793880D03*
Y-6943880D03*
Y-7093880D03*
Y-6343880D03*
Y-6493880D03*
Y-6643880D03*
Y-6043880D03*
Y-6193880D03*
G54D11*
X-8891440Y-4972780D03*
Y-4076780D03*
G54D20*
G01X-8141970Y-7181850D02*
X-8229940Y-7093880D01*
X-8375650D01*
G01X-8224990Y-1680000D02*
Y-1795310D01*
G01X-7072710Y-3911600D02*
X-7162800D01*
G01X-6984560Y622410D02*
X-7164560D01*
G01X-7025640Y-5976620D02*
Y-6266180D01*
X-6934200Y-6357620D01*
X-6479540D01*
X-6318330Y-6518830D01*
Y-6591300D01*
G01X-7025640Y-5976620D02*
X-6969760Y-5920740D01*
X-6967770D01*
X-6967010Y-5919980D01*
G01D02*
X-6966420Y-5919390D01*
X-6891020D01*
G01X-7107700Y-4913300D02*
Y-4835380D01*
X-7127240Y-4815840D01*
G01X-6779260Y-4264660D02*
X-6819500Y-4304900D01*
Y-4357290D01*
G01X-6971110Y-3708400D02*
Y-3796500D01*
G01X-6820000Y-3330000D02*
Y-3413660D01*
X-6701870Y-3531790D01*
X-6604000D01*
G01X-6903010Y-3540000D02*
X-6819140D01*
G01X-7033010Y-2940000D02*
X-6844920D01*
X-6839020Y-2934100D01*
G01X-6973010Y-2000000D02*
X-6843220D01*
X-6839020Y-1995800D01*
G01X-6984560Y472390D02*
Y357400D01*
G01X-6624560Y472390D02*
X-6804560D01*
G01Y622410D02*
X-6984560D01*
G01X-6318330Y-6591300D02*
Y-6893560D01*
G01X-6604000Y-3681810D02*
Y-3771900D01*
G01X-6311900Y-3176190D02*
Y-3073400D01*
G01X-6664560Y877400D02*
Y762400D01*
X-6624560Y722400D01*
Y622410D01*
G01X-6444560Y472390D02*
X-6624560D01*
G01X-6294120Y403860D02*
Y457200D01*
G01X-6248400Y403860D02*
Y411480D01*
X-6294120Y457200D01*
G01D02*
Y579120D01*
X-6337410Y622410D01*
X-6444560D01*
G01X-5097780Y-342900D02*
Y835660D01*
X-5303520Y1041400D01*
X-6588760D01*
X-6664560Y965600D01*
Y877400D01*
G01X-6180600Y-5383700D02*
Y-5287500D01*
G01X-6134100Y-3176190D02*
Y-3073400D01*
G01X-6160000Y-2138180D02*
Y-2288040D01*
X-6068040Y-2380000D01*
X-5986990D01*
G01X-5889570Y317400D02*
Y127400D01*
G01X-6084560Y622410D02*
X-5997070Y709900D01*
Y754890D01*
X-5889570Y862390D01*
Y887400D01*
G01Y507400D02*
Y317400D01*
G01Y712390D02*
Y697400D01*
G01X-5500290Y-5232400D02*
Y-5156200D01*
X-5551090Y-5105400D01*
X-5610860D01*
G01X-5739550Y317400D02*
Y127400D01*
G01X-5588600Y507400D02*
Y512480D01*
X-5537200Y563880D01*
G01X-5739550Y317400D02*
Y332410D01*
X-5664560Y407400D01*
G01X-4861560Y-6083300D02*
X-4922520D01*
X-4987210Y-6147990D01*
Y-6245860D01*
G01X-5113800Y-5327400D02*
X-4992620D01*
X-4973320Y-5346700D01*
G01X-5016500Y-3247390D02*
X-5045870D01*
X-5046590Y-3248110D01*
G01X-5241290Y-3352800D02*
Y-3467100D01*
X-5245100Y-3470910D01*
G01D02*
X-5130800D01*
G01X-5046590Y-3148110D02*
X-5021800D01*
X-5016500Y-3153410D01*
G01X-4686300Y-5094300D02*
X-4655400D01*
X-4564900Y-5003800D01*
G01X-4720000Y-2165940D02*
X-4820240D01*
X-4893010Y-2238710D01*
Y-2380000D01*
G01X-4221480Y-3153410D02*
X-4226780Y-3148110D01*
X-4246610D01*
G01X-4135010Y-1850000D02*
Y-1973470D01*
X-4152030Y-1990490D01*
G01X-4056990Y-1640000D02*
Y-1669390D01*
X-4106800Y-1719200D01*
G01X-4007680Y-106710D02*
X-4092670D01*
X-4137680Y-151720D01*
Y-386710D01*
X-4087680Y-436710D01*
G01X-3477260Y-1348740D02*
Y-1472260D01*
X-3521200Y-1516200D01*
X-3663900D01*
G01X-3647680Y-256730D02*
X-3827680D01*
G01X-3467680D02*
X-3647680D01*
G01X-3977680Y-361720D02*
X-4007680Y-331720D01*
Y-256730D01*
G01X-3510840Y346480D02*
X-3558540Y298780D01*
Y297180D01*
X-3647680Y208040D01*
Y114300D01*
G01D02*
Y-106710D01*
G01X-3697680Y138280D02*
X-3671660D01*
X-3647680Y114300D01*
G01X-3827680Y-106710D02*
X-4007680D01*
G01X-3506800Y-5207000D02*
Y-5316800D01*
X-3562350Y-5372350D01*
Y-5438140D01*
G01D02*
X-3467100D01*
G01X-3445510Y-5068570D02*
X-3318180Y-5195900D01*
X-3251200D01*
G01X-3314990Y-2150000D02*
X-3185000D01*
G01X-3276420Y-1770200D02*
Y-1844220D01*
X-3223440Y-1897200D01*
X-3123900D01*
G01X-3465010Y-2150000D02*
X-3580000D01*
G01X-3123900Y-1770200D02*
X-3276420D01*
G01X-3322670Y-1021720D02*
Y-935070D01*
G01X-2846990Y-5879990D02*
X-2862270D01*
X-2934760Y-5807500D01*
G01X-2825010Y-5691990D02*
X-2730650D01*
X-2730500Y-5692140D01*
G01X-2940010Y-5286990D02*
Y-5369990D01*
X-2880000Y-5430000D01*
G01X-2790000Y-4960000D02*
X-2787500D01*
X-2597500Y-5150000D01*
G01X-2880000Y-3950000D02*
Y-4050000D01*
X-2835000Y-4095000D01*
X-2825000D01*
G01X-2765010Y-3890000D02*
X-2820000D01*
X-2880000Y-3950000D01*
G01X-2803010Y-1520010D02*
Y-1443010D01*
X-2725000Y-1365000D01*
G01X-2803010Y-1640000D02*
Y-1728350D01*
X-2722880Y-1808480D01*
G01X-2912690Y-401720D02*
Y-581720D01*
G01Y-221720D02*
Y-401720D01*
G01X-2767680Y-161720D02*
X-2707680Y-221720D01*
G01X-2762670D02*
X-2767680Y-216710D01*
Y-161720D01*
G01X-2707680Y-221720D02*
X-2762670D01*
G01X-2767680Y-161720D02*
Y-91720D01*
G01X-2912690Y143280D02*
X-3107680Y-51710D01*
Y-106710D01*
G01X-2697700Y-161700D02*
Y-106690D01*
X-2762670Y-41720D01*
G01D02*
X-2717680D01*
X-2637680Y-121720D01*
G01Y-171720D02*
X-2767680Y-41720D01*
Y-91720D01*
G01D02*
X-2697700Y-161700D01*
G01X-2210000Y-5520000D02*
X-2270000D01*
X-2350000Y-5600000D01*
X-2370000D01*
G01X-2449030Y-5120970D02*
Y-5170970D01*
G01X-2380000Y-5174990D02*
X-2319010D01*
G01X-2318990D02*
X-2312900Y-5168900D01*
G01X-2472500Y-5097500D02*
X-2480000Y-5090000D01*
G01X-2319010Y-5174990D02*
X-2304020Y-5160000D01*
G01X-2449030Y-5120970D02*
X-2472500Y-5097500D01*
G01X-2460000Y-5160000D02*
X-2304020D01*
G01X-2449030Y-5170970D02*
X-2445010Y-5174990D01*
X-2380000D01*
G01X-2460000Y-5160000D02*
X-2449030Y-5170970D01*
G01X-2460000Y-5160000D02*
X-2480000Y-5140000D01*
Y-5090000D01*
G01X-2460000Y-5160000D02*
X-2420010Y-5120010D01*
X-2325020D01*
G01X-2380000Y-5325010D02*
X-2225010D01*
G01X-2597500Y-5150000D02*
X-2422490Y-5325010D01*
X-2380000D01*
G01Y-4977450D02*
X-2307450D01*
X-2280000Y-4950000D01*
G01X-2380000Y-4827430D02*
Y-4470000D01*
X-2270000Y-4360000D01*
G01X-2545000Y-4285000D02*
X-2489180D01*
X-2414180Y-4360000D01*
X-2270000D01*
G01X-2545000Y-4095000D02*
Y-4020740D01*
X-2512060Y-3987800D01*
Y-3454400D01*
X-2692400Y-3274060D01*
Y-3002280D01*
G01X-2700020Y-3482340D02*
X-2730000Y-3512320D01*
Y-3740000D01*
X-2614990Y-3855010D01*
Y-3890000D01*
G01X-2246990Y-3510010D02*
X-2299990D01*
X-2323010Y-3486990D01*
X-2370000D01*
G01X-2244690Y-3275400D02*
X-2381180D01*
G01X-2244690Y-2952500D02*
X-2300000D01*
X-2321910Y-2930590D01*
X-2373600D01*
G01X-2244690Y-3056800D02*
X-2400000D01*
X-2510000Y-2946800D01*
Y-2500000D01*
X-2570000Y-2440000D01*
X-2640000D01*
X-2700000Y-2380000D01*
G01X-2459360Y-2395220D02*
X-2504780D01*
X-2580000Y-2320000D01*
Y-2105010D01*
G01X-2459360Y-2395220D02*
Y-2395400D01*
G01X-2580000Y-1954990D02*
X-2525480D01*
X-2479040Y-1908550D01*
G01X-2637680Y-221720D02*
X-2697700Y-161700D01*
G01X-2637680Y-171720D02*
Y-221720D01*
G01Y-121720D02*
Y-171720D01*
G01Y-221720D02*
X-2707680D01*
G01X-2354580Y-476250D02*
X-1908320D01*
X-1907160Y-476130D01*
X-1897290Y-466260D01*
X-1894250Y-464230D01*
X-1884160Y-454140D01*
X-1875760D01*
X-1830070Y-408450D01*
G01X-2492480Y-477520D02*
X-2426450D01*
X-2425180Y-476250D01*
X-2354580D01*
G01X-2227000Y-5083000D02*
X-2247000Y-5103000D01*
G01X-2279050Y-5120970D02*
X-2272020Y-5128000D01*
G01X-2246980Y-5103000D02*
X-2247000D01*
G01X-2272020Y-5128000D02*
X-2272000D01*
X-2247000Y-5103000D01*
G01X-2319010Y-5174990D02*
X-2318990D01*
G01X-2304020Y-5160000D02*
X-2272020Y-5128000D01*
G01X-2160280Y-687560D02*
X-2140580Y-667860D01*
Y-551820D01*
G01X-1965960Y-664210D02*
X-2078350Y-551820D01*
X-2140580D01*
G01X-1695450Y473710D02*
X-1924050Y245110D01*
Y-251460D01*
G01D02*
Y-383540D01*
G01X-2115820Y-396240D02*
X-1936750D01*
X-1924050Y-383540D01*
G01X-1424940Y-5031740D02*
X-1460500D01*
X-1537010Y-4955230D01*
G01D02*
Y-4903000D01*
G01X-1640000Y-4875000D02*
Y-4751950D01*
X-1587050Y-4699000D01*
X-1537010D01*
G01X-1640000Y-4930000D02*
Y-4875000D01*
G01X-1409700Y-1197610D02*
X-1574800D01*
G01Y-1103630D02*
X-1409700D01*
G01X-1663700Y-140970D02*
Y-262890D01*
X-1662430Y-264160D01*
G01X-1830070Y-408450D02*
Y-383540D01*
G01X-914990Y-4790000D02*
Y-4904990D01*
X-990000Y-4980000D01*
X-1190000D01*
X-1267000Y-4903000D01*
X-1386990D01*
G01X-1065010Y-4834990D02*
X-1050000Y-4850000D01*
G01X-1065010Y-4834990D02*
Y-4890000D01*
G01D02*
X-1010000D01*
G01X-1065010Y-4804990D02*
Y-4834990D01*
G01Y-4804990D02*
Y-4790000D01*
G01X-1010000Y-4890000D02*
Y-4860000D01*
X-1065010Y-4804990D01*
G01X-1085000Y-4605000D02*
Y-4710000D01*
G01X-1065010Y-4790000D02*
X-1050000Y-4774990D01*
G01Y-4850000D02*
X-1010000Y-4890000D01*
G01X-1050000Y-4774990D02*
Y-4850000D01*
G01Y-4774990D02*
Y-4640000D01*
X-1065010Y-4624990D01*
G01X-1085000Y-4710000D02*
Y-4770010D01*
X-1065010Y-4790000D01*
G01X-1090000Y-4814990D02*
X-1065010Y-4790000D01*
G01X-1090000Y-4814990D02*
Y-4865010D01*
X-1065010Y-4890000D01*
G01X-1085000Y-4710000D02*
X-1090000Y-4715000D01*
G01X-1065010Y-4624990D02*
X-1085000Y-4605000D01*
G01X-1065010Y-4790000D02*
Y-4624990D01*
G01X-1090000Y-4715000D02*
Y-4814990D01*
G01Y-4715000D02*
Y-4610000D01*
X-1085000Y-4605000D01*
G01X-1386990Y-4699000D02*
Y-4805000D01*
G01D02*
Y-4903000D01*
G01X-1390000Y-4020000D02*
Y-4090000D01*
X-1307870Y-4172130D01*
G01X-1237870D02*
X-1077430D01*
X-1052650Y-4147350D01*
G01X-1294990Y-4115010D02*
X-1230000D01*
G01X-1294990D02*
X-1237870Y-4172130D01*
G01X-1307870D02*
X-1237870D01*
G01X-1052650Y-4147350D02*
X-1041500Y-4136200D01*
G01X-1307870Y-4172130D02*
X-1283090Y-4147350D01*
X-1052650D01*
G01X-1041500Y-4136200D02*
X-1062690Y-4115010D01*
G01X-1370010Y-4039990D02*
X-1310000Y-4100000D01*
G01X-1062690Y-4115010D02*
X-1230000D01*
G01X-1310000Y-4100000D02*
X-1294990Y-4115010D01*
G01X-1310000Y-4100000D02*
X-1077700D01*
X-1062690Y-4115010D01*
G01X-1119990Y-4459990D02*
X-1060000D01*
G01X-1020000Y-4490000D02*
X-1085000Y-4425000D01*
G01D02*
Y-4355000D01*
G01X-1150000Y-4490000D02*
X-1186990Y-4526990D01*
X-1240000D01*
G01X-1085000Y-4425000D02*
X-1119990Y-4459990D01*
G01D02*
X-1150000Y-4490000D01*
G01X-1029990D02*
X-1150000D01*
G01X-1060000Y-4459990D02*
X-1029990Y-4490000D01*
G01X-919990Y-4459990D02*
X-1060000D01*
G01X-1020000Y-4490000D02*
X-1029990D01*
G01X-1000000D02*
X-1020000D01*
G01X-1390000Y-3880000D02*
Y-3930000D01*
G01Y-4020000D02*
Y-3930000D01*
G01X-1370010Y-4039990D02*
X-1390000Y-4020000D01*
G01X-1370010Y-4039990D02*
Y-3899990D01*
X-1390000Y-3880000D01*
G01X-1126990Y-3789990D02*
X-1146980Y-3770000D01*
X-1230000D01*
G01X-637540Y-1026160D02*
Y-1132840D01*
X-723900Y-1219200D01*
X-1313180D01*
G01X-1409700Y-1197610D02*
X-1388110Y-1219200D01*
X-1313180D01*
G01D02*
X-1339100Y-1245120D01*
Y-1245900D01*
X-1361410Y-1268210D01*
X-1362190D01*
X-1409700Y-1315720D01*
G01Y-1103630D02*
X-1148080D01*
G01X-1026160Y-1117600D02*
X-1134110D01*
X-1148080Y-1103630D01*
G01X-1409700D02*
Y-1028700D01*
G01D02*
X-1374140Y-993140D01*
Y-441960D01*
G01X-1090930Y-257810D02*
Y-368820D01*
X-1089660Y-370090D01*
Y-440690D01*
G01X-1262380Y-504190D02*
X-1207750D01*
X-1157900Y-454340D01*
X-1147050D01*
X-1140520Y-447810D01*
X-1096780D01*
X-1089660Y-440690D01*
G01X-1262380Y-410210D02*
X-1342390D01*
X-1374140Y-441960D01*
G01X-1036320Y170180D02*
Y664730D01*
X-1038860Y667270D01*
Y737870D01*
G01X-660400Y-5795010D02*
X-725010D01*
X-785010Y-5855010D01*
X-830000D01*
G01X-476000Y-5689300D02*
X-614190D01*
X-645800Y-5657690D01*
G01D02*
X-563110Y-5575000D01*
X-316000D01*
X-286000Y-5605000D01*
Y-5689300D01*
G01X-645800Y-5657690D02*
X-660400Y-5672290D01*
Y-5795010D01*
G01X-970000Y-5200000D02*
Y-5250000D01*
G01Y-5200000D02*
X-910000D01*
G01X-830000Y-5354990D02*
Y-5290000D01*
G01D02*
X-876990Y-5243010D01*
Y-5200000D01*
G01X-894990Y-5354990D02*
X-830000D01*
G01X-894990D02*
X-895010D01*
X-935000Y-5315000D01*
G01D02*
X-970000Y-5280000D01*
Y-5250000D01*
G01X-855000Y-5315000D02*
X-894990Y-5354990D01*
G01X-855000Y-5315000D02*
X-935000D01*
G01X-830000Y-5290000D02*
X-855000Y-5315000D01*
G01D02*
X-920000Y-5250000D01*
G01X-910000Y-5200000D02*
X-876990D01*
G01X-935000Y-5315000D02*
X-910000Y-5290000D01*
G01D02*
Y-5200000D01*
G01X-920000Y-5250000D02*
X-970000D01*
G01X-910000Y-5290000D02*
X-920000Y-5280000D01*
Y-5250000D01*
G01X-760000Y-4086990D02*
X-773010Y-4100000D01*
X-875300D01*
X-911500Y-4136200D01*
G01X-760000Y-4086990D02*
X-776990D01*
X-795010Y-4105010D01*
G01X-800000Y-4170000D02*
X-760000D01*
Y-4086990D01*
G01X-795010Y-4105010D02*
X-826200Y-4136200D01*
X-911500D01*
G01X-675000Y-4045000D02*
X-735010Y-4105010D01*
G01D02*
X-795010D01*
G01Y-4165010D02*
Y-4105010D01*
G01Y-4165010D02*
X-735010Y-4105010D01*
G01X-800000Y-4170000D02*
X-795010Y-4165010D01*
G01X-800000Y-4170000D02*
X-820000Y-4190000D01*
G01D02*
X-750000D01*
X-646990Y-4086990D01*
G01X-877700Y-4170000D02*
X-800000D01*
G01X-877700D02*
X-911500Y-4136200D01*
G01X-820000Y-4190000D02*
X-857700D01*
X-877700Y-4170000D01*
G01X-919990Y-4459990D02*
Y-4440000D01*
G01D02*
X-895000Y-4415010D01*
G01X-969990Y-4490000D02*
X-950000D01*
G01X-969990D02*
X-1000000D01*
G01X-919990Y-4440000D02*
X-969990Y-4490000D01*
G01X-895000Y-4415010D02*
Y-4355000D01*
G01X-919990Y-4459990D02*
X-950000Y-4490000D01*
G01X-895000Y-4415010D02*
Y-4435000D01*
X-919990Y-4459990D01*
G01X-696990Y-4086990D02*
X-655000Y-4045000D01*
G01X-620000Y-4060000D02*
Y-4010000D01*
G01Y-4060000D02*
X-646990Y-4086990D01*
G01X-655000Y-4045000D02*
X-620000Y-4010000D01*
G01X-675000Y-4045000D02*
X-655000D01*
G01X-675000D02*
X-640000Y-4010000D01*
X-620000D01*
G01X-646990Y-4086990D02*
X-696990D01*
G01D02*
X-760000D01*
G01Y-3993010D02*
Y-3900000D01*
G01X-960000Y-3740000D02*
X-987230Y-3712770D01*
Y-3644500D01*
G01Y-3263500D02*
Y-3390500D01*
G01X-827210D02*
Y-3263500D01*
G01X-733230Y-3517500D02*
Y-3639780D01*
X-733010Y-3640000D01*
G01X-581660Y-3497580D02*
X-629020D01*
X-648940Y-3517500D01*
X-733230D01*
G01X-987230D02*
Y-3644500D01*
G01X-247000Y-3173000D02*
X-468500D01*
X-505000Y-3136500D01*
X-987230D01*
G01X-556260Y-1856740D02*
Y-1928580D01*
X-616200Y-1988520D01*
G01X-963300Y-1838330D02*
X-884550D01*
X-805180Y-1917700D01*
Y-1987500D01*
X-806200Y-1988520D01*
G01X-688340Y-1640840D02*
Y-1584960D01*
G01Y-1640840D02*
X-629920D01*
G01X-688340D02*
X-629920Y-1582420D01*
G01X-688340Y-1640840D02*
X-723900Y-1676400D01*
X-726440D01*
X-728620Y-1678580D01*
Y-1750420D01*
X-718520Y-1760520D01*
X-711200D01*
G01X-610130Y374650D02*
X-890270D01*
X-891540Y375920D01*
X-909320D01*
X-967740Y317500D01*
Y259080D01*
G01X-610130Y454660D02*
Y584730D01*
G01X-546100Y523240D02*
Y518690D01*
X-571750Y493040D01*
G01D02*
X-610130Y454660D01*
G01X-571750Y493040D02*
Y581910D01*
G01X-868680Y294640D02*
X-610130D01*
G01X-546100Y528320D02*
X-490220Y584200D01*
G01X-546100Y528320D02*
Y584200D01*
G01Y523240D02*
Y528320D01*
G01X251460Y-5509260D02*
Y-5424170D01*
G01Y-5245100D02*
Y-5330190D01*
X-8224990Y-1795310D03*
X-7438900Y-6066460D03*
X-7294120D03*
Y-5921680D03*
X-7438900D03*
X-7366140Y-5994980D03*
X-7162800Y-3911600D03*
X-6903720Y-6217920D03*
X-6846800Y-6273740D03*
X-6847840Y-6217920D03*
X-6779600Y-4787900D03*
X-6766560Y-4617720D03*
X-7127240Y-4815840D03*
X-6789420Y-4724400D03*
X-6730000Y-4426500D03*
Y-4101500D03*
X-6824980Y-4102100D03*
X-6730000Y-4356100D03*
X-6731000Y-4491500D03*
X-6779260Y-4264660D03*
X-6822440Y-3911600D03*
X-6971110Y-3796500D03*
X-7072710Y-3794760D03*
X-6820000Y-3330000D03*
X-6819140Y-3540000D03*
X-6839020Y-3034100D03*
X-6936740Y-3030220D03*
X-6926580Y-2784100D03*
X-6839020Y-2834100D03*
X-7010400Y-2786380D03*
X-6839020Y-2934100D03*
X-6890000Y-2584100D03*
X-6926580Y-2684100D03*
X-6850380Y-2387600D03*
X-6839020Y-2634100D03*
Y-2734100D03*
X-6808920Y-2534100D03*
X-6930130Y-2229870D03*
X-6839020Y-1995800D03*
X-6926580Y-1745800D03*
X-6839020Y-1495800D03*
X-6930150Y-1682400D03*
X-6925000Y-1510000D03*
X-6839020Y-1695800D03*
Y-1895800D03*
Y-1395800D03*
X-6926580Y-1445800D03*
Y-1345800D03*
X-6837680Y-1295400D03*
X-6840220Y-1206500D03*
X-6820000Y-920000D03*
X-6984560Y357400D03*
X-6291580Y-5573700D03*
X-6362700Y-5359400D03*
X-6604000Y-3771900D03*
X-6540600Y-3384100D03*
Y-3284100D03*
X-6454140Y-3334100D03*
X-6466840Y-3535680D03*
X-6454140Y-3234100D03*
Y-3434100D03*
Y-3134100D03*
X-6540600Y-3184100D03*
Y-3084100D03*
X-6311900Y-3073400D03*
X-6390640Y-2446020D03*
X-6510000Y-1595800D03*
X-6466840Y-1045800D03*
X-6378060Y-1095800D03*
X-6466840Y-1145800D03*
X-6378060Y-1195800D03*
X-6525000Y-1300000D03*
X-6466840Y-945800D03*
X-6518600Y-745800D03*
X-6378060Y-995800D03*
X-6594560Y-162600D03*
X-6344560Y-217600D03*
X-6594560Y-327600D03*
Y-247600D03*
X-6519560Y-117600D03*
X-6441440Y117960D03*
Y-26820D03*
X-6296660D03*
Y117960D03*
X-6369960Y45200D03*
X-6102100Y-5264400D03*
X-6180600Y-5287500D03*
X-5839200Y-4556500D03*
X-5836920Y-4426500D03*
X-6134100Y-3073400D03*
X-6037580Y-2946400D03*
X-6219560Y-217600D03*
Y-137600D03*
X-5412730Y-5905510D03*
X-5803900Y-5636260D03*
X-5519420Y-5524500D03*
X-5735910Y-5638800D03*
X-5763260Y-5808980D03*
X-5729870Y-5501640D03*
X-5760720Y-5298440D03*
X-5811520Y-5224700D03*
X-5610860Y-5105400D03*
X-5825580Y-4296500D03*
X-5745000Y-2385000D03*
Y-2470000D03*
X-5740000Y-2555000D03*
X-5440000Y-2620000D03*
X-5511900Y-2158010D03*
X-5664560Y407400D03*
X-5220500Y-5996430D03*
X-5114810Y-6103620D03*
X-5367020Y-5422900D03*
X-5260340Y-5445760D03*
X-5265420Y-5699760D03*
X-5176520Y-5811520D03*
X-5367020Y-5646420D03*
X-4973320Y-5346700D03*
X-5315120Y-5129700D03*
X-4632960Y-5478780D03*
X-4176270Y-2628390D03*
X-4152030Y-1990490D03*
X-4023360Y-6870700D03*
X-3667760Y-6586220D03*
X-3900930Y-5514340D03*
X-3949200Y-5134250D03*
X-3886200Y-5126230D03*
X-4055860Y-5304790D03*
X-3740000Y-2658110D03*
X-3659600Y-2145000D03*
X-3778410Y-1568290D03*
X-3984080Y-1443280D03*
Y-1393280D03*
X-3650460Y-1094820D03*
X-3847680Y-1131720D03*
X-3747680D03*
X-3650460Y-989820D03*
Y-884820D03*
X-3977680Y-361720D03*
X-3285620Y-6837680D03*
X-3298660Y-6421590D03*
X-3203740D03*
X-3451860Y-6223000D03*
X-3253080Y-5775820D03*
X-3346210Y-5784030D03*
X-3413300Y-5565600D03*
X-3454400Y-5753100D03*
X-3467100Y-5438140D03*
X-3352800Y-5067300D03*
X-3445510Y-5068570D03*
X-3362960Y-4838700D03*
X-3334020Y-4446000D03*
X-3479800Y-2628900D03*
X-3594100D03*
X-3365500D03*
X-3378200Y-1990490D03*
X-3580000Y-2150000D03*
X-3276420Y-1770200D03*
X-3380000Y-1896510D03*
Y-1840000D03*
X-3287460Y-1618680D03*
X-3312680Y-1126720D03*
X-3222680Y-1036720D03*
X-3324860Y-596900D03*
X-3393080Y-667120D03*
X-3560380Y-872120D03*
X-3225060Y-954660D03*
X-3212360Y-882360D03*
X-3464560Y-594360D03*
Y-739140D03*
X-3319780D03*
X-3322670Y-935070D03*
X-3322680Y-301720D03*
Y-166720D03*
X-3232680D03*
Y-301720D03*
X-3387680Y-406720D03*
Y-351720D03*
X-3360680Y-1720D03*
X-3487680D03*
X-3424180D03*
X-3025000Y-6925000D03*
X-3154680Y-5989170D03*
X-2973070Y-5990590D03*
X-2880000Y-5430000D03*
X-3101850Y-5613910D03*
X-3065000Y-5181600D03*
X-3074770Y-4853100D03*
X-3030000Y-4775000D03*
X-2880000Y-3950000D03*
X-3185000Y-2150000D03*
X-3018540Y-2018510D03*
X-2882200Y-1710600D03*
X-3050000Y-1313270D03*
X-3100000D03*
X-2900000Y-1355000D03*
X-3162680Y-1121720D03*
X-2339340Y-6250940D03*
X-2720000Y-5806440D03*
X-2381180Y-3275400D03*
X-2692400Y-3002280D03*
X-2459360Y-2395400D03*
X-2373600Y-2749580D03*
X-2479040Y-1908550D03*
X-2453640Y-2011680D03*
X-2725000Y-1365000D03*
X-2637680Y-221720D03*
Y-171720D03*
Y-121720D03*
X-2144780Y-6250940D03*
X-2280000Y-4950000D03*
X-2209200Y-3591160D03*
X-2103130Y-3591450D03*
X-2209050Y-3644640D03*
X-2103050Y-3644950D03*
X-2133600Y-2542540D03*
X-1640000Y-4930000D03*
X-1470000Y-3560000D03*
X-1750000Y-3550000D03*
X-1745000Y-2755000D03*
X-1545000Y-2765000D03*
X-1495000D03*
X-1445000D03*
X-1663700Y-2722880D03*
X-1875000Y-1973550D03*
X-1424940Y-5031740D03*
X-1010000Y-4890000D03*
X-1065010D03*
X-1386990Y-4805000D03*
X-1390000Y-3930000D03*
Y-3880000D03*
X-1230000Y-3770000D03*
X-1008380Y-2252980D03*
Y-2189480D03*
X-1021080Y-1678940D03*
X-1082040D03*
X-1145540D03*
X-1020960Y1034180D03*
X-1021080Y1099820D03*
X-570230Y-5888990D03*
X-642620Y-5438140D03*
X-640000Y-5560000D03*
X-571500Y-5435600D03*
X-640000Y-5500000D03*
X-970000Y-5250000D03*
Y-5200000D03*
X-715010Y-5325110D03*
X-950000Y-4490000D03*
X-1000000D03*
X-620000Y-4060000D03*
Y-4010000D03*
X-760000Y-3900000D03*
X-960000Y-3740000D03*
X-873760Y-2252980D03*
X-942340D03*
X-873760Y-2189480D03*
X-942340D03*
X-688340Y-1640840D03*
X-629920Y-1582420D03*
Y-1640840D03*
X-688340Y-1584960D03*
X-610130Y584730D03*
X-822840Y1034180D03*
X-888880D03*
X-954920D03*
X-822960Y1099820D03*
X-889000D03*
X-955040D03*
X-555000Y-6080000D03*
X-497840Y-5433060D03*
X-510540Y-3741420D03*
X-546100Y523240D03*
X-490220Y584200D03*
X-546100D03*
X-88900Y-6414260D03*
X228600Y-6421120D03*
X235150Y-6060970D03*
X27940Y-5866200D03*
X95000D03*
X110000Y-5570000D03*
X-50400Y-5579600D03*
X-400D03*
X49600D03*
X95000Y-5792400D03*
X254000Y-5694680D03*
X251460Y-5509260D03*
Y-5245100D03*
X31460Y-5409260D03*
Y-5299260D03*
X176870Y-5209540D03*
X206400Y-2519020D03*
Y-2265020D03*
Y-2011020D03*
Y-1503020D03*
Y-1757020D03*
Y-1249020D03*
X261450Y-281290D03*
Y-222870D03*
X200490Y-281290D03*
Y-222870D03*
G54D21*
X-8259870Y-1390000D03*
X-8340130D03*
X-7980130Y-2690000D03*
X-7899870D03*
X-7903510Y-2781400D03*
X-7983770D03*
X-7980130Y-2330000D03*
X-7899870D03*
X-6930130Y-2290000D03*
X-6849870D03*
X-6625970Y-796810D03*
X-6706230D03*
X-3837430Y-6649720D03*
X-3757170D03*
X-3820670Y-5435600D03*
X-3900930D03*
X-3227830Y-4203700D03*
Y-4114800D03*
Y-4292600D03*
Y-3670300D03*
Y-3759200D03*
Y-3848100D03*
Y-4025900D03*
Y-3581400D03*
Y-3225800D03*
Y-3492500D03*
Y-3403600D03*
Y-2959100D03*
Y-3136900D03*
Y-3048000D03*
Y-2870200D03*
Y-2781300D03*
X-3147570Y-4203700D03*
Y-4114800D03*
Y-4292600D03*
Y-3670300D03*
Y-3759200D03*
Y-3848100D03*
Y-4025900D03*
Y-3581400D03*
Y-3225800D03*
Y-3492500D03*
Y-3403600D03*
Y-2959100D03*
Y-3136900D03*
Y-3048000D03*
Y-2870200D03*
Y-2781300D03*
G54D30*
X-7163900Y-4529600D03*
X-6973900D03*
X-7068900Y-4309600D03*
X-2790000Y-4960000D03*
X-2787500Y-5150000D03*
X-2692500Y-5370000D03*
X-2600000Y-4960000D03*
X-2597500Y-5150000D03*
X-2695000Y-4740000D03*
G54D12*
X-8375650Y-7243880D03*
Y-7093880D03*
Y-6943880D03*
Y-6793880D03*
Y-6643880D03*
Y-6493880D03*
Y-6343880D03*
Y-6193880D03*
Y-6043880D03*
G54D22*
X-7932420Y-7269780D03*
Y-6989780D03*
X-6764560Y-202600D03*
Y77400D03*
X-3797680Y-991720D03*
Y-711720D03*
X-2650000Y-2880000D03*
Y-2600000D03*
G54D31*
X-7107700Y-4913300D03*
Y-4723300D03*
X-6887700Y-4818300D03*
X-5960600Y-5478700D03*
X-6180600Y-5383700D03*
Y-5573700D03*
X-5736100Y-5900500D03*
X-5516100Y-5995500D03*
Y-5805500D03*
X-5113800Y-5480300D03*
Y-5670300D03*
Y-5137400D03*
Y-5327400D03*
X-4893800Y-5575300D03*
Y-5232400D03*
G54D40*
X-5532330Y-4236930D03*
X-5465870Y-4170470D03*
X-3459270Y-4338530D03*
X-3525730Y-4272070D03*
G54D13*
X-8581440Y-4711780D03*
Y-4586780D03*
Y-4461780D03*
Y-4336780D03*
G54D23*
X-7546540Y-5583980D03*
X-7266540D03*
X-6650020Y-6057900D03*
X-6664560Y877400D03*
X-6944560D03*
X-6370020Y-6057900D03*
X-6404560Y877400D03*
X-6124560D03*
X-3697680Y138280D03*
X-3977680D03*
X-3437680D03*
X-3157680D03*
X-2392380Y843280D03*
X-2672380D03*
G54D32*
X-6782100Y-5486400D03*
X-6502100D03*
X-6337600Y-3632200D03*
X-6057600D03*
X-930000Y-2680000D03*
X-650000D03*
X-88600Y-4889500D03*
X-368600D03*
Y-3530000D03*
X-88600D03*
G54D41*
X-5341720Y-393700D03*
X-4401720D03*
G54D50*
X-3273000Y-6007350D03*
X-3323000D03*
Y-5879850D03*
X-3273000D03*
G54D14*
X-8476240Y-3334100D03*
Y-3534100D03*
Y-3234100D03*
Y-3434100D03*
Y-2984100D03*
X-8740000Y-2550000D03*
X-8476100Y-2621280D03*
X-8724900Y-1938460D03*
X-8719820Y-1699260D03*
X-8724900Y-1877060D03*
X-8727440Y-1755140D03*
X-8730510Y-1646680D03*
X-8719820Y-1590040D03*
X-8727440Y-1813560D03*
X-8725000Y-1346200D03*
X-8724900Y-868680D03*
Y-924560D03*
X-8719820Y-797560D03*
X-8141970Y-7181850D03*
X-8087360Y-7371080D03*
X-8133080D03*
X-8087360Y-7325360D03*
X-8133080D03*
X-8085230Y-6971840D03*
X-8128410D03*
X-8084820Y-6929120D03*
X-8128000D03*
X-8276810Y-5757300D03*
X-8325070D03*
X-8375870D03*
X-8276810Y-5711580D03*
X-8325070D03*
X-8375870D03*
X-8277860Y-5666740D03*
X-8326120D03*
X-8376920D03*
X-8290560Y-4772660D03*
X-8346440Y-4699000D03*
X-8365110Y-4977790D03*
X-8410830D03*
X-8365110Y-4932070D03*
X-8410830D03*
X-8364220Y-4886960D03*
X-8409940D03*
X-8379460Y-3538220D03*
X-8375440Y-3384100D03*
Y-3284100D03*
X-8194680Y-2890000D03*
X-8371840Y-2971800D03*
X-8473440Y-3045000D03*
X-8356600Y-3045460D03*
X-8417560D03*
X-8254100Y-2834100D03*
X-8273580Y-2375000D03*
X-8471860Y-2384100D03*
X-8439560Y-2540000D03*
X-8416080Y-2387600D03*
X-8085000Y-2684100D03*
X-8285000Y-2734310D03*
X-8194680Y-2735000D03*
X-8422480Y-2334100D03*
X-8350000Y-2265000D03*
X-8215000Y-1545800D03*
X-8249870Y-1495720D03*
X-8225000Y-1295000D03*
X-8300000Y-1295800D03*
X-8409320Y-1390000D03*
X-8303260Y-1054100D03*
X-8145000Y-1145800D03*
X-8255000Y-1195800D03*
X-8191500Y-1390000D03*
X-8335000Y-845820D03*
X-8405000Y-900000D03*
X-8384540Y-792480D03*
X-8295000Y-965000D03*
X-8355000Y-965200D03*
X-7781120Y-7379850D03*
Y-7334130D03*
X-7735400D03*
Y-7379850D03*
X-7713980Y-6126480D03*
Y-6217920D03*
Y-6169660D03*
X-7657670Y-5920430D03*
X-7703390D03*
X-7657670Y-5874710D03*
X-7703390D03*
X-7658100Y-5826760D03*
X-7703820D03*
X-8011160Y-4699000D03*
X-7815580Y-4386580D03*
X-7861300D03*
X-7907020D03*
X-7815580Y-4340860D03*
X-7861300D03*
X-7907020D03*
X-7719060Y-3916680D03*
X-7710000Y-2933800D03*
X-7811400Y-2781400D03*
X-7807760Y-2690000D03*
X-7790000Y-2270000D03*
X-7647940Y581660D03*
X-7366000Y-6327140D03*
X-7411720D03*
X-7366000Y-6278880D03*
X-7411720D03*
X-7322820Y-4886300D03*
X-7447280Y-4693920D03*
X-7299180Y-4529600D03*
X-7250000Y-3040000D03*
X-7219100Y-2940000D03*
X-7159100Y-2000000D03*
X-7495540Y579120D03*
X-7048500Y-7167880D03*
X-7071360Y-6677660D03*
X-6758940Y-3802380D03*
X-6814200Y-795800D03*
X-6875000Y-845800D03*
X-6654800Y-5303520D03*
X-6329680Y-4612640D03*
X-6465000Y-4395800D03*
X-6497320Y-4284980D03*
X-6390000Y-4490000D03*
Y-4260000D03*
X-6298800Y-4264000D03*
X-6390000Y-4040000D03*
X-6311900Y-3406140D03*
X-6461760Y-3060700D03*
X-6512580Y-2484100D03*
X-6450000Y-1845800D03*
X-6525280Y-1795800D03*
X-6520000Y-825000D03*
X-6294120Y403860D03*
X-6176260Y-7250180D03*
X-6206180Y-6764550D03*
X-6156960Y-7056120D03*
X-6200140D03*
X-6201700Y-7010950D03*
X-6158520D03*
X-6210300Y-7155180D03*
X-6205020Y-6721390D03*
X-5861720Y-6614160D03*
X-6173880Y-6045850D03*
X-6118000D03*
X-6118860Y-5994400D03*
X-6174740D03*
X-5960600Y-5653260D03*
X-6210000Y-4270000D03*
X-5918200Y-3845560D03*
X-6018010Y-3378200D03*
X-6016840Y-3175000D03*
X-6042660Y-2547620D03*
X-6035040Y-2717800D03*
X-6248400Y403860D03*
X-5460000Y-6330000D03*
X-5803900Y-5384800D03*
X-5446590Y-4948090D03*
X-5646590Y-4848090D03*
X-5546590Y-4948090D03*
X-5446590Y-4748090D03*
X-5546590Y-4848090D03*
X-5646590Y-4948090D03*
X-5446590Y-4848090D03*
X-5546590Y-4248090D03*
X-5446590Y-4148090D03*
X-5646590Y-3748110D03*
X-5546590D03*
X-5446590Y-3948090D03*
X-5646590Y-4048090D03*
X-5546590D03*
X-5791200Y-3505200D03*
X-5546590Y-3248110D03*
Y-3448110D03*
Y-3348110D03*
X-5646590Y-3448110D03*
Y-3348110D03*
X-5446590D03*
Y-3248110D03*
X-5646590D03*
Y-3548110D03*
X-5446590Y-3448110D03*
Y-3648110D03*
X-5546590Y-3548110D03*
X-5446590D03*
X-5546590Y-2948110D03*
X-5446590Y-3148110D03*
Y-3048110D03*
X-5646590Y-2948110D03*
X-5770480Y-3139440D03*
X-5546590Y-3148110D03*
X-5646590Y-2848110D03*
Y-3048110D03*
X-5546590D03*
X-5446590Y-2948110D03*
X-5546590Y-2848110D03*
X-5446590D03*
Y-2748110D03*
X-5646590D03*
X-5546590D03*
X-5455920Y-1559560D03*
X-5461000Y-165100D03*
X-5537200Y563880D03*
Y507400D03*
X-5588600D03*
X-5186680Y-7218680D03*
Y-7272020D03*
Y-7325360D03*
X-5236210Y-6762750D03*
X-5184140Y-7162800D03*
X-5083810Y-6709410D03*
X-4970780Y-6631940D03*
X-5046590Y-4548090D03*
Y-4948090D03*
X-5246590Y-4548090D03*
X-5146590Y-4548060D03*
X-5346590Y-4648090D03*
X-5246590D03*
Y-4748090D03*
X-5346590D03*
X-5246590Y-4348090D03*
Y-4448090D03*
Y-4248090D03*
X-5046590Y-4348110D03*
X-5046610Y-4148090D03*
X-5146590D03*
Y-4448090D03*
Y-4348090D03*
X-5046590Y-4448110D03*
X-5246590Y-4148090D03*
X-5143500Y-4249420D03*
X-5146590Y-3748110D03*
X-5246590D03*
Y-3948090D03*
X-5146590D03*
X-5246590Y-4048090D03*
X-5146590D03*
X-5046610D03*
X-5346590Y-3948090D03*
X-5246590Y-3248110D03*
X-5346590Y-3448110D03*
Y-3348110D03*
Y-3248110D03*
X-5146590Y-3648110D03*
X-5246590D03*
X-5046590Y-3248110D03*
X-5042800Y-3658270D03*
X-5246590Y-3548110D03*
X-5146590D03*
Y-3248110D03*
Y-3348110D03*
X-5246590D03*
Y-3448110D03*
X-5346590Y-3648110D03*
X-5146590Y-3448110D03*
X-5346590Y-3148110D03*
X-5046590Y-2848110D03*
Y-3048110D03*
X-5146590D03*
X-5246590Y-2848110D03*
X-5146590Y-2948110D03*
X-5246590D03*
X-5046590D03*
X-5146590Y-2848110D03*
X-5346590D03*
X-5146590Y-3148110D03*
X-5346590Y-3048110D03*
Y-2948110D03*
X-5246590Y-3048110D03*
X-5046590Y-3148110D03*
X-5246590D03*
X-5046590Y-2748110D03*
X-5146590D03*
X-5346590D03*
X-5246590D03*
X-5350000Y-980000D03*
X-5097780Y-342900D03*
X-4594860Y-6720840D03*
X-4846320Y-6616700D03*
X-4913630Y-6005830D03*
X-4658360Y-5930900D03*
X-4861560Y-6083300D03*
X-4794250Y-5965190D03*
X-4594860Y-6192520D03*
X-4785360Y-5186680D03*
X-4851400Y-5334000D03*
X-4746590Y-4848090D03*
Y-4748090D03*
Y-4648090D03*
X-4646590Y-4548090D03*
X-4946590D03*
X-4846590D03*
X-4946590Y-4948090D03*
X-4746590Y-4548090D03*
Y-4348110D03*
X-4846590Y-4448090D03*
X-4946590D03*
X-4646590Y-4148090D03*
X-4746590D03*
X-4846590D03*
X-4646590Y-4448090D03*
Y-3748110D03*
X-4746590D03*
X-4846590D03*
X-4646590Y-3948090D03*
Y-4048090D03*
X-4746590Y-3948090D03*
Y-4048090D03*
X-4846590D03*
Y-3948090D03*
X-4946590Y-3348090D03*
X-4846590D03*
X-4646590D03*
Y-3548110D03*
Y-3648110D03*
X-4746590Y-3548110D03*
Y-3648110D03*
X-4846590Y-3548110D03*
Y-3648110D03*
X-4746590Y-3248110D03*
X-4646590D03*
X-4546590D03*
X-4946590D03*
X-4846590D03*
X-4646590Y-2848110D03*
X-4846590Y-3048110D03*
X-4946590Y-2848110D03*
X-4846590Y-2948110D03*
Y-2848110D03*
X-4746590Y-3048110D03*
Y-2848110D03*
X-4946590Y-2948110D03*
X-4746590D03*
X-4946590Y-3048110D03*
X-4646590Y-2948110D03*
X-4946590Y-3148110D03*
X-4746590D03*
X-4846590D03*
X-4546610D03*
X-4846590Y-2748110D03*
X-4746590D03*
X-4646590D03*
X-4946590D03*
X-4550000Y-2052320D03*
X-4160700Y-6993710D03*
X-4211500D03*
X-4262300D03*
X-4163060Y-6944360D03*
X-4213860D03*
X-4264660D03*
X-4518660Y-5963920D03*
X-4330700Y-5537200D03*
Y-5461000D03*
X-4178300D03*
X-4483100Y-5537200D03*
X-4178300D03*
X-4483100Y-5461000D03*
X-4218940Y-5096670D03*
X-4193470Y-5049800D03*
X-4146610Y-4948090D03*
X-4246610D03*
Y-4648090D03*
Y-4848090D03*
Y-4748090D03*
X-4146610Y-4648090D03*
X-4446610Y-4548090D03*
X-4146610Y-4748090D03*
X-4346610Y-4848090D03*
X-4146610D03*
X-4346610Y-4648090D03*
Y-4748090D03*
X-4146610Y-4548090D03*
X-4246610D03*
X-4346610D03*
X-4446610Y-4948090D03*
X-4246610Y-4348110D03*
X-4146610D03*
X-4346610D03*
X-4446610Y-4448090D03*
X-4246610Y-4148090D03*
X-4146610Y-4448110D03*
X-4346610Y-4148090D03*
X-4446610D03*
X-4346610Y-4448110D03*
X-4246610Y-3748110D03*
X-4346610D03*
X-4446610D03*
X-4246610Y-3948090D03*
Y-4048090D03*
X-4346610Y-3948090D03*
Y-4048090D03*
X-4446610Y-3948090D03*
Y-4048090D03*
X-4146610Y-3248110D03*
X-4446610Y-3348090D03*
X-4346610D03*
X-4246610Y-3548110D03*
Y-3648110D03*
X-4246590Y-3248110D03*
X-4346610Y-3548110D03*
Y-3648110D03*
X-4446610Y-3548110D03*
Y-3648110D03*
X-4446590Y-3248110D03*
X-4346590D03*
X-4246610Y-2948110D03*
X-4446610Y-2848110D03*
X-4146610Y-2948110D03*
Y-3048110D03*
X-4446610Y-2948110D03*
Y-3048110D03*
X-4346610Y-2848110D03*
Y-2948110D03*
Y-3048110D03*
X-4246610D03*
Y-3148110D03*
X-4146610D03*
X-4446610D03*
X-4346610D03*
X-4340000Y-2636920D03*
X-4346610Y-2748110D03*
X-4446610D03*
X-4185920Y-2171700D03*
Y-2298700D03*
X-4053840Y-7292340D03*
X-3680460Y-6697980D03*
X-3935000Y-5985000D03*
X-4036060Y-5461000D03*
X-4025900Y-5537200D03*
X-3985260Y-5370310D03*
X-3934460Y-5048290D03*
X-4046610Y-4548090D03*
Y-4748090D03*
X-3946610Y-4848090D03*
X-3846610Y-4948090D03*
X-3946610Y-4748090D03*
X-3846610D03*
Y-4848090D03*
X-3746610Y-4548090D03*
X-4046610Y-4848090D03*
X-3646610Y-4548090D03*
X-4046610Y-4648090D03*
X-3946610Y-4948090D03*
X-4046610D03*
X-3946610Y-4548090D03*
X-3846610D03*
X-3646610Y-4648090D03*
Y-4748090D03*
X-3746610Y-4648090D03*
X-3646610Y-4948090D03*
Y-4848090D03*
X-3746610Y-4748090D03*
X-3846610Y-4648090D03*
Y-4348090D03*
X-3646610D03*
X-3746610Y-4248090D03*
Y-4148090D03*
X-3646610Y-4448090D03*
X-3846610Y-4148090D03*
Y-4248090D03*
X-4046590D03*
X-3846610Y-4448090D03*
X-3946610Y-4348090D03*
X-3746610Y-4448090D03*
X-3646610Y-4148090D03*
X-3946610D03*
X-3746610Y-3748110D03*
X-3846610D03*
X-3746610Y-4048090D03*
X-3846610D03*
X-3646610Y-3948090D03*
X-3746610D03*
X-3946610Y-4048090D03*
X-3646610Y-3748110D03*
X-3946610Y-3948090D03*
X-3846610D03*
X-3946610Y-3748110D03*
X-3746610Y-3348110D03*
X-3846610D03*
X-3746610Y-3248110D03*
X-4046590Y-3548090D03*
X-3846610Y-3648110D03*
Y-3448110D03*
X-4046590Y-3648110D03*
X-3646610Y-3448110D03*
Y-3248110D03*
X-3746610Y-3548110D03*
X-3646610D03*
Y-3348110D03*
Y-3648110D03*
X-3846610Y-3548110D03*
X-3946610Y-3348110D03*
Y-3248110D03*
X-4046610Y-3348090D03*
X-3746610Y-3648110D03*
X-3946610D03*
X-4046610Y-3248110D03*
X-3946610Y-3548110D03*
Y-3448110D03*
X-3746610D03*
X-4046610Y-3048110D03*
X-3946610Y-2848110D03*
X-3646610Y-3148110D03*
X-4046610Y-2948110D03*
X-3746610Y-2848110D03*
X-3946610Y-2948110D03*
Y-3048110D03*
X-3846610Y-2848110D03*
Y-2948110D03*
X-4046610Y-3148110D03*
X-3946610D03*
X-3746610D03*
X-3646610Y-3048110D03*
X-3746610D03*
X-3646610Y-2948110D03*
X-3746610D03*
X-3846610Y-3048110D03*
Y-3148110D03*
X-3810000Y-2352040D03*
X-3903980Y-2357120D03*
X-4048760Y-2618740D03*
X-4047550Y-2379680D03*
X-3746610Y-2748110D03*
X-3670300Y-2349500D03*
X-3846610Y-2748110D03*
X-3601720Y-5556980D03*
X-3395520Y-5341160D03*
X-3601720Y-5077460D03*
X-3546610Y-4548090D03*
Y-4648090D03*
X-3362960Y-4947920D03*
X-3446610Y-4748090D03*
Y-4948090D03*
Y-4848090D03*
X-3546610Y-4748090D03*
Y-4848090D03*
Y-4948090D03*
X-3291840Y-4114800D03*
X-3546610Y-4448090D03*
X-3446610Y-4248090D03*
X-3291840Y-4203700D03*
X-3546610Y-4348090D03*
X-3291840Y-4292600D03*
X-3446610Y-4348090D03*
X-3546610Y-4148090D03*
Y-4248090D03*
X-3446610Y-3748110D03*
X-3291840Y-3670300D03*
X-3446610Y-3948090D03*
X-3295000Y-3848100D03*
X-3291840Y-3759200D03*
X-3546610Y-3948090D03*
Y-3748110D03*
X-3291840Y-4025900D03*
Y-3937000D03*
X-3546610Y-3848090D03*
X-3446610Y-4048090D03*
X-3546610D03*
Y-3648110D03*
Y-3348110D03*
X-3350260Y-3314700D03*
X-3546610Y-3448110D03*
X-3383280Y-3403600D03*
X-3446610Y-3648110D03*
X-3291840Y-3492500D03*
X-3446610Y-3548110D03*
X-3546610Y-3248110D03*
Y-3548110D03*
X-3291840Y-3581400D03*
X-3446610Y-3348110D03*
X-3312540Y-3047620D03*
X-3324860Y-2870200D03*
X-3446610Y-3048110D03*
X-3291840Y-3225800D03*
X-3446610Y-2848110D03*
X-3546610Y-2948110D03*
Y-2848110D03*
Y-3048110D03*
X-3479800Y-2379980D03*
X-3546610Y-2748110D03*
X-3040000Y-6480000D03*
X-3063240Y-5067300D03*
X-2895000Y-4725000D03*
X-3063240Y-4953000D03*
X-3004820Y-4335780D03*
X-2940000Y-4230000D03*
X-3042920Y-4292600D03*
X-2997200Y-4254500D03*
X-2981960Y-4163810D03*
X-3070000Y-3937000D03*
Y-4045000D03*
X-2971800Y-3759200D03*
X-3014980Y-3714070D03*
X-3030000Y-3895000D03*
X-3081020Y-3670300D03*
X-2950000Y-4055000D03*
X-2990000Y-3996910D03*
X-3075000Y-3805000D03*
X-3025000Y-3350000D03*
X-3025140Y-3294380D03*
X-3024490Y-3403600D03*
X-3042920Y-3632200D03*
X-3008020Y-3581400D03*
X-3060080Y-3447140D03*
X-3068320Y-3510280D03*
X-3081190Y-3116680D03*
X-3040000Y-3002280D03*
X-3083560Y-2870200D03*
X-3078480Y-3225800D03*
X-2954020Y-2954020D03*
X-2969260Y-3154680D03*
X-3061890Y-2821450D03*
X-3070860Y-3172460D03*
X-2961640Y-3048000D03*
X-3015000Y-2910000D03*
X-2395000Y-3865000D03*
X-2400000Y-3790000D03*
X-2645170Y-1471690D03*
X-2679700Y-1176020D03*
X-2762670D03*
X-2487930Y-797560D03*
X-2641600Y-762000D03*
X-2487930Y-876300D03*
Y-716280D03*
X-2496260Y-556260D03*
X-2492480Y-477520D03*
X-2560000Y170000D03*
X-1947720Y-7252160D03*
X-2189480Y-7076440D03*
X-1961200Y-5440000D03*
Y-5520000D03*
X-2210000D03*
X-2249400Y-5026660D03*
X-1982700Y-5097200D03*
X-1910000Y-5010000D03*
X-1960000Y-5045000D03*
X-1961200Y-5360000D03*
X-2210000Y-5400000D03*
X-1938020Y-4841240D03*
X-2321560Y-4688840D03*
X-2290000Y-4850000D03*
X-1958100Y-4729820D03*
X-1907540Y-4792980D03*
X-2235000Y-4785000D03*
X-2196990Y-4571320D03*
X-2182620Y-4862830D03*
X-1940560Y-4610100D03*
X-1910000Y-4464660D03*
X-2285000Y-4472940D03*
X-1985000Y-4520000D03*
X-1988580Y-4460320D03*
X-1909040Y-4013200D03*
X-2050000Y-3700000D03*
X-1929030Y-4099680D03*
X-1982880Y-4097200D03*
X-2267180Y-3964940D03*
X-2260000Y-3790000D03*
X-2236700Y-3901440D03*
X-2239240Y-4069080D03*
X-1988580Y-4019430D03*
X-2050000Y-3290000D03*
X-1995000Y-3325000D03*
X-2030000Y-3600000D03*
X-2074440Y-2952500D03*
X-2075000Y-3225000D03*
X-2025000Y-3075000D03*
X-2005000Y-3175000D03*
X-1975730Y-2351650D03*
X-2199120Y-2716990D03*
X-1913010Y-2716270D03*
X-2073730Y-2716990D03*
X-2171700Y-1920240D03*
X-1947750Y-2103550D03*
X-2100000Y-1650000D03*
X-2108200Y-1137920D03*
X-2062480Y-1000760D03*
X-2140580Y-551820D03*
X-2115820Y-396240D03*
X-2137020Y363700D03*
X-2139560Y310360D03*
X-2138680Y411480D03*
X-1999860Y310360D03*
X-2093840D03*
X-2045580D03*
X-1997320Y363700D03*
X-2043040D03*
X-2091300D03*
X-1998980Y411480D03*
X-2044700D03*
X-2092960D03*
X-1837520Y-6951370D03*
X-1789260D03*
X-1788160Y-6906260D03*
X-1836420D03*
X-1703260Y-5537200D03*
Y-5417200D03*
X-1665000Y-5340000D03*
X-1605280Y-5139480D03*
X-1570000Y-5050000D03*
X-1681480Y-5097200D03*
X-1630000Y-4590000D03*
X-1685000D03*
X-1705300Y-4777200D03*
X-1705840Y-4490720D03*
X-1645000Y-4470000D03*
X-1570000D03*
X-1455000Y-4485000D03*
X-1517800Y-4537200D03*
X-1585000Y-4070000D03*
X-1685000Y-3950000D03*
X-1841500Y-3362960D03*
X-1820000Y-2720000D03*
X-1790000Y-2535000D03*
X-1859890Y-2168550D03*
X-1760000Y-1660000D03*
X-1651000Y-1659000D03*
X-1570000Y-1660000D03*
X-1457960Y-182880D03*
X-1796960Y225980D03*
Y175180D03*
X-1649640Y225980D03*
Y175180D03*
X-1699260Y226060D03*
X-1747670Y226770D03*
X-1699260Y175260D03*
X-1747520D03*
X-1663700Y-140970D03*
X-1695450Y473710D03*
X-1440000Y-4580000D03*
X-1157840Y-3517500D03*
Y-3644500D03*
Y-3362160D03*
X-1158240Y-3263500D03*
X-1235240Y-3225000D03*
X-1238580Y-3075000D03*
X-1320000Y-1740000D03*
X-1409700Y-1315720D03*
X-1026160Y-1117600D03*
X-1409700Y-182880D03*
X-1090930Y-257810D03*
X-1170940Y-208280D03*
X-1224280Y-157480D03*
X-1170940D03*
X-1437640Y-139700D03*
X-1389380D03*
X-1036320Y170180D03*
X-800000Y-3800000D03*
X-949960Y-3840480D03*
X-657860Y-1394460D03*
X-637540Y-1026160D03*
X-650240Y-391160D03*
X-967740Y259080D03*
X-868680Y294640D03*
X-208280Y-5910580D03*
X-556260Y-1856740D03*
X270000Y-4930000D03*
G54D33*
X-6667500Y-5078400D03*
Y-4878400D03*
X-4686300Y-5094300D03*
Y-5294300D03*
X-4087680Y-991720D03*
Y-791720D03*
X-3251200Y-5395900D03*
Y-5195900D03*
X-2900000Y-2790000D03*
Y-2590000D03*
G54D51*
X-3384000Y-5943650D03*
X-3212000D03*
G54D24*
X-7621840Y-4513780D03*
G54D60*
X-2320280Y-687560D03*
Y-907560D03*
X-2160280Y-687560D03*
Y-907560D03*
G54D15*
X-8600000Y-2635010D03*
Y-2484990D03*
X-8356600Y-2640410D03*
Y-2490390D03*
X-7696200Y-7202250D03*
Y-7052230D03*
X-7881620Y-6605350D03*
Y-6455330D03*
X-7807960Y-5731590D03*
Y-5581570D03*
X-7495540Y-7202250D03*
X-7205980D03*
X-7218680Y-6821250D03*
X-7495540Y-7052230D03*
X-7205980D03*
X-7218680Y-6671230D03*
X-7164560Y622410D03*
Y472390D03*
X-6891020Y-5919390D03*
Y-6069410D03*
X-6819500Y-4507310D03*
Y-4357290D03*
X-6984560Y472390D03*
Y622410D03*
X-6804560D03*
Y472390D03*
X-6540500Y-6541690D03*
Y-6691710D03*
X-6604000Y-3681810D03*
X-6311900Y-3326210D03*
X-6604000Y-3531790D03*
X-6311900Y-3176190D03*
X-6624560Y472390D03*
Y622410D03*
X-6444560Y472390D03*
Y622410D03*
X-6123940Y-6386910D03*
X-5892800D03*
X-6123940Y-6236890D03*
X-5892800D03*
X-5986780Y-5050870D03*
Y-4900850D03*
X-6134100Y-3326210D03*
Y-3176190D03*
X-6084560Y622410D03*
Y472390D03*
X-5796280Y-5050870D03*
Y-4900850D03*
X-4087680Y-586730D03*
Y-436710D03*
X-4007680Y-256730D03*
X-3647680D03*
X-3827680D03*
X-4007680Y-106710D03*
X-3647680D03*
X-3827680D03*
X-3352800Y-6336110D03*
Y-6186090D03*
X-3467680Y-256730D03*
Y-106710D03*
X-3149600Y-6336110D03*
Y-6186090D03*
X-3107680Y-256730D03*
Y-106710D03*
X-2380000Y-4977450D03*
Y-5174990D03*
Y-5325010D03*
Y-4827430D03*
X-2580000Y-1954990D03*
Y-2105010D03*
X-1230000Y-4115010D03*
Y-3964990D03*
X-830000Y-5855010D03*
Y-5704990D03*
Y-5505010D03*
Y-5354990D03*
X152400Y-4951810D03*
Y-4801790D03*
G54D42*
X-4560820Y-7292640D03*
X-4655820D03*
X-4750820D03*
Y-7012640D03*
X-4560820D03*
X-286000Y-5969300D03*
X-476000D03*
Y-5689300D03*
X-381000D03*
X-286000D03*
X95000Y-5969300D03*
X0D03*
X-95000D03*
Y-5689300D03*
X95000D03*
G54D34*
X-6670040Y-5735320D03*
X-6124580Y-5007930D03*
X-2990000Y-2240000D03*
X-1440000Y-5790000D03*
G54D52*
X-3570000Y-5860000D03*
G54D43*
X-4351000Y-5341600D03*
X-4201000D03*
X-4251000D03*
X-4301000D03*
X-4401000D03*
X-4451000D03*
X-4201000Y-5181600D03*
X-4251000D03*
X-4301000D03*
X-4351000D03*
X-4401000D03*
X-4451000D03*
G54D16*
G01X-7163900Y-4529600D02*
X-7299180D01*
G01X-6782100Y-5486400D02*
Y-5712160D01*
G01X-6502100Y-5486400D02*
Y-5689600D01*
G01X-6337300Y-5118400D02*
X-6379200Y-5076500D01*
X-6527800D01*
G01X-6667500Y-5078400D02*
X-6527800D01*
Y-5076500D01*
G01X-6337600Y-3632200D02*
X-6365240Y-3659840D01*
Y-3820160D01*
G01X-5817790Y-6812280D02*
Y-6711480D01*
X-5819140Y-6710130D01*
Y-6657340D01*
X-5861720Y-6614760D01*
Y-6614160D01*
G01X-5736100Y-5900500D02*
X-5859700D01*
G01X-5588600Y507400D02*
X-5739550D01*
G01Y697400D02*
X-5670720D01*
X-5537200Y563880D01*
G01Y507400D02*
Y563880D01*
G01Y507400D02*
X-5588600D01*
G01X-4686300Y-5294300D02*
X-4803140Y-5411140D01*
Y-5420360D01*
G01X-4597400Y-4326890D02*
X-4564900Y-4359390D01*
Y-5003800D01*
G01X-4597400Y-4326890D02*
X-4711700D01*
G01X-4483100D02*
X-4597400D01*
G01X-4483100D02*
X-4368800D01*
G01X-3706800Y-5207000D02*
Y-5077460D01*
G01X-3251200Y-5395900D02*
X-3097860D01*
G01X-3307080Y1031240D02*
X-3156030D01*
X-3112850Y1074420D01*
G01X-3307080Y1122680D02*
X-3161110D01*
X-3112850Y1074420D01*
G01X-3393440Y1031240D02*
X-3307080D01*
G01Y1122680D02*
X-3393440D01*
G01X-2762670Y-1011720D02*
Y-1075430D01*
G01Y-1176020D02*
X-2679700D01*
G01X-2762670Y-1075430D02*
Y-1176020D01*
G01Y-1075430D02*
X-2691550Y-1146550D01*
Y-1164170D01*
X-2679700Y-1176020D01*
G01X-2294180Y-7270020D02*
X-2317640D01*
X-2323030Y-7264630D01*
X-2411930Y-7265420D01*
G01X-2685040Y-7018780D02*
X-2568390D01*
X-2545020Y-7042150D01*
X-2461720D01*
G01X-1947720Y-7136130D02*
Y-7252160D01*
G01X-1380000Y-2620000D02*
X-1446040Y-2553960D01*
Y-2472980D01*
G01X-1380000Y-2620000D02*
X-1313960Y-2553960D01*
Y-2472980D01*
G01X-1008380Y-1883410D02*
X-963300Y-1838330D01*
G01D02*
X-822000Y-1697030D01*
Y-1679470D01*
X-817880Y-1675350D01*
Y-1554480D01*
X-657860Y-1394460D01*
G01X-244390Y-4729480D02*
X-330200D01*
X-368600Y-4767880D01*
Y-4889500D01*
X-8693400Y272840D03*
X-8607800Y273300D03*
X-8693400Y359200D03*
X-8607800Y359660D03*
X-8691880Y444500D03*
X-8606280Y444960D03*
X-8605520Y528320D03*
X-8694420D03*
X-8614820Y780800D03*
Y860800D03*
Y940800D03*
X-8694820Y780800D03*
Y940800D03*
Y860800D03*
X-8065100Y-6810400D03*
X-8063740Y-6726840D03*
X-8153400Y-6809740D03*
X-8152040Y-6726180D03*
X-8063740Y-6646840D03*
X-8152040Y-6646180D03*
X-8073480Y-6314230D03*
X-8162200Y-6313880D03*
X-8073480Y-6229230D03*
Y-6149230D03*
X-8162200Y-6148880D03*
Y-6228880D03*
X-8234680Y-4099560D03*
X-8028940Y228600D03*
X-8028640Y407680D03*
X-8027360Y316240D03*
X-7615340Y-360280D03*
X-7948600Y227680D03*
X-7868600D03*
X-7948600Y407680D03*
X-7868600D03*
X-7948600Y317680D03*
X-7868600D03*
X-7597410Y783270D03*
Y869630D03*
X-7597140Y952500D03*
X-7195140Y-5732580D03*
Y-5812580D03*
X-7310120Y-5194300D03*
X-7223760D03*
X-7297430Y-173560D03*
X-7213610D03*
X-7515340Y-360280D03*
X-7299900Y-90120D03*
X-7299960Y-7620D03*
X-7216080Y-90120D03*
X-7216140Y-7620D03*
X-7343410Y783270D03*
X-7427230D03*
X-7513590D03*
X-7343410Y869630D03*
X-7427230D03*
X-7513590D03*
X-7513320Y952500D03*
X-7426960D03*
X-7343140D03*
X-6782100Y-5712160D03*
X-7115140Y-5732580D03*
Y-5812580D03*
Y-5572580D03*
Y-5652580D03*
X-7132320Y-175260D03*
X-7132260Y-90120D03*
X-7132320Y-7620D03*
X-6502100Y-5689600D03*
X-6276340Y-5257800D03*
X-6527800Y-5076500D03*
X-6410020Y-4594900D03*
X-6365240Y-3820160D03*
X-6489700Y-3825770D03*
X-5859700Y-5900500D03*
X-6096000Y-4701540D03*
X-6220460Y-4960620D03*
X-6035040Y-3827780D03*
X-6129020D03*
X-6225540Y-3835400D03*
X-6160000Y-2138180D03*
X-5739380Y-2217420D03*
Y-2131060D03*
X-5135880Y-2420000D03*
Y-2540000D03*
X-5133340Y-2156460D03*
Y-2250440D03*
X-5021580Y-2161540D03*
X-5135470Y-797450D03*
X-5051650D03*
X-4965290D03*
X-5135470Y-713630D03*
X-5051650D03*
X-4965290D03*
X-4965700Y-627380D03*
X-5052060D03*
X-5135880D03*
X-4803140Y-5420360D03*
X-4914900Y-5702300D03*
X-4564900Y-5003800D03*
X-4720000Y-2165940D03*
X-4878930Y-797450D03*
Y-713630D03*
X-4879340Y-627380D03*
X-4584700Y193040D03*
X-4426350Y-2137810D03*
X-4106800Y-1719200D03*
X-4493260Y193040D03*
X-4401720D03*
X-4046220Y-6593840D03*
Y-6718560D03*
X-3706800Y-5077460D03*
X-4064000Y-5156200D03*
X-3760400Y-2043500D03*
X-3867680Y-471720D03*
X-3787680D03*
X-3707680D03*
X-3867680Y-551720D03*
X-3787680D03*
X-3707680D03*
X-3345200Y-4666000D03*
X-3317240Y-2700020D03*
X-3477260Y-1348740D03*
X-3335150Y593180D03*
X-3429130D03*
X-3520570D03*
X-3335150Y684620D03*
X-3429130D03*
X-3520570D03*
X-3393440Y1122680D03*
Y1031240D03*
X-3307080Y1122680D03*
Y1031240D03*
X-3337560Y772160D03*
X-3431540D03*
X-3522980D03*
X-2829440Y-6163200D03*
X-2829180Y-6262260D03*
X-2936120Y-6163200D03*
X-2935860Y-6262260D03*
X-2934760Y-5807500D03*
X-3097860Y-5395900D03*
X-2870200Y-4480560D03*
X-2971800Y-3482340D03*
X-3052100Y-2386460D03*
X-2903220Y-2346960D03*
X-2790000Y-2350000D03*
Y-2260000D03*
X-2686240Y-7264010D03*
X-2538930Y-7265420D03*
X-2411930D03*
X-2685040Y-7018780D03*
Y-6593840D03*
X-2684780Y-6692900D03*
X-2370000Y-5480000D03*
X-2560000Y-5490000D03*
X-2475000Y-5655000D03*
X-2730500Y-5692140D03*
X-2480000Y-5090000D03*
X-2519680Y-4569460D03*
X-2606040Y-4572000D03*
X-2527460Y-4477300D03*
X-2607460D03*
X-2628900Y-3685540D03*
X-2700020Y-3482340D03*
X-2520000Y-3149600D03*
X-2700000Y-2380000D03*
Y-2290000D03*
X-2722880Y-1808480D03*
X-2265000Y-5650000D03*
X-2270000Y-4360000D03*
X-2171700Y-195580D03*
X-1701800Y-3274060D03*
X-1536700D03*
X-1620000Y-3150000D03*
X-1704340Y-3022600D03*
X-1531620Y-3030220D03*
X-1446040Y-2472980D03*
X-1808070Y-825850D03*
X-1709010D03*
X-1607410D03*
X-1503270D03*
X-1502000Y-919520D03*
X-1606140D03*
X-1707740D03*
X-1806800D03*
X-1809750Y-731210D03*
X-1710690D03*
X-1609090D03*
X-1504950D03*
X-1503680Y-632460D03*
X-1607820D03*
X-1709420D03*
X-1808480D03*
X-1155700Y-6413500D03*
X-1155810Y-6553280D03*
X-1155700Y-6273800D03*
X-1016000D03*
X-1158240Y-2748280D03*
Y-2621280D03*
X-1160780Y-2506980D03*
X-1313960Y-2472980D03*
X-1051560Y-1315720D03*
X-1046480Y-764910D03*
X-1045210Y-858580D03*
X-876300Y-6273800D03*
X-645800Y-5657690D03*
X-620000Y-4560000D03*
X-700000D03*
Y-4480000D03*
X-620000D03*
X-586150Y-3352350D03*
X-589280Y-3263500D03*
X-581660Y-3497580D03*
X-590000Y-2885000D03*
X-775000Y-2480000D03*
X-590000D03*
X-248920Y-5227320D03*
X-540000Y-4560000D03*
X-244390Y-4729480D03*
X-540000Y-4480000D03*
X-328260Y-3347560D03*
X-408940D03*
X-525000Y-2205000D03*
X-95000Y-6100000D03*
X223520Y-5077460D03*
X43180Y-4973320D03*
X119380Y-5080000D03*
X17780D03*
X-88360Y-5081270D03*
X-25400Y-5354050D03*
X96520Y-3462020D03*
Y-3597980D03*
G54D70*
X-610130Y294640D03*
Y214630D03*
Y134620D03*
Y454660D03*
Y374650D03*
G54D25*
X-7851840Y-4685780D03*
X-7621840D03*
X-7851840Y-4493780D03*
G54D61*
X-2104180Y-7270020D03*
X-2199180D03*
X-2294180D03*
Y-7020020D03*
X-2104180D03*
X-1085000Y-4605000D03*
Y-4355000D03*
X-895000Y-4605000D03*
X-990000Y-4355000D03*
X-895000D03*
G54D80*
G01X-2380000Y-4827430D02*
X-2249770Y-4697200D01*
X-2085600D01*
G01X-2030000Y-3600000D02*
X-1970000Y-3660000D01*
Y-3710000D01*
X-2003020Y-3743020D01*
X-2283020D01*
X-2310200Y-3770200D01*
Y-4079800D01*
X-2172800Y-4217200D01*
X-2085600D01*
G01X-2270000Y-4360000D02*
Y-4390000D01*
X-2202800Y-4457200D01*
X-2085600D01*
G54D35*
X-6337300Y-5118400D03*
Y-4838400D03*
X-1380000Y-2900000D03*
Y-2620000D03*
G54D71*
X-360680Y-6416040D03*
G54D53*
X-3570000Y-5660000D03*
G54D44*
X-4143500Y-5341600D03*
X-4508500D03*
X-4143500Y-5181600D03*
X-4508500D03*
G54D26*
X-7366140Y-5994980D03*
G54D17*
X-8054340Y-4588510D03*
X-8232140D03*
X-8054340Y-4494530D03*
X-8232140D03*
X-8054340Y-4245610D03*
Y-4339590D03*
X-8229600Y-4248150D03*
Y-4342130D03*
X-6996990Y-3540000D03*
X-6903010D03*
X-7126990Y-2940000D03*
X-7033010D03*
X-7066990Y-2000000D03*
X-6973010D03*
X-6746990Y-1300000D03*
X-6653010D03*
X-5858510Y-3289300D03*
X-5952490D03*
X-5858510Y-3403600D03*
X-5952490D03*
X-5858510Y-2832100D03*
X-5952490D03*
X-5858510Y-3060700D03*
X-5952490D03*
X-5858510Y-2946400D03*
X-5952490D03*
X-5858510Y-3175000D03*
X-5952490D03*
X-5858510Y-2717800D03*
X-5952490D03*
X-5858510Y-2603500D03*
X-5952490D03*
X-5893010Y-2380000D03*
X-5986990D03*
X-5803900Y-5558790D03*
Y-5464810D03*
X-5417820Y-4949190D03*
Y-4855210D03*
X-5646420D03*
Y-4949190D03*
X-5532120D03*
Y-4855210D03*
X-5634990Y-3543300D03*
X-5541010D03*
X-5647690Y-2743200D03*
X-5553710D03*
X-5606990Y-2240000D03*
X-5513010D03*
X-4965700Y-7044690D03*
Y-7138670D03*
X-5342890Y-5925830D03*
X-5248910D03*
X-5105400Y-5901690D03*
X-5342890Y-5811520D03*
X-5248910D03*
X-5260340Y-5525770D03*
Y-5619750D03*
X-5105400Y-5807710D03*
X-5283200Y-5210810D03*
Y-5304790D03*
X-5050790Y-5024110D03*
X-5144770D03*
X-5029200Y-4542790D03*
X-5143500Y-4555490D03*
X-5025390Y-4114800D03*
X-5029200Y-4448810D03*
X-5147310Y-4114800D03*
X-5241290D03*
X-5054600Y-4326890D03*
Y-4232910D03*
X-5168900Y-4326890D03*
Y-4232910D03*
X-5143500Y-4461510D03*
X-5025390Y-4000500D03*
X-5012690Y-3695700D03*
X-5025390Y-3886200D03*
X-5130800Y-3564890D03*
Y-3470910D03*
X-5245100Y-3564890D03*
Y-3470910D03*
X-5016500Y-3247390D03*
X-5012690Y-3581400D03*
X-5147310Y-3352800D03*
X-5241290D03*
X-5016500Y-3369310D03*
Y-3463290D03*
Y-3153410D03*
X-5147310Y-3149600D03*
X-5241290D03*
X-4986990Y-2380000D03*
X-5273010Y-2480000D03*
X-5366990D03*
X-4749800Y-4542790D03*
X-4931410Y-4114800D03*
X-4749800Y-4448810D03*
X-4711700Y-4326890D03*
Y-4232910D03*
X-4940300Y-4326890D03*
Y-4232910D03*
X-4826000Y-4326890D03*
Y-4232910D03*
X-4597400Y-4326890D03*
Y-4232910D03*
X-4931410Y-4000500D03*
X-4918710Y-3695700D03*
X-4931410Y-3886200D03*
X-4673600Y-3247390D03*
X-4918710Y-3581400D03*
X-4787900Y-3247390D03*
X-4902200D03*
X-4559300Y-3369310D03*
Y-3463290D03*
X-4787900Y-3369310D03*
Y-3463290D03*
X-4673600Y-3369310D03*
Y-3463290D03*
X-4561840Y-3247390D03*
X-4902200Y-3369310D03*
Y-3463290D03*
X-4673600Y-3153410D03*
X-4787900D03*
X-4902200D03*
X-4561840D03*
X-4893010Y-2380000D03*
X-4409440Y-7044690D03*
Y-7138670D03*
X-4140200Y-4542790D03*
X-4368800D03*
X-4254500D03*
X-4140200Y-4448810D03*
X-4254500Y-4326890D03*
Y-4232910D03*
X-4140200Y-4326890D03*
Y-4232910D03*
X-4368800Y-4448810D03*
X-4254500D03*
X-4368800Y-4326890D03*
Y-4232910D03*
X-4483100Y-4326890D03*
Y-4232910D03*
X-4093210Y-3708400D03*
X-4187190D03*
X-4093210Y-4051300D03*
X-4187190D03*
X-4093210Y-3937000D03*
X-4187190D03*
X-4093210Y-3822700D03*
X-4187190D03*
X-4093210Y-3594100D03*
X-4187190D03*
X-4335780Y-3247390D03*
X-4450080D03*
X-4221480D03*
X-4330700Y-3369310D03*
Y-3463290D03*
X-4445000Y-3369310D03*
Y-3463290D03*
X-4064000Y-3221990D03*
X-4093210Y-3479800D03*
X-4187190D03*
X-4093210Y-3365500D03*
X-4187190D03*
X-4335780Y-3153410D03*
X-4450080D03*
X-4221480D03*
X-4064000Y-3128010D03*
X-3869690Y-6751320D03*
X-3775710D03*
X-3656330Y-5438140D03*
X-3985260Y-5210810D03*
Y-5304790D03*
X-4048760Y-5038090D03*
Y-4944110D03*
X-3945890Y-4559300D03*
X-3851910D03*
X-3874770Y-4226560D03*
X-3968750D03*
X-3954780Y-4121150D03*
X-3928110Y-4330700D03*
X-4022090D03*
Y-4445000D03*
X-3928110D03*
X-3818890D03*
X-3724910D03*
X-3954780Y-4027170D03*
X-3971290Y-3860800D03*
X-3877310D03*
X-3851910Y-3644900D03*
X-3945890D03*
X-3851910Y-3454400D03*
X-3945890D03*
Y-3263900D03*
X-3851910D03*
X-3945890Y-3149600D03*
X-3851910D03*
X-3848100Y-2752090D03*
Y-2658110D03*
X-4056990Y-1640000D03*
X-3963010D03*
X-3562350Y-5438140D03*
X-3185000Y-5006990D03*
Y-4913010D03*
X-3247390Y-4673600D03*
X-3251200Y-4542790D03*
X-3450590Y-4754880D03*
X-3544570D03*
X-3251200Y-4448810D03*
X-3449320Y-3750310D03*
Y-3844290D03*
X-3445510Y-3048000D03*
X-3539490D03*
X-3594100Y-2454910D03*
Y-2548890D03*
X-3479800Y-2454910D03*
Y-2548890D03*
X-3365500Y-2454910D03*
Y-2548890D03*
X-2914650Y-6852920D03*
X-3008630D03*
X-2753010Y-5879990D03*
X-2846990D03*
X-3060700Y-5896610D03*
Y-5990590D03*
X-2825010Y-5598010D03*
Y-5691990D03*
X-2935010Y-5598010D03*
Y-5691990D03*
X-2940010Y-5193010D03*
Y-5286990D03*
X-2750000Y-4556990D03*
X-3153410Y-4673600D03*
X-3022600Y-4657090D03*
Y-4563110D03*
X-2750000Y-4463010D03*
X-3120390Y-4452620D03*
X-3026410D03*
X-2896990Y-1520010D03*
X-2803010D03*
Y-1640000D03*
X-2896990D03*
X-2461720Y-7136130D03*
Y-7042150D03*
X-2370000Y-3393010D03*
Y-3486990D03*
X-2373600Y-2836610D03*
Y-2930590D03*
X-2320290Y-1087120D03*
X-2354580Y-476250D03*
Y-382270D03*
X-1947720Y-7042150D03*
Y-7136130D03*
X-1910010Y-3423010D03*
Y-3516990D03*
X-2246990Y-3510010D03*
X-2153010D03*
X-2244690Y-3275400D03*
X-2150710D03*
X-1946990Y-3230000D03*
X-2244690Y-3389700D03*
X-2150710D03*
X-2030000Y-3423010D03*
Y-3516990D03*
X-2150710Y-3171100D03*
X-2244690D03*
Y-2952500D03*
X-2150710D03*
X-2244690Y-3056800D03*
X-2150710D03*
X-1946990Y-3080000D03*
X-2244690Y-2838200D03*
X-2150710D03*
X-2133600Y-2716530D03*
Y-2622550D03*
X-2270000Y-2716990D03*
Y-2623010D03*
X-1913010Y-2640000D03*
X-2006990D03*
X-1873250Y-1028700D03*
X-1967230D03*
X-1873250Y-1168400D03*
X-1967230D03*
X-2226310Y-1087120D03*
X-1965960Y-664210D03*
Y-758190D03*
X-1924050Y-251460D03*
Y-383540D03*
X-1796240Y-7136130D03*
Y-7042150D03*
X-1504950Y-5128270D03*
X-1506990Y-5240000D03*
X-1853010Y-3230000D03*
Y-3080000D03*
X-1776990Y-2640000D03*
X-1683010D03*
X-1574800Y-1103630D03*
Y-1197610D03*
X-1830070Y-251460D03*
Y-383540D03*
X-1662430Y-264160D03*
X-1568450D03*
X-1410970Y-5128270D03*
X-1413010Y-5240000D03*
X-1240000Y-4526990D03*
Y-4433010D03*
X-1033010Y-3789990D03*
X-1126990D03*
X-1081210Y-3644500D03*
Y-3390500D03*
Y-3263500D03*
Y-3517500D03*
Y-3136500D03*
X-1008380Y-1977390D03*
Y-1883410D03*
X-1409700Y-1197610D03*
Y-1103630D03*
X-1148080D03*
Y-1009650D03*
X-1262380Y-504190D03*
Y-410210D03*
X-1322070Y-264160D03*
X-1416050D03*
X-1089660Y-440690D03*
Y-534670D03*
X-1038860Y737870D03*
Y831850D03*
X-660400Y-5888990D03*
Y-5795010D03*
X-783010Y-5200000D03*
X-876990D03*
X-623010Y-4350000D03*
X-716990D03*
X-760000Y-4086990D03*
Y-3993010D03*
X-987230Y-3644500D03*
Y-3390500D03*
X-733230D03*
X-827210D03*
Y-3263500D03*
X-733230D03*
Y-3517500D03*
X-827210D03*
X-987230Y-3263500D03*
Y-3517500D03*
X-826990Y-3640000D03*
X-733010D03*
X-987230Y-3136500D03*
X-427990Y-5499100D03*
X-334010D03*
Y-5270500D03*
X-427990D03*
Y-5384800D03*
X-334010D03*
X-427990Y-5126200D03*
X-334010D03*
X228600Y-6333490D03*
Y-6239510D03*
X254000Y-5876290D03*
X251460Y-5424170D03*
X254000Y-5782310D03*
X251460Y-5330190D03*
X206400Y-3010090D03*
Y-2916110D03*
G54D62*
X-1816600Y-5627200D03*
X-2076600D03*
Y-3887200D03*
X-1816600D03*
G54D90*
G01X-7719060Y-3916680D02*
Y-3810000D01*
X-7777480Y-3751580D01*
X-8533420D01*
X-8600000Y-3685000D01*
Y-2635010D01*
G01Y-2484990D02*
X-8362000D01*
X-8356600Y-2490390D01*
G01X-7980130Y-2690000D02*
X-8024000D01*
X-8114000Y-2780000D01*
X-8272140D01*
X-8476240Y-2984100D01*
G01X-8356600Y-2640410D02*
X-8346190Y-2630000D01*
X-7660000D01*
X-7250000Y-3040000D01*
G01X-8273580Y-2375000D02*
Y-2407370D01*
X-8356600Y-2490390D01*
G01X-7980130Y-2330000D02*
X-8418380D01*
X-8422480Y-2334100D01*
G01X-8375010Y-1680000D02*
Y-1529710D01*
X-8340130Y-1494830D01*
Y-1390000D01*
G01D02*
X-8409320D01*
G01X-7071360Y-6677660D02*
X-7101010Y-6707310D01*
X-7102240D01*
X-7216180Y-6821250D01*
X-7218680D01*
G01X-7107700Y-4723300D02*
X-7008300D01*
X-6973900Y-4688900D01*
Y-4529600D01*
G01X-6887700Y-4818300D02*
X-6809660D01*
X-6779600Y-4788240D01*
Y-4787900D01*
G01X-6618800Y-4556500D02*
X-6705340D01*
X-6766560Y-4617720D01*
G01X-7068900Y-4309600D02*
Y-4105910D01*
X-7072710Y-4102100D01*
G01X-6922690D02*
Y-4167310D01*
X-6895000Y-4195000D01*
X-6770000D01*
X-6727190Y-4237810D01*
Y-4255770D01*
X-6686460Y-4296500D01*
X-6618800D01*
G01X-6973900Y-4529600D02*
X-6841790D01*
X-6819500Y-4507310D01*
G01X-6618800Y-4491500D02*
X-6731000D01*
G01X-6618800Y-4036500D02*
X-6759380D01*
X-6824980Y-4102100D01*
G01X-6839020Y-1895800D02*
X-6755000Y-1979820D01*
Y-3250060D01*
X-6469380Y-3535680D01*
X-6466840D01*
G01X-6849870Y-2290000D02*
Y-2387090D01*
X-6850380Y-2387600D01*
G01X-6540600Y-3384100D02*
X-6710000Y-3214700D01*
Y-1877750D01*
X-6841950Y-1745800D01*
X-6926580D01*
G01X-6540600Y-3284100D02*
X-6665000Y-3159700D01*
Y-1790000D01*
X-6809200Y-1645800D01*
X-6893550D01*
X-6930150Y-1682400D01*
G01X-6925000Y-1510000D02*
X-6850000Y-1585000D01*
X-6785000D01*
X-6620000Y-1750000D01*
Y-3104710D01*
X-6587590Y-3137120D01*
X-6540600Y-3184100D01*
G01X-6926580Y-1445800D02*
X-6804200D01*
X-6575000Y-1675000D01*
Y-3049700D01*
X-6540600Y-3084100D01*
G01X-6706230Y-796810D02*
X-6813190D01*
X-6814200Y-795800D01*
G01X-6329680Y-4612640D02*
X-6197640D01*
X-6076500Y-4491500D01*
X-5978800D01*
G01X-6618800Y-4426500D02*
X-6730000D01*
G01Y-4356100D02*
X-6703060D01*
X-6697660Y-4361500D01*
X-6618800D01*
G01X-6311900Y-3326210D02*
Y-3406140D01*
G01D02*
X-6172200D01*
X-6134100Y-3368040D01*
Y-3326210D01*
G01X-5952490Y-3060700D02*
X-6004560D01*
X-6062510Y-3118650D01*
Y-3390430D01*
X-6127080Y-3455000D01*
X-6350000D01*
X-6420900Y-3384100D01*
X-6540600D01*
G01X-5952490Y-2832100D02*
X-6233160D01*
X-6461760Y-3060700D01*
G01X-5892800Y-6236890D02*
X-5821200D01*
X-5819850Y-6238240D01*
X-5770880D01*
X-5524500Y-6484620D01*
X-5039360D01*
X-4518660Y-5963920D01*
G01X-5803900Y-5384800D02*
X-5844800D01*
X-5938700Y-5478700D01*
X-5960600D01*
G01Y-5653260D02*
X-5866130Y-5558790D01*
X-5803900D01*
G01X-5986780Y-4900850D02*
X-5796280D01*
G01X-5978800Y-4621500D02*
X-6131500D01*
X-6165000Y-4655000D01*
Y-4722630D01*
X-5986780Y-4900850D01*
G01X-5978800Y-4426500D02*
X-5836920D01*
G01X-5978800Y-3906500D02*
X-5895320D01*
X-5882630Y-3893810D01*
X-5882640Y-3881120D01*
Y-3865880D01*
X-5902960Y-3845560D01*
X-5918200D01*
G01X-5791200Y-3505200D02*
X-5904800D01*
X-5952490Y-3457510D01*
Y-3403600D01*
G01X-5858510Y-3289300D02*
X-5791200D01*
X-5684390Y-3396110D01*
X-5633850D01*
X-5633720Y-3395980D01*
X-5598720D01*
X-5546590Y-3448110D01*
G01X-5858510Y-3403600D02*
X-5755640D01*
X-5711130Y-3448110D01*
X-5646590D01*
G01X-5952490Y-3289300D02*
X-6004300D01*
X-6018010Y-3303010D01*
Y-3378200D01*
G01X-5858510Y-3175000D02*
X-5826760D01*
X-5801360Y-3200400D01*
X-5294300D01*
X-5246590Y-3248110D01*
G01X-5952490Y-2946400D02*
X-6037580D01*
G01X-5858510Y-3060700D02*
X-5755640D01*
X-5720830Y-3095510D01*
X-5193990D01*
X-5146590Y-3048110D01*
G01X-5858510Y-2832100D02*
X-5775960D01*
X-5715000Y-2893060D01*
X-5291540D01*
X-5246590Y-2848110D01*
G01X-5858510Y-2946400D02*
X-5748020D01*
X-5702300Y-2992120D01*
X-5190600D01*
X-5146590Y-2948110D01*
G01X-5858510Y-2603500D02*
X-5776500D01*
X-5705000Y-2675000D01*
X-5219700D01*
X-5146590Y-2748110D01*
G01X-5952490Y-2603500D02*
X-6022340D01*
X-6042660Y-2583180D01*
Y-2547620D01*
G01X-5952490Y-2717800D02*
X-6035040D01*
G01X-5858510D02*
X-5786120D01*
X-5704840Y-2799080D01*
X-5195620D01*
X-5146590Y-2848110D01*
G01X-5342890Y-5925830D02*
X-5392410D01*
X-5412730Y-5905510D01*
G01X-5516100Y-5995500D02*
X-5385090D01*
X-5137230Y-6243360D01*
Y-6245860D01*
G01X-5516100Y-5805500D02*
X-5507540Y-5814060D01*
X-5345430D01*
X-5342890Y-5811520D01*
G01X-5650310Y-5613400D02*
X-5709920D01*
X-5735320Y-5638800D01*
X-5735910D01*
G01X-5440100Y-5422900D02*
X-5367020D01*
G01X-5811520Y-5224700D02*
X-5658010D01*
X-5650310Y-5232400D01*
G01X-5739550Y-62600D02*
X-5571120D01*
X-5570220Y-63500D01*
X-5562600D01*
X-5461000Y-165100D01*
G01X-4750820Y-7012640D02*
Y-6926040D01*
X-4749800Y-6925020D01*
Y-6893560D01*
X-4880610Y-6762750D01*
X-5236210D01*
G01D02*
X-4665980Y-6192520D01*
X-4594860D01*
G01X-5083810Y-6709410D02*
X-4827270D01*
X-3949700Y-5831840D01*
Y-5547360D01*
X-3985260Y-5511800D01*
Y-5370310D01*
G01X-5342890Y-5811520D02*
Y-5782310D01*
X-5311140Y-5750560D01*
X-5026660D01*
X-4985000Y-5708900D01*
Y-5645000D01*
X-4915300Y-5575300D01*
X-4893800D01*
G01X-5113800Y-5670300D02*
X-5209790D01*
X-5260340Y-5619750D01*
G01X-5113800Y-5670300D02*
X-5005000Y-5561500D01*
Y-5485000D01*
X-4908550Y-5388550D01*
Y-5247150D01*
X-4893800Y-5232400D01*
G01X-5113800Y-5137400D02*
X-5252400D01*
X-5283200Y-5168200D01*
Y-5210810D01*
G01X-4560820Y-7292640D02*
X-4559300Y-7291120D01*
Y-7208520D01*
X-4579620Y-7188200D01*
X-4719320D01*
X-4862830Y-7044690D01*
X-4965700D01*
G01X-4053840Y-7292340D02*
X-4506420D01*
X-4506720Y-7292640D01*
X-4560820D01*
G01X-4409440Y-7138670D02*
X-4657290D01*
X-4750820Y-7045140D01*
Y-7012640D01*
G01X-4401000Y-5341600D02*
Y-5466900D01*
X-4330700Y-5537200D01*
G01X-4351000Y-5341600D02*
Y-5440700D01*
X-4330700Y-5461000D01*
G01X-4251000Y-5341600D02*
Y-5388300D01*
X-4178300Y-5461000D01*
G01X-4025900Y-5537200D02*
X-4041140D01*
X-4201000Y-5377340D01*
Y-5341600D01*
G01X-4508500D02*
Y-5413500D01*
X-4525010Y-5430010D01*
Y-5495290D01*
X-4483100Y-5537200D01*
G01X-4301000Y-5341600D02*
Y-5414500D01*
X-4178300Y-5537200D01*
G01X-4451000Y-5341600D02*
Y-5428900D01*
X-4483100Y-5461000D01*
G01X-4201000Y-5181600D02*
Y-5138960D01*
X-4146610Y-5084570D01*
Y-4948090D01*
G01X-4246610D02*
X-4401000Y-5102480D01*
Y-5181600D01*
G01X-4218940Y-5096670D02*
Y-5100320D01*
X-4251000Y-5132380D01*
Y-5181600D01*
G01X-4351000D02*
Y-5118590D01*
X-4236210Y-5003800D01*
X-4235640D01*
X-4204700Y-4972860D01*
Y-4890000D01*
X-4246610Y-4848090D01*
G01X-4301000Y-5181600D02*
Y-5118880D01*
X-4231920Y-5049800D01*
X-4193470D01*
G01X-4036060Y-5461000D02*
X-4067050D01*
X-4143500Y-5384550D01*
Y-5341600D01*
G01X-4146610Y-4848090D02*
X-4104640Y-4890060D01*
Y-5092890D01*
X-4143500Y-5131750D01*
Y-5181600D01*
G01X-4346610Y-4648090D02*
X-4300000Y-4694700D01*
Y-4941760D01*
X-4451000Y-5092760D01*
Y-5181600D01*
G01X-4508500D02*
Y-5099970D01*
X-4394200Y-4985670D01*
Y-4795680D01*
X-4346610Y-4748090D01*
G01X-3185000Y-5006990D02*
X-3703010D01*
X-3795000Y-4915000D01*
Y-4731460D01*
X-3830000Y-4696460D01*
X-4098240D01*
X-4146610Y-4648090D01*
G01X-4185920Y-2171700D02*
X-4094480Y-2263140D01*
Y-3000240D01*
X-4046610Y-3048110D01*
G01X-3680460Y-6697980D02*
X-3733800Y-6751320D01*
X-3775710D01*
G01X-3680460Y-6697980D02*
X-3614420D01*
X-3567680Y-6744720D01*
X-3495340D01*
G01X-3757170Y-6649720D02*
X-3495340D01*
G01X-3820670Y-5435600D02*
Y-5059170D01*
X-3891280Y-4988560D01*
Y-4903420D01*
X-3946610Y-4848090D01*
G01X-3570000Y-5660000D02*
X-3656330Y-5573670D01*
Y-5438140D01*
G01X-3886200Y-5192270D02*
Y-5126230D01*
G01X-3985260Y-5304790D02*
Y-5370310D01*
G01X-3934460Y-5048290D02*
X-3996190Y-5110020D01*
Y-5199880D01*
X-3985260Y-5210810D01*
G01X-3846610Y-3748110D02*
X-3700000Y-3894720D01*
Y-3955000D01*
X-3565000Y-4090000D01*
X-3520000D01*
X-3360580Y-4249420D01*
X-3271010D01*
X-3227830Y-4292600D01*
G01X-3746610Y-3248110D02*
X-3698900Y-3200400D01*
X-3639620D01*
X-3604700Y-3165480D01*
Y-3013320D01*
X-3581400Y-2990020D01*
X-3381180D01*
X-3261360Y-2870200D01*
X-3227830D01*
G01X-3746610Y-3548110D02*
X-3704700Y-3590020D01*
X-3351800D01*
X-3314700Y-3627120D01*
X-3271010D01*
X-3227830Y-3670300D01*
G01Y-3492500D02*
X-3271010Y-3449320D01*
X-3464560D01*
X-3512820Y-3401060D01*
X-3699560D01*
X-3746610Y-3448110D01*
G01X-3946610Y-2948110D02*
X-3988520Y-2906200D01*
Y-2437380D01*
X-4046220Y-2379680D01*
X-4047550D01*
G01X-3670300Y-2349500D02*
X-3924300Y-2603500D01*
Y-2783840D01*
X-3896360Y-2811780D01*
Y-2997860D01*
X-3946610Y-3048110D01*
G01X-3746610Y-3148110D02*
X-3688520Y-3090020D01*
Y-2926520D01*
X-3561080Y-2799080D01*
X-3487420D01*
X-3469640Y-2781300D01*
X-3227830D01*
G01X-3663900Y-1643200D02*
X-3959810D01*
X-3963010Y-1640000D01*
G01X-3663900Y-1897200D02*
X-3827800D01*
X-3875000Y-1850000D01*
X-3984990D01*
G01X-3149600Y-6186090D02*
X-3198910D01*
X-3223070Y-6161930D01*
Y-6052890D01*
X-3223000Y-6052820D01*
Y-6007350D01*
G01X-3352800Y-6186090D02*
X-3288950D01*
X-3261170Y-6158310D01*
Y-6055620D01*
X-3263900Y-6052890D01*
Y-6051760D01*
X-3273000Y-6042660D01*
Y-6007350D01*
G01X-3167380Y-5694170D02*
Y-5758180D01*
X-3223000Y-5813800D01*
Y-5879850D01*
G01X-3395520Y-5341160D02*
Y-5439480D01*
X-3256280Y-5578720D01*
Y-5613910D01*
G01X-3345180D02*
X-3364990D01*
X-3413300Y-5565600D01*
G01X-3251200Y-4542790D02*
Y-4669790D01*
X-3247390Y-4673600D01*
G01X-3446610Y-4248090D02*
X-3389390Y-4305310D01*
Y-4492230D01*
X-3338830Y-4542790D01*
X-3251200D01*
G01X-3334020Y-4446000D02*
X-3254010D01*
X-3251200Y-4448810D01*
G01X-3120390Y-4452620D02*
X-3247390D01*
X-3251200Y-4448810D01*
G01X-3227830Y-4114800D02*
X-3271010Y-4071620D01*
X-3307080D01*
X-3430610Y-3948090D01*
X-3446610D01*
G01X-3227830Y-4203700D02*
X-3271010Y-4160520D01*
X-3314700D01*
X-3355340Y-4119880D01*
Y-4080080D01*
X-3429240Y-4006180D01*
X-3488520D01*
X-3546610Y-3948090D01*
G01X-3227830Y-3848100D02*
X-3269740Y-3806190D01*
X-3323810D01*
X-3365000Y-3765000D01*
Y-3735000D01*
X-3409980Y-3690020D01*
X-3504700D01*
X-3546610Y-3648110D01*
G01X-3227830Y-3759200D02*
X-3271010Y-3716020D01*
X-3312160D01*
X-3380070Y-3648110D01*
X-3446610D01*
G01X-3227830Y-4025900D02*
X-3271010Y-3982720D01*
X-3312160D01*
X-3390900Y-3903980D01*
X-3563620D01*
X-3646610Y-3820990D01*
Y-3748110D01*
G01X-3227830Y-3225800D02*
X-3271010Y-3268980D01*
X-3429000D01*
X-3508130Y-3348110D01*
X-3546610D01*
G01X-3227830Y-3403600D02*
X-3383280D01*
G01X-3646610Y-3448110D02*
X-3604760Y-3489960D01*
X-3564040D01*
X-3563980Y-3490020D01*
X-3529240D01*
X-3529180Y-3489960D01*
X-3294380D01*
X-3291840Y-3492500D01*
G01X-3646610Y-3248110D02*
X-3616410D01*
X-3518300Y-3150000D01*
X-3450000D01*
X-3365000Y-3065000D01*
Y-3030000D01*
X-3294100Y-2959100D01*
X-3227830D01*
G01Y-3581400D02*
X-3271010Y-3538220D01*
X-3436720D01*
X-3446610Y-3548110D01*
G01X-3227830Y-3136900D02*
X-3365500D01*
X-3476710Y-3248110D01*
X-3546610D01*
G01X-3312540Y-3047620D02*
X-3228210D01*
X-3227830Y-3048000D01*
G01X-3479800Y-2548890D02*
Y-2628900D01*
G01X-3594100Y-2548890D02*
Y-2628900D01*
G01X-3365500Y-2548890D02*
Y-2628900D01*
G01X-3215340Y-6554720D02*
X-3090280D01*
X-3046810Y-6598190D01*
Y-6680200D01*
G01X-2895000Y-4725000D02*
X-2950000Y-4780000D01*
Y-4935000D01*
X-3030000Y-5015000D01*
X-3176990D01*
X-3185000Y-5006990D01*
G01X-2787500Y-5150000D02*
X-2880000Y-5057500D01*
Y-4790000D01*
X-2830000Y-4740000D01*
X-2695000D01*
G01X-2940010Y-5193010D02*
X-2830510D01*
X-2787500Y-5150000D01*
G01X-2895000Y-4725000D02*
X-2809240Y-4639240D01*
Y-4300760D01*
X-2825000Y-4285000D01*
G01X-3030000Y-4775000D02*
X-3022050Y-4767050D01*
Y-4657640D01*
X-3022600Y-4657090D01*
G01X-3153410Y-4673600D02*
X-3039110D01*
X-3022600Y-4657090D01*
G01X-3147570Y-4292600D02*
X-3104390Y-4335780D01*
X-3004820D01*
G01X-2950000Y-4055000D02*
Y-4090000D01*
X-2974800Y-4114800D01*
X-3147570D01*
G01Y-4203700D02*
X-3048000D01*
X-2997200Y-4254500D01*
G01X-3147570Y-4025900D02*
X-3089100D01*
X-3070000Y-4045000D01*
G01X-3147570Y-3759200D02*
X-2971800D01*
G01X-3014980Y-3714070D02*
X-3103800D01*
X-3147570Y-3670300D01*
G01X-3030000Y-3895000D02*
X-3076900Y-3848100D01*
X-3147570D01*
G01X-3025140Y-3294380D02*
X-3078990D01*
X-3147570Y-3225800D01*
G01Y-3403600D02*
X-3024490D01*
G01X-3147570Y-3581400D02*
X-3008020D01*
G01X-3068320Y-3510280D02*
X-3086100Y-3492500D01*
X-3147570D01*
G01X-3040000Y-3002280D02*
X-3104390D01*
X-3147570Y-2959100D01*
G01X-2954020Y-2954020D02*
X-3063750D01*
X-3147570Y-2870200D01*
G01X-2969260Y-3154680D02*
X-2970320D01*
X-3077000Y-3048000D01*
X-3147570D01*
G01Y-2781300D02*
X-3105070D01*
X-3064920Y-2821450D01*
X-3061890D01*
G01X-3070860Y-3172460D02*
X-3112010D01*
X-3147570Y-3136900D01*
G01X-2896990Y-1640000D02*
X-3120700D01*
X-3123900Y-1643200D01*
G01X-2600000Y-4960000D02*
X-2611120Y-4948880D01*
Y-4660900D01*
X-2661920Y-4610100D01*
X-2696890D01*
X-2750000Y-4556990D01*
G01X-2085600Y-4417200D02*
X-2176640D01*
X-2200000Y-4393840D01*
Y-4305970D01*
X-2228610Y-4277360D01*
X-2420620D01*
X-2435860Y-4262120D01*
Y-4231640D01*
X-2418080Y-4213860D01*
X-2346960D01*
X-2331720Y-4198620D01*
Y-4176790D01*
X-2347990Y-4160520D01*
X-2372360D01*
X-2395000Y-4137880D01*
Y-3865000D01*
G01X-2545000Y-4190000D02*
X-2490000D01*
X-2441910Y-4141910D01*
Y-3721910D01*
X-2420000Y-3700000D01*
X-2050000D01*
G01X-2545000Y-4190000D02*
X-2620000D01*
X-2680000Y-4250000D01*
Y-4320000D01*
X-2750000Y-4390000D01*
Y-4463010D01*
G01X-2085600Y-4297200D02*
X-2157500D01*
X-2170260Y-4284440D01*
X-2171240D01*
X-2347860Y-4107820D01*
Y-3842140D01*
X-2400000Y-3790000D01*
G01X-2641600Y-762000D02*
X-2693290D01*
X-2693570Y-761720D01*
X-2762670D01*
G01X-2320280Y-907560D02*
X-2401880D01*
X-2402660Y-906780D01*
X-2418080D01*
X-2430780Y-894080D01*
Y-734060D01*
X-2448560Y-716280D01*
X-2487930D01*
G01X-2294180Y-7020020D02*
X-2293640Y-7020560D01*
X-2245360D01*
X-2189480Y-7076440D01*
G01X-2085600Y-4977200D02*
X-2199940D01*
X-2249400Y-5026660D01*
G01X-2085600Y-5097200D02*
X-1982700D01*
G01X-1910000Y-5010000D02*
Y-4972960D01*
X-1874240Y-4937200D01*
X-1807600D01*
G01X-1960000Y-5045000D02*
X-1920240Y-5084760D01*
Y-5129100D01*
X-1872140Y-5177200D01*
X-1807600D01*
G01X-1938020Y-4841240D02*
X-1896020D01*
X-1893190Y-4838410D01*
Y-4838250D01*
X-1880550Y-4825610D01*
X-1880390D01*
X-1871980Y-4817200D01*
X-1807600D01*
G01X-2321560Y-4688840D02*
X-2289920Y-4657200D01*
X-2085600D01*
G01X-2290000Y-4850000D02*
X-2230220D01*
X-2157420Y-4777200D01*
X-2085600D01*
G01X-1958100Y-4729820D02*
X-1960880D01*
Y-4729480D01*
X-1907540D01*
X-1875260Y-4697200D01*
X-1807600D01*
G01X-1971040Y-4792980D02*
X-1973580D01*
X-2000010Y-4766550D01*
Y-4694480D01*
X-1996910Y-4691380D01*
Y-4664220D01*
G01X-1971040Y-4792980D02*
X-1907540D01*
G01X-1971040D02*
X-1995260Y-4817200D01*
X-2085600D01*
G01X-1996910Y-4664220D02*
Y-4590290D01*
X-2010000Y-4577200D01*
X-2085600D01*
G01X-1807600Y-4657200D02*
X-1918040D01*
X-1921740Y-4660900D01*
X-1993590D01*
X-1996910Y-4664220D01*
G01X-2085600Y-4737200D02*
X-2187200D01*
X-2235000Y-4785000D01*
G01X-2285000Y-4472940D02*
Y-4553220D01*
X-2221020Y-4617200D01*
X-2085600D01*
G01X-2196990Y-4571320D02*
X-2197920D01*
X-2163800Y-4537200D01*
X-2085600D01*
G01Y-4857200D02*
X-2175190D01*
X-2180820Y-4862830D01*
X-2182620D01*
G01X-1940560Y-4610100D02*
X-1933460Y-4617200D01*
X-1807600D01*
G01X-1910000Y-4464660D02*
X-1877460Y-4497200D01*
X-1807600D01*
G01X-1929030Y-4099680D02*
Y-4165270D01*
X-2020960Y-4257200D01*
X-2085600D01*
G01X-2267180Y-3964940D02*
X-2193520Y-4038600D01*
Y-4093820D01*
X-2150140Y-4137200D01*
X-2085600D01*
G01X-1985000Y-4520000D02*
X-1988180D01*
X-2010980Y-4497200D01*
X-2085600D01*
G01X-1988580Y-4460320D02*
Y-4458070D01*
X-1987780Y-4457270D01*
Y-4390840D01*
X-2001420Y-4377200D01*
X-2085600D01*
G01Y-4177200D02*
X-2160430D01*
X-2239240Y-4098390D01*
Y-4069080D01*
G01X-1807600Y-4097200D02*
X-1872140D01*
X-1893190Y-4076150D01*
Y-4029050D01*
X-1909040Y-4013200D01*
G01X-2085600Y-4097200D02*
X-1982880D01*
G01X-1807600Y-4137200D02*
X-1725700D01*
X-1675000Y-4086500D01*
Y-4070000D01*
X-1630960Y-4025960D01*
Y-3878900D01*
X-1719860Y-3790000D01*
X-2260000D01*
G01X-2236700Y-3901440D02*
Y-3936140D01*
X-2155640Y-4017200D01*
X-2085600D01*
G01X-1988580Y-4019430D02*
Y-4038580D01*
X-2007200Y-4057200D01*
X-2085600D01*
G01X-1737500Y-2233550D02*
X-1857630D01*
X-1975730Y-2351650D01*
G01X-1967230Y-1168400D02*
X-2077720D01*
X-2108200Y-1137920D01*
G01X-2320280Y-907560D02*
Y-1033010D01*
X-2320290Y-1033020D01*
Y-1087120D01*
G01X-1967230Y-1028700D02*
X-2047240D01*
X-2062480Y-1013460D01*
Y-1000760D01*
G01X-1807600Y-5537200D02*
X-1703260D01*
G01D02*
Y-5496600D01*
G01D02*
Y-5481400D01*
X-1727460Y-5457200D01*
X-1807600D01*
G01X-1703260Y-5496600D02*
X-1703860Y-5497200D01*
X-1807600D01*
G01X-1703260Y-5417200D02*
X-1807600D01*
G01Y-5297200D02*
X-1703260D01*
G01Y-5376600D02*
Y-5417200D01*
G01Y-5256600D02*
Y-5241400D01*
X-1727460Y-5217200D01*
X-1807600D01*
G01X-1703260Y-5297200D02*
Y-5256600D01*
G01X-1807600Y-5377200D02*
X-1703860D01*
X-1703260Y-5376600D01*
G01Y-5297200D02*
Y-5301740D01*
X-1665000Y-5340000D01*
G01X-1703260Y-5256600D02*
X-1703860Y-5257200D01*
X-1807600D01*
G01X-1703260Y-5376600D02*
Y-5361400D01*
X-1727460Y-5337200D01*
X-1807600D01*
G01X-1605280Y-5139480D02*
Y-5140000D01*
X-1719400D01*
X-1722200Y-5137200D01*
X-1807600D01*
G01Y-5057200D02*
X-1715540D01*
X-1714910Y-5056570D01*
X-1700130D01*
X-1698850Y-5055290D01*
X-1575290D01*
X-1570000Y-5050000D01*
G01X-1504950Y-5128270D02*
Y-5115050D01*
X-1570000Y-5050000D01*
G01X-1807600Y-5097200D02*
X-1681480D01*
G01X-1630000Y-4590000D02*
Y-4632330D01*
X-1734870Y-4737200D01*
X-1807600D01*
G01Y-4857200D02*
X-1722900D01*
X-1703300Y-4876800D01*
G01X-1807600Y-4897200D02*
X-1723700D01*
X-1703300Y-4876800D01*
G01X-1807600Y-4577200D02*
X-1697800D01*
X-1685000Y-4590000D01*
G01X-1705300Y-4777200D02*
X-1807600D01*
G01Y-4457200D02*
X-1739360D01*
X-1705840Y-4490720D01*
G01X-1645000Y-4470000D02*
X-1737800Y-4377200D01*
X-1807600D01*
G01X-1440000Y-4580000D02*
X-1410000Y-4550000D01*
Y-4435000D01*
X-1627800Y-4217200D01*
X-1807600D01*
G01X-1570000Y-4470000D02*
X-1702800Y-4337200D01*
X-1807600D01*
G01Y-4257200D02*
X-1642800D01*
X-1455000Y-4445000D01*
Y-4485000D01*
G01X-1517800Y-4537200D02*
X-1807600D01*
G01X-555000Y-6080000D02*
X-315000D01*
X-286000Y-6051000D01*
Y-5969300D01*
G01X-50400Y-5501550D02*
Y-5579600D01*
G01X-400Y-5501550D02*
Y-5579600D01*
G01X49600Y-5501550D02*
Y-5579600D01*
G01X206400Y-2916110D02*
X9890D01*
X7000Y-2919000D01*
G01X206400Y-2419030D02*
X15030D01*
X7000Y-2411000D01*
G01X206400Y-2673030D02*
X15030D01*
X7000Y-2665000D01*
G01X206400Y-2165030D02*
X15030D01*
X7000Y-2157000D01*
G01X206400Y-1911030D02*
X15030D01*
X7000Y-1903000D01*
G01X206400Y-1657030D02*
X15030D01*
X7000Y-1649000D01*
G01X206400Y-1403030D02*
X15030D01*
X7000Y-1395000D01*
G54D81*
G01X-1081210Y-3390500D02*
Y-3438790D01*
X-1069300Y-3450700D01*
X-894010D01*
X-827210Y-3517500D01*
G01X-1081210Y-3390500D02*
X-1129500D01*
X-1157840Y-3362160D01*
G01X-1235240Y-3225000D02*
X-1210240Y-3200000D01*
X-890710D01*
X-827210Y-3263500D01*
G54D45*
X-3886200Y-5192270D03*
Y-5272530D03*
X-3256280Y-5613910D03*
Y-5694170D03*
X-3345180Y-5613910D03*
Y-5694170D03*
X-3167380D03*
Y-5613910D03*
X-88900Y-6326630D03*
Y-6246370D03*
X206400Y-2592770D03*
Y-2673030D03*
Y-2419030D03*
Y-2338770D03*
Y-2084770D03*
Y-2165030D03*
Y-1911030D03*
Y-1830770D03*
Y-1576770D03*
Y-1657030D03*
Y-1322770D03*
Y-1403030D03*
G54D27*
X-7466140Y-6167480D03*
X-7416140D03*
X-7366140D03*
X-7316140D03*
X-7266140D03*
Y-5822480D03*
X-7316140D03*
X-7366140D03*
X-7416140D03*
X-7466140D03*
X-6444960Y-127300D03*
X-6294960D03*
Y217700D03*
X-6444960D03*
X-3468080Y-839620D03*
X-3318080D03*
Y-494620D03*
X-3468080D03*
G54D18*
X-8140700Y-2484100D03*
Y-845800D03*
X-7124700Y-2484100D03*
Y-845800D03*
G54D54*
X-3326840Y476480D03*
Y411480D03*
Y346480D03*
X-3510840D03*
Y411480D03*
Y476480D03*
G54D72*
X-172900Y-5429050D03*
Y-5379050D03*
Y-5329050D03*
Y-5279050D03*
X122100Y-5429050D03*
Y-5279050D03*
Y-5329050D03*
Y-5379050D03*
G54D63*
X-2085600Y-5457200D03*
Y-5497200D03*
Y-5537200D03*
Y-5017200D03*
Y-5057200D03*
Y-5097200D03*
Y-5137200D03*
Y-5177200D03*
Y-5217200D03*
Y-5257200D03*
Y-5297200D03*
Y-5337200D03*
Y-5377200D03*
Y-5417200D03*
Y-4577200D03*
Y-4617200D03*
Y-4657200D03*
Y-4697200D03*
Y-4737200D03*
Y-4777200D03*
Y-4817200D03*
Y-4857200D03*
Y-4897200D03*
Y-4937200D03*
Y-4977200D03*
Y-4137200D03*
Y-4177200D03*
Y-4217200D03*
Y-4257200D03*
Y-4297200D03*
Y-4337200D03*
Y-4377200D03*
Y-4417200D03*
Y-4457200D03*
Y-4497200D03*
Y-4537200D03*
Y-3977200D03*
Y-4017200D03*
Y-4057200D03*
Y-4097200D03*
X-1807600Y-5457200D03*
Y-5497200D03*
Y-5537200D03*
Y-5017200D03*
Y-5057200D03*
Y-5097200D03*
Y-5137200D03*
Y-5177200D03*
Y-5217200D03*
Y-5257200D03*
Y-5297200D03*
Y-5337200D03*
Y-5377200D03*
Y-5417200D03*
Y-4577200D03*
Y-4617200D03*
Y-4657200D03*
Y-4697200D03*
Y-4737200D03*
Y-4777200D03*
Y-4817200D03*
Y-4857200D03*
Y-4897200D03*
Y-4937200D03*
Y-4977200D03*
Y-4137200D03*
Y-4177200D03*
Y-4217200D03*
Y-4257200D03*
Y-4297200D03*
Y-4337200D03*
Y-4377200D03*
Y-4417200D03*
Y-4457200D03*
Y-4497200D03*
Y-4537200D03*
Y-3977200D03*
Y-4017200D03*
Y-4057200D03*
Y-4097200D03*
G54D36*
X-6618800Y-4556500D03*
Y-4621500D03*
Y-4166500D03*
Y-4231500D03*
Y-4296500D03*
Y-4361500D03*
Y-4426500D03*
Y-4491500D03*
Y-3906500D03*
Y-3971500D03*
Y-4036500D03*
Y-4101500D03*
X-5978800Y-4621500D03*
Y-4556500D03*
Y-4491500D03*
Y-4426500D03*
Y-4361500D03*
Y-4296500D03*
Y-4231500D03*
Y-4166500D03*
Y-4101500D03*
Y-4036500D03*
Y-3971500D03*
Y-3906500D03*
G54D82*
G01X-2180000Y-4917440D02*
X-2247440D01*
X-2280000Y-4950000D01*
G01X-800000Y-5120000D02*
X-1080000D01*
X-1200000Y-5240000D01*
X-1413010D01*
G01X-1386990Y-4699000D02*
Y-4616300D01*
X-1343660Y-4572970D01*
Y-4508500D01*
X-1240000Y-4404840D01*
G01D02*
Y-4340000D01*
X-1160000Y-4260000D01*
X-990000D01*
G01X-1240000Y-4433010D02*
Y-4404840D01*
G01X-980000Y-4030000D02*
X-1100000D01*
X-1165010Y-3964990D01*
X-1230000D01*
G01X-990000Y-4260000D02*
Y-4355000D01*
G01X-623010Y-4350000D02*
Y-4286990D01*
X-650000Y-4260000D01*
X-990000D01*
G01X-980000Y-4030000D02*
X-880000D01*
G54D64*
X-1694180Y35460D03*
Y975460D03*
G54D28*
X-7193640Y-6069980D03*
Y-5919980D03*
X-7538640D03*
Y-6069980D03*
X-6542460Y145200D03*
Y95200D03*
Y45200D03*
Y-4800D03*
Y-54800D03*
X-6197460D03*
Y-4800D03*
Y45200D03*
Y95200D03*
Y145200D03*
X-3220580Y-767120D03*
Y-717120D03*
Y-667120D03*
Y-617120D03*
X-3565580D03*
Y-667120D03*
Y-717120D03*
Y-767120D03*
X-3220580Y-567120D03*
X-3565580D03*
G54D73*
X-247000Y-3173000D03*
Y-2919000D03*
Y-2411000D03*
Y-2665000D03*
Y-1903000D03*
Y-2157000D03*
Y-1395000D03*
Y-1649000D03*
Y-1141000D03*
Y-887000D03*
X7000Y-2919000D03*
Y-2411000D03*
Y-2665000D03*
Y-1903000D03*
Y-2157000D03*
Y-1395000D03*
Y-1649000D03*
Y-1141000D03*
Y-887000D03*
G54D37*
X-6298800Y-4264000D03*
G54D55*
X-3418840Y443980D03*
G54D46*
X-3663900Y-1897200D03*
Y-1770200D03*
Y-1643200D03*
Y-1516200D03*
X-3123900Y-1897200D03*
Y-1516200D03*
Y-1643200D03*
Y-1770200D03*
G54D19*
X-8224990Y-1680000D03*
X-8375010D03*
X-7827990Y-2933800D03*
X-7978010D03*
X-7517210Y-6443980D03*
X-7367190D03*
X-6935550Y-6982460D03*
X-6785530D03*
X-6935550Y-6786880D03*
X-6785530D03*
Y-6479540D03*
X-6935550D03*
X-7072710Y-4102100D03*
X-6922690D03*
Y-3911600D03*
X-7072710D03*
X-6971110Y-3708400D03*
X-6821090D03*
X-6318330Y-6893560D03*
Y-6591300D03*
X-6439570Y-312600D03*
X-6289550D03*
X-5967810Y-6812280D03*
X-5817790D03*
X-6168310Y-6893560D03*
Y-6591300D03*
X-5889570Y-312600D03*
Y127400D03*
Y317400D03*
Y-62600D03*
Y697400D03*
Y507400D03*
Y887400D03*
X-5650310Y-5613400D03*
X-5500290D03*
X-5650310Y-5232400D03*
X-5500290D03*
X-5739550Y-312600D03*
Y127400D03*
Y317400D03*
Y-62600D03*
Y697400D03*
Y507400D03*
Y887400D03*
X-4987210Y-6245860D03*
X-5137230D03*
X-4135010Y-1850000D03*
X-3984990D03*
X-3314990Y-2150000D03*
X-3465010D03*
X-3472690Y-1021720D03*
X-3322670D03*
X-3046810Y-6680200D03*
X-2896790D03*
X-2765010Y-3890000D03*
X-2912690Y-1011720D03*
X-2762670D03*
X-2912690Y-581720D03*
X-2762670D03*
Y-761720D03*
X-2912690D03*
Y-401720D03*
X-2762670D03*
Y-221720D03*
X-2912690D03*
X-2762670Y-41720D03*
X-2912690D03*
Y143280D03*
X-2762670D03*
X-3025010Y380000D03*
X-2874990D03*
X-3112850Y1074420D03*
X-2962830D03*
X-2614990Y-3890000D03*
X-2393870Y530860D03*
X-2543890D03*
X-2155010Y-1510000D03*
X-2004990D03*
X-1537010Y-4903000D03*
Y-4699000D03*
X-1065010Y-4790000D03*
X-1386990Y-4903000D03*
Y-4699000D03*
X-914990Y-4790000D03*
G54D83*
G01X-5646420Y-4949190D02*
Y-5011420D01*
X-5685870Y-5050870D01*
X-5796280D01*
G54D74*
X-187200Y-197870D03*
Y787150D03*
G54D65*
X-830580Y-6116320D03*
G54D29*
X-7296480Y-5382260D03*
X-7496480D03*
X-7224560Y197400D03*
X-7024560D03*
X-3706800Y-5207000D03*
X-3506800D03*
G54D56*
X-3431340Y346480D03*
G54D38*
X-6369960Y45200D03*
X-3393080Y-667120D03*
G54D47*
X-3495340Y-6744720D03*
X-3215340D03*
X-3495340Y-6649720D03*
Y-6554720D03*
X-3215340D03*
X-2825000Y-4095000D03*
Y-4285000D03*
X-2545000D03*
Y-4190000D03*
Y-4095000D03*
G54D84*
G01X-6497320Y-4284980D02*
Y-4280750D01*
X-6497730Y-4280340D01*
Y-4246470D01*
X-6512700Y-4231500D01*
X-6568800D01*
G01X-1921750Y-4338320D02*
Y-4216410D01*
X-1882540Y-4177200D01*
X-1807600D01*
G01Y-4417200D02*
X-1906360D01*
X-1921750Y-4401810D01*
Y-4338320D01*
G01X-50400Y-5329050D02*
X-100400Y-5279050D01*
X-172900D01*
G01X-25400Y-5354050D02*
X-50400Y-5379050D01*
X-172900D01*
G01X-50400Y-5329050D02*
X-172900D01*
G01X-25400Y-5354050D02*
X-50400Y-5329050D01*
G54D39*
X-5685100Y-5422900D03*
X-5440100D03*
G54D57*
X-2370000Y-5600000D03*
G54D75*
X208160Y-7345680D03*
X213560Y1173680D03*
G54D48*
X-3585630Y-6918210D03*
X-3145630D03*
X-350130Y74640D03*
Y514640D03*
G54D66*
X-1041500Y-4136200D03*
Y-3936200D03*
X-911500Y-4136200D03*
Y-3936200D03*
X-976500D03*
G54D85*
G01X-6618800Y-4101500D02*
X-6730000D01*
G01X-6096000Y-4701540D02*
X-5826760D01*
X-5758180Y-4632960D01*
Y-4235620D01*
X-5770320Y-4223480D01*
G01X-5978800Y-4556500D02*
X-5839200D01*
G01X-5978800Y-4231500D02*
X-5778340D01*
X-5770320Y-4223480D01*
G01X-5978800Y-4166500D02*
X-5827300D01*
X-5770320Y-4223480D01*
G01X-5978800Y-4361500D02*
X-5849940D01*
X-5825580Y-4337140D01*
Y-4296500D01*
G01X-5978800D02*
X-5825580D01*
G01X-5952490Y-3175000D02*
X-6016840D01*
G01X-5500290Y-5613400D02*
Y-5543630D01*
X-5519420Y-5524500D01*
G01X-5685100Y-5422900D02*
Y-5456870D01*
X-5729870Y-5501640D01*
G01X-5220500Y-5996430D02*
Y-5954240D01*
X-5248910Y-5925830D01*
G01X-5105400Y-5901690D02*
Y-6004000D01*
X-5132400Y-6031000D01*
Y-6086030D01*
X-5114810Y-6103620D01*
G01X-5113800Y-5480300D02*
X-5149700D01*
X-5184240Y-5445760D01*
X-5260340D01*
G01D02*
Y-5525770D01*
G01X-5176520Y-5811520D02*
X-5248910D01*
G01X-5105400Y-5807710D02*
X-5172710D01*
X-5176520Y-5811520D01*
G01X-4597400Y-4232910D02*
Y-4197280D01*
X-4646590Y-4148090D01*
G01X-4711700Y-4232910D02*
Y-4182980D01*
X-4746590Y-4148090D01*
G01X-4931410Y-4114800D02*
Y-4000500D01*
G01X-4826000Y-4232910D02*
Y-4168680D01*
X-4846590Y-4148090D01*
G01X-4940300Y-4232910D02*
X-4826000D01*
G01X-4559300Y-3463290D02*
X-4445000D01*
G01X-4673600D02*
Y-3521100D01*
X-4646590Y-3548110D01*
G01X-4787900Y-3463290D02*
Y-3506800D01*
X-4746590Y-3548110D01*
G01X-4673600Y-3247390D02*
X-4745870D01*
X-4746590Y-3248110D01*
G01X-4787900Y-3247390D02*
X-4845870D01*
X-4846590Y-3248110D01*
G01X-4254500Y-4232910D02*
Y-4155980D01*
X-4246610Y-4148090D01*
G01X-4140200Y-4232910D02*
X-4254500D01*
G01X-4368800D02*
Y-4170280D01*
X-4346610Y-4148090D01*
G01X-4483100Y-4232910D02*
Y-4184580D01*
X-4446610Y-4148090D01*
G01X-4093210Y-3822700D02*
Y-3937000D01*
G01D02*
X-4082120Y-3948090D01*
X-3946610D01*
G01X-4093210Y-3479800D02*
Y-3365500D01*
G01X-4187190D02*
Y-3479800D01*
G01X-4445000Y-3463290D02*
Y-3546500D01*
X-4446610Y-3548110D01*
G01X-3869690Y-6751320D02*
Y-6775450D01*
X-3964940Y-6870700D01*
X-4023360D01*
G01X-3837430Y-6649720D02*
X-3869690Y-6681980D01*
Y-6751320D01*
G01X-3495340Y-6554720D02*
X-3636260D01*
X-3667760Y-6586220D01*
G01X-3886200Y-5272530D02*
Y-5291820D01*
X-3900930Y-5306550D01*
Y-5435600D01*
G01D02*
Y-5514340D01*
G01X-4064000Y-5156200D02*
Y-5115240D01*
X-4048760Y-5100000D01*
Y-5038090D01*
G01X-3971290Y-3860800D02*
Y-3923410D01*
X-3946610Y-3948090D01*
G01X-3848100Y-2658110D02*
X-3740000D01*
G01X-3215340Y-6744720D02*
X-3132070D01*
X-3023870Y-6852920D01*
X-3008630D01*
G01X-3172510Y-5943650D02*
X-3212000D01*
G01X-3345180Y-5694170D02*
X-3256280D01*
G01X-3454400Y-5753100D02*
X-3395470Y-5694170D01*
X-3345180D01*
G01X-3449320Y-3844290D02*
X-3542810D01*
X-3546610Y-3848090D01*
G01X-3594100Y-2454910D02*
X-3479800D01*
G01X-3008630Y-6852920D02*
Y-6908630D01*
X-3025000Y-6925000D01*
G01X-2914650Y-6852920D02*
Y-6955790D01*
X-2851660Y-7018780D01*
X-2685040D01*
G01X-3154680Y-5925820D02*
X-3172510Y-5943650D01*
G01X-3154680Y-5925820D02*
Y-5950000D01*
G01D02*
Y-5989170D01*
G01X-3060700Y-5896610D02*
X-3125470D01*
X-3154680Y-5925820D01*
G01X-3060700Y-5990590D02*
X-2973070D01*
G01X-3167380Y-5613910D02*
X-3101850D01*
G01X-3026410Y-4452620D02*
X-3022600Y-4456430D01*
Y-4563110D01*
G01X-2870200Y-4480560D02*
X-2872760Y-4478000D01*
X-2895100D01*
X-2920480Y-4452620D01*
X-3026410D01*
G01X-1703300Y-4876800D02*
X-1641800D01*
X-1640000Y-4875000D01*
G01X-1410970Y-5128270D02*
X-1280170D01*
X-1212700Y-5060800D01*
X-950800D01*
X-700000Y-4810000D01*
Y-4560000D01*
G01X-476000Y-5969300D02*
Y-5889000D01*
X-500000Y-5865000D01*
X-546240D01*
X-570230Y-5888990D01*
G01X-660400D02*
X-570230D01*
G01X-715010Y-5257800D02*
Y-5325110D01*
G01X-208280Y-5851860D02*
Y-5910580D01*
G01X-95000Y-5689300D02*
Y-5810000D01*
X-136860Y-5851860D01*
X-208280D01*
G01X-381000Y-5689300D02*
Y-5814000D01*
X-343140Y-5851860D01*
X-208280D01*
G01X-427990Y-5384800D02*
Y-5499100D01*
G01Y-5126200D02*
Y-5270500D01*
G01X-88900Y-6326630D02*
Y-6414260D01*
G01X228600Y-6333490D02*
Y-6421120D01*
G01X-95000Y-6100000D02*
Y-5969300D01*
G01X-88900Y-6246370D02*
X-95000Y-6240270D01*
Y-6100000D01*
G01X0Y-5969300D02*
Y-5895340D01*
X27940Y-5867400D01*
Y-5866200D01*
G01X254000Y-5876290D02*
X167640D01*
X157550Y-5866200D01*
X95000D01*
G01Y-5969300D02*
Y-5866200D01*
G01Y-5689300D02*
Y-5792400D01*
G01X254000Y-5782310D02*
Y-5694680D01*
G54D67*
X-830580Y-6715760D03*
G54D49*
X-3223000Y-6007350D03*
X-3373000D03*
X-3223000Y-5879850D03*
X-3373000D03*
G54D58*
X-2630000Y-5600000D03*
Y-5730000D03*
X-2370000D03*
G54D76*
X49600Y-5501550D03*
X-400D03*
X-50400D03*
X-100400D03*
Y-5206550D03*
X-50400D03*
X-400D03*
X49600D03*
G54D86*
G01X-8346440Y-4699000D02*
X-8453260D01*
X-8466040Y-4711780D01*
X-8581440D01*
G01Y-4586780D02*
X-8466040D01*
X-8465580Y-4587240D01*
X-8354060D01*
X-8218160Y-4723140D01*
Y-4725680D01*
G01X-8065100Y-6810400D02*
X-7450310D01*
X-7208480Y-7052230D01*
X-7205980D01*
G01X-8011160Y-4699000D02*
X-8054340Y-4655820D01*
Y-4588510D01*
G01X-8232140D02*
Y-4711700D01*
X-8218160Y-4725680D01*
G01D02*
X-8178800Y-4765040D01*
X-7802880D01*
G01X-7978010Y-2933800D02*
Y-3070730D01*
X-8027280Y-3120000D01*
X-8440000D01*
X-8473440Y-3086560D01*
Y-3045000D01*
G01X-7807960Y-5731590D02*
X-7732560D01*
X-7731370Y-5732780D01*
X-7566660D01*
X-7538640Y-5760800D01*
Y-5919980D01*
G01X-7621840Y-4685780D02*
X-7694180D01*
X-7782560Y-4597400D01*
X-7909560D01*
X-8011160Y-4699000D01*
G01X-7447280Y-4693920D02*
X-7447090Y-4694110D01*
Y-4747070D01*
X-7465060Y-4765040D01*
X-7802880D01*
G01D02*
X-7851840Y-4716080D01*
Y-4685780D01*
G01X-7983770Y-2781400D02*
X-7978010Y-2787160D01*
Y-2933800D01*
G01X-7205980Y-7202250D02*
X-7082870D01*
X-7048500Y-7167880D01*
G01X-6935550Y-6982460D02*
Y-7291150D01*
X-7000240Y-7355840D01*
X-7429500D01*
X-7495540Y-7289800D01*
Y-7202250D01*
G01X-7517210Y-6443980D02*
Y-6368580D01*
X-7515860Y-6367230D01*
Y-6258560D01*
X-7466140Y-6208840D01*
Y-6167480D01*
G01X-7218680Y-6671230D02*
Y-6598330D01*
X-7220000Y-6597010D01*
Y-6340000D01*
X-7316140Y-6243860D01*
Y-6167480D01*
G01X-6935550Y-6786880D02*
Y-6711480D01*
X-6934200Y-6710130D01*
Y-6677660D01*
X-7152640Y-6459220D01*
Y-6210300D01*
X-7195460Y-6167480D01*
X-7266140D01*
G01X-7193640Y-6069980D02*
X-7125740D01*
X-7091680Y-6104040D01*
Y-6396310D01*
X-7008450Y-6479540D01*
X-6935550D01*
G01X-7193640Y-5919980D02*
X-6967010D01*
G01X-7466140Y-5822480D02*
Y-5894440D01*
X-7438900Y-5921680D01*
G01X-7416140Y-5822480D02*
Y-5898920D01*
X-7438900Y-5921680D01*
G01X-6935550Y-6982460D02*
Y-6786880D01*
G01X-6785530Y-6479540D02*
X-6678050D01*
X-6615900Y-6541690D01*
X-6540500D01*
G01X-7025640Y-5971540D02*
Y-5976620D01*
G01X-6922690Y-3911600D02*
X-6822440D01*
G01X-6618800Y-3906500D02*
X-6817340D01*
X-6822440Y-3911600D01*
G01X-6180600Y-5573700D02*
X-6291580D01*
G01X-6465000Y-4395800D02*
Y-4333180D01*
X-6451600Y-4319780D01*
Y-4214900D01*
X-6500000Y-4166500D01*
X-6618800D01*
G01X-6568800Y-4231500D02*
X-6618800D01*
G01X-6489700Y-3825770D02*
Y-3934460D01*
X-6526740Y-3971500D01*
X-6618800D01*
G01X-6444960Y-127300D02*
Y-212200D01*
X-6439570Y-217590D01*
Y-312600D01*
G01X-6084560Y472390D02*
Y387400D01*
X-6174560Y297400D01*
X-6254560D01*
X-6294960Y257000D01*
Y217700D01*
G01X-6444960D02*
Y471990D01*
X-6444560Y472390D01*
G01X-6441440Y-26820D02*
X-6469420Y-54800D01*
X-6542460D01*
G01Y-4800D02*
X-6463460D01*
G01D02*
X-6441440Y-26820D01*
G01X-5889570Y-312600D02*
X-6034560D01*
X-6134560Y-212600D01*
Y-82600D01*
X-6162360Y-54800D01*
X-6197460D01*
G01X-5889570Y127400D02*
X-5969560D01*
X-6029560Y187400D01*
X-6104560D01*
X-6146760Y145200D01*
X-6197460D01*
G01X-5889570Y-62600D02*
X-5962470D01*
X-5965070Y-60000D01*
X-5970000D01*
X-6125200Y95200D01*
X-6197460D01*
G01X-5803900Y-5464810D02*
X-5756910Y-5417820D01*
Y-5302250D01*
X-5760720Y-5298440D01*
G01D02*
X-5725000D01*
X-5709760Y-5313680D01*
X-5292090D01*
X-5283200Y-5304790D01*
G01X-3373000Y-5879850D02*
Y-5932650D01*
X-3384000Y-5943650D01*
G01D02*
X-3486350D01*
X-3570000Y-5860000D01*
G01X-3220580Y-767120D02*
X-3172280D01*
X-3137680Y-801720D01*
Y-931720D01*
X-3057680Y-1011720D01*
X-2912690D01*
G01X-3472690Y-1021720D02*
Y-946710D01*
X-3472700Y-936740D01*
X-3468080Y-932120D01*
Y-839620D01*
G01X-3464560Y-739140D02*
X-3492540Y-767120D01*
X-3565580D01*
G01Y-717120D02*
X-3486580D01*
X-3464560Y-739140D01*
G01X-3627680Y-731720D02*
X-3613080Y-717120D01*
X-3565580D01*
G01X-2912690Y-761720D02*
X-2985590D01*
X-2987310Y-760000D01*
X-3000000D01*
X-3142880Y-617120D01*
X-3220580D01*
G01X-3467680Y-256730D02*
Y-361720D01*
X-3468080Y-362120D01*
Y-494620D01*
G01X-2912690Y-581720D02*
X-3017680D01*
X-3032280Y-567120D01*
X-3220580D01*
G01X-3107680Y-256730D02*
Y-346720D01*
X-3197680Y-436720D01*
X-3297680D01*
X-3318080Y-457120D01*
Y-494620D01*
G01X-3431340Y346480D02*
X-3510840D01*
G01X-3326840D02*
X-3131430D01*
X-3097910Y380000D01*
X-3025010D01*
G01X-3154680Y-5950000D02*
X-3161030Y-5943650D01*
X-3172510D01*
G01X-2630000Y-5730000D02*
X-2670000D01*
X-2695640Y-5755640D01*
X-2871360D01*
X-2935010Y-5691990D01*
G01X-2692500Y-5370000D02*
Y-5462500D01*
X-2730000Y-5500000D01*
X-2900000D01*
X-2935010Y-5535010D01*
Y-5598010D01*
G01X-2630000Y-5600000D02*
X-2823020D01*
X-2825010Y-5598010D01*
G01X-2560000Y170000D02*
Y310000D01*
X-2630000Y380000D01*
X-2874990D01*
G01X-2199180Y-7270020D02*
Y-7189620D01*
X-2199640Y-7189160D01*
Y-7178040D01*
X-2241550Y-7136130D01*
X-2461720D01*
G01X-2753010Y-5879990D02*
X-2669990D01*
X-2520000Y-5730000D01*
X-2370000D01*
G01X-2298080Y-5140000D02*
X-2330000D01*
X-2310010Y-5120010D01*
G01X-2325020D02*
X-2380000Y-5174990D01*
G01X-2312900Y-5168900D02*
X-2326980D01*
X-2298080Y-5140000D01*
G01X-2380000Y-5174990D02*
X-2355910Y-5199080D01*
X-2310000D01*
X-2285910Y-5174990D01*
G01X-2288010Y-5083000D02*
X-2473000D01*
X-2480000Y-5090000D01*
G01X-2279050Y-5120970D02*
X-2449030D01*
G01X-2302510Y-5097500D02*
X-2472500D01*
G01X-1796240Y-7136130D02*
Y-7194030D01*
X-1795780Y-7194490D01*
Y-7322820D01*
X-1838960Y-7366000D01*
X-2174240D01*
X-2199180Y-7341060D01*
Y-7270020D01*
G01X-2085600Y-5537200D02*
X-2192800D01*
X-2210000Y-5520000D01*
G01D02*
X-2187200Y-5497200D01*
X-2085600D01*
G01D02*
X-1984000D01*
X-1961200Y-5520000D01*
G01X-2085600Y-5537200D02*
X-1978400D01*
X-1961200Y-5520000D01*
G01X-2085600Y-5417200D02*
X-1984000D01*
X-1961200Y-5440000D01*
G01X-2085600Y-5457200D02*
X-1978400D01*
X-1961200Y-5440000D01*
G01X-2184040Y-5025960D02*
X-2215280Y-5057200D01*
G01X-2085600Y-5017200D02*
X-2153580D01*
G01X-2215280Y-5057200D02*
X-2201200D01*
G01X-2227000Y-5083000D02*
X-2201200Y-5057200D01*
G01X-2168120D02*
X-2190000D01*
G01X-2193920Y-5083000D02*
X-2227000D01*
G01X-2201400Y-5090480D02*
X-2234460D01*
X-2246980Y-5103000D01*
G01X-2213920D02*
X-2246980D01*
G01X-2153580Y-5017200D02*
X-2168120Y-5031740D01*
Y-5057200D01*
G01X-2215280D02*
X-2279050Y-5120970D01*
G01X-2201200Y-5057200D02*
X-2190000D01*
G01D02*
X-2184040Y-5051240D01*
Y-5025960D01*
G01X-2168120Y-5057200D02*
X-2085600D01*
G01X-2193920Y-5083000D02*
X-2168120Y-5057200D01*
G01X-2201400Y-5090480D02*
X-2193920Y-5083000D01*
G01X-2213920Y-5103000D02*
X-2201400Y-5090480D01*
G01X-2153580Y-5017200D02*
X-2175280D01*
X-2184040Y-5025960D01*
G01X-2310010Y-5120010D02*
X-2290000Y-5100000D01*
X-2280000D01*
X-2263000Y-5083000D01*
G01X-2310010Y-5120010D02*
X-2325020D01*
G01X-2263000Y-5083000D02*
X-2227000D01*
G01X-2325020Y-5120010D02*
X-2302510Y-5097500D01*
G01X-2285910Y-5174990D02*
X-2213920Y-5103000D01*
G01X-2285910Y-5174990D02*
X-2318990D01*
G01X-2279050Y-5120970D02*
X-2298080Y-5140000D01*
G01X-2263000Y-5083000D02*
X-2288010D01*
G01X-2302510Y-5097500D02*
X-2288010Y-5083000D01*
G01X-2210000Y-5400000D02*
X-2187200Y-5377200D01*
X-2085600D01*
G01X-2210000Y-5400000D02*
X-2192800Y-5417200D01*
X-2085600D01*
G01Y-5337200D02*
X-1984000D01*
X-1961200Y-5360000D01*
G01X-2085600Y-5377200D02*
X-1978400D01*
X-1961200Y-5360000D01*
G01X-2085600Y-4937200D02*
X-2160240D01*
X-2180000Y-4917440D01*
G01D02*
X-2167440D01*
X-2147200Y-4897200D01*
X-2085600D01*
G01X-1921750Y-4338320D02*
X-1922870Y-4337200D01*
X-2085600D01*
G01Y-3977200D02*
X-2021860D01*
X-2007060Y-3962400D01*
X-1697400D01*
X-1685000Y-3950000D01*
G01X-1841500Y-3362960D02*
Y-3395980D01*
X-1868530Y-3423010D01*
X-1910010D01*
G01X-2025000Y-3075000D02*
X-1951990D01*
X-1946990Y-3080000D01*
G01X-1913010Y-2640000D02*
Y-2716270D01*
G01X-2155010Y-1510000D02*
Y-1594990D01*
X-2100000Y-1650000D01*
G01X-2004990Y-1510000D02*
X-1910000D01*
X-1760000Y-1660000D01*
G01X-1807600Y-5017200D02*
X-1716440D01*
X-1692880Y-4993640D01*
G01D02*
X-1575420D01*
X-1537010Y-4955230D01*
G01X-1807600Y-4977200D02*
X-1715700D01*
X-1699260Y-4993640D01*
X-1692880D01*
G01X-1585000Y-4070000D02*
X-1692200Y-4177200D01*
X-1807600D01*
G01Y-4297200D02*
X-1667800D01*
X-1517800Y-4447200D01*
Y-4537200D01*
G01X-1807600Y-3977200D02*
X-1692800D01*
X-1685000Y-3985000D01*
G01X-1807600Y-4017200D02*
X-1690640D01*
X-1685000Y-4022840D01*
G01D02*
X-1719360Y-4057200D01*
X-1807600D01*
G01X-1685000Y-3985000D02*
Y-3950000D01*
G01Y-4022840D02*
Y-3985000D01*
G01X-1776990Y-2640000D02*
X-1820000Y-2683010D01*
Y-2720000D01*
G01X-1320000Y-1740000D02*
X-1488550Y-1908550D01*
X-1737500D01*
G01X-1081210Y-3136500D02*
X-1130700D01*
X-1192200Y-3075000D01*
X-1238580D01*
G01X-716990Y-4350000D02*
X-895000Y-4528010D01*
Y-4605000D01*
G01X-800000Y-3800000D02*
Y-3740000D01*
X-826990Y-3713010D01*
Y-3640000D01*
G01X-100400Y-5501550D02*
Y-5545400D01*
X-120000Y-5565000D01*
X-190000D01*
X-255900Y-5499100D01*
X-334010D01*
G01X-172900Y-5429050D02*
X-289760D01*
X-334010Y-5384800D01*
G01Y-5126200D02*
X-223800D01*
X-193930Y-5156070D01*
X-113230D01*
X-100400Y-5168900D01*
Y-5206550D01*
G01X-334010Y-5384800D02*
Y-5270500D01*
G01X190500Y-5429050D02*
X246580D01*
X251460Y-5424170D01*
G01Y-5330190D02*
X250320Y-5329050D01*
X122100D01*
G01Y-5429050D02*
X190500D01*
G01D02*
Y-5384800D01*
X184750Y-5379050D01*
X122100D01*
G01Y-5279050D02*
X151470D01*
X176870Y-5253650D01*
Y-5209540D01*
G54D68*
X-806200Y-1988520D03*
X-616200D03*
X-711200Y-1760520D03*
G54D77*
X-25400Y-5354050D03*
G54D59*
X-2322500Y-1908550D03*
Y-1973550D03*
Y-2038550D03*
Y-2103550D03*
Y-2168550D03*
Y-2233550D03*
Y-2298550D03*
X-1737500D03*
Y-2233550D03*
Y-2168550D03*
Y-2103550D03*
Y-2038550D03*
Y-1973550D03*
Y-1908550D03*
G54D87*
G01X-8259870Y-1390000D02*
X-8191500D01*
G01X-7827990Y-2933800D02*
X-7710000D01*
G01X-7903510Y-2781400D02*
X-7811400D01*
G01X-7899870Y-2690000D02*
X-7807760D01*
G01X-7899870Y-2330000D02*
X-7850000D01*
X-7790000Y-2270000D01*
G01X-7126990Y-2940000D02*
X-7219100D01*
G01X-6821090Y-3708400D02*
Y-3740230D01*
X-6758940Y-3802380D01*
G01X-7072710Y-3794760D02*
Y-3567710D01*
X-7045000Y-3540000D01*
X-6996990D01*
G01X-6930130Y-2290000D02*
Y-2229870D01*
G01X-7066990Y-2000000D02*
X-7159100D01*
G01X-6840220Y-1206500D02*
X-6781800D01*
X-6746990Y-1241310D01*
Y-1300000D01*
G01X-6653010D02*
X-6525000D01*
G01X-6625970Y-796810D02*
X-6548190D01*
X-6520000Y-825000D01*
G01X-5893010Y-2380000D02*
X-5750000D01*
X-5745000Y-2385000D01*
G01X-5440000Y-2620000D02*
X-5405000D01*
X-5366990Y-2581990D01*
Y-2480000D01*
G01X-5606990Y-2240000D02*
X-5716800D01*
X-5739380Y-2217420D01*
G01X-5513010Y-2240000D02*
Y-2159120D01*
X-5511900Y-2158010D01*
G01X-5050790Y-5024110D02*
Y-4952290D01*
X-5046590Y-4948090D01*
G01X-5144770Y-5024110D02*
X-5209530D01*
X-5315120Y-5129700D01*
G01X-5025390Y-4114800D02*
Y-4126870D01*
X-5046610Y-4148090D01*
G01X-5147310Y-4114800D02*
Y-4147370D01*
X-5146590Y-4148090D01*
G01X-5241290Y-4114800D02*
Y-4142790D01*
X-5246590Y-4148090D01*
G01X-5054600Y-4232910D02*
X-5168900D01*
G01X-5012690Y-3695700D02*
Y-3688380D01*
X-5042800Y-3658270D01*
G01X-5025390Y-3886200D02*
Y-4000500D01*
G01D02*
Y-4026870D01*
X-5046610Y-4048090D01*
G01X-5012690Y-3581400D02*
X-5114290D01*
X-5130800Y-3564890D01*
G01X-5016500Y-3369310D02*
X-4967810D01*
X-4946590Y-3348090D01*
G01X-5016500Y-3463290D02*
X-5123180D01*
X-5130800Y-3470910D01*
G01X-5273010Y-2480000D02*
X-5195880D01*
X-5135880Y-2540000D01*
G01X-4986990Y-2380000D02*
Y-2196130D01*
X-5021580Y-2161540D01*
G01X-4711700Y-4326890D02*
X-4725370D01*
X-4746590Y-4348110D01*
G01X-4826000Y-4326890D02*
Y-4427500D01*
X-4846590Y-4448090D01*
G01X-4940300Y-4326890D02*
Y-4441800D01*
X-4946590Y-4448090D01*
G01X-4749800Y-4448810D02*
X-4647310D01*
X-4646590Y-4448090D01*
G01X-4918710Y-3695700D02*
X-4899000D01*
X-4846590Y-3748110D01*
G01X-4931410Y-4000500D02*
X-4894180D01*
X-4846590Y-4048090D01*
G01X-4931410Y-3886200D02*
X-4908480D01*
X-4846590Y-3948090D01*
G01X-4902200Y-3369310D02*
X-4867810D01*
X-4846590Y-3348090D01*
G01X-4787900Y-3369310D02*
X-4825370D01*
X-4846590Y-3348090D01*
G01X-4559300Y-3369310D02*
X-4625370D01*
X-4646590Y-3348090D01*
G01X-4902200Y-3463290D02*
Y-3492500D01*
X-4846590Y-3548110D01*
G01X-4918710Y-3581400D02*
X-4879880D01*
X-4846590Y-3548110D01*
G01X-4902200Y-3247390D02*
X-4945870D01*
X-4946590Y-3248110D01*
G01X-4902200Y-3153410D02*
X-4941290D01*
X-4946590Y-3148110D01*
G01X-4673600Y-3153410D02*
X-4741290D01*
X-4746590Y-3148110D01*
G01X-4787900Y-3153410D02*
X-4841290D01*
X-4846590Y-3148110D01*
G01X-4446610Y-4448090D02*
X-4483100Y-4411600D01*
Y-4326890D01*
G01X-4254500Y-4448810D02*
X-4368800D01*
G01X-4093210Y-3708400D02*
Y-3694730D01*
X-4046590Y-3648110D01*
G01X-3946610Y-4048090D02*
X-3949820Y-4051300D01*
X-4093210D01*
G01D02*
Y-4105910D01*
X-4046590Y-4152530D01*
Y-4248090D01*
G01X-4187190Y-3708400D02*
Y-3707530D01*
X-4246610Y-3648110D01*
G01X-4187190Y-3822700D02*
Y-3807530D01*
X-4246610Y-3748110D01*
G01X-4187190Y-3937000D02*
X-4235520D01*
X-4246610Y-3948090D01*
G01X-4187190Y-4051300D02*
X-4243400D01*
X-4246610Y-4048090D01*
G01X-4093210Y-3594100D02*
X-4092600D01*
X-4046590Y-3548090D01*
G01X-4093210Y-3365500D02*
X-4075800Y-3348090D01*
X-4046610D01*
G01X-4187190Y-3479800D02*
Y-3488690D01*
X-4246610Y-3548110D01*
G01X-4187190Y-3594100D02*
X-4200620D01*
X-4246610Y-3548110D01*
G01X-4330700Y-3463290D02*
Y-3532200D01*
X-4346610Y-3548110D01*
G01X-4022090Y-4445000D02*
Y-4483100D01*
X-3945890Y-4559300D01*
G01X-3851910D02*
Y-4522470D01*
X-3928110Y-4446270D01*
Y-4445000D01*
G01X-3968750Y-4226560D02*
Y-4170230D01*
X-3946610Y-4148090D01*
G01X-4022090Y-4330700D02*
Y-4302620D01*
X-3968750Y-4249280D01*
Y-4226560D01*
G01X-3877310Y-3860800D02*
Y-3817410D01*
X-3946610Y-3748110D01*
G01X-3851910Y-3263900D02*
Y-3149600D01*
G01X-3663900Y-1770200D02*
X-3276420D01*
G01X-3450590Y-4754880D02*
X-3275120D01*
X-3185000Y-4845000D01*
Y-4913010D01*
G01X-3525730Y-4272070D02*
Y-4268970D01*
X-3546610Y-4248090D01*
G01X-3317240Y-2700020D02*
X-3260000Y-2642780D01*
Y-2490000D01*
X-3295090Y-2454910D01*
X-3365500D01*
G01X-3479800D02*
Y-2379980D01*
G01X-2900000Y-1517000D02*
X-2900800Y-1516200D01*
X-3123900D01*
G01X-2900000Y-1517000D02*
X-2896990Y-1520010D01*
G01X-2900000Y-1355000D02*
Y-1517000D01*
G01X-2370000Y-3393010D02*
X-2248000D01*
X-2244690Y-3389700D01*
G01X-2520000Y-3149600D02*
Y-3296170D01*
X-2423160Y-3393010D01*
X-2370000D01*
G01X-2373600Y-2836610D02*
Y-2749580D01*
G01X-2244690Y-2838200D02*
X-2372010D01*
X-2373600Y-2836610D01*
G01X-2244690Y-3171100D02*
X-2498500D01*
X-2520000Y-3149600D01*
G01X-2458720Y-2232660D02*
Y-2394580D01*
X-2459360Y-2395220D01*
G01X-2322500Y-1973550D02*
X-2415510D01*
X-2453640Y-2011680D01*
G01X-2322500Y-2038550D02*
X-2426770D01*
X-2453640Y-2011680D01*
G01X-2322500Y-2233550D02*
X-2457830D01*
X-2458720Y-2232660D01*
G01D02*
Y-2192020D01*
X-2435250Y-2168550D01*
X-2322500D01*
G01X-2479040Y-1908550D02*
X-2322500D01*
G01X-2150710Y-3275400D02*
X-2125400D01*
X-2075000Y-3225000D01*
G01D02*
X-2040900D01*
X-2035000Y-3230900D01*
X-1981870D01*
X-1980970Y-3230000D01*
X-1946990D01*
G01X-2150710Y-3389700D02*
X-2149700D01*
X-2050000Y-3290000D01*
G01X-2150710Y-3389700D02*
Y-3507710D01*
X-2153010Y-3510010D01*
G01X-2030000Y-3423010D02*
Y-3360000D01*
X-1995000Y-3325000D01*
G01X-1910010Y-3516990D02*
X-2030000D01*
G01D02*
Y-3600000D01*
G01X-2150710Y-2952500D02*
X-2074440D01*
G01X-2150710Y-2838200D02*
Y-2952500D01*
G01Y-3056800D02*
X-2043200D01*
X-2025000Y-3075000D01*
G01X-2005000Y-3175000D02*
X-2010900Y-3169100D01*
X-2148710D01*
X-2150710Y-3171100D01*
G01X-2270000Y-2716990D02*
X-2199120D01*
G01X-2133600Y-2716530D02*
X-2074190D01*
X-2073730Y-2716990D01*
G01X-2133600Y-2622550D02*
Y-2542540D01*
G01Y-2622550D02*
X-2134060Y-2623010D01*
X-2270000D01*
G01X-1790000Y-2535000D02*
X-1935000D01*
X-2006990Y-2606990D01*
Y-2640000D01*
G01X-1737500Y-2103550D02*
X-1947750D01*
G01X-1701800Y-3274060D02*
X-1745860Y-3230000D01*
X-1853010D01*
G01X-1704340Y-3022600D02*
X-1761740Y-3080000D01*
X-1853010D01*
G01X-1683010Y-2640000D02*
Y-2703570D01*
X-1663700Y-2722880D01*
G01X-1737500Y-2298550D02*
X-1843550D01*
X-1865000Y-2320000D01*
Y-2460000D01*
X-1790000Y-2535000D01*
G01X-1737500Y-2168550D02*
X-1859890D01*
G01X-1737500Y-1973550D02*
X-1875000D01*
G01X-1033010Y-3789990D02*
Y-3863010D01*
X-1041500Y-3871500D01*
Y-3936200D01*
G01X-1033010Y-3789990D02*
X-1000450D01*
X-949960Y-3840480D01*
G01X-1081210Y-3517500D02*
X-1157840D01*
G01X-1081210Y-3644500D02*
X-1157840D01*
G01X-1081210Y-3263500D02*
X-1158240D01*
G01X-427990Y-5270500D02*
X-440690Y-5257800D01*
X-715010D01*
G01X-880000Y-4030000D02*
X-843010Y-3993010D01*
X-760000D01*
G01X-980000Y-4030000D02*
X-976500Y-4026500D01*
Y-3936200D01*
G01X-510540Y-3741420D02*
Y-3441700D01*
X-527240Y-3425000D01*
X-698730D01*
X-733230Y-3390500D01*
G01Y-3263500D02*
X-589280D01*
G01X-427990Y-5384800D02*
X-479800D01*
X-497840Y-5402840D01*
Y-5433060D01*
G01X235150Y-6060970D02*
Y-6138450D01*
X228600Y-6145000D01*
Y-6239510D01*
G01X270000Y-4930000D02*
Y-4840000D01*
X231790Y-4801790D01*
X152400D01*
G01X7000Y-3173000D02*
X146780D01*
X206400Y-3113380D01*
Y-3010090D01*
G01Y-2592770D02*
Y-2519020D01*
G01Y-2338770D02*
Y-2265020D01*
G01Y-2084770D02*
Y-2011020D01*
G01Y-1576770D02*
Y-1503020D01*
G01Y-1830770D02*
Y-1757020D01*
G01Y-1322770D02*
Y-1249020D01*
G54D69*
X-612140Y-197870D03*
Y787150D03*
G54D78*
X7000Y-3173000D03*
G54D88*
G01X-2900000Y-2790000D02*
X-2895700Y-2794300D01*
Y-2905760D01*
X-2870160Y-2931300D01*
Y-3380700D01*
X-2971800Y-3482340D01*
G01X-2900000Y-2790000D02*
X-2800540D01*
X-2710540Y-2880000D01*
X-2650000D01*
G01X-2900000Y-2590000D02*
X-3052100Y-2437900D01*
Y-2386460D01*
G01X-2650000Y-2600000D02*
X-2890000D01*
X-2900000Y-2590000D01*
G01X-2480000Y-5090000D02*
X-2355030D01*
X-2325020Y-5120010D01*
G01X-650000Y-2680000D02*
X-262000D01*
X-247000Y-2665000D01*
G01D02*
X-288180Y-2623820D01*
X-593820D01*
X-650000Y-2680000D01*
G01X-368600Y-3530000D02*
X-408940Y-3489660D01*
Y-3347560D01*
G01X-368600Y-3530000D02*
X-328260Y-3489660D01*
Y-3347560D01*
G01X96520Y-3597980D02*
X-20620D01*
X-88600Y-3530000D01*
G01X96520Y-3462020D02*
X-20620D01*
X-88600Y-3530000D01*
G54D79*
G01X-9169000Y-7603000D02*
X431000D01*
Y1397000D01*
X-9169000D01*
Y-7603000D01*
G54D89*
G01X-3298660Y-6421590D02*
X-3268980Y-6391910D01*
Y-6367780D01*
X-3300650Y-6336110D01*
X-3352800D01*
G01X-3203740Y-6421590D02*
X-3230370Y-6394960D01*
Y-6367270D01*
X-3199210Y-6336110D01*
X-3149600D01*
G01X-3253080Y-5775820D02*
X-3278690Y-5801430D01*
Y-5846310D01*
X-3273000Y-5852000D01*
Y-5879850D01*
G01X-3346210Y-5784030D02*
X-3323000Y-5807240D01*
Y-5879850D01*
G01X-3040000Y-6480000D02*
X-2896790Y-6623210D01*
Y-6680200D01*
M02*
