G04 ================== begin FILE IDENTIFICATION RECORD ==================*
G04 Layout Name:  STANDARD.brd*
G04 Film Name:    Silkscreen_Top*
G04 File Format:  Gerber RS274X*
G04 File Origin:  Cadence Allegro 16.6-P004*
G04 Origin Date:  Thu Sep 18 09:56:33 2014*
G04 *
G04 Layer:  REF DES/SILKSCREEN_TOP*
G04 Layer:  PACKAGE GEOMETRY/SILKSCREEN_TOP*
G04 Layer:  MANUFACTURING/AUTOSILK_TOP*
G04 Layer:  MANUFACTURING/SILKSCREEN_TOP*
G04 Layer:  BOARD GEOMETRY/OUTLINE*
G04 Layer:  BOARD GEOMETRY/SILKSCREEN_TOP*
G04 *
G04 Offset:    (0.0000 0.0000)*
G04 Mirror:    No*
G04 Mode:      Positive*
G04 Rotation:  0*
G04 FullContactRelief:  No*
G04 UndefLineWidth:     0.1500*
G04 ================== end FILE IDENTIFICATION RECORD ====================*
%FSLAX25Y25*MOMM*%
%IR0*IPPOS*OFA0.00000B0.00000*MIA0B0*SFA1.00000B1.00000*%
%ADD10C,.1*%
%ADD11C,.2*%
%ADD12C,.13*%
%ADD13C,.1501*%
%ADD14C,.25*%
%ADD15C,.127*%
%ADD16C,.254*%
%ADD17C,.1524*%
%ADD18C,.178*%
%ADD19C,.1778*%
%ADD20C,.2499*%
%ADD21C,.1699*%
%ADD22C,.15*%
%ADD23C,.0254*%
G75*
%LPD*%
G75*
G36*
G01X-3278750Y-4466250D02*
Y-4523750D01*
X-3261250Y-4506250D01*
Y-4483750D01*
X-3278750Y-4466250D01*
G37*
G36*
G01X-3386600Y-2748100D02*
Y-2688100D01*
X-3446600D01*
X-3386600Y-2748100D01*
G37*
G36*
G01X-1980000Y-2925000D02*
X-2015000Y-2890000D01*
Y-2960000D01*
X-1980000Y-2925000D01*
G37*
G36*
G01X-1232400Y629280D02*
X-1369900D01*
X-1339900Y659280D01*
X-1262400D01*
X-1232400Y629280D01*
G37*
G36*
G01X-211460Y-57920D02*
Y79580D01*
X-181460Y49580D01*
Y-27920D01*
X-211460Y-57920D01*
G37*
G36*
G01X347650Y-5831400D02*
Y-5968900D01*
X317650Y-5938900D01*
Y-5861400D01*
X347650Y-5831400D01*
G37*
G36*
G01X311800Y-3147600D02*
Y-3223800D01*
X362600Y-3274600D01*
Y-3096800D01*
X311800Y-3147600D01*
G37*
G54D10*
G01X-9169000Y-7603000D02*
X431000D01*
Y1397000D01*
X-9169000D01*
Y-7603000D01*
G54D20*
G01X-5274990Y-868330D02*
X-5425000D01*
Y-826670D01*
X-5417500Y-813330D01*
X-5407500Y-805000D01*
X-5387500Y-801670D01*
X-5367490Y-805000D01*
X-5355000Y-815000D01*
X-5347490Y-826670D01*
Y-868330D01*
G01Y-826670D02*
X-5274990Y-801670D01*
G01X-5400000Y-736670D02*
X-5415000Y-726670D01*
X-5422500Y-715000D01*
X-5425000Y-701670D01*
X-5420000Y-685000D01*
X-5407500Y-673330D01*
X-5392500Y-670000D01*
X-5377490Y-671670D01*
X-5365000Y-678330D01*
X-5339990Y-711670D01*
X-5322490Y-726670D01*
X-5297490Y-736670D01*
X-5274990Y-740000D01*
Y-670000D01*
G01X-5297490Y-611670D02*
X-5284990Y-601670D01*
X-5277490Y-590000D01*
X-5274990Y-575000D01*
X-5279990Y-560000D01*
X-5289990Y-548330D01*
X-5307490Y-540000D01*
X-5327490Y-538330D01*
X-5347490Y-541670D01*
X-5360000Y-550000D01*
X-5369990Y-561670D01*
X-5372490Y-573330D01*
X-5369990Y-585000D01*
X-5360000Y-600000D01*
X-5425000Y-595000D01*
Y-550000D01*
G01Y-445000D02*
X-5420000Y-458340D01*
X-5407500Y-468330D01*
X-5392500Y-475000D01*
X-5372490Y-480000D01*
X-5349990Y-481670D01*
X-5327490Y-480000D01*
X-5307490Y-475000D01*
X-5292490Y-468330D01*
X-5279990Y-458340D01*
X-5274990Y-445000D01*
X-5279990Y-431670D01*
X-5292490Y-421670D01*
X-5307490Y-415000D01*
X-5327490Y-410000D01*
X-5349990Y-408330D01*
X-5372490Y-410000D01*
X-5392500Y-415000D01*
X-5407500Y-421670D01*
X-5420000Y-431670D01*
X-5425000Y-445000D01*
G54D11*
G01X-9018900Y-5807460D02*
Y-5869960D01*
X-8978900D01*
G01X-9018900Y-5179960D02*
Y-5242460D01*
G01X-8978900Y-5179960D02*
X-9018900D01*
G01X-8718900Y-5869960D02*
X-8678900D01*
Y-5707460D01*
G01Y-5342460D02*
Y-5179960D01*
X-8718900D01*
G01X-8408900Y-5349960D02*
Y-5449960D01*
X-8458900Y-5399960D01*
X-8408900Y-5349960D01*
G01X-5142820Y-7385680D02*
X-4422820D01*
G01X-5152820Y-7045680D02*
X-5315320D01*
Y-7085680D01*
G01X-5145320Y-6775680D02*
X-5045320D01*
X-5095320Y-6825680D01*
X-5145320Y-6775680D01*
G01X-4250320Y-7085680D02*
Y-7045680D01*
X-4412820D01*
G54D21*
G01X-8376380Y717070D02*
Y580060D01*
X-8554380D01*
G01D02*
Y717070D01*
G01Y767050D02*
Y904060D01*
X-8376380D01*
Y767050D01*
G01X-7476340Y354730D02*
Y217720D01*
X-7654340D01*
Y354730D01*
G01Y404710D02*
Y541720D01*
X-7476340D01*
G01D02*
Y404710D01*
G01X-6883500Y-5143910D02*
Y-5006900D01*
X-6705500D01*
G01Y-5193890D02*
Y-5330900D01*
X-6883500D01*
Y-5193890D01*
G01X-7009990Y-4991200D02*
X-7147000D01*
Y-4813200D01*
G01X-6960010D02*
X-6823000D01*
Y-4991200D01*
X-6960010D01*
G01X-7147000Y-4813200D02*
X-7009990D01*
G01X-6960010Y-4635400D02*
X-6823000D01*
Y-4813400D01*
G01X-7009990D02*
X-7147000D01*
Y-4635400D01*
X-7009990D01*
G01X-6823000Y-4813400D02*
X-6960010D01*
G01X-7022690Y-4013100D02*
X-7119700D01*
G03X-7159700Y-4053100I0J-40000D01*
G01Y-4151100D01*
G03X-7119700Y-4191100I40000J0D01*
G01X-7022690D01*
G01X-6972710Y-4013100D02*
X-6875700D01*
G02X-6835700Y-4053100I0J-40000D01*
G01Y-4151100D01*
G02X-6875700Y-4191100I-40000J0D01*
G01X-6972710D01*
G01Y-4000600D02*
X-6875700D01*
G03X-6835700Y-3960600I0J40000D01*
G01Y-3862600D01*
G03X-6875700Y-3822600I-40000J0D01*
G01X-6972710D01*
G01X-7022690Y-4000600D02*
X-7119700D01*
G02X-7159700Y-3960600I0J40000D01*
G01Y-3862600D01*
G02X-7119700Y-3822600I40000J0D01*
G01X-7022690D01*
G01X-6705500Y-5006900D02*
Y-5143910D01*
G01X-5600290Y-5740300D02*
X-5697300D01*
G03X-5737300Y-5780300I0J-40000D01*
G01Y-5878300D01*
G03X-5697300Y-5918300I40000J0D01*
G01X-5600290D01*
G01X-5550310Y-5740300D02*
X-5453300D01*
G02X-5413300Y-5780300I0J-40000D01*
G01Y-5878300D01*
G02X-5453300Y-5918300I-40000J0D01*
G01X-5550310D01*
G01X-5439000Y-664990D02*
Y-762000D01*
G03X-5399000Y-802000I40000J0D01*
G01X-5301000D01*
G03X-5261000Y-762000I0J40000D01*
G01Y-664990D01*
G01X-5439000Y-615010D02*
Y-518000D01*
G02X-5399000Y-478000I40000J0D01*
G01X-5301000D01*
G02X-5261000Y-518000I0J-40000D01*
G01Y-615010D01*
G01X-4854040Y-195170D02*
Y-292180D01*
G03X-4814040Y-332180I40000J0D01*
G01X-4716040D01*
G03X-4676040Y-292180I1J39999D01*
G01Y-195170D01*
G01X-4854040Y-145190D02*
Y-48180D01*
G02X-4814040Y-8180I40000J0D01*
G01X-4716040D01*
G02X-4676040Y-48180I1J-39999D01*
G01Y-145190D01*
G01X-3921660Y764950D02*
Y627940D01*
X-4099660D01*
G01D02*
Y764950D01*
G01X-4148150D02*
Y739930D01*
G01Y839950D02*
Y864950D01*
G01X-4173170Y839950D02*
X-4123160D01*
G01X-4148150Y827430D02*
X-4123160Y764950D01*
X-4173170D01*
X-4148150Y827430D01*
G01X-4099660Y814930D02*
Y951940D01*
X-3921660D01*
Y814930D01*
G01X-3721510Y-5168800D02*
X-3584500D01*
Y-5346800D01*
G01X-3771490D02*
X-3908500D01*
Y-5168800D01*
X-3771490D01*
G01X-3584500Y-5346800D02*
X-3721510D01*
G01X-3598110Y-1931000D02*
X-3623100Y-1956000D01*
X-3648090Y-1931000D01*
X-3673090Y-1956000D01*
X-3698110Y-1931000D01*
X-3723100Y-1956000D01*
G01X-3570600Y-1968490D02*
Y-2105500D01*
X-3748600D01*
Y-1968490D01*
G01X-3816710Y-1480780D02*
X-3841700Y-1505780D01*
X-3866690Y-1480780D01*
X-3891690Y-1505780D01*
X-3916710Y-1480780D01*
X-3941700Y-1505780D01*
G01X-3789200Y-1518270D02*
Y-1655280D01*
X-3967200D01*
Y-1518270D01*
G01X-3748600Y-1918510D02*
Y-1781500D01*
X-3570600D01*
G01X-3967200Y-1468290D02*
Y-1331280D01*
X-3789200D01*
G01D02*
Y-1468290D01*
G01X-3570600Y-1781500D02*
Y-1918510D01*
G01X-3043910Y-1931000D02*
X-3068900Y-1956000D01*
X-3093890Y-1931000D01*
X-3118890Y-1956000D01*
X-3143910Y-1931000D01*
X-3168900Y-1956000D01*
G01X-3016400Y-1968490D02*
Y-2105500D01*
X-3194400D01*
Y-1968490D01*
G01Y-1918510D02*
Y-1781500D01*
X-3016400D01*
G01D02*
Y-1918510D01*
G01X-2820710Y-1506180D02*
X-2845700Y-1531180D01*
X-2870690Y-1506180D01*
X-2895690Y-1531180D01*
X-2920710Y-1506180D01*
X-2945700Y-1531180D01*
G01X-2971200Y-1493690D02*
Y-1356680D01*
X-2793200D01*
G01Y-1543670D02*
Y-1680680D01*
X-2971200D01*
Y-1543670D01*
G01X-2793200Y-1356680D02*
Y-1493690D01*
G01X-2552290Y-5880200D02*
X-2689300D01*
Y-5702200D01*
G01X-2502310D02*
X-2365300D01*
Y-5880200D01*
X-2502310D01*
G01X-2689300Y-5702200D02*
X-2552290D01*
G01X-1790290Y-5880200D02*
X-1927300D01*
Y-5702200D01*
X-1790290D01*
G01X-1740310D02*
X-1603300D01*
Y-5880200D01*
G01D02*
X-1740310D01*
G54D12*
G01X-8298240Y-5345480D02*
Y-5325480D01*
G01X-8308240Y-5335480D02*
X-8288240D01*
G01X-8323240Y-5370480D02*
X-8293240Y-5400480D01*
X-7993240D01*
X-7963230Y-5370470D01*
G01X-8323250Y-5050490D02*
Y-4850490D01*
X-7963230D01*
Y-5050490D01*
G01Y-5170470D02*
Y-5370470D01*
X-8323250D01*
Y-5170470D01*
G01X-7728760Y-7037370D02*
Y-7237370D01*
X-7988760D01*
Y-7037370D01*
G01Y-6917390D02*
Y-6717390D01*
X-7728760D01*
Y-6917390D01*
G01X-7998240Y-5335480D02*
X-7978240D01*
G01X-7988240Y-5345480D02*
Y-5325480D01*
G01X-7435340Y-140270D02*
Y-340270D01*
X-7695340D01*
Y-140270D01*
G01Y-20290D02*
Y179710D01*
X-7435340D01*
Y-20290D01*
G01X-6632000Y-5302300D02*
Y-5282300D01*
G01X-6642000Y-5292300D02*
X-6622000D01*
G01X-6332000D02*
X-6312000D01*
G01X-6322000Y-5302300D02*
Y-5282300D01*
G01X-6657000Y-5327300D02*
X-6627000Y-5357300D01*
X-6327000D01*
X-6296990Y-5327290D01*
G01X-6657010Y-5007310D02*
Y-4807310D01*
X-6296990D01*
Y-5007310D01*
G01Y-5127290D02*
Y-5327290D01*
X-6657010D01*
Y-5127290D01*
G01X-5968030Y-6942280D02*
X-6168030D01*
Y-6682280D01*
X-5968030D01*
G01X-6079990Y-2560010D02*
X-6279990D01*
Y-2199990D01*
X-6079990D01*
G01X-5960010D02*
X-5760010D01*
Y-2560010D01*
X-5960010D01*
G01X-5848050Y-6682280D02*
X-5648050D01*
Y-6942280D01*
X-5848050D01*
G01X-5785000Y-2535000D02*
X-5805000D01*
G01X-5795000Y-2545000D02*
Y-2525000D01*
G01X-5760000Y-2560000D02*
X-5730000Y-2530000D01*
Y-2230000D01*
X-5760010Y-2199990D01*
G01X-5795000Y-2235000D02*
Y-2215000D01*
G01X-5785000Y-2225000D02*
X-5805000D01*
G01X-5085000Y-2525000D02*
Y-2545000D01*
G01X-5095000Y-2535000D02*
X-5075000D01*
G01X-5120000Y-2200000D02*
X-5150000Y-2230000D01*
Y-2530000D01*
X-5119990Y-2560010D01*
G01X-4919990D02*
X-5119990D01*
Y-2199990D01*
X-4919990D01*
G01X-5095000Y-2225000D02*
X-5075000D01*
G01X-5085000Y-2215000D02*
Y-2235000D01*
G01X-4416090Y-5349700D02*
X-4616090D01*
Y-5089700D01*
X-4416090D01*
G01X-4800010Y-2199990D02*
X-4600010D01*
Y-2560010D01*
X-4800010D01*
G01X-4332780Y-298750D02*
Y-498750D01*
X-4592780D01*
Y-298750D01*
G01Y-178770D02*
Y21230D01*
X-4332780D01*
Y-178770D01*
G01X-4296110Y-5089700D02*
X-4096110D01*
Y-5349700D01*
X-4296110D01*
G01X-2995000Y-3725000D02*
Y-3705000D01*
G01X-3005000Y-3715000D02*
X-2985000D01*
G01X-3020000Y-3750000D02*
X-2990000Y-3780000D01*
X-2690000D01*
X-2659990Y-3749990D01*
G01Y-3549990D02*
Y-3749990D01*
X-3020010D01*
Y-3549990D01*
G01Y-3430010D02*
Y-3230010D01*
X-2659990D01*
Y-3430010D01*
G01Y-2739990D02*
Y-2939990D01*
X-3020010D01*
Y-2739990D01*
G01X-2985000Y-2455000D02*
X-3005000D01*
G01X-2995000Y-2445000D02*
Y-2465000D01*
G01X-2660000Y-2420000D02*
X-2690000Y-2390000D01*
X-2990000D01*
X-3020010Y-2420010D01*
G01Y-2620010D02*
Y-2420010D01*
X-2659990D01*
Y-2620010D01*
G01X-2695000Y-3715000D02*
X-2675000D01*
G01X-2685000Y-3725000D02*
Y-3705000D01*
G01X-2439990Y-3530010D02*
X-2639990D01*
Y-3169990D01*
X-2439990D01*
G01Y-3140010D02*
X-2639990D01*
Y-2779990D01*
X-2439990D01*
G01X-2685000Y-2445000D02*
Y-2465000D01*
G01X-2675000Y-2455000D02*
X-2695000D01*
G01X-2145000Y-3505000D02*
X-2165000D01*
G01X-2155000Y-3515000D02*
Y-3495000D01*
G01X-2120000Y-3530000D02*
X-2090000Y-3500000D01*
Y-3200000D01*
X-2120010Y-3169990D01*
G01X-2320010D02*
X-2120010D01*
Y-3530010D01*
X-2320010D01*
G01X-2145000Y-3115000D02*
X-2165000D01*
G01X-2155000Y-3125000D02*
Y-3105000D01*
G01Y-2815000D02*
Y-2795000D01*
G01X-2145000Y-2805000D02*
X-2165000D01*
G01X-2120000Y-3140000D02*
X-2090000Y-3110000D01*
Y-2810000D01*
X-2120010Y-2779990D01*
G01X-2320010D02*
X-2120010D01*
Y-3140010D01*
X-2320010D01*
G01X-2155000Y-3205000D02*
Y-3185000D01*
G01X-2145000Y-3195000D02*
X-2165000D01*
G01X-1120000Y-3330000D02*
X-1100000D01*
G01X-1110000Y-3320000D02*
Y-3340000D01*
G01Y-3630000D02*
Y-3650000D01*
G01X-1120000Y-3640000D02*
X-1100000D01*
G01X-1145000Y-3305000D02*
X-1175000Y-3335000D01*
Y-3635000D01*
X-1144990Y-3665010D01*
G01X-944990D02*
X-1144990D01*
Y-3304990D01*
X-944990D01*
G01X-1120000Y-2835000D02*
X-1100000D01*
G01X-1110000Y-2825000D02*
Y-2845000D01*
G01Y-3135000D02*
Y-3155000D01*
G01X-1120000Y-3145000D02*
X-1100000D01*
G01X-1145000Y-2810000D02*
X-1175000Y-2840000D01*
Y-3140000D01*
X-1144990Y-3170010D01*
G01X-944990D02*
X-1144990D01*
Y-2809990D01*
X-944990D01*
G01Y-2790000D02*
X-1144990D01*
Y-2530000D01*
X-944990D01*
G01X-639990Y-5689990D02*
Y-5889990D01*
X-1000010D01*
Y-5689990D01*
G01Y-5570010D02*
Y-5370010D01*
X-639990D01*
Y-5570010D01*
G01X-269990Y-5179990D02*
Y-5379990D01*
X-630010D01*
Y-5179990D01*
G01Y-5060010D02*
Y-4860010D01*
X-269990D01*
Y-5060010D01*
G01X-665000Y-5395000D02*
Y-5415000D01*
G01X-655000Y-5405000D02*
X-675000D01*
G01X-965000D02*
X-985000D01*
G01X-975000Y-5395000D02*
Y-5415000D01*
G01X-640000Y-5370000D02*
X-670000Y-5340000D01*
X-970000D01*
X-1000010Y-5370010D01*
G01X-595000Y-4895000D02*
X-615000D01*
G01X-605000Y-4885000D02*
Y-4905000D01*
G01X-270000Y-4860000D02*
X-300000Y-4830000D01*
X-600000D01*
X-630010Y-4860010D01*
G01X-825010Y-3304990D02*
X-625010D01*
Y-3665010D01*
X-825010D01*
G01Y-2809990D02*
X-625010D01*
Y-3170010D01*
X-825010D01*
G01Y-2530000D02*
X-625010D01*
Y-2790000D01*
X-825010D01*
G01X-295000Y-4885000D02*
Y-4905000D01*
G01X-285000Y-4895000D02*
X-305000D01*
G54D22*
G01X-2410460Y43180D02*
Y-1557020D01*
X-810260D01*
Y43180D01*
X-2410460D01*
G01X-726790Y-2275020D02*
Y-2184000D01*
X-733220Y-2164950D01*
X-746090Y-2152250D01*
X-762180Y-2148020D01*
X-778270Y-2152250D01*
X-791140Y-2164950D01*
X-797570Y-2184000D01*
Y-2275020D01*
G01X-856330Y-2167070D02*
X-865980Y-2156480D01*
X-877240Y-2150140D01*
X-891720Y-2148020D01*
X-906200Y-2152250D01*
X-917460Y-2160720D01*
X-925500Y-2175530D01*
X-927110Y-2192470D01*
X-923890Y-2209400D01*
X-915850Y-2219990D01*
X-904590Y-2228450D01*
X-893330Y-2230570D01*
X-882070Y-2228450D01*
X-867590Y-2219990D01*
X-872420Y-2275020D01*
X-915850D01*
G01X-990690Y-2200930D02*
X-1001960Y-2215750D01*
X-1011610Y-2224220D01*
X-1024480Y-2228450D01*
X-1035740Y-2224220D01*
X-1043780Y-2215750D01*
X-1050220Y-2203050D01*
X-1051830Y-2188240D01*
X-1050220Y-2175530D01*
X-1043780Y-2162830D01*
X-1034130Y-2152250D01*
X-1022870Y-2148020D01*
X-1010000Y-2152250D01*
X-998740Y-2164950D01*
X-992300Y-2184000D01*
X-990690Y-2205170D01*
X-993910Y-2232680D01*
X-998740Y-2247510D01*
X-1006780Y-2262320D01*
X-1018040Y-2272900D01*
X-1029300Y-2275020D01*
X-1040560Y-2270790D01*
X-1048610Y-2260200D01*
G01X-584200Y129370D02*
X-675220D01*
X-694270Y122940D01*
X-706970Y110070D01*
X-711200Y93980D01*
X-706970Y77890D01*
X-694270Y65020D01*
X-675220Y58590D01*
X-584200D01*
G01X-658290Y-4990D02*
X-643470Y-16260D01*
X-635000Y-25910D01*
X-630770Y-38780D01*
X-635000Y-50040D01*
X-643470Y-58080D01*
X-656170Y-64520D01*
X-670980Y-66130D01*
X-683690Y-64520D01*
X-696390Y-58080D01*
X-706970Y-48430D01*
X-711200Y-37170D01*
X-706970Y-24300D01*
X-694270Y-13040D01*
X-675220Y-6600D01*
X-654050Y-4990D01*
X-626540Y-8210D01*
X-611710Y-13040D01*
X-596900Y-21080D01*
X-586320Y-32340D01*
X-584200Y-43600D01*
X-588430Y-54860D01*
X-599020Y-62910D01*
G01X-711200Y-165100D02*
X-584200D01*
X-609600Y-145800D01*
G01X-711200D02*
Y-184400D01*
G54D13*
G01X-946960Y284480D02*
Y208280D01*
X-978710D01*
X-988870Y212090D01*
X-995220Y217170D01*
X-997760Y227330D01*
X-995220Y237490D01*
X-987600Y243840D01*
X-978710Y247650D01*
X-946960D01*
G01X-978710D02*
X-997760Y284480D01*
G01X-1024430Y220980D02*
X-1032050Y213360D01*
X-1040940Y209550D01*
X-1051100Y208280D01*
X-1063800Y210820D01*
X-1072690Y217170D01*
X-1075230Y224790D01*
X-1073960Y232410D01*
X-1068880Y238760D01*
X-1043480Y251460D01*
X-1032050Y260350D01*
X-1024430Y273050D01*
X-1021890Y284480D01*
X-1075230D01*
G01X-1140000D02*
Y208280D01*
X-1093010Y262890D01*
X-1156510D01*
G01X-1200960Y284480D02*
Y208280D01*
X-1185720Y223520D01*
G01Y284480D02*
X-1216200D01*
G01X-1051100Y454660D02*
Y378460D01*
X-1082850D01*
X-1093010Y382270D01*
X-1099360Y387350D01*
X-1101900Y397510D01*
X-1099360Y407670D01*
X-1091740Y414020D01*
X-1082850Y417830D01*
X-1051100D01*
G01X-1082850D02*
X-1101900Y454660D01*
G01X-1128570Y391160D02*
X-1136190Y383540D01*
X-1145080Y379730D01*
X-1155240Y378460D01*
X-1167940Y381000D01*
X-1176830Y387350D01*
X-1179370Y394970D01*
X-1178100Y402590D01*
X-1173020Y408940D01*
X-1147620Y421640D01*
X-1136190Y430530D01*
X-1128570Y443230D01*
X-1126030Y454660D01*
X-1179370D01*
G01X-1244140D02*
Y378460D01*
X-1197150Y433070D01*
X-1260650D01*
G01X-1280970Y391160D02*
X-1288590Y383540D01*
X-1297480Y379730D01*
X-1307640Y378460D01*
X-1320340Y381000D01*
X-1329230Y387350D01*
X-1331770Y394970D01*
X-1330500Y402590D01*
X-1325420Y408940D01*
X-1300020Y421640D01*
X-1288590Y430530D01*
X-1280970Y443230D01*
X-1278430Y454660D01*
X-1331770D01*
G54D23*
G01X-1319800Y733320D02*
X-1325210Y738610D01*
X-1331310Y741780D01*
X-1336730D01*
X-1342150Y738610D01*
X-1346210Y733320D01*
X-1348240Y725900D01*
X-1346890Y718500D01*
X-1343500Y712150D01*
X-1337410Y707910D01*
X-1329280Y705800D01*
X-1324540Y701560D01*
X-1322500Y694160D01*
X-1323860Y686750D01*
X-1327250Y681460D01*
X-1331990Y678280D01*
X-1336730D01*
X-1341470Y680400D01*
X-1345540Y685690D01*
G01X-1369580Y678280D02*
X-1379060Y741780D01*
X-1389900Y678280D01*
X-1400740Y741780D01*
X-1410220Y678280D01*
G01X-1430880Y729080D02*
X-1434940Y736490D01*
X-1440360Y740720D01*
X-1446460Y741780D01*
X-1451880Y740720D01*
X-1457300Y735430D01*
X-1460680Y729080D01*
X-1461360Y722730D01*
X-1460000Y715320D01*
X-1455260Y710030D01*
X-1450520Y707910D01*
X-1444430D01*
G01X-1450520D02*
X-1454590Y704740D01*
X-1457970Y699450D01*
X-1459330Y693100D01*
X-1457970Y686750D01*
X-1454590Y681460D01*
X-1448490Y678280D01*
X-1442390Y679340D01*
X-1436300Y683570D01*
G01X-107420Y29480D02*
X-102130Y34890D01*
X-98960Y40990D01*
Y46410D01*
X-102130Y51830D01*
X-107420Y55890D01*
X-114840Y57920D01*
X-122240Y56570D01*
X-128590Y53180D01*
X-132830Y47090D01*
X-134940Y38960D01*
X-139180Y34220D01*
X-146580Y32180D01*
X-153990Y33540D01*
X-159280Y36930D01*
X-162460Y41670D01*
Y46410D01*
X-160340Y51150D01*
X-155050Y55220D01*
G01X-162460Y79260D02*
X-98960Y88740D01*
X-162460Y99580D01*
X-98960Y110420D01*
X-162460Y119900D01*
G01X-98960Y163590D02*
X-162460D01*
X-116950Y138530D01*
Y172390D01*
G54D14*
G01X-7842120Y-5599000D02*
Y-5639000D01*
G01X-7602120Y-5749000D02*
X-7722120D01*
G01Y-5489000D02*
X-7602120D01*
Y-5539000D01*
G01X-7842120Y-5088460D02*
Y-5128460D01*
G01X-7602120Y-5238460D02*
X-7722120D01*
G01Y-4978460D02*
X-7602120D01*
Y-5028460D01*
G01Y-5699000D02*
Y-5749000D01*
G01Y-5188460D02*
Y-5238460D01*
G01X-5940600Y-5498700D02*
Y-5458700D01*
G01X-6060600Y-5608700D02*
X-6180600D01*
Y-5558700D01*
G01Y-5348700D02*
X-6060600D01*
G01X-6180600Y-5398700D02*
Y-5348700D01*
G01X-5641800Y-5524900D02*
Y-5564900D01*
G01X-5401800Y-5674900D02*
X-5521800D01*
G01Y-5414900D02*
X-5401800D01*
Y-5464900D01*
G01X-5419900Y-5244700D02*
Y-5204700D01*
G01X-5659900Y-5094700D02*
X-5539900D01*
G01X-5659900Y-5144700D02*
Y-5094700D01*
G01X-5539900Y-5354700D02*
X-5659900D01*
Y-5304700D01*
G01X-5349700Y-5880500D02*
Y-5920500D01*
G01X-5109700Y-6030500D02*
X-5229700D01*
G01X-5109700Y-5980500D02*
Y-6030500D01*
G01X-5133800Y-5555300D02*
Y-5595300D01*
G01X-4893800Y-5705300D02*
X-5013800D01*
G01Y-5445300D02*
X-4893800D01*
Y-5495300D01*
G01X-5401800Y-5624900D02*
Y-5674900D01*
G01X-5229700Y-5770500D02*
X-5109700D01*
Y-5820500D01*
G01X-5133800Y-5212400D02*
Y-5252400D01*
G01X-4893800Y-5362400D02*
X-5013800D01*
G01Y-5102400D02*
X-4893800D01*
Y-5152400D01*
G01Y-5655300D02*
Y-5705300D01*
G01Y-5312400D02*
Y-5362400D01*
G01X-1013920Y-2048020D02*
Y-1928020D01*
G01X-963920Y-2048020D02*
X-1013920D01*
G01X-753920Y-1928020D02*
Y-2048020D01*
X-803920D01*
G01X-863920Y-1808020D02*
X-903920D01*
G54D15*
G01X-9000200Y-6096420D02*
X-8993850Y-6104040D01*
X-8986230Y-6109120D01*
X-8977340Y-6111660D01*
X-8967180Y-6109120D01*
X-8959560Y-6104040D01*
X-8951940Y-6096420D01*
X-8949400Y-6086260D01*
Y-6035460D01*
G01X-8922730Y-6048160D02*
X-8915110Y-6040540D01*
X-8906220Y-6036730D01*
X-8896060Y-6035460D01*
X-8883360Y-6038000D01*
X-8874470Y-6044350D01*
X-8871930Y-6051970D01*
X-8873200Y-6059590D01*
X-8878280Y-6065940D01*
X-8903680Y-6078640D01*
X-8915110Y-6087530D01*
X-8922730Y-6100230D01*
X-8925270Y-6111660D01*
X-8871930D01*
G01X-8846530Y-6048160D02*
X-8838910Y-6040540D01*
X-8830020Y-6036730D01*
X-8819860Y-6035460D01*
X-8807160Y-6038000D01*
X-8798270Y-6044350D01*
X-8795730Y-6051970D01*
X-8797000Y-6059590D01*
X-8802080Y-6065940D01*
X-8827480Y-6078640D01*
X-8838910Y-6087530D01*
X-8846530Y-6100230D01*
X-8849070Y-6111660D01*
X-8795730D01*
G01X-9131300Y-3009900D02*
Y-2933700D01*
X-9099550D01*
X-9089390Y-2937510D01*
X-9083040Y-2942590D01*
X-9080500Y-2952750D01*
X-9083040Y-2962910D01*
X-9090660Y-2969260D01*
X-9099550Y-2973070D01*
X-9131300D01*
G01X-9099550D02*
X-9080500Y-3009900D01*
G01X-9029700D02*
Y-2933700D01*
X-9044940Y-2948940D01*
G01Y-3009900D02*
X-9014460D01*
G01X-8956040D02*
X-8953500Y-2993390D01*
X-8949690Y-2979420D01*
X-8944610Y-2966720D01*
X-8938260Y-2952750D01*
X-8928100Y-2933700D01*
X-8978900D01*
G01X-8862060Y-3009900D02*
Y-2933700D01*
X-8909050Y-2988310D01*
X-8845550D01*
G01X-9131300Y-2921000D02*
Y-2844800D01*
X-9099550D01*
X-9089390Y-2848610D01*
X-9083040Y-2853690D01*
X-9080500Y-2863850D01*
X-9083040Y-2874010D01*
X-9090660Y-2880360D01*
X-9099550Y-2884170D01*
X-9131300D01*
G01X-9099550D02*
X-9080500Y-2921000D01*
G01X-9029700D02*
Y-2844800D01*
X-9044940Y-2860040D01*
G01Y-2921000D02*
X-9014460D01*
G01X-8956040D02*
X-8953500Y-2904490D01*
X-8949690Y-2890520D01*
X-8944610Y-2877820D01*
X-8938260Y-2863850D01*
X-8928100Y-2844800D01*
X-8978900D01*
G01X-8905240Y-2909570D02*
X-8897620Y-2915920D01*
X-8888730Y-2919730D01*
X-8877300Y-2921000D01*
X-8865870Y-2918460D01*
X-8856980Y-2913380D01*
X-8850630Y-2904490D01*
X-8849360Y-2894330D01*
X-8851900Y-2884170D01*
X-8858250Y-2877820D01*
X-8867140Y-2872740D01*
X-8876030Y-2871470D01*
X-8884920Y-2872740D01*
X-8896350Y-2877820D01*
X-8892540Y-2844800D01*
X-8858250D01*
G01X-9131300Y-2832100D02*
Y-2755900D01*
X-9099550D01*
X-9089390Y-2759710D01*
X-9083040Y-2764790D01*
X-9080500Y-2774950D01*
X-9083040Y-2785110D01*
X-9090660Y-2791460D01*
X-9099550Y-2795270D01*
X-9131300D01*
G01X-9099550D02*
X-9080500Y-2832100D01*
G01X-9029700D02*
Y-2755900D01*
X-9044940Y-2771140D01*
G01Y-2832100D02*
X-9014460D01*
G01X-8953500D02*
X-8944610Y-2830830D01*
X-8934450Y-2827020D01*
X-8928100Y-2820670D01*
X-8925560Y-2811780D01*
X-8928100Y-2802890D01*
X-8935720Y-2795270D01*
X-8947150Y-2791460D01*
X-8959850D01*
X-8967470Y-2788920D01*
X-8973820Y-2782570D01*
X-8976360Y-2773680D01*
X-8972550Y-2764790D01*
X-8963660Y-2758440D01*
X-8953500Y-2755900D01*
X-8943340Y-2758440D01*
X-8934450Y-2764790D01*
X-8930640Y-2773680D01*
X-8933180Y-2782570D01*
X-8939530Y-2788920D01*
X-8947150Y-2791460D01*
X-8959850D01*
X-8971280Y-2795270D01*
X-8978900Y-2802890D01*
X-8981440Y-2811780D01*
X-8978900Y-2820670D01*
X-8972550Y-2827020D01*
X-8962390Y-2830830D01*
X-8953500Y-2832100D01*
G01X-8862060D02*
Y-2755900D01*
X-8909050Y-2810510D01*
X-8845550D01*
G01X-9131300Y-2387600D02*
Y-2311400D01*
X-9099550D01*
X-9089390Y-2315210D01*
X-9083040Y-2320290D01*
X-9080500Y-2330450D01*
X-9083040Y-2340610D01*
X-9090660Y-2346960D01*
X-9099550Y-2350770D01*
X-9131300D01*
G01X-9099550D02*
X-9080500Y-2387600D01*
G01X-9029700D02*
Y-2311400D01*
X-9044940Y-2326640D01*
G01Y-2387600D02*
X-9014460D01*
G01X-8977630Y-2355850D02*
X-8968740Y-2346960D01*
X-8961120Y-2341880D01*
X-8950960Y-2339340D01*
X-8942070Y-2341880D01*
X-8935720Y-2346960D01*
X-8930640Y-2354580D01*
X-8929370Y-2363470D01*
X-8930640Y-2371090D01*
X-8935720Y-2378710D01*
X-8943340Y-2385060D01*
X-8952230Y-2387600D01*
X-8962390Y-2385060D01*
X-8971280Y-2377440D01*
X-8976360Y-2366010D01*
X-8977630Y-2353310D01*
X-8975090Y-2336800D01*
X-8971280Y-2327910D01*
X-8964930Y-2319020D01*
X-8956040Y-2312670D01*
X-8947150Y-2311400D01*
X-8938260Y-2313940D01*
X-8931910Y-2320290D01*
G01X-8862060Y-2387600D02*
Y-2311400D01*
X-8909050Y-2366010D01*
X-8845550D01*
G01X-9131300Y-2565400D02*
Y-2489200D01*
X-9099550D01*
X-9089390Y-2493010D01*
X-9083040Y-2498090D01*
X-9080500Y-2508250D01*
X-9083040Y-2518410D01*
X-9090660Y-2524760D01*
X-9099550Y-2528570D01*
X-9131300D01*
G01X-9099550D02*
X-9080500Y-2565400D01*
G01X-9029700D02*
Y-2489200D01*
X-9044940Y-2504440D01*
G01Y-2565400D02*
X-9014460D01*
G01X-8977630Y-2533650D02*
X-8968740Y-2524760D01*
X-8961120Y-2519680D01*
X-8950960Y-2517140D01*
X-8942070Y-2519680D01*
X-8935720Y-2524760D01*
X-8930640Y-2532380D01*
X-8929370Y-2541270D01*
X-8930640Y-2548890D01*
X-8935720Y-2556510D01*
X-8943340Y-2562860D01*
X-8952230Y-2565400D01*
X-8962390Y-2562860D01*
X-8971280Y-2555240D01*
X-8976360Y-2543810D01*
X-8977630Y-2531110D01*
X-8975090Y-2514600D01*
X-8971280Y-2505710D01*
X-8964930Y-2496820D01*
X-8956040Y-2490470D01*
X-8947150Y-2489200D01*
X-8938260Y-2491740D01*
X-8931910Y-2498090D01*
G01X-8877300Y-2565400D02*
X-8868410Y-2564130D01*
X-8858250Y-2560320D01*
X-8851900Y-2553970D01*
X-8849360Y-2545080D01*
X-8851900Y-2536190D01*
X-8859520Y-2528570D01*
X-8870950Y-2524760D01*
X-8883650D01*
X-8891270Y-2522220D01*
X-8897620Y-2515870D01*
X-8900160Y-2506980D01*
X-8896350Y-2498090D01*
X-8887460Y-2491740D01*
X-8877300Y-2489200D01*
X-8867140Y-2491740D01*
X-8858250Y-2498090D01*
X-8854440Y-2506980D01*
X-8856980Y-2515870D01*
X-8863330Y-2522220D01*
X-8870950Y-2524760D01*
X-8883650D01*
X-8895080Y-2528570D01*
X-8902700Y-2536190D01*
X-8905240Y-2545080D01*
X-8902700Y-2553970D01*
X-8896350Y-2560320D01*
X-8886190Y-2564130D01*
X-8877300Y-2565400D01*
G01X-9131300Y-2476500D02*
Y-2400300D01*
X-9099550D01*
X-9089390Y-2404110D01*
X-9083040Y-2409190D01*
X-9080500Y-2419350D01*
X-9083040Y-2429510D01*
X-9090660Y-2435860D01*
X-9099550Y-2439670D01*
X-9131300D01*
G01X-9099550D02*
X-9080500Y-2476500D01*
G01X-9029700D02*
Y-2400300D01*
X-9044940Y-2415540D01*
G01Y-2476500D02*
X-9014460D01*
G01X-8977630Y-2444750D02*
X-8968740Y-2435860D01*
X-8961120Y-2430780D01*
X-8950960Y-2428240D01*
X-8942070Y-2430780D01*
X-8935720Y-2435860D01*
X-8930640Y-2443480D01*
X-8929370Y-2452370D01*
X-8930640Y-2459990D01*
X-8935720Y-2467610D01*
X-8943340Y-2473960D01*
X-8952230Y-2476500D01*
X-8962390Y-2473960D01*
X-8971280Y-2466340D01*
X-8976360Y-2454910D01*
X-8977630Y-2442210D01*
X-8975090Y-2425700D01*
X-8971280Y-2416810D01*
X-8964930Y-2407920D01*
X-8956040Y-2401570D01*
X-8947150Y-2400300D01*
X-8938260Y-2402840D01*
X-8931910Y-2409190D01*
G01X-8898890Y-2467610D02*
X-8890000Y-2473960D01*
X-8879840Y-2476500D01*
X-8869680Y-2473960D01*
X-8860790Y-2466340D01*
X-8854440Y-2454910D01*
X-8851900Y-2443480D01*
Y-2429510D01*
X-8854440Y-2418080D01*
X-8860790Y-2407920D01*
X-8868410Y-2402840D01*
X-8877300Y-2400300D01*
X-8887460Y-2402840D01*
X-8895080Y-2407920D01*
X-8900160Y-2415540D01*
X-8902700Y-2425700D01*
X-8900160Y-2434590D01*
X-8893810Y-2443480D01*
X-8886190Y-2448560D01*
X-8877300Y-2449830D01*
X-8867140Y-2447290D01*
X-8859520Y-2440940D01*
X-8851900Y-2429510D01*
G01X-9131300Y-2654300D02*
Y-2578100D01*
X-9099550D01*
X-9089390Y-2581910D01*
X-9083040Y-2586990D01*
X-9080500Y-2597150D01*
X-9083040Y-2607310D01*
X-9090660Y-2613660D01*
X-9099550Y-2617470D01*
X-9131300D01*
G01X-9099550D02*
X-9080500Y-2654300D01*
G01X-9029700D02*
Y-2578100D01*
X-9044940Y-2593340D01*
G01Y-2654300D02*
X-9014460D01*
G01X-8956040D02*
X-8953500Y-2637790D01*
X-8949690Y-2623820D01*
X-8944610Y-2611120D01*
X-8938260Y-2597150D01*
X-8928100Y-2578100D01*
X-8978900D01*
G01X-8898890Y-2645410D02*
X-8890000Y-2651760D01*
X-8879840Y-2654300D01*
X-8869680Y-2651760D01*
X-8860790Y-2644140D01*
X-8854440Y-2632710D01*
X-8851900Y-2621280D01*
Y-2607310D01*
X-8854440Y-2595880D01*
X-8860790Y-2585720D01*
X-8868410Y-2580640D01*
X-8877300Y-2578100D01*
X-8887460Y-2580640D01*
X-8895080Y-2585720D01*
X-8900160Y-2593340D01*
X-8902700Y-2603500D01*
X-8900160Y-2612390D01*
X-8893810Y-2621280D01*
X-8886190Y-2626360D01*
X-8877300Y-2627630D01*
X-8867140Y-2625090D01*
X-8859520Y-2618740D01*
X-8851900Y-2607310D01*
G01X-9131300Y-2743200D02*
Y-2667000D01*
X-9099550D01*
X-9089390Y-2670810D01*
X-9083040Y-2675890D01*
X-9080500Y-2686050D01*
X-9083040Y-2696210D01*
X-9090660Y-2702560D01*
X-9099550Y-2706370D01*
X-9131300D01*
G01X-9099550D02*
X-9080500Y-2743200D01*
G01X-9029700D02*
Y-2667000D01*
X-9044940Y-2682240D01*
G01Y-2743200D02*
X-9014460D01*
G01X-8953500D02*
X-8944610Y-2741930D01*
X-8934450Y-2738120D01*
X-8928100Y-2731770D01*
X-8925560Y-2722880D01*
X-8928100Y-2713990D01*
X-8935720Y-2706370D01*
X-8947150Y-2702560D01*
X-8959850D01*
X-8967470Y-2700020D01*
X-8973820Y-2693670D01*
X-8976360Y-2684780D01*
X-8972550Y-2675890D01*
X-8963660Y-2669540D01*
X-8953500Y-2667000D01*
X-8943340Y-2669540D01*
X-8934450Y-2675890D01*
X-8930640Y-2684780D01*
X-8933180Y-2693670D01*
X-8939530Y-2700020D01*
X-8947150Y-2702560D01*
X-8959850D01*
X-8971280Y-2706370D01*
X-8978900Y-2713990D01*
X-8981440Y-2722880D01*
X-8978900Y-2731770D01*
X-8972550Y-2738120D01*
X-8962390Y-2741930D01*
X-8953500Y-2743200D01*
G01X-8901430Y-2711450D02*
X-8892540Y-2702560D01*
X-8884920Y-2697480D01*
X-8874760Y-2694940D01*
X-8865870Y-2697480D01*
X-8859520Y-2702560D01*
X-8854440Y-2710180D01*
X-8853170Y-2719070D01*
X-8854440Y-2726690D01*
X-8859520Y-2734310D01*
X-8867140Y-2740660D01*
X-8876030Y-2743200D01*
X-8886190Y-2740660D01*
X-8895080Y-2733040D01*
X-8900160Y-2721610D01*
X-8901430Y-2708910D01*
X-8898890Y-2692400D01*
X-8895080Y-2683510D01*
X-8888730Y-2674620D01*
X-8879840Y-2668270D01*
X-8870950Y-2667000D01*
X-8862060Y-2669540D01*
X-8855710Y-2675890D01*
G01X-9131300Y-2298700D02*
Y-2222500D01*
X-9099550D01*
X-9089390Y-2226310D01*
X-9083040Y-2231390D01*
X-9080500Y-2241550D01*
X-9083040Y-2251710D01*
X-9090660Y-2258060D01*
X-9099550Y-2261870D01*
X-9131300D01*
G01X-9099550D02*
X-9080500Y-2298700D01*
G01X-9029700D02*
Y-2222500D01*
X-9044940Y-2237740D01*
G01Y-2298700D02*
X-9014460D01*
G01X-8977630Y-2266950D02*
X-8968740Y-2258060D01*
X-8961120Y-2252980D01*
X-8950960Y-2250440D01*
X-8942070Y-2252980D01*
X-8935720Y-2258060D01*
X-8930640Y-2265680D01*
X-8929370Y-2274570D01*
X-8930640Y-2282190D01*
X-8935720Y-2289810D01*
X-8943340Y-2296160D01*
X-8952230Y-2298700D01*
X-8962390Y-2296160D01*
X-8971280Y-2288540D01*
X-8976360Y-2277110D01*
X-8977630Y-2264410D01*
X-8975090Y-2247900D01*
X-8971280Y-2239010D01*
X-8964930Y-2230120D01*
X-8956040Y-2223770D01*
X-8947150Y-2222500D01*
X-8938260Y-2225040D01*
X-8931910Y-2231390D01*
G01X-8905240Y-2287270D02*
X-8897620Y-2293620D01*
X-8888730Y-2297430D01*
X-8877300Y-2298700D01*
X-8865870Y-2296160D01*
X-8856980Y-2291080D01*
X-8850630Y-2282190D01*
X-8849360Y-2272030D01*
X-8851900Y-2261870D01*
X-8858250Y-2255520D01*
X-8867140Y-2250440D01*
X-8876030Y-2249170D01*
X-8884920Y-2250440D01*
X-8896350Y-2255520D01*
X-8892540Y-2222500D01*
X-8858250D01*
G01X-9131300Y-2032000D02*
Y-1955800D01*
X-9099550D01*
X-9089390Y-1959610D01*
X-9083040Y-1964690D01*
X-9080500Y-1974850D01*
X-9083040Y-1985010D01*
X-9090660Y-1991360D01*
X-9099550Y-1995170D01*
X-9131300D01*
G01X-9099550D02*
X-9080500Y-2032000D01*
G01X-9029700D02*
Y-1955800D01*
X-9044940Y-1971040D01*
G01Y-2032000D02*
X-9014460D01*
G01X-8956040D02*
X-8953500Y-2015490D01*
X-8949690Y-2001520D01*
X-8944610Y-1988820D01*
X-8938260Y-1974850D01*
X-8928100Y-1955800D01*
X-8978900D01*
G01X-8877300Y-2032000D02*
Y-1955800D01*
X-8892540Y-1971040D01*
G01Y-2032000D02*
X-8862060D01*
G01X-9131300Y-1943100D02*
Y-1866900D01*
X-9099550D01*
X-9089390Y-1870710D01*
X-9083040Y-1875790D01*
X-9080500Y-1885950D01*
X-9083040Y-1896110D01*
X-9090660Y-1902460D01*
X-9099550Y-1906270D01*
X-9131300D01*
G01X-9099550D02*
X-9080500Y-1943100D01*
G01X-9029700D02*
Y-1866900D01*
X-9044940Y-1882140D01*
G01Y-1943100D02*
X-9014460D01*
G01X-8953500D02*
X-8944610Y-1941830D01*
X-8934450Y-1938020D01*
X-8928100Y-1931670D01*
X-8925560Y-1922780D01*
X-8928100Y-1913890D01*
X-8935720Y-1906270D01*
X-8947150Y-1902460D01*
X-8959850D01*
X-8967470Y-1899920D01*
X-8973820Y-1893570D01*
X-8976360Y-1884680D01*
X-8972550Y-1875790D01*
X-8963660Y-1869440D01*
X-8953500Y-1866900D01*
X-8943340Y-1869440D01*
X-8934450Y-1875790D01*
X-8930640Y-1884680D01*
X-8933180Y-1893570D01*
X-8939530Y-1899920D01*
X-8947150Y-1902460D01*
X-8959850D01*
X-8971280Y-1906270D01*
X-8978900Y-1913890D01*
X-8981440Y-1922780D01*
X-8978900Y-1931670D01*
X-8972550Y-1938020D01*
X-8962390Y-1941830D01*
X-8953500Y-1943100D01*
G01X-8901430Y-1879600D02*
X-8893810Y-1871980D01*
X-8884920Y-1868170D01*
X-8874760Y-1866900D01*
X-8862060Y-1869440D01*
X-8853170Y-1875790D01*
X-8850630Y-1883410D01*
X-8851900Y-1891030D01*
X-8856980Y-1897380D01*
X-8882380Y-1910080D01*
X-8893810Y-1918970D01*
X-8901430Y-1931670D01*
X-8903970Y-1943100D01*
X-8850630D01*
G01X-9131300Y-2209800D02*
Y-2133600D01*
X-9099550D01*
X-9089390Y-2137410D01*
X-9083040Y-2142490D01*
X-9080500Y-2152650D01*
X-9083040Y-2162810D01*
X-9090660Y-2169160D01*
X-9099550Y-2172970D01*
X-9131300D01*
G01X-9099550D02*
X-9080500Y-2209800D01*
G01X-9029700D02*
Y-2133600D01*
X-9044940Y-2148840D01*
G01Y-2209800D02*
X-9014460D01*
G01X-8953500D02*
X-8944610Y-2208530D01*
X-8934450Y-2204720D01*
X-8928100Y-2198370D01*
X-8925560Y-2189480D01*
X-8928100Y-2180590D01*
X-8935720Y-2172970D01*
X-8947150Y-2169160D01*
X-8959850D01*
X-8967470Y-2166620D01*
X-8973820Y-2160270D01*
X-8976360Y-2151380D01*
X-8972550Y-2142490D01*
X-8963660Y-2136140D01*
X-8953500Y-2133600D01*
X-8943340Y-2136140D01*
X-8934450Y-2142490D01*
X-8930640Y-2151380D01*
X-8933180Y-2160270D01*
X-8939530Y-2166620D01*
X-8947150Y-2169160D01*
X-8959850D01*
X-8971280Y-2172970D01*
X-8978900Y-2180590D01*
X-8981440Y-2189480D01*
X-8978900Y-2198370D01*
X-8972550Y-2204720D01*
X-8962390Y-2208530D01*
X-8953500Y-2209800D01*
G01X-8877300D02*
X-8868410Y-2208530D01*
X-8858250Y-2204720D01*
X-8851900Y-2198370D01*
X-8849360Y-2189480D01*
X-8851900Y-2180590D01*
X-8859520Y-2172970D01*
X-8870950Y-2169160D01*
X-8883650D01*
X-8891270Y-2166620D01*
X-8897620Y-2160270D01*
X-8900160Y-2151380D01*
X-8896350Y-2142490D01*
X-8887460Y-2136140D01*
X-8877300Y-2133600D01*
X-8867140Y-2136140D01*
X-8858250Y-2142490D01*
X-8854440Y-2151380D01*
X-8856980Y-2160270D01*
X-8863330Y-2166620D01*
X-8870950Y-2169160D01*
X-8883650D01*
X-8895080Y-2172970D01*
X-8902700Y-2180590D01*
X-8905240Y-2189480D01*
X-8902700Y-2198370D01*
X-8896350Y-2204720D01*
X-8886190Y-2208530D01*
X-8877300Y-2209800D01*
G01X-9131300Y-2120900D02*
Y-2044700D01*
X-9099550D01*
X-9089390Y-2048510D01*
X-9083040Y-2053590D01*
X-9080500Y-2063750D01*
X-9083040Y-2073910D01*
X-9090660Y-2080260D01*
X-9099550Y-2084070D01*
X-9131300D01*
G01X-9099550D02*
X-9080500Y-2120900D01*
G01X-9029700D02*
Y-2044700D01*
X-9044940Y-2059940D01*
G01Y-2120900D02*
X-9014460D01*
G01X-8975090Y-2112010D02*
X-8966200Y-2118360D01*
X-8956040Y-2120900D01*
X-8945880Y-2118360D01*
X-8936990Y-2110740D01*
X-8930640Y-2099310D01*
X-8928100Y-2087880D01*
Y-2073910D01*
X-8930640Y-2062480D01*
X-8936990Y-2052320D01*
X-8944610Y-2047240D01*
X-8953500Y-2044700D01*
X-8963660Y-2047240D01*
X-8971280Y-2052320D01*
X-8976360Y-2059940D01*
X-8978900Y-2070100D01*
X-8976360Y-2078990D01*
X-8970010Y-2087880D01*
X-8962390Y-2092960D01*
X-8953500Y-2094230D01*
X-8943340Y-2091690D01*
X-8935720Y-2085340D01*
X-8928100Y-2073910D01*
G01X-8877300Y-2120900D02*
Y-2044700D01*
X-8892540Y-2059940D01*
G01Y-2120900D02*
X-8862060D01*
G01X-9131300Y-1841500D02*
Y-1765300D01*
X-9099550D01*
X-9089390Y-1769110D01*
X-9083040Y-1774190D01*
X-9080500Y-1784350D01*
X-9083040Y-1794510D01*
X-9090660Y-1800860D01*
X-9099550Y-1804670D01*
X-9131300D01*
G01X-9099550D02*
X-9080500Y-1841500D01*
G01X-9029700D02*
Y-1765300D01*
X-9044940Y-1780540D01*
G01Y-1841500D02*
X-9014460D01*
G01X-8956040D02*
X-8953500Y-1824990D01*
X-8949690Y-1811020D01*
X-8944610Y-1798320D01*
X-8938260Y-1784350D01*
X-8928100Y-1765300D01*
X-8978900D01*
G01X-8877300Y-1841500D02*
X-8868410Y-1840230D01*
X-8858250Y-1836420D01*
X-8851900Y-1830070D01*
X-8849360Y-1821180D01*
X-8851900Y-1812290D01*
X-8859520Y-1804670D01*
X-8870950Y-1800860D01*
X-8883650D01*
X-8891270Y-1798320D01*
X-8897620Y-1791970D01*
X-8900160Y-1783080D01*
X-8896350Y-1774190D01*
X-8887460Y-1767840D01*
X-8877300Y-1765300D01*
X-8867140Y-1767840D01*
X-8858250Y-1774190D01*
X-8854440Y-1783080D01*
X-8856980Y-1791970D01*
X-8863330Y-1798320D01*
X-8870950Y-1800860D01*
X-8883650D01*
X-8895080Y-1804670D01*
X-8902700Y-1812290D01*
X-8905240Y-1821180D01*
X-8902700Y-1830070D01*
X-8896350Y-1836420D01*
X-8886190Y-1840230D01*
X-8877300Y-1841500D01*
G01X-9131300Y-1739900D02*
Y-1663700D01*
X-9099550D01*
X-9089390Y-1667510D01*
X-9083040Y-1672590D01*
X-9080500Y-1682750D01*
X-9083040Y-1692910D01*
X-9090660Y-1699260D01*
X-9099550Y-1703070D01*
X-9131300D01*
G01X-9099550D02*
X-9080500Y-1739900D01*
G01X-9029700D02*
Y-1663700D01*
X-9044940Y-1678940D01*
G01Y-1739900D02*
X-9014460D01*
G01X-8975090Y-1731010D02*
X-8966200Y-1737360D01*
X-8956040Y-1739900D01*
X-8945880Y-1737360D01*
X-8936990Y-1729740D01*
X-8930640Y-1718310D01*
X-8928100Y-1706880D01*
Y-1692910D01*
X-8930640Y-1681480D01*
X-8936990Y-1671320D01*
X-8944610Y-1666240D01*
X-8953500Y-1663700D01*
X-8963660Y-1666240D01*
X-8971280Y-1671320D01*
X-8976360Y-1678940D01*
X-8978900Y-1689100D01*
X-8976360Y-1697990D01*
X-8970010Y-1706880D01*
X-8962390Y-1711960D01*
X-8953500Y-1713230D01*
X-8943340Y-1710690D01*
X-8935720Y-1704340D01*
X-8928100Y-1692910D01*
G01X-8901430Y-1676400D02*
X-8893810Y-1668780D01*
X-8884920Y-1664970D01*
X-8874760Y-1663700D01*
X-8862060Y-1666240D01*
X-8853170Y-1672590D01*
X-8850630Y-1680210D01*
X-8851900Y-1687830D01*
X-8856980Y-1694180D01*
X-8882380Y-1706880D01*
X-8893810Y-1715770D01*
X-8901430Y-1728470D01*
X-8903970Y-1739900D01*
X-8850630D01*
G01X-9131300Y-1638300D02*
Y-1562100D01*
X-9099550D01*
X-9089390Y-1565910D01*
X-9083040Y-1570990D01*
X-9080500Y-1581150D01*
X-9083040Y-1591310D01*
X-9090660Y-1597660D01*
X-9099550Y-1601470D01*
X-9131300D01*
G01X-9099550D02*
X-9080500Y-1638300D01*
G01X-9029700D02*
Y-1562100D01*
X-9044940Y-1577340D01*
G01Y-1638300D02*
X-9014460D01*
G01X-8975090Y-1629410D02*
X-8966200Y-1635760D01*
X-8956040Y-1638300D01*
X-8945880Y-1635760D01*
X-8936990Y-1628140D01*
X-8930640Y-1616710D01*
X-8928100Y-1605280D01*
Y-1591310D01*
X-8930640Y-1579880D01*
X-8936990Y-1569720D01*
X-8944610Y-1564640D01*
X-8953500Y-1562100D01*
X-8963660Y-1564640D01*
X-8971280Y-1569720D01*
X-8976360Y-1577340D01*
X-8978900Y-1587500D01*
X-8976360Y-1596390D01*
X-8970010Y-1605280D01*
X-8962390Y-1610360D01*
X-8953500Y-1611630D01*
X-8943340Y-1609090D01*
X-8935720Y-1602740D01*
X-8928100Y-1591310D01*
G01X-8862060Y-1638300D02*
Y-1562100D01*
X-8909050Y-1616710D01*
X-8845550D01*
G01X-9131300Y-1536700D02*
Y-1460500D01*
X-9099550D01*
X-9089390Y-1464310D01*
X-9083040Y-1469390D01*
X-9080500Y-1479550D01*
X-9083040Y-1489710D01*
X-9090660Y-1496060D01*
X-9099550Y-1499870D01*
X-9131300D01*
G01X-9099550D02*
X-9080500Y-1536700D01*
G01X-9029700D02*
Y-1460500D01*
X-9044940Y-1475740D01*
G01Y-1536700D02*
X-9014460D01*
G01X-8975090Y-1527810D02*
X-8966200Y-1534160D01*
X-8956040Y-1536700D01*
X-8945880Y-1534160D01*
X-8936990Y-1526540D01*
X-8930640Y-1515110D01*
X-8928100Y-1503680D01*
Y-1489710D01*
X-8930640Y-1478280D01*
X-8936990Y-1468120D01*
X-8944610Y-1463040D01*
X-8953500Y-1460500D01*
X-8963660Y-1463040D01*
X-8971280Y-1468120D01*
X-8976360Y-1475740D01*
X-8978900Y-1485900D01*
X-8976360Y-1494790D01*
X-8970010Y-1503680D01*
X-8962390Y-1508760D01*
X-8953500Y-1510030D01*
X-8943340Y-1507490D01*
X-8935720Y-1501140D01*
X-8928100Y-1489710D01*
G01X-8905240Y-1525270D02*
X-8897620Y-1531620D01*
X-8888730Y-1535430D01*
X-8877300Y-1536700D01*
X-8865870Y-1534160D01*
X-8856980Y-1529080D01*
X-8850630Y-1520190D01*
X-8849360Y-1510030D01*
X-8851900Y-1499870D01*
X-8858250Y-1493520D01*
X-8867140Y-1488440D01*
X-8876030Y-1487170D01*
X-8884920Y-1488440D01*
X-8896350Y-1493520D01*
X-8892540Y-1460500D01*
X-8858250D01*
G01X-9131300Y-1422400D02*
Y-1346200D01*
X-9099550D01*
X-9089390Y-1350010D01*
X-9083040Y-1355090D01*
X-9080500Y-1365250D01*
X-9083040Y-1375410D01*
X-9090660Y-1381760D01*
X-9099550Y-1385570D01*
X-9131300D01*
G01X-9099550D02*
X-9080500Y-1422400D01*
G01X-9029700D02*
Y-1346200D01*
X-9044940Y-1361440D01*
G01Y-1422400D02*
X-9014460D01*
G01X-8975090Y-1413510D02*
X-8966200Y-1419860D01*
X-8956040Y-1422400D01*
X-8945880Y-1419860D01*
X-8936990Y-1412240D01*
X-8930640Y-1400810D01*
X-8928100Y-1389380D01*
Y-1375410D01*
X-8930640Y-1363980D01*
X-8936990Y-1353820D01*
X-8944610Y-1348740D01*
X-8953500Y-1346200D01*
X-8963660Y-1348740D01*
X-8971280Y-1353820D01*
X-8976360Y-1361440D01*
X-8978900Y-1371600D01*
X-8976360Y-1380490D01*
X-8970010Y-1389380D01*
X-8962390Y-1394460D01*
X-8953500Y-1395730D01*
X-8943340Y-1393190D01*
X-8935720Y-1386840D01*
X-8928100Y-1375410D01*
G01X-8879840Y-1422400D02*
X-8877300Y-1405890D01*
X-8873490Y-1391920D01*
X-8868410Y-1379220D01*
X-8862060Y-1365250D01*
X-8851900Y-1346200D01*
X-8902700D01*
G01X-8825840Y-5897610D02*
Y-5973810D01*
G01X-8855050Y-5897610D02*
X-8796630D01*
G01X-8775040Y-5973810D02*
Y-5897610D01*
X-8744560D01*
X-8734400Y-5901420D01*
X-8726780Y-5910310D01*
X-8724240Y-5920470D01*
X-8726780Y-5930630D01*
X-8733130Y-5938250D01*
X-8744560Y-5942060D01*
X-8775040D01*
G01X-8701380Y-5958570D02*
X-8693760Y-5967460D01*
X-8683600Y-5972540D01*
X-8672170Y-5973810D01*
X-8662010Y-5972540D01*
X-8651850Y-5966190D01*
X-8645500Y-5958570D01*
X-8644230Y-5950950D01*
X-8646770Y-5942060D01*
X-8655660Y-5935710D01*
X-8664550Y-5933170D01*
X-8675980D01*
G01X-8664550D02*
X-8656930Y-5929360D01*
X-8650580Y-5923010D01*
X-8648040Y-5915390D01*
X-8650580Y-5907770D01*
X-8656930Y-5901420D01*
X-8668360Y-5897610D01*
X-8679790Y-5898880D01*
X-8691220Y-5903960D01*
G01X-8621370Y-5910310D02*
X-8613750Y-5902690D01*
X-8604860Y-5898880D01*
X-8594700Y-5897610D01*
X-8582000Y-5900150D01*
X-8573110Y-5906500D01*
X-8570570Y-5914120D01*
X-8571840Y-5921740D01*
X-8576920Y-5928090D01*
X-8602320Y-5940790D01*
X-8613750Y-5949680D01*
X-8621370Y-5962380D01*
X-8623910Y-5973810D01*
X-8570570D01*
G01X-8825840Y-5808710D02*
Y-5884910D01*
G01X-8855050Y-5808710D02*
X-8796630D01*
G01X-8775040Y-5884910D02*
Y-5808710D01*
X-8744560D01*
X-8734400Y-5812520D01*
X-8726780Y-5821410D01*
X-8724240Y-5831570D01*
X-8726780Y-5841730D01*
X-8733130Y-5849350D01*
X-8744560Y-5853160D01*
X-8775040D01*
G01X-8701380Y-5869670D02*
X-8693760Y-5878560D01*
X-8683600Y-5883640D01*
X-8672170Y-5884910D01*
X-8662010Y-5883640D01*
X-8651850Y-5877290D01*
X-8645500Y-5869670D01*
X-8644230Y-5862050D01*
X-8646770Y-5853160D01*
X-8655660Y-5846810D01*
X-8664550Y-5844270D01*
X-8675980D01*
G01X-8664550D02*
X-8656930Y-5840460D01*
X-8650580Y-5834110D01*
X-8648040Y-5826490D01*
X-8650580Y-5818870D01*
X-8656930Y-5812520D01*
X-8668360Y-5808710D01*
X-8679790Y-5809980D01*
X-8691220Y-5815060D01*
G01X-8625180Y-5869670D02*
X-8617560Y-5878560D01*
X-8607400Y-5883640D01*
X-8595970Y-5884910D01*
X-8585810Y-5883640D01*
X-8575650Y-5877290D01*
X-8569300Y-5869670D01*
X-8568030Y-5862050D01*
X-8570570Y-5853160D01*
X-8579460Y-5846810D01*
X-8588350Y-5844270D01*
X-8599780D01*
G01X-8588350D02*
X-8580730Y-5840460D01*
X-8574380Y-5834110D01*
X-8571840Y-5826490D01*
X-8574380Y-5818870D01*
X-8580730Y-5812520D01*
X-8592160Y-5808710D01*
X-8603590Y-5809980D01*
X-8615020Y-5815060D01*
G01X-8508340Y-5897610D02*
Y-5973810D01*
G01X-8537550Y-5897610D02*
X-8479130D01*
G01X-8457540Y-5973810D02*
Y-5897610D01*
X-8427060D01*
X-8416900Y-5901420D01*
X-8409280Y-5910310D01*
X-8406740Y-5920470D01*
X-8409280Y-5930630D01*
X-8415630Y-5938250D01*
X-8427060Y-5942060D01*
X-8457540D01*
G01X-8383880Y-5958570D02*
X-8376260Y-5967460D01*
X-8366100Y-5972540D01*
X-8354670Y-5973810D01*
X-8344510Y-5972540D01*
X-8334350Y-5966190D01*
X-8328000Y-5958570D01*
X-8326730Y-5950950D01*
X-8329270Y-5942060D01*
X-8338160Y-5935710D01*
X-8347050Y-5933170D01*
X-8358480D01*
G01X-8347050D02*
X-8339430Y-5929360D01*
X-8333080Y-5923010D01*
X-8330540Y-5915390D01*
X-8333080Y-5907770D01*
X-8339430Y-5901420D01*
X-8350860Y-5897610D01*
X-8362290Y-5898880D01*
X-8373720Y-5903960D01*
G01X-8264500Y-5973810D02*
Y-5897610D01*
X-8311490Y-5952220D01*
X-8247990D01*
G01X-8508340Y-5808710D02*
Y-5884910D01*
G01X-8537550Y-5808710D02*
X-8479130D01*
G01X-8457540Y-5884910D02*
Y-5808710D01*
X-8427060D01*
X-8416900Y-5812520D01*
X-8409280Y-5821410D01*
X-8406740Y-5831570D01*
X-8409280Y-5841730D01*
X-8415630Y-5849350D01*
X-8427060Y-5853160D01*
X-8457540D01*
G01X-8383880Y-5869670D02*
X-8376260Y-5878560D01*
X-8366100Y-5883640D01*
X-8354670Y-5884910D01*
X-8344510Y-5883640D01*
X-8334350Y-5877290D01*
X-8328000Y-5869670D01*
X-8326730Y-5862050D01*
X-8329270Y-5853160D01*
X-8338160Y-5846810D01*
X-8347050Y-5844270D01*
X-8358480D01*
G01X-8347050D02*
X-8339430Y-5840460D01*
X-8333080Y-5834110D01*
X-8330540Y-5826490D01*
X-8333080Y-5818870D01*
X-8339430Y-5812520D01*
X-8350860Y-5808710D01*
X-8362290Y-5809980D01*
X-8373720Y-5815060D01*
G01X-8307680Y-5873480D02*
X-8300060Y-5879830D01*
X-8291170Y-5883640D01*
X-8279740Y-5884910D01*
X-8268310Y-5882370D01*
X-8259420Y-5877290D01*
X-8253070Y-5868400D01*
X-8251800Y-5858240D01*
X-8254340Y-5848080D01*
X-8260690Y-5841730D01*
X-8269580Y-5836650D01*
X-8278470Y-5835380D01*
X-8287360Y-5836650D01*
X-8298790Y-5841730D01*
X-8294980Y-5808710D01*
X-8260690D01*
G01X-8808700Y-3751600D02*
X-6456700D01*
Y-2166600D01*
X-8808700D01*
Y-3751600D01*
G01Y-2113300D02*
X-6456700D01*
Y-528300D01*
X-8808700D01*
Y-2113300D01*
G01X-7875120Y-12080D02*
Y-194580D01*
X-7955120Y-274580D01*
X-8535120D01*
Y-17080D01*
G01X-8573770Y335280D02*
X-8569960Y342900D01*
X-8567420Y351790D01*
Y361950D01*
X-8571230Y373380D01*
X-8577580Y382270D01*
X-8585200Y388620D01*
X-8597900Y393700D01*
X-8609330Y394970D01*
X-8620760Y392430D01*
X-8628380Y388620D01*
X-8636000Y381000D01*
X-8641080Y372110D01*
X-8643620Y363220D01*
Y354330D01*
X-8641080Y345440D01*
X-8637270Y337820D01*
X-8632190Y331470D01*
G01X-8580120Y311150D02*
X-8572500Y303530D01*
X-8568690Y294640D01*
X-8567420Y284480D01*
X-8569960Y271780D01*
X-8576310Y262890D01*
X-8583930Y260350D01*
X-8591550Y261620D01*
X-8597900Y266700D01*
X-8610600Y292100D01*
X-8619490Y303530D01*
X-8632190Y311150D01*
X-8643620Y313690D01*
Y260350D01*
G01X-8632190Y238760D02*
X-8638540Y231140D01*
X-8642350Y222250D01*
X-8643620Y210820D01*
X-8641080Y199390D01*
X-8636000Y190500D01*
X-8627110Y184150D01*
X-8616950Y182880D01*
X-8606790Y185420D01*
X-8600440Y191770D01*
X-8595360Y200660D01*
X-8594090Y209550D01*
X-8595360Y218440D01*
X-8600440Y229870D01*
X-8567420Y226060D01*
Y191770D01*
G01X-8611870Y158750D02*
X-8602980Y149860D01*
X-8597900Y142240D01*
X-8595360Y132080D01*
X-8597900Y123190D01*
X-8602980Y116840D01*
X-8610600Y111760D01*
X-8619490Y110490D01*
X-8627110Y111760D01*
X-8634730Y116840D01*
X-8641080Y124460D01*
X-8643620Y133350D01*
X-8641080Y143510D01*
X-8633460Y152400D01*
X-8622030Y157480D01*
X-8609330Y158750D01*
X-8592820Y156210D01*
X-8583930Y152400D01*
X-8575040Y146050D01*
X-8568690Y137160D01*
X-8567420Y128270D01*
X-8569960Y119380D01*
X-8576310Y113030D01*
G01X-8535120Y127920D02*
Y385420D01*
X-7955120D01*
X-7875120Y305420D01*
Y122920D01*
G01X-8415020Y461010D02*
X-8407400Y457200D01*
X-8398510Y454660D01*
X-8388350D01*
X-8376920Y458470D01*
X-8368030Y464820D01*
X-8361680Y472440D01*
X-8356600Y485140D01*
X-8355330Y496570D01*
X-8357870Y508000D01*
X-8361680Y515620D01*
X-8369300Y523240D01*
X-8378190Y528320D01*
X-8387080Y530860D01*
X-8395970D01*
X-8404860Y528320D01*
X-8412480Y524510D01*
X-8418830Y519430D01*
G01X-8439150Y467360D02*
X-8446770Y459740D01*
X-8455660Y455930D01*
X-8465820Y454660D01*
X-8478520Y457200D01*
X-8487410Y463550D01*
X-8489950Y471170D01*
X-8488680Y478790D01*
X-8483600Y485140D01*
X-8458200Y497840D01*
X-8446770Y506730D01*
X-8439150Y519430D01*
X-8436610Y530860D01*
X-8489950D01*
G01X-8511540Y519430D02*
X-8519160Y525780D01*
X-8528050Y529590D01*
X-8539480Y530860D01*
X-8550910Y528320D01*
X-8559800Y523240D01*
X-8566150Y514350D01*
X-8567420Y504190D01*
X-8564880Y494030D01*
X-8558530Y487680D01*
X-8549640Y482600D01*
X-8540750Y481330D01*
X-8531860Y482600D01*
X-8520430Y487680D01*
X-8524240Y454660D01*
X-8558530D01*
G01X-8587740Y515620D02*
X-8595360Y524510D01*
X-8605520Y529590D01*
X-8616950Y530860D01*
X-8627110Y529590D01*
X-8637270Y523240D01*
X-8643620Y515620D01*
X-8644890Y508000D01*
X-8642350Y499110D01*
X-8633460Y492760D01*
X-8624570Y490220D01*
X-8613140D01*
G01X-8624570D02*
X-8632190Y486410D01*
X-8638540Y480060D01*
X-8641080Y472440D01*
X-8638540Y464820D01*
X-8632190Y458470D01*
X-8620760Y454660D01*
X-8609330Y455930D01*
X-8597900Y461010D01*
G01X-8618220Y1173480D02*
Y1244600D01*
X-8632440Y1230380D01*
G01Y1173480D02*
X-8604000D01*
G01X-8569620Y1232750D02*
X-8562510Y1239860D01*
X-8554210Y1243410D01*
X-8544730Y1244600D01*
X-8532880Y1242230D01*
X-8524580Y1236300D01*
X-8522210Y1229190D01*
X-8523390Y1222080D01*
X-8528140Y1216150D01*
X-8551840Y1204300D01*
X-8562510Y1196000D01*
X-8569620Y1184150D01*
X-8571990Y1173480D01*
X-8522210D01*
G01X-8505610Y1244600D02*
X-8475980Y1173480D01*
X-8446350Y1244600D01*
G01X-8440420Y1149770D02*
X-8369300D01*
G01X-8357450Y1244600D02*
Y1173480D01*
X-8310030D01*
G01X-8288700D02*
Y1244600D01*
X-8264990D01*
X-8255510Y1241040D01*
X-8248400Y1236300D01*
X-8242470Y1229190D01*
X-8237730Y1220890D01*
X-8236540Y1209040D01*
X-8237730Y1197190D01*
X-8242470Y1188890D01*
X-8248400Y1181780D01*
X-8255510Y1177040D01*
X-8264990Y1173480D01*
X-8288700D01*
G01X-8190840Y-5897610D02*
Y-5973810D01*
G01X-8220050Y-5897610D02*
X-8161630D01*
G01X-8140040Y-5973810D02*
Y-5897610D01*
X-8109560D01*
X-8099400Y-5901420D01*
X-8091780Y-5910310D01*
X-8089240Y-5920470D01*
X-8091780Y-5930630D01*
X-8098130Y-5938250D01*
X-8109560Y-5942060D01*
X-8140040D01*
G01X-8066380Y-5958570D02*
X-8058760Y-5967460D01*
X-8048600Y-5972540D01*
X-8037170Y-5973810D01*
X-8027010Y-5972540D01*
X-8016850Y-5966190D01*
X-8010500Y-5958570D01*
X-8009230Y-5950950D01*
X-8011770Y-5942060D01*
X-8020660Y-5935710D01*
X-8029550Y-5933170D01*
X-8040980D01*
G01X-8029550D02*
X-8021930Y-5929360D01*
X-8015580Y-5923010D01*
X-8013040Y-5915390D01*
X-8015580Y-5907770D01*
X-8021930Y-5901420D01*
X-8033360Y-5897610D01*
X-8044790Y-5898880D01*
X-8056220Y-5903960D01*
G01X-7986370Y-5942060D02*
X-7977480Y-5933170D01*
X-7969860Y-5928090D01*
X-7959700Y-5925550D01*
X-7950810Y-5928090D01*
X-7944460Y-5933170D01*
X-7939380Y-5940790D01*
X-7938110Y-5949680D01*
X-7939380Y-5957300D01*
X-7944460Y-5964920D01*
X-7952080Y-5971270D01*
X-7960970Y-5973810D01*
X-7971130Y-5971270D01*
X-7980020Y-5963650D01*
X-7985100Y-5952220D01*
X-7986370Y-5939520D01*
X-7983830Y-5923010D01*
X-7980020Y-5914120D01*
X-7973670Y-5905230D01*
X-7964780Y-5898880D01*
X-7955890Y-5897610D01*
X-7947000Y-5900150D01*
X-7940650Y-5906500D01*
G01X-8190840Y-5808710D02*
Y-5884910D01*
G01X-8220050Y-5808710D02*
X-8161630D01*
G01X-8140040Y-5884910D02*
Y-5808710D01*
X-8109560D01*
X-8099400Y-5812520D01*
X-8091780Y-5821410D01*
X-8089240Y-5831570D01*
X-8091780Y-5841730D01*
X-8098130Y-5849350D01*
X-8109560Y-5853160D01*
X-8140040D01*
G01X-8066380Y-5869670D02*
X-8058760Y-5878560D01*
X-8048600Y-5883640D01*
X-8037170Y-5884910D01*
X-8027010Y-5883640D01*
X-8016850Y-5877290D01*
X-8010500Y-5869670D01*
X-8009230Y-5862050D01*
X-8011770Y-5853160D01*
X-8020660Y-5846810D01*
X-8029550Y-5844270D01*
X-8040980D01*
G01X-8029550D02*
X-8021930Y-5840460D01*
X-8015580Y-5834110D01*
X-8013040Y-5826490D01*
X-8015580Y-5818870D01*
X-8021930Y-5812520D01*
X-8033360Y-5808710D01*
X-8044790Y-5809980D01*
X-8056220Y-5815060D01*
G01X-7964780Y-5884910D02*
X-7962240Y-5868400D01*
X-7958430Y-5854430D01*
X-7953350Y-5841730D01*
X-7947000Y-5827760D01*
X-7936840Y-5808710D01*
X-7987640D01*
G01X-8031700Y-5675600D02*
X-7955500D01*
Y-5701000D01*
X-7959310Y-5711160D01*
X-7964390Y-5718780D01*
X-7972010Y-5725130D01*
X-7980900Y-5730210D01*
X-7993600Y-5731480D01*
X-8006300Y-5730210D01*
X-8015190Y-5725130D01*
X-8022810Y-5718780D01*
X-8027890Y-5711160D01*
X-8031700Y-5701000D01*
Y-5675600D01*
G01X-8020270Y-5751800D02*
X-8026620Y-5759420D01*
X-8030430Y-5768310D01*
X-8031700Y-5779740D01*
X-8029160Y-5791170D01*
X-8024080Y-5800060D01*
X-8015190Y-5806410D01*
X-8005030Y-5807680D01*
X-7994870Y-5805140D01*
X-7988520Y-5798790D01*
X-7983440Y-5789900D01*
X-7982170Y-5781010D01*
X-7983440Y-5772120D01*
X-7988520Y-5760690D01*
X-7955500Y-5764500D01*
Y-5798790D01*
G01X-8058240Y-5827020D02*
Y-5542020D01*
X-8100740D01*
G01X-8103240Y-5827020D02*
X-8058240D01*
G01X-8185740Y-5542020D02*
X-8228240D01*
Y-5827020D01*
X-8188240D01*
G01X-8228240Y-5624520D02*
X-8058240D01*
Y-5607020D01*
X-8228240D01*
Y-5614520D01*
X-8138240D01*
Y-5612020D01*
X-8060740D01*
Y-5619520D01*
X-8145740D01*
G01X-8081740Y-4638120D02*
X-8157940D01*
Y-4606370D01*
X-8154130Y-4596210D01*
X-8149050Y-4589860D01*
X-8138890Y-4587320D01*
X-8128730Y-4589860D01*
X-8122380Y-4597480D01*
X-8118570Y-4606370D01*
Y-4638120D01*
G01Y-4606370D02*
X-8081740Y-4587320D01*
G01X-8090630Y-4558110D02*
X-8084280Y-4549220D01*
X-8081740Y-4539060D01*
X-8084280Y-4528900D01*
X-8091900Y-4520010D01*
X-8103330Y-4513660D01*
X-8114760Y-4511120D01*
X-8128730D01*
X-8140160Y-4513660D01*
X-8150320Y-4520010D01*
X-8155400Y-4527630D01*
X-8157940Y-4536520D01*
X-8155400Y-4546680D01*
X-8150320Y-4554300D01*
X-8142700Y-4559380D01*
X-8132540Y-4561920D01*
X-8123650Y-4559380D01*
X-8114760Y-4553030D01*
X-8109680Y-4545410D01*
X-8108410Y-4536520D01*
X-8110950Y-4526360D01*
X-8117300Y-4518740D01*
X-8128730Y-4511120D01*
G01X-8081740Y-4445080D02*
X-8157940D01*
X-8103330Y-4492070D01*
Y-4428570D01*
G01X-8282160Y-4551530D02*
Y-4621530D01*
G03X-8262140Y-4641520I20006J16D01*
G01X-8202150D01*
G03X-8182130Y-4621530I15J20005D01*
G01Y-4461510D01*
G03X-8202150Y-4441520I-20004J-14D01*
G01X-8262140D01*
G03X-8282160Y-4461510I-15J-20005D01*
G01Y-4551530D01*
G01X-8181500Y-4721030D02*
X-8189120Y-4717220D01*
X-8198010Y-4714680D01*
X-8208170D01*
X-8219600Y-4718490D01*
X-8228490Y-4724840D01*
X-8234840Y-4732460D01*
X-8239920Y-4745160D01*
X-8241190Y-4756590D01*
X-8238650Y-4768020D01*
X-8234840Y-4775640D01*
X-8227220Y-4783260D01*
X-8218330Y-4788340D01*
X-8209440Y-4790880D01*
X-8200550D01*
X-8191660Y-4788340D01*
X-8184040Y-4784530D01*
X-8177690Y-4779450D01*
G01X-8157370Y-4759130D02*
X-8148480Y-4750240D01*
X-8140860Y-4745160D01*
X-8130700Y-4742620D01*
X-8121810Y-4745160D01*
X-8115460Y-4750240D01*
X-8110380Y-4757860D01*
X-8109110Y-4766750D01*
X-8110380Y-4774370D01*
X-8115460Y-4781990D01*
X-8123080Y-4788340D01*
X-8131970Y-4790880D01*
X-8142130Y-4788340D01*
X-8151020Y-4780720D01*
X-8156100Y-4769290D01*
X-8157370Y-4756590D01*
X-8154830Y-4740080D01*
X-8151020Y-4731190D01*
X-8144670Y-4722300D01*
X-8135780Y-4715950D01*
X-8126890Y-4714680D01*
X-8118000Y-4717220D01*
X-8111650Y-4723570D01*
G01X-8059580Y-4790880D02*
X-8057040Y-4774370D01*
X-8053230Y-4760400D01*
X-8048150Y-4747700D01*
X-8041800Y-4733730D01*
X-8031640Y-4714680D01*
X-8082440D01*
G01X-8069580Y588010D02*
X-8145780D01*
Y636270D01*
G01X-8108950Y618490D02*
Y588010D01*
G01X-8110220Y698500D02*
X-8114030Y703580D01*
X-8120380Y707390D01*
X-8129270Y709930D01*
X-8136890Y707390D01*
X-8141970Y702310D01*
X-8145780Y693420D01*
Y659130D01*
X-8069580D01*
Y701040D01*
X-8074660Y709930D01*
X-8082280Y715010D01*
X-8091170Y717550D01*
X-8100060Y715010D01*
X-8107680Y707390D01*
X-8110220Y698500D01*
Y659130D01*
G01X-8069580Y762000D02*
X-8086090Y764540D01*
X-8100060Y768350D01*
X-8112760Y773430D01*
X-8126730Y779780D01*
X-8145780Y789940D01*
Y739140D01*
G01X-8031480Y452120D02*
X-8107680D01*
Y477520D01*
X-8103870Y487680D01*
X-8098790Y495300D01*
X-8091170Y501650D01*
X-8082280Y506730D01*
X-8069580Y508000D01*
X-8056880Y506730D01*
X-8047990Y501650D01*
X-8040370Y495300D01*
X-8035290Y487680D01*
X-8031480Y477520D01*
Y452120D01*
G01Y556260D02*
X-8107680D01*
X-8092440Y541020D01*
G01X-8031480D02*
Y571500D01*
G01Y632460D02*
X-8107680D01*
X-8092440Y617220D01*
G01X-8031480D02*
Y647700D01*
G01X-8302880Y867060D02*
X-8320380D01*
Y597060D01*
X-8302880D01*
G01X-8147880D02*
X-8130380D01*
G01D02*
Y867060D01*
X-8147880D01*
G01X-8320380Y772060D02*
X-8130380D01*
Y784560D01*
X-8320380D01*
Y772060D01*
G01X-7672070Y-7028180D02*
X-7675880Y-7035800D01*
X-7678420Y-7044690D01*
Y-7054850D01*
X-7674610Y-7066280D01*
X-7668260Y-7075170D01*
X-7660640Y-7081520D01*
X-7647940Y-7086600D01*
X-7636510Y-7087870D01*
X-7625080Y-7085330D01*
X-7617460Y-7081520D01*
X-7609840Y-7073900D01*
X-7604760Y-7065010D01*
X-7602220Y-7056120D01*
Y-7047230D01*
X-7604760Y-7038340D01*
X-7608570Y-7030720D01*
X-7613650Y-7024370D01*
G01X-7665720Y-7004050D02*
X-7673340Y-6996430D01*
X-7677150Y-6987540D01*
X-7678420Y-6977380D01*
X-7675880Y-6964680D01*
X-7669530Y-6955790D01*
X-7661910Y-6953250D01*
X-7654290Y-6954520D01*
X-7647940Y-6959600D01*
X-7635240Y-6985000D01*
X-7626350Y-6996430D01*
X-7613650Y-7004050D01*
X-7602220Y-7006590D01*
Y-6953250D01*
G01X-7633970Y-6927850D02*
X-7642860Y-6918960D01*
X-7647940Y-6911340D01*
X-7650480Y-6901180D01*
X-7647940Y-6892290D01*
X-7642860Y-6885940D01*
X-7635240Y-6880860D01*
X-7626350Y-6879590D01*
X-7618730Y-6880860D01*
X-7611110Y-6885940D01*
X-7604760Y-6893560D01*
X-7602220Y-6902450D01*
X-7604760Y-6912610D01*
X-7612380Y-6921500D01*
X-7623810Y-6926580D01*
X-7636510Y-6927850D01*
X-7653020Y-6925310D01*
X-7661910Y-6921500D01*
X-7670800Y-6915150D01*
X-7677150Y-6906260D01*
X-7678420Y-6897370D01*
X-7675880Y-6888480D01*
X-7669530Y-6882130D01*
G01X-7678420Y-6827520D02*
X-7675880Y-6837680D01*
X-7669530Y-6845300D01*
X-7661910Y-6850380D01*
X-7651750Y-6854190D01*
X-7640320Y-6855460D01*
X-7628890Y-6854190D01*
X-7618730Y-6850380D01*
X-7611110Y-6845300D01*
X-7604760Y-6837680D01*
X-7602220Y-6827520D01*
X-7604760Y-6817360D01*
X-7611110Y-6809740D01*
X-7618730Y-6804660D01*
X-7628890Y-6800850D01*
X-7640320Y-6799580D01*
X-7651750Y-6800850D01*
X-7661910Y-6804660D01*
X-7669530Y-6809740D01*
X-7675880Y-6817360D01*
X-7678420Y-6827520D01*
G01X-7968720Y-5905560D02*
X-7967450Y-5895400D01*
X-7962370Y-5886510D01*
X-7954750Y-5878890D01*
X-7945860Y-5873810D01*
X-7935700Y-5871270D01*
X-7925540D01*
X-7915380Y-5873810D01*
X-7906490Y-5878890D01*
X-7898870Y-5886510D01*
X-7893790Y-5895400D01*
X-7892520Y-5905560D01*
X-7893790Y-5915720D01*
X-7898870Y-5924610D01*
X-7906490Y-5932230D01*
X-7915380Y-5937310D01*
X-7925540Y-5939850D01*
X-7935700D01*
X-7945860Y-5937310D01*
X-7954750Y-5932230D01*
X-7962370Y-5924610D01*
X-7967450Y-5915720D01*
X-7968720Y-5905560D01*
G01X-7948400Y-5915720D02*
X-7968720Y-5930960D01*
G01Y-5981760D02*
X-7892520D01*
X-7907760Y-5966520D01*
G01X-7968720D02*
Y-5997000D01*
G01X-7936970Y-6033830D02*
X-7928080Y-6042720D01*
X-7923000Y-6050340D01*
X-7920460Y-6060500D01*
X-7923000Y-6069390D01*
X-7928080Y-6075740D01*
X-7935700Y-6080820D01*
X-7944590Y-6082090D01*
X-7952210Y-6080820D01*
X-7959830Y-6075740D01*
X-7966180Y-6068120D01*
X-7968720Y-6059230D01*
X-7966180Y-6049070D01*
X-7958560Y-6040180D01*
X-7947130Y-6035100D01*
X-7934430Y-6033830D01*
X-7917920Y-6036370D01*
X-7909030Y-6040180D01*
X-7900140Y-6046530D01*
X-7893790Y-6055420D01*
X-7892520Y-6064310D01*
X-7895060Y-6073200D01*
X-7901410Y-6079550D01*
G01X-7614920Y-5397500D02*
Y-5321300D01*
X-7583170D01*
X-7573010Y-5325110D01*
X-7566660Y-5330190D01*
X-7564120Y-5340350D01*
X-7566660Y-5350510D01*
X-7574280Y-5356860D01*
X-7583170Y-5360670D01*
X-7614920D01*
G01X-7583170D02*
X-7564120Y-5397500D01*
G01X-7534910Y-5388610D02*
X-7526020Y-5394960D01*
X-7515860Y-5397500D01*
X-7505700Y-5394960D01*
X-7496810Y-5387340D01*
X-7490460Y-5375910D01*
X-7487920Y-5364480D01*
Y-5350510D01*
X-7490460Y-5339080D01*
X-7496810Y-5328920D01*
X-7504430Y-5323840D01*
X-7513320Y-5321300D01*
X-7523480Y-5323840D01*
X-7531100Y-5328920D01*
X-7536180Y-5336540D01*
X-7538720Y-5346700D01*
X-7536180Y-5355590D01*
X-7529830Y-5364480D01*
X-7522210Y-5369560D01*
X-7513320Y-5370830D01*
X-7503160Y-5368290D01*
X-7495540Y-5361940D01*
X-7487920Y-5350510D01*
G01X-7465060Y-5386070D02*
X-7457440Y-5392420D01*
X-7448550Y-5396230D01*
X-7437120Y-5397500D01*
X-7425690Y-5394960D01*
X-7416800Y-5389880D01*
X-7410450Y-5380990D01*
X-7409180Y-5370830D01*
X-7411720Y-5360670D01*
X-7418070Y-5354320D01*
X-7426960Y-5349240D01*
X-7435850Y-5347970D01*
X-7444740Y-5349240D01*
X-7456170Y-5354320D01*
X-7452360Y-5321300D01*
X-7418070D01*
G01X-7731110Y-5416310D02*
X-7661110D01*
G03X-7641120Y-5396300I-13J20003D01*
G01Y-5336300D01*
G03X-7661110Y-5316290I-20003J7D01*
G01X-7821130D01*
G03X-7841120Y-5336300I13J-20003D01*
G01Y-5396300D01*
G03X-7821130Y-5416310I20003J-7D01*
G01X-7731110D01*
G01X-7847720Y-4816700D02*
Y-4740500D01*
X-7815970D01*
X-7805810Y-4744310D01*
X-7799460Y-4749390D01*
X-7796920Y-4759550D01*
X-7799460Y-4769710D01*
X-7807080Y-4776060D01*
X-7815970Y-4779870D01*
X-7847720D01*
G01X-7815970D02*
X-7796920Y-4816700D01*
G01X-7767710Y-4807810D02*
X-7758820Y-4814160D01*
X-7748660Y-4816700D01*
X-7738500Y-4814160D01*
X-7729610Y-4806540D01*
X-7723260Y-4795110D01*
X-7720720Y-4783680D01*
Y-4769710D01*
X-7723260Y-4758280D01*
X-7729610Y-4748120D01*
X-7737230Y-4743040D01*
X-7746120Y-4740500D01*
X-7756280Y-4743040D01*
X-7763900Y-4748120D01*
X-7768980Y-4755740D01*
X-7771520Y-4765900D01*
X-7768980Y-4774790D01*
X-7762630Y-4783680D01*
X-7755010Y-4788760D01*
X-7746120Y-4790030D01*
X-7735960Y-4787490D01*
X-7728340Y-4781140D01*
X-7720720Y-4769710D01*
G01X-7694050Y-4784950D02*
X-7685160Y-4776060D01*
X-7677540Y-4770980D01*
X-7667380Y-4768440D01*
X-7658490Y-4770980D01*
X-7652140Y-4776060D01*
X-7647060Y-4783680D01*
X-7645790Y-4792570D01*
X-7647060Y-4800190D01*
X-7652140Y-4807810D01*
X-7659760Y-4814160D01*
X-7668650Y-4816700D01*
X-7678810Y-4814160D01*
X-7687700Y-4806540D01*
X-7692780Y-4795110D01*
X-7694050Y-4782410D01*
X-7691510Y-4765900D01*
X-7687700Y-4757010D01*
X-7681350Y-4748120D01*
X-7672460Y-4741770D01*
X-7663570Y-4740500D01*
X-7654680Y-4743040D01*
X-7648330Y-4749390D01*
G01X-7682700Y-4920590D02*
X-7817320D01*
Y-4852010D01*
X-7664920D01*
Y-4920590D01*
X-7682700D01*
G01X-7793990Y-167640D02*
X-7797800Y-175260D01*
X-7800340Y-184150D01*
Y-194310D01*
X-7796530Y-205740D01*
X-7790180Y-214630D01*
X-7782560Y-220980D01*
X-7769860Y-226060D01*
X-7758430Y-227330D01*
X-7747000Y-224790D01*
X-7739380Y-220980D01*
X-7731760Y-213360D01*
X-7726680Y-204470D01*
X-7724140Y-195580D01*
Y-186690D01*
X-7726680Y-177800D01*
X-7730490Y-170180D01*
X-7735570Y-163830D01*
G01X-7787640Y-143510D02*
X-7795260Y-135890D01*
X-7799070Y-127000D01*
X-7800340Y-116840D01*
X-7797800Y-104140D01*
X-7791450Y-95250D01*
X-7783830Y-92710D01*
X-7776210Y-93980D01*
X-7769860Y-99060D01*
X-7757160Y-124460D01*
X-7748270Y-135890D01*
X-7735570Y-143510D01*
X-7724140Y-146050D01*
Y-92710D01*
G01X-7735570Y-71120D02*
X-7729220Y-63500D01*
X-7725410Y-54610D01*
X-7724140Y-43180D01*
X-7726680Y-31750D01*
X-7731760Y-22860D01*
X-7740650Y-16510D01*
X-7750810Y-15240D01*
X-7760970Y-17780D01*
X-7767320Y-24130D01*
X-7772400Y-33020D01*
X-7773670Y-41910D01*
X-7772400Y-50800D01*
X-7767320Y-62230D01*
X-7800340Y-58420D01*
Y-24130D01*
G01X-7735570Y5080D02*
X-7729220Y12700D01*
X-7725410Y21590D01*
X-7724140Y33020D01*
X-7726680Y44450D01*
X-7731760Y53340D01*
X-7740650Y59690D01*
X-7750810Y60960D01*
X-7760970Y58420D01*
X-7767320Y52070D01*
X-7772400Y43180D01*
X-7773670Y34290D01*
X-7772400Y25400D01*
X-7767320Y13970D01*
X-7800340Y17780D01*
Y52070D01*
G01X-7743190Y302260D02*
X-7747000Y294640D01*
X-7749540Y285750D01*
Y275590D01*
X-7745730Y264160D01*
X-7739380Y255270D01*
X-7731760Y248920D01*
X-7719060Y243840D01*
X-7707630Y242570D01*
X-7696200Y245110D01*
X-7688580Y248920D01*
X-7680960Y256540D01*
X-7675880Y265430D01*
X-7673340Y274320D01*
Y283210D01*
X-7675880Y292100D01*
X-7679690Y299720D01*
X-7684770Y306070D01*
G01X-7736840Y326390D02*
X-7744460Y334010D01*
X-7748270Y342900D01*
X-7749540Y353060D01*
X-7747000Y365760D01*
X-7740650Y374650D01*
X-7733030Y377190D01*
X-7725410Y375920D01*
X-7719060Y370840D01*
X-7706360Y345440D01*
X-7697470Y334010D01*
X-7684770Y326390D01*
X-7673340Y323850D01*
Y377190D01*
G01X-7684770Y398780D02*
X-7678420Y406400D01*
X-7674610Y415290D01*
X-7673340Y426720D01*
X-7675880Y438150D01*
X-7680960Y447040D01*
X-7689850Y453390D01*
X-7700010Y454660D01*
X-7710170Y452120D01*
X-7716520Y445770D01*
X-7721600Y436880D01*
X-7722870Y427990D01*
X-7721600Y419100D01*
X-7716520Y407670D01*
X-7749540Y411480D01*
Y445770D01*
G01X-7673340Y518160D02*
X-7749540D01*
X-7694930Y471170D01*
Y534670D01*
G01X-7935120Y-137080D02*
Y-49580D01*
G01X-7977620Y-92080D02*
X-7890120D01*
G01X-7533100Y-7045500D02*
Y-7294500D01*
G03X-7469600Y-7358000I63500J0D01*
G01X-6593100D01*
X-6513100Y-7278000D01*
Y-7045500D01*
G01X-7533100Y-6670500D02*
Y-6438000D01*
X-7453100Y-6358000D01*
X-6593100D01*
X-6513100Y-6438000D01*
Y-6670500D01*
G01X-7499170Y-5789820D02*
X-7495360Y-5782200D01*
X-7492820Y-5773310D01*
Y-5763150D01*
X-7496630Y-5751720D01*
X-7502980Y-5742830D01*
X-7510600Y-5736480D01*
X-7523300Y-5731400D01*
X-7534730Y-5730130D01*
X-7546160Y-5732670D01*
X-7553780Y-5736480D01*
X-7561400Y-5744100D01*
X-7566480Y-5752990D01*
X-7569020Y-5761880D01*
Y-5770770D01*
X-7566480Y-5779660D01*
X-7562670Y-5787280D01*
X-7557590Y-5793630D01*
G01X-7537270Y-5813950D02*
X-7528380Y-5822840D01*
X-7523300Y-5830460D01*
X-7520760Y-5840620D01*
X-7523300Y-5849510D01*
X-7528380Y-5855860D01*
X-7536000Y-5860940D01*
X-7544890Y-5862210D01*
X-7552510Y-5860940D01*
X-7560130Y-5855860D01*
X-7566480Y-5848240D01*
X-7569020Y-5839350D01*
X-7566480Y-5829190D01*
X-7558860Y-5820300D01*
X-7547430Y-5815220D01*
X-7534730Y-5813950D01*
X-7518220Y-5816490D01*
X-7509330Y-5820300D01*
X-7500440Y-5826650D01*
X-7494090Y-5835540D01*
X-7492820Y-5844430D01*
X-7495360Y-5853320D01*
X-7501710Y-5859670D01*
G01X-7537270Y-5890150D02*
X-7528380Y-5899040D01*
X-7523300Y-5906660D01*
X-7520760Y-5916820D01*
X-7523300Y-5925710D01*
X-7528380Y-5932060D01*
X-7536000Y-5937140D01*
X-7544890Y-5938410D01*
X-7552510Y-5937140D01*
X-7560130Y-5932060D01*
X-7566480Y-5924440D01*
X-7569020Y-5915550D01*
X-7566480Y-5905390D01*
X-7558860Y-5896500D01*
X-7547430Y-5891420D01*
X-7534730Y-5890150D01*
X-7518220Y-5892690D01*
X-7509330Y-5896500D01*
X-7500440Y-5902850D01*
X-7494090Y-5911740D01*
X-7492820Y-5920630D01*
X-7495360Y-5929520D01*
X-7501710Y-5935870D01*
G01X-7500620Y-5765800D02*
X-7501890Y-5775960D01*
X-7506970Y-5784850D01*
X-7514590Y-5792470D01*
X-7523480Y-5797550D01*
X-7533640Y-5800090D01*
X-7543800D01*
X-7553960Y-5797550D01*
X-7562850Y-5792470D01*
X-7570470Y-5784850D01*
X-7575550Y-5775960D01*
X-7576820Y-5765800D01*
X-7575550Y-5755640D01*
X-7570470Y-5746750D01*
X-7562850Y-5739130D01*
X-7553960Y-5734050D01*
X-7543800Y-5731510D01*
X-7533640D01*
X-7523480Y-5734050D01*
X-7514590Y-5739130D01*
X-7506970Y-5746750D01*
X-7501890Y-5755640D01*
X-7500620Y-5765800D01*
G01X-7520940Y-5755640D02*
X-7500620Y-5740400D01*
G01Y-5689600D02*
X-7576820D01*
X-7561580Y-5704840D01*
G01X-7500620D02*
Y-5674360D01*
G01X-7386320Y-5029200D02*
X-7462520D01*
Y-4997450D01*
X-7458710Y-4987290D01*
X-7453630Y-4980940D01*
X-7443470Y-4978400D01*
X-7433310Y-4980940D01*
X-7426960Y-4988560D01*
X-7423150Y-4997450D01*
Y-5029200D01*
G01Y-4997450D02*
X-7386320Y-4978400D01*
G01X-7395210Y-4949190D02*
X-7388860Y-4940300D01*
X-7386320Y-4930140D01*
X-7388860Y-4919980D01*
X-7396480Y-4911090D01*
X-7407910Y-4904740D01*
X-7419340Y-4902200D01*
X-7433310D01*
X-7444740Y-4904740D01*
X-7454900Y-4911090D01*
X-7459980Y-4918710D01*
X-7462520Y-4927600D01*
X-7459980Y-4937760D01*
X-7454900Y-4945380D01*
X-7447280Y-4950460D01*
X-7437120Y-4953000D01*
X-7428230Y-4950460D01*
X-7419340Y-4944110D01*
X-7414260Y-4936490D01*
X-7412990Y-4927600D01*
X-7415530Y-4917440D01*
X-7421880Y-4909820D01*
X-7433310Y-4902200D01*
G01X-7401560Y-4879340D02*
X-7392670Y-4871720D01*
X-7387590Y-4861560D01*
X-7386320Y-4850130D01*
X-7387590Y-4839970D01*
X-7393940Y-4829810D01*
X-7401560Y-4823460D01*
X-7409180Y-4822190D01*
X-7418070Y-4824730D01*
X-7424420Y-4833620D01*
X-7426960Y-4842510D01*
Y-4853940D01*
G01Y-4842510D02*
X-7430770Y-4834890D01*
X-7437120Y-4828540D01*
X-7444740Y-4826000D01*
X-7452360Y-4828540D01*
X-7458710Y-4834890D01*
X-7462520Y-4846320D01*
X-7461250Y-4857750D01*
X-7456170Y-4869180D01*
G01X-7371120Y-5156290D02*
Y-5086290D01*
G03X-7391130Y-5066300I-20002J-12D01*
G01X-7451130D01*
G03X-7471140Y-5086290I-7J-20003D01*
G01Y-5246310D01*
G03X-7451130Y-5266300I20004J14D01*
G01X-7391130D01*
G03X-7371120Y-5246310I6J20004D01*
G01Y-5156290D01*
G01X-7270750Y-4785360D02*
X-7274560Y-4792980D01*
X-7277100Y-4801870D01*
Y-4812030D01*
X-7273290Y-4823460D01*
X-7266940Y-4832350D01*
X-7259320Y-4838700D01*
X-7246620Y-4843780D01*
X-7235190Y-4845050D01*
X-7223760Y-4842510D01*
X-7216140Y-4838700D01*
X-7208520Y-4831080D01*
X-7203440Y-4822190D01*
X-7200900Y-4813300D01*
Y-4804410D01*
X-7203440Y-4795520D01*
X-7207250Y-4787900D01*
X-7212330Y-4781550D01*
G01X-7264400Y-4761230D02*
X-7272020Y-4753610D01*
X-7275830Y-4744720D01*
X-7277100Y-4734560D01*
X-7274560Y-4721860D01*
X-7268210Y-4712970D01*
X-7260590Y-4710430D01*
X-7252970Y-4711700D01*
X-7246620Y-4716780D01*
X-7233920Y-4742180D01*
X-7225030Y-4753610D01*
X-7212330Y-4761230D01*
X-7200900Y-4763770D01*
Y-4710430D01*
G01X-7216140Y-4688840D02*
X-7207250Y-4681220D01*
X-7202170Y-4671060D01*
X-7200900Y-4659630D01*
X-7202170Y-4649470D01*
X-7208520Y-4639310D01*
X-7216140Y-4632960D01*
X-7223760Y-4631690D01*
X-7232650Y-4634230D01*
X-7239000Y-4643120D01*
X-7241540Y-4652010D01*
Y-4663440D01*
G01Y-4652010D02*
X-7245350Y-4644390D01*
X-7251700Y-4638040D01*
X-7259320Y-4635500D01*
X-7266940Y-4638040D01*
X-7273290Y-4644390D01*
X-7277100Y-4655820D01*
X-7275830Y-4667250D01*
X-7270750Y-4678680D01*
G01X-7277100Y-4584700D02*
X-7274560Y-4594860D01*
X-7268210Y-4602480D01*
X-7260590Y-4607560D01*
X-7250430Y-4611370D01*
X-7239000Y-4612640D01*
X-7227570Y-4611370D01*
X-7217410Y-4607560D01*
X-7209790Y-4602480D01*
X-7203440Y-4594860D01*
X-7200900Y-4584700D01*
X-7203440Y-4574540D01*
X-7209790Y-4566920D01*
X-7217410Y-4561840D01*
X-7227570Y-4558030D01*
X-7239000Y-4556760D01*
X-7250430Y-4558030D01*
X-7260590Y-4561840D01*
X-7268210Y-4566920D01*
X-7274560Y-4574540D01*
X-7277100Y-4584700D01*
G01X-7520720Y-4919160D02*
X-7521990Y-4929320D01*
X-7527070Y-4938210D01*
X-7534690Y-4945830D01*
X-7543580Y-4950910D01*
X-7553740Y-4953450D01*
X-7563900D01*
X-7574060Y-4950910D01*
X-7582950Y-4945830D01*
X-7590570Y-4938210D01*
X-7595650Y-4929320D01*
X-7596920Y-4919160D01*
X-7595650Y-4909000D01*
X-7590570Y-4900110D01*
X-7582950Y-4892490D01*
X-7574060Y-4887410D01*
X-7563900Y-4884870D01*
X-7553740D01*
X-7543580Y-4887410D01*
X-7534690Y-4892490D01*
X-7527070Y-4900110D01*
X-7521990Y-4909000D01*
X-7520720Y-4919160D01*
G01X-7541040Y-4909000D02*
X-7520720Y-4893760D01*
G01X-7584220Y-4867090D02*
X-7591840Y-4859470D01*
X-7595650Y-4850580D01*
X-7596920Y-4840420D01*
X-7594380Y-4827720D01*
X-7588030Y-4818830D01*
X-7580410Y-4816290D01*
X-7572790Y-4817560D01*
X-7566440Y-4822640D01*
X-7553740Y-4848040D01*
X-7544850Y-4859470D01*
X-7532150Y-4867090D01*
X-7520720Y-4869630D01*
Y-4816290D01*
G01X-7296150Y-4366260D02*
X-7299960Y-4373880D01*
X-7302500Y-4382770D01*
Y-4392930D01*
X-7298690Y-4404360D01*
X-7292340Y-4413250D01*
X-7284720Y-4419600D01*
X-7272020Y-4424680D01*
X-7260590Y-4425950D01*
X-7249160Y-4423410D01*
X-7241540Y-4419600D01*
X-7233920Y-4411980D01*
X-7228840Y-4403090D01*
X-7226300Y-4394200D01*
Y-4385310D01*
X-7228840Y-4376420D01*
X-7232650Y-4368800D01*
X-7237730Y-4362450D01*
G01X-7289800Y-4342130D02*
X-7297420Y-4334510D01*
X-7301230Y-4325620D01*
X-7302500Y-4315460D01*
X-7299960Y-4302760D01*
X-7293610Y-4293870D01*
X-7285990Y-4291330D01*
X-7278370Y-4292600D01*
X-7272020Y-4297680D01*
X-7259320Y-4323080D01*
X-7250430Y-4334510D01*
X-7237730Y-4342130D01*
X-7226300Y-4344670D01*
Y-4291330D01*
G01X-7289800Y-4265930D02*
X-7297420Y-4258310D01*
X-7301230Y-4249420D01*
X-7302500Y-4239260D01*
X-7299960Y-4226560D01*
X-7293610Y-4217670D01*
X-7285990Y-4215130D01*
X-7278370Y-4216400D01*
X-7272020Y-4221480D01*
X-7259320Y-4246880D01*
X-7250430Y-4258310D01*
X-7237730Y-4265930D01*
X-7226300Y-4268470D01*
Y-4215130D01*
G01X-7258050Y-4189730D02*
X-7266940Y-4180840D01*
X-7272020Y-4173220D01*
X-7274560Y-4163060D01*
X-7272020Y-4154170D01*
X-7266940Y-4147820D01*
X-7259320Y-4142740D01*
X-7250430Y-4141470D01*
X-7242810Y-4142740D01*
X-7235190Y-4147820D01*
X-7228840Y-4155440D01*
X-7226300Y-4164330D01*
X-7228840Y-4174490D01*
X-7236460Y-4183380D01*
X-7247890Y-4188460D01*
X-7260590Y-4189730D01*
X-7277100Y-4187190D01*
X-7285990Y-4183380D01*
X-7294880Y-4177030D01*
X-7301230Y-4168140D01*
X-7302500Y-4159250D01*
X-7299960Y-4150360D01*
X-7293610Y-4144010D01*
G01X-7467600Y-3898900D02*
Y-3822700D01*
X-7435850D01*
X-7425690Y-3826510D01*
X-7419340Y-3831590D01*
X-7416800Y-3841750D01*
X-7419340Y-3851910D01*
X-7426960Y-3858260D01*
X-7435850Y-3862070D01*
X-7467600D01*
G01X-7435850D02*
X-7416800Y-3898900D01*
G01X-7366000D02*
Y-3822700D01*
X-7381240Y-3837940D01*
G01Y-3898900D02*
X-7350760D01*
G01X-7274560D02*
Y-3822700D01*
X-7321550Y-3877310D01*
X-7258050D01*
G01X-7237730Y-3835400D02*
X-7230110Y-3827780D01*
X-7221220Y-3823970D01*
X-7211060Y-3822700D01*
X-7198360Y-3825240D01*
X-7189470Y-3831590D01*
X-7186930Y-3839210D01*
X-7188200Y-3846830D01*
X-7193280Y-3853180D01*
X-7218680Y-3865880D01*
X-7230110Y-3874770D01*
X-7237730Y-3887470D01*
X-7240270Y-3898900D01*
X-7186930D01*
G01X-7129700Y-7407200D02*
Y-7483400D01*
X-7078900D01*
G01X-7028100D02*
Y-7407200D01*
X-7043340Y-7422440D01*
G01Y-7483400D02*
X-7012860D01*
G01X-6951900D02*
Y-7407200D01*
X-6967140Y-7422440D01*
G01Y-7483400D02*
X-6936660D01*
G01X-6927850Y-5636260D02*
X-6931660Y-5643880D01*
X-6934200Y-5652770D01*
Y-5662930D01*
X-6930390Y-5674360D01*
X-6924040Y-5683250D01*
X-6916420Y-5689600D01*
X-6903720Y-5694680D01*
X-6892290Y-5695950D01*
X-6880860Y-5693410D01*
X-6873240Y-5689600D01*
X-6865620Y-5681980D01*
X-6860540Y-5673090D01*
X-6858000Y-5664200D01*
Y-5655310D01*
X-6860540Y-5646420D01*
X-6864350Y-5638800D01*
X-6869430Y-5632450D01*
G01X-6921500Y-5612130D02*
X-6929120Y-5604510D01*
X-6932930Y-5595620D01*
X-6934200Y-5585460D01*
X-6931660Y-5572760D01*
X-6925310Y-5563870D01*
X-6917690Y-5561330D01*
X-6910070Y-5562600D01*
X-6903720Y-5567680D01*
X-6891020Y-5593080D01*
X-6882130Y-5604510D01*
X-6869430Y-5612130D01*
X-6858000Y-5614670D01*
Y-5561330D01*
G01X-6873240Y-5539740D02*
X-6864350Y-5532120D01*
X-6859270Y-5521960D01*
X-6858000Y-5510530D01*
X-6859270Y-5500370D01*
X-6865620Y-5490210D01*
X-6873240Y-5483860D01*
X-6880860Y-5482590D01*
X-6889750Y-5485130D01*
X-6896100Y-5494020D01*
X-6898640Y-5502910D01*
Y-5514340D01*
G01Y-5502910D02*
X-6902450Y-5495290D01*
X-6908800Y-5488940D01*
X-6916420Y-5486400D01*
X-6924040Y-5488940D01*
X-6930390Y-5495290D01*
X-6934200Y-5506720D01*
X-6932930Y-5518150D01*
X-6927850Y-5529580D01*
G01X-6921500Y-5459730D02*
X-6929120Y-5452110D01*
X-6932930Y-5443220D01*
X-6934200Y-5433060D01*
X-6931660Y-5420360D01*
X-6925310Y-5411470D01*
X-6917690Y-5408930D01*
X-6910070Y-5410200D01*
X-6903720Y-5415280D01*
X-6891020Y-5440680D01*
X-6882130Y-5452110D01*
X-6869430Y-5459730D01*
X-6858000Y-5462270D01*
Y-5408930D01*
G01X-6968490Y-5339080D02*
X-6972300Y-5346700D01*
X-6974840Y-5355590D01*
Y-5365750D01*
X-6971030Y-5377180D01*
X-6964680Y-5386070D01*
X-6957060Y-5392420D01*
X-6944360Y-5397500D01*
X-6932930Y-5398770D01*
X-6921500Y-5396230D01*
X-6913880Y-5392420D01*
X-6906260Y-5384800D01*
X-6901180Y-5375910D01*
X-6898640Y-5367020D01*
Y-5358130D01*
X-6901180Y-5349240D01*
X-6904990Y-5341620D01*
X-6910070Y-5335270D01*
G01X-6962140Y-5314950D02*
X-6969760Y-5307330D01*
X-6973570Y-5298440D01*
X-6974840Y-5288280D01*
X-6972300Y-5275580D01*
X-6965950Y-5266690D01*
X-6958330Y-5264150D01*
X-6950710Y-5265420D01*
X-6944360Y-5270500D01*
X-6931660Y-5295900D01*
X-6922770Y-5307330D01*
X-6910070Y-5314950D01*
X-6898640Y-5317490D01*
Y-5264150D01*
G01X-6962140Y-5238750D02*
X-6969760Y-5231130D01*
X-6973570Y-5222240D01*
X-6974840Y-5212080D01*
X-6972300Y-5199380D01*
X-6965950Y-5190490D01*
X-6958330Y-5187950D01*
X-6950710Y-5189220D01*
X-6944360Y-5194300D01*
X-6931660Y-5219700D01*
X-6922770Y-5231130D01*
X-6910070Y-5238750D01*
X-6898640Y-5241290D01*
Y-5187950D01*
G01Y-5123180D02*
X-6974840D01*
X-6920230Y-5170170D01*
Y-5106670D01*
G01X-6775450Y-4937760D02*
X-6779260Y-4945380D01*
X-6781800Y-4954270D01*
Y-4964430D01*
X-6777990Y-4975860D01*
X-6771640Y-4984750D01*
X-6764020Y-4991100D01*
X-6751320Y-4996180D01*
X-6739890Y-4997450D01*
X-6728460Y-4994910D01*
X-6720840Y-4991100D01*
X-6713220Y-4983480D01*
X-6708140Y-4974590D01*
X-6705600Y-4965700D01*
Y-4956810D01*
X-6708140Y-4947920D01*
X-6711950Y-4940300D01*
X-6717030Y-4933950D01*
G01X-6769100Y-4913630D02*
X-6776720Y-4906010D01*
X-6780530Y-4897120D01*
X-6781800Y-4886960D01*
X-6779260Y-4874260D01*
X-6772910Y-4865370D01*
X-6765290Y-4862830D01*
X-6757670Y-4864100D01*
X-6751320Y-4869180D01*
X-6738620Y-4894580D01*
X-6729730Y-4906010D01*
X-6717030Y-4913630D01*
X-6705600Y-4916170D01*
Y-4862830D01*
G01X-6769100Y-4837430D02*
X-6776720Y-4829810D01*
X-6780530Y-4820920D01*
X-6781800Y-4810760D01*
X-6779260Y-4798060D01*
X-6772910Y-4789170D01*
X-6765290Y-4786630D01*
X-6757670Y-4787900D01*
X-6751320Y-4792980D01*
X-6738620Y-4818380D01*
X-6729730Y-4829810D01*
X-6717030Y-4837430D01*
X-6705600Y-4839970D01*
Y-4786630D01*
G01X-6781800Y-4737100D02*
X-6779260Y-4747260D01*
X-6772910Y-4754880D01*
X-6765290Y-4759960D01*
X-6755130Y-4763770D01*
X-6743700Y-4765040D01*
X-6732270Y-4763770D01*
X-6722110Y-4759960D01*
X-6714490Y-4754880D01*
X-6708140Y-4747260D01*
X-6705600Y-4737100D01*
X-6708140Y-4726940D01*
X-6714490Y-4719320D01*
X-6722110Y-4714240D01*
X-6732270Y-4710430D01*
X-6743700Y-4709160D01*
X-6755130Y-4710430D01*
X-6765290Y-4714240D01*
X-6772910Y-4719320D01*
X-6779260Y-4726940D01*
X-6781800Y-4737100D01*
G01X-6775450Y-4594860D02*
X-6779260Y-4602480D01*
X-6781800Y-4611370D01*
Y-4621530D01*
X-6777990Y-4632960D01*
X-6771640Y-4641850D01*
X-6764020Y-4648200D01*
X-6751320Y-4653280D01*
X-6739890Y-4654550D01*
X-6728460Y-4652010D01*
X-6720840Y-4648200D01*
X-6713220Y-4640580D01*
X-6708140Y-4631690D01*
X-6705600Y-4622800D01*
Y-4613910D01*
X-6708140Y-4605020D01*
X-6711950Y-4597400D01*
X-6717030Y-4591050D01*
G01X-6769100Y-4570730D02*
X-6776720Y-4563110D01*
X-6780530Y-4554220D01*
X-6781800Y-4544060D01*
X-6779260Y-4531360D01*
X-6772910Y-4522470D01*
X-6765290Y-4519930D01*
X-6757670Y-4521200D01*
X-6751320Y-4526280D01*
X-6738620Y-4551680D01*
X-6729730Y-4563110D01*
X-6717030Y-4570730D01*
X-6705600Y-4573270D01*
Y-4519930D01*
G01X-6769100Y-4494530D02*
X-6776720Y-4486910D01*
X-6780530Y-4478020D01*
X-6781800Y-4467860D01*
X-6779260Y-4455160D01*
X-6772910Y-4446270D01*
X-6765290Y-4443730D01*
X-6757670Y-4445000D01*
X-6751320Y-4450080D01*
X-6738620Y-4475480D01*
X-6729730Y-4486910D01*
X-6717030Y-4494530D01*
X-6705600Y-4497070D01*
Y-4443730D01*
G01X-6714490Y-4415790D02*
X-6708140Y-4406900D01*
X-6705600Y-4396740D01*
X-6708140Y-4386580D01*
X-6715760Y-4377690D01*
X-6727190Y-4371340D01*
X-6738620Y-4368800D01*
X-6752590D01*
X-6764020Y-4371340D01*
X-6774180Y-4377690D01*
X-6779260Y-4385310D01*
X-6781800Y-4394200D01*
X-6779260Y-4404360D01*
X-6774180Y-4411980D01*
X-6766560Y-4417060D01*
X-6756400Y-4419600D01*
X-6747510Y-4417060D01*
X-6738620Y-4410710D01*
X-6733540Y-4403090D01*
X-6732270Y-4394200D01*
X-6734810Y-4384040D01*
X-6741160Y-4376420D01*
X-6752590Y-4368800D01*
G01X-6718300Y-4140200D02*
X-6794500D01*
Y-4108450D01*
X-6790690Y-4098290D01*
X-6785610Y-4091940D01*
X-6775450Y-4089400D01*
X-6765290Y-4091940D01*
X-6758940Y-4099560D01*
X-6755130Y-4108450D01*
Y-4140200D01*
G01Y-4108450D02*
X-6718300Y-4089400D01*
G01Y-4038600D02*
X-6794500D01*
X-6779260Y-4053840D01*
G01X-6718300D02*
Y-4023360D01*
G01Y-3947160D02*
X-6794500D01*
X-6739890Y-3994150D01*
Y-3930650D01*
G01X-6718300Y-3870960D02*
X-6794500D01*
X-6739890Y-3917950D01*
Y-3854450D01*
G01X-6578600Y-5676900D02*
Y-5600700D01*
X-6546850D01*
X-6536690Y-5604510D01*
X-6530340Y-5609590D01*
X-6527800Y-5619750D01*
X-6530340Y-5629910D01*
X-6537960Y-5636260D01*
X-6546850Y-5640070D01*
X-6578600D01*
G01X-6546850D02*
X-6527800Y-5676900D01*
G01X-6477000D02*
Y-5600700D01*
X-6492240Y-5615940D01*
G01Y-5676900D02*
X-6461760D01*
G01X-6428740Y-5665470D02*
X-6421120Y-5671820D01*
X-6412230Y-5675630D01*
X-6400800Y-5676900D01*
X-6389370Y-5674360D01*
X-6380480Y-5669280D01*
X-6374130Y-5660390D01*
X-6372860Y-5650230D01*
X-6375400Y-5640070D01*
X-6381750Y-5633720D01*
X-6390640Y-5628640D01*
X-6399530Y-5627370D01*
X-6408420Y-5628640D01*
X-6419850Y-5633720D01*
X-6416040Y-5600700D01*
X-6381750D01*
G01X-6327140Y-5676900D02*
X-6324600Y-5660390D01*
X-6320790Y-5646420D01*
X-6315710Y-5633720D01*
X-6309360Y-5619750D01*
X-6299200Y-5600700D01*
X-6350000D01*
G01X-6312690Y-5476390D02*
Y-5406390D01*
G03X-6332700Y-5386400I-20003J-13D01*
G01X-6392700D01*
G03X-6412710Y-5406390I-7J-20003D01*
G01Y-5566410D01*
G03X-6392700Y-5586400I20003J13D01*
G01X-6332700D01*
G03X-6312690Y-5566410I7J20003D01*
G01Y-5476390D01*
G01X-6591300Y-5727700D02*
Y-5803900D01*
G01X-6620510Y-5727700D02*
X-6562090D01*
G01X-6540500Y-5803900D02*
Y-5727700D01*
X-6510020D01*
X-6499860Y-5731510D01*
X-6492240Y-5740400D01*
X-6489700Y-5750560D01*
X-6492240Y-5760720D01*
X-6498590Y-5768340D01*
X-6510020Y-5772150D01*
X-6540500D01*
G01X-6466840Y-5792470D02*
X-6459220Y-5798820D01*
X-6450330Y-5802630D01*
X-6438900Y-5803900D01*
X-6427470Y-5801360D01*
X-6418580Y-5796280D01*
X-6412230Y-5787390D01*
X-6410960Y-5777230D01*
X-6413500Y-5767070D01*
X-6419850Y-5760720D01*
X-6428740Y-5755640D01*
X-6437630Y-5754370D01*
X-6446520Y-5755640D01*
X-6457950Y-5760720D01*
X-6454140Y-5727700D01*
X-6419850D01*
G01X-6362700Y-5803900D02*
Y-5727700D01*
X-6377940Y-5742940D01*
G01Y-5803900D02*
X-6347460D01*
G01X-6445250Y-4582160D02*
X-6449060Y-4589780D01*
X-6451600Y-4598670D01*
Y-4608830D01*
X-6447790Y-4620260D01*
X-6441440Y-4629150D01*
X-6433820Y-4635500D01*
X-6421120Y-4640580D01*
X-6409690Y-4641850D01*
X-6398260Y-4639310D01*
X-6390640Y-4635500D01*
X-6383020Y-4627880D01*
X-6377940Y-4618990D01*
X-6375400Y-4610100D01*
Y-4601210D01*
X-6377940Y-4592320D01*
X-6381750Y-4584700D01*
X-6386830Y-4578350D01*
G01X-6438900Y-4558030D02*
X-6446520Y-4550410D01*
X-6450330Y-4541520D01*
X-6451600Y-4531360D01*
X-6449060Y-4518660D01*
X-6442710Y-4509770D01*
X-6435090Y-4507230D01*
X-6427470Y-4508500D01*
X-6421120Y-4513580D01*
X-6408420Y-4538980D01*
X-6399530Y-4550410D01*
X-6386830Y-4558030D01*
X-6375400Y-4560570D01*
Y-4507230D01*
G01X-6390640Y-4485640D02*
X-6381750Y-4478020D01*
X-6376670Y-4467860D01*
X-6375400Y-4456430D01*
X-6376670Y-4446270D01*
X-6383020Y-4436110D01*
X-6390640Y-4429760D01*
X-6398260Y-4428490D01*
X-6407150Y-4431030D01*
X-6413500Y-4439920D01*
X-6416040Y-4448810D01*
Y-4460240D01*
G01Y-4448810D02*
X-6419850Y-4441190D01*
X-6426200Y-4434840D01*
X-6433820Y-4432300D01*
X-6441440Y-4434840D01*
X-6447790Y-4441190D01*
X-6451600Y-4452620D01*
X-6450330Y-4464050D01*
X-6445250Y-4475480D01*
G01X-6386830Y-4409440D02*
X-6380480Y-4401820D01*
X-6376670Y-4392930D01*
X-6375400Y-4381500D01*
X-6377940Y-4370070D01*
X-6383020Y-4361180D01*
X-6391910Y-4354830D01*
X-6402070Y-4353560D01*
X-6412230Y-4356100D01*
X-6418580Y-4362450D01*
X-6423660Y-4371340D01*
X-6424930Y-4380230D01*
X-6423660Y-4389120D01*
X-6418580Y-4400550D01*
X-6451600Y-4396740D01*
Y-4362450D01*
G01X-6571360Y-4700550D02*
X-6578980Y-4696740D01*
X-6587870Y-4694200D01*
X-6598030D01*
X-6609460Y-4698010D01*
X-6618350Y-4704360D01*
X-6624700Y-4711980D01*
X-6629780Y-4724680D01*
X-6631050Y-4736110D01*
X-6628510Y-4747540D01*
X-6624700Y-4755160D01*
X-6617080Y-4762780D01*
X-6608190Y-4767860D01*
X-6599300Y-4770400D01*
X-6590410D01*
X-6581520Y-4767860D01*
X-6573900Y-4764050D01*
X-6567550Y-4758970D01*
G01X-6547230Y-4706900D02*
X-6539610Y-4699280D01*
X-6530720Y-4695470D01*
X-6520560Y-4694200D01*
X-6507860Y-4696740D01*
X-6498970Y-4703090D01*
X-6496430Y-4710710D01*
X-6497700Y-4718330D01*
X-6502780Y-4724680D01*
X-6528180Y-4737380D01*
X-6539610Y-4746270D01*
X-6547230Y-4758970D01*
X-6549770Y-4770400D01*
X-6496430D01*
G01X-6471030Y-4706900D02*
X-6463410Y-4699280D01*
X-6454520Y-4695470D01*
X-6444360Y-4694200D01*
X-6431660Y-4696740D01*
X-6422770Y-4703090D01*
X-6420230Y-4710710D01*
X-6421500Y-4718330D01*
X-6426580Y-4724680D01*
X-6451980Y-4737380D01*
X-6463410Y-4746270D01*
X-6471030Y-4758970D01*
X-6473570Y-4770400D01*
X-6420230D01*
G01X-6398640Y-4755160D02*
X-6391020Y-4764050D01*
X-6380860Y-4769130D01*
X-6369430Y-4770400D01*
X-6359270Y-4769130D01*
X-6349110Y-4762780D01*
X-6342760Y-4755160D01*
X-6341490Y-4747540D01*
X-6344030Y-4738650D01*
X-6352920Y-4732300D01*
X-6361810Y-4729760D01*
X-6373240D01*
G01X-6361810D02*
X-6354190Y-4725950D01*
X-6347840Y-4719600D01*
X-6345300Y-4711980D01*
X-6347840Y-4704360D01*
X-6354190Y-4698010D01*
X-6365620Y-4694200D01*
X-6377050Y-4695470D01*
X-6388480Y-4700550D01*
G01X-6445250Y-4175760D02*
X-6449060Y-4183380D01*
X-6451600Y-4192270D01*
Y-4202430D01*
X-6447790Y-4213860D01*
X-6441440Y-4222750D01*
X-6433820Y-4229100D01*
X-6421120Y-4234180D01*
X-6409690Y-4235450D01*
X-6398260Y-4232910D01*
X-6390640Y-4229100D01*
X-6383020Y-4221480D01*
X-6377940Y-4212590D01*
X-6375400Y-4203700D01*
Y-4194810D01*
X-6377940Y-4185920D01*
X-6381750Y-4178300D01*
X-6386830Y-4171950D01*
G01X-6438900Y-4151630D02*
X-6446520Y-4144010D01*
X-6450330Y-4135120D01*
X-6451600Y-4124960D01*
X-6449060Y-4112260D01*
X-6442710Y-4103370D01*
X-6435090Y-4100830D01*
X-6427470Y-4102100D01*
X-6421120Y-4107180D01*
X-6408420Y-4132580D01*
X-6399530Y-4144010D01*
X-6386830Y-4151630D01*
X-6375400Y-4154170D01*
Y-4100830D01*
G01X-6438900Y-4075430D02*
X-6446520Y-4067810D01*
X-6450330Y-4058920D01*
X-6451600Y-4048760D01*
X-6449060Y-4036060D01*
X-6442710Y-4027170D01*
X-6435090Y-4024630D01*
X-6427470Y-4025900D01*
X-6421120Y-4030980D01*
X-6408420Y-4056380D01*
X-6399530Y-4067810D01*
X-6386830Y-4075430D01*
X-6375400Y-4077970D01*
Y-4024630D01*
G01X-6386830Y-4003040D02*
X-6380480Y-3995420D01*
X-6376670Y-3986530D01*
X-6375400Y-3975100D01*
X-6377940Y-3963670D01*
X-6383020Y-3954780D01*
X-6391910Y-3948430D01*
X-6402070Y-3947160D01*
X-6412230Y-3949700D01*
X-6418580Y-3956050D01*
X-6423660Y-3964940D01*
X-6424930Y-3973830D01*
X-6423660Y-3982720D01*
X-6418580Y-3994150D01*
X-6451600Y-3990340D01*
Y-3956050D01*
G01X-5873500Y-4151200D02*
Y-4383200D01*
X-5973500Y-4483200D01*
X-6218500D01*
X-6318500Y-4383200D01*
Y-4151200D01*
X-6218500Y-4051200D01*
X-5973500D01*
X-5873500Y-4151200D01*
G01X-6413500Y-3708400D02*
Y-3784600D01*
G01X-6442710Y-3708400D02*
X-6384290D01*
G01X-6362700Y-3784600D02*
Y-3708400D01*
X-6332220D01*
X-6322060Y-3712210D01*
X-6314440Y-3721100D01*
X-6311900Y-3731260D01*
X-6314440Y-3741420D01*
X-6320790Y-3749040D01*
X-6332220Y-3752850D01*
X-6362700D01*
G01X-6289040Y-3773170D02*
X-6281420Y-3779520D01*
X-6272530Y-3783330D01*
X-6261100Y-3784600D01*
X-6249670Y-3782060D01*
X-6240780Y-3776980D01*
X-6234430Y-3768090D01*
X-6233160Y-3757930D01*
X-6235700Y-3747770D01*
X-6242050Y-3741420D01*
X-6250940Y-3736340D01*
X-6259830Y-3735070D01*
X-6268720Y-3736340D01*
X-6280150Y-3741420D01*
X-6276340Y-3708400D01*
X-6242050D01*
G01X-6334760Y-3181350D02*
X-6342380Y-3177540D01*
X-6351270Y-3175000D01*
X-6361430D01*
X-6372860Y-3178810D01*
X-6381750Y-3185160D01*
X-6388100Y-3192780D01*
X-6393180Y-3205480D01*
X-6394450Y-3216910D01*
X-6391910Y-3228340D01*
X-6388100Y-3235960D01*
X-6380480Y-3243580D01*
X-6371590Y-3248660D01*
X-6362700Y-3251200D01*
X-6353810D01*
X-6344920Y-3248660D01*
X-6337300Y-3244850D01*
X-6330950Y-3239770D01*
G01X-6310630Y-3187700D02*
X-6303010Y-3180080D01*
X-6294120Y-3176270D01*
X-6283960Y-3175000D01*
X-6271260Y-3177540D01*
X-6262370Y-3183890D01*
X-6259830Y-3191510D01*
X-6261100Y-3199130D01*
X-6266180Y-3205480D01*
X-6291580Y-3218180D01*
X-6303010Y-3227070D01*
X-6310630Y-3239770D01*
X-6313170Y-3251200D01*
X-6259830D01*
G01X-6234430Y-3187700D02*
X-6226810Y-3180080D01*
X-6217920Y-3176270D01*
X-6207760Y-3175000D01*
X-6195060Y-3177540D01*
X-6186170Y-3183890D01*
X-6183630Y-3191510D01*
X-6184900Y-3199130D01*
X-6189980Y-3205480D01*
X-6215380Y-3218180D01*
X-6226810Y-3227070D01*
X-6234430Y-3239770D01*
X-6236970Y-3251200D01*
X-6183630D01*
G01X-6158230Y-3187700D02*
X-6150610Y-3180080D01*
X-6141720Y-3176270D01*
X-6131560Y-3175000D01*
X-6118860Y-3177540D01*
X-6109970Y-3183890D01*
X-6107430Y-3191510D01*
X-6108700Y-3199130D01*
X-6113780Y-3205480D01*
X-6139180Y-3218180D01*
X-6150610Y-3227070D01*
X-6158230Y-3239770D01*
X-6160770Y-3251200D01*
X-6107430D01*
G01X-6251090Y-3377420D02*
X-6361100D01*
Y-3277400D01*
X-6161100D01*
Y-3377420D01*
X-6251090D01*
G01X-6438900Y-2872740D02*
X-6384290D01*
X-6372860Y-2867660D01*
X-6365240Y-2857500D01*
X-6362700Y-2844800D01*
X-6365240Y-2832100D01*
X-6372860Y-2821940D01*
X-6384290Y-2816860D01*
X-6438900D01*
G01X-6426200Y-2792730D02*
X-6433820Y-2785110D01*
X-6437630Y-2776220D01*
X-6438900Y-2766060D01*
X-6436360Y-2753360D01*
X-6430010Y-2744470D01*
X-6422390Y-2741930D01*
X-6414770Y-2743200D01*
X-6408420Y-2748280D01*
X-6395720Y-2773680D01*
X-6386830Y-2785110D01*
X-6374130Y-2792730D01*
X-6362700Y-2795270D01*
Y-2741930D01*
G01X-6438900Y-2692400D02*
X-6436360Y-2702560D01*
X-6430010Y-2710180D01*
X-6422390Y-2715260D01*
X-6412230Y-2719070D01*
X-6400800Y-2720340D01*
X-6389370Y-2719070D01*
X-6379210Y-2715260D01*
X-6371590Y-2710180D01*
X-6365240Y-2702560D01*
X-6362700Y-2692400D01*
X-6365240Y-2682240D01*
X-6371590Y-2674620D01*
X-6379210Y-2669540D01*
X-6389370Y-2665730D01*
X-6400800Y-2664460D01*
X-6412230Y-2665730D01*
X-6422390Y-2669540D01*
X-6430010Y-2674620D01*
X-6436360Y-2682240D01*
X-6438900Y-2692400D01*
G01Y-904240D02*
X-6384290D01*
X-6372860Y-899160D01*
X-6365240Y-889000D01*
X-6362700Y-876300D01*
X-6365240Y-863600D01*
X-6372860Y-853440D01*
X-6384290Y-848360D01*
X-6438900D01*
G01X-6362700Y-800100D02*
X-6438900D01*
X-6423660Y-815340D01*
G01X-6362700D02*
Y-784860D01*
G01X-6371590Y-745490D02*
X-6365240Y-736600D01*
X-6362700Y-726440D01*
X-6365240Y-716280D01*
X-6372860Y-707390D01*
X-6384290Y-701040D01*
X-6395720Y-698500D01*
X-6409690D01*
X-6421120Y-701040D01*
X-6431280Y-707390D01*
X-6436360Y-715010D01*
X-6438900Y-723900D01*
X-6436360Y-734060D01*
X-6431280Y-741680D01*
X-6423660Y-746760D01*
X-6413500Y-749300D01*
X-6404610Y-746760D01*
X-6395720Y-740410D01*
X-6390640Y-732790D01*
X-6389370Y-723900D01*
X-6391910Y-713740D01*
X-6398260Y-706120D01*
X-6409690Y-698500D01*
G01X-6141720Y-6995840D02*
X-6196330D01*
X-6207760Y-7000920D01*
X-6215380Y-7011080D01*
X-6217920Y-7023780D01*
X-6215380Y-7036480D01*
X-6207760Y-7046640D01*
X-6196330Y-7051720D01*
X-6141720D01*
G01X-6217920Y-7115220D02*
X-6141720D01*
X-6196330Y-7068230D01*
Y-7131730D01*
G01X-6217920Y-7191420D02*
X-6141720D01*
X-6196330Y-7144430D01*
Y-7207930D01*
G01X-5978600Y-6978330D02*
X-5986220Y-6974520D01*
X-5995110Y-6971980D01*
X-6005270D01*
X-6016700Y-6975790D01*
X-6025590Y-6982140D01*
X-6031940Y-6989760D01*
X-6037020Y-7002460D01*
X-6038290Y-7013890D01*
X-6035750Y-7025320D01*
X-6031940Y-7032940D01*
X-6024320Y-7040560D01*
X-6015430Y-7045640D01*
X-6006540Y-7048180D01*
X-5997650D01*
X-5988760Y-7045640D01*
X-5981140Y-7041830D01*
X-5974790Y-7036750D01*
G01X-5954470Y-6984680D02*
X-5946850Y-6977060D01*
X-5937960Y-6973250D01*
X-5927800Y-6971980D01*
X-5915100Y-6974520D01*
X-5906210Y-6980870D01*
X-5903670Y-6988490D01*
X-5904940Y-6996110D01*
X-5910020Y-7002460D01*
X-5935420Y-7015160D01*
X-5946850Y-7024050D01*
X-5954470Y-7036750D01*
X-5957010Y-7048180D01*
X-5903670D01*
G01X-5882080Y-7036750D02*
X-5874460Y-7043100D01*
X-5865570Y-7046910D01*
X-5854140Y-7048180D01*
X-5842710Y-7045640D01*
X-5833820Y-7040560D01*
X-5827470Y-7031670D01*
X-5826200Y-7021510D01*
X-5828740Y-7011350D01*
X-5835090Y-7005000D01*
X-5843980Y-6999920D01*
X-5852870Y-6998650D01*
X-5861760Y-6999920D01*
X-5873190Y-7005000D01*
X-5869380Y-6971980D01*
X-5835090D01*
G01X-5802070Y-6984680D02*
X-5794450Y-6977060D01*
X-5785560Y-6973250D01*
X-5775400Y-6971980D01*
X-5762700Y-6974520D01*
X-5753810Y-6980870D01*
X-5751270Y-6988490D01*
X-5752540Y-6996110D01*
X-5757620Y-7002460D01*
X-5783020Y-7015160D01*
X-5794450Y-7024050D01*
X-5802070Y-7036750D01*
X-5804610Y-7048180D01*
X-5751270D01*
G01X-5842000Y-5905500D02*
X-5918200D01*
Y-5873750D01*
X-5914390Y-5863590D01*
X-5909310Y-5857240D01*
X-5899150Y-5854700D01*
X-5888990Y-5857240D01*
X-5882640Y-5864860D01*
X-5878830Y-5873750D01*
Y-5905500D01*
G01Y-5873750D02*
X-5842000Y-5854700D01*
G01Y-5803900D02*
X-5918200D01*
X-5902960Y-5819140D01*
G01X-5842000D02*
Y-5788660D01*
G01X-5853430Y-5755640D02*
X-5847080Y-5748020D01*
X-5843270Y-5739130D01*
X-5842000Y-5727700D01*
X-5844540Y-5716270D01*
X-5849620Y-5707380D01*
X-5858510Y-5701030D01*
X-5868670Y-5699760D01*
X-5878830Y-5702300D01*
X-5885180Y-5708650D01*
X-5890260Y-5717540D01*
X-5891530Y-5726430D01*
X-5890260Y-5735320D01*
X-5885180Y-5746750D01*
X-5918200Y-5742940D01*
Y-5708650D01*
G01X-5905500Y-5675630D02*
X-5913120Y-5668010D01*
X-5916930Y-5659120D01*
X-5918200Y-5648960D01*
X-5915660Y-5636260D01*
X-5909310Y-5627370D01*
X-5901690Y-5624830D01*
X-5894070Y-5626100D01*
X-5887720Y-5631180D01*
X-5875020Y-5656580D01*
X-5866130Y-5668010D01*
X-5853430Y-5675630D01*
X-5842000Y-5678170D01*
Y-5624830D01*
G01X-6223000Y-5715000D02*
X-6233160Y-5713730D01*
X-6242050Y-5708650D01*
X-6249670Y-5701030D01*
X-6254750Y-5692140D01*
X-6257290Y-5681980D01*
Y-5671820D01*
X-6254750Y-5661660D01*
X-6249670Y-5652770D01*
X-6242050Y-5645150D01*
X-6233160Y-5640070D01*
X-6223000Y-5638800D01*
X-6212840Y-5640070D01*
X-6203950Y-5645150D01*
X-6196330Y-5652770D01*
X-6191250Y-5661660D01*
X-6188710Y-5671820D01*
Y-5681980D01*
X-6191250Y-5692140D01*
X-6196330Y-5701030D01*
X-6203950Y-5708650D01*
X-6212840Y-5713730D01*
X-6223000Y-5715000D01*
G01X-6212840Y-5694680D02*
X-6197600Y-5715000D01*
G01X-6146800D02*
Y-5638800D01*
X-6162040Y-5654040D01*
G01Y-5715000D02*
X-6131560D01*
G01X-6055360D02*
Y-5638800D01*
X-6102350Y-5693410D01*
X-6038850D01*
G01X-5859780Y-5016500D02*
Y-4940300D01*
X-5834380D01*
X-5824220Y-4944110D01*
X-5816600Y-4949190D01*
X-5810250Y-4956810D01*
X-5805170Y-4965700D01*
X-5803900Y-4978400D01*
X-5805170Y-4991100D01*
X-5810250Y-4999990D01*
X-5816600Y-5007610D01*
X-5824220Y-5012690D01*
X-5834380Y-5016500D01*
X-5859780D01*
G01X-5777230Y-5007610D02*
X-5768340Y-5013960D01*
X-5758180Y-5016500D01*
X-5748020Y-5013960D01*
X-5739130Y-5006340D01*
X-5732780Y-4994910D01*
X-5730240Y-4983480D01*
Y-4969510D01*
X-5732780Y-4958080D01*
X-5739130Y-4947920D01*
X-5746750Y-4942840D01*
X-5755640Y-4940300D01*
X-5765800Y-4942840D01*
X-5773420Y-4947920D01*
X-5778500Y-4955540D01*
X-5781040Y-4965700D01*
X-5778500Y-4974590D01*
X-5772150Y-4983480D01*
X-5764530Y-4988560D01*
X-5755640Y-4989830D01*
X-5745480Y-4987290D01*
X-5737860Y-4980940D01*
X-5730240Y-4969510D01*
G01X-6273800Y-5183820D02*
X-6197600D01*
G01X-6273800Y-5213030D02*
Y-5154610D01*
G01X-6197600Y-5133020D02*
X-6273800D01*
Y-5102540D01*
X-6269990Y-5092380D01*
X-6261100Y-5084760D01*
X-6250940Y-5082220D01*
X-6240780Y-5084760D01*
X-6233160Y-5091110D01*
X-6229350Y-5102540D01*
Y-5133020D01*
G01X-6209030Y-5059360D02*
X-6202680Y-5051740D01*
X-6198870Y-5042850D01*
X-6197600Y-5031420D01*
X-6200140Y-5019990D01*
X-6205220Y-5011100D01*
X-6214110Y-5004750D01*
X-6224270Y-5003480D01*
X-6234430Y-5006020D01*
X-6240780Y-5012370D01*
X-6245860Y-5021260D01*
X-6247130Y-5030150D01*
X-6245860Y-5039040D01*
X-6240780Y-5050470D01*
X-6273800Y-5046660D01*
Y-5012370D01*
G01Y-4955220D02*
X-6271260Y-4965380D01*
X-6264910Y-4973000D01*
X-6257290Y-4978080D01*
X-6247130Y-4981890D01*
X-6235700Y-4983160D01*
X-6224270Y-4981890D01*
X-6214110Y-4978080D01*
X-6206490Y-4973000D01*
X-6200140Y-4965380D01*
X-6197600Y-4955220D01*
X-6200140Y-4945060D01*
X-6206490Y-4937440D01*
X-6214110Y-4932360D01*
X-6224270Y-4928550D01*
X-6235700Y-4927280D01*
X-6247130Y-4928550D01*
X-6257290Y-4932360D01*
X-6264910Y-4937440D01*
X-6271260Y-4945060D01*
X-6273800Y-4955220D01*
G01X-6004560Y-5054600D02*
X-6014720Y-5053330D01*
X-6023610Y-5048250D01*
X-6031230Y-5040630D01*
X-6036310Y-5031740D01*
X-6038850Y-5021580D01*
Y-5011420D01*
X-6036310Y-5001260D01*
X-6031230Y-4992370D01*
X-6023610Y-4984750D01*
X-6014720Y-4979670D01*
X-6004560Y-4978400D01*
X-5994400Y-4979670D01*
X-5985510Y-4984750D01*
X-5977890Y-4992370D01*
X-5972810Y-5001260D01*
X-5970270Y-5011420D01*
Y-5021580D01*
X-5972810Y-5031740D01*
X-5977890Y-5040630D01*
X-5985510Y-5048250D01*
X-5994400Y-5053330D01*
X-6004560Y-5054600D01*
G01X-5994400Y-5034280D02*
X-5979160Y-5054600D01*
G01X-5956300Y-5043170D02*
X-5948680Y-5049520D01*
X-5939790Y-5053330D01*
X-5928360Y-5054600D01*
X-5916930Y-5052060D01*
X-5908040Y-5046980D01*
X-5901690Y-5038090D01*
X-5900420Y-5027930D01*
X-5902960Y-5017770D01*
X-5909310Y-5011420D01*
X-5918200Y-5006340D01*
X-5927090Y-5005070D01*
X-5935980Y-5006340D01*
X-5947410Y-5011420D01*
X-5943600Y-4978400D01*
X-5909310D01*
G01X-5829300Y-5397500D02*
X-5839460Y-5396230D01*
X-5848350Y-5391150D01*
X-5855970Y-5383530D01*
X-5861050Y-5374640D01*
X-5863590Y-5364480D01*
Y-5354320D01*
X-5861050Y-5344160D01*
X-5855970Y-5335270D01*
X-5848350Y-5327650D01*
X-5839460Y-5322570D01*
X-5829300Y-5321300D01*
X-5819140Y-5322570D01*
X-5810250Y-5327650D01*
X-5802630Y-5335270D01*
X-5797550Y-5344160D01*
X-5795010Y-5354320D01*
Y-5364480D01*
X-5797550Y-5374640D01*
X-5802630Y-5383530D01*
X-5810250Y-5391150D01*
X-5819140Y-5396230D01*
X-5829300Y-5397500D01*
G01X-5819140Y-5377180D02*
X-5803900Y-5397500D01*
G01X-5753100D02*
X-5744210Y-5396230D01*
X-5734050Y-5392420D01*
X-5727700Y-5386070D01*
X-5725160Y-5377180D01*
X-5727700Y-5368290D01*
X-5735320Y-5360670D01*
X-5746750Y-5356860D01*
X-5759450D01*
X-5767070Y-5354320D01*
X-5773420Y-5347970D01*
X-5775960Y-5339080D01*
X-5772150Y-5330190D01*
X-5763260Y-5323840D01*
X-5753100Y-5321300D01*
X-5742940Y-5323840D01*
X-5734050Y-5330190D01*
X-5730240Y-5339080D01*
X-5732780Y-5347970D01*
X-5739130Y-5354320D01*
X-5746750Y-5356860D01*
X-5759450D01*
X-5770880Y-5360670D01*
X-5778500Y-5368290D01*
X-5781040Y-5377180D01*
X-5778500Y-5386070D01*
X-5772150Y-5392420D01*
X-5761990Y-5396230D01*
X-5753100Y-5397500D01*
G01X-6152140Y-4923700D02*
X-5867140D01*
Y-4881200D01*
G01X-6152140Y-4878700D02*
Y-4923700D01*
G01X-5867140Y-4796200D02*
Y-4753700D01*
X-6152140D01*
Y-4793700D01*
G01X-5949640Y-4753700D02*
Y-4923700D01*
X-5932140D01*
Y-4753700D01*
X-5939640D01*
Y-4843700D01*
X-5937140D01*
Y-4921200D01*
X-5944640D01*
Y-4836200D01*
G01X-6223000Y-4635500D02*
Y-4711700D01*
X-6172200D01*
G01X-6121400D02*
Y-4635500D01*
X-6136640Y-4650740D01*
G01Y-4711700D02*
X-6106160D01*
G01X-6045200Y-4635500D02*
X-6055360Y-4638040D01*
X-6062980Y-4644390D01*
X-6068060Y-4652010D01*
X-6071870Y-4662170D01*
X-6073140Y-4673600D01*
X-6071870Y-4685030D01*
X-6068060Y-4695190D01*
X-6062980Y-4702810D01*
X-6055360Y-4709160D01*
X-6045200Y-4711700D01*
X-6035040Y-4709160D01*
X-6027420Y-4702810D01*
X-6022340Y-4695190D01*
X-6018530Y-4685030D01*
X-6017260Y-4673600D01*
X-6018530Y-4662170D01*
X-6022340Y-4652010D01*
X-6027420Y-4644390D01*
X-6035040Y-4638040D01*
X-6045200Y-4635500D01*
G01X-6172200Y-3708400D02*
Y-3784600D01*
G01X-6201410Y-3708400D02*
X-6142990D01*
G01X-6121400Y-3784600D02*
Y-3708400D01*
X-6090920D01*
X-6080760Y-3712210D01*
X-6073140Y-3721100D01*
X-6070600Y-3731260D01*
X-6073140Y-3741420D01*
X-6079490Y-3749040D01*
X-6090920Y-3752850D01*
X-6121400D01*
G01X-6004560Y-3784600D02*
Y-3708400D01*
X-6051550Y-3763010D01*
X-5988050D01*
G01X-6121400Y-3327400D02*
Y-3403600D01*
G01X-6150610Y-3327400D02*
X-6092190D01*
G01X-6070600Y-3403600D02*
Y-3327400D01*
X-6040120D01*
X-6029960Y-3331210D01*
X-6022340Y-3340100D01*
X-6019800Y-3350260D01*
X-6022340Y-3360420D01*
X-6028690Y-3368040D01*
X-6040120Y-3371850D01*
X-6070600D01*
G01X-5969000Y-3403600D02*
X-5960110Y-3402330D01*
X-5949950Y-3398520D01*
X-5943600Y-3392170D01*
X-5941060Y-3383280D01*
X-5943600Y-3374390D01*
X-5951220Y-3366770D01*
X-5962650Y-3362960D01*
X-5975350D01*
X-5982970Y-3360420D01*
X-5989320Y-3354070D01*
X-5991860Y-3345180D01*
X-5988050Y-3336290D01*
X-5979160Y-3329940D01*
X-5969000Y-3327400D01*
X-5958840Y-3329940D01*
X-5949950Y-3336290D01*
X-5946140Y-3345180D01*
X-5948680Y-3354070D01*
X-5955030Y-3360420D01*
X-5962650Y-3362960D01*
X-5975350D01*
X-5986780Y-3366770D01*
X-5994400Y-3374390D01*
X-5996940Y-3383280D01*
X-5994400Y-3392170D01*
X-5988050Y-3398520D01*
X-5977890Y-3402330D01*
X-5969000Y-3403600D01*
G01X-6121400Y-3441700D02*
Y-3517900D01*
G01X-6150610Y-3441700D02*
X-6092190D01*
G01X-6070600Y-3517900D02*
Y-3441700D01*
X-6040120D01*
X-6029960Y-3445510D01*
X-6022340Y-3454400D01*
X-6019800Y-3464560D01*
X-6022340Y-3474720D01*
X-6028690Y-3482340D01*
X-6040120Y-3486150D01*
X-6070600D01*
G01X-5990590Y-3509010D02*
X-5981700Y-3515360D01*
X-5971540Y-3517900D01*
X-5961380Y-3515360D01*
X-5952490Y-3507740D01*
X-5946140Y-3496310D01*
X-5943600Y-3484880D01*
Y-3470910D01*
X-5946140Y-3459480D01*
X-5952490Y-3449320D01*
X-5960110Y-3444240D01*
X-5969000Y-3441700D01*
X-5979160Y-3444240D01*
X-5986780Y-3449320D01*
X-5991860Y-3456940D01*
X-5994400Y-3467100D01*
X-5991860Y-3475990D01*
X-5985510Y-3484880D01*
X-5977890Y-3489960D01*
X-5969000Y-3491230D01*
X-5958840Y-3488690D01*
X-5951220Y-3482340D01*
X-5943600Y-3470910D01*
G01X-5844540Y-2730500D02*
Y-2785110D01*
X-5839460Y-2796540D01*
X-5829300Y-2804160D01*
X-5816600Y-2806700D01*
X-5803900Y-2804160D01*
X-5793740Y-2796540D01*
X-5788660Y-2785110D01*
Y-2730500D01*
G01X-5742940Y-2806700D02*
X-5740400Y-2790190D01*
X-5736590Y-2776220D01*
X-5731510Y-2763520D01*
X-5725160Y-2749550D01*
X-5715000Y-2730500D01*
X-5765800D01*
G01X-6116320Y-2816860D02*
Y-2893060D01*
G01X-6145530Y-2816860D02*
X-6087110D01*
G01X-6065520Y-2893060D02*
Y-2816860D01*
X-6035040D01*
X-6024880Y-2820670D01*
X-6017260Y-2829560D01*
X-6014720Y-2839720D01*
X-6017260Y-2849880D01*
X-6023610Y-2857500D01*
X-6035040Y-2861310D01*
X-6065520D01*
G01X-5963920Y-2893060D02*
Y-2816860D01*
X-5979160Y-2832100D01*
G01Y-2893060D02*
X-5948680D01*
G01X-5887720Y-2816860D02*
X-5897880Y-2819400D01*
X-5905500Y-2825750D01*
X-5910580Y-2833370D01*
X-5914390Y-2843530D01*
X-5915660Y-2854960D01*
X-5914390Y-2866390D01*
X-5910580Y-2876550D01*
X-5905500Y-2884170D01*
X-5897880Y-2890520D01*
X-5887720Y-2893060D01*
X-5877560Y-2890520D01*
X-5869940Y-2884170D01*
X-5864860Y-2876550D01*
X-5861050Y-2866390D01*
X-5859780Y-2854960D01*
X-5861050Y-2843530D01*
X-5864860Y-2833370D01*
X-5869940Y-2825750D01*
X-5877560Y-2819400D01*
X-5887720Y-2816860D01*
G01X-6042660Y-2597150D02*
X-6050280Y-2593340D01*
X-6059170Y-2590800D01*
X-6069330D01*
X-6080760Y-2594610D01*
X-6089650Y-2600960D01*
X-6096000Y-2608580D01*
X-6101080Y-2621280D01*
X-6102350Y-2632710D01*
X-6099810Y-2644140D01*
X-6096000Y-2651760D01*
X-6088380Y-2659380D01*
X-6079490Y-2664460D01*
X-6070600Y-2667000D01*
X-6061710D01*
X-6052820Y-2664460D01*
X-6045200Y-2660650D01*
X-6038850Y-2655570D01*
G01X-5996940Y-2667000D02*
X-5994400Y-2650490D01*
X-5990590Y-2636520D01*
X-5985510Y-2623820D01*
X-5979160Y-2609850D01*
X-5969000Y-2590800D01*
X-6019800D01*
G01X-5939790Y-2658110D02*
X-5930900Y-2664460D01*
X-5920740Y-2667000D01*
X-5910580Y-2664460D01*
X-5901690Y-2656840D01*
X-5895340Y-2645410D01*
X-5892800Y-2633980D01*
Y-2620010D01*
X-5895340Y-2608580D01*
X-5901690Y-2598420D01*
X-5909310Y-2593340D01*
X-5918200Y-2590800D01*
X-5928360Y-2593340D01*
X-5935980Y-2598420D01*
X-5941060Y-2606040D01*
X-5943600Y-2616200D01*
X-5941060Y-2625090D01*
X-5934710Y-2633980D01*
X-5927090Y-2639060D01*
X-5918200Y-2640330D01*
X-5908040Y-2637790D01*
X-5900420Y-2631440D01*
X-5892800Y-2620010D01*
G01X-5882640Y-2098040D02*
Y-2174240D01*
G01X-5911850Y-2098040D02*
X-5853430D01*
G01X-5830570Y-2110740D02*
X-5822950Y-2103120D01*
X-5814060Y-2099310D01*
X-5803900Y-2098040D01*
X-5791200Y-2100580D01*
X-5782310Y-2106930D01*
X-5779770Y-2114550D01*
X-5781040Y-2122170D01*
X-5786120Y-2128520D01*
X-5811520Y-2141220D01*
X-5822950Y-2150110D01*
X-5830570Y-2162810D01*
X-5833110Y-2174240D01*
X-5779770D01*
G01X-5740400Y-5905500D02*
X-5816600D01*
Y-5873750D01*
X-5812790Y-5863590D01*
X-5807710Y-5857240D01*
X-5797550Y-5854700D01*
X-5787390Y-5857240D01*
X-5781040Y-5864860D01*
X-5777230Y-5873750D01*
Y-5905500D01*
G01Y-5873750D02*
X-5740400Y-5854700D01*
G01Y-5803900D02*
X-5816600D01*
X-5801360Y-5819140D01*
G01X-5740400D02*
Y-5788660D01*
G01X-5751830Y-5755640D02*
X-5745480Y-5748020D01*
X-5741670Y-5739130D01*
X-5740400Y-5727700D01*
X-5742940Y-5716270D01*
X-5748020Y-5707380D01*
X-5756910Y-5701030D01*
X-5767070Y-5699760D01*
X-5777230Y-5702300D01*
X-5783580Y-5708650D01*
X-5788660Y-5717540D01*
X-5789930Y-5726430D01*
X-5788660Y-5735320D01*
X-5783580Y-5746750D01*
X-5816600Y-5742940D01*
Y-5708650D01*
G01X-5751830Y-5679440D02*
X-5745480Y-5671820D01*
X-5741670Y-5662930D01*
X-5740400Y-5651500D01*
X-5742940Y-5640070D01*
X-5748020Y-5631180D01*
X-5756910Y-5624830D01*
X-5767070Y-5623560D01*
X-5777230Y-5626100D01*
X-5783580Y-5632450D01*
X-5788660Y-5641340D01*
X-5789930Y-5650230D01*
X-5788660Y-5659120D01*
X-5783580Y-5670550D01*
X-5816600Y-5666740D01*
Y-5632450D01*
G01X-5346700Y-6235700D02*
X-5347970Y-6245860D01*
X-5353050Y-6254750D01*
X-5360670Y-6262370D01*
X-5369560Y-6267450D01*
X-5379720Y-6269990D01*
X-5389880D01*
X-5400040Y-6267450D01*
X-5408930Y-6262370D01*
X-5416550Y-6254750D01*
X-5421630Y-6245860D01*
X-5422900Y-6235700D01*
X-5421630Y-6225540D01*
X-5416550Y-6216650D01*
X-5408930Y-6209030D01*
X-5400040Y-6203950D01*
X-5389880Y-6201410D01*
X-5379720D01*
X-5369560Y-6203950D01*
X-5360670Y-6209030D01*
X-5353050Y-6216650D01*
X-5347970Y-6225540D01*
X-5346700Y-6235700D01*
G01X-5367020Y-6225540D02*
X-5346700Y-6210300D01*
G01Y-6159500D02*
X-5422900D01*
X-5407660Y-6174740D01*
G01X-5346700D02*
Y-6144260D01*
G01X-5422900Y-6083300D02*
X-5420360Y-6093460D01*
X-5414010Y-6101080D01*
X-5406390Y-6106160D01*
X-5396230Y-6109970D01*
X-5384800Y-6111240D01*
X-5373370Y-6109970D01*
X-5363210Y-6106160D01*
X-5355590Y-6101080D01*
X-5349240Y-6093460D01*
X-5346700Y-6083300D01*
X-5349240Y-6073140D01*
X-5355590Y-6065520D01*
X-5363210Y-6060440D01*
X-5373370Y-6056630D01*
X-5384800Y-6055360D01*
X-5396230Y-6056630D01*
X-5406390Y-6060440D01*
X-5414010Y-6065520D01*
X-5420360Y-6073140D01*
X-5422900Y-6083300D01*
G01X-5853910Y-5521810D02*
Y-5591810D01*
G03X-5833900Y-5611800I20003J13D01*
G01X-5773900D01*
G03X-5753890Y-5591810I7J20003D01*
G01Y-5431790D01*
G03X-5773900Y-5411800I-20003J-13D01*
G01X-5833900D01*
G03X-5853910Y-5431790I-7J-20003D01*
G01Y-5521810D01*
G01X-5476240Y-5751410D02*
Y-5675210D01*
X-5444490D01*
X-5434330Y-5679020D01*
X-5427980Y-5684100D01*
X-5425440Y-5694260D01*
X-5427980Y-5704420D01*
X-5435600Y-5710770D01*
X-5444490Y-5714580D01*
X-5476240D01*
G01X-5444490D02*
X-5425440Y-5751410D01*
G01X-5374640D02*
Y-5675210D01*
X-5389880Y-5690450D01*
G01Y-5751410D02*
X-5359400D01*
G01X-5326380Y-5739980D02*
X-5318760Y-5746330D01*
X-5309870Y-5750140D01*
X-5298440Y-5751410D01*
X-5287010Y-5748870D01*
X-5278120Y-5743790D01*
X-5271770Y-5734900D01*
X-5270500Y-5724740D01*
X-5273040Y-5714580D01*
X-5279390Y-5708230D01*
X-5288280Y-5703150D01*
X-5297170Y-5701880D01*
X-5306060Y-5703150D01*
X-5317490Y-5708230D01*
X-5313680Y-5675210D01*
X-5279390D01*
G01X-5222240Y-5751410D02*
X-5213350Y-5750140D01*
X-5203190Y-5746330D01*
X-5196840Y-5739980D01*
X-5194300Y-5731090D01*
X-5196840Y-5722200D01*
X-5204460Y-5714580D01*
X-5215890Y-5710770D01*
X-5228590D01*
X-5236210Y-5708230D01*
X-5242560Y-5701880D01*
X-5245100Y-5692990D01*
X-5241290Y-5684100D01*
X-5232400Y-5677750D01*
X-5222240Y-5675210D01*
X-5212080Y-5677750D01*
X-5203190Y-5684100D01*
X-5199380Y-5692990D01*
X-5201920Y-5701880D01*
X-5208270Y-5708230D01*
X-5215890Y-5710770D01*
X-5228590D01*
X-5240020Y-5714580D01*
X-5247640Y-5722200D01*
X-5250180Y-5731090D01*
X-5247640Y-5739980D01*
X-5241290Y-5746330D01*
X-5231130Y-5750140D01*
X-5222240Y-5751410D01*
G01X-5422900Y-5080000D02*
Y-5003800D01*
X-5391150D01*
X-5380990Y-5007610D01*
X-5374640Y-5012690D01*
X-5372100Y-5022850D01*
X-5374640Y-5033010D01*
X-5382260Y-5039360D01*
X-5391150Y-5043170D01*
X-5422900D01*
G01X-5391150D02*
X-5372100Y-5080000D01*
G01X-5321300D02*
Y-5003800D01*
X-5336540Y-5019040D01*
G01Y-5080000D02*
X-5306060D01*
G01X-5269230Y-5048250D02*
X-5260340Y-5039360D01*
X-5252720Y-5034280D01*
X-5242560Y-5031740D01*
X-5233670Y-5034280D01*
X-5227320Y-5039360D01*
X-5222240Y-5046980D01*
X-5220970Y-5055870D01*
X-5222240Y-5063490D01*
X-5227320Y-5071110D01*
X-5234940Y-5077460D01*
X-5243830Y-5080000D01*
X-5253990Y-5077460D01*
X-5262880Y-5069840D01*
X-5267960Y-5058410D01*
X-5269230Y-5045710D01*
X-5266690Y-5029200D01*
X-5262880Y-5020310D01*
X-5256530Y-5011420D01*
X-5247640Y-5005070D01*
X-5238750Y-5003800D01*
X-5229860Y-5006340D01*
X-5223510Y-5012690D01*
G01X-5193030Y-5016500D02*
X-5185410Y-5008880D01*
X-5176520Y-5005070D01*
X-5166360Y-5003800D01*
X-5153660Y-5006340D01*
X-5144770Y-5012690D01*
X-5142230Y-5020310D01*
X-5143500Y-5027930D01*
X-5148580Y-5034280D01*
X-5173980Y-5046980D01*
X-5185410Y-5055870D01*
X-5193030Y-5068570D01*
X-5195570Y-5080000D01*
X-5142230D01*
G01X-5753100Y-5232400D02*
X-5754370Y-5242560D01*
X-5759450Y-5251450D01*
X-5767070Y-5259070D01*
X-5775960Y-5264150D01*
X-5786120Y-5266690D01*
X-5796280D01*
X-5806440Y-5264150D01*
X-5815330Y-5259070D01*
X-5822950Y-5251450D01*
X-5828030Y-5242560D01*
X-5829300Y-5232400D01*
X-5828030Y-5222240D01*
X-5822950Y-5213350D01*
X-5815330Y-5205730D01*
X-5806440Y-5200650D01*
X-5796280Y-5198110D01*
X-5786120D01*
X-5775960Y-5200650D01*
X-5767070Y-5205730D01*
X-5759450Y-5213350D01*
X-5754370Y-5222240D01*
X-5753100Y-5232400D01*
G01X-5773420Y-5222240D02*
X-5753100Y-5207000D01*
G01Y-5158740D02*
X-5769610Y-5156200D01*
X-5783580Y-5152390D01*
X-5796280Y-5147310D01*
X-5810250Y-5140960D01*
X-5829300Y-5130800D01*
Y-5181600D01*
G01X-5803900Y-4673600D02*
X-5727700D01*
G01X-5803900Y-4702810D02*
Y-4644390D01*
G01X-5727700Y-4622800D02*
X-5803900D01*
Y-4592320D01*
X-5800090Y-4582160D01*
X-5791200Y-4574540D01*
X-5781040Y-4572000D01*
X-5770880Y-4574540D01*
X-5763260Y-4580890D01*
X-5759450Y-4592320D01*
Y-4622800D01*
G01Y-4545330D02*
X-5768340Y-4536440D01*
X-5773420Y-4528820D01*
X-5775960Y-4518660D01*
X-5773420Y-4509770D01*
X-5768340Y-4503420D01*
X-5760720Y-4498340D01*
X-5751830Y-4497070D01*
X-5744210Y-4498340D01*
X-5736590Y-4503420D01*
X-5730240Y-4511040D01*
X-5727700Y-4519930D01*
X-5730240Y-4530090D01*
X-5737860Y-4538980D01*
X-5749290Y-4544060D01*
X-5761990Y-4545330D01*
X-5778500Y-4542790D01*
X-5787390Y-4538980D01*
X-5796280Y-4532630D01*
X-5802630Y-4523740D01*
X-5803900Y-4514850D01*
X-5801360Y-4505960D01*
X-5795010Y-4499610D01*
G01X-5737860Y-2606040D02*
Y-2682240D01*
G01X-5767070Y-2606040D02*
X-5708650D01*
G01X-5661660Y-2682240D02*
Y-2606040D01*
X-5676900Y-2621280D01*
G01Y-2682240D02*
X-5646420D01*
G01X-5417500Y-2367500D02*
X-5172500D01*
Y-2592500D01*
X-5707500D01*
Y-2367500D01*
X-5417500D01*
G01X-5522500D02*
Y-2592500D01*
X-5537500D01*
G01X-5462500Y-2352500D02*
X-5707500D01*
Y-2127500D01*
X-5172500D01*
Y-2352500D01*
X-5462500D01*
G01X-5100620Y-6686900D02*
X-5094270Y-6694520D01*
X-5086650Y-6699600D01*
X-5077760Y-6702140D01*
X-5067600Y-6699600D01*
X-5059980Y-6694520D01*
X-5052360Y-6686900D01*
X-5049820Y-6676740D01*
Y-6625940D01*
G01X-5023150Y-6638640D02*
X-5015530Y-6631020D01*
X-5006640Y-6627210D01*
X-4996480Y-6625940D01*
X-4983780Y-6628480D01*
X-4974890Y-6634830D01*
X-4972350Y-6642450D01*
X-4973620Y-6650070D01*
X-4978700Y-6656420D01*
X-5004100Y-6669120D01*
X-5015530Y-6678010D01*
X-5023150Y-6690710D01*
X-5025690Y-6702140D01*
X-4972350D01*
G01X-4950760Y-6690710D02*
X-4943140Y-6697060D01*
X-4934250Y-6700870D01*
X-4922820Y-6702140D01*
X-4911390Y-6699600D01*
X-4902500Y-6694520D01*
X-4896150Y-6685630D01*
X-4894880Y-6675470D01*
X-4897420Y-6665310D01*
X-4903770Y-6658960D01*
X-4912660Y-6653880D01*
X-4921550Y-6652610D01*
X-4930440Y-6653880D01*
X-4941870Y-6658960D01*
X-4938060Y-6625940D01*
X-4903770D01*
G01X-5310350Y-5582770D02*
Y-5652770D01*
G03X-5290340Y-5672760I20003J13D01*
G01X-5230340D01*
G03X-5210330Y-5652770I7J20003D01*
G01Y-5492750D01*
G03X-5230340Y-5472760I-20003J-13D01*
G01X-5290340D01*
G03X-5310350Y-5492750I-7J-20003D01*
G01Y-5582770D01*
G01X-5295900Y-5156200D02*
Y-5092700D01*
G01X-5333200Y-5267810D02*
Y-5337810D01*
G03X-5313190Y-5357800I20003J13D01*
G01X-5253190D01*
G03X-5233180Y-5337810I7J20003D01*
G01Y-5177790D01*
G03X-5253190Y-5157800I-20003J-13D01*
G01X-5313190D01*
G03X-5333200Y-5177790I-7J-20003D01*
G01Y-5267810D01*
G01X-4953260Y-2590550D02*
X-4960880Y-2586740D01*
X-4969770Y-2584200D01*
X-4979930D01*
X-4991360Y-2588010D01*
X-5000250Y-2594360D01*
X-5006600Y-2601980D01*
X-5011680Y-2614680D01*
X-5012950Y-2626110D01*
X-5010410Y-2637540D01*
X-5006600Y-2645160D01*
X-4998980Y-2652780D01*
X-4990090Y-2657860D01*
X-4981200Y-2660400D01*
X-4972310D01*
X-4963420Y-2657860D01*
X-4955800Y-2654050D01*
X-4949450Y-2648970D01*
G01X-4905000Y-2660400D02*
X-4896110Y-2659130D01*
X-4885950Y-2655320D01*
X-4879600Y-2648970D01*
X-4877060Y-2640080D01*
X-4879600Y-2631190D01*
X-4887220Y-2623570D01*
X-4898650Y-2619760D01*
X-4911350D01*
X-4918970Y-2617220D01*
X-4925320Y-2610870D01*
X-4927860Y-2601980D01*
X-4924050Y-2593090D01*
X-4915160Y-2586740D01*
X-4905000Y-2584200D01*
X-4894840Y-2586740D01*
X-4885950Y-2593090D01*
X-4882140Y-2601980D01*
X-4884680Y-2610870D01*
X-4891030Y-2617220D01*
X-4898650Y-2619760D01*
X-4911350D01*
X-4922780Y-2623570D01*
X-4930400Y-2631190D01*
X-4932940Y-2640080D01*
X-4930400Y-2648970D01*
X-4924050Y-2655320D01*
X-4913890Y-2659130D01*
X-4905000Y-2660400D01*
G01X-4852930Y-2596900D02*
X-4845310Y-2589280D01*
X-4836420Y-2585470D01*
X-4826260Y-2584200D01*
X-4813560Y-2586740D01*
X-4804670Y-2593090D01*
X-4802130Y-2600710D01*
X-4803400Y-2608330D01*
X-4808480Y-2614680D01*
X-4833880Y-2627380D01*
X-4845310Y-2636270D01*
X-4852930Y-2648970D01*
X-4855470Y-2660400D01*
X-4802130D01*
G01X-5357500Y-2352500D02*
Y-2127500D01*
X-5342500D01*
G01X-5012160Y-101280D02*
X-5010890Y-91120D01*
X-5005810Y-82230D01*
X-4998190Y-74610D01*
X-4989300Y-69530D01*
X-4979140Y-66990D01*
X-4968980D01*
X-4958820Y-69530D01*
X-4949930Y-74610D01*
X-4942310Y-82230D01*
X-4937230Y-91120D01*
X-4935960Y-101280D01*
X-4937230Y-111440D01*
X-4942310Y-120330D01*
X-4949930Y-127950D01*
X-4958820Y-133030D01*
X-4968980Y-135570D01*
X-4979140D01*
X-4989300Y-133030D01*
X-4998190Y-127950D01*
X-5005810Y-120330D01*
X-5010890Y-111440D01*
X-5012160Y-101280D01*
G01X-4991840Y-111440D02*
X-5012160Y-126680D01*
G01Y-177480D02*
X-4935960D01*
X-4951200Y-162240D01*
G01X-5012160D02*
Y-192720D01*
G01Y-251140D02*
X-4995650Y-253680D01*
X-4981680Y-257490D01*
X-4968980Y-262570D01*
X-4955010Y-268920D01*
X-4935960Y-279080D01*
Y-228280D01*
G01X-5283860Y503860D02*
X-5363860D01*
Y1003860D01*
X-5233860D01*
G01D02*
Y1078860D01*
X-4463860D01*
Y1003860D01*
X-4333860D01*
Y503860D01*
X-4418860D01*
G01X-4711700Y-5105400D02*
X-4635500D01*
Y-5372100D01*
X-4038600D01*
Y-5588000D01*
X-4749800D01*
Y-5105400D01*
X-4711700D01*
G01X-4762500Y-5486400D02*
X-4763770Y-5496560D01*
X-4768850Y-5505450D01*
X-4776470Y-5513070D01*
X-4785360Y-5518150D01*
X-4795520Y-5520690D01*
X-4805680D01*
X-4815840Y-5518150D01*
X-4824730Y-5513070D01*
X-4832350Y-5505450D01*
X-4837430Y-5496560D01*
X-4838700Y-5486400D01*
X-4837430Y-5476240D01*
X-4832350Y-5467350D01*
X-4824730Y-5459730D01*
X-4815840Y-5454650D01*
X-4805680Y-5452110D01*
X-4795520D01*
X-4785360Y-5454650D01*
X-4776470Y-5459730D01*
X-4768850Y-5467350D01*
X-4763770Y-5476240D01*
X-4762500Y-5486400D01*
G01X-4782820Y-5476240D02*
X-4762500Y-5461000D01*
G01Y-5410200D02*
X-4838700D01*
X-4823460Y-5425440D01*
G01X-4762500D02*
Y-5394960D01*
G01X-4777740Y-5361940D02*
X-4768850Y-5354320D01*
X-4763770Y-5344160D01*
X-4762500Y-5332730D01*
X-4763770Y-5322570D01*
X-4770120Y-5312410D01*
X-4777740Y-5306060D01*
X-4785360Y-5304790D01*
X-4794250Y-5307330D01*
X-4800600Y-5316220D01*
X-4803140Y-5325110D01*
Y-5336540D01*
G01Y-5325110D02*
X-4806950Y-5317490D01*
X-4813300Y-5311140D01*
X-4820920Y-5308600D01*
X-4828540Y-5311140D01*
X-4834890Y-5317490D01*
X-4838700Y-5328920D01*
X-4837430Y-5340350D01*
X-4832350Y-5351780D01*
G01X-4480560Y-5010150D02*
X-4488180Y-5006340D01*
X-4497070Y-5003800D01*
X-4507230D01*
X-4518660Y-5007610D01*
X-4527550Y-5013960D01*
X-4533900Y-5021580D01*
X-4538980Y-5034280D01*
X-4540250Y-5045710D01*
X-4537710Y-5057140D01*
X-4533900Y-5064760D01*
X-4526280Y-5072380D01*
X-4517390Y-5077460D01*
X-4508500Y-5080000D01*
X-4499610D01*
X-4490720Y-5077460D01*
X-4483100Y-5073650D01*
X-4476750Y-5068570D01*
G01X-4432300Y-5080000D02*
Y-5003800D01*
X-4447540Y-5019040D01*
G01Y-5080000D02*
X-4417060D01*
G01X-4356100Y-5003800D02*
X-4366260Y-5006340D01*
X-4373880Y-5012690D01*
X-4378960Y-5020310D01*
X-4382770Y-5030470D01*
X-4384040Y-5041900D01*
X-4382770Y-5053330D01*
X-4378960Y-5063490D01*
X-4373880Y-5071110D01*
X-4366260Y-5077460D01*
X-4356100Y-5080000D01*
X-4345940Y-5077460D01*
X-4338320Y-5071110D01*
X-4333240Y-5063490D01*
X-4329430Y-5053330D01*
X-4328160Y-5041900D01*
X-4329430Y-5030470D01*
X-4333240Y-5020310D01*
X-4338320Y-5012690D01*
X-4345940Y-5006340D01*
X-4356100Y-5003800D01*
G01X-4307840Y-5064760D02*
X-4300220Y-5073650D01*
X-4290060Y-5078730D01*
X-4278630Y-5080000D01*
X-4268470Y-5078730D01*
X-4258310Y-5072380D01*
X-4251960Y-5064760D01*
X-4250690Y-5057140D01*
X-4253230Y-5048250D01*
X-4262120Y-5041900D01*
X-4271010Y-5039360D01*
X-4282440D01*
G01X-4271010D02*
X-4263390Y-5035550D01*
X-4257040Y-5029200D01*
X-4254500Y-5021580D01*
X-4257040Y-5013960D01*
X-4263390Y-5007610D01*
X-4274820Y-5003800D01*
X-4286250Y-5005070D01*
X-4297680Y-5010150D01*
G01X-4914900Y-5092700D02*
X-4925060Y-5091430D01*
X-4933950Y-5086350D01*
X-4941570Y-5078730D01*
X-4946650Y-5069840D01*
X-4949190Y-5059680D01*
Y-5049520D01*
X-4946650Y-5039360D01*
X-4941570Y-5030470D01*
X-4933950Y-5022850D01*
X-4925060Y-5017770D01*
X-4914900Y-5016500D01*
X-4904740Y-5017770D01*
X-4895850Y-5022850D01*
X-4888230Y-5030470D01*
X-4883150Y-5039360D01*
X-4880610Y-5049520D01*
Y-5059680D01*
X-4883150Y-5069840D01*
X-4888230Y-5078730D01*
X-4895850Y-5086350D01*
X-4904740Y-5091430D01*
X-4914900Y-5092700D01*
G01X-4904740Y-5072380D02*
X-4889500Y-5092700D01*
G01X-4838700D02*
Y-5016500D01*
X-4853940Y-5031740D01*
G01Y-5092700D02*
X-4823460D01*
G01X-4790440Y-5081270D02*
X-4782820Y-5087620D01*
X-4773930Y-5091430D01*
X-4762500Y-5092700D01*
X-4751070Y-5090160D01*
X-4742180Y-5085080D01*
X-4735830Y-5076190D01*
X-4734560Y-5066030D01*
X-4737100Y-5055870D01*
X-4743450Y-5049520D01*
X-4752340Y-5044440D01*
X-4761230Y-5043170D01*
X-4770120Y-5044440D01*
X-4781550Y-5049520D01*
X-4777740Y-5016500D01*
X-4743450D01*
G01X-4645660Y-2597150D02*
X-4653280Y-2593340D01*
X-4662170Y-2590800D01*
X-4672330D01*
X-4683760Y-2594610D01*
X-4692650Y-2600960D01*
X-4699000Y-2608580D01*
X-4704080Y-2621280D01*
X-4705350Y-2632710D01*
X-4702810Y-2644140D01*
X-4699000Y-2651760D01*
X-4691380Y-2659380D01*
X-4682490Y-2664460D01*
X-4673600Y-2667000D01*
X-4664710D01*
X-4655820Y-2664460D01*
X-4648200Y-2660650D01*
X-4641850Y-2655570D01*
G01X-4597400Y-2667000D02*
Y-2590800D01*
X-4612640Y-2606040D01*
G01Y-2667000D02*
X-4582160D01*
G01X-4545330Y-2603500D02*
X-4537710Y-2595880D01*
X-4528820Y-2592070D01*
X-4518660Y-2590800D01*
X-4505960Y-2593340D01*
X-4497070Y-2599690D01*
X-4494530Y-2607310D01*
X-4495800Y-2614930D01*
X-4500880Y-2621280D01*
X-4526280Y-2633980D01*
X-4537710Y-2642870D01*
X-4545330Y-2655570D01*
X-4547870Y-2667000D01*
X-4494530D01*
G01X-4472940Y-2655570D02*
X-4465320Y-2661920D01*
X-4456430Y-2665730D01*
X-4445000Y-2667000D01*
X-4433570Y-2664460D01*
X-4424680Y-2659380D01*
X-4418330Y-2650490D01*
X-4417060Y-2640330D01*
X-4419600Y-2630170D01*
X-4425950Y-2623820D01*
X-4434840Y-2618740D01*
X-4443730Y-2617470D01*
X-4452620Y-2618740D01*
X-4464050Y-2623820D01*
X-4460240Y-2590800D01*
X-4425950D01*
G01X-4501340Y-309880D02*
X-4577540D01*
Y-278130D01*
X-4573730Y-267970D01*
X-4568650Y-261620D01*
X-4558490Y-259080D01*
X-4548330Y-261620D01*
X-4541980Y-269240D01*
X-4538170Y-278130D01*
Y-309880D01*
G01Y-278130D02*
X-4501340Y-259080D01*
G01X-4564840Y-232410D02*
X-4572460Y-224790D01*
X-4576270Y-215900D01*
X-4577540Y-205740D01*
X-4575000Y-193040D01*
X-4568650Y-184150D01*
X-4561030Y-181610D01*
X-4553410Y-182880D01*
X-4547060Y-187960D01*
X-4534360Y-213360D01*
X-4525470Y-224790D01*
X-4512770Y-232410D01*
X-4501340Y-234950D01*
Y-181610D01*
G01Y-132080D02*
X-4577540D01*
X-4562300Y-147320D01*
G01X-4501340D02*
Y-116840D01*
G01X-4564840Y-80010D02*
X-4572460Y-72390D01*
X-4576270Y-63500D01*
X-4577540Y-53340D01*
X-4575000Y-40640D01*
X-4568650Y-31750D01*
X-4561030Y-29210D01*
X-4553410Y-30480D01*
X-4547060Y-35560D01*
X-4534360Y-60960D01*
X-4525470Y-72390D01*
X-4512770Y-80010D01*
X-4501340Y-82550D01*
Y-29210D01*
G01X-4697230Y-325120D02*
X-4701040Y-332740D01*
X-4703580Y-341630D01*
Y-351790D01*
X-4699770Y-363220D01*
X-4693420Y-372110D01*
X-4685800Y-378460D01*
X-4673100Y-383540D01*
X-4661670Y-384810D01*
X-4650240Y-382270D01*
X-4642620Y-378460D01*
X-4635000Y-370840D01*
X-4629920Y-361950D01*
X-4627380Y-353060D01*
Y-344170D01*
X-4629920Y-335280D01*
X-4633730Y-327660D01*
X-4638810Y-321310D01*
G01X-4690880Y-300990D02*
X-4698500Y-293370D01*
X-4702310Y-284480D01*
X-4703580Y-274320D01*
X-4701040Y-261620D01*
X-4694690Y-252730D01*
X-4687070Y-250190D01*
X-4679450Y-251460D01*
X-4673100Y-256540D01*
X-4660400Y-281940D01*
X-4651510Y-293370D01*
X-4638810Y-300990D01*
X-4627380Y-303530D01*
Y-250190D01*
G01X-4659130Y-224790D02*
X-4668020Y-215900D01*
X-4673100Y-208280D01*
X-4675640Y-198120D01*
X-4673100Y-189230D01*
X-4668020Y-182880D01*
X-4660400Y-177800D01*
X-4651510Y-176530D01*
X-4643890Y-177800D01*
X-4636270Y-182880D01*
X-4629920Y-190500D01*
X-4627380Y-199390D01*
X-4629920Y-209550D01*
X-4637540Y-218440D01*
X-4648970Y-223520D01*
X-4661670Y-224790D01*
X-4678180Y-222250D01*
X-4687070Y-218440D01*
X-4695960Y-212090D01*
X-4702310Y-203200D01*
X-4703580Y-194310D01*
X-4701040Y-185420D01*
X-4694690Y-179070D01*
G01X-4636270Y-146050D02*
X-4629920Y-137160D01*
X-4627380Y-127000D01*
X-4629920Y-116840D01*
X-4637540Y-107950D01*
X-4648970Y-101600D01*
X-4660400Y-99060D01*
X-4674370D01*
X-4685800Y-101600D01*
X-4695960Y-107950D01*
X-4701040Y-115570D01*
X-4703580Y-124460D01*
X-4701040Y-134620D01*
X-4695960Y-142240D01*
X-4688340Y-147320D01*
X-4678180Y-149860D01*
X-4669290Y-147320D01*
X-4660400Y-140970D01*
X-4655320Y-133350D01*
X-4654050Y-124460D01*
X-4656590Y-114300D01*
X-4662940Y-106680D01*
X-4674370Y-99060D01*
G01X-4644170Y168750D02*
X-4637820Y161130D01*
X-4630200Y156050D01*
X-4621310Y153510D01*
X-4611150Y156050D01*
X-4603530Y161130D01*
X-4595910Y168750D01*
X-4593370Y178910D01*
Y229710D01*
G01X-4570510Y168750D02*
X-4562890Y159860D01*
X-4552730Y154780D01*
X-4541300Y153510D01*
X-4531140Y154780D01*
X-4520980Y161130D01*
X-4514630Y168750D01*
X-4513360Y176370D01*
X-4515900Y185260D01*
X-4524790Y191610D01*
X-4533680Y194150D01*
X-4545110D01*
G01X-4533680D02*
X-4526060Y197960D01*
X-4519710Y204310D01*
X-4517170Y211930D01*
X-4519710Y219550D01*
X-4526060Y225900D01*
X-4537490Y229710D01*
X-4548920Y228440D01*
X-4560350Y223360D01*
G01X-4490500Y217010D02*
X-4482880Y224630D01*
X-4473990Y228440D01*
X-4463830Y229710D01*
X-4451130Y227170D01*
X-4442240Y220820D01*
X-4439700Y213200D01*
X-4440970Y205580D01*
X-4446050Y199230D01*
X-4471450Y186530D01*
X-4482880Y177640D01*
X-4490500Y164940D01*
X-4493040Y153510D01*
X-4439700D01*
G01X-4488850Y-6793930D02*
X-4479960Y-6785040D01*
X-4472340Y-6779960D01*
X-4462180Y-6777420D01*
X-4453290Y-6779960D01*
X-4446940Y-6785040D01*
X-4441860Y-6792660D01*
X-4440590Y-6801550D01*
X-4441860Y-6809170D01*
X-4446940Y-6816790D01*
X-4454560Y-6823140D01*
X-4463450Y-6825680D01*
X-4473610Y-6823140D01*
X-4482500Y-6815520D01*
X-4487580Y-6804090D01*
X-4488850Y-6791390D01*
X-4486310Y-6774880D01*
X-4482500Y-6765990D01*
X-4476150Y-6757100D01*
X-4467260Y-6750750D01*
X-4458370Y-6749480D01*
X-4449480Y-6752020D01*
X-4443130Y-6758370D01*
G01X-4105910Y-5687910D02*
X-4074160Y-5611710D01*
X-4042410Y-5687910D01*
G01X-4053840Y-5661240D02*
X-4094480D01*
G01X-4127500Y-5600700D02*
G03I50800J-50800D01*
G01X-3568700Y-2628900D02*
X-4178300D01*
Y-2146300D01*
X-3898900D01*
Y-2362200D01*
X-3543300D01*
Y-2628900D01*
X-3568700D01*
G01X-4292600Y-2463800D02*
X-4216400D01*
G01X-4292600Y-2493010D02*
Y-2434590D01*
G01X-4216400Y-2413000D02*
X-4292600D01*
Y-2382520D01*
X-4288790Y-2372360D01*
X-4279900Y-2364740D01*
X-4269740Y-2362200D01*
X-4259580Y-2364740D01*
X-4251960Y-2371090D01*
X-4248150Y-2382520D01*
Y-2413000D01*
G01X-4216400Y-2311400D02*
X-4292600D01*
X-4277360Y-2326640D01*
G01X-4216400D02*
Y-2296160D01*
G01Y-2235200D02*
X-4292600D01*
X-4277360Y-2250440D01*
G01X-4216400D02*
Y-2219960D01*
G01X-4254500Y-2133600D02*
X-2628900D01*
Y-1257300D01*
X-4254500D01*
Y-2133600D01*
G01X-4015990Y-1933490D02*
Y-2043500D01*
X-4116010D01*
Y-1843500D01*
X-4015990D01*
Y-1933490D01*
G01X-4145280Y-934720D02*
Y-1010920D01*
G01X-4174490Y-934720D02*
X-4116070D01*
G01X-4094480Y-1010920D02*
Y-934720D01*
X-4064000D01*
X-4053840Y-938530D01*
X-4046220Y-947420D01*
X-4043680Y-957580D01*
X-4046220Y-967740D01*
X-4052570Y-975360D01*
X-4064000Y-979170D01*
X-4094480D01*
G01X-4017010D02*
X-4008120Y-970280D01*
X-4000500Y-965200D01*
X-3990340Y-962660D01*
X-3981450Y-965200D01*
X-3975100Y-970280D01*
X-3970020Y-977900D01*
X-3968750Y-986790D01*
X-3970020Y-994410D01*
X-3975100Y-1002030D01*
X-3982720Y-1008380D01*
X-3991610Y-1010920D01*
X-4001770Y-1008380D01*
X-4010660Y-1000760D01*
X-4015740Y-989330D01*
X-4017010Y-976630D01*
X-4014470Y-960120D01*
X-4010660Y-951230D01*
X-4004310Y-942340D01*
X-3995420Y-935990D01*
X-3986530Y-934720D01*
X-3977640Y-937260D01*
X-3971290Y-943610D01*
G01X-3916680Y-1010920D02*
X-3907790Y-1009650D01*
X-3897630Y-1005840D01*
X-3891280Y-999490D01*
X-3888740Y-990600D01*
X-3891280Y-981710D01*
X-3898900Y-974090D01*
X-3910330Y-970280D01*
X-3923030D01*
X-3930650Y-967740D01*
X-3937000Y-961390D01*
X-3939540Y-952500D01*
X-3935730Y-943610D01*
X-3926840Y-937260D01*
X-3916680Y-934720D01*
X-3906520Y-937260D01*
X-3897630Y-943610D01*
X-3893820Y-952500D01*
X-3896360Y-961390D01*
X-3902710Y-967740D01*
X-3910330Y-970280D01*
X-3923030D01*
X-3934460Y-974090D01*
X-3942080Y-981710D01*
X-3944620Y-990600D01*
X-3942080Y-999490D01*
X-3935730Y-1005840D01*
X-3925570Y-1009650D01*
X-3916680Y-1010920D01*
G01X-4112290Y994540D02*
Y1070740D01*
X-4086890D01*
X-4076730Y1066930D01*
X-4069110Y1061850D01*
X-4062760Y1054230D01*
X-4057680Y1045340D01*
X-4056410Y1032640D01*
X-4057680Y1019940D01*
X-4062760Y1011050D01*
X-4069110Y1003430D01*
X-4076730Y998350D01*
X-4086890Y994540D01*
X-4112290D01*
G01X-4008150D02*
Y1070740D01*
X-4023390Y1055500D01*
G01Y994540D02*
X-3992910D01*
G01X-3959890Y1009780D02*
X-3952270Y1000890D01*
X-3942110Y995810D01*
X-3930680Y994540D01*
X-3920520Y995810D01*
X-3910360Y1002160D01*
X-3904010Y1009780D01*
X-3902740Y1017400D01*
X-3905280Y1026290D01*
X-3914170Y1032640D01*
X-3923060Y1035180D01*
X-3934490D01*
G01X-3923060D02*
X-3915440Y1038990D01*
X-3909090Y1045340D01*
X-3906550Y1052960D01*
X-3909090Y1060580D01*
X-3915440Y1066930D01*
X-3926870Y1070740D01*
X-3938300Y1069470D01*
X-3949730Y1064390D01*
G01X-3708400Y-5483860D02*
X-3702050Y-5491480D01*
X-3694430Y-5496560D01*
X-3685540Y-5499100D01*
X-3675380Y-5496560D01*
X-3667760Y-5491480D01*
X-3660140Y-5483860D01*
X-3657600Y-5473700D01*
Y-5422900D01*
G01X-3606800Y-5499100D02*
Y-5422900D01*
X-3622040Y-5438140D01*
G01Y-5499100D02*
X-3591560D01*
G01X-3530600D02*
X-3521710Y-5497830D01*
X-3511550Y-5494020D01*
X-3505200Y-5487670D01*
X-3502660Y-5478780D01*
X-3505200Y-5469890D01*
X-3512820Y-5462270D01*
X-3524250Y-5458460D01*
X-3536950D01*
X-3544570Y-5455920D01*
X-3550920Y-5449570D01*
X-3553460Y-5440680D01*
X-3549650Y-5431790D01*
X-3540760Y-5425440D01*
X-3530600Y-5422900D01*
X-3520440Y-5425440D01*
X-3511550Y-5431790D01*
X-3507740Y-5440680D01*
X-3510280Y-5449570D01*
X-3516630Y-5455920D01*
X-3524250Y-5458460D01*
X-3536950D01*
X-3548380Y-5462270D01*
X-3556000Y-5469890D01*
X-3558540Y-5478780D01*
X-3556000Y-5487670D01*
X-3549650Y-5494020D01*
X-3539490Y-5497830D01*
X-3530600Y-5499100D01*
G01X-3693160Y-5073650D02*
X-3700780Y-5069840D01*
X-3709670Y-5067300D01*
X-3719830D01*
X-3731260Y-5071110D01*
X-3740150Y-5077460D01*
X-3746500Y-5085080D01*
X-3751580Y-5097780D01*
X-3752850Y-5109210D01*
X-3750310Y-5120640D01*
X-3746500Y-5128260D01*
X-3738880Y-5135880D01*
X-3729990Y-5140960D01*
X-3721100Y-5143500D01*
X-3712210D01*
X-3703320Y-5140960D01*
X-3695700Y-5137150D01*
X-3689350Y-5132070D01*
G01X-3669030Y-5080000D02*
X-3661410Y-5072380D01*
X-3652520Y-5068570D01*
X-3642360Y-5067300D01*
X-3629660Y-5069840D01*
X-3620770Y-5076190D01*
X-3618230Y-5083810D01*
X-3619500Y-5091430D01*
X-3624580Y-5097780D01*
X-3649980Y-5110480D01*
X-3661410Y-5119370D01*
X-3669030Y-5132070D01*
X-3671570Y-5143500D01*
X-3618230D01*
G01X-3568700D02*
Y-5067300D01*
X-3583940Y-5082540D01*
G01Y-5143500D02*
X-3553460D01*
G01X-3514090Y-5134610D02*
X-3505200Y-5140960D01*
X-3495040Y-5143500D01*
X-3484880Y-5140960D01*
X-3475990Y-5133340D01*
X-3469640Y-5121910D01*
X-3467100Y-5110480D01*
Y-5096510D01*
X-3469640Y-5085080D01*
X-3475990Y-5074920D01*
X-3483610Y-5069840D01*
X-3492500Y-5067300D01*
X-3502660Y-5069840D01*
X-3510280Y-5074920D01*
X-3515360Y-5082540D01*
X-3517900Y-5092700D01*
X-3515360Y-5101590D01*
X-3509010Y-5110480D01*
X-3501390Y-5115560D01*
X-3492500Y-5116830D01*
X-3482340Y-5114290D01*
X-3474720Y-5107940D01*
X-3467100Y-5096510D01*
G01X-4064000Y-5130800D02*
Y-5054600D01*
X-4032250D01*
X-4022090Y-5058410D01*
X-4015740Y-5063490D01*
X-4013200Y-5073650D01*
X-4015740Y-5083810D01*
X-4023360Y-5090160D01*
X-4032250Y-5093970D01*
X-4064000D01*
G01X-4032250D02*
X-4013200Y-5130800D01*
G01X-3962400D02*
Y-5054600D01*
X-3977640Y-5069840D01*
G01Y-5130800D02*
X-3947160D01*
G01X-3886200D02*
Y-5054600D01*
X-3901440Y-5069840D01*
G01Y-5130800D02*
X-3870960D01*
G01X-3834130Y-5067300D02*
X-3826510Y-5059680D01*
X-3817620Y-5055870D01*
X-3807460Y-5054600D01*
X-3794760Y-5057140D01*
X-3785870Y-5063490D01*
X-3783330Y-5071110D01*
X-3784600Y-5078730D01*
X-3789680Y-5085080D01*
X-3815080Y-5097780D01*
X-3826510Y-5106670D01*
X-3834130Y-5119370D01*
X-3836670Y-5130800D01*
X-3783330D01*
G01X-4035270Y-5267810D02*
Y-5337810D01*
G03X-4015260Y-5357800I20003J13D01*
G01X-3955260D01*
G03X-3935250Y-5337810I7J20003D01*
G01Y-5177790D01*
G03X-3955260Y-5157800I-20003J-13D01*
G01X-4015260D01*
G03X-4035270Y-5177790I-7J-20003D01*
G01Y-5267810D01*
G01X-3818890Y-2233510D02*
X-3811270Y-2225890D01*
X-3802380Y-2222080D01*
X-3792220Y-2220810D01*
X-3779520Y-2223350D01*
X-3770630Y-2229700D01*
X-3768090Y-2237320D01*
X-3769360Y-2244940D01*
X-3774440Y-2251290D01*
X-3799840Y-2263990D01*
X-3811270Y-2272880D01*
X-3818890Y-2285580D01*
X-3821430Y-2297010D01*
X-3768090D01*
G01X-3848100Y-2209800D02*
G03I50800J-50800D01*
G01X-3530600Y-6418580D02*
X-3454400D01*
G01X-3530600Y-6447790D02*
Y-6389370D01*
G01X-3454400Y-6367780D02*
X-3530600D01*
Y-6337300D01*
X-3526790Y-6327140D01*
X-3517900Y-6319520D01*
X-3507740Y-6316980D01*
X-3497580Y-6319520D01*
X-3489960Y-6325870D01*
X-3486150Y-6337300D01*
Y-6367780D01*
G01X-3454400Y-6250940D02*
X-3530600D01*
X-3475990Y-6297930D01*
Y-6234430D01*
G01X-3465830Y-6217920D02*
X-3459480Y-6210300D01*
X-3455670Y-6201410D01*
X-3454400Y-6189980D01*
X-3456940Y-6178550D01*
X-3462020Y-6169660D01*
X-3470910Y-6163310D01*
X-3481070Y-6162040D01*
X-3491230Y-6164580D01*
X-3497580Y-6170930D01*
X-3502660Y-6179820D01*
X-3503930Y-6188710D01*
X-3502660Y-6197600D01*
X-3497580Y-6209030D01*
X-3530600Y-6205220D01*
Y-6170930D01*
G01X-3145900Y-6362500D02*
X-3403400D01*
Y-5782500D01*
X-3323400Y-5702500D01*
X-3140900D01*
G01X-3619630Y-6440300D02*
Y-6516500D01*
X-3604390Y-6501260D01*
G01Y-6440300D02*
X-3634870D01*
G01X-3492500Y-6499860D02*
X-3486150Y-6507480D01*
X-3478530Y-6512560D01*
X-3469640Y-6515100D01*
X-3459480Y-6512560D01*
X-3451860Y-6507480D01*
X-3444240Y-6499860D01*
X-3441700Y-6489700D01*
Y-6438900D01*
G01X-3415030Y-6451600D02*
X-3407410Y-6443980D01*
X-3398520Y-6440170D01*
X-3388360Y-6438900D01*
X-3375660Y-6441440D01*
X-3366770Y-6447790D01*
X-3364230Y-6455410D01*
X-3365500Y-6463030D01*
X-3370580Y-6469380D01*
X-3395980Y-6482080D01*
X-3407410Y-6490970D01*
X-3415030Y-6503670D01*
X-3417570Y-6515100D01*
X-3364230D01*
G01X-3314700D02*
Y-6438900D01*
X-3329940Y-6454140D01*
G01Y-6515100D02*
X-3299460D01*
G01X-3323640Y-5531160D02*
G03I-10300J0D01*
G01X-3363940Y-5386160D02*
X-3391440D01*
Y-5556160D01*
X-3373940D01*
G01X-3288940D02*
X-3231440D01*
G01X-3429000Y-5215470D02*
X-3423920Y-5211660D01*
X-3420110Y-5205310D01*
X-3417570Y-5196420D01*
X-3420110Y-5188800D01*
X-3425190Y-5183720D01*
X-3434080Y-5179910D01*
X-3468370D01*
Y-5256110D01*
X-3426460D01*
X-3417570Y-5251030D01*
X-3412490Y-5243410D01*
X-3409950Y-5234520D01*
X-3412490Y-5225630D01*
X-3420110Y-5218010D01*
X-3429000Y-5215470D01*
X-3468370D01*
G01X-3492500Y-5168900D02*
G03I50800J-50800D01*
G01X-3340100Y-4775200D02*
X-3098800D01*
Y-5232400D01*
X-3352800D01*
Y-4775200D01*
X-3327400D01*
G01X-3233940Y-5386160D02*
X-3296440D01*
G01X-3227050Y-4526000D02*
Y-4586000D01*
G01X-3086100Y-3369310D02*
Y-4356000D01*
X-3289300D01*
Y-2835910D01*
G01X-3214550Y-4356000D02*
X-3264550D01*
Y-4421000D01*
G01X-3129280Y-4326890D02*
X-3263900D01*
Y-4258310D01*
X-3111500D01*
Y-4326890D01*
X-3129280D01*
G01Y-4237990D02*
X-3263900D01*
Y-4169410D01*
X-3111500D01*
Y-4237990D01*
X-3129280D01*
G01Y-4149090D02*
X-3263900D01*
Y-4080510D01*
X-3111500D01*
Y-4149090D01*
X-3129280D01*
G01Y-3704590D02*
X-3263900D01*
Y-3636010D01*
X-3111500D01*
Y-3704590D01*
X-3129280D01*
G01Y-3882390D02*
X-3263900D01*
Y-3813810D01*
X-3111500D01*
Y-3882390D01*
X-3129280D01*
G01Y-3793490D02*
X-3263900D01*
Y-3724910D01*
X-3111500D01*
Y-3793490D01*
X-3129280D01*
G01Y-3971290D02*
X-3263900D01*
Y-3902710D01*
X-3111500D01*
Y-3971290D01*
X-3129280D01*
G01Y-4060190D02*
X-3263900D01*
Y-3991610D01*
X-3111500D01*
Y-4060190D01*
X-3129280D01*
G01Y-3615690D02*
X-3263900D01*
Y-3547110D01*
X-3111500D01*
Y-3615690D01*
X-3129280D01*
G01Y-3348990D02*
X-3263900D01*
Y-3280410D01*
X-3111500D01*
Y-3348990D01*
X-3129280D01*
G01Y-3260090D02*
X-3263900D01*
Y-3191510D01*
X-3111500D01*
Y-3260090D01*
X-3129280D01*
G01Y-3526790D02*
X-3263900D01*
Y-3458210D01*
X-3111500D01*
Y-3526790D01*
X-3129280D01*
G01Y-3437890D02*
X-3263900D01*
Y-3369310D01*
X-3111500D01*
Y-3437890D01*
X-3129280D01*
G01X-3263900Y-2959100D02*
X-3289300D01*
G01Y-2835910D02*
Y-2692400D01*
X-3086100D01*
Y-2835910D01*
G01X-3190390Y-2818610D02*
X-3120390D01*
G03X-3100400Y-2798600I-13J20003D01*
G01Y-2738600D01*
G03X-3120390Y-2718590I-20003J7D01*
G01X-3280410D01*
G03X-3300400Y-2738600I13J-20003D01*
G01Y-2798600D01*
G03X-3280410Y-2818610I20003J-7D01*
G01X-3190390D01*
G01X-3129280Y-3171190D02*
X-3263900D01*
Y-3102610D01*
X-3111500D01*
Y-3171190D01*
X-3129280D01*
G01Y-3082290D02*
X-3263900D01*
Y-3013710D01*
X-3111500D01*
Y-3082290D01*
X-3129280D01*
G01Y-2993390D02*
X-3263900D01*
Y-2924810D01*
X-3111500D01*
Y-2993390D01*
X-3129280D01*
G01Y-2904490D02*
X-3263900D01*
Y-2835910D01*
X-3111500D01*
Y-2904490D01*
X-3129280D01*
G01X-3416300Y-2451100D02*
X-3340100D01*
G01X-3416300Y-2480310D02*
Y-2421890D01*
G01X-3340100Y-2400300D02*
X-3416300D01*
Y-2369820D01*
X-3412490Y-2359660D01*
X-3403600Y-2352040D01*
X-3393440Y-2349500D01*
X-3383280Y-2352040D01*
X-3375660Y-2358390D01*
X-3371850Y-2369820D01*
Y-2400300D01*
G01X-3403600Y-2322830D02*
X-3411220Y-2315210D01*
X-3415030Y-2306320D01*
X-3416300Y-2296160D01*
X-3413760Y-2283460D01*
X-3407410Y-2274570D01*
X-3399790Y-2272030D01*
X-3392170Y-2273300D01*
X-3385820Y-2278380D01*
X-3373120Y-2303780D01*
X-3364230Y-2315210D01*
X-3351530Y-2322830D01*
X-3340100Y-2325370D01*
Y-2272030D01*
G01Y-2222500D02*
X-3341370Y-2213610D01*
X-3345180Y-2203450D01*
X-3351530Y-2197100D01*
X-3360420Y-2194560D01*
X-3369310Y-2197100D01*
X-3376930Y-2204720D01*
X-3380740Y-2216150D01*
Y-2228850D01*
X-3383280Y-2236470D01*
X-3389630Y-2242820D01*
X-3398520Y-2245360D01*
X-3407410Y-2241550D01*
X-3413760Y-2232660D01*
X-3416300Y-2222500D01*
X-3413760Y-2212340D01*
X-3407410Y-2203450D01*
X-3398520Y-2199640D01*
X-3389630Y-2202180D01*
X-3383280Y-2208530D01*
X-3380740Y-2216150D01*
Y-2228850D01*
X-3376930Y-2240280D01*
X-3369310Y-2247900D01*
X-3360420Y-2250440D01*
X-3351530Y-2247900D01*
X-3345180Y-2241550D01*
X-3341370Y-2231390D01*
X-3340100Y-2222500D01*
G01X-3517900Y-2451100D02*
X-3441700D01*
G01X-3517900Y-2480310D02*
Y-2421890D01*
G01X-3441700Y-2400300D02*
X-3517900D01*
Y-2369820D01*
X-3514090Y-2359660D01*
X-3505200Y-2352040D01*
X-3495040Y-2349500D01*
X-3484880Y-2352040D01*
X-3477260Y-2358390D01*
X-3473450Y-2369820D01*
Y-2400300D01*
G01X-3505200Y-2322830D02*
X-3512820Y-2315210D01*
X-3516630Y-2306320D01*
X-3517900Y-2296160D01*
X-3515360Y-2283460D01*
X-3509010Y-2274570D01*
X-3501390Y-2272030D01*
X-3493770Y-2273300D01*
X-3487420Y-2278380D01*
X-3474720Y-2303780D01*
X-3465830Y-2315210D01*
X-3453130Y-2322830D01*
X-3441700Y-2325370D01*
Y-2272030D01*
G01X-3450590Y-2244090D02*
X-3444240Y-2235200D01*
X-3441700Y-2225040D01*
X-3444240Y-2214880D01*
X-3451860Y-2205990D01*
X-3463290Y-2199640D01*
X-3474720Y-2197100D01*
X-3488690D01*
X-3500120Y-2199640D01*
X-3510280Y-2205990D01*
X-3515360Y-2213610D01*
X-3517900Y-2222500D01*
X-3515360Y-2232660D01*
X-3510280Y-2240280D01*
X-3502660Y-2245360D01*
X-3492500Y-2247900D01*
X-3483610Y-2245360D01*
X-3474720Y-2239010D01*
X-3469640Y-2231390D01*
X-3468370Y-2222500D01*
X-3470910Y-2212340D01*
X-3477260Y-2204720D01*
X-3488690Y-2197100D01*
G01X-3248660Y-2597150D02*
X-3256280Y-2593340D01*
X-3265170Y-2590800D01*
X-3275330D01*
X-3286760Y-2594610D01*
X-3295650Y-2600960D01*
X-3302000Y-2608580D01*
X-3307080Y-2621280D01*
X-3308350Y-2632710D01*
X-3305810Y-2644140D01*
X-3302000Y-2651760D01*
X-3294380Y-2659380D01*
X-3285490Y-2664460D01*
X-3276600Y-2667000D01*
X-3267710D01*
X-3258820Y-2664460D01*
X-3251200Y-2660650D01*
X-3244850Y-2655570D01*
G01X-3200400Y-2667000D02*
Y-2590800D01*
X-3215640Y-2606040D01*
G01Y-2667000D02*
X-3185160D01*
G01X-3148330Y-2603500D02*
X-3140710Y-2595880D01*
X-3131820Y-2592070D01*
X-3121660Y-2590800D01*
X-3108960Y-2593340D01*
X-3100070Y-2599690D01*
X-3097530Y-2607310D01*
X-3098800Y-2614930D01*
X-3103880Y-2621280D01*
X-3129280Y-2633980D01*
X-3140710Y-2642870D01*
X-3148330Y-2655570D01*
X-3150870Y-2667000D01*
X-3097530D01*
G01X-3032760D02*
Y-2590800D01*
X-3079750Y-2645410D01*
X-3016250D01*
G01X-3557210Y-1953510D02*
Y-1843500D01*
X-3457190D01*
Y-2043500D01*
X-3557210D01*
Y-1953510D01*
G01X-3220490Y-1933490D02*
Y-2043500D01*
X-3320510D01*
Y-1843500D01*
X-3220490D01*
Y-1933490D01*
G01X-3238590Y-1483270D02*
Y-1593280D01*
X-3338610D01*
Y-1393280D01*
X-3238590D01*
Y-1483270D01*
G01X-3421790D02*
Y-1593280D01*
X-3521810D01*
Y-1393280D01*
X-3421790D01*
Y-1483270D01*
G01X-2956560Y-6394450D02*
X-2964180Y-6390640D01*
X-2973070Y-6388100D01*
X-2983230D01*
X-2994660Y-6391910D01*
X-3003550Y-6398260D01*
X-3009900Y-6405880D01*
X-3014980Y-6418580D01*
X-3016250Y-6430010D01*
X-3013710Y-6441440D01*
X-3009900Y-6449060D01*
X-3002280Y-6456680D01*
X-2993390Y-6461760D01*
X-2984500Y-6464300D01*
X-2975610D01*
X-2966720Y-6461760D01*
X-2959100Y-6457950D01*
X-2952750Y-6452870D01*
G01X-2932430Y-6400800D02*
X-2924810Y-6393180D01*
X-2915920Y-6389370D01*
X-2905760Y-6388100D01*
X-2893060Y-6390640D01*
X-2884170Y-6396990D01*
X-2881630Y-6404610D01*
X-2882900Y-6412230D01*
X-2887980Y-6418580D01*
X-2913380Y-6431280D01*
X-2924810Y-6440170D01*
X-2932430Y-6452870D01*
X-2934970Y-6464300D01*
X-2881630D01*
G01X-2832100D02*
Y-6388100D01*
X-2847340Y-6403340D01*
G01Y-6464300D02*
X-2816860D01*
G01X-2740660D02*
Y-6388100D01*
X-2787650Y-6442710D01*
X-2724150D01*
G01X-3005900Y-5702500D02*
X-2823400D01*
X-2743400Y-5782500D01*
Y-6362500D01*
X-3000900D01*
G01X-3104770Y-6463160D02*
X-3112390Y-6456810D01*
X-3121280Y-6453000D01*
X-3132710Y-6451730D01*
X-3144140Y-6454270D01*
X-3153030Y-6459350D01*
X-3159380Y-6468240D01*
X-3160650Y-6478400D01*
X-3158110Y-6488560D01*
X-3151760Y-6494910D01*
X-3142870Y-6499990D01*
X-3133980Y-6501260D01*
X-3125090Y-6499990D01*
X-3113660Y-6494910D01*
X-3117470Y-6527930D01*
X-3151760D01*
G01X-3042920Y-5532120D02*
X-3119120D01*
Y-5506720D01*
X-3115310Y-5496560D01*
X-3110230Y-5488940D01*
X-3102610Y-5482590D01*
X-3093720Y-5477510D01*
X-3081020Y-5476240D01*
X-3068320Y-5477510D01*
X-3059430Y-5482590D01*
X-3051810Y-5488940D01*
X-3046730Y-5496560D01*
X-3042920Y-5506720D01*
Y-5532120D01*
G01Y-5412740D02*
X-3119120D01*
X-3064510Y-5459730D01*
Y-5396230D01*
G01X-3171440Y-5556160D02*
X-3141440D01*
G01D02*
Y-5386160D01*
X-3171440D01*
G01X-2880900Y-5762500D02*
X-2968400D01*
G01X-2925900Y-5805000D02*
Y-5717500D01*
G01X-2985450Y-5522260D02*
X-2989260Y-5529880D01*
X-2991800Y-5538770D01*
Y-5548930D01*
X-2987990Y-5560360D01*
X-2981640Y-5569250D01*
X-2974020Y-5575600D01*
X-2961320Y-5580680D01*
X-2949890Y-5581950D01*
X-2938460Y-5579410D01*
X-2930840Y-5575600D01*
X-2923220Y-5567980D01*
X-2918140Y-5559090D01*
X-2915600Y-5550200D01*
Y-5541310D01*
X-2918140Y-5532420D01*
X-2921950Y-5524800D01*
X-2927030Y-5518450D01*
G01X-2979100Y-5498130D02*
X-2986720Y-5490510D01*
X-2990530Y-5481620D01*
X-2991800Y-5471460D01*
X-2989260Y-5458760D01*
X-2982910Y-5449870D01*
X-2975290Y-5447330D01*
X-2967670Y-5448600D01*
X-2961320Y-5453680D01*
X-2948620Y-5479080D01*
X-2939730Y-5490510D01*
X-2927030Y-5498130D01*
X-2915600Y-5500670D01*
Y-5447330D01*
G01Y-5397800D02*
X-2991800D01*
X-2976560Y-5413040D01*
G01X-2915600D02*
Y-5382560D01*
G01X-2927030Y-5349540D02*
X-2920680Y-5341920D01*
X-2916870Y-5333030D01*
X-2915600Y-5321600D01*
X-2918140Y-5310170D01*
X-2923220Y-5301280D01*
X-2932110Y-5294930D01*
X-2942270Y-5293660D01*
X-2952430Y-5296200D01*
X-2958780Y-5302550D01*
X-2963860Y-5311440D01*
X-2965130Y-5320330D01*
X-2963860Y-5329220D01*
X-2958780Y-5340650D01*
X-2991800Y-5336840D01*
Y-5302550D01*
G01X-2230000Y-5287500D02*
Y-5470000D01*
X-2310000Y-5550000D01*
X-2890000D01*
Y-5292500D01*
G01Y-5147500D02*
Y-4890000D01*
X-2310000D01*
X-2230000Y-4970000D01*
Y-5152500D01*
G01X-2988310Y-4828540D02*
X-2934970Y-4752340D01*
G01X-2988310D02*
X-2934970Y-4828540D01*
G01X-2885440D02*
Y-4752340D01*
X-2900680Y-4767580D01*
G01Y-4828540D02*
X-2870200D01*
G01X-3114550Y-4716000D02*
X-3089550D01*
G01X-2977050Y-4586000D02*
Y-4523500D01*
G01X-2375000Y-4757500D02*
X-2865000Y-4600000D01*
Y-4450000D01*
G01X-2979420Y-4043260D02*
X-2987040Y-4039450D01*
X-2995930Y-4036910D01*
X-3006090D01*
X-3017520Y-4040720D01*
X-3026410Y-4047070D01*
X-3032760Y-4054690D01*
X-3037840Y-4067390D01*
X-3039110Y-4078820D01*
X-3036570Y-4090250D01*
X-3032760Y-4097870D01*
X-3025140Y-4105490D01*
X-3016250Y-4110570D01*
X-3007360Y-4113110D01*
X-2998470D01*
X-2989580Y-4110570D01*
X-2981960Y-4106760D01*
X-2975610Y-4101680D01*
G01X-2938060Y-4076700D02*
G03I-71840J0D01*
G01X-3114550Y-4396000D02*
X-3089550D01*
G01X-2407500Y-3812500D02*
X-2862500Y-3957500D01*
Y-4112500D01*
G01X-3086100Y-2835910D02*
Y-3369310D01*
G01X-3111500Y-2835910D02*
X-3092450D01*
G01X-3129280Y-3082290D02*
X-3100070D01*
G01X-2921000Y-3138170D02*
X-2928620Y-3134360D01*
X-2937510Y-3131820D01*
X-2947670D01*
X-2959100Y-3135630D01*
X-2967990Y-3141980D01*
X-2974340Y-3149600D01*
X-2979420Y-3162300D01*
X-2980690Y-3173730D01*
X-2978150Y-3185160D01*
X-2974340Y-3192780D01*
X-2966720Y-3200400D01*
X-2957830Y-3205480D01*
X-2948940Y-3208020D01*
X-2940050D01*
X-2931160Y-3205480D01*
X-2923540Y-3201670D01*
X-2917190Y-3196590D01*
G01X-2872740Y-3208020D02*
Y-3131820D01*
X-2887980Y-3147060D01*
G01Y-3208020D02*
X-2857500D01*
G01X-2796540D02*
X-2787650Y-3206750D01*
X-2777490Y-3202940D01*
X-2771140Y-3196590D01*
X-2768600Y-3187700D01*
X-2771140Y-3178810D01*
X-2778760Y-3171190D01*
X-2790190Y-3167380D01*
X-2802890D01*
X-2810510Y-3164840D01*
X-2816860Y-3158490D01*
X-2819400Y-3149600D01*
X-2815590Y-3140710D01*
X-2806700Y-3134360D01*
X-2796540Y-3131820D01*
X-2786380Y-3134360D01*
X-2777490Y-3140710D01*
X-2773680Y-3149600D01*
X-2776220Y-3158490D01*
X-2782570Y-3164840D01*
X-2790190Y-3167380D01*
X-2802890D01*
X-2814320Y-3171190D01*
X-2821940Y-3178810D01*
X-2824480Y-3187700D01*
X-2821940Y-3196590D01*
X-2815590Y-3202940D01*
X-2805430Y-3206750D01*
X-2796540Y-3208020D01*
G01X-2705100D02*
Y-3131820D01*
X-2752090Y-3186430D01*
X-2688590D01*
G01X-2926360Y-2970550D02*
X-2933980Y-2966740D01*
X-2942870Y-2964200D01*
X-2953030D01*
X-2964460Y-2968010D01*
X-2973350Y-2974360D01*
X-2979700Y-2981980D01*
X-2984780Y-2994680D01*
X-2986050Y-3006110D01*
X-2983510Y-3017540D01*
X-2979700Y-3025160D01*
X-2972080Y-3032780D01*
X-2963190Y-3037860D01*
X-2954300Y-3040400D01*
X-2945410D01*
X-2936520Y-3037860D01*
X-2928900Y-3034050D01*
X-2922550Y-3028970D01*
G01X-2902230Y-2976900D02*
X-2894610Y-2969280D01*
X-2885720Y-2965470D01*
X-2875560Y-2964200D01*
X-2862860Y-2966740D01*
X-2853970Y-2973090D01*
X-2851430Y-2980710D01*
X-2852700Y-2988330D01*
X-2857780Y-2994680D01*
X-2883180Y-3007380D01*
X-2894610Y-3016270D01*
X-2902230Y-3028970D01*
X-2904770Y-3040400D01*
X-2851430D01*
G01X-2801900Y-2964200D02*
X-2812060Y-2966740D01*
X-2819680Y-2973090D01*
X-2824760Y-2980710D01*
X-2828570Y-2990870D01*
X-2829840Y-3002300D01*
X-2828570Y-3013730D01*
X-2824760Y-3023890D01*
X-2819680Y-3031510D01*
X-2812060Y-3037860D01*
X-2801900Y-3040400D01*
X-2791740Y-3037860D01*
X-2784120Y-3031510D01*
X-2779040Y-3023890D01*
X-2775230Y-3013730D01*
X-2773960Y-3002300D01*
X-2775230Y-2990870D01*
X-2779040Y-2980710D01*
X-2784120Y-2973090D01*
X-2791740Y-2966740D01*
X-2801900Y-2964200D01*
G01X-2710460Y-3040400D02*
Y-2964200D01*
X-2757450Y-3018810D01*
X-2693950D01*
G01X-2908300Y-2159000D02*
Y-2235200D01*
G01X-2937510Y-2159000D02*
X-2879090D01*
G01X-2857500Y-2235200D02*
Y-2159000D01*
X-2827020D01*
X-2816860Y-2162810D01*
X-2809240Y-2171700D01*
X-2806700Y-2181860D01*
X-2809240Y-2192020D01*
X-2815590Y-2199640D01*
X-2827020Y-2203450D01*
X-2857500D01*
G01X-2780030D02*
X-2771140Y-2194560D01*
X-2763520Y-2189480D01*
X-2753360Y-2186940D01*
X-2744470Y-2189480D01*
X-2738120Y-2194560D01*
X-2733040Y-2202180D01*
X-2731770Y-2211070D01*
X-2733040Y-2218690D01*
X-2738120Y-2226310D01*
X-2745740Y-2232660D01*
X-2754630Y-2235200D01*
X-2764790Y-2232660D01*
X-2773680Y-2225040D01*
X-2778760Y-2213610D01*
X-2780030Y-2200910D01*
X-2777490Y-2184400D01*
X-2773680Y-2175510D01*
X-2767330Y-2166620D01*
X-2758440Y-2160270D01*
X-2749550Y-2159000D01*
X-2740660Y-2161540D01*
X-2734310Y-2167890D01*
G01X-2701290Y-2226310D02*
X-2692400Y-2232660D01*
X-2682240Y-2235200D01*
X-2672080Y-2232660D01*
X-2663190Y-2225040D01*
X-2656840Y-2213610D01*
X-2654300Y-2202180D01*
Y-2188210D01*
X-2656840Y-2176780D01*
X-2663190Y-2166620D01*
X-2670810Y-2161540D01*
X-2679700Y-2159000D01*
X-2689860Y-2161540D01*
X-2697480Y-2166620D01*
X-2702560Y-2174240D01*
X-2705100Y-2184400D01*
X-2702560Y-2193290D01*
X-2696210Y-2202180D01*
X-2688590Y-2207260D01*
X-2679700Y-2208530D01*
X-2669540Y-2205990D01*
X-2661920Y-2199640D01*
X-2654300Y-2188210D01*
G01X-2889500Y176850D02*
X-2883150Y169230D01*
X-2875530Y164150D01*
X-2866640Y161610D01*
X-2856480Y164150D01*
X-2848860Y169230D01*
X-2841240Y176850D01*
X-2838700Y187010D01*
Y237810D01*
G01X-2815840Y176850D02*
X-2808220Y167960D01*
X-2798060Y162880D01*
X-2786630Y161610D01*
X-2776470Y162880D01*
X-2766310Y169230D01*
X-2759960Y176850D01*
X-2758690Y184470D01*
X-2761230Y193360D01*
X-2770120Y199710D01*
X-2779010Y202250D01*
X-2790440D01*
G01X-2779010D02*
X-2771390Y206060D01*
X-2765040Y212410D01*
X-2762500Y220030D01*
X-2765040Y227650D01*
X-2771390Y234000D01*
X-2782820Y237810D01*
X-2794250Y236540D01*
X-2805680Y231460D01*
G01X-2739640Y176850D02*
X-2732020Y167960D01*
X-2721860Y162880D01*
X-2710430Y161610D01*
X-2700270Y162880D01*
X-2690110Y169230D01*
X-2683760Y176850D01*
X-2682490Y184470D01*
X-2685030Y193360D01*
X-2693920Y199710D01*
X-2702810Y202250D01*
X-2714240D01*
G01X-2702810D02*
X-2695190Y206060D01*
X-2688840Y212410D01*
X-2686300Y220030D01*
X-2688840Y227650D01*
X-2695190Y234000D01*
X-2706620Y237810D01*
X-2718050Y236540D01*
X-2729480Y231460D01*
G01X-3084220Y491160D02*
X-3164220D01*
Y991160D01*
X-3034220D01*
G01D02*
Y1066160D01*
X-2264220D01*
Y991160D01*
X-2134220D01*
Y491160D01*
X-2219220D01*
G01X-2707640Y-6858000D02*
Y-6781800D01*
X-2682240D01*
X-2672080Y-6785610D01*
X-2664460Y-6790690D01*
X-2658110Y-6798310D01*
X-2653030Y-6807200D01*
X-2651760Y-6819900D01*
X-2653030Y-6832600D01*
X-2658110Y-6841490D01*
X-2664460Y-6849110D01*
X-2672080Y-6854190D01*
X-2682240Y-6858000D01*
X-2707640D01*
G01X-2603500D02*
X-2594610Y-6856730D01*
X-2584450Y-6852920D01*
X-2578100Y-6846570D01*
X-2575560Y-6837680D01*
X-2578100Y-6828790D01*
X-2585720Y-6821170D01*
X-2597150Y-6817360D01*
X-2609850D01*
X-2617470Y-6814820D01*
X-2623820Y-6808470D01*
X-2626360Y-6799580D01*
X-2622550Y-6790690D01*
X-2613660Y-6784340D01*
X-2603500Y-6781800D01*
X-2593340Y-6784340D01*
X-2584450Y-6790690D01*
X-2580640Y-6799580D01*
X-2583180Y-6808470D01*
X-2589530Y-6814820D01*
X-2597150Y-6817360D01*
X-2609850D01*
X-2621280Y-6821170D01*
X-2628900Y-6828790D01*
X-2631440Y-6837680D01*
X-2628900Y-6846570D01*
X-2622550Y-6852920D01*
X-2612390Y-6856730D01*
X-2603500Y-6858000D01*
G01X-2564900Y-6756300D02*
X-2685900D01*
Y-6045300D01*
X-2562400D01*
G01X-2064900Y-6288000D02*
Y-6259300D01*
X-2684900D01*
Y-6246800D01*
X-2064900D01*
Y-6259300D01*
G01Y-6270500D02*
X-2684900D01*
Y-6288000D01*
X-2064900D01*
Y-6278000D01*
X-2684900D01*
Y-6259300D01*
X-2064900D01*
Y-6278000D01*
X-2112400D01*
Y-6246800D01*
X-2684900D01*
Y-6251800D01*
X-2064900D01*
Y-6279300D01*
G01X-2628900Y-5612130D02*
X-2636520Y-5608320D01*
X-2645410Y-5605780D01*
X-2655570D01*
X-2667000Y-5609590D01*
X-2675890Y-5615940D01*
X-2682240Y-5623560D01*
X-2687320Y-5636260D01*
X-2688590Y-5647690D01*
X-2686050Y-5659120D01*
X-2682240Y-5666740D01*
X-2674620Y-5674360D01*
X-2665730Y-5679440D01*
X-2656840Y-5681980D01*
X-2647950D01*
X-2639060Y-5679440D01*
X-2631440Y-5675630D01*
X-2625090Y-5670550D01*
G01X-2604770Y-5618480D02*
X-2597150Y-5610860D01*
X-2588260Y-5607050D01*
X-2578100Y-5605780D01*
X-2565400Y-5608320D01*
X-2556510Y-5614670D01*
X-2553970Y-5622290D01*
X-2555240Y-5629910D01*
X-2560320Y-5636260D01*
X-2585720Y-5648960D01*
X-2597150Y-5657850D01*
X-2604770Y-5670550D01*
X-2607310Y-5681980D01*
X-2553970D01*
G01X-2504440D02*
Y-5605780D01*
X-2519680Y-5621020D01*
G01Y-5681980D02*
X-2489200D01*
G01X-2456180Y-5666740D02*
X-2448560Y-5675630D01*
X-2438400Y-5680710D01*
X-2426970Y-5681980D01*
X-2416810Y-5680710D01*
X-2406650Y-5674360D01*
X-2400300Y-5666740D01*
X-2399030Y-5659120D01*
X-2401570Y-5650230D01*
X-2410460Y-5643880D01*
X-2419350Y-5641340D01*
X-2430780D01*
G01X-2419350D02*
X-2411730Y-5637530D01*
X-2405380Y-5631180D01*
X-2402840Y-5623560D01*
X-2405380Y-5615940D01*
X-2411730Y-5609590D01*
X-2423160Y-5605780D01*
X-2434590Y-5607050D01*
X-2446020Y-5612130D01*
G01X-2701000Y-4447900D02*
G03X-1754400Y-4434400I471002J167883D01*
G01X-1756400Y-4119600D02*
G03X-2701000Y-4112100I-473603J-160383D01*
G01X-2575560Y-3562350D02*
X-2583180Y-3558540D01*
X-2592070Y-3556000D01*
X-2602230D01*
X-2613660Y-3559810D01*
X-2622550Y-3566160D01*
X-2628900Y-3573780D01*
X-2633980Y-3586480D01*
X-2635250Y-3597910D01*
X-2632710Y-3609340D01*
X-2628900Y-3616960D01*
X-2621280Y-3624580D01*
X-2612390Y-3629660D01*
X-2603500Y-3632200D01*
X-2594610D01*
X-2585720Y-3629660D01*
X-2578100Y-3625850D01*
X-2571750Y-3620770D01*
G01X-2551430Y-3568700D02*
X-2543810Y-3561080D01*
X-2534920Y-3557270D01*
X-2524760Y-3556000D01*
X-2512060Y-3558540D01*
X-2503170Y-3564890D01*
X-2500630Y-3572510D01*
X-2501900Y-3580130D01*
X-2506980Y-3586480D01*
X-2532380Y-3599180D01*
X-2543810Y-3608070D01*
X-2551430Y-3620770D01*
X-2553970Y-3632200D01*
X-2500630D01*
G01X-2451100Y-3556000D02*
X-2461260Y-3558540D01*
X-2468880Y-3564890D01*
X-2473960Y-3572510D01*
X-2477770Y-3582670D01*
X-2479040Y-3594100D01*
X-2477770Y-3605530D01*
X-2473960Y-3615690D01*
X-2468880Y-3623310D01*
X-2461260Y-3629660D01*
X-2451100Y-3632200D01*
X-2440940Y-3629660D01*
X-2433320Y-3623310D01*
X-2428240Y-3615690D01*
X-2424430Y-3605530D01*
X-2423160Y-3594100D01*
X-2424430Y-3582670D01*
X-2428240Y-3572510D01*
X-2433320Y-3564890D01*
X-2440940Y-3558540D01*
X-2451100Y-3556000D01*
G01X-2374900Y-3632200D02*
Y-3556000D01*
X-2390140Y-3571240D01*
G01Y-3632200D02*
X-2359660D01*
G01X-2588260Y-2660650D02*
X-2595880Y-2656840D01*
X-2604770Y-2654300D01*
X-2614930D01*
X-2626360Y-2658110D01*
X-2635250Y-2664460D01*
X-2641600Y-2672080D01*
X-2646680Y-2684780D01*
X-2647950Y-2696210D01*
X-2645410Y-2707640D01*
X-2641600Y-2715260D01*
X-2633980Y-2722880D01*
X-2625090Y-2727960D01*
X-2616200Y-2730500D01*
X-2607310D01*
X-2598420Y-2727960D01*
X-2590800Y-2724150D01*
X-2584450Y-2719070D01*
G01X-2540000Y-2730500D02*
Y-2654300D01*
X-2555240Y-2669540D01*
G01Y-2730500D02*
X-2524760D01*
G01X-2466340D02*
X-2463800Y-2713990D01*
X-2459990Y-2700020D01*
X-2454910Y-2687320D01*
X-2448560Y-2673350D01*
X-2438400Y-2654300D01*
X-2489200D01*
G01X-2409190Y-2721610D02*
X-2400300Y-2727960D01*
X-2390140Y-2730500D01*
X-2379980Y-2727960D01*
X-2371090Y-2720340D01*
X-2364740Y-2708910D01*
X-2362200Y-2697480D01*
Y-2683510D01*
X-2364740Y-2672080D01*
X-2371090Y-2661920D01*
X-2378710Y-2656840D01*
X-2387600Y-2654300D01*
X-2397760Y-2656840D01*
X-2405380Y-2661920D01*
X-2410460Y-2669540D01*
X-2413000Y-2679700D01*
X-2410460Y-2688590D01*
X-2404110Y-2697480D01*
X-2396490Y-2702560D01*
X-2387600Y-2703830D01*
X-2377440Y-2701290D01*
X-2369820Y-2694940D01*
X-2362200Y-2683510D01*
G01X-2371000Y-2377900D02*
G03X-1424400Y-2364400I471002J167883D01*
G01X-2045000Y-2687500D02*
X-2535000Y-2530000D01*
Y-2380000D01*
G01X-2661690Y-1933490D02*
Y-2043500D01*
X-2761710D01*
Y-1843500D01*
X-2661690D01*
Y-1933490D01*
G01X-1426400Y-2049600D02*
G03X-2371000Y-2042100I-473603J-160383D01*
G01X-2077500Y-1742500D02*
X-2532500Y-1887500D01*
Y-2042500D01*
G01X-2764410Y-1528690D02*
Y-1418680D01*
X-2664390D01*
Y-1618680D01*
X-2764410D01*
Y-1528690D01*
G01X-2063900Y-6045300D02*
Y-6756300D01*
X-2182400D01*
G01X-1879100D02*
X-2000100D01*
Y-6045300D01*
X-1876600D01*
G01X-2105660Y-5924550D02*
X-2113280Y-5920740D01*
X-2122170Y-5918200D01*
X-2132330D01*
X-2143760Y-5922010D01*
X-2152650Y-5928360D01*
X-2159000Y-5935980D01*
X-2164080Y-5948680D01*
X-2165350Y-5960110D01*
X-2162810Y-5971540D01*
X-2159000Y-5979160D01*
X-2151380Y-5986780D01*
X-2142490Y-5991860D01*
X-2133600Y-5994400D01*
X-2124710D01*
X-2115820Y-5991860D01*
X-2108200Y-5988050D01*
X-2101850Y-5982970D01*
G01X-2081530Y-5930900D02*
X-2073910Y-5923280D01*
X-2065020Y-5919470D01*
X-2054860Y-5918200D01*
X-2042160Y-5920740D01*
X-2033270Y-5927090D01*
X-2030730Y-5934710D01*
X-2032000Y-5942330D01*
X-2037080Y-5948680D01*
X-2062480Y-5961380D01*
X-2073910Y-5970270D01*
X-2081530Y-5982970D01*
X-2084070Y-5994400D01*
X-2030730D01*
G01X-1981200D02*
Y-5918200D01*
X-1996440Y-5933440D01*
G01Y-5994400D02*
X-1965960D01*
G01X-1929130Y-5930900D02*
X-1921510Y-5923280D01*
X-1912620Y-5919470D01*
X-1902460Y-5918200D01*
X-1889760Y-5920740D01*
X-1880870Y-5927090D01*
X-1878330Y-5934710D01*
X-1879600Y-5942330D01*
X-1884680Y-5948680D01*
X-1910080Y-5961380D01*
X-1921510Y-5970270D01*
X-1929130Y-5982970D01*
X-1931670Y-5994400D01*
X-1878330D01*
G01X-2182400Y-6045300D02*
X-2063900D01*
G01X-1379100Y-6288000D02*
Y-6259300D01*
X-1999100D01*
Y-6246800D01*
X-1379100D01*
Y-6259300D01*
G01Y-6270500D02*
X-1999100D01*
Y-6288000D01*
X-1379100D01*
Y-6278000D01*
X-1999100D01*
Y-6259300D01*
X-1379100D01*
Y-6278000D01*
X-1426600D01*
Y-6246800D01*
X-1999100D01*
Y-6251800D01*
X-1379100D01*
Y-6279300D01*
G01X-2162810Y-5509260D02*
X-2166620Y-5516880D01*
X-2169160Y-5525770D01*
Y-5535930D01*
X-2165350Y-5547360D01*
X-2159000Y-5556250D01*
X-2151380Y-5562600D01*
X-2138680Y-5567680D01*
X-2127250Y-5568950D01*
X-2115820Y-5566410D01*
X-2108200Y-5562600D01*
X-2100580Y-5554980D01*
X-2095500Y-5546090D01*
X-2092960Y-5537200D01*
Y-5528310D01*
X-2095500Y-5519420D01*
X-2099310Y-5511800D01*
X-2104390Y-5505450D01*
G01X-2156460Y-5485130D02*
X-2164080Y-5477510D01*
X-2167890Y-5468620D01*
X-2169160Y-5458460D01*
X-2166620Y-5445760D01*
X-2160270Y-5436870D01*
X-2152650Y-5434330D01*
X-2145030Y-5435600D01*
X-2138680Y-5440680D01*
X-2125980Y-5466080D01*
X-2117090Y-5477510D01*
X-2104390Y-5485130D01*
X-2092960Y-5487670D01*
Y-5434330D01*
G01Y-5384800D02*
X-2169160D01*
X-2153920Y-5400040D01*
G01X-2092960D02*
Y-5369560D01*
G01X-2124710Y-5332730D02*
X-2133600Y-5323840D01*
X-2138680Y-5316220D01*
X-2141220Y-5306060D01*
X-2138680Y-5297170D01*
X-2133600Y-5290820D01*
X-2125980Y-5285740D01*
X-2117090Y-5284470D01*
X-2109470Y-5285740D01*
X-2101850Y-5290820D01*
X-2095500Y-5298440D01*
X-2092960Y-5307330D01*
X-2095500Y-5317490D01*
X-2103120Y-5326380D01*
X-2114550Y-5331460D01*
X-2127250Y-5332730D01*
X-2143760Y-5330190D01*
X-2152650Y-5326380D01*
X-2161540Y-5320030D01*
X-2167890Y-5311140D01*
X-2169160Y-5302250D01*
X-2166620Y-5293360D01*
X-2160270Y-5287010D01*
G01X-1400000Y-5292500D02*
Y-5550000D01*
X-1980000D01*
X-2060000Y-5470000D01*
Y-5287500D01*
G01X-2307590Y-5669280D02*
Y-5593080D01*
X-2259330D01*
G01X-2277110Y-5629910D02*
X-2307590D01*
G01X-2197100Y-5628640D02*
X-2192020Y-5624830D01*
X-2188210Y-5618480D01*
X-2185670Y-5609590D01*
X-2188210Y-5601970D01*
X-2193290Y-5596890D01*
X-2202180Y-5593080D01*
X-2236470D01*
Y-5669280D01*
X-2194560D01*
X-2185670Y-5664200D01*
X-2180590Y-5656580D01*
X-2178050Y-5647690D01*
X-2180590Y-5638800D01*
X-2188210Y-5631180D01*
X-2197100Y-5628640D01*
X-2236470D01*
G01X-2159000Y-5657850D02*
X-2151380Y-5664200D01*
X-2142490Y-5668010D01*
X-2131060Y-5669280D01*
X-2119630Y-5666740D01*
X-2110740Y-5661660D01*
X-2104390Y-5652770D01*
X-2103120Y-5642610D01*
X-2105660Y-5632450D01*
X-2112010Y-5626100D01*
X-2120900Y-5621020D01*
X-2129790Y-5619750D01*
X-2138680Y-5621020D01*
X-2150110Y-5626100D01*
X-2146300Y-5593080D01*
X-2112010D01*
G01X-2290000Y-5412500D02*
Y-5325000D01*
G01X-2332500Y-5367500D02*
X-2245000D01*
G01X-2060000Y-5152500D02*
Y-4970000D01*
X-1980000Y-4890000D01*
X-1400000D01*
Y-5147500D01*
G01X-2000000Y-5027500D02*
Y-5115000D01*
G01X-1957500Y-5072500D02*
X-2045000D01*
G01X-2085000Y-4757500D02*
X-1595000Y-4600000D01*
Y-4450000D01*
G01X-2054860Y-3714750D02*
X-2062480Y-3710940D01*
X-2071370Y-3708400D01*
X-2081530D01*
X-2092960Y-3712210D01*
X-2101850Y-3718560D01*
X-2108200Y-3726180D01*
X-2113280Y-3738880D01*
X-2114550Y-3750310D01*
X-2112010Y-3761740D01*
X-2108200Y-3769360D01*
X-2100580Y-3776980D01*
X-2091690Y-3782060D01*
X-2082800Y-3784600D01*
X-2073910D01*
X-2065020Y-3782060D01*
X-2057400Y-3778250D01*
X-2051050Y-3773170D01*
G01X-2006600Y-3784600D02*
Y-3708400D01*
X-2021840Y-3723640D01*
G01Y-3784600D02*
X-1991360D01*
G01X-1930400D02*
X-1921510Y-3783330D01*
X-1911350Y-3779520D01*
X-1905000Y-3773170D01*
X-1902460Y-3764280D01*
X-1905000Y-3755390D01*
X-1912620Y-3747770D01*
X-1924050Y-3743960D01*
X-1936750D01*
X-1944370Y-3741420D01*
X-1950720Y-3735070D01*
X-1953260Y-3726180D01*
X-1949450Y-3717290D01*
X-1940560Y-3710940D01*
X-1930400Y-3708400D01*
X-1920240Y-3710940D01*
X-1911350Y-3717290D01*
X-1907540Y-3726180D01*
X-1910080Y-3735070D01*
X-1916430Y-3741420D01*
X-1924050Y-3743960D01*
X-1936750D01*
X-1948180Y-3747770D01*
X-1955800Y-3755390D01*
X-1958340Y-3764280D01*
X-1955800Y-3773170D01*
X-1949450Y-3779520D01*
X-1939290Y-3783330D01*
X-1930400Y-3784600D01*
G01X-1882140Y-3773170D02*
X-1874520Y-3779520D01*
X-1865630Y-3783330D01*
X-1854200Y-3784600D01*
X-1842770Y-3782060D01*
X-1833880Y-3776980D01*
X-1827530Y-3768090D01*
X-1826260Y-3757930D01*
X-1828800Y-3747770D01*
X-1835150Y-3741420D01*
X-1844040Y-3736340D01*
X-1852930Y-3735070D01*
X-1861820Y-3736340D01*
X-1873250Y-3741420D01*
X-1869440Y-3708400D01*
X-1835150D01*
G01X-1909990Y-3690020D02*
X-2020000D01*
Y-3590000D01*
X-1820000D01*
Y-3690020D01*
X-1909990D01*
G01X-2052500Y-3812500D02*
X-1597500Y-3957500D01*
Y-4112500D01*
G01X-1475740Y-6883400D02*
Y-6807200D01*
X-1450340D01*
X-1440180Y-6811010D01*
X-1432560Y-6816090D01*
X-1426210Y-6823710D01*
X-1421130Y-6832600D01*
X-1419860Y-6845300D01*
X-1421130Y-6858000D01*
X-1426210Y-6866890D01*
X-1432560Y-6874510D01*
X-1440180Y-6879590D01*
X-1450340Y-6883400D01*
X-1475740D01*
G01X-1395730Y-6851650D02*
X-1386840Y-6842760D01*
X-1379220Y-6837680D01*
X-1369060Y-6835140D01*
X-1360170Y-6837680D01*
X-1353820Y-6842760D01*
X-1348740Y-6850380D01*
X-1347470Y-6859270D01*
X-1348740Y-6866890D01*
X-1353820Y-6874510D01*
X-1361440Y-6880860D01*
X-1370330Y-6883400D01*
X-1380490Y-6880860D01*
X-1389380Y-6873240D01*
X-1394460Y-6861810D01*
X-1395730Y-6849110D01*
X-1393190Y-6832600D01*
X-1389380Y-6823710D01*
X-1383030Y-6814820D01*
X-1374140Y-6808470D01*
X-1365250Y-6807200D01*
X-1356360Y-6809740D01*
X-1350010Y-6816090D01*
G01X-1378100Y-6045300D02*
Y-6756300D01*
X-1496600D01*
G01Y-6045300D02*
X-1378100D01*
G01X-1584960Y-5643880D02*
Y-5720080D01*
G01X-1614170Y-5643880D02*
X-1555750D01*
G01X-1534160Y-5720080D02*
Y-5643880D01*
X-1503680D01*
X-1493520Y-5647690D01*
X-1485900Y-5656580D01*
X-1483360Y-5666740D01*
X-1485900Y-5676900D01*
X-1492250Y-5684520D01*
X-1503680Y-5688330D01*
X-1534160D01*
G01X-1417320Y-5720080D02*
Y-5643880D01*
X-1464310Y-5698490D01*
X-1400810D01*
G01X-1356360Y-5720080D02*
X-1347470Y-5718810D01*
X-1337310Y-5715000D01*
X-1330960Y-5708650D01*
X-1328420Y-5699760D01*
X-1330960Y-5690870D01*
X-1338580Y-5683250D01*
X-1350010Y-5679440D01*
X-1362710D01*
X-1370330Y-5676900D01*
X-1376680Y-5670550D01*
X-1379220Y-5661660D01*
X-1375410Y-5652770D01*
X-1366520Y-5646420D01*
X-1356360Y-5643880D01*
X-1346200Y-5646420D01*
X-1337310Y-5652770D01*
X-1333500Y-5661660D01*
X-1336040Y-5670550D01*
X-1342390Y-5676900D01*
X-1350010Y-5679440D01*
X-1362710D01*
X-1374140Y-5683250D01*
X-1381760Y-5690870D01*
X-1384300Y-5699760D01*
X-1381760Y-5708650D01*
X-1375410Y-5715000D01*
X-1365250Y-5718810D01*
X-1356360Y-5720080D01*
G01X-1765300Y-4673600D02*
Y-4749800D01*
X-1714500D01*
G01X-1666240D02*
X-1663700Y-4733290D01*
X-1659890Y-4719320D01*
X-1654810Y-4706620D01*
X-1648460Y-4692650D01*
X-1638300Y-4673600D01*
X-1689100D01*
G01X-1460500D02*
Y-4749800D01*
X-1409700D01*
G01X-1358900D02*
X-1350010Y-4748530D01*
X-1339850Y-4744720D01*
X-1333500Y-4738370D01*
X-1330960Y-4729480D01*
X-1333500Y-4720590D01*
X-1341120Y-4712970D01*
X-1352550Y-4709160D01*
X-1365250D01*
X-1372870Y-4706620D01*
X-1379220Y-4700270D01*
X-1381760Y-4691380D01*
X-1377950Y-4682490D01*
X-1369060Y-4676140D01*
X-1358900Y-4673600D01*
X-1348740Y-4676140D01*
X-1339850Y-4682490D01*
X-1336040Y-4691380D01*
X-1338580Y-4700270D01*
X-1344930Y-4706620D01*
X-1352550Y-4709160D01*
X-1365250D01*
X-1376680Y-4712970D01*
X-1384300Y-4720590D01*
X-1386840Y-4729480D01*
X-1384300Y-4738370D01*
X-1377950Y-4744720D01*
X-1367790Y-4748530D01*
X-1358900Y-4749800D01*
G01X-1724660Y-3714750D02*
X-1732280Y-3710940D01*
X-1741170Y-3708400D01*
X-1751330D01*
X-1762760Y-3712210D01*
X-1771650Y-3718560D01*
X-1778000Y-3726180D01*
X-1783080Y-3738880D01*
X-1784350Y-3750310D01*
X-1781810Y-3761740D01*
X-1778000Y-3769360D01*
X-1770380Y-3776980D01*
X-1761490Y-3782060D01*
X-1752600Y-3784600D01*
X-1743710D01*
X-1734820Y-3782060D01*
X-1727200Y-3778250D01*
X-1720850Y-3773170D01*
G01X-1676400Y-3784600D02*
Y-3708400D01*
X-1691640Y-3723640D01*
G01Y-3784600D02*
X-1661160D01*
G01X-1600200D02*
X-1591310Y-3783330D01*
X-1581150Y-3779520D01*
X-1574800Y-3773170D01*
X-1572260Y-3764280D01*
X-1574800Y-3755390D01*
X-1582420Y-3747770D01*
X-1593850Y-3743960D01*
X-1606550D01*
X-1614170Y-3741420D01*
X-1620520Y-3735070D01*
X-1623060Y-3726180D01*
X-1619250Y-3717290D01*
X-1610360Y-3710940D01*
X-1600200Y-3708400D01*
X-1590040Y-3710940D01*
X-1581150Y-3717290D01*
X-1577340Y-3726180D01*
X-1579880Y-3735070D01*
X-1586230Y-3741420D01*
X-1593850Y-3743960D01*
X-1606550D01*
X-1617980Y-3747770D01*
X-1625600Y-3755390D01*
X-1628140Y-3764280D01*
X-1625600Y-3773170D01*
X-1619250Y-3779520D01*
X-1609090Y-3783330D01*
X-1600200Y-3784600D01*
G01X-1551940Y-3769360D02*
X-1544320Y-3778250D01*
X-1534160Y-3783330D01*
X-1522730Y-3784600D01*
X-1512570Y-3783330D01*
X-1502410Y-3776980D01*
X-1496060Y-3769360D01*
X-1494790Y-3761740D01*
X-1497330Y-3752850D01*
X-1506220Y-3746500D01*
X-1515110Y-3743960D01*
X-1526540D01*
G01X-1515110D02*
X-1507490Y-3740150D01*
X-1501140Y-3733800D01*
X-1498600Y-3726180D01*
X-1501140Y-3718560D01*
X-1507490Y-3712210D01*
X-1518920Y-3708400D01*
X-1530350Y-3709670D01*
X-1541780Y-3714750D01*
G01X-1720010Y-3589990D02*
X-1610000D01*
Y-3690010D01*
X-1810000D01*
Y-3589990D01*
X-1720010D01*
G01X-1354990Y-3690020D02*
X-1465000D01*
Y-3590000D01*
X-1265000D01*
Y-3690020D01*
X-1354990D01*
G01X-1755000Y-2687500D02*
X-1265000Y-2530000D01*
Y-2380000D01*
G01X-1526540Y-2641600D02*
Y-2696210D01*
X-1521460Y-2707640D01*
X-1511300Y-2715260D01*
X-1498600Y-2717800D01*
X-1485900Y-2715260D01*
X-1475740Y-2707640D01*
X-1470660Y-2696210D01*
Y-2641600D01*
G01X-1450340Y-2702560D02*
X-1442720Y-2711450D01*
X-1432560Y-2716530D01*
X-1421130Y-2717800D01*
X-1410970Y-2716530D01*
X-1400810Y-2710180D01*
X-1394460Y-2702560D01*
X-1393190Y-2694940D01*
X-1395730Y-2686050D01*
X-1404620Y-2679700D01*
X-1413510Y-2677160D01*
X-1424940D01*
G01X-1413510D02*
X-1405890Y-2673350D01*
X-1399540Y-2667000D01*
X-1397000Y-2659380D01*
X-1399540Y-2651760D01*
X-1405890Y-2645410D01*
X-1417320Y-2641600D01*
X-1428750Y-2642870D01*
X-1440180Y-2647950D01*
G01X-1374140Y-2702560D02*
X-1366520Y-2711450D01*
X-1356360Y-2716530D01*
X-1344930Y-2717800D01*
X-1334770Y-2716530D01*
X-1324610Y-2710180D01*
X-1318260Y-2702560D01*
X-1316990Y-2694940D01*
X-1319530Y-2686050D01*
X-1328420Y-2679700D01*
X-1337310Y-2677160D01*
X-1348740D01*
G01X-1337310D02*
X-1329690Y-2673350D01*
X-1323340Y-2667000D01*
X-1320800Y-2659380D01*
X-1323340Y-2651760D01*
X-1329690Y-2645410D01*
X-1341120Y-2641600D01*
X-1352550Y-2642870D01*
X-1363980Y-2647950D01*
G01X-1722500Y-1742500D02*
X-1267500Y-1887500D01*
Y-2042500D01*
G01X-1438700Y1131780D02*
X-1888700D01*
Y681780D01*
X-1438700D01*
Y1131780D01*
G01X-1516600Y906780D02*
G03I-147100J0D01*
G01X-1463700Y741780D02*
G03I-25000J0D01*
G01X-1046480Y-6027420D02*
X-1287780D01*
Y-7487920D01*
X-373380D01*
Y-6637020D01*
G01X-1284300Y-5091740D02*
Y-5167940D01*
G01X-1313510Y-5091740D02*
X-1255090D01*
G01X-1233500Y-5167940D02*
Y-5091740D01*
X-1203020D01*
X-1192860Y-5095550D01*
X-1185240Y-5104440D01*
X-1182700Y-5114600D01*
X-1185240Y-5124760D01*
X-1191590Y-5132380D01*
X-1203020Y-5136190D01*
X-1233500D01*
G01X-1116660Y-5167940D02*
Y-5091740D01*
X-1163650Y-5146350D01*
X-1100150D01*
G01X-1079830Y-5136190D02*
X-1070940Y-5127300D01*
X-1063320Y-5122220D01*
X-1053160Y-5119680D01*
X-1044270Y-5122220D01*
X-1037920Y-5127300D01*
X-1032840Y-5134920D01*
X-1031570Y-5143810D01*
X-1032840Y-5151430D01*
X-1037920Y-5159050D01*
X-1045540Y-5165400D01*
X-1054430Y-5167940D01*
X-1064590Y-5165400D01*
X-1073480Y-5157780D01*
X-1078560Y-5146350D01*
X-1079830Y-5133650D01*
X-1077290Y-5117140D01*
X-1073480Y-5108250D01*
X-1067130Y-5099360D01*
X-1058240Y-5093010D01*
X-1049350Y-5091740D01*
X-1040460Y-5094280D01*
X-1034110Y-5100630D01*
G01X-1023620Y-4963160D02*
Y-5039360D01*
G01X-1052830Y-4963160D02*
X-994410D01*
G01X-972820Y-5039360D02*
Y-4963160D01*
X-942340D01*
X-932180Y-4966970D01*
X-924560Y-4975860D01*
X-922020Y-4986020D01*
X-924560Y-4996180D01*
X-930910Y-5003800D01*
X-942340Y-5007610D01*
X-972820D01*
G01X-899160Y-5027930D02*
X-891540Y-5034280D01*
X-882650Y-5038090D01*
X-871220Y-5039360D01*
X-859790Y-5036820D01*
X-850900Y-5031740D01*
X-844550Y-5022850D01*
X-843280Y-5012690D01*
X-845820Y-5002530D01*
X-852170Y-4996180D01*
X-861060Y-4991100D01*
X-869950Y-4989830D01*
X-878840Y-4991100D01*
X-890270Y-4996180D01*
X-886460Y-4963160D01*
X-852170D01*
G01X-822960Y-5024120D02*
X-815340Y-5033010D01*
X-805180Y-5038090D01*
X-793750Y-5039360D01*
X-783590Y-5038090D01*
X-773430Y-5031740D01*
X-767080Y-5024120D01*
X-765810Y-5016500D01*
X-768350Y-5007610D01*
X-777240Y-5001260D01*
X-786130Y-4998720D01*
X-797560D01*
G01X-786130D02*
X-778510Y-4994910D01*
X-772160Y-4988560D01*
X-769620Y-4980940D01*
X-772160Y-4973320D01*
X-778510Y-4966970D01*
X-789940Y-4963160D01*
X-801370Y-4964430D01*
X-812800Y-4969510D01*
G01X-997500Y-4747500D02*
X-1452500Y-4602500D01*
Y-4447500D01*
G01X-1293600Y-4440400D02*
G03X-349000Y-4447900I473603J160383D01*
G01Y-4112100D02*
G03X-1295600Y-4125600I-471002J-167883D01*
G01X-975360Y-3700450D02*
X-982980Y-3696640D01*
X-991870Y-3694100D01*
X-1002030D01*
X-1013460Y-3697910D01*
X-1022350Y-3704260D01*
X-1028700Y-3711880D01*
X-1033780Y-3724580D01*
X-1035050Y-3736010D01*
X-1032510Y-3747440D01*
X-1028700Y-3755060D01*
X-1021080Y-3762680D01*
X-1012190Y-3767760D01*
X-1003300Y-3770300D01*
X-994410D01*
X-985520Y-3767760D01*
X-977900Y-3763950D01*
X-971550Y-3758870D01*
G01X-927100Y-3770300D02*
Y-3694100D01*
X-942340Y-3709340D01*
G01Y-3770300D02*
X-911860D01*
G01X-850900D02*
X-842010Y-3769030D01*
X-831850Y-3765220D01*
X-825500Y-3758870D01*
X-822960Y-3749980D01*
X-825500Y-3741090D01*
X-833120Y-3733470D01*
X-844550Y-3729660D01*
X-857250D01*
X-864870Y-3727120D01*
X-871220Y-3720770D01*
X-873760Y-3711880D01*
X-869950Y-3702990D01*
X-861060Y-3696640D01*
X-850900Y-3694100D01*
X-840740Y-3696640D01*
X-831850Y-3702990D01*
X-828040Y-3711880D01*
X-830580Y-3720770D01*
X-836930Y-3727120D01*
X-844550Y-3729660D01*
X-857250D01*
X-868680Y-3733470D01*
X-876300Y-3741090D01*
X-878840Y-3749980D01*
X-876300Y-3758870D01*
X-869950Y-3765220D01*
X-859790Y-3769030D01*
X-850900Y-3770300D01*
G01X-774700D02*
Y-3694100D01*
X-789940Y-3709340D01*
G01Y-3770300D02*
X-759460D01*
G01X-1394460Y-3714750D02*
X-1402080Y-3710940D01*
X-1410970Y-3708400D01*
X-1421130D01*
X-1432560Y-3712210D01*
X-1441450Y-3718560D01*
X-1447800Y-3726180D01*
X-1452880Y-3738880D01*
X-1454150Y-3750310D01*
X-1451610Y-3761740D01*
X-1447800Y-3769360D01*
X-1440180Y-3776980D01*
X-1431290Y-3782060D01*
X-1422400Y-3784600D01*
X-1413510D01*
X-1404620Y-3782060D01*
X-1397000Y-3778250D01*
X-1390650Y-3773170D01*
G01X-1346200Y-3784600D02*
Y-3708400D01*
X-1361440Y-3723640D01*
G01Y-3784600D02*
X-1330960D01*
G01X-1291590Y-3775710D02*
X-1282700Y-3782060D01*
X-1272540Y-3784600D01*
X-1262380Y-3782060D01*
X-1253490Y-3774440D01*
X-1247140Y-3763010D01*
X-1244600Y-3751580D01*
Y-3737610D01*
X-1247140Y-3726180D01*
X-1253490Y-3716020D01*
X-1261110Y-3710940D01*
X-1270000Y-3708400D01*
X-1280160Y-3710940D01*
X-1287780Y-3716020D01*
X-1292860Y-3723640D01*
X-1295400Y-3733800D01*
X-1292860Y-3742690D01*
X-1286510Y-3751580D01*
X-1278890Y-3756660D01*
X-1270000Y-3757930D01*
X-1259840Y-3755390D01*
X-1252220Y-3749040D01*
X-1244600Y-3737610D01*
G01X-1178560Y-3784600D02*
Y-3708400D01*
X-1225550Y-3763010D01*
X-1162050D01*
G01X-965000Y-3802500D02*
X-1455000Y-3960000D01*
Y-4110000D01*
G01X-975360Y-2330850D02*
X-982980Y-2327040D01*
X-991870Y-2324500D01*
X-1002030D01*
X-1013460Y-2328310D01*
X-1022350Y-2334660D01*
X-1028700Y-2342280D01*
X-1033780Y-2354980D01*
X-1035050Y-2366410D01*
X-1032510Y-2377840D01*
X-1028700Y-2385460D01*
X-1021080Y-2393080D01*
X-1012190Y-2398160D01*
X-1003300Y-2400700D01*
X-994410D01*
X-985520Y-2398160D01*
X-977900Y-2394350D01*
X-971550Y-2389270D01*
G01X-951230Y-2337200D02*
X-943610Y-2329580D01*
X-934720Y-2325770D01*
X-924560Y-2324500D01*
X-911860Y-2327040D01*
X-902970Y-2333390D01*
X-900430Y-2341010D01*
X-901700Y-2348630D01*
X-906780Y-2354980D01*
X-932180Y-2367680D01*
X-943610Y-2376570D01*
X-951230Y-2389270D01*
X-953770Y-2400700D01*
X-900430D01*
G01X-850900Y-2324500D02*
X-861060Y-2327040D01*
X-868680Y-2333390D01*
X-873760Y-2341010D01*
X-877570Y-2351170D01*
X-878840Y-2362600D01*
X-877570Y-2374030D01*
X-873760Y-2384190D01*
X-868680Y-2391810D01*
X-861060Y-2398160D01*
X-850900Y-2400700D01*
X-840740Y-2398160D01*
X-833120Y-2391810D01*
X-828040Y-2384190D01*
X-824230Y-2374030D01*
X-822960Y-2362600D01*
X-824230Y-2351170D01*
X-828040Y-2341010D01*
X-833120Y-2333390D01*
X-840740Y-2327040D01*
X-850900Y-2324500D01*
G01X-796290Y-2391810D02*
X-787400Y-2398160D01*
X-777240Y-2400700D01*
X-767080Y-2398160D01*
X-758190Y-2390540D01*
X-751840Y-2379110D01*
X-749300Y-2367680D01*
Y-2353710D01*
X-751840Y-2342280D01*
X-758190Y-2332120D01*
X-765810Y-2327040D01*
X-774700Y-2324500D01*
X-784860Y-2327040D01*
X-792480Y-2332120D01*
X-797560Y-2339740D01*
X-800100Y-2349900D01*
X-797560Y-2358790D01*
X-791210Y-2367680D01*
X-783590Y-2372760D01*
X-774700Y-2374030D01*
X-764540Y-2371490D01*
X-756920Y-2365140D01*
X-749300Y-2353710D01*
G01X-975360Y-2432450D02*
X-982980Y-2428640D01*
X-991870Y-2426100D01*
X-1002030D01*
X-1013460Y-2429910D01*
X-1022350Y-2436260D01*
X-1028700Y-2443880D01*
X-1033780Y-2456580D01*
X-1035050Y-2468010D01*
X-1032510Y-2479440D01*
X-1028700Y-2487060D01*
X-1021080Y-2494680D01*
X-1012190Y-2499760D01*
X-1003300Y-2502300D01*
X-994410D01*
X-985520Y-2499760D01*
X-977900Y-2495950D01*
X-971550Y-2490870D01*
G01X-951230Y-2438800D02*
X-943610Y-2431180D01*
X-934720Y-2427370D01*
X-924560Y-2426100D01*
X-911860Y-2428640D01*
X-902970Y-2434990D01*
X-900430Y-2442610D01*
X-901700Y-2450230D01*
X-906780Y-2456580D01*
X-932180Y-2469280D01*
X-943610Y-2478170D01*
X-951230Y-2490870D01*
X-953770Y-2502300D01*
X-900430D01*
G01X-850900D02*
Y-2426100D01*
X-866140Y-2441340D01*
G01Y-2502300D02*
X-835660D01*
G01X-774700Y-2426100D02*
X-784860Y-2428640D01*
X-792480Y-2434990D01*
X-797560Y-2442610D01*
X-801370Y-2452770D01*
X-802640Y-2464200D01*
X-801370Y-2475630D01*
X-797560Y-2485790D01*
X-792480Y-2493410D01*
X-784860Y-2499760D01*
X-774700Y-2502300D01*
X-764540Y-2499760D01*
X-756920Y-2493410D01*
X-751840Y-2485790D01*
X-748030Y-2475630D01*
X-746760Y-2464200D01*
X-748030Y-2452770D01*
X-751840Y-2442610D01*
X-756920Y-2434990D01*
X-764540Y-2428640D01*
X-774700Y-2426100D01*
G01X-1244600Y-2044700D02*
X-1168400D01*
Y-1993900D01*
G01X-1177290Y-1964690D02*
X-1170940Y-1955800D01*
X-1168400Y-1945640D01*
X-1170940Y-1935480D01*
X-1178560Y-1926590D01*
X-1189990Y-1920240D01*
X-1201420Y-1917700D01*
X-1215390D01*
X-1226820Y-1920240D01*
X-1236980Y-1926590D01*
X-1242060Y-1934210D01*
X-1244600Y-1943100D01*
X-1242060Y-1953260D01*
X-1236980Y-1960880D01*
X-1229360Y-1965960D01*
X-1219200Y-1968500D01*
X-1210310Y-1965960D01*
X-1201420Y-1959610D01*
X-1196340Y-1951990D01*
X-1195070Y-1943100D01*
X-1197610Y-1932940D01*
X-1203960Y-1925320D01*
X-1215390Y-1917700D01*
G01X-1216810Y209070D02*
X-1146810D01*
G03X-1126820Y229080I-13J20003D01*
G01Y289080D01*
G03X-1146810Y309090I-20003J7D01*
G01X-1306830D01*
G03X-1326820Y289080I13J-20003D01*
G01Y229080D01*
G03X-1306830Y209070I20003J-7D01*
G01X-1216810D01*
G01X-1320950Y379250D02*
X-1250950D01*
G03X-1230960Y399260I-13J20003D01*
G01Y459260D01*
G03X-1250950Y479270I-20003J7D01*
G01X-1410970D01*
G03X-1430960Y459260I13J-20003D01*
G01Y399260D01*
G03X-1410970Y379250I20003J-7D01*
G01X-1320950D01*
G01X-614680Y-6027420D02*
X-373380D01*
Y-6192520D01*
G01X-600000Y-5470000D02*
Y-5870000D01*
X-200000D01*
Y-5470000D01*
X-600000D01*
G01X-868260Y-5220550D02*
X-875880Y-5216740D01*
X-884770Y-5214200D01*
X-894930D01*
X-906360Y-5218010D01*
X-915250Y-5224360D01*
X-921600Y-5231980D01*
X-926680Y-5244680D01*
X-927950Y-5256110D01*
X-925410Y-5267540D01*
X-921600Y-5275160D01*
X-913980Y-5282780D01*
X-905090Y-5287860D01*
X-896200Y-5290400D01*
X-887310D01*
X-878420Y-5287860D01*
X-870800Y-5284050D01*
X-864450Y-5278970D01*
G01X-822540Y-5290400D02*
X-820000Y-5273890D01*
X-816190Y-5259920D01*
X-811110Y-5247220D01*
X-804760Y-5233250D01*
X-794600Y-5214200D01*
X-845400D01*
G01X-743800Y-5290400D02*
Y-5214200D01*
X-759040Y-5229440D01*
G01Y-5290400D02*
X-728560D01*
G01X-642500Y-4747500D02*
X-187500Y-4602500D01*
Y-4447500D01*
G01X-675000Y-3802500D02*
X-185000Y-3960000D01*
Y-4110000D01*
G01X-269840Y-6861600D02*
X-262220Y-6855250D01*
X-257140Y-6847630D01*
X-254600Y-6838740D01*
X-257140Y-6828580D01*
X-262220Y-6820960D01*
X-269840Y-6813340D01*
X-280000Y-6810800D01*
X-330800D01*
G01X-318100Y-6784130D02*
X-325720Y-6776510D01*
X-329530Y-6767620D01*
X-330800Y-6757460D01*
X-328260Y-6744760D01*
X-321910Y-6735870D01*
X-314290Y-6733330D01*
X-306670Y-6734600D01*
X-300320Y-6739680D01*
X-287620Y-6765080D01*
X-278730Y-6776510D01*
X-266030Y-6784130D01*
X-254600Y-6786670D01*
Y-6733330D01*
G01X-286350Y-6707930D02*
X-295240Y-6699040D01*
X-300320Y-6691420D01*
X-302860Y-6681260D01*
X-300320Y-6672370D01*
X-295240Y-6666020D01*
X-287620Y-6660940D01*
X-278730Y-6659670D01*
X-271110Y-6660940D01*
X-263490Y-6666020D01*
X-257140Y-6673640D01*
X-254600Y-6682530D01*
X-257140Y-6692690D01*
X-264760Y-6701580D01*
X-276190Y-6706660D01*
X-288890Y-6707930D01*
X-305400Y-6705390D01*
X-314290Y-6701580D01*
X-323180Y-6695230D01*
X-329530Y-6686340D01*
X-330800Y-6677450D01*
X-328260Y-6668560D01*
X-321910Y-6662210D01*
G01X-154850Y-6037700D02*
Y-6487700D01*
X295150D01*
Y-6037700D01*
X-154850D01*
G01X-469900Y-5892800D02*
Y-5969000D01*
X-419100D01*
G01X-396240Y-5957570D02*
X-388620Y-5963920D01*
X-379730Y-5967730D01*
X-368300Y-5969000D01*
X-356870Y-5966460D01*
X-347980Y-5961380D01*
X-341630Y-5952490D01*
X-340360Y-5942330D01*
X-342900Y-5932170D01*
X-349250Y-5925820D01*
X-358140Y-5920740D01*
X-367030Y-5919470D01*
X-375920Y-5920740D01*
X-387350Y-5925820D01*
X-383540Y-5892800D01*
X-349250D01*
G01X-239450Y-5141360D02*
X-243260Y-5148980D01*
X-245800Y-5157870D01*
Y-5168030D01*
X-241990Y-5179460D01*
X-235640Y-5188350D01*
X-228020Y-5194700D01*
X-215320Y-5199780D01*
X-203890Y-5201050D01*
X-192460Y-5198510D01*
X-184840Y-5194700D01*
X-177220Y-5187080D01*
X-172140Y-5178190D01*
X-169600Y-5169300D01*
Y-5160410D01*
X-172140Y-5151520D01*
X-175950Y-5143900D01*
X-181030Y-5137550D01*
G01X-169600Y-5093100D02*
X-245800D01*
X-230560Y-5108340D01*
G01X-169600D02*
Y-5077860D01*
G01X-178490Y-5038490D02*
X-172140Y-5029600D01*
X-169600Y-5019440D01*
X-172140Y-5009280D01*
X-179760Y-5000390D01*
X-191190Y-4994040D01*
X-202620Y-4991500D01*
X-216590D01*
X-228020Y-4994040D01*
X-238180Y-5000390D01*
X-243260Y-5008010D01*
X-245800Y-5016900D01*
X-243260Y-5027060D01*
X-238180Y-5034680D01*
X-230560Y-5039760D01*
X-220400Y-5042300D01*
X-211510Y-5039760D01*
X-202620Y-5033410D01*
X-197540Y-5025790D01*
X-196270Y-5016900D01*
X-198810Y-5006740D01*
X-205160Y-4999120D01*
X-216590Y-4991500D01*
G01X-233100Y-4964830D02*
X-240720Y-4957210D01*
X-244530Y-4948320D01*
X-245800Y-4938160D01*
X-243260Y-4925460D01*
X-236910Y-4916570D01*
X-229290Y-4914030D01*
X-221670Y-4915300D01*
X-215320Y-4920380D01*
X-202620Y-4945780D01*
X-193730Y-4957210D01*
X-181030Y-4964830D01*
X-169600Y-4967370D01*
Y-4914030D01*
G01X-551600Y-310160D02*
X-545250Y-317780D01*
X-537630Y-322860D01*
X-528740Y-325400D01*
X-518580Y-322860D01*
X-510960Y-317780D01*
X-503340Y-310160D01*
X-500800Y-300000D01*
Y-249200D01*
G01X-474130Y-261900D02*
X-466510Y-254280D01*
X-457620Y-250470D01*
X-447460Y-249200D01*
X-434760Y-251740D01*
X-425870Y-258090D01*
X-423330Y-265710D01*
X-424600Y-273330D01*
X-429680Y-279680D01*
X-455080Y-292380D01*
X-466510Y-301270D01*
X-474130Y-313970D01*
X-476670Y-325400D01*
X-423330D01*
G01X-358560D02*
Y-249200D01*
X-405550Y-303810D01*
X-342050D01*
G01X291040Y148380D02*
Y598380D01*
X-158960D01*
Y148380D01*
X291040D01*
G01X217250Y-6262700D02*
G03I-147100J0D01*
G01X260150Y-6087700D02*
G03I-25000J0D01*
G01X-32870Y-5745240D02*
X-22710Y-5751590D01*
X-11280Y-5755400D01*
X-1120D01*
X9040Y-5751590D01*
X16660Y-5745240D01*
X20470Y-5736350D01*
X17930Y-5727460D01*
X11580Y-5719840D01*
X150Y-5714760D01*
X-15090Y-5712220D01*
X-23980Y-5707140D01*
X-27790Y-5698250D01*
X-25250Y-5689360D01*
X-18900Y-5683010D01*
X-10010Y-5679200D01*
X-1120D01*
X7770Y-5681740D01*
X15390Y-5688090D01*
G01X31900Y-5679200D02*
X49680Y-5755400D01*
X70000Y-5679200D01*
X90320Y-5755400D01*
X108100Y-5679200D01*
G01X146200Y-5755400D02*
Y-5679200D01*
X130960Y-5694440D01*
G01Y-5755400D02*
X161440D01*
G01X213140Y373380D02*
G03I-147100J0D01*
G01X-73960Y198380D02*
G03I-25000J0D01*
G54D16*
G01X-6071820Y-7305190D02*
X-5779820D01*
G01X-6071820Y-7005170D02*
X-5779820D01*
G01X-5795820Y-7180170D02*
Y-7130190D01*
G54D17*
G01X-2960250Y-7326510D02*
X-2961260D01*
Y-7498970D01*
X-3768980D01*
Y-7351910D01*
G01X-3604140Y-6562470D02*
X-3714120D01*
Y-6563240D01*
G01X-3022980Y-6561460D02*
X-3132970D01*
Y-6562220D01*
G54D18*
G01X-7934320Y-6100660D02*
X-7789320D01*
Y-6365660D01*
X-7999320D01*
Y-6100660D01*
X-7934320D01*
G01X-5059260Y-117480D02*
Y-262480D01*
X-5324260D01*
Y-52480D01*
X-5059260D01*
Y-117480D01*
G54D19*
G01X-7861780Y734440D02*
X-7887180Y709040D01*
X-7912580Y734440D01*
X-7937980Y709040D01*
X-7963380Y734440D01*
X-7988780Y709040D01*
X-8014180Y734440D01*
G01X-8039580Y696340D02*
Y531240D01*
X-7836380D01*
Y912240D01*
X-8039580D01*
Y696340D01*
G01X-7475220Y-5567680D02*
Y-5402580D01*
X-7272020D01*
Y-5567680D01*
G01X-7475220Y-5618480D02*
Y-5783580D01*
X-7272020D01*
Y-5618480D01*
G01X-7010400Y-4432300D02*
X-7175500D01*
Y-4635500D01*
X-7010400D01*
G01Y-4191000D02*
X-7175500D01*
Y-4394200D01*
G01X-6667500Y-5384800D02*
X-6832600D01*
Y-5588000D01*
X-6667500D01*
G01X-6959600Y-4432300D02*
X-6794500D01*
Y-4635500D01*
X-6959600D01*
G01Y-4191000D02*
X-6794500D01*
Y-4394200D01*
X-6959600D01*
G01X-6616700Y-5384800D02*
X-6451600D01*
Y-5588000D01*
X-6616700D01*
G01X-6477000Y-4521200D02*
Y-4686300D01*
X-6680200D01*
Y-4521200D01*
G01X-6477000Y-4089400D02*
Y-4254500D01*
X-6680200D01*
Y-4089400D01*
G01X-6477000Y-4470400D02*
Y-4305300D01*
X-6680200D01*
Y-4470400D01*
G01X-6477000Y-4038600D02*
Y-3873500D01*
X-6680200D01*
Y-4038600D01*
G01X-5696600Y-4998100D02*
X-3396600D01*
Y-2778100D01*
X-3476600Y-2698100D01*
X-5696600D01*
G01D02*
Y-4998100D01*
X-3396600D01*
Y-2778100D01*
X-3476600Y-2698100D01*
X-5696600D01*
G01X-4527950Y-2393970D02*
Y-2559070D01*
X-4324750D01*
Y-2393970D01*
G01X-4527950Y-2343170D02*
Y-2178070D01*
X-4324750D01*
Y-2343170D01*
G01X-4005200Y-1518680D02*
Y-1683780D01*
X-4208400D01*
Y-1518680D01*
G01X-4005200Y-1467880D02*
Y-1302780D01*
X-4208400D01*
Y-1467880D01*
G01X-3670000Y-5960000D02*
X-3700000Y-5990000D01*
G01X-3440000Y-5650000D02*
Y-5530000D01*
X-3700000D01*
Y-5990000D01*
X-3440000D01*
Y-5650000D01*
G01X-3470000Y-5560000D02*
Y-5960000D01*
X-3670000D01*
Y-5560000D01*
X-3470000D01*
X-3440000Y-5530000D01*
G01X-3670000Y-5560000D02*
X-3700000Y-5530000D01*
G01X-3786600Y-1938900D02*
Y-2104000D01*
X-3989800D01*
Y-1938900D01*
G01X-3751200Y-1518680D02*
Y-1683780D01*
X-3548000D01*
Y-1518680D01*
G01X-3786600Y-1888100D02*
Y-1723000D01*
X-3989800D01*
Y-1888100D01*
G01X-3751200Y-1467880D02*
Y-1302780D01*
X-3548000D01*
Y-1467880D01*
G01X-3470000Y-5960000D02*
X-3440000Y-5990000D01*
G01X-3509100Y-2698100D02*
X-3484100D01*
G01X-3291600Y-2395400D02*
Y-2560500D01*
X-3088400D01*
Y-2395400D01*
G01X-3291600Y-2344600D02*
Y-2179500D01*
X-3088400D01*
Y-2344600D01*
G01X-2991100Y-1968900D02*
Y-2134000D01*
X-2787900D01*
Y-1968900D01*
G01X-2991100Y-1918100D02*
Y-1753000D01*
X-2787900D01*
Y-1918100D01*
G01X-2996500Y-1544080D02*
Y-1709180D01*
X-3199700D01*
Y-1544080D01*
G01X-2996500Y-1493280D02*
Y-1328180D01*
X-3199700D01*
Y-1493280D01*
G01X-2505000Y-4430000D02*
Y-4510000D01*
G03X-2475000Y-4540000I30000J0D01*
G01X-1985000D01*
G03X-1955000Y-4510000I0J30000D01*
G01Y-4430000D01*
G01X-1985000Y-4020000D02*
X-2475000D01*
G03X-2505000Y-4050000I0J-30000D01*
G01Y-4130000D01*
G01X-2171700Y-5689600D02*
X-2336800D01*
Y-5892800D01*
X-1955800D01*
Y-5689600D01*
X-2171700D01*
G01X-2133600Y-5867400D02*
X-2159000Y-5842000D01*
X-2133600Y-5816600D01*
X-2159000Y-5791200D01*
X-2133600Y-5765800D01*
X-2159000Y-5740400D01*
X-2133600Y-5715000D01*
G01X-1955000Y-4130000D02*
Y-4050000D01*
G03X-1985000Y-4020000I-30000J0D01*
G01X-2215000Y-4220000D02*
G02Y-4160000I0J30000D01*
G01Y-4280000D02*
G02Y-4220000I0J30000D01*
G01Y-4340000D02*
G02Y-4280000I0J30000D01*
G01Y-4400000D02*
G02Y-4340000I0J30000D01*
G01X-1927500Y-3400000D02*
Y-3457500D01*
G01D02*
X-1870000D01*
G01Y-2842500D02*
X-1897500D01*
X-1927500Y-2872500D01*
Y-2900000D01*
G01X-2175000Y-2360000D02*
Y-2440000D01*
G03X-2145000Y-2470000I30000J0D01*
G01X-1655000D01*
G03X-1625000Y-2440000I0J30000D01*
G01Y-2360000D01*
G01X-1885000Y-2150000D02*
G02Y-2090000I0J30000D01*
G01Y-2210000D02*
G02Y-2150000I0J30000D01*
G01Y-2270000D02*
G02Y-2210000I0J30000D01*
G01Y-2330000D02*
G02Y-2270000I0J30000D01*
G01X-1655000Y-1950000D02*
X-2145000D01*
G03X-2175000Y-1980000I0J-30000D01*
G01Y-2060000D01*
G01X-1625000D02*
Y-1980000D01*
G03X-1655000Y-1950000I-30000J0D01*
G01X-545000Y-4130000D02*
Y-4050000D01*
G03X-575000Y-4020000I-30000J0D01*
G01X-1065000D01*
G03X-1095000Y-4050000I0J-30000D01*
G01Y-4130000D01*
G01Y-4430000D02*
Y-4510000D01*
G03X-1065000Y-4540000I30000J0D01*
G01D02*
X-575000D01*
G03X-545000Y-4510000I0J30000D01*
G01Y-4430000D01*
G01X-1370000Y-3457500D02*
X-1312500D01*
Y-3400000D01*
G01Y-2900000D02*
Y-2842500D01*
X-1370000D01*
G01X-835000Y-4340000D02*
G02Y-4400000I0J-30000D01*
G01Y-4280000D02*
G02Y-4340000I0J-30000D01*
G01Y-4220000D02*
G02Y-4280000I0J-30000D01*
G01Y-4160000D02*
G02Y-4220000I0J-30000D01*
G01X-526400Y-3630200D02*
X-577200Y-3681000D01*
G01X-526400Y-429800D02*
X-577200Y-379000D01*
G01X337200D02*
X-577200D01*
Y-3681000D01*
X337200D01*
Y-3274600D01*
X286400Y-3223800D01*
Y-3147600D01*
X311800Y-3122200D01*
X337200Y-3096800D01*
Y-379000D01*
G01X-196200Y-3630200D02*
X286400D01*
Y-3300000D01*
X235600Y-3249200D01*
Y-3122200D01*
X286400Y-3071400D01*
Y-429800D01*
X-526400D01*
Y-3630200D01*
X-196200D01*
G01X286400D02*
X337200Y-3681000D01*
G01X286400Y-429800D02*
X337200Y-379000D01*
M02*
