G04 ================== begin FILE IDENTIFICATION RECORD ==================*
G04 Layout Name:  STANDARD.brd*
G04 Film Name:    Soldermask_Top*
G04 File Format:  Gerber RS274X*
G04 File Origin:  Cadence Allegro 16.6-P004*
G04 Origin Date:  Thu Sep 18 09:56:33 2014*
G04 *
G04 Layer:  PIN/TOP*
G04 Layer:  PIN/SOLDERMASK_TOP*
G04 Layer:  PACKAGE GEOMETRY/SOLDERMASK_TOP*
G04 Layer:  MANUFACTURING/SOLDERMASK_TOP*
G04 Layer:  BOARD GEOMETRY/OUTLINE*
G04 Layer:  BOARD GEOMETRY/SOLDERMASK_TOP*
G04 *
G04 Offset:    (0.0000 0.0000)*
G04 Mirror:    No*
G04 Mode:      Positive*
G04 Rotation:  0*
G04 FullContactRelief:  No*
G04 UndefLineWidth:     0.1000*
G04 ================== end FILE IDENTIFICATION RECORD ====================*
%FSLAX25Y25*MOMM*%
%IR0*IPPOS*OFA0.00000B0.00000*MIA0B0*SFA1.00000B1.00000*%
%ADD91R,.52X1.*%
%ADD89R,.72X1.*%
%ADD67R,.7X2.04*%
%ADD19R,1.X.95*%
%ADD68R,.7X1.8*%
%ADD45R,.95X1.*%
%ADD15R,1.74X.3*%
%ADD13R,1.8X.7*%
%ADD110R,.48X1.05*%
%ADD69R,.8X1.9*%
%ADD49R,1.5X.84*%
%ADD16R,1.84X.4*%
%ADD104R,1.05X.48*%
%ADD62C,.5*%
%ADD14R,1.9X.8*%
%ADD63C,.6*%
%ADD53R,1.05X.95*%
%ADD48R,1.3X.6901*%
%ADD66R,.6X1.94*%
%ADD106R,.762X2.032*%
%ADD102R,2.032X.762*%
%ADD84C,.9*%
%ADD17R,2.9X.95*%
%ADD95R,.95X2.9*%
%ADD78R,.85X3.55*%
%ADD76R,.85X2.65*%
%ADD79R,.95X3.65*%
%ADD77R,.95X2.75*%
%ADD105R,.635X1.905*%
%ADD58C,.762*%
%ADD101R,1.905X.635*%
%ADD85R,.508X2.2606*%
%ADD26R,.8001X.8001*%
%ADD25R,.65X.65*%
%ADD86R,.6096X2.3622*%
%ADD61R,2.X3.*%
%ADD38R,1.4X1.*%
%ADD10R,3.X2.*%
%ADD115R,1.X1.4*%
%ADD123R,1.3X2.2*%
%ADD93R,1.2X1.4*%
%ADD72R,1.1X1.05*%
%ADD107R,2.2X1.3*%
%ADD34R,1.05X1.1*%
%ADD28R,1.4X1.3*%
%ADD73R,1.2X1.15*%
%ADD39R,1.6X1.2*%
%ADD116R,1.2X1.6*%
%ADD35R,1.15X1.2*%
%ADD29R,1.5X1.4*%
%ADD20R,1.1501X1.1001*%
%ADD18R,3.1X1.15*%
%ADD124R,1.5X2.4*%
%ADD96R,1.15X3.1*%
%ADD94R,1.4X1.6*%
%ADD46R,1.1001X1.1501*%
%ADD108R,2.4X1.5*%
%ADD65R,1.5X2.04*%
%ADD11C,1.*%
%ADD12C,1.1*%
%ADD87C,1.4*%
%ADD70R,.46X.4*%
%ADD56R,3.56X1.4*%
%ADD119R,1.45X3.7*%
%ADD111R,3.52X2.62*%
%ADD98R,3.58X2.02*%
%ADD90R,.42X.9*%
%ADD64R,1.4X1.94*%
%ADD32R,.4X.46*%
%ADD71R,.56X.5*%
%ADD57R,3.66X1.5*%
%ADD120R,1.55X3.8*%
%ADD112R,3.62X2.72*%
%ADD88R,.62X.9*%
%ADD74R,.85X.4*%
%ADD52R,.9X.8*%
%ADD47C,1.016*%
%ADD33R,.5X.56*%
%ADD36R,.4X.85*%
%ADD100R,2.02X2.89*%
%ADD75R,.95X.5*%
%ADD27C,1.27*%
%ADD21R,.65X.8*%
%ADD54R,.8X.65*%
%ADD37R,.5X.95*%
%ADD125C,1.524*%
%ADD92R,1.4X1.4*%
%ADD22R,.75X.9*%
%ADD97R,3.48X1.92*%
%ADD55R,.9X.75*%
%ADD109R,.28X.85*%
%ADD41R,1.524X1.3462*%
%ADD103R,.85X.28*%
%ADD44R,1.3462X1.524*%
%ADD42R,1.78X3.56*%
%ADD99R,1.92X2.79*%
%ADD121O,1.778X3.81*%
%ADD43R,1.88X3.66*%
%ADD127R,1.524X1.524*%
%ADD117O,3.81X1.778*%
%ADD126C,1.6256*%
%ADD82R,2.0574X3.5052*%
%ADD31R,2.05X1.8499*%
%ADD113O,4.572X1.778*%
%ADD51R,1.8499X2.05*%
%ADD128R,1.6256X1.6256*%
%ADD83R,2.159X3.6068*%
%ADD23R,2.7X1.5999*%
%ADD81R,2.159X4.0894*%
%ADD59R,1.5999X2.7*%
%ADD30R,1.8001X1.5999*%
%ADD50R,1.5999X1.8001*%
%ADD40R,.5588X.508*%
%ADD24R,2.95X1.8499*%
%ADD122O,1.8796X3.9116*%
%ADD60R,1.8499X2.95*%
%ADD118O,3.9116X1.8796*%
%ADD80R,2.0574X3.9878*%
%ADD114O,4.6736X1.8796*%
%ADD129C,.1*%
G75*
%LPD*%
G75*
G36*
G01X-8806440Y1173680D02*
G03I-150000J0D01*
G37*
G36*
G01X358160Y-7345680D02*
G03I-150000J0D01*
G37*
G36*
G01X363560Y1173680D02*
G03I-150000J0D01*
G37*
G36*
G01X-2595000Y-4140000D02*
Y-4420000D01*
X-2895000D01*
Y-4140000D01*
X-2595000D01*
G37*
G36*
G01X-2265000Y-2070000D02*
Y-2350000D01*
X-2565000D01*
Y-2070000D01*
X-2265000D01*
G37*
G36*
G01X-1565000Y-4140000D02*
Y-4420000D01*
X-1865000D01*
Y-4140000D01*
X-1565000D01*
G37*
G36*
G01X-1485000Y-4420000D02*
Y-4140000D01*
X-1185000D01*
Y-4420000D01*
X-1485000D01*
G37*
G36*
G01X-1235000Y-2070000D02*
Y-2350000D01*
X-1535000D01*
Y-2070000D01*
X-1235000D01*
G37*
G36*
G01X-455000Y-4420000D02*
Y-4140000D01*
X-155000D01*
Y-4420000D01*
X-455000D01*
G37*
G54D100*
X-2450000Y-4280000D03*
X-2010000D03*
X-2120000Y-2210000D03*
X-1680000D03*
X-1040000Y-4280000D03*
X-600000D03*
G54D101*
X-2359660Y-1356360D03*
Y-1277620D03*
Y-1196340D03*
Y-1117600D03*
Y-1036320D03*
Y-957580D03*
Y-876300D03*
Y-797560D03*
Y-716280D03*
Y-637540D03*
Y-556260D03*
Y-477520D03*
Y-396240D03*
Y-317500D03*
Y-236220D03*
Y-157480D03*
X-861060Y-1036320D03*
Y-1117600D03*
Y-1196340D03*
Y-1277620D03*
Y-1356360D03*
Y-637540D03*
Y-716280D03*
Y-797560D03*
Y-876300D03*
Y-957580D03*
Y-157480D03*
Y-236220D03*
Y-317500D03*
Y-396240D03*
Y-477520D03*
Y-556260D03*
G54D110*
X-1845000Y-3450000D03*
X-1795000D03*
X-1745000D03*
X-1695000D03*
X-1645000D03*
X-1595000D03*
X-1545000D03*
X-1495000D03*
X-1445000D03*
Y-2850000D03*
X-1495000D03*
X-1545000D03*
X-1595000D03*
X-1645000D03*
X-1695000D03*
X-1745000D03*
X-1795000D03*
X-1845000D03*
X-1395000Y-3450000D03*
Y-2850000D03*
G54D120*
X-522500Y-5670000D03*
X-277500D03*
G54D111*
X-1620000Y-3150000D03*
G54D102*
X-2359660Y-1356360D03*
Y-1277620D03*
Y-1196340D03*
Y-1117600D03*
Y-1036320D03*
Y-957580D03*
Y-876300D03*
Y-797560D03*
Y-716280D03*
Y-637540D03*
Y-556260D03*
Y-477520D03*
Y-396240D03*
Y-317500D03*
Y-236220D03*
Y-157480D03*
X-861060Y-1036320D03*
Y-1117600D03*
Y-1196340D03*
Y-1277620D03*
Y-1356360D03*
Y-637540D03*
Y-716280D03*
Y-797560D03*
Y-876300D03*
Y-957580D03*
Y-157480D03*
Y-236220D03*
Y-317500D03*
Y-396240D03*
Y-477520D03*
Y-556260D03*
G54D121*
X-360680Y-6416040D03*
G54D103*
X-1920000Y-3225000D03*
Y-3275000D03*
Y-3325000D03*
Y-3375000D03*
Y-2925000D03*
Y-2975000D03*
Y-3025000D03*
Y-3075000D03*
Y-3125000D03*
Y-3175000D03*
X-1320000Y-3375000D03*
Y-3325000D03*
Y-3275000D03*
Y-3225000D03*
Y-3175000D03*
Y-3125000D03*
Y-3075000D03*
Y-3025000D03*
Y-2975000D03*
Y-2925000D03*
G54D112*
X-1620000Y-3150000D03*
G54D10*
X-8888900Y-5909960D03*
D03*
Y-5138960D03*
D03*
G54D122*
X-360680Y-6416040D03*
G54D113*
X-830580Y-6116320D03*
G54D11*
X-8956440Y1173680D03*
X208160Y-7345680D03*
X213560Y1173680D03*
G54D20*
X-8465380Y667050D03*
Y817070D03*
X-7565340Y304710D03*
Y454730D03*
X-6794500Y-5243910D03*
Y-5093890D03*
X-5350000Y-564990D03*
Y-715010D03*
X-4765040Y-245190D03*
Y-95170D03*
X-3659600Y-2018510D03*
X-3878200Y-1568290D03*
X-3659600Y-1868490D03*
X-3878200Y-1418270D03*
X-4010660Y714930D03*
Y864950D03*
X-3105400Y-2018510D03*
Y-1868490D03*
X-2882200Y-1593690D03*
Y-1443670D03*
G54D104*
X-1920000Y-3225000D03*
Y-3275000D03*
Y-3325000D03*
Y-3375000D03*
Y-2925000D03*
Y-2975000D03*
Y-3025000D03*
Y-3075000D03*
Y-3125000D03*
Y-3175000D03*
X-1320000Y-3375000D03*
Y-3325000D03*
Y-3275000D03*
Y-3225000D03*
Y-3175000D03*
Y-3125000D03*
Y-3075000D03*
Y-3025000D03*
Y-2975000D03*
Y-2925000D03*
G54D114*
X-830580Y-6116320D03*
G54D30*
X-7858760Y-7117380D03*
Y-6837380D03*
X-7565340Y-220280D03*
Y59720D03*
X-4462780Y-98760D03*
Y-378760D03*
G54D21*
X-8143240Y-5859520D03*
Y-5509520D03*
G54D12*
X-8956440Y1173680D03*
X208160Y-7345680D03*
X213560Y1173680D03*
G54D123*
X-94850Y-6612700D03*
Y-5912700D03*
X-98960Y23380D03*
Y723380D03*
X235150Y-6612700D03*
Y-5912700D03*
X231040Y23380D03*
Y723380D03*
G54D105*
X-1889760Y-1506220D03*
X-1971040D03*
X-2049780D03*
X-2131060D03*
X-2209800D03*
Y-7620D03*
X-2131060D03*
X-2049780D03*
X-1971040D03*
X-1889760D03*
X-1490980Y-1506220D03*
X-1569720D03*
X-1651000D03*
X-1729740D03*
X-1811020D03*
Y-7620D03*
X-1729740D03*
X-1651000D03*
X-1569720D03*
X-1490980D03*
X-1010920Y-1506220D03*
X-1089660D03*
X-1170940D03*
X-1249680D03*
X-1330960D03*
X-1409700D03*
Y-7620D03*
X-1330960D03*
X-1249680D03*
X-1170940D03*
X-1089660D03*
X-1010920D03*
G54D40*
X-7700990Y-4886300D03*
D03*
X-7781250D03*
D03*
X-3227830Y-4292600D03*
D03*
Y-4203700D03*
D03*
Y-4114800D03*
D03*
Y-3670300D03*
D03*
Y-3848100D03*
D03*
Y-3759200D03*
D03*
Y-3937000D03*
D03*
Y-4025900D03*
D03*
Y-3581400D03*
D03*
Y-3314700D03*
D03*
Y-3225800D03*
D03*
Y-3492500D03*
D03*
Y-3403600D03*
D03*
Y-3136900D03*
D03*
Y-3048000D03*
D03*
Y-2959100D03*
D03*
Y-2870200D03*
D03*
X-3147570Y-4292600D03*
D03*
Y-4203700D03*
D03*
Y-4114800D03*
D03*
Y-3670300D03*
D03*
Y-3848100D03*
D03*
Y-3759200D03*
D03*
Y-3937000D03*
D03*
Y-4025900D03*
D03*
Y-3581400D03*
D03*
Y-3314700D03*
D03*
Y-3225800D03*
D03*
Y-3492500D03*
D03*
Y-3403600D03*
D03*
Y-3136900D03*
D03*
Y-3048000D03*
D03*
Y-2959100D03*
D03*
Y-2870200D03*
D03*
G54D31*
X-7858760Y-7117380D03*
Y-6837380D03*
X-7565340Y-220280D03*
Y59720D03*
X-4462780Y-98760D03*
Y-378760D03*
G54D22*
X-8143240Y-5859520D03*
Y-5509520D03*
G54D124*
X-94850Y-6612700D03*
Y-5912700D03*
X-98960Y23380D03*
Y723380D03*
X235150Y-6612700D03*
Y-5912700D03*
X231040Y23380D03*
Y723380D03*
G54D115*
X-978920Y-1828020D03*
X-883920Y-2048020D03*
X-788920Y-1828020D03*
G54D106*
X-1889760Y-1506220D03*
X-1971040D03*
X-2049780D03*
X-2131060D03*
X-2209800D03*
Y-7620D03*
X-2131060D03*
X-2049780D03*
X-1971040D03*
X-1889760D03*
X-1490980Y-1506220D03*
X-1569720D03*
X-1651000D03*
X-1729740D03*
X-1811020D03*
Y-7620D03*
X-1729740D03*
X-1651000D03*
X-1569720D03*
X-1490980D03*
X-1010920Y-1506220D03*
X-1089660D03*
X-1170940D03*
X-1249680D03*
X-1330960D03*
X-1409700D03*
Y-7620D03*
X-1330960D03*
X-1249680D03*
X-1170940D03*
X-1089660D03*
X-1010920D03*
G54D13*
X-8578900Y-5524960D03*
Y-5649960D03*
Y-5399960D03*
G54D50*
X-6048040Y-6812280D03*
X-5768040D03*
X-4496100Y-5219700D03*
X-4216100D03*
X-1025000Y-2660000D03*
X-745000D03*
G54D23*
X-8143240Y-4970480D03*
Y-5250480D03*
X-6477000Y-4927300D03*
Y-5207300D03*
X-2840000Y-3630000D03*
Y-3350000D03*
Y-2820000D03*
Y-2540000D03*
X-820000Y-5770000D03*
Y-5490000D03*
X-450000Y-5260000D03*
Y-4980000D03*
G54D41*
X-7937980Y621740D03*
D03*
Y821740D03*
D03*
X-7373620Y-5693080D03*
D03*
Y-5493080D03*
D03*
X-6578600Y-4595800D03*
D03*
Y-4164000D03*
D03*
Y-4395800D03*
D03*
Y-3964000D03*
D03*
X-4426350Y-2468570D03*
D03*
Y-2268570D03*
D03*
X-4106800Y-1593280D03*
D03*
Y-1393280D03*
D03*
X-3888200Y-2013500D03*
D03*
X-3649600Y-1593280D03*
D03*
X-3888200Y-1813500D03*
D03*
X-3649600Y-1393280D03*
D03*
X-3190000Y-2470000D03*
D03*
Y-2270000D03*
D03*
X-2889500Y-2043500D03*
D03*
Y-1843500D03*
D03*
X-3098100Y-1618680D03*
D03*
Y-1418680D03*
D03*
G54D125*
X-247000Y-3173000D03*
Y-2919000D03*
Y-2411000D03*
Y-2665000D03*
Y-1903000D03*
Y-2157000D03*
Y-1395000D03*
Y-1649000D03*
Y-1141000D03*
Y-887000D03*
X7000Y-2919000D03*
Y-2411000D03*
Y-2665000D03*
Y-1903000D03*
Y-2157000D03*
Y-1395000D03*
Y-1649000D03*
Y-1141000D03*
Y-887000D03*
G54D32*
X-7959320Y-6325160D03*
X-7894320D03*
X-7829320D03*
Y-6141160D03*
X-7894320D03*
X-7959320D03*
G54D116*
X-978920Y-1828020D03*
X-883920Y-2048020D03*
X-788920Y-1828020D03*
G54D107*
X-2013700Y741780D03*
Y1071780D03*
X-1313700Y741780D03*
Y1071780D03*
G54D14*
X-8578900Y-5524960D03*
Y-5649960D03*
Y-5399960D03*
G54D60*
X-6160000Y-2380000D03*
X-5880000D03*
X-5000000D03*
X-4720000D03*
X-2520000Y-3350000D03*
Y-2960000D03*
X-2240000Y-3350000D03*
Y-2960000D03*
X-1025000Y-3485000D03*
Y-2990000D03*
X-745000Y-3485000D03*
Y-2990000D03*
G54D24*
X-8143240Y-4970480D03*
Y-5250480D03*
X-6477000Y-4927300D03*
Y-5207300D03*
X-2840000Y-3630000D03*
Y-3350000D03*
Y-2820000D03*
Y-2540000D03*
X-820000Y-5770000D03*
Y-5490000D03*
X-450000Y-5260000D03*
Y-4980000D03*
G54D51*
X-6048040Y-6812280D03*
X-5768040D03*
X-4496100Y-5219700D03*
X-4216100D03*
X-1025000Y-2660000D03*
X-745000D03*
G54D126*
X-247000Y-3173000D03*
Y-2919000D03*
Y-2411000D03*
Y-2665000D03*
Y-1903000D03*
Y-2157000D03*
Y-1395000D03*
Y-1649000D03*
Y-1141000D03*
Y-887000D03*
X7000Y-2919000D03*
Y-2411000D03*
Y-2665000D03*
Y-1903000D03*
Y-2157000D03*
Y-1395000D03*
Y-1649000D03*
Y-1141000D03*
Y-887000D03*
G54D117*
X-830580Y-6715760D03*
G54D42*
X-7493100Y-6858000D03*
X-6553100D03*
G54D33*
X-7959320Y-6325160D03*
X-7894320D03*
X-7829320D03*
Y-6141160D03*
X-7894320D03*
X-7959320D03*
G54D108*
X-2013700Y741780D03*
Y1071780D03*
X-1313700Y741780D03*
Y1071780D03*
G54D15*
X-8599700Y-3634100D03*
Y-3584100D03*
Y-3534100D03*
Y-3484100D03*
Y-3434100D03*
Y-3384100D03*
Y-3334100D03*
Y-3284100D03*
Y-3234100D03*
Y-3184100D03*
Y-3134100D03*
Y-3084100D03*
Y-3034100D03*
Y-2984100D03*
Y-2934100D03*
Y-2884100D03*
Y-2834100D03*
Y-2784100D03*
Y-2734100D03*
Y-2684100D03*
Y-2634100D03*
Y-2584100D03*
Y-2534100D03*
Y-2484100D03*
Y-2434100D03*
Y-2384100D03*
Y-1995800D03*
Y-1945800D03*
Y-2334100D03*
Y-2284100D03*
Y-1895800D03*
Y-1845800D03*
Y-1795800D03*
Y-1745800D03*
Y-1695800D03*
Y-1645800D03*
Y-1595800D03*
Y-1545800D03*
Y-1495800D03*
Y-1445800D03*
Y-1395800D03*
Y-1345800D03*
Y-1295800D03*
Y-1245800D03*
Y-1195800D03*
Y-1145800D03*
Y-1095800D03*
Y-1045800D03*
Y-995800D03*
Y-945800D03*
Y-895800D03*
Y-845800D03*
Y-795800D03*
Y-745800D03*
Y-695800D03*
Y-645800D03*
X-6665700Y-3234100D03*
Y-3284100D03*
Y-3334100D03*
Y-3384100D03*
Y-3434100D03*
Y-3484100D03*
Y-3534100D03*
Y-3584100D03*
Y-3634100D03*
Y-2834100D03*
Y-2884100D03*
Y-2934100D03*
Y-2984100D03*
Y-3034100D03*
Y-3084100D03*
Y-3134100D03*
Y-3184100D03*
Y-2384100D03*
Y-2434100D03*
Y-2484100D03*
Y-2534100D03*
Y-2584100D03*
Y-2634100D03*
Y-2684100D03*
Y-2734100D03*
Y-2784100D03*
Y-1945800D03*
Y-1995800D03*
Y-2284100D03*
Y-2334100D03*
Y-1495800D03*
Y-1545800D03*
Y-1595800D03*
Y-1645800D03*
Y-1695800D03*
Y-1745800D03*
Y-1795800D03*
Y-1845800D03*
Y-1895800D03*
Y-1045800D03*
Y-1095800D03*
Y-1145800D03*
Y-1195800D03*
Y-1245800D03*
Y-1295800D03*
Y-1345800D03*
Y-1395800D03*
Y-1445800D03*
Y-645800D03*
Y-695800D03*
Y-745800D03*
Y-795800D03*
Y-845800D03*
Y-895800D03*
Y-945800D03*
Y-995800D03*
G54D118*
X-830580Y-6715760D03*
G54D127*
X7000Y-3173000D03*
G54D43*
X-7493100Y-6858000D03*
X-6553100D03*
G54D109*
X-1845000Y-3450000D03*
X-1795000D03*
X-1745000D03*
X-1695000D03*
X-1645000D03*
X-1595000D03*
X-1545000D03*
X-1495000D03*
X-1445000D03*
Y-2850000D03*
X-1495000D03*
X-1545000D03*
X-1595000D03*
X-1645000D03*
X-1695000D03*
X-1745000D03*
X-1795000D03*
X-1845000D03*
X-1395000Y-3450000D03*
Y-2850000D03*
G54D52*
X-6102100Y-5181600D03*
X-5912100Y-5116600D03*
Y-5246600D03*
G54D70*
X-5283760Y-157480D03*
Y-222480D03*
X-5099760D03*
Y-157480D03*
X-5283760Y-92480D03*
X-5099760D03*
G54D34*
X-7926820Y-6233160D03*
G54D61*
X-5356320Y-7255680D03*
D03*
X-4210320D03*
D03*
G54D25*
X-8232140Y-4588510D03*
Y-4494530D03*
X-7788110Y-5366300D03*
X-7694130D03*
X-7421130Y-5213290D03*
Y-5119310D03*
X-6362700Y-5533390D03*
Y-5439410D03*
X-6308090Y-3327410D03*
X-6214110D03*
X-5803900Y-5464810D03*
Y-5558790D03*
X-5260340Y-5525770D03*
Y-5619750D03*
X-5283190Y-5210810D03*
Y-5304790D03*
X-4066000Y-1896510D03*
Y-1990490D03*
X-3985260Y-5210810D03*
Y-5304790D03*
X-3247390Y-2768600D03*
X-3507200Y-1990490D03*
Y-1896510D03*
X-3270500D03*
Y-1990490D03*
X-3288600Y-1540270D03*
X-3471800D03*
X-3288600Y-1446290D03*
X-3471800D03*
X-3153410Y-2768600D03*
X-2711700Y-1896510D03*
Y-1990490D03*
X-2714400Y-1565670D03*
Y-1471690D03*
X-1873010Y-3640010D03*
X-1966990D03*
X-1756990Y-3640000D03*
X-1663010D03*
X-1318010Y-3640010D03*
X-1411990D03*
X-1273810Y259080D03*
X-1179830D03*
X-1377950Y429260D03*
X-1283970D03*
G54D16*
X-8599700Y-3634100D03*
Y-3584100D03*
Y-3534100D03*
Y-3484100D03*
Y-3434100D03*
Y-3384100D03*
Y-3334100D03*
Y-3284100D03*
Y-3234100D03*
Y-3184100D03*
Y-3134100D03*
Y-3084100D03*
Y-3034100D03*
Y-2984100D03*
Y-2934100D03*
Y-2884100D03*
Y-2834100D03*
Y-2784100D03*
Y-2734100D03*
Y-2684100D03*
Y-2634100D03*
Y-2584100D03*
Y-2534100D03*
Y-2484100D03*
Y-2434100D03*
Y-2384100D03*
Y-1995800D03*
Y-1945800D03*
Y-2334100D03*
Y-2284100D03*
Y-1895800D03*
Y-1845800D03*
Y-1795800D03*
Y-1745800D03*
Y-1695800D03*
Y-1645800D03*
Y-1595800D03*
Y-1545800D03*
Y-1495800D03*
Y-1445800D03*
Y-1395800D03*
Y-1345800D03*
Y-1295800D03*
Y-1245800D03*
Y-1195800D03*
Y-1145800D03*
Y-1095800D03*
Y-1045800D03*
Y-995800D03*
Y-945800D03*
Y-895800D03*
Y-845800D03*
Y-795800D03*
Y-745800D03*
Y-695800D03*
Y-645800D03*
X-6665700Y-3234100D03*
Y-3284100D03*
Y-3334100D03*
Y-3384100D03*
Y-3434100D03*
Y-3484100D03*
Y-3534100D03*
Y-3584100D03*
Y-3634100D03*
Y-2834100D03*
Y-2884100D03*
Y-2934100D03*
Y-2984100D03*
Y-3034100D03*
Y-3084100D03*
Y-3134100D03*
Y-3184100D03*
Y-2384100D03*
Y-2434100D03*
Y-2484100D03*
Y-2534100D03*
Y-2584100D03*
Y-2634100D03*
Y-2684100D03*
Y-2734100D03*
Y-2784100D03*
Y-1945800D03*
Y-1995800D03*
Y-2284100D03*
Y-2334100D03*
Y-1495800D03*
Y-1545800D03*
Y-1595800D03*
Y-1645800D03*
Y-1695800D03*
Y-1745800D03*
Y-1795800D03*
Y-1845800D03*
Y-1895800D03*
Y-1045800D03*
Y-1095800D03*
Y-1145800D03*
Y-1195800D03*
Y-1245800D03*
Y-1295800D03*
Y-1345800D03*
Y-1395800D03*
Y-1445800D03*
Y-645800D03*
Y-695800D03*
Y-745800D03*
Y-795800D03*
Y-845800D03*
Y-895800D03*
Y-945800D03*
Y-995800D03*
G54D80*
X-3858140Y-7081140D03*
X-2873120D03*
G54D128*
X7000Y-3173000D03*
G54D44*
X-6742100Y-5486400D03*
D03*
X-7085000Y-4533900D03*
D03*
X-6885000D03*
D03*
X-7085000Y-4292600D03*
D03*
X-6885000D03*
D03*
X-6542100Y-5486400D03*
D03*
X-2046300Y-5791200D03*
D03*
X-2246300D03*
D03*
G54D71*
X-5283760Y-157480D03*
Y-222480D03*
X-5099760D03*
Y-157480D03*
X-5283760Y-92480D03*
X-5099760D03*
G54D119*
X-522500Y-5670000D03*
X-277500D03*
G54D35*
X-7926820Y-6233160D03*
G54D26*
X-8232140Y-4588510D03*
Y-4494530D03*
X-7788110Y-5366300D03*
X-7694130D03*
X-7421130Y-5213290D03*
Y-5119310D03*
X-6362700Y-5533390D03*
Y-5439410D03*
X-6308090Y-3327410D03*
X-6214110D03*
X-5803900Y-5464810D03*
Y-5558790D03*
X-5260340Y-5525770D03*
Y-5619750D03*
X-5283190Y-5210810D03*
Y-5304790D03*
X-4066000Y-1896510D03*
Y-1990490D03*
X-3985260Y-5210810D03*
Y-5304790D03*
X-3247390Y-2768600D03*
X-3507200Y-1990490D03*
Y-1896510D03*
X-3270500D03*
Y-1990490D03*
X-3288600Y-1540270D03*
X-3471800D03*
X-3288600Y-1446290D03*
X-3471800D03*
X-3153410Y-2768600D03*
X-2711700Y-1896510D03*
Y-1990490D03*
X-2714400Y-1565670D03*
Y-1471690D03*
X-1873010Y-3640010D03*
X-1966990D03*
X-1756990Y-3640000D03*
X-1663010D03*
X-1318010Y-3640010D03*
X-1411990D03*
X-1273810Y259080D03*
X-1179830D03*
X-1377950Y429260D03*
X-1283970D03*
G54D17*
X-8430120Y55420D03*
X-7980120D03*
X-2785000Y-5220000D03*
X-2335000D03*
X-1955000D03*
X-1505000D03*
G54D53*
X-6102100Y-5181600D03*
X-5912100Y-5116600D03*
Y-5246600D03*
G54D62*
X-5596600Y-4898100D03*
Y-4798100D03*
Y-4698100D03*
Y-4598100D03*
X-5496600Y-4898100D03*
Y-4798100D03*
Y-4698100D03*
Y-4598100D03*
X-5396600Y-4898100D03*
Y-4798100D03*
Y-4698100D03*
Y-4598100D03*
X-5596600Y-4498100D03*
Y-4398100D03*
Y-4298100D03*
Y-4198100D03*
Y-4098100D03*
X-5496600Y-4498100D03*
Y-4398100D03*
Y-4298100D03*
Y-4198100D03*
Y-4098100D03*
X-5396600Y-4498100D03*
Y-4398100D03*
Y-4298100D03*
Y-4198100D03*
Y-4098100D03*
X-5596600Y-3998100D03*
Y-3898100D03*
Y-3798100D03*
Y-3698100D03*
X-5496600Y-3998100D03*
Y-3898100D03*
Y-3798100D03*
Y-3698100D03*
X-5396600Y-3998100D03*
Y-3898100D03*
Y-3798100D03*
Y-3698100D03*
X-5596600Y-3598100D03*
Y-3498100D03*
Y-3398100D03*
Y-3298100D03*
X-5496600Y-3598100D03*
Y-3498100D03*
Y-3398100D03*
Y-3298100D03*
X-5396600Y-3598100D03*
Y-3498100D03*
Y-3398100D03*
Y-3298100D03*
X-5596600Y-3198100D03*
Y-3098100D03*
Y-2998100D03*
Y-2898100D03*
Y-2798100D03*
X-5496600Y-3198100D03*
Y-3098100D03*
Y-2998100D03*
Y-2898100D03*
Y-2798100D03*
X-5396600Y-3198100D03*
Y-3098100D03*
Y-2998100D03*
Y-2898100D03*
Y-2798100D03*
X-5296600Y-4898100D03*
Y-4798100D03*
Y-4698100D03*
Y-4598100D03*
X-5196600Y-4898100D03*
Y-4798100D03*
Y-4698100D03*
Y-4598100D03*
X-5096600Y-4898100D03*
Y-4798100D03*
Y-4698100D03*
Y-4598100D03*
X-4996600Y-4898100D03*
Y-4798100D03*
Y-4698100D03*
Y-4598100D03*
X-5296600Y-4498100D03*
Y-4398100D03*
Y-4298100D03*
Y-4198100D03*
Y-4098100D03*
X-5196600Y-4498100D03*
Y-4398100D03*
Y-4298100D03*
Y-4198100D03*
Y-4098100D03*
X-5096600Y-4498100D03*
Y-4398100D03*
Y-4298100D03*
Y-4198100D03*
Y-4098100D03*
X-4996600Y-4498100D03*
Y-4398100D03*
X-5296600Y-3998100D03*
Y-3898100D03*
Y-3798100D03*
Y-3698100D03*
X-5196600Y-3998100D03*
Y-3898100D03*
Y-3798100D03*
Y-3698100D03*
X-5096600Y-3998100D03*
Y-3898100D03*
Y-3798100D03*
Y-3698100D03*
X-5296600Y-3598100D03*
Y-3498100D03*
Y-3398100D03*
Y-3298100D03*
X-5196600Y-3598100D03*
Y-3498100D03*
Y-3398100D03*
Y-3298100D03*
X-5096600Y-3598100D03*
Y-3498100D03*
Y-3398100D03*
Y-3298100D03*
X-4996600D03*
X-5296600Y-3198100D03*
Y-3098100D03*
Y-2998100D03*
Y-2898100D03*
Y-2798100D03*
X-5196600Y-3198100D03*
Y-3098100D03*
Y-2998100D03*
Y-2898100D03*
Y-2798100D03*
X-5096600Y-3198100D03*
Y-3098100D03*
Y-2998100D03*
Y-2898100D03*
Y-2798100D03*
X-4996600Y-3198100D03*
Y-3098100D03*
Y-2998100D03*
Y-2898100D03*
Y-2798100D03*
X-4896600Y-4898100D03*
Y-4798100D03*
Y-4698100D03*
Y-4598100D03*
X-4796600Y-4898100D03*
Y-4798100D03*
Y-4698100D03*
Y-4598100D03*
X-4696600Y-4898100D03*
Y-4798100D03*
Y-4698100D03*
Y-4598100D03*
X-4596600Y-4898100D03*
Y-4798100D03*
Y-4698100D03*
Y-4598100D03*
X-4896600Y-4498100D03*
Y-4398100D03*
X-4796600Y-4498100D03*
Y-4398100D03*
Y-4098100D03*
X-4696600Y-4498100D03*
Y-4398100D03*
Y-4098100D03*
X-4596600Y-4498100D03*
Y-4398100D03*
Y-4098100D03*
X-4796600Y-3998100D03*
Y-3898100D03*
Y-3798100D03*
Y-3698100D03*
X-4696600Y-3998100D03*
Y-3898100D03*
Y-3798100D03*
Y-3698100D03*
X-4596600Y-3998100D03*
Y-3898100D03*
Y-3798100D03*
Y-3698100D03*
X-4896600Y-3298100D03*
X-4796600Y-3598100D03*
Y-3298100D03*
X-4696600Y-3598100D03*
Y-3298100D03*
X-4596600Y-3598100D03*
Y-3298100D03*
X-4896600Y-3198100D03*
Y-3098100D03*
Y-2998100D03*
Y-2898100D03*
Y-2798100D03*
X-4796600Y-3198100D03*
Y-3098100D03*
Y-2998100D03*
Y-2898100D03*
Y-2798100D03*
X-4696600Y-3198100D03*
Y-3098100D03*
Y-2998100D03*
Y-2898100D03*
Y-2798100D03*
X-4596600Y-3198100D03*
Y-3098100D03*
Y-2998100D03*
Y-2898100D03*
Y-2798100D03*
X-4496600Y-4898100D03*
Y-4798100D03*
Y-4698100D03*
Y-4598100D03*
X-4396600Y-4898100D03*
Y-4798100D03*
Y-4698100D03*
Y-4598100D03*
X-4296600Y-4898100D03*
Y-4798100D03*
Y-4698100D03*
Y-4598100D03*
X-4196600Y-4898100D03*
Y-4798100D03*
Y-4698100D03*
Y-4598100D03*
X-4096600Y-4898100D03*
Y-4798100D03*
Y-4698100D03*
Y-4598100D03*
X-4496600Y-4498100D03*
Y-4398100D03*
Y-4098100D03*
X-4396600Y-4498100D03*
Y-4398100D03*
Y-4098100D03*
X-4296600Y-4498100D03*
Y-4398100D03*
Y-4098100D03*
X-4196600Y-4498100D03*
Y-4398100D03*
X-4096600Y-4498100D03*
Y-4398100D03*
X-4496600Y-3998100D03*
Y-3898100D03*
Y-3798100D03*
Y-3698100D03*
X-4396600Y-3998100D03*
Y-3898100D03*
Y-3798100D03*
Y-3698100D03*
X-4296600Y-3998100D03*
Y-3898100D03*
Y-3798100D03*
Y-3698100D03*
X-4496600Y-3598100D03*
Y-3298100D03*
X-4396600Y-3598100D03*
Y-3298100D03*
X-4296600Y-3598100D03*
Y-3298100D03*
X-4196600D03*
X-4096600D03*
X-4496600Y-3198100D03*
Y-3098100D03*
Y-2998100D03*
Y-2898100D03*
Y-2798100D03*
X-4396600Y-3198100D03*
Y-3098100D03*
Y-2998100D03*
Y-2898100D03*
Y-2798100D03*
X-4296600Y-3198100D03*
Y-3098100D03*
Y-2998100D03*
Y-2898100D03*
Y-2798100D03*
X-4196600Y-3198100D03*
Y-3098100D03*
Y-2998100D03*
Y-2898100D03*
Y-2798100D03*
X-4096600Y-3198100D03*
Y-3098100D03*
Y-2998100D03*
Y-2898100D03*
Y-2798100D03*
X-3996600Y-4898100D03*
Y-4798100D03*
Y-4698100D03*
Y-4598100D03*
X-3896600Y-4898100D03*
Y-4798100D03*
Y-4698100D03*
Y-4598100D03*
X-3796600Y-4898100D03*
Y-4798100D03*
Y-4698100D03*
Y-4598100D03*
X-3696600Y-4898100D03*
Y-4798100D03*
Y-4698100D03*
Y-4598100D03*
X-3996600Y-4498100D03*
Y-4398100D03*
Y-4298100D03*
Y-4198100D03*
Y-4098100D03*
X-3896600Y-4498100D03*
Y-4398100D03*
Y-4298100D03*
Y-4198100D03*
Y-4098100D03*
X-3796600Y-4498100D03*
Y-4398100D03*
Y-4298100D03*
Y-4198100D03*
Y-4098100D03*
X-3696600Y-4498100D03*
Y-4398100D03*
Y-4298100D03*
Y-4198100D03*
Y-4098100D03*
X-3996600Y-3998100D03*
Y-3898100D03*
Y-3798100D03*
Y-3698100D03*
X-3896600Y-3998100D03*
Y-3898100D03*
Y-3798100D03*
Y-3698100D03*
X-3796600Y-3998100D03*
Y-3898100D03*
Y-3798100D03*
Y-3698100D03*
X-3696600Y-3998100D03*
Y-3898100D03*
Y-3798100D03*
Y-3698100D03*
X-3996600Y-3598100D03*
Y-3498100D03*
Y-3398100D03*
Y-3298100D03*
X-3896600Y-3598100D03*
Y-3498100D03*
Y-3398100D03*
Y-3298100D03*
X-3796600Y-3598100D03*
Y-3498100D03*
Y-3398100D03*
Y-3298100D03*
X-3696600Y-3598100D03*
Y-3498100D03*
Y-3398100D03*
Y-3298100D03*
X-3996600Y-3198100D03*
Y-3098100D03*
Y-2998100D03*
Y-2898100D03*
Y-2798100D03*
X-3896600Y-3198100D03*
Y-3098100D03*
Y-2998100D03*
Y-2898100D03*
Y-2798100D03*
X-3796600Y-3198100D03*
Y-3098100D03*
Y-2998100D03*
Y-2898100D03*
Y-2798100D03*
X-3696600Y-3198100D03*
Y-3098100D03*
Y-2998100D03*
Y-2898100D03*
Y-2798100D03*
X-3596600Y-4898100D03*
Y-4798100D03*
Y-4698100D03*
Y-4598100D03*
X-3496600Y-4898100D03*
Y-4798100D03*
Y-4698100D03*
Y-4598100D03*
X-3596600Y-4498100D03*
Y-4398100D03*
Y-4298100D03*
Y-4198100D03*
Y-4098100D03*
X-3496600Y-4498100D03*
Y-4398100D03*
Y-4298100D03*
Y-4198100D03*
Y-4098100D03*
X-3596600Y-3998100D03*
Y-3898100D03*
Y-3798100D03*
Y-3698100D03*
X-3496600Y-3998100D03*
Y-3898100D03*
Y-3798100D03*
Y-3698100D03*
X-3596600Y-3598100D03*
Y-3498100D03*
Y-3398100D03*
Y-3298100D03*
X-3496600Y-3598100D03*
Y-3498100D03*
Y-3398100D03*
Y-3298100D03*
X-3596600Y-3198100D03*
Y-3098100D03*
Y-2998100D03*
Y-2898100D03*
Y-2798100D03*
X-3496600Y-3198100D03*
Y-3098100D03*
Y-2998100D03*
Y-2898100D03*
G54D129*
G01X-9169000Y-7603000D02*
X431000D01*
Y1397000D01*
X-9169000D01*
Y-7603000D01*
G54D81*
X-3858140Y-7081140D03*
X-2873120D03*
G54D54*
X-6184640Y-4838700D03*
X-5834640D03*
G54D27*
X-8140700Y-2484100D03*
D03*
Y-845800D03*
D03*
X-7124700Y-2484100D03*
D03*
Y-845800D03*
D03*
X-6670040Y-5735320D03*
X-3799840Y-975360D03*
X-2990000Y-2240000D03*
X-1440000Y-5790000D03*
G54D36*
X-7829320Y-6220660D03*
G54D90*
X-3201440Y-5601160D03*
X-3331440Y-5341160D03*
X-3201440D03*
G54D18*
X-8430120Y55420D03*
X-7980120D03*
X-2785000Y-5220000D03*
X-2335000D03*
X-1955000D03*
X-1505000D03*
G54D72*
X-5191760Y-124980D03*
G54D63*
X-5596600Y-4898100D03*
Y-4798100D03*
Y-4698100D03*
Y-4598100D03*
X-5496600Y-4898100D03*
Y-4798100D03*
Y-4698100D03*
Y-4598100D03*
X-5396600Y-4898100D03*
Y-4798100D03*
Y-4698100D03*
Y-4598100D03*
X-5596600Y-4498100D03*
Y-4398100D03*
Y-4298100D03*
Y-4198100D03*
Y-4098100D03*
X-5496600Y-4498100D03*
Y-4398100D03*
Y-4298100D03*
Y-4198100D03*
Y-4098100D03*
X-5396600Y-4498100D03*
Y-4398100D03*
Y-4298100D03*
Y-4198100D03*
Y-4098100D03*
X-5596600Y-3998100D03*
Y-3898100D03*
Y-3798100D03*
Y-3698100D03*
X-5496600Y-3998100D03*
Y-3898100D03*
Y-3798100D03*
Y-3698100D03*
X-5396600Y-3998100D03*
Y-3898100D03*
Y-3798100D03*
Y-3698100D03*
X-5596600Y-3598100D03*
Y-3498100D03*
Y-3398100D03*
Y-3298100D03*
X-5496600Y-3598100D03*
Y-3498100D03*
Y-3398100D03*
Y-3298100D03*
X-5396600Y-3598100D03*
Y-3498100D03*
Y-3398100D03*
Y-3298100D03*
X-5596600Y-3198100D03*
Y-3098100D03*
Y-2998100D03*
Y-2898100D03*
Y-2798100D03*
X-5496600Y-3198100D03*
Y-3098100D03*
Y-2998100D03*
Y-2898100D03*
Y-2798100D03*
X-5396600Y-3198100D03*
Y-3098100D03*
Y-2998100D03*
Y-2898100D03*
Y-2798100D03*
X-5296600Y-4898100D03*
Y-4798100D03*
Y-4698100D03*
Y-4598100D03*
X-5196600Y-4898100D03*
Y-4798100D03*
Y-4698100D03*
Y-4598100D03*
X-5096600Y-4898100D03*
Y-4798100D03*
Y-4698100D03*
Y-4598100D03*
X-4996600Y-4898100D03*
Y-4798100D03*
Y-4698100D03*
Y-4598100D03*
X-5296600Y-4498100D03*
Y-4398100D03*
Y-4298100D03*
Y-4198100D03*
Y-4098100D03*
X-5196600Y-4498100D03*
Y-4398100D03*
Y-4298100D03*
Y-4198100D03*
Y-4098100D03*
X-5096600Y-4498100D03*
Y-4398100D03*
Y-4298100D03*
Y-4198100D03*
Y-4098100D03*
X-4996600Y-4498100D03*
Y-4398100D03*
X-5296600Y-3998100D03*
Y-3898100D03*
Y-3798100D03*
Y-3698100D03*
X-5196600Y-3998100D03*
Y-3898100D03*
Y-3798100D03*
Y-3698100D03*
X-5096600Y-3998100D03*
Y-3898100D03*
Y-3798100D03*
Y-3698100D03*
X-5296600Y-3598100D03*
Y-3498100D03*
Y-3398100D03*
Y-3298100D03*
X-5196600Y-3598100D03*
Y-3498100D03*
Y-3398100D03*
Y-3298100D03*
X-5096600Y-3598100D03*
Y-3498100D03*
Y-3398100D03*
Y-3298100D03*
X-4996600D03*
X-5296600Y-3198100D03*
Y-3098100D03*
Y-2998100D03*
Y-2898100D03*
Y-2798100D03*
X-5196600Y-3198100D03*
Y-3098100D03*
Y-2998100D03*
Y-2898100D03*
Y-2798100D03*
X-5096600Y-3198100D03*
Y-3098100D03*
Y-2998100D03*
Y-2898100D03*
Y-2798100D03*
X-4996600Y-3198100D03*
Y-3098100D03*
Y-2998100D03*
Y-2898100D03*
Y-2798100D03*
X-4896600Y-4898100D03*
Y-4798100D03*
Y-4698100D03*
Y-4598100D03*
X-4796600Y-4898100D03*
Y-4798100D03*
Y-4698100D03*
Y-4598100D03*
X-4696600Y-4898100D03*
Y-4798100D03*
Y-4698100D03*
Y-4598100D03*
X-4596600Y-4898100D03*
Y-4798100D03*
Y-4698100D03*
Y-4598100D03*
X-4896600Y-4498100D03*
Y-4398100D03*
X-4796600Y-4498100D03*
Y-4398100D03*
Y-4098100D03*
X-4696600Y-4498100D03*
Y-4398100D03*
Y-4098100D03*
X-4596600Y-4498100D03*
Y-4398100D03*
Y-4098100D03*
X-4796600Y-3998100D03*
Y-3898100D03*
Y-3798100D03*
Y-3698100D03*
X-4696600Y-3998100D03*
Y-3898100D03*
Y-3798100D03*
Y-3698100D03*
X-4596600Y-3998100D03*
Y-3898100D03*
Y-3798100D03*
Y-3698100D03*
X-4896600Y-3298100D03*
X-4796600Y-3598100D03*
Y-3298100D03*
X-4696600Y-3598100D03*
Y-3298100D03*
X-4596600Y-3598100D03*
Y-3298100D03*
X-4896600Y-3198100D03*
Y-3098100D03*
Y-2998100D03*
Y-2898100D03*
Y-2798100D03*
X-4796600Y-3198100D03*
Y-3098100D03*
Y-2998100D03*
Y-2898100D03*
Y-2798100D03*
X-4696600Y-3198100D03*
Y-3098100D03*
Y-2998100D03*
Y-2898100D03*
Y-2798100D03*
X-4596600Y-3198100D03*
Y-3098100D03*
Y-2998100D03*
Y-2898100D03*
Y-2798100D03*
X-4496600Y-4898100D03*
Y-4798100D03*
Y-4698100D03*
Y-4598100D03*
X-4396600Y-4898100D03*
Y-4798100D03*
Y-4698100D03*
Y-4598100D03*
X-4296600Y-4898100D03*
Y-4798100D03*
Y-4698100D03*
Y-4598100D03*
X-4196600Y-4898100D03*
Y-4798100D03*
Y-4698100D03*
Y-4598100D03*
X-4096600Y-4898100D03*
Y-4798100D03*
Y-4698100D03*
Y-4598100D03*
X-4496600Y-4498100D03*
Y-4398100D03*
Y-4098100D03*
X-4396600Y-4498100D03*
Y-4398100D03*
Y-4098100D03*
X-4296600Y-4498100D03*
Y-4398100D03*
Y-4098100D03*
X-4196600Y-4498100D03*
Y-4398100D03*
X-4096600Y-4498100D03*
Y-4398100D03*
X-4496600Y-3998100D03*
Y-3898100D03*
Y-3798100D03*
Y-3698100D03*
X-4396600Y-3998100D03*
Y-3898100D03*
Y-3798100D03*
Y-3698100D03*
X-4296600Y-3998100D03*
Y-3898100D03*
Y-3798100D03*
Y-3698100D03*
X-4496600Y-3598100D03*
Y-3298100D03*
X-4396600Y-3598100D03*
Y-3298100D03*
X-4296600Y-3598100D03*
Y-3298100D03*
X-4196600D03*
X-4096600D03*
X-4496600Y-3198100D03*
Y-3098100D03*
Y-2998100D03*
Y-2898100D03*
Y-2798100D03*
X-4396600Y-3198100D03*
Y-3098100D03*
Y-2998100D03*
Y-2898100D03*
Y-2798100D03*
X-4296600Y-3198100D03*
Y-3098100D03*
Y-2998100D03*
Y-2898100D03*
Y-2798100D03*
X-4196600Y-3198100D03*
Y-3098100D03*
Y-2998100D03*
Y-2898100D03*
Y-2798100D03*
X-4096600Y-3198100D03*
Y-3098100D03*
Y-2998100D03*
Y-2898100D03*
Y-2798100D03*
X-3996600Y-4898100D03*
Y-4798100D03*
Y-4698100D03*
Y-4598100D03*
X-3896600Y-4898100D03*
Y-4798100D03*
Y-4698100D03*
Y-4598100D03*
X-3796600Y-4898100D03*
Y-4798100D03*
Y-4698100D03*
Y-4598100D03*
X-3696600Y-4898100D03*
Y-4798100D03*
Y-4698100D03*
Y-4598100D03*
X-3996600Y-4498100D03*
Y-4398100D03*
Y-4298100D03*
Y-4198100D03*
Y-4098100D03*
X-3896600Y-4498100D03*
Y-4398100D03*
Y-4298100D03*
Y-4198100D03*
Y-4098100D03*
X-3796600Y-4498100D03*
Y-4398100D03*
Y-4298100D03*
Y-4198100D03*
Y-4098100D03*
X-3696600Y-4498100D03*
Y-4398100D03*
Y-4298100D03*
Y-4198100D03*
Y-4098100D03*
X-3996600Y-3998100D03*
Y-3898100D03*
Y-3798100D03*
Y-3698100D03*
X-3896600Y-3998100D03*
Y-3898100D03*
Y-3798100D03*
Y-3698100D03*
X-3796600Y-3998100D03*
Y-3898100D03*
Y-3798100D03*
Y-3698100D03*
X-3696600Y-3998100D03*
Y-3898100D03*
Y-3798100D03*
Y-3698100D03*
X-3996600Y-3598100D03*
Y-3498100D03*
Y-3398100D03*
Y-3298100D03*
X-3896600Y-3598100D03*
Y-3498100D03*
Y-3398100D03*
Y-3298100D03*
X-3796600Y-3598100D03*
Y-3498100D03*
Y-3398100D03*
Y-3298100D03*
X-3696600Y-3598100D03*
Y-3498100D03*
Y-3398100D03*
Y-3298100D03*
X-3996600Y-3198100D03*
Y-3098100D03*
Y-2998100D03*
Y-2898100D03*
Y-2798100D03*
X-3896600Y-3198100D03*
Y-3098100D03*
Y-2998100D03*
Y-2898100D03*
Y-2798100D03*
X-3796600Y-3198100D03*
Y-3098100D03*
Y-2998100D03*
Y-2898100D03*
Y-2798100D03*
X-3696600Y-3198100D03*
Y-3098100D03*
Y-2998100D03*
Y-2898100D03*
Y-2798100D03*
X-3596600Y-4898100D03*
Y-4798100D03*
Y-4698100D03*
Y-4598100D03*
X-3496600Y-4898100D03*
Y-4798100D03*
Y-4698100D03*
Y-4598100D03*
X-3596600Y-4498100D03*
Y-4398100D03*
Y-4298100D03*
Y-4198100D03*
Y-4098100D03*
X-3496600Y-4498100D03*
Y-4398100D03*
Y-4298100D03*
Y-4198100D03*
Y-4098100D03*
X-3596600Y-3998100D03*
Y-3898100D03*
Y-3798100D03*
Y-3698100D03*
X-3496600Y-3998100D03*
Y-3898100D03*
Y-3798100D03*
Y-3698100D03*
X-3596600Y-3598100D03*
Y-3498100D03*
Y-3398100D03*
Y-3298100D03*
X-3496600Y-3598100D03*
Y-3498100D03*
Y-3398100D03*
Y-3298100D03*
X-3596600Y-3198100D03*
Y-3098100D03*
Y-2998100D03*
Y-2898100D03*
Y-2798100D03*
X-3496600Y-3198100D03*
Y-3098100D03*
Y-2998100D03*
Y-2898100D03*
G54D45*
X-6909990Y-4902200D03*
X-7060010D03*
Y-4724400D03*
X-6909990D03*
X-6922690Y-4102100D03*
X-7072710D03*
Y-3911600D03*
X-6922690D03*
X-5500290Y-5829300D03*
X-5650310D03*
X-3821510Y-5257800D03*
X-3671490D03*
X-2452290Y-5791200D03*
X-2602310D03*
X-1840310D03*
X-1690290D03*
G54D82*
X-3858140Y-6656200D03*
X-2873120D03*
G54D55*
X-6184640Y-4838700D03*
X-5834640D03*
G54D37*
X-7829320Y-6220660D03*
G54D64*
X-5620000Y-2480000D03*
Y-2240000D03*
X-5260000Y-2480000D03*
Y-2240000D03*
G54D46*
X-6909990Y-4902200D03*
X-7060010D03*
Y-4724400D03*
X-6909990D03*
X-6922690Y-4102100D03*
X-7072710D03*
Y-3911600D03*
X-6922690D03*
X-5500290Y-5829300D03*
X-5650310D03*
X-3821510Y-5257800D03*
X-3671490D03*
X-2452290Y-5791200D03*
X-2602310D03*
X-1840310D03*
X-1690290D03*
G54D73*
X-5191760Y-124980D03*
G54D28*
X-8225380Y587060D03*
Y877060D03*
G54D19*
X-8465380Y667050D03*
Y817070D03*
X-7565340Y304710D03*
Y454730D03*
X-6794500Y-5243910D03*
Y-5093890D03*
X-5350000Y-564990D03*
Y-715010D03*
X-4765040Y-245190D03*
Y-95170D03*
X-3659600Y-2018510D03*
X-3878200Y-1568290D03*
X-3659600Y-1868490D03*
X-3878200Y-1418270D03*
X-4010660Y714930D03*
Y864950D03*
X-3105400Y-2018510D03*
Y-1868490D03*
X-2882200Y-1593690D03*
Y-1443670D03*
G54D91*
X-3201440Y-5601160D03*
X-3331440Y-5341160D03*
X-3201440D03*
G54D83*
X-3858140Y-6656200D03*
X-2873120D03*
G54D92*
X-3570000Y-5660000D03*
D03*
G54D47*
X-6670040Y-5735320D03*
X-6124580Y-5007930D03*
D03*
X-5925820Y-3754120D03*
X-5880100Y-3378200D03*
Y-3505200D03*
Y-2959100D03*
X-5798820Y-4160520D03*
Y-3741420D03*
X-4559300Y-5537200D03*
Y-5422900D03*
X-4699000Y-5537200D03*
Y-5422900D03*
Y-5295900D03*
Y-5168900D03*
X-4406900Y-5537200D03*
Y-5422900D03*
X-4254500Y-5537200D03*
Y-5422900D03*
X-4102100Y-5537200D03*
Y-5422900D03*
X-4254500Y-2552700D03*
X-4114800D03*
Y-2425700D03*
Y-2171700D03*
Y-2298700D03*
X-3810000Y-2552700D03*
Y-2425700D03*
X-3962400D03*
Y-2552700D03*
X-3670300Y-2425700D03*
X-3698240Y-2550160D03*
X-3962400Y-2298700D03*
Y-2171700D03*
X-3799840Y-975360D03*
X-3492500Y-6108700D03*
X-3276600Y-5181600D03*
Y-4953000D03*
Y-5067300D03*
Y-4838700D03*
X-3594100Y-2552700D03*
X-3365500D03*
X-3479800D03*
X-3149600Y-5067300D03*
Y-4953000D03*
Y-5181600D03*
Y-4838700D03*
X-2990000Y-2240000D03*
X-1440000Y-5790000D03*
X-1154360Y-5227630D03*
X-1120000Y-4990000D03*
G54D74*
X-5179260Y-222480D03*
G54D56*
X-6096000Y-4540200D03*
Y-3994200D03*
G54D65*
X-5620000Y-2480000D03*
Y-2240000D03*
X-5260000Y-2480000D03*
Y-2240000D03*
G54D29*
X-8225380Y587060D03*
Y877060D03*
G54D38*
X-7602120Y-5619000D03*
X-7822120Y-5714000D03*
Y-5524000D03*
X-7602120Y-5108460D03*
X-7822120Y-5203460D03*
Y-5013460D03*
X-6180600Y-5478700D03*
X-5960600Y-5383700D03*
Y-5573700D03*
X-5401800Y-5544900D03*
X-5621800Y-5639900D03*
Y-5449900D03*
X-5659900Y-5224700D03*
X-5439900Y-5129700D03*
Y-5319700D03*
X-5109700Y-5900500D03*
X-5329700Y-5995500D03*
X-5113800Y-5670300D03*
Y-5480300D03*
X-5329700Y-5805500D03*
X-5113800Y-5327400D03*
Y-5137400D03*
X-4893800Y-5575300D03*
Y-5232400D03*
G54D75*
X-5179260Y-222480D03*
G54D57*
X-6096000Y-4540200D03*
Y-3994200D03*
G54D39*
X-7602120Y-5619000D03*
X-7822120Y-5714000D03*
Y-5524000D03*
X-7602120Y-5108460D03*
X-7822120Y-5203460D03*
Y-5013460D03*
X-6180600Y-5478700D03*
X-5960600Y-5383700D03*
Y-5573700D03*
X-5401800Y-5544900D03*
X-5621800Y-5639900D03*
Y-5449900D03*
X-5659900Y-5224700D03*
X-5439900Y-5129700D03*
Y-5319700D03*
X-5109700Y-5900500D03*
X-5329700Y-5995500D03*
X-5113800Y-5670300D03*
Y-5480300D03*
X-5329700Y-5805500D03*
X-5113800Y-5327400D03*
Y-5137400D03*
X-4893800Y-5575300D03*
Y-5232400D03*
G54D93*
X-3182050Y-4666000D03*
Y-4446000D03*
X-3022050Y-4666000D03*
Y-4446000D03*
G54D84*
X-3585630Y-6918210D03*
D03*
X-3145630D03*
D03*
X-350130Y74640D03*
D03*
Y514640D03*
D03*
G54D66*
X-5440000Y-2480000D03*
Y-2240000D03*
G54D48*
X-5795820Y-7250180D03*
X-6055820D03*
X-5795820Y-7060180D03*
X-6055820Y-7155180D03*
Y-7060180D03*
G54D94*
X-3182050Y-4666000D03*
Y-4446000D03*
X-3022050Y-4666000D03*
Y-4446000D03*
G54D85*
X-3525650Y-6658210D03*
X-3445640D03*
X-3365630D03*
X-3285620D03*
X-3205610D03*
G54D58*
X-5925820Y-3754120D03*
X-5880100Y-3378200D03*
Y-3505200D03*
Y-2959100D03*
X-5798820Y-4160520D03*
Y-3741420D03*
X-4559300Y-5537200D03*
Y-5422900D03*
X-4699000Y-5537200D03*
Y-5422900D03*
Y-5295900D03*
Y-5168900D03*
X-4406900Y-5537200D03*
Y-5422900D03*
X-4254500Y-5537200D03*
Y-5422900D03*
X-4102100Y-5537200D03*
Y-5422900D03*
X-4254500Y-2552700D03*
X-4114800D03*
Y-2425700D03*
Y-2171700D03*
Y-2298700D03*
X-3810000Y-2552700D03*
Y-2425700D03*
X-3962400D03*
Y-2552700D03*
X-3670300Y-2425700D03*
X-3698240Y-2550160D03*
X-3962400Y-2298700D03*
Y-2171700D03*
X-3492500Y-6108700D03*
X-3276600Y-5181600D03*
Y-4953000D03*
Y-5067300D03*
Y-4838700D03*
X-3594100Y-2552700D03*
X-3365500D03*
X-3479800D03*
X-3149600Y-5067300D03*
Y-4953000D03*
Y-5181600D03*
Y-4838700D03*
X-1154360Y-5227630D03*
X-1120000Y-4990000D03*
G54D76*
X-5073860Y403860D03*
X-5223860D03*
X-4623860D03*
X-4773860D03*
X-4923860D03*
X-4473860D03*
X-2874220Y391160D03*
X-3024220D03*
X-2424220D03*
X-2574220D03*
X-2724220D03*
X-2274220D03*
G54D49*
X-5795820Y-7250180D03*
X-6055820D03*
X-5795820Y-7060180D03*
X-6055820Y-7155180D03*
Y-7060180D03*
G54D67*
X-5440000Y-2480000D03*
Y-2240000D03*
G54D59*
X-6160000Y-2380000D03*
X-5880000D03*
X-5000000D03*
X-4720000D03*
X-2520000Y-3350000D03*
Y-2960000D03*
X-2240000Y-3350000D03*
Y-2960000D03*
X-1025000Y-3485000D03*
Y-2990000D03*
X-745000Y-3485000D03*
Y-2990000D03*
G54D86*
X-3525650Y-6658210D03*
X-3445640D03*
X-3365630D03*
X-3285620D03*
X-3205610D03*
G54D77*
X-5073860Y403860D03*
X-5223860D03*
X-4623860D03*
X-4773860D03*
X-4923860D03*
X-4473860D03*
X-2874220Y391160D03*
X-3024220D03*
X-2424220D03*
X-2574220D03*
X-2724220D03*
X-2274220D03*
G54D95*
X-3073400Y-6257500D03*
Y-5807500D03*
G54D68*
X-5095320Y-6945680D03*
X-4970320D03*
X-4845320D03*
X-4720320D03*
X-4595320D03*
X-4470320D03*
G54D87*
X-3570000Y-5860000D03*
D03*
G54D96*
X-3073400Y-6257500D03*
Y-5807500D03*
G54D78*
X-5223860Y793860D03*
X-5073860D03*
X-4923860D03*
X-4773860D03*
X-4623860D03*
X-4473860D03*
X-3024220Y781160D03*
X-2874220D03*
X-2724220D03*
X-2574220D03*
X-2424220D03*
X-2274220D03*
G54D69*
X-5095320Y-6945680D03*
X-4970320D03*
X-4845320D03*
X-4720320D03*
X-4595320D03*
X-4470320D03*
G54D97*
X-2374900Y-6741300D03*
Y-6060300D03*
X-1689100Y-6741300D03*
Y-6060300D03*
G54D88*
X-3331440Y-5601160D03*
G54D79*
X-5223860Y793860D03*
X-5073860D03*
X-4923860D03*
X-4773860D03*
X-4623860D03*
X-4473860D03*
X-3024220Y781160D03*
X-2874220D03*
X-2724220D03*
X-2574220D03*
X-2424220D03*
X-2274220D03*
G54D98*
X-2374900Y-6741300D03*
Y-6060300D03*
X-1689100Y-6741300D03*
Y-6060300D03*
G54D89*
X-3331440Y-5601160D03*
G54D99*
X-2450000Y-4280000D03*
X-2010000D03*
X-2120000Y-2210000D03*
X-1680000D03*
X-1040000Y-4280000D03*
X-600000D03*
M02*
