M48
INCH,LZ
T01C.008
T02C.01
T03C.015
T04C.024
T05C.035433
T06C.04
T07C.05
T08C.035433
;LEADER: 12 
;HEADER: 
;CODE  : ASCII 
;FILE  : STANDARD-1-8.drl for  ... layers TOP and BOTTOM
;T01 Holesize 1. = 8.000000 Tolerance = +0.000000/-0.000000 PLATED MILS Quantity = 755
;T02 Holesize 2. = 10.000000 Tolerance = +0.000000/-0.000000 PLATED MILS Quantity = 299
;T03 Holesize 3. = 15.000000 Tolerance = +0.000000/-0.000000 PLATED MILS Quantity = 233
;T04 Holesize 4. = 24.000000 Tolerance = +0.000000/-0.000000 PLATED MILS Quantity = 4
;T05 Holesize 5. = 35.433071 Tolerance = +0.000000/-0.000000 PLATED MILS Quantity = 2
;T06 Holesize 6. = 40.000000 Tolerance = +3.000000/-3.000000 PLATED MILS Quantity = 20
;T07 Holesize 7. = 50.000000 Tolerance = +0.000000/-0.000000 PLATED MILS Quantity = 4
;T08 Holesize 8. = 35.433071 Tolerance = +0.000000/-0.000000 NON_PLATED MILS Quantity = 4
%
G90
T01
X-0214433Y-0139689
X-0100787Y0006693
X-0061811Y-0065354
X-0065Y-0065315
X-021063Y-0038583
X-0069291Y-0065354
X-0098129Y-00188
X-00404Y-0044
X-00408Y00067
X-00461Y-00062
X-00482Y-00062
X-00461Y-00082
X-00259Y-00549
X-004295Y-001015
X-00219Y-00731
X-00555Y-00518
X-00251Y-00404
X-00833Y-00156
X-006675Y001865
X-0084275Y-0021725
X-00655Y-000555
X-00342Y00116
X-00381Y00102
X-0147504Y-0135752
X-0098278Y-00219
X-00256Y-00154
X-0076682Y-0285518
X-0287369Y-0178331
X-0230776Y-02604
X-02431Y-0236
X-02445Y-02817
X-02042Y-02884
X-00547Y-00055
X-03011Y00229
X-03202Y-02884
X-0059756Y-017863
X-0087008Y-0212598
X-0087008Y-0217323
X-0214433Y-019087
X-0210496Y-0186933
X-0206559Y-0186933
X-0206559Y-0182996
X-0222307Y-0194807
X-021837Y-019087
X-0214433Y-0186933
X-0210496Y-0182996
X-0175063Y-0194807
X-0151441Y-0182996
X-0147504Y-0186933
X-0143567Y-019087
X-0143567Y-0194807
X-0147504Y-0182996
X-0143567Y-0186933
X-013963Y-0194807
R02Y0003937
X-0143567Y-0182996
X-0135693Y-019087
X-0135693Y-0194807
X-00662Y-0200677
X-0067138Y-0188079
X001063Y-0194094
X-0247984Y-0167874
X-0251575Y-0167717
X-0244488Y-016811
X-0251575Y-0176772
X-0251575Y-0159055
X-02558Y-01687
X-0202622Y-0179057
X-0206559Y-0179059
X-02025Y-01673
X-021837Y-0159374
X-0222307Y-0159374
X-0214433Y-0163311
X-0214433Y-0155437
X-0210496Y-0155437
X-0206559Y-0163311
X-0198685Y-0175122
X-0171126Y-0175122
X-0190811Y-0155437
X-0182937Y-0175122
X-0190811Y-0163311
X-0190811Y-0159374
X-0186874Y-0163311
R02Y0003937
X-0182937Y-0163311
R02Y0003937
X-0175063Y-0163311
R02Y0003937
X-0171126Y-0163311
R02Y0003937
X-0163252Y-0175122
X-0151441Y-0179059
X-0167189Y-0163311
R02Y0003937
X-013963Y-0159374
X-0155378Y-0163311
X-013963Y-0167248
X-013963Y-0163311
X-0143567Y-0163311
X-0147504Y-0175122
X-0135693Y-0159374
X-0066339Y-0155512
X-0236883Y-0125
X-0202622Y-0135752
X-0206559Y-0123941
X-021837Y-0139689
X-0210496Y-0143626
X-0214433Y-0143626
X-021837Y-0147563
X-0222307Y-0147563
X-0214433Y-0135752
X-0206559Y-0135752
X-0206559Y-0131815
X-0198685Y-0123941
X-0190811Y-0127878
X-0194748Y-0127878
X-0171126Y-0127878
R04X-0003937
X-0190811Y-0147563
R02Y0003937
X-0186874Y-0147563
R02Y0003937
X-0182937Y-0147563
R02Y0003937
X-0175063Y-0147563
R02Y0003937
X-0171126Y-0147563
R02Y0003937
X-0167189Y-0127878
X-0155378Y-0135752
X-0155378Y-0139689
X-0167189Y-0147563
R02Y0003937
X-0155378Y-0147563
X-0151441Y-0123941
X-0159315Y-0127878
X-0155378Y-0143626
X-013963Y-01515
X-0135693Y-0131815
X-0079921Y-0141732
X-00456Y-0128484
X-0303543Y-0115504
X-0307392Y-0105906
X-0284217Y-0115748
X-0256401Y-0097799
X-021837Y-0108193
X-0206559Y-0120004
X-0210496Y-0116067
X-0214433Y-011213
X-021837Y-011213
X-0214433Y-0116067
X-0210496Y-0120004
X-0194748Y-0108193
X-0151441Y-0120004
X-0147504Y-0116067
X-013963Y-0108193
X-013963Y-0120004
X-013963Y-011213
X-0143567Y-0116067
X-0147504Y-0120004
X-013963Y-0116067
X-0135693Y-011213
X-0070472Y-0099803
X-0306693Y-008937
X-0281854Y-007874
X-0256901Y-0070701
X-0270669Y-0033299
X-0104141Y-0057941
X-0077213Y-0217323
R02Y000315
X-0143567Y-0120004
X-03184Y-02884
X-03202Y-02902
X-03184Y-02902
X-0304543Y-0290545
X-0304543Y-0288745
X-0306343Y-0288745
X-0306343Y-0290545
X-03033Y-02294
X-03015Y-02294
X-0303283Y-0231288
X-0301483Y-0231288
X-0303283Y-0233088
X-0301483Y-0233088
X-03298Y-02231
X-03278Y-02231
X-03259Y-02231
X-0329759Y-0224865
X-0327759Y-0224865
X-0325859Y-0224865
X-0329759Y-0226665
X-0327759Y-0226665
X-0325859Y-0226665
X-03311Y-01924
X-03293Y-01924
X-0331135Y-0194176
X-0329335Y-0194176
X-0331135Y-0195976
X-0329335Y-0195976
X-02951Y00228
X-00566Y-00055
X-00555Y-00072
X-00574Y-00072
X-02042Y-02863
X-02042Y-02842
X-02041Y-0282
X-02409Y-0236
X-0240866Y-0238026
X-0243066Y-0238026
X-0147504Y-0143626
X-01296Y-0155
X-01208Y-01382
X-00764Y-01815
X-01174Y-016393
X-0057283Y-0176575
X-01296Y-0141
X-013963Y-0139689
X-01296Y-01585
X-013963Y-0147563
X-0147504Y-0123941
X-0202622Y-0171185
X-0202622Y-0175122
X-0194748Y-0175122
X-0190811Y-0175122
X-0186874Y-0171185
X-0175063Y-0175122
X-0171126Y-0171185
X-0151441Y-0155437
X-0155378Y-0171185
X-0151441Y-0175122
X-0155378Y-0179059
X-0155378Y-0155437
X-0202622Y-0131815
R02Y0003937
X-0179Y-0123941
X-0182937Y-0131815
X-0171126Y-0131815
X-0190811Y-0131815
X-0175063Y-0131815
X-0194748Y-0131815
X-0155378Y-0123941
X-0159315Y-0123941
X-0159315Y-0131815
X-0155378Y-0127878
X-0155378Y-0131815
X-0118Y-01675
X-0078291Y-0158245
X-013963Y-0155437
X-01296Y-0148
X-0151441Y-0139689
X-013963Y-0127878
X-0143567Y-0147563
X-01679Y-02734
X-0220024Y0019976
X-02478Y00159
X-021837Y-0194807
X-0222307Y-019087
X-0214433Y-0194807
X-0198685Y-0194807
X-0159315Y-0194807
X-0135693Y-0186933
X-0202622Y-0163311
X-021837Y-0167248
X-0198685Y-0163311
X-0198685Y-0159374
X-0171126Y-0179059
X-0198685Y-0171185
X-0198685Y-0179059
X-0186874Y-0179059
X-0155378Y-0159374
X-0159315Y-0167248
X-0163252Y-0171185
X-0167189Y-0179059
X-0163252Y-0179059
X-0151441Y-0167248
X-0167189Y-0171185
X-0135693Y-0171185
X-0202622Y-0139689
X-0222307Y-0139689
X-0206559Y-0139689
X-0198535Y-0144026
X-0190811Y-0123941
X-0171126Y-0123941
X-0186874Y-0123941
X-0175063Y-0123941
X-0198685Y-0127878
X-0194748Y-0123941
X-0163252Y-0123941
X-0163252Y-0127878
X-0167189Y-0123941
X-0307535Y-0109504
X-0206559Y-0108193
X-0222307Y-0108193
X-0175063Y-0108193
X-0151441Y-0108193
X-0137Y-00937
X-03225Y-0054724
X-0256693Y-003248
X-0194748Y-0194807
X-0242461Y-0276022
X-0244161Y-0276022
X-02441Y-02778
X-02424Y-02778
X-0244338Y-0266321
X-0244292Y-0264622
X-032Y-02728
X-03183Y-02728
X-0320016Y-0274482
X-0318316Y-0274482
X-03113Y-01709
R02X00018
X-03113Y-01727
R02X00018
X-0246Y00159
X-0218Y0019976
X-0218Y00222
X-01659Y-02734
X-01639Y-02734
X-0167807Y-0275343
R02X0002
X-00723Y-02719
X-00704Y-02719
X-0070443Y-0273676
X-0072343Y-0273676
X-0206559Y-0167248
X-01908Y-02605
X-01296Y-0169
X-0147504Y-0155437
X-0190811Y-0179059
X-01957Y-02611
X-0118701Y-0114567
X-0061811Y-0198819
X-01809Y-02438
X-0206559Y-0175122
X-020615Y-026625
X-0129724Y-01515
X-0143567Y-0143626
X-0120476Y-0135714
X-0066339Y-0180709
X-01198Y-0169
X-0088159Y-01602
X-01296Y-0127
X-0143567Y-0131815
X-0135693Y-0155437
X-0077165Y-0198622
X-01166Y-012
X-0121063Y-0149803
X-0078291Y-0175603
X-0094488Y-0149213
X-01296Y-01445
X-0143567Y-0139689
X-013963Y-0171185
X-01418Y-01999
X-01209Y-01249
X-008593Y-019145
X-0117717Y-0157359
X-0061811Y-0175984
X-0143567Y-0155437
X-01296Y-01655
X-0118426Y-0141
X-007815Y-0177953
X-0135693Y-0139689
X-0202622Y-0159374
X-0206559Y-0159374
X-0206559Y-0143626
X-0202622Y-0143626
X-0147504Y-0139689
X-0182937Y-0116067
X-018875Y-023485
X-0143567Y-0127878
X-0116142Y-0159646
X-0088059Y-01536
X-01198Y-0143
X-0086496Y-0179973
X-0167189Y-0120004
X-02932Y-01848
X-0083Y-00448
X-01296Y-01375
X-0143567Y-0135752
X-01213Y-01445
X-0089961Y-01761
X-0120547Y-0111081
X-00632Y-0202342
X-0119291Y-0153346
X-0088976Y-0149213
X-01187Y-0146223
X-0087992Y-0188386
X-0115748Y-0166535
X-0089259Y-01561
X-0065551Y-0210236
X-0067057Y-0218
X-0067057Y-0213276
X-00751Y-01887
X-0062402Y-0160236
X-0078066Y-0161307
X-0075946Y-0161405
X-0117Y-0148
X-01914Y-02395
X-0151441Y-0116067
X-0202622Y-0155437
X-0206559Y-0155437
X-0206559Y-0147563
X-0202622Y-0147563
X-02007Y-00135
X-0151441Y-0163311
X-0210496Y-011213
X-0325Y-0047079
X-0324965Y-0111579
X-03433Y-00314
X-021837Y-0120004
X-032874Y-0089173
X-0202622Y-011213
X-0268276Y-0031331
X-0322625Y-0107677
X-0214433Y-0108193
X-0320669Y-004511
X-0194748Y-0120004
X-0222307Y-0120004
X-0333705Y-01032
X-0328937Y-0038
X-03436Y-00714
X-0222307Y-0127878
X-033371Y-0135201
X-0182937Y-0108193
X-0186874Y-0116067
X-0210496Y-0127878
X-03435Y-00364
X-0344094Y-0100394
X-0194748Y-0116067
X-03269Y-00415
X-0214433Y-0127878
X-0326181Y-010765
X-03314Y-01199
X-0222307Y-011213
X-0324798Y-0058887
X-0198685Y-0116067
X-03433Y-00626
X-033371Y-0127327
X-0210496Y-0131815
X-0171126Y-0186933
X-023693Y-0133
X-0171126Y-0182996
X-0045584Y-0132369
X-021837Y-0123941
X-0326575Y-0037992
X-0318307Y-0105673
X-0163252Y-019087
X-0206559Y-0116067
X-0331594Y-0091894
X-03301Y-00312
X-0045584Y-0143484
X-0151441Y-011213
X-0119685Y-0255118
X-0186874Y-011213
X-0071654Y-0107087
X-0171126Y-0120004
X-0186874Y-0120004
X-0076683Y-0082817
X-00374Y-01512
X-0171126Y-0116067
X-0048763Y-0121063
X-0051969Y-0068504
X-0171126Y-011213
X-01779Y-02348
X-0227184Y-01236
X-0329742Y-0129295
X-0343721Y-006483
X-0082677Y-0064961
X-0154921Y-023563
X-0214961Y-0249213
X-0171126Y-0108193
X-0179134Y-00808
X-0104Y-003
X-0186874Y-0108193
X-032055Y-028275
X-024316Y-028544
X-0045584Y-0138484
X-0175063Y-0120004
X-02148Y-00614
X-0215Y-00065
X-0078937Y-0125
X-0175063Y-0116067
X-02784Y-02629
X-0222307Y-0116067
X-0331342Y-0094
X-0330906Y-0035433
X-02918Y-02472
X-029Y-02472
X-02918Y-02491
X-029Y-02491
X-0081643Y-0106968
X-02376Y-0107
X-0253937Y-0072669
X-0143567Y-0175122
X-0329742Y-0133232
X-0214433Y-0131815
X-03436Y-00691
X-0151441Y-0159374
X-02379Y-01003
X-0171126Y-019087
X-03299Y-01393
X-0210496Y-0135752
X-03435Y-00739
X-03037Y-02429
X-03037Y-02448
X-03037Y-02412
X-0155378Y-0194807
X-0222307Y-0131815
X-0078543Y-0130906
X-0159315Y-0182996
X-0202622Y-0116067
X-0190811Y-0108193
X-0048631Y-0126969
X-0222307Y-0135752
X-0206559Y-011213
X-0075315Y-010694
X-0202622Y-0120004
X-0198685Y-0120004
X-008658Y-0106968
X-0190811Y-011213
X-0080709Y-0129528
X-0343504Y-0053
X-0210496Y-0108193
X-033371Y-0117484
X-0190811Y-0116067
X-0079724Y-0121063
X-0214433Y-0120004
X-0214433Y-0123941
X-0332266Y-01
X-03435Y-00342
X-0147504Y-0159374
X-0081693Y-0126969
X-0147504Y-0163311
X-021837Y-0131815
X-033371Y-0139138
X-03435Y-0076317
X-021837Y-0116067
X-0323425Y-0060858
X-0329Y-01199
X-00725Y-01324
X-021837Y-0135752
X-0143567Y-0179059
X-01449Y-02637
X-0031496Y-0149606
X-0194748Y-011213
X-0081671Y-011624
X-0198685Y-011213
X-0202622Y-0108193
X-0198685Y-0108193
X-021837Y-0127878
X-033371Y-0131264
X-03433Y-00669
X-0210496Y-0123941
X-0333538Y-0093862
X-032815Y-00333
X-0190811Y-0120004
X-0228Y-0138
X-0194748Y-0179059
X-01809Y-02646
X-0159315Y-0143626
X-0151441Y-0135752
X-0151441Y-0143626
X-0159315Y-0139689
X-0135693Y-0147563
X-0135693Y-0120004
X-0163252Y-0186933
X-0206559Y-0171185
X-0175063Y-0179059
X-01834Y-02335
X-0182937Y-0179059
X-0135693Y-0167248
X-01549Y-0198752
X-0159315Y-019087
X-0147504Y-0179059
X-03336Y-0119882
X-0331076Y-0054724
X-01445Y-00925
X-0155378Y-0120004
X-0147504Y-0108193
X-01648Y-00905
X-0163252Y-0120004
X-0159352Y-0093688
X-0155378Y-0116067
X-01324Y-01948
X-0151441Y-019087
X-01596Y-02871
X-01594Y-01031
X-0163252Y-0116067
X-0206559Y-0127878
X-0147504Y-011213
X-0191Y-021
X-0186874Y-0182996
X-03296Y-0117
X-0325731Y-0093504
X-0326772Y-0051016
X-013963Y-0182996
X-01884Y-02042
X-0186874Y-0186933
X-01206Y-01995
X-0151441Y-0186933
X-00824Y00162
X-00805Y00162
X-00787Y00162
X-0082335Y0014319
X-0080435Y0014319
X-0078635Y0014319
X-0080535Y0012219
X-0082435Y0012219
X-0078735Y0012219
X-00842Y00162
X-0084235Y0012219
X-0084135Y0014319
X-0175063Y-011213
X-0170866Y-0103816
X-0155378Y-0186933
X-01206Y-0195
X-0151441Y-0194807
X-013963Y-0179059
X-0108767Y-00463
X-00688Y00069
X-00669Y00069
X-0068806Y0008928
X-00669Y00089
X-01055Y-00463
X-0064946Y0006897
X-0064946Y0008897
X-0070746Y0006897
X-0070746Y0008897
X-01569Y-021143
X-0077785Y-0092585
X-0080709Y-0145669
X-020015Y-026415
X-03039Y-01542
X-0234669Y-0222569
X-0285433Y-0119685
X-0163252Y-0182996
X-0113976Y-0186024
X-02285Y-0212
X-02492Y-01816
X-0186874Y-019087
X-00862Y-02786
X-02883Y-0192374
X-0147504Y-0167248
X-0167189Y-0116067
X-03154Y-0185
X-03286Y-0185
X-00812Y-00394
X-03264Y-01879
X-013963Y-0175122
X-02661Y-01497
X-0254528Y-0173063
X-0233Y-01514
X-02485Y-01341
X-0155378Y-019087
X-02544Y-01205
X-0322625Y-011378
X-0323819Y-0050984
X-01765Y-0215
X-01169Y-01242
X-0064173Y-0180709
X-01645Y-0218
X-0151441Y-0147563
X-0147504Y-0127878
X-01765Y-0218
X-02775Y-02822
X-01585Y-0218
X-01163Y-01163
X-0075197Y-0197244
X-0159315Y-0186933
X-0262Y-02088
X-0135693Y-0143626
X-01589Y-0215
X-01212Y-0127
X-0077091Y-0186213
X-01537Y-00928
X-0159315Y-0116067
X-0143567Y-0123941
X-01309Y-0113
X-0155378Y-011213
X-015Y-00926
X-01645Y-0215
X-01332Y-0134
X-013963Y-0135752
X-0159315Y-0120004
X-01648Y-00855
X-00855Y-00756
X-0130415Y-0119985
X-0151441Y-0131815
X-01705Y-0215
X-00082Y-02327
X-01296Y-0162
X-0147504Y-0147563
X-01705Y-0218
X-01319Y-01305
X-0147504Y-0131815
X-01214Y-0113
X-0078059Y-0200677
X-01418Y-0218779
X-0143567Y-0171185
X-0151441Y-0171185
X-0159315Y-0179059
X-01183Y-01707
X-0056693Y-0180315
X-0119074Y-0134
X-0075197Y-0175774
X-0088559Y-01979
X-0119685Y-01182
X-0090157Y-0190945
X-013963Y-0131815
X-0165097Y-0198811
X-0167189Y-0186933
X-0120866Y-0159252
X-0064764Y-0175984
X-0167189Y-019087
X-0182937Y-011213
X-019345Y-023645
X-01191Y-01297
X-00914Y-01846
X-01661Y-0200656
X-0167189Y-0182996
X-013963Y-0143626
X-0167189Y-0194807
X-0121307Y-0122704
X-00763Y-01906
X-0163252Y-0194807
X-0119094Y-013189
X-0067159Y-01768
X-0094291Y-0152165
X-0073224Y-0085376
X-0120866Y-0155
X-0075159Y-0158
X-0133682Y-0210282
X-009795Y-00282
X-009795Y-00345
X-009795Y-00314
T02
X-00271Y-00624
X-0024021Y0023021
X-00215Y0023
X-00193Y0023
X-00215Y00206
X-00248Y-00646
X-00248Y-00623
X-00271Y-00646
X-00397Y-00862
X-02505Y-0211
X-02113Y-02223
X-02209Y-0201
X0006963Y-02051
X-0282Y-0154
X-00371Y-00862
X-00344Y-00862
X-00397Y-00887
X-00371Y-00887
X-00344Y-00887
X-015358Y-02171
X-00451Y-00661
X-00402Y00433
X-0147546Y-0044556
X-0130814Y-0036814
X-01307Y-00291
X-01364Y-00291
X-01364Y-00234
X-0151483Y-0044556
X-0133373Y-0013847
X-0133373Y-0016013
X-0126471Y-0034739
X-0126971Y-0037585
X-0126877Y-0040816
X-0124515Y-0044162
X-013042Y-0044359
X-0140172Y-0034335
X-0143719Y-0034835
R02Y-0004134
X-0127271Y-0011879
X-0127271Y-0006564
X-0130814Y-0006564
X-0130814Y-0011879
X-0250786Y000178
X-02479Y0004644
X-02479Y-0001056
X-02536Y-0001056
X-02536Y0004644
X-0290006Y-0236023
X-029287Y-0233137
X-028717Y-0233137
X-028717Y-0238837
X-029287Y-0238837
X-0037795Y-0147244
X-0029921Y-0153543
X-0054606Y-0189173
X-01444Y-02593
X-0129355Y-02692
X0009Y-02528
X-0225585Y-02166
X-02038Y-02288
X-02073Y-02244
X-011705Y-023585
X-012212Y-022102
X-0107087Y-02286
X000374Y-0230953
X00011Y-0230953
X00099Y-02169
X-02673Y-0186
X-0243331Y-0208169
X-0209257Y-0201957
X-01958Y-02105
X-002815Y-020965
X-02669Y-01679
X-0229354Y-0169154
X-022989Y-017939
X-0278453Y-01494
X-02541Y-0135201
X-02485Y-0121
X-0214173Y-010315
X-0147244Y-010465
X-016442Y-010348
X-0093449Y-0108251
X-0084Y-01001
X-0096825Y-0094307
X-0323819Y-0070681
X-0217004Y-0084961
X-0163466Y-0078366
X-0140945Y-0084646
X-0133Y-0078366
X-0129428Y-0063728
X-00966Y-00792
X-02693Y-00475
X0001239Y-0208632
X0001239Y-0212963
X-0259628Y-0009748
X-0259628Y-0012898
X-0244865Y-0008567
X-0249786Y-0008567
X-0259628Y-0006402
X-0256676Y-000463
X-0244865Y-0005417
X-0223014Y0016039
X0007893Y-0008774
X0007893Y-0011074
X0010293Y-0008774
X0010293Y-0011074
X-00376Y00433
R02X00026
X-0040195Y0040716
R03X00026
X-00426Y-00661
X-00402Y-00661
X-0133586Y-0026265
X-01309Y-00235
X-013565Y-019955
X-0093747Y-0128953
X-0225984Y-0100591
X-0226181Y-0097244
X-0226181Y-0093898
X-0133071Y-0072441
X-0133071Y-0074666
X-0156854Y-0054854
X-0156854Y-0056822
X-0103846Y-0006761
X-0103846Y-0004792
X-0103846Y-0008729
X-013481Y-0000068
X-013731Y-0000068
X-013231Y-0000068
X-0119094Y-0272638
X-01584Y-02705
X-00035Y-025253
X-020137Y-02403
X-01365Y-02141
X-0136Y-02265
X-01242Y-0235794
X-002245Y-023185
X-0025197Y-0216535
X-00225Y-0214
X-00196Y-02139
X-0025197Y-0218898
X-00253Y-02141
X001Y-02242
X000374Y-0228047
X00099Y-02065
X-0113386Y-0155512
X-003937Y-0176772
X-0037402Y-0176772
X-026847Y-013937
X-0048425Y-0148425
X-0269253Y-0115516
X0008126Y-0099174
X-0269253Y-0078575
X-027284Y-008779
X-00976Y-007514
X-0073819Y-0077699
X0008126Y-0069174
R02Y-001
X-025689Y-0051181
X-0107283Y-005374
X0008126Y-0049174
X0008126Y-0059174
X-0134382Y-0219118
X-0064567Y-0194094
X-02071Y-02144
X-02806Y-01896
X-0268504Y-0131102
X-02269Y-02287
X-0205531Y-023608
X-00561Y-01981
X-0131741Y-0227718
X-0148756Y-0061744
X-0276Y-01097
X-02692Y-0051
X-0268068Y-0099768
X-0268504Y-003622
X-0269253Y-0111579
X-0251105Y-0047079
X-0126131Y-0252819
X-02727Y-010961
X-02546Y-004511
X-02541Y-0127327
X-0256299Y-0062827
X-0128074Y-0227394
X-0269253Y-0107642
X-0251105Y-0043142
X-0156602Y-0014241
X-02727Y-0052984
X-02731Y-01193
X-0274983Y0014071
X-0269253Y-0103705
X-0251105Y-0039205
X-008444Y-02461
X-011884Y-0079469
X-00921Y-02461
X-02696Y-02448
X-0269559Y-0246998
X-02718Y-02448
X-02546Y-01392
X-0269253Y-0074638
X-0257504Y-0121421
X-02727Y-0056921
X-02541Y-0131264
X-0269253Y-0066764
X-02377Y-0116
X-0257504Y-0125358
X-0272638Y-0059449
X-0114173Y-0053346
X-0106Y-01182
X-0257504Y-0129295
X-0272841Y-0066236
X-02516Y-00963
X-0256638Y-0029362
X-0144079Y-0084449
X-0119291Y-0187992
X-02697Y-0094
X-0113472Y-0067346
X-00655Y-01072
X-02727Y-0105673
X-02546Y-0041173
X0001953Y-0219669
R02X-0001969
X0004331Y-0219291
X-0131261Y-0175039
X-02541Y-012339
X-0269253Y-005889
X-0269253Y-0054953
X-0269253Y-0119453
X-027126Y-0101736
X-02546Y-0037236
X-0089764Y-0194882
X-00201Y-01473
X-0132Y-01995
X-02298Y-0174272
X-02288Y-0205697
X-01359Y-0245
X-0113386Y-021378
X-0082797Y-0143502
X-008697Y-014349
X-00828Y-0141396
X-0086976Y-0141384
X-0068898Y-0139764
X-0057874Y-0140157
X-005689Y-0108858
R02X-0001969
X-0068701Y-0108465
X-0128993Y-0069693
X-0125394Y-0084646
X-01325Y-01035
X-01415Y-01035
X-0122047Y-0051704
X-0120079Y-0051704
X-0054724Y-0152756
X-0054724Y-0154724
X-0137Y-01035
X-01324Y-01905
X-0120669Y-0204
X-0121054Y-0191067
X-0265Y-0176831
X-02477Y-0219437
X-0264961Y-01715
X-0225823Y-0222
X-02687Y-01615
X-002185Y-023937
X-02664Y-01818
X-0266913Y-01885
X-02113Y-02135
X-0274453Y-0149469
X-0264961Y-0161476
X-026Y-01485
X-02727Y-0068732
X-0257504Y-0133232
X-0264961Y-0174272
X-02131Y-02325
X0009258Y-0238621
X-0129869Y-0252819
X-02268Y-02086
X-02686Y-0154
X-015968Y-020885
X-0153Y-020182
X-015548Y-0202136
X-02173Y-02175
X-02285Y-02219
X-024024Y-020726
X-02415Y-0121
X-01824Y-02157
X-0038189Y-0204724
X-0038189Y-0206693
X-004193Y-019252
X-0039764Y-019252
X-0024409Y-0157874
X-0024409Y-0159843
T03
X-02451Y-0151
X-02413Y-01507
X-02376Y-01507
X-0109843Y-009252
X-01143Y-00924
X-0106299Y-0093701
X-0109843Y-0088976
X-0106299Y-0090157
X-03242Y-01614
X-02022Y-00247
X-0299817Y-0014184
X-029588Y-0014184
X-008937Y-0171654
X-010571Y-027633
X-01593Y-026451
X-01593Y-02596
X-01057Y-02635
X-010571Y-02596
X-0255988Y-0224
X-0230697Y-0232303
X-01935Y-02245
X-01891Y-02134
X-0121963Y-0212437
X-0025425Y-0222744
X-0257Y-0199862
X-016Y-0203
X-0145937Y-01999
X-0131701Y-0183701
X-00098Y-02058
X-0001Y-0210789
X-0009622Y-01862
X-0252363Y-0180902
X-0113Y-01764
X-02555Y-0150621
X-02506Y-01504
X-01063Y-01371
X-0099213Y-0124
X-00603Y-01193
X-00605Y-01289
X-0067Y-01289
X-00671Y-0119
X-006378Y-0124016
X-00229Y-01377
X-00232Y-0128484
X00038Y-0141653
X00038Y-01363
X-0120161Y-0093955
X-0051731Y-0097361
X-0056931Y-0097361
X-024252Y-008418
X-0185827Y-0085273
X-0174266Y-0084166
X-0148047Y-0080453
X-0161685Y-0067685
X-01072Y-00712
X-01369Y-00531
X-0023228Y-0113583
X-0023228Y-0097638
X-0020669Y-0086811
X-0030512Y-0097638
X-0023077Y-0131982
X-03423Y00208
X-03388Y00208
X-033883Y0017518
X-03422Y00175
X-033889Y001416
X-034226Y0014142
X-033889Y001076
X-034226Y0010742
X-02891Y00375
X-02924Y00375
X-02958Y00375
X-02991Y00375
X-0299111Y0034237
X-0295811Y0034237
X-0292411Y0034237
X-0289111Y0034237
X-0299111Y0030837
X-0295811Y0030837
X-0292411Y0030837
X-0289111Y0030837
X-01989Y-00247
R02X00034
X-0192084Y-0028096
R02X-00034
X-0202184Y-0028096
X-0192084Y-0031396
R02X-00034
X-0202184Y-0031396
X-00414Y-00518
X-00712Y-00249
X-00673Y-00249
X-00633Y-00249
X-00592Y-00249
X-005925Y-0028788
X-006335Y-0028788
X-006735Y-0028788
X-007125Y-0028788
X-0071134Y-0036202
X-0067234Y-0036202
X-0063234Y-0036202
X-0059134Y-0036202
X-0059184Y-0032514
X-0063284Y-0032514
X-0067284Y-0032514
X-0071184Y-0032514
X-00855Y-00077
X-004115Y-0033802
X-00412Y-0030115
X-0115585Y-0246546
X-0115595Y-0242646
X-0111385Y-0246546
X-0111395Y-0242646
X-0094958Y-028604
X-0099958Y-028604
X-0105757Y-0285985
X-017972Y-0197
X-0102656Y-0176272
X-0099506Y-0176272
X-01026Y-018
X-00992Y-01799
X-01035Y-01451
X-01306Y-01063
X-01977Y-00851
X-02021Y-00886
X-02021Y-00849
X-022596Y-00839
X-022596Y-00873
X-0280124Y-0222543
X-0280124Y-0219393
X-0283273Y-0228842
X-0283273Y-0225692
X-0280124Y-0228842
X-0280124Y-0225692
X-0145972Y-0021721
R02X-000315
X-0145972Y-0018572
R02X-000315
X-03161Y0009
X-0316038Y001245
X-0309787Y0008964
X-0309787Y0012507
X-0312937Y0012507
X-0312937Y0008964
X-0316088Y001605
X-0309787Y001605
X-0312937Y001605
X-02808Y-00069
X-0284Y-0006833
X-02841Y-00003
X-02808Y-00003
X-0280798Y-0003548
X-0284098Y-0003548
X-02873Y-0006833
X-02874Y-00003
X-0287398Y-0003548
X-0267012Y-0224888
X-02449Y-01953
X-02022Y-01
X-02022Y-0095276
X-0173296Y00076
X-01769Y00076
X-01805Y00076
X-0321346Y-0248578
X-0321346Y-0245231
X-0321346Y-0242082
X-0317854Y-0242096
X-0317854Y-0245245
X-0317854Y-0248592
X-0320946Y-026481
X-0320946Y-0261661
X-0321Y-02681
X-031747Y-0264836
X-031747Y-0261687
X-0317524Y-0268126
X-0027559Y-0179528
X-002126Y-0176378
X-002126Y-0179528
X-0024409Y-0179528
X-0024409Y-0176378
X-0027559Y-0176378
X-0117Y-01371
X-0115542Y-0228642
X-01075Y-02241
X-0089173Y-0222441
X-0097441Y-0222638
X-0100787Y-0216142
X-0093307Y-0215748
X-0003479Y-020005
X00007Y-02
X00047Y-02
X00017Y-01958
X00088Y-01999
X-00161Y-0131794
X-0012924Y-0131794
X-00457Y-00987
X-00456Y-01032
X-00456Y-01082
X-02844Y-02045
X-02878Y-02045
X-01387Y00304
X-01351Y00304
X-01314Y00304
X-0138605Y0026954
X-0135005Y0026954
X-0131305Y0026954
X-0138605Y0023354
X-0135005Y0023354
X-0131305Y0023354
X-024Y-01851
X-000374Y-0240157
X-01302Y00406
X-00345Y-0247
X-004Y-0247
X-0045504Y-0258003
X-00455Y-02525
X-00455Y-0247
X-0342316Y003389
X-0342316Y0037039
X-0342316Y003074
X-0339166Y0037039
R02Y-000315
X-01302Y00442
X-01336Y00406
X-01336Y00442
X-02471Y-0207
X-0097638Y-0200394
T04
X-0056693Y-0227953
X-0241125Y-0197163
X-02626Y-02258
X-0117717Y-0088189
T05
X-0140551Y-0222835
X-0140551Y-0230709
T06
X0000276Y-0124921
X-0009724Y-0124921
X0000276Y-0114921
X-0009724Y-0114921
X0000276Y-0104921
X-0009724Y-0104921
X0000276Y-0094921
X-0009724Y-0094921
X0000276Y-0084921
X-0009724Y-0084921
X0000276Y-0074921
X-0009724Y-0074921
X0000276Y-0064921
X-0009724Y-0064921
X0000276Y-0054921
X-0009724Y-0054921
X0000276Y-0044921
X-0009724Y-0044921
X0000276Y-0034921
X-0009724Y-0034921
T07
X-02805Y-0033299
X-03205Y-0033299
X-02805Y-0097799
X-03205Y-0097799
T08
X-0123844Y-027237
X-0141167Y-027237
X-0013785Y0002939
X-0013785Y0020261
M30
